<?xml version="1.0" encoding="utf-8" standalone="no"?>
<!DOCTYPE svg PUBLIC "-//W3C//DTD SVG 1.1//EN"
  "http://www.w3.org/Graphics/SVG/1.1/DTD/svg11.dtd">
<!-- Created with matplotlib (https://matplotlib.org/) -->
<svg height="277.314375pt" version="1.1" viewBox="0 0 385.78125 277.314375" width="385.78125pt" xmlns="http://www.w3.org/2000/svg" xmlns:xlink="http://www.w3.org/1999/xlink">
 <metadata>
  <rdf:RDF xmlns:cc="http://creativecommons.org/ns#" xmlns:dc="http://purl.org/dc/elements/1.1/" xmlns:rdf="http://www.w3.org/1999/02/22-rdf-syntax-ns#">
   <cc:Work>
    <dc:type rdf:resource="http://purl.org/dc/dcmitype/StillImage"/>
    <dc:date>2022-01-28T20:41:21.921227</dc:date>
    <dc:format>image/svg+xml</dc:format>
    <dc:creator>
     <cc:Agent>
      <dc:title>Matplotlib v3.3.4, https://matplotlib.org/</dc:title>
     </cc:Agent>
    </dc:creator>
   </cc:Work>
  </rdf:RDF>
 </metadata>
 <defs>
  <style type="text/css">*{stroke-linecap:butt;stroke-linejoin:round;}</style>
 </defs>
 <g id="figure_1">
  <g id="patch_1">
   <path d="M 0 277.314375 
L 385.78125 277.314375 
L 385.78125 0 
L 0 0 
z
" style="fill:none;"/>
  </g>
  <g id="axes_1">
   <g id="patch_2">
    <path d="M 43.78125 239.758125 
L 378.58125 239.758125 
L 378.58125 22.318125 
L 43.78125 22.318125 
z
" style="fill:#ffffff;"/>
   </g>
   <g id="matplotlib.axis_1">
    <g id="xtick_1">
     <g id="line2d_1">
      <defs>
       <path d="M 0 0 
L 0 3.5 
" id="m1bd9d3c833" style="stroke:#000000;stroke-width:0.8;"/>
      </defs>
      <g>
       <use style="stroke:#000000;stroke-width:0.8;" x="77.26125" xlink:href="#m1bd9d3c833" y="239.758125"/>
      </g>
     </g>
     <g id="text_1">
      <!-- −2 -->
      <g transform="translate(69.890156 254.356562)scale(0.1 -0.1)">
       <defs>
        <path d="M 10.59375 35.5 
L 73.1875 35.5 
L 73.1875 27.203125 
L 10.59375 27.203125 
z
" id="DejaVuSans-8722"/>
        <path d="M 19.1875 8.296875 
L 53.609375 8.296875 
L 53.609375 0 
L 7.328125 0 
L 7.328125 8.296875 
Q 12.9375 14.109375 22.625 23.890625 
Q 32.328125 33.6875 34.8125 36.53125 
Q 39.546875 41.84375 41.421875 45.53125 
Q 43.3125 49.21875 43.3125 52.78125 
Q 43.3125 58.59375 39.234375 62.25 
Q 35.15625 65.921875 28.609375 65.921875 
Q 23.96875 65.921875 18.8125 64.3125 
Q 13.671875 62.703125 7.8125 59.421875 
L 7.8125 69.390625 
Q 13.765625 71.78125 18.9375 73 
Q 24.125 74.21875 28.421875 74.21875 
Q 39.75 74.21875 46.484375 68.546875 
Q 53.21875 62.890625 53.21875 53.421875 
Q 53.21875 48.921875 51.53125 44.890625 
Q 49.859375 40.875 45.40625 35.40625 
Q 44.1875 33.984375 37.640625 27.21875 
Q 31.109375 20.453125 19.1875 8.296875 
z
" id="DejaVuSans-50"/>
       </defs>
       <use xlink:href="#DejaVuSans-8722"/>
       <use x="83.789062" xlink:href="#DejaVuSans-50"/>
      </g>
     </g>
    </g>
    <g id="xtick_2">
     <g id="line2d_2">
      <g>
       <use style="stroke:#000000;stroke-width:0.8;" x="144.22125" xlink:href="#m1bd9d3c833" y="239.758125"/>
      </g>
     </g>
     <g id="text_2">
      <!-- −1 -->
      <g transform="translate(136.850156 254.356562)scale(0.1 -0.1)">
       <defs>
        <path d="M 12.40625 8.296875 
L 28.515625 8.296875 
L 28.515625 63.921875 
L 10.984375 60.40625 
L 10.984375 69.390625 
L 28.421875 72.90625 
L 38.28125 72.90625 
L 38.28125 8.296875 
L 54.390625 8.296875 
L 54.390625 0 
L 12.40625 0 
z
" id="DejaVuSans-49"/>
       </defs>
       <use xlink:href="#DejaVuSans-8722"/>
       <use x="83.789062" xlink:href="#DejaVuSans-49"/>
      </g>
     </g>
    </g>
    <g id="xtick_3">
     <g id="line2d_3">
      <g>
       <use style="stroke:#000000;stroke-width:0.8;" x="211.18125" xlink:href="#m1bd9d3c833" y="239.758125"/>
      </g>
     </g>
     <g id="text_3">
      <!-- 0 -->
      <g transform="translate(208 254.356562)scale(0.1 -0.1)">
       <defs>
        <path d="M 31.78125 66.40625 
Q 24.171875 66.40625 20.328125 58.90625 
Q 16.5 51.421875 16.5 36.375 
Q 16.5 21.390625 20.328125 13.890625 
Q 24.171875 6.390625 31.78125 6.390625 
Q 39.453125 6.390625 43.28125 13.890625 
Q 47.125 21.390625 47.125 36.375 
Q 47.125 51.421875 43.28125 58.90625 
Q 39.453125 66.40625 31.78125 66.40625 
z
M 31.78125 74.21875 
Q 44.046875 74.21875 50.515625 64.515625 
Q 56.984375 54.828125 56.984375 36.375 
Q 56.984375 17.96875 50.515625 8.265625 
Q 44.046875 -1.421875 31.78125 -1.421875 
Q 19.53125 -1.421875 13.0625 8.265625 
Q 6.59375 17.96875 6.59375 36.375 
Q 6.59375 54.828125 13.0625 64.515625 
Q 19.53125 74.21875 31.78125 74.21875 
z
" id="DejaVuSans-48"/>
       </defs>
       <use xlink:href="#DejaVuSans-48"/>
      </g>
     </g>
    </g>
    <g id="xtick_4">
     <g id="line2d_4">
      <g>
       <use style="stroke:#000000;stroke-width:0.8;" x="278.14125" xlink:href="#m1bd9d3c833" y="239.758125"/>
      </g>
     </g>
     <g id="text_4">
      <!-- 1 -->
      <g transform="translate(274.96 254.356562)scale(0.1 -0.1)">
       <use xlink:href="#DejaVuSans-49"/>
      </g>
     </g>
    </g>
    <g id="xtick_5">
     <g id="line2d_5">
      <g>
       <use style="stroke:#000000;stroke-width:0.8;" x="345.10125" xlink:href="#m1bd9d3c833" y="239.758125"/>
      </g>
     </g>
     <g id="text_5">
      <!-- 2 -->
      <g transform="translate(341.92 254.356562)scale(0.1 -0.1)">
       <use xlink:href="#DejaVuSans-50"/>
      </g>
     </g>
    </g>
    <g id="text_6">
     <!-- Value -->
     <g transform="translate(197.45 268.034687)scale(0.1 -0.1)">
      <defs>
       <path d="M 28.609375 0 
L 0.78125 72.90625 
L 11.078125 72.90625 
L 34.1875 11.53125 
L 57.328125 72.90625 
L 67.578125 72.90625 
L 39.796875 0 
z
" id="DejaVuSans-86"/>
       <path d="M 34.28125 27.484375 
Q 23.390625 27.484375 19.1875 25 
Q 14.984375 22.515625 14.984375 16.5 
Q 14.984375 11.71875 18.140625 8.90625 
Q 21.296875 6.109375 26.703125 6.109375 
Q 34.1875 6.109375 38.703125 11.40625 
Q 43.21875 16.703125 43.21875 25.484375 
L 43.21875 27.484375 
z
M 52.203125 31.203125 
L 52.203125 0 
L 43.21875 0 
L 43.21875 8.296875 
Q 40.140625 3.328125 35.546875 0.953125 
Q 30.953125 -1.421875 24.3125 -1.421875 
Q 15.921875 -1.421875 10.953125 3.296875 
Q 6 8.015625 6 15.921875 
Q 6 25.140625 12.171875 29.828125 
Q 18.359375 34.515625 30.609375 34.515625 
L 43.21875 34.515625 
L 43.21875 35.40625 
Q 43.21875 41.609375 39.140625 45 
Q 35.0625 48.390625 27.6875 48.390625 
Q 23 48.390625 18.546875 47.265625 
Q 14.109375 46.140625 10.015625 43.890625 
L 10.015625 52.203125 
Q 14.9375 54.109375 19.578125 55.046875 
Q 24.21875 56 28.609375 56 
Q 40.484375 56 46.34375 49.84375 
Q 52.203125 43.703125 52.203125 31.203125 
z
" id="DejaVuSans-97"/>
       <path d="M 9.421875 75.984375 
L 18.40625 75.984375 
L 18.40625 0 
L 9.421875 0 
z
" id="DejaVuSans-108"/>
       <path d="M 8.5 21.578125 
L 8.5 54.6875 
L 17.484375 54.6875 
L 17.484375 21.921875 
Q 17.484375 14.15625 20.5 10.265625 
Q 23.53125 6.390625 29.59375 6.390625 
Q 36.859375 6.390625 41.078125 11.03125 
Q 45.3125 15.671875 45.3125 23.6875 
L 45.3125 54.6875 
L 54.296875 54.6875 
L 54.296875 0 
L 45.3125 0 
L 45.3125 8.40625 
Q 42.046875 3.421875 37.71875 1 
Q 33.40625 -1.421875 27.6875 -1.421875 
Q 18.265625 -1.421875 13.375 4.4375 
Q 8.5 10.296875 8.5 21.578125 
z
M 31.109375 56 
z
" id="DejaVuSans-117"/>
       <path d="M 56.203125 29.59375 
L 56.203125 25.203125 
L 14.890625 25.203125 
Q 15.484375 15.921875 20.484375 11.0625 
Q 25.484375 6.203125 34.421875 6.203125 
Q 39.59375 6.203125 44.453125 7.46875 
Q 49.3125 8.734375 54.109375 11.28125 
L 54.109375 2.78125 
Q 49.265625 0.734375 44.1875 -0.34375 
Q 39.109375 -1.421875 33.890625 -1.421875 
Q 20.796875 -1.421875 13.15625 6.1875 
Q 5.515625 13.8125 5.515625 26.8125 
Q 5.515625 40.234375 12.765625 48.109375 
Q 20.015625 56 32.328125 56 
Q 43.359375 56 49.78125 48.890625 
Q 56.203125 41.796875 56.203125 29.59375 
z
M 47.21875 32.234375 
Q 47.125 39.59375 43.09375 43.984375 
Q 39.0625 48.390625 32.421875 48.390625 
Q 24.90625 48.390625 20.390625 44.140625 
Q 15.875 39.890625 15.1875 32.171875 
z
" id="DejaVuSans-101"/>
      </defs>
      <use xlink:href="#DejaVuSans-86"/>
      <use x="60.658203" xlink:href="#DejaVuSans-97"/>
      <use x="121.9375" xlink:href="#DejaVuSans-108"/>
      <use x="149.720703" xlink:href="#DejaVuSans-117"/>
      <use x="213.099609" xlink:href="#DejaVuSans-101"/>
     </g>
    </g>
   </g>
   <g id="matplotlib.axis_2">
    <g id="ytick_1">
     <g id="line2d_6">
      <defs>
       <path d="M 0 0 
L -3.5 0 
" id="mac97ff4243" style="stroke:#000000;stroke-width:0.8;"/>
      </defs>
      <g>
       <use style="stroke:#000000;stroke-width:0.8;" x="43.78125" xlink:href="#mac97ff4243" y="239.758125"/>
      </g>
     </g>
     <g id="text_7">
      <!-- 0.0 -->
      <g transform="translate(20.878125 243.557344)scale(0.1 -0.1)">
       <defs>
        <path d="M 10.6875 12.40625 
L 21 12.40625 
L 21 0 
L 10.6875 0 
z
" id="DejaVuSans-46"/>
       </defs>
       <use xlink:href="#DejaVuSans-48"/>
       <use x="63.623047" xlink:href="#DejaVuSans-46"/>
       <use x="95.410156" xlink:href="#DejaVuSans-48"/>
      </g>
     </g>
    </g>
    <g id="ytick_2">
     <g id="line2d_7">
      <g>
       <use style="stroke:#000000;stroke-width:0.8;" x="43.78125" xlink:href="#mac97ff4243" y="200.22358"/>
      </g>
     </g>
     <g id="text_8">
      <!-- 0.2 -->
      <g transform="translate(20.878125 204.022798)scale(0.1 -0.1)">
       <use xlink:href="#DejaVuSans-48"/>
       <use x="63.623047" xlink:href="#DejaVuSans-46"/>
       <use x="95.410156" xlink:href="#DejaVuSans-50"/>
      </g>
     </g>
    </g>
    <g id="ytick_3">
     <g id="line2d_8">
      <g>
       <use style="stroke:#000000;stroke-width:0.8;" x="43.78125" xlink:href="#mac97ff4243" y="160.689034"/>
      </g>
     </g>
     <g id="text_9">
      <!-- 0.4 -->
      <g transform="translate(20.878125 164.488253)scale(0.1 -0.1)">
       <defs>
        <path d="M 37.796875 64.3125 
L 12.890625 25.390625 
L 37.796875 25.390625 
z
M 35.203125 72.90625 
L 47.609375 72.90625 
L 47.609375 25.390625 
L 58.015625 25.390625 
L 58.015625 17.1875 
L 47.609375 17.1875 
L 47.609375 0 
L 37.796875 0 
L 37.796875 17.1875 
L 4.890625 17.1875 
L 4.890625 26.703125 
z
" id="DejaVuSans-52"/>
       </defs>
       <use xlink:href="#DejaVuSans-48"/>
       <use x="63.623047" xlink:href="#DejaVuSans-46"/>
       <use x="95.410156" xlink:href="#DejaVuSans-52"/>
      </g>
     </g>
    </g>
    <g id="ytick_4">
     <g id="line2d_9">
      <g>
       <use style="stroke:#000000;stroke-width:0.8;" x="43.78125" xlink:href="#mac97ff4243" y="121.154489"/>
      </g>
     </g>
     <g id="text_10">
      <!-- 0.6 -->
      <g transform="translate(20.878125 124.953707)scale(0.1 -0.1)">
       <defs>
        <path d="M 33.015625 40.375 
Q 26.375 40.375 22.484375 35.828125 
Q 18.609375 31.296875 18.609375 23.390625 
Q 18.609375 15.53125 22.484375 10.953125 
Q 26.375 6.390625 33.015625 6.390625 
Q 39.65625 6.390625 43.53125 10.953125 
Q 47.40625 15.53125 47.40625 23.390625 
Q 47.40625 31.296875 43.53125 35.828125 
Q 39.65625 40.375 33.015625 40.375 
z
M 52.59375 71.296875 
L 52.59375 62.3125 
Q 48.875 64.0625 45.09375 64.984375 
Q 41.3125 65.921875 37.59375 65.921875 
Q 27.828125 65.921875 22.671875 59.328125 
Q 17.53125 52.734375 16.796875 39.40625 
Q 19.671875 43.65625 24.015625 45.921875 
Q 28.375 48.1875 33.59375 48.1875 
Q 44.578125 48.1875 50.953125 41.515625 
Q 57.328125 34.859375 57.328125 23.390625 
Q 57.328125 12.15625 50.6875 5.359375 
Q 44.046875 -1.421875 33.015625 -1.421875 
Q 20.359375 -1.421875 13.671875 8.265625 
Q 6.984375 17.96875 6.984375 36.375 
Q 6.984375 53.65625 15.1875 63.9375 
Q 23.390625 74.21875 37.203125 74.21875 
Q 40.921875 74.21875 44.703125 73.484375 
Q 48.484375 72.75 52.59375 71.296875 
z
" id="DejaVuSans-54"/>
       </defs>
       <use xlink:href="#DejaVuSans-48"/>
       <use x="63.623047" xlink:href="#DejaVuSans-46"/>
       <use x="95.410156" xlink:href="#DejaVuSans-54"/>
      </g>
     </g>
    </g>
    <g id="ytick_5">
     <g id="line2d_10">
      <g>
       <use style="stroke:#000000;stroke-width:0.8;" x="43.78125" xlink:href="#mac97ff4243" y="81.619943"/>
      </g>
     </g>
     <g id="text_11">
      <!-- 0.8 -->
      <g transform="translate(20.878125 85.419162)scale(0.1 -0.1)">
       <defs>
        <path d="M 31.78125 34.625 
Q 24.75 34.625 20.71875 30.859375 
Q 16.703125 27.09375 16.703125 20.515625 
Q 16.703125 13.921875 20.71875 10.15625 
Q 24.75 6.390625 31.78125 6.390625 
Q 38.8125 6.390625 42.859375 10.171875 
Q 46.921875 13.96875 46.921875 20.515625 
Q 46.921875 27.09375 42.890625 30.859375 
Q 38.875 34.625 31.78125 34.625 
z
M 21.921875 38.8125 
Q 15.578125 40.375 12.03125 44.71875 
Q 8.5 49.078125 8.5 55.328125 
Q 8.5 64.0625 14.71875 69.140625 
Q 20.953125 74.21875 31.78125 74.21875 
Q 42.671875 74.21875 48.875 69.140625 
Q 55.078125 64.0625 55.078125 55.328125 
Q 55.078125 49.078125 51.53125 44.71875 
Q 48 40.375 41.703125 38.8125 
Q 48.828125 37.15625 52.796875 32.3125 
Q 56.78125 27.484375 56.78125 20.515625 
Q 56.78125 9.90625 50.3125 4.234375 
Q 43.84375 -1.421875 31.78125 -1.421875 
Q 19.734375 -1.421875 13.25 4.234375 
Q 6.78125 9.90625 6.78125 20.515625 
Q 6.78125 27.484375 10.78125 32.3125 
Q 14.796875 37.15625 21.921875 38.8125 
z
M 18.3125 54.390625 
Q 18.3125 48.734375 21.84375 45.5625 
Q 25.390625 42.390625 31.78125 42.390625 
Q 38.140625 42.390625 41.71875 45.5625 
Q 45.3125 48.734375 45.3125 54.390625 
Q 45.3125 60.0625 41.71875 63.234375 
Q 38.140625 66.40625 31.78125 66.40625 
Q 25.390625 66.40625 21.84375 63.234375 
Q 18.3125 60.0625 18.3125 54.390625 
z
" id="DejaVuSans-56"/>
       </defs>
       <use xlink:href="#DejaVuSans-48"/>
       <use x="63.623047" xlink:href="#DejaVuSans-46"/>
       <use x="95.410156" xlink:href="#DejaVuSans-56"/>
      </g>
     </g>
    </g>
    <g id="ytick_6">
     <g id="line2d_11">
      <g>
       <use style="stroke:#000000;stroke-width:0.8;" x="43.78125" xlink:href="#mac97ff4243" y="42.085398"/>
      </g>
     </g>
     <g id="text_12">
      <!-- 1.0 -->
      <g transform="translate(20.878125 45.884616)scale(0.1 -0.1)">
       <use xlink:href="#DejaVuSans-49"/>
       <use x="63.623047" xlink:href="#DejaVuSans-46"/>
       <use x="95.410156" xlink:href="#DejaVuSans-48"/>
      </g>
     </g>
    </g>
    <g id="text_13">
     <!-- Density -->
     <g transform="translate(14.798438 150.046719)rotate(-90)scale(0.1 -0.1)">
      <defs>
       <path d="M 19.671875 64.796875 
L 19.671875 8.109375 
L 31.59375 8.109375 
Q 46.6875 8.109375 53.6875 14.9375 
Q 60.6875 21.78125 60.6875 36.53125 
Q 60.6875 51.171875 53.6875 57.984375 
Q 46.6875 64.796875 31.59375 64.796875 
z
M 9.8125 72.90625 
L 30.078125 72.90625 
Q 51.265625 72.90625 61.171875 64.09375 
Q 71.09375 55.28125 71.09375 36.53125 
Q 71.09375 17.671875 61.125 8.828125 
Q 51.171875 0 30.078125 0 
L 9.8125 0 
z
" id="DejaVuSans-68"/>
       <path d="M 54.890625 33.015625 
L 54.890625 0 
L 45.90625 0 
L 45.90625 32.71875 
Q 45.90625 40.484375 42.875 44.328125 
Q 39.84375 48.1875 33.796875 48.1875 
Q 26.515625 48.1875 22.3125 43.546875 
Q 18.109375 38.921875 18.109375 30.90625 
L 18.109375 0 
L 9.078125 0 
L 9.078125 54.6875 
L 18.109375 54.6875 
L 18.109375 46.1875 
Q 21.34375 51.125 25.703125 53.5625 
Q 30.078125 56 35.796875 56 
Q 45.21875 56 50.046875 50.171875 
Q 54.890625 44.34375 54.890625 33.015625 
z
" id="DejaVuSans-110"/>
       <path d="M 44.28125 53.078125 
L 44.28125 44.578125 
Q 40.484375 46.53125 36.375 47.5 
Q 32.28125 48.484375 27.875 48.484375 
Q 21.1875 48.484375 17.84375 46.4375 
Q 14.5 44.390625 14.5 40.28125 
Q 14.5 37.15625 16.890625 35.375 
Q 19.28125 33.59375 26.515625 31.984375 
L 29.59375 31.296875 
Q 39.15625 29.25 43.1875 25.515625 
Q 47.21875 21.78125 47.21875 15.09375 
Q 47.21875 7.46875 41.1875 3.015625 
Q 35.15625 -1.421875 24.609375 -1.421875 
Q 20.21875 -1.421875 15.453125 -0.5625 
Q 10.6875 0.296875 5.421875 2 
L 5.421875 11.28125 
Q 10.40625 8.6875 15.234375 7.390625 
Q 20.0625 6.109375 24.8125 6.109375 
Q 31.15625 6.109375 34.5625 8.28125 
Q 37.984375 10.453125 37.984375 14.40625 
Q 37.984375 18.0625 35.515625 20.015625 
Q 33.0625 21.96875 24.703125 23.78125 
L 21.578125 24.515625 
Q 13.234375 26.265625 9.515625 29.90625 
Q 5.8125 33.546875 5.8125 39.890625 
Q 5.8125 47.609375 11.28125 51.796875 
Q 16.75 56 26.8125 56 
Q 31.78125 56 36.171875 55.265625 
Q 40.578125 54.546875 44.28125 53.078125 
z
" id="DejaVuSans-115"/>
       <path d="M 9.421875 54.6875 
L 18.40625 54.6875 
L 18.40625 0 
L 9.421875 0 
z
M 9.421875 75.984375 
L 18.40625 75.984375 
L 18.40625 64.59375 
L 9.421875 64.59375 
z
" id="DejaVuSans-105"/>
       <path d="M 18.3125 70.21875 
L 18.3125 54.6875 
L 36.8125 54.6875 
L 36.8125 47.703125 
L 18.3125 47.703125 
L 18.3125 18.015625 
Q 18.3125 11.328125 20.140625 9.421875 
Q 21.96875 7.515625 27.59375 7.515625 
L 36.8125 7.515625 
L 36.8125 0 
L 27.59375 0 
Q 17.1875 0 13.234375 3.875 
Q 9.28125 7.765625 9.28125 18.015625 
L 9.28125 47.703125 
L 2.6875 47.703125 
L 2.6875 54.6875 
L 9.28125 54.6875 
L 9.28125 70.21875 
z
" id="DejaVuSans-116"/>
       <path d="M 32.171875 -5.078125 
Q 28.375 -14.84375 24.75 -17.8125 
Q 21.140625 -20.796875 15.09375 -20.796875 
L 7.90625 -20.796875 
L 7.90625 -13.28125 
L 13.1875 -13.28125 
Q 16.890625 -13.28125 18.9375 -11.515625 
Q 21 -9.765625 23.484375 -3.21875 
L 25.09375 0.875 
L 2.984375 54.6875 
L 12.5 54.6875 
L 29.59375 11.921875 
L 46.6875 54.6875 
L 56.203125 54.6875 
z
" id="DejaVuSans-121"/>
      </defs>
      <use xlink:href="#DejaVuSans-68"/>
      <use x="77.001953" xlink:href="#DejaVuSans-101"/>
      <use x="138.525391" xlink:href="#DejaVuSans-110"/>
      <use x="201.904297" xlink:href="#DejaVuSans-115"/>
      <use x="254.003906" xlink:href="#DejaVuSans-105"/>
      <use x="281.787109" xlink:href="#DejaVuSans-116"/>
      <use x="320.996094" xlink:href="#DejaVuSans-121"/>
     </g>
    </g>
   </g>
   <g id="patch_3">
    <path clip-path="url(#pe5b0220f0f)" d="M 211.181547 239.758125 
L 211.181547 44.452007 
L 211.851128 44.452007 
L 211.851128 31.405242 
L 212.52071 31.405242 
L 212.52071 44.847363 
L 213.190291 44.847363 
L 213.190291 41.684511 
L 213.859872 41.684511 
L 213.859872 42.475224 
L 214.529453 42.475224 
L 214.529453 44.649685 
L 215.199035 44.649685 
L 215.199035 39.51005 
L 215.868616 39.51005 
L 215.868616 47.417181 
L 216.538197 47.417181 
L 216.538197 42.672903 
L 217.207779 42.672903 
L 217.207779 41.684511 
L 217.87736 41.684511 
L 217.87736 34.765772 
L 218.546941 34.765772 
L 218.546941 41.289155 
L 219.216522 41.289155 
L 219.216522 33.975059 
L 219.886104 33.975059 
L 219.886104 53.14985 
L 220.555685 53.14985 
L 220.555685 38.719337 
L 221.225266 38.719337 
L 221.225266 46.231111 
L 221.894847 46.231111 
L 221.894847 39.707729 
L 222.564429 39.707729 
L 222.564429 32.591311 
L 223.23401 32.591311 
L 223.23401 34.172738 
L 223.903591 34.172738 
L 223.903591 40.103085 
L 224.573172 40.103085 
L 224.573172 37.33559 
L 225.242754 37.33559 
L 225.242754 47.812537 
L 225.912335 47.812537 
L 225.912335 42.475224 
L 226.581916 42.475224 
L 226.581916 49.393963 
L 227.251498 49.393963 
L 227.251498 48.010216 
L 227.921079 48.010216 
L 227.921079 52.754494 
L 228.59066 52.754494 
L 228.59066 37.730946 
L 229.260241 37.730946 
L 229.260241 31.009885 
L 229.929823 31.009885 
L 229.929823 40.498442 
L 230.599404 40.498442 
L 230.599404 41.88219 
L 231.268985 41.88219 
L 231.268985 43.068259 
L 231.938566 43.068259 
L 231.938566 52.556815 
L 232.608148 52.556815 
L 232.608148 38.917016 
L 233.277729 38.917016 
L 233.277729 39.707729 
L 233.94731 39.707729 
L 233.94731 39.905407 
L 234.616891 39.905407 
L 234.616891 47.219502 
L 235.286473 47.219502 
L 235.286473 35.556485 
L 235.956054 35.556485 
L 235.956054 48.207894 
L 236.625635 48.207894 
L 236.625635 24.881859 
L 237.295217 24.881859 
L 237.295217 39.51005 
L 237.964798 39.51005 
L 237.964798 42.870581 
L 238.634379 42.870581 
L 238.634379 46.626468 
L 239.30396 46.626468 
L 239.30396 40.69612 
L 239.973542 40.69612 
L 239.973542 39.707729 
L 240.643123 39.707729 
L 240.643123 37.137911 
L 241.982285 37.137911 
L 241.982285 43.858972 
L 242.651867 43.858972 
L 242.651867 56.510381 
L 243.321448 56.510381 
L 243.321448 39.51005 
L 243.991029 39.51005 
L 243.991029 37.33559 
L 244.660611 37.33559 
L 244.660611 49.591642 
L 245.330192 49.591642 
L 245.330192 38.917016 
L 245.999773 38.917016 
L 245.999773 43.858972 
L 246.669354 43.858972 
L 246.669354 48.207894 
L 247.338936 48.207894 
L 247.338936 47.219502 
L 248.008517 47.219502 
L 248.008517 52.754494 
L 248.678098 52.754494 
L 248.678098 40.103085 
L 249.347679 40.103085 
L 249.347679 42.277546 
L 250.017261 42.277546 
L 250.017261 43.265937 
L 250.686842 43.265937 
L 250.686842 41.289155 
L 251.356423 41.289155 
L 251.356423 41.684511 
L 252.026004 41.684511 
L 252.026004 40.69612 
L 252.695586 40.69612 
L 252.695586 41.091477 
L 253.365167 41.091477 
L 253.365167 37.928624 
L 254.034748 37.928624 
L 254.034748 37.137911 
L 254.70433 37.137911 
L 254.70433 42.870581 
L 255.373911 42.870581 
L 255.373911 47.219502 
L 256.043492 47.219502 
L 256.043492 48.60325 
L 256.713073 48.60325 
L 256.713073 51.568424 
L 257.382655 51.568424 
L 257.382655 44.649685 
L 258.052236 44.649685 
L 258.052236 41.88219 
L 258.721817 41.88219 
L 258.721817 46.231111 
L 259.391398 46.231111 
L 259.391398 36.14952 
L 260.06098 36.14952 
L 260.06098 42.277546 
L 260.730561 42.277546 
L 260.730561 43.068259 
L 261.400142 43.068259 
L 261.400142 33.184346 
L 262.069723 33.184346 
L 262.069723 42.672903 
L 262.739305 42.672903 
L 262.739305 44.254329 
L 263.408886 44.254329 
L 263.408886 48.010216 
L 264.078467 48.010216 
L 264.078467 38.719337 
L 264.748049 38.719337 
L 264.748049 51.963781 
L 265.41763 51.963781 
L 265.41763 46.033433 
L 266.087211 46.033433 
L 266.087211 54.533598 
L 266.756792 54.533598 
L 266.756792 34.172738 
L 267.426374 34.172738 
L 267.426374 32.393633 
L 268.095955 32.393633 
L 268.095955 43.068259 
L 268.765536 43.068259 
L 268.765536 47.021824 
L 269.435117 47.021824 
L 269.435117 48.998607 
L 270.104699 48.998607 
L 270.104699 39.905407 
L 270.77428 39.905407 
L 270.77428 42.475224 
L 271.443861 42.475224 
L 271.443861 47.614859 
L 272.113443 47.614859 
L 272.113443 35.754164 
L 272.783024 35.754164 
L 272.783024 43.265937 
L 273.452605 43.265937 
L 273.452605 28.835425 
L 274.122186 28.835425 
L 274.122186 32.195955 
L 274.791768 32.195955 
L 274.791768 34.765772 
L 275.461349 34.765772 
L 275.461349 34.370416 
L 276.13093 34.370416 
L 276.13093 52.556815 
L 276.800511 52.556815 
L 276.800511 36.347198 
L 277.470093 36.347198 
L 277.470093 48.998607 
L 278.139674 48.998607 
L 278.139674 239.758125 
L 278.139674 239.758125 
" style="fill:none;stroke:#0000ff;stroke-linejoin:miter;"/>
   </g>
   <g id="patch_4">
    <path clip-path="url(#pe5b0220f0f)" d="M -1 239.304512 
L 5.353601 239.196509 
L 5.353601 239.023704 
L 11.481283 239.023704 
L 11.481283 238.721296 
L 23.736649 238.678095 
L 23.736649 238.116479 
L 29.864331 238.116479 
L 29.864331 237.360458 
L 35.992014 237.360458 
L 35.992014 236.539635 
L 42.119696 236.539635 
L 42.119696 236.129223 
L 48.247379 236.129223 
L 48.247379 235.135595 
L 54.375061 235.135595 
L 54.375061 233.601952 
L 60.502744 233.601952 
L 60.502744 232.003507 
L 66.630427 232.003507 
L 66.630427 230.66427 
L 72.758109 230.66427 
L 72.758109 229.497837 
L 78.885792 229.497837 
L 78.885792 227.985795 
L 85.013474 227.985795 
L 85.013474 225.566527 
L 91.141157 225.566527 
L 91.141157 222.520841 
L 97.268839 222.520841 
L 97.268839 219.799165 
L 103.396522 219.799165 
L 103.396522 215.608647 
L 109.524204 215.608647 
L 109.524204 212.692565 
L 115.651887 212.692565 
L 115.651887 208.869258 
L 121.77957 208.869258 
L 121.77957 206.255585 
L 127.907252 206.255585 
L 127.907252 201.352247 
L 134.034935 201.352247 
L 134.034935 196.405708 
L 140.162617 196.405708 
L 140.162617 193.705632 
L 146.2903 193.705632 
L 146.2903 188.111075 
L 152.417982 188.111075 
L 152.417982 184.028561 
L 158.545665 184.028561 
L 158.545665 179.190025 
L 164.673348 179.190025 
L 164.673348 176.317144 
L 170.80103 176.317144 
L 170.80103 171.457008 
L 176.928713 171.457008 
L 176.928713 170.852191 
L 183.056395 170.852191 
L 183.056395 166.942481 
L 189.184078 166.942481 
L 189.184078 162.795165 
L 195.31176 162.795165 
L 195.31176 162.557558 
L 201.439443 162.557558 
L 201.439443 161.391126 
L 207.567125 161.391126 
L 207.567125 160.743107 
L 213.694808 160.743107 
L 213.694808 163.507985 
L 219.822491 163.507985 
L 219.822491 163.31358 
L 232.077856 163.248778 
L 232.077856 166.056857 
L 238.205538 166.056857 
L 238.205538 168.238518 
L 244.333221 168.238518 
L 244.333221 170.506581 
L 250.460903 170.506581 
L 250.460903 174.956306 
L 256.588586 174.956306 
L 256.588586 180.226854 
L 262.716269 180.226854 
L 262.716269 182.21411 
L 268.843951 182.21411 
L 268.843951 187.787066 
L 274.971634 187.787066 
L 274.971634 191.415968 
L 281.099316 191.415968 
L 281.099316 196.47051 
L 287.226999 196.47051 
L 287.226999 201.654656 
L 293.354681 201.654656 
L 293.354681 203.814716 
L 299.482364 203.814716 
L 299.482364 207.962033 
L 305.610046 207.962033 
L 305.610046 213.275782 
L 311.737729 213.275782 
L 311.737729 216.170263 
L 317.865412 216.170263 
L 317.865412 220.295979 
L 323.993094 220.295979 
L 323.993094 221.39761 
L 330.120777 221.39761 
L 330.120777 224.011283 
L 336.248459 224.011283 
L 336.248459 226.927365 
L 342.376142 226.927365 
L 342.376142 230.059453 
L 354.631507 230.102654 
L 354.631507 231.960306 
L 360.75919 231.960306 
L 360.75919 233.450748 
L 366.886872 233.450748 
L 366.886872 234.96279 
L 373.014555 234.96279 
L 373.014555 235.891616 
L 379.142237 235.891616 
L 379.142237 236.539635 
L 385.26992 236.539635 
L 385.26992 237.317256 
L 386.78125 237.317256 
L 386.78125 237.317256 
" style="fill:none;stroke:#ff0000;stroke-linejoin:miter;"/>
   </g>
   <g id="patch_5">
    <path d="M 43.78125 239.758125 
L 43.78125 22.318125 
" style="fill:none;stroke:#000000;stroke-linecap:square;stroke-linejoin:miter;stroke-width:0.8;"/>
   </g>
   <g id="patch_6">
    <path d="M 378.58125 239.758125 
L 378.58125 22.318125 
" style="fill:none;stroke:#000000;stroke-linecap:square;stroke-linejoin:miter;stroke-width:0.8;"/>
   </g>
   <g id="patch_7">
    <path d="M 43.78125 239.758125 
L 378.58125 239.758125 
" style="fill:none;stroke:#000000;stroke-linecap:square;stroke-linejoin:miter;stroke-width:0.8;"/>
   </g>
   <g id="patch_8">
    <path d="M 43.78125 22.318125 
L 378.58125 22.318125 
" style="fill:none;stroke:#000000;stroke-linecap:square;stroke-linejoin:miter;stroke-width:0.8;"/>
   </g>
   <g id="text_14">
    <!-- Random distributions -->
    <g transform="translate(147.119063 16.318125)scale(0.12 -0.12)">
     <defs>
      <path d="M 44.390625 34.1875 
Q 47.5625 33.109375 50.5625 29.59375 
Q 53.5625 26.078125 56.59375 19.921875 
L 66.609375 0 
L 56 0 
L 46.6875 18.703125 
Q 43.0625 26.03125 39.671875 28.421875 
Q 36.28125 30.8125 30.421875 30.8125 
L 19.671875 30.8125 
L 19.671875 0 
L 9.8125 0 
L 9.8125 72.90625 
L 32.078125 72.90625 
Q 44.578125 72.90625 50.734375 67.671875 
Q 56.890625 62.453125 56.890625 51.90625 
Q 56.890625 45.015625 53.6875 40.46875 
Q 50.484375 35.9375 44.390625 34.1875 
z
M 19.671875 64.796875 
L 19.671875 38.921875 
L 32.078125 38.921875 
Q 39.203125 38.921875 42.84375 42.21875 
Q 46.484375 45.515625 46.484375 51.90625 
Q 46.484375 58.296875 42.84375 61.546875 
Q 39.203125 64.796875 32.078125 64.796875 
z
" id="DejaVuSans-82"/>
      <path d="M 45.40625 46.390625 
L 45.40625 75.984375 
L 54.390625 75.984375 
L 54.390625 0 
L 45.40625 0 
L 45.40625 8.203125 
Q 42.578125 3.328125 38.25 0.953125 
Q 33.9375 -1.421875 27.875 -1.421875 
Q 17.96875 -1.421875 11.734375 6.484375 
Q 5.515625 14.40625 5.515625 27.296875 
Q 5.515625 40.1875 11.734375 48.09375 
Q 17.96875 56 27.875 56 
Q 33.9375 56 38.25 53.625 
Q 42.578125 51.265625 45.40625 46.390625 
z
M 14.796875 27.296875 
Q 14.796875 17.390625 18.875 11.75 
Q 22.953125 6.109375 30.078125 6.109375 
Q 37.203125 6.109375 41.296875 11.75 
Q 45.40625 17.390625 45.40625 27.296875 
Q 45.40625 37.203125 41.296875 42.84375 
Q 37.203125 48.484375 30.078125 48.484375 
Q 22.953125 48.484375 18.875 42.84375 
Q 14.796875 37.203125 14.796875 27.296875 
z
" id="DejaVuSans-100"/>
      <path d="M 30.609375 48.390625 
Q 23.390625 48.390625 19.1875 42.75 
Q 14.984375 37.109375 14.984375 27.296875 
Q 14.984375 17.484375 19.15625 11.84375 
Q 23.34375 6.203125 30.609375 6.203125 
Q 37.796875 6.203125 41.984375 11.859375 
Q 46.1875 17.53125 46.1875 27.296875 
Q 46.1875 37.015625 41.984375 42.703125 
Q 37.796875 48.390625 30.609375 48.390625 
z
M 30.609375 56 
Q 42.328125 56 49.015625 48.375 
Q 55.71875 40.765625 55.71875 27.296875 
Q 55.71875 13.875 49.015625 6.21875 
Q 42.328125 -1.421875 30.609375 -1.421875 
Q 18.84375 -1.421875 12.171875 6.21875 
Q 5.515625 13.875 5.515625 27.296875 
Q 5.515625 40.765625 12.171875 48.375 
Q 18.84375 56 30.609375 56 
z
" id="DejaVuSans-111"/>
      <path d="M 52 44.1875 
Q 55.375 50.25 60.0625 53.125 
Q 64.75 56 71.09375 56 
Q 79.640625 56 84.28125 50.015625 
Q 88.921875 44.046875 88.921875 33.015625 
L 88.921875 0 
L 79.890625 0 
L 79.890625 32.71875 
Q 79.890625 40.578125 77.09375 44.375 
Q 74.3125 48.1875 68.609375 48.1875 
Q 61.625 48.1875 57.5625 43.546875 
Q 53.515625 38.921875 53.515625 30.90625 
L 53.515625 0 
L 44.484375 0 
L 44.484375 32.71875 
Q 44.484375 40.625 41.703125 44.40625 
Q 38.921875 48.1875 33.109375 48.1875 
Q 26.21875 48.1875 22.15625 43.53125 
Q 18.109375 38.875 18.109375 30.90625 
L 18.109375 0 
L 9.078125 0 
L 9.078125 54.6875 
L 18.109375 54.6875 
L 18.109375 46.1875 
Q 21.1875 51.21875 25.484375 53.609375 
Q 29.78125 56 35.6875 56 
Q 41.65625 56 45.828125 52.96875 
Q 50 49.953125 52 44.1875 
z
" id="DejaVuSans-109"/>
      <path id="DejaVuSans-32"/>
      <path d="M 41.109375 46.296875 
Q 39.59375 47.171875 37.8125 47.578125 
Q 36.03125 48 33.890625 48 
Q 26.265625 48 22.1875 43.046875 
Q 18.109375 38.09375 18.109375 28.8125 
L 18.109375 0 
L 9.078125 0 
L 9.078125 54.6875 
L 18.109375 54.6875 
L 18.109375 46.1875 
Q 20.953125 51.171875 25.484375 53.578125 
Q 30.03125 56 36.53125 56 
Q 37.453125 56 38.578125 55.875 
Q 39.703125 55.765625 41.0625 55.515625 
z
" id="DejaVuSans-114"/>
      <path d="M 48.6875 27.296875 
Q 48.6875 37.203125 44.609375 42.84375 
Q 40.53125 48.484375 33.40625 48.484375 
Q 26.265625 48.484375 22.1875 42.84375 
Q 18.109375 37.203125 18.109375 27.296875 
Q 18.109375 17.390625 22.1875 11.75 
Q 26.265625 6.109375 33.40625 6.109375 
Q 40.53125 6.109375 44.609375 11.75 
Q 48.6875 17.390625 48.6875 27.296875 
z
M 18.109375 46.390625 
Q 20.953125 51.265625 25.265625 53.625 
Q 29.59375 56 35.59375 56 
Q 45.5625 56 51.78125 48.09375 
Q 58.015625 40.1875 58.015625 27.296875 
Q 58.015625 14.40625 51.78125 6.484375 
Q 45.5625 -1.421875 35.59375 -1.421875 
Q 29.59375 -1.421875 25.265625 0.953125 
Q 20.953125 3.328125 18.109375 8.203125 
L 18.109375 0 
L 9.078125 0 
L 9.078125 75.984375 
L 18.109375 75.984375 
z
" id="DejaVuSans-98"/>
     </defs>
     <use xlink:href="#DejaVuSans-82"/>
     <use x="67.232422" xlink:href="#DejaVuSans-97"/>
     <use x="128.511719" xlink:href="#DejaVuSans-110"/>
     <use x="191.890625" xlink:href="#DejaVuSans-100"/>
     <use x="255.367188" xlink:href="#DejaVuSans-111"/>
     <use x="316.548828" xlink:href="#DejaVuSans-109"/>
     <use x="413.960938" xlink:href="#DejaVuSans-32"/>
     <use x="445.748047" xlink:href="#DejaVuSans-100"/>
     <use x="509.224609" xlink:href="#DejaVuSans-105"/>
     <use x="537.007812" xlink:href="#DejaVuSans-115"/>
     <use x="589.107422" xlink:href="#DejaVuSans-116"/>
     <use x="628.316406" xlink:href="#DejaVuSans-114"/>
     <use x="669.429688" xlink:href="#DejaVuSans-105"/>
     <use x="697.212891" xlink:href="#DejaVuSans-98"/>
     <use x="760.689453" xlink:href="#DejaVuSans-117"/>
     <use x="824.068359" xlink:href="#DejaVuSans-116"/>
     <use x="863.277344" xlink:href="#DejaVuSans-105"/>
     <use x="891.060547" xlink:href="#DejaVuSans-111"/>
     <use x="952.242188" xlink:href="#DejaVuSans-110"/>
     <use x="1015.621094" xlink:href="#DejaVuSans-115"/>
    </g>
   </g>
   <g id="legend_1">
    <g id="patch_9">
     <path d="M 50.78125 59.674375 
L 112.04375 59.674375 
Q 114.04375 59.674375 114.04375 57.674375 
L 114.04375 29.318125 
Q 114.04375 27.318125 112.04375 27.318125 
L 50.78125 27.318125 
Q 48.78125 27.318125 48.78125 29.318125 
L 48.78125 57.674375 
Q 48.78125 59.674375 50.78125 59.674375 
z
" style="fill:#ffffff;opacity:0.8;stroke:#cccccc;stroke-linejoin:miter;"/>
    </g>
    <g id="patch_10">
     <path d="M 52.78125 38.916562 
L 72.78125 38.916562 
L 72.78125 31.916562 
L 52.78125 31.916562 
z
" style="fill:none;stroke:#0000ff;stroke-linejoin:miter;"/>
    </g>
    <g id="text_15">
     <!-- rand -->
     <g transform="translate(80.78125 38.916562)scale(0.1 -0.1)">
      <use xlink:href="#DejaVuSans-114"/>
      <use x="41.113281" xlink:href="#DejaVuSans-97"/>
      <use x="102.392578" xlink:href="#DejaVuSans-110"/>
      <use x="165.771484" xlink:href="#DejaVuSans-100"/>
     </g>
    </g>
    <g id="patch_11">
     <path d="M 52.78125 53.594687 
L 72.78125 53.594687 
L 72.78125 46.594687 
L 52.78125 46.594687 
z
" style="fill:none;stroke:#ff0000;stroke-linejoin:miter;"/>
    </g>
    <g id="text_16">
     <!-- randn -->
     <g transform="translate(80.78125 53.594687)scale(0.1 -0.1)">
      <use xlink:href="#DejaVuSans-114"/>
      <use x="41.113281" xlink:href="#DejaVuSans-97"/>
      <use x="102.392578" xlink:href="#DejaVuSans-110"/>
      <use x="165.771484" xlink:href="#DejaVuSans-100"/>
      <use x="229.248047" xlink:href="#DejaVuSans-110"/>
     </g>
    </g>
   </g>
  </g>
 </g>
 <defs>
  <clipPath id="pe5b0220f0f">
   <rect height="217.44" width="334.8" x="43.78125" y="22.318125"/>
  </clipPath>
 </defs>
</svg>
