<?xml version="1.0" encoding="utf-8" standalone="no"?>
<!DOCTYPE svg PUBLIC "-//W3C//DTD SVG 1.1//EN"
  "http://www.w3.org/Graphics/SVG/1.1/DTD/svg11.dtd">
<!-- Created with matplotlib (https://matplotlib.org/) -->
<svg height="277.314375pt" version="1.1" viewBox="0 0 388.965625 277.314375" width="388.965625pt" xmlns="http://www.w3.org/2000/svg" xmlns:xlink="http://www.w3.org/1999/xlink">
 <metadata>
  <rdf:RDF xmlns:cc="http://creativecommons.org/ns#" xmlns:dc="http://purl.org/dc/elements/1.1/" xmlns:rdf="http://www.w3.org/1999/02/22-rdf-syntax-ns#">
   <cc:Work>
    <dc:type rdf:resource="http://purl.org/dc/dcmitype/StillImage"/>
    <dc:date>2022-02-02T01:02:25.196910</dc:date>
    <dc:format>image/svg+xml</dc:format>
    <dc:creator>
     <cc:Agent>
      <dc:title>Matplotlib v3.3.4, https://matplotlib.org/</dc:title>
     </cc:Agent>
    </dc:creator>
   </cc:Work>
  </rdf:RDF>
 </metadata>
 <defs>
  <style type="text/css">*{stroke-linecap:butt;stroke-linejoin:round;}</style>
 </defs>
 <g id="figure_1">
  <g id="patch_1">
   <path d="M 0 277.314375 
L 388.965625 277.314375 
L 388.965625 0 
L 0 0 
z
" style="fill:none;"/>
  </g>
  <g id="axes_1">
   <g id="patch_2">
    <path d="M 46.965625 239.758125 
L 381.765625 239.758125 
L 381.765625 22.318125 
L 46.965625 22.318125 
z
" style="fill:#ffffff;"/>
   </g>
   <g id="PathCollection_1">
    <defs>
     <path d="M 0 3 
C 0.795609 3 1.55874 2.683901 2.12132 2.12132 
C 2.683901 1.55874 3 0.795609 3 0 
C 3 -0.795609 2.683901 -1.55874 2.12132 -2.12132 
C 1.55874 -2.683901 0.795609 -3 0 -3 
C -0.795609 -3 -1.55874 -2.683901 -2.12132 -2.12132 
C -2.683901 -1.55874 -3 -0.795609 -3 0 
C -3 0.795609 -2.683901 1.55874 -2.12132 2.12132 
C -1.55874 2.683901 -0.795609 3 0 3 
z
" id="md6e3acccb3" style="stroke:#1f77b4;"/>
    </defs>
    <g clip-path="url(#p92dd0de3f7)">
     <use style="fill:#1f77b4;stroke:#1f77b4;" x="254.653133" xlink:href="#md6e3acccb3" y="110.4081"/>
     <use style="fill:#1f77b4;stroke:#1f77b4;" x="210.273028" xlink:href="#md6e3acccb3" y="127.022504"/>
     <use style="fill:#1f77b4;stroke:#1f77b4;" x="110.544929" xlink:href="#md6e3acccb3" y="181.687752"/>
     <use style="fill:#1f77b4;stroke:#1f77b4;" x="343.76316" xlink:href="#md6e3acccb3" y="52.846503"/>
     <use style="fill:#1f77b4;stroke:#1f77b4;" x="232.404631" xlink:href="#md6e3acccb3" y="127.058065"/>
     <use style="fill:#1f77b4;stroke:#1f77b4;" x="110.919247" xlink:href="#md6e3acccb3" y="179.595272"/>
     <use style="fill:#1f77b4;stroke:#1f77b4;" x="328.71204" xlink:href="#md6e3acccb3" y="63.032241"/>
     <use style="fill:#1f77b4;stroke:#1f77b4;" x="202.679608" xlink:href="#md6e3acccb3" y="126.638161"/>
     <use style="fill:#1f77b4;stroke:#1f77b4;" x="171.752075" xlink:href="#md6e3acccb3" y="152.762979"/>
     <use style="fill:#1f77b4;stroke:#1f77b4;" x="224.138199" xlink:href="#md6e3acccb3" y="132.956716"/>
     <use style="fill:#1f77b4;stroke:#1f77b4;" x="154.743469" xlink:href="#md6e3acccb3" y="151.605891"/>
     <use style="fill:#1f77b4;stroke:#1f77b4;" x="197.993893" xlink:href="#md6e3acccb3" y="142.166374"/>
     <use style="fill:#1f77b4;stroke:#1f77b4;" x="347.728068" xlink:href="#md6e3acccb3" y="49.049985"/>
     <use style="fill:#1f77b4;stroke:#1f77b4;" x="201.342474" xlink:href="#md6e3acccb3" y="119.928274"/>
     <use style="fill:#1f77b4;stroke:#1f77b4;" x="81.152699" xlink:href="#md6e3acccb3" y="191.139315"/>
     <use style="fill:#1f77b4;stroke:#1f77b4;" x="225.660095" xlink:href="#md6e3acccb3" y="135.605628"/>
     <use style="fill:#1f77b4;stroke:#1f77b4;" x="94.943056" xlink:href="#md6e3acccb3" y="197.121984"/>
     <use style="fill:#1f77b4;stroke:#1f77b4;" x="124.808894" xlink:href="#md6e3acccb3" y="183.95463"/>
     <use style="fill:#1f77b4;stroke:#1f77b4;" x="69.248159" xlink:href="#md6e3acccb3" y="221.775699"/>
     <use style="fill:#1f77b4;stroke:#1f77b4;" x="107.242337" xlink:href="#md6e3acccb3" y="188.073133"/>
     <use style="fill:#1f77b4;stroke:#1f77b4;" x="333.418901" xlink:href="#md6e3acccb3" y="64.551695"/>
     <use style="fill:#1f77b4;stroke:#1f77b4;" x="273.637133" xlink:href="#md6e3acccb3" y="102.942129"/>
     <use style="fill:#1f77b4;stroke:#1f77b4;" x="80.23028" xlink:href="#md6e3acccb3" y="193.405975"/>
     <use style="fill:#1f77b4;stroke:#1f77b4;" x="342.010812" xlink:href="#md6e3acccb3" y="68.4463"/>
     <use style="fill:#1f77b4;stroke:#1f77b4;" x="250.408558" xlink:href="#md6e3acccb3" y="102.395822"/>
     <use style="fill:#1f77b4;stroke:#1f77b4;" x="328.218726" xlink:href="#md6e3acccb3" y="74.469535"/>
     <use style="fill:#1f77b4;stroke:#1f77b4;" x="310.584104" xlink:href="#md6e3acccb3" y="84.621482"/>
     <use style="fill:#1f77b4;stroke:#1f77b4;" x="301.053255" xlink:href="#md6e3acccb3" y="100.040253"/>
     <use style="fill:#1f77b4;stroke:#1f77b4;" x="214.209964" xlink:href="#md6e3acccb3" y="134.204609"/>
     <use style="fill:#1f77b4;stroke:#1f77b4;" x="101.390405" xlink:href="#md6e3acccb3" y="193.589273"/>
     <use style="fill:#1f77b4;stroke:#1f77b4;" x="232.711802" xlink:href="#md6e3acccb3" y="132.999957"/>
     <use style="fill:#1f77b4;stroke:#1f77b4;" x="153.212683" xlink:href="#md6e3acccb3" y="171.494633"/>
     <use style="fill:#1f77b4;stroke:#1f77b4;" x="266.372013" xlink:href="#md6e3acccb3" y="127.370436"/>
     <use style="fill:#1f77b4;stroke:#1f77b4;" x="148.525117" xlink:href="#md6e3acccb3" y="176.711785"/>
     <use style="fill:#1f77b4;stroke:#1f77b4;" x="69.447633" xlink:href="#md6e3acccb3" y="217.033097"/>
     <use style="fill:#1f77b4;stroke:#1f77b4;" x="250.011296" xlink:href="#md6e3acccb3" y="123.871105"/>
     <use style="fill:#1f77b4;stroke:#1f77b4;" x="125.195947" xlink:href="#md6e3acccb3" y="175.222845"/>
     <use style="fill:#1f77b4;stroke:#1f77b4;" x="185.954252" xlink:href="#md6e3acccb3" y="164.777741"/>
     <use style="fill:#1f77b4;stroke:#1f77b4;" x="304.756766" xlink:href="#md6e3acccb3" y="90.068571"/>
     <use style="fill:#1f77b4;stroke:#1f77b4;" x="267.970344" xlink:href="#md6e3acccb3" y="111.664649"/>
     <use style="fill:#1f77b4;stroke:#1f77b4;" x="183.549715" xlink:href="#md6e3acccb3" y="137.314743"/>
     <use style="fill:#1f77b4;stroke:#1f77b4;" x="316.814817" xlink:href="#md6e3acccb3" y="82.105392"/>
     <use style="fill:#1f77b4;stroke:#1f77b4;" x="92.538455" xlink:href="#md6e3acccb3" y="224.455359"/>
     <use style="fill:#1f77b4;stroke:#1f77b4;" x="246.337378" xlink:href="#md6e3acccb3" y="116.635373"/>
     <use style="fill:#1f77b4;stroke:#1f77b4;" x="77.240414" xlink:href="#md6e3acccb3" y="204.442311"/>
     <use style="fill:#1f77b4;stroke:#1f77b4;" x="350.857156" xlink:href="#md6e3acccb3" y="60.679165"/>
     <use style="fill:#1f77b4;stroke:#1f77b4;" x="316.85628" xlink:href="#md6e3acccb3" y="114.512249"/>
     <use style="fill:#1f77b4;stroke:#1f77b4;" x="192.625808" xlink:href="#md6e3acccb3" y="143.524829"/>
     <use style="fill:#1f77b4;stroke:#1f77b4;" x="171.405504" xlink:href="#md6e3acccb3" y="138.159308"/>
     <use style="fill:#1f77b4;stroke:#1f77b4;" x="362.34897" xlink:href="#md6e3acccb3" y="51.732141"/>
     <use style="fill:#1f77b4;stroke:#1f77b4;" x="119.554132" xlink:href="#md6e3acccb3" y="201.195501"/>
     <use style="fill:#1f77b4;stroke:#1f77b4;" x="366.547443" xlink:href="#md6e3acccb3" y="51.276666"/>
     <use style="fill:#1f77b4;stroke:#1f77b4;" x="139.410688" xlink:href="#md6e3acccb3" y="184.206792"/>
     <use style="fill:#1f77b4;stroke:#1f77b4;" x="62.183807" xlink:href="#md6e3acccb3" y="208.189447"/>
     <use style="fill:#1f77b4;stroke:#1f77b4;" x="160.106973" xlink:href="#md6e3acccb3" y="177.98951"/>
     <use style="fill:#1f77b4;stroke:#1f77b4;" x="77.002101" xlink:href="#md6e3acccb3" y="216.98467"/>
     <use style="fill:#1f77b4;stroke:#1f77b4;" x="129.338302" xlink:href="#md6e3acccb3" y="166.729968"/>
     <use style="fill:#1f77b4;stroke:#1f77b4;" x="93.421167" xlink:href="#md6e3acccb3" y="215.888944"/>
     <use style="fill:#1f77b4;stroke:#1f77b4;" x="301.461996" xlink:href="#md6e3acccb3" y="81.125079"/>
     <use style="fill:#1f77b4;stroke:#1f77b4;" x="327.615448" xlink:href="#md6e3acccb3" y="50.341897"/>
     <use style="fill:#1f77b4;stroke:#1f77b4;" x="299.896667" xlink:href="#md6e3acccb3" y="100.71048"/>
     <use style="fill:#1f77b4;stroke:#1f77b4;" x="229.596916" xlink:href="#md6e3acccb3" y="135.426612"/>
     <use style="fill:#1f77b4;stroke:#1f77b4;" x="270.659931" xlink:href="#md6e3acccb3" y="98.581081"/>
     <use style="fill:#1f77b4;stroke:#1f77b4;" x="253.13471" xlink:href="#md6e3acccb3" y="121.62681"/>
     <use style="fill:#1f77b4;stroke:#1f77b4;" x="276.956619" xlink:href="#md6e3acccb3" y="104.837704"/>
     <use style="fill:#1f77b4;stroke:#1f77b4;" x="358.038481" xlink:href="#md6e3acccb3" y="49.477157"/>
     <use style="fill:#1f77b4;stroke:#1f77b4;" x="239.948453" xlink:href="#md6e3acccb3" y="123.864801"/>
     <use style="fill:#1f77b4;stroke:#1f77b4;" x="209.890938" xlink:href="#md6e3acccb3" y="163.193811"/>
     <use style="fill:#1f77b4;stroke:#1f77b4;" x="250.698263" xlink:href="#md6e3acccb3" y="95.913067"/>
     <use style="fill:#1f77b4;stroke:#1f77b4;" x="140.639199" xlink:href="#md6e3acccb3" y="199.934955"/>
     <use style="fill:#1f77b4;stroke:#1f77b4;" x="279.53246" xlink:href="#md6e3acccb3" y="115.7007"/>
     <use style="fill:#1f77b4;stroke:#1f77b4;" x="94.512929" xlink:href="#md6e3acccb3" y="211.060717"/>
     <use style="fill:#1f77b4;stroke:#1f77b4;" x="346.755817" xlink:href="#md6e3acccb3" y="61.581802"/>
     <use style="fill:#1f77b4;stroke:#1f77b4;" x="138.896097" xlink:href="#md6e3acccb3" y="157.427112"/>
     <use style="fill:#1f77b4;stroke:#1f77b4;" x="224.934826" xlink:href="#md6e3acccb3" y="126.336221"/>
     <use style="fill:#1f77b4;stroke:#1f77b4;" x="209.610425" xlink:href="#md6e3acccb3" y="137.528304"/>
     <use style="fill:#1f77b4;stroke:#1f77b4;" x="223.623743" xlink:href="#md6e3acccb3" y="120.840473"/>
     <use style="fill:#1f77b4;stroke:#1f77b4;" x="296.834318" xlink:href="#md6e3acccb3" y="109.089367"/>
     <use style="fill:#1f77b4;stroke:#1f77b4;" x="108.068888" xlink:href="#md6e3acccb3" y="184.204419"/>
     <use style="fill:#1f77b4;stroke:#1f77b4;" x="124.231638" xlink:href="#md6e3acccb3" y="183.766661"/>
     <use style="fill:#1f77b4;stroke:#1f77b4;" x="299.677878" xlink:href="#md6e3acccb3" y="85.477966"/>
     <use style="fill:#1f77b4;stroke:#1f77b4;" x="328.749819" xlink:href="#md6e3acccb3" y="52.668736"/>
     <use style="fill:#1f77b4;stroke:#1f77b4;" x="79.264708" xlink:href="#md6e3acccb3" y="229.874489"/>
     <use style="fill:#1f77b4;stroke:#1f77b4;" x="78.918368" xlink:href="#md6e3acccb3" y="203.948506"/>
     <use style="fill:#1f77b4;stroke:#1f77b4;" x="240.23379" xlink:href="#md6e3acccb3" y="132.544119"/>
     <use style="fill:#1f77b4;stroke:#1f77b4;" x="347.8883" xlink:href="#md6e3acccb3" y="52.068648"/>
     <use style="fill:#1f77b4;stroke:#1f77b4;" x="351.851062" xlink:href="#md6e3acccb3" y="32.201761"/>
     <use style="fill:#1f77b4;stroke:#1f77b4;" x="286.538679" xlink:href="#md6e3acccb3" y="110.441126"/>
     <use style="fill:#1f77b4;stroke:#1f77b4;" x="310.585623" xlink:href="#md6e3acccb3" y="99.172852"/>
     <use style="fill:#1f77b4;stroke:#1f77b4;" x="230.527324" xlink:href="#md6e3acccb3" y="114.119335"/>
     <use style="fill:#1f77b4;stroke:#1f77b4;" x="69.281284" xlink:href="#md6e3acccb3" y="206.946358"/>
     <use style="fill:#1f77b4;stroke:#1f77b4;" x="128.52941" xlink:href="#md6e3acccb3" y="182.402172"/>
     <use style="fill:#1f77b4;stroke:#1f77b4;" x="241.886621" xlink:href="#md6e3acccb3" y="111.439298"/>
     <use style="fill:#1f77b4;stroke:#1f77b4;" x="323.406439" xlink:href="#md6e3acccb3" y="87.369135"/>
     <use style="fill:#1f77b4;stroke:#1f77b4;" x="165.858426" xlink:href="#md6e3acccb3" y="158.304497"/>
     <use style="fill:#1f77b4;stroke:#1f77b4;" x="112.58552" xlink:href="#md6e3acccb3" y="185.8678"/>
     <use style="fill:#1f77b4;stroke:#1f77b4;" x="192.857413" xlink:href="#md6e3acccb3" y="131.919642"/>
     <use style="fill:#1f77b4;stroke:#1f77b4;" x="187.061893" xlink:href="#md6e3acccb3" y="190.837089"/>
     <use style="fill:#1f77b4;stroke:#1f77b4;" x="221.905986" xlink:href="#md6e3acccb3" y="120.223685"/>
     <use style="fill:#1f77b4;stroke:#1f77b4;" x="96.570088" xlink:href="#md6e3acccb3" y="202.038371"/>
    </g>
   </g>
   <g id="matplotlib.axis_1">
    <g id="xtick_1">
     <g id="line2d_1">
      <defs>
       <path d="M 0 0 
L 0 3.5 
" id="m8e0f604173" style="stroke:#000000;stroke-width:0.8;"/>
      </defs>
      <g>
       <use style="stroke:#000000;stroke-width:0.8;" x="80.052313" xlink:href="#m8e0f604173" y="239.758125"/>
      </g>
     </g>
     <g id="text_1">
      <!-- 66 -->
      <g transform="translate(73.689813 254.356562)scale(0.1 -0.1)">
       <defs>
        <path d="M 33.015625 40.375 
Q 26.375 40.375 22.484375 35.828125 
Q 18.609375 31.296875 18.609375 23.390625 
Q 18.609375 15.53125 22.484375 10.953125 
Q 26.375 6.390625 33.015625 6.390625 
Q 39.65625 6.390625 43.53125 10.953125 
Q 47.40625 15.53125 47.40625 23.390625 
Q 47.40625 31.296875 43.53125 35.828125 
Q 39.65625 40.375 33.015625 40.375 
z
M 52.59375 71.296875 
L 52.59375 62.3125 
Q 48.875 64.0625 45.09375 64.984375 
Q 41.3125 65.921875 37.59375 65.921875 
Q 27.828125 65.921875 22.671875 59.328125 
Q 17.53125 52.734375 16.796875 39.40625 
Q 19.671875 43.65625 24.015625 45.921875 
Q 28.375 48.1875 33.59375 48.1875 
Q 44.578125 48.1875 50.953125 41.515625 
Q 57.328125 34.859375 57.328125 23.390625 
Q 57.328125 12.15625 50.6875 5.359375 
Q 44.046875 -1.421875 33.015625 -1.421875 
Q 20.359375 -1.421875 13.671875 8.265625 
Q 6.984375 17.96875 6.984375 36.375 
Q 6.984375 53.65625 15.1875 63.9375 
Q 23.390625 74.21875 37.203125 74.21875 
Q 40.921875 74.21875 44.703125 73.484375 
Q 48.484375 72.75 52.59375 71.296875 
z
" id="DejaVuSans-54"/>
       </defs>
       <use xlink:href="#DejaVuSans-54"/>
       <use x="63.623047" xlink:href="#DejaVuSans-54"/>
      </g>
     </g>
    </g>
    <g id="xtick_2">
     <g id="line2d_2">
      <g>
       <use style="stroke:#000000;stroke-width:0.8;" x="128.107313" xlink:href="#m8e0f604173" y="239.758125"/>
      </g>
     </g>
     <g id="text_2">
      <!-- 68 -->
      <g transform="translate(121.744813 254.356562)scale(0.1 -0.1)">
       <defs>
        <path d="M 31.78125 34.625 
Q 24.75 34.625 20.71875 30.859375 
Q 16.703125 27.09375 16.703125 20.515625 
Q 16.703125 13.921875 20.71875 10.15625 
Q 24.75 6.390625 31.78125 6.390625 
Q 38.8125 6.390625 42.859375 10.171875 
Q 46.921875 13.96875 46.921875 20.515625 
Q 46.921875 27.09375 42.890625 30.859375 
Q 38.875 34.625 31.78125 34.625 
z
M 21.921875 38.8125 
Q 15.578125 40.375 12.03125 44.71875 
Q 8.5 49.078125 8.5 55.328125 
Q 8.5 64.0625 14.71875 69.140625 
Q 20.953125 74.21875 31.78125 74.21875 
Q 42.671875 74.21875 48.875 69.140625 
Q 55.078125 64.0625 55.078125 55.328125 
Q 55.078125 49.078125 51.53125 44.71875 
Q 48 40.375 41.703125 38.8125 
Q 48.828125 37.15625 52.796875 32.3125 
Q 56.78125 27.484375 56.78125 20.515625 
Q 56.78125 9.90625 50.3125 4.234375 
Q 43.84375 -1.421875 31.78125 -1.421875 
Q 19.734375 -1.421875 13.25 4.234375 
Q 6.78125 9.90625 6.78125 20.515625 
Q 6.78125 27.484375 10.78125 32.3125 
Q 14.796875 37.15625 21.921875 38.8125 
z
M 18.3125 54.390625 
Q 18.3125 48.734375 21.84375 45.5625 
Q 25.390625 42.390625 31.78125 42.390625 
Q 38.140625 42.390625 41.71875 45.5625 
Q 45.3125 48.734375 45.3125 54.390625 
Q 45.3125 60.0625 41.71875 63.234375 
Q 38.140625 66.40625 31.78125 66.40625 
Q 25.390625 66.40625 21.84375 63.234375 
Q 18.3125 60.0625 18.3125 54.390625 
z
" id="DejaVuSans-56"/>
       </defs>
       <use xlink:href="#DejaVuSans-54"/>
       <use x="63.623047" xlink:href="#DejaVuSans-56"/>
      </g>
     </g>
    </g>
    <g id="xtick_3">
     <g id="line2d_3">
      <g>
       <use style="stroke:#000000;stroke-width:0.8;" x="176.162313" xlink:href="#m8e0f604173" y="239.758125"/>
      </g>
     </g>
     <g id="text_3">
      <!-- 70 -->
      <g transform="translate(169.799813 254.356562)scale(0.1 -0.1)">
       <defs>
        <path d="M 8.203125 72.90625 
L 55.078125 72.90625 
L 55.078125 68.703125 
L 28.609375 0 
L 18.3125 0 
L 43.21875 64.59375 
L 8.203125 64.59375 
z
" id="DejaVuSans-55"/>
        <path d="M 31.78125 66.40625 
Q 24.171875 66.40625 20.328125 58.90625 
Q 16.5 51.421875 16.5 36.375 
Q 16.5 21.390625 20.328125 13.890625 
Q 24.171875 6.390625 31.78125 6.390625 
Q 39.453125 6.390625 43.28125 13.890625 
Q 47.125 21.390625 47.125 36.375 
Q 47.125 51.421875 43.28125 58.90625 
Q 39.453125 66.40625 31.78125 66.40625 
z
M 31.78125 74.21875 
Q 44.046875 74.21875 50.515625 64.515625 
Q 56.984375 54.828125 56.984375 36.375 
Q 56.984375 17.96875 50.515625 8.265625 
Q 44.046875 -1.421875 31.78125 -1.421875 
Q 19.53125 -1.421875 13.0625 8.265625 
Q 6.59375 17.96875 6.59375 36.375 
Q 6.59375 54.828125 13.0625 64.515625 
Q 19.53125 74.21875 31.78125 74.21875 
z
" id="DejaVuSans-48"/>
       </defs>
       <use xlink:href="#DejaVuSans-55"/>
       <use x="63.623047" xlink:href="#DejaVuSans-48"/>
      </g>
     </g>
    </g>
    <g id="xtick_4">
     <g id="line2d_4">
      <g>
       <use style="stroke:#000000;stroke-width:0.8;" x="224.217313" xlink:href="#m8e0f604173" y="239.758125"/>
      </g>
     </g>
     <g id="text_4">
      <!-- 72 -->
      <g transform="translate(217.854813 254.356562)scale(0.1 -0.1)">
       <defs>
        <path d="M 19.1875 8.296875 
L 53.609375 8.296875 
L 53.609375 0 
L 7.328125 0 
L 7.328125 8.296875 
Q 12.9375 14.109375 22.625 23.890625 
Q 32.328125 33.6875 34.8125 36.53125 
Q 39.546875 41.84375 41.421875 45.53125 
Q 43.3125 49.21875 43.3125 52.78125 
Q 43.3125 58.59375 39.234375 62.25 
Q 35.15625 65.921875 28.609375 65.921875 
Q 23.96875 65.921875 18.8125 64.3125 
Q 13.671875 62.703125 7.8125 59.421875 
L 7.8125 69.390625 
Q 13.765625 71.78125 18.9375 73 
Q 24.125 74.21875 28.421875 74.21875 
Q 39.75 74.21875 46.484375 68.546875 
Q 53.21875 62.890625 53.21875 53.421875 
Q 53.21875 48.921875 51.53125 44.890625 
Q 49.859375 40.875 45.40625 35.40625 
Q 44.1875 33.984375 37.640625 27.21875 
Q 31.109375 20.453125 19.1875 8.296875 
z
" id="DejaVuSans-50"/>
       </defs>
       <use xlink:href="#DejaVuSans-55"/>
       <use x="63.623047" xlink:href="#DejaVuSans-50"/>
      </g>
     </g>
    </g>
    <g id="xtick_5">
     <g id="line2d_5">
      <g>
       <use style="stroke:#000000;stroke-width:0.8;" x="272.272313" xlink:href="#m8e0f604173" y="239.758125"/>
      </g>
     </g>
     <g id="text_5">
      <!-- 74 -->
      <g transform="translate(265.909813 254.356562)scale(0.1 -0.1)">
       <defs>
        <path d="M 37.796875 64.3125 
L 12.890625 25.390625 
L 37.796875 25.390625 
z
M 35.203125 72.90625 
L 47.609375 72.90625 
L 47.609375 25.390625 
L 58.015625 25.390625 
L 58.015625 17.1875 
L 47.609375 17.1875 
L 47.609375 0 
L 37.796875 0 
L 37.796875 17.1875 
L 4.890625 17.1875 
L 4.890625 26.703125 
z
" id="DejaVuSans-52"/>
       </defs>
       <use xlink:href="#DejaVuSans-55"/>
       <use x="63.623047" xlink:href="#DejaVuSans-52"/>
      </g>
     </g>
    </g>
    <g id="xtick_6">
     <g id="line2d_6">
      <g>
       <use style="stroke:#000000;stroke-width:0.8;" x="320.327313" xlink:href="#m8e0f604173" y="239.758125"/>
      </g>
     </g>
     <g id="text_6">
      <!-- 76 -->
      <g transform="translate(313.964813 254.356562)scale(0.1 -0.1)">
       <use xlink:href="#DejaVuSans-55"/>
       <use x="63.623047" xlink:href="#DejaVuSans-54"/>
      </g>
     </g>
    </g>
    <g id="xtick_7">
     <g id="line2d_7">
      <g>
       <use style="stroke:#000000;stroke-width:0.8;" x="368.382313" xlink:href="#m8e0f604173" y="239.758125"/>
      </g>
     </g>
     <g id="text_7">
      <!-- 78 -->
      <g transform="translate(362.019813 254.356562)scale(0.1 -0.1)">
       <use xlink:href="#DejaVuSans-55"/>
       <use x="63.623047" xlink:href="#DejaVuSans-56"/>
      </g>
     </g>
    </g>
    <g id="text_8">
     <!-- Height -->
     <g transform="translate(197.836719 268.034687)scale(0.1 -0.1)">
      <defs>
       <path d="M 9.8125 72.90625 
L 19.671875 72.90625 
L 19.671875 43.015625 
L 55.515625 43.015625 
L 55.515625 72.90625 
L 65.375 72.90625 
L 65.375 0 
L 55.515625 0 
L 55.515625 34.71875 
L 19.671875 34.71875 
L 19.671875 0 
L 9.8125 0 
z
" id="DejaVuSans-72"/>
       <path d="M 56.203125 29.59375 
L 56.203125 25.203125 
L 14.890625 25.203125 
Q 15.484375 15.921875 20.484375 11.0625 
Q 25.484375 6.203125 34.421875 6.203125 
Q 39.59375 6.203125 44.453125 7.46875 
Q 49.3125 8.734375 54.109375 11.28125 
L 54.109375 2.78125 
Q 49.265625 0.734375 44.1875 -0.34375 
Q 39.109375 -1.421875 33.890625 -1.421875 
Q 20.796875 -1.421875 13.15625 6.1875 
Q 5.515625 13.8125 5.515625 26.8125 
Q 5.515625 40.234375 12.765625 48.109375 
Q 20.015625 56 32.328125 56 
Q 43.359375 56 49.78125 48.890625 
Q 56.203125 41.796875 56.203125 29.59375 
z
M 47.21875 32.234375 
Q 47.125 39.59375 43.09375 43.984375 
Q 39.0625 48.390625 32.421875 48.390625 
Q 24.90625 48.390625 20.390625 44.140625 
Q 15.875 39.890625 15.1875 32.171875 
z
" id="DejaVuSans-101"/>
       <path d="M 9.421875 54.6875 
L 18.40625 54.6875 
L 18.40625 0 
L 9.421875 0 
z
M 9.421875 75.984375 
L 18.40625 75.984375 
L 18.40625 64.59375 
L 9.421875 64.59375 
z
" id="DejaVuSans-105"/>
       <path d="M 45.40625 27.984375 
Q 45.40625 37.75 41.375 43.109375 
Q 37.359375 48.484375 30.078125 48.484375 
Q 22.859375 48.484375 18.828125 43.109375 
Q 14.796875 37.75 14.796875 27.984375 
Q 14.796875 18.265625 18.828125 12.890625 
Q 22.859375 7.515625 30.078125 7.515625 
Q 37.359375 7.515625 41.375 12.890625 
Q 45.40625 18.265625 45.40625 27.984375 
z
M 54.390625 6.78125 
Q 54.390625 -7.171875 48.1875 -13.984375 
Q 42 -20.796875 29.203125 -20.796875 
Q 24.46875 -20.796875 20.265625 -20.09375 
Q 16.0625 -19.390625 12.109375 -17.921875 
L 12.109375 -9.1875 
Q 16.0625 -11.328125 19.921875 -12.34375 
Q 23.78125 -13.375 27.78125 -13.375 
Q 36.625 -13.375 41.015625 -8.765625 
Q 45.40625 -4.15625 45.40625 5.171875 
L 45.40625 9.625 
Q 42.625 4.78125 38.28125 2.390625 
Q 33.9375 0 27.875 0 
Q 17.828125 0 11.671875 7.65625 
Q 5.515625 15.328125 5.515625 27.984375 
Q 5.515625 40.671875 11.671875 48.328125 
Q 17.828125 56 27.875 56 
Q 33.9375 56 38.28125 53.609375 
Q 42.625 51.21875 45.40625 46.390625 
L 45.40625 54.6875 
L 54.390625 54.6875 
z
" id="DejaVuSans-103"/>
       <path d="M 54.890625 33.015625 
L 54.890625 0 
L 45.90625 0 
L 45.90625 32.71875 
Q 45.90625 40.484375 42.875 44.328125 
Q 39.84375 48.1875 33.796875 48.1875 
Q 26.515625 48.1875 22.3125 43.546875 
Q 18.109375 38.921875 18.109375 30.90625 
L 18.109375 0 
L 9.078125 0 
L 9.078125 75.984375 
L 18.109375 75.984375 
L 18.109375 46.1875 
Q 21.34375 51.125 25.703125 53.5625 
Q 30.078125 56 35.796875 56 
Q 45.21875 56 50.046875 50.171875 
Q 54.890625 44.34375 54.890625 33.015625 
z
" id="DejaVuSans-104"/>
       <path d="M 18.3125 70.21875 
L 18.3125 54.6875 
L 36.8125 54.6875 
L 36.8125 47.703125 
L 18.3125 47.703125 
L 18.3125 18.015625 
Q 18.3125 11.328125 20.140625 9.421875 
Q 21.96875 7.515625 27.59375 7.515625 
L 36.8125 7.515625 
L 36.8125 0 
L 27.59375 0 
Q 17.1875 0 13.234375 3.875 
Q 9.28125 7.765625 9.28125 18.015625 
L 9.28125 47.703125 
L 2.6875 47.703125 
L 2.6875 54.6875 
L 9.28125 54.6875 
L 9.28125 70.21875 
z
" id="DejaVuSans-116"/>
      </defs>
      <use xlink:href="#DejaVuSans-72"/>
      <use x="75.195312" xlink:href="#DejaVuSans-101"/>
      <use x="136.71875" xlink:href="#DejaVuSans-105"/>
      <use x="164.501953" xlink:href="#DejaVuSans-103"/>
      <use x="227.978516" xlink:href="#DejaVuSans-104"/>
      <use x="291.357422" xlink:href="#DejaVuSans-116"/>
     </g>
    </g>
   </g>
   <g id="matplotlib.axis_2">
    <g id="ytick_1">
     <g id="line2d_8">
      <defs>
       <path d="M 0 0 
L -3.5 0 
" id="mf9fa279d64" style="stroke:#000000;stroke-width:0.8;"/>
      </defs>
      <g>
       <use style="stroke:#000000;stroke-width:0.8;" x="46.965625" xlink:href="#mf9fa279d64" y="218.908949"/>
      </g>
     </g>
     <g id="text_9">
      <!-- 130 -->
      <g transform="translate(20.878125 222.708168)scale(0.1 -0.1)">
       <defs>
        <path d="M 12.40625 8.296875 
L 28.515625 8.296875 
L 28.515625 63.921875 
L 10.984375 60.40625 
L 10.984375 69.390625 
L 28.421875 72.90625 
L 38.28125 72.90625 
L 38.28125 8.296875 
L 54.390625 8.296875 
L 54.390625 0 
L 12.40625 0 
z
" id="DejaVuSans-49"/>
        <path d="M 40.578125 39.3125 
Q 47.65625 37.796875 51.625 33 
Q 55.609375 28.21875 55.609375 21.1875 
Q 55.609375 10.40625 48.1875 4.484375 
Q 40.765625 -1.421875 27.09375 -1.421875 
Q 22.515625 -1.421875 17.65625 -0.515625 
Q 12.796875 0.390625 7.625 2.203125 
L 7.625 11.71875 
Q 11.71875 9.328125 16.59375 8.109375 
Q 21.484375 6.890625 26.8125 6.890625 
Q 36.078125 6.890625 40.9375 10.546875 
Q 45.796875 14.203125 45.796875 21.1875 
Q 45.796875 27.640625 41.28125 31.265625 
Q 36.765625 34.90625 28.71875 34.90625 
L 20.21875 34.90625 
L 20.21875 43.015625 
L 29.109375 43.015625 
Q 36.375 43.015625 40.234375 45.921875 
Q 44.09375 48.828125 44.09375 54.296875 
Q 44.09375 59.90625 40.109375 62.90625 
Q 36.140625 65.921875 28.71875 65.921875 
Q 24.65625 65.921875 20.015625 65.03125 
Q 15.375 64.15625 9.8125 62.3125 
L 9.8125 71.09375 
Q 15.4375 72.65625 20.34375 73.4375 
Q 25.25 74.21875 29.59375 74.21875 
Q 40.828125 74.21875 47.359375 69.109375 
Q 53.90625 64.015625 53.90625 55.328125 
Q 53.90625 49.265625 50.4375 45.09375 
Q 46.96875 40.921875 40.578125 39.3125 
z
" id="DejaVuSans-51"/>
       </defs>
       <use xlink:href="#DejaVuSans-49"/>
       <use x="63.623047" xlink:href="#DejaVuSans-51"/>
       <use x="127.246094" xlink:href="#DejaVuSans-48"/>
      </g>
     </g>
    </g>
    <g id="ytick_2">
     <g id="line2d_9">
      <g>
       <use style="stroke:#000000;stroke-width:0.8;" x="46.965625" xlink:href="#mf9fa279d64" y="186.189238"/>
      </g>
     </g>
     <g id="text_10">
      <!-- 135 -->
      <g transform="translate(20.878125 189.988457)scale(0.1 -0.1)">
       <defs>
        <path d="M 10.796875 72.90625 
L 49.515625 72.90625 
L 49.515625 64.59375 
L 19.828125 64.59375 
L 19.828125 46.734375 
Q 21.96875 47.46875 24.109375 47.828125 
Q 26.265625 48.1875 28.421875 48.1875 
Q 40.625 48.1875 47.75 41.5 
Q 54.890625 34.8125 54.890625 23.390625 
Q 54.890625 11.625 47.5625 5.09375 
Q 40.234375 -1.421875 26.90625 -1.421875 
Q 22.3125 -1.421875 17.546875 -0.640625 
Q 12.796875 0.140625 7.71875 1.703125 
L 7.71875 11.625 
Q 12.109375 9.234375 16.796875 8.0625 
Q 21.484375 6.890625 26.703125 6.890625 
Q 35.15625 6.890625 40.078125 11.328125 
Q 45.015625 15.765625 45.015625 23.390625 
Q 45.015625 31 40.078125 35.4375 
Q 35.15625 39.890625 26.703125 39.890625 
Q 22.75 39.890625 18.8125 39.015625 
Q 14.890625 38.140625 10.796875 36.28125 
z
" id="DejaVuSans-53"/>
       </defs>
       <use xlink:href="#DejaVuSans-49"/>
       <use x="63.623047" xlink:href="#DejaVuSans-51"/>
       <use x="127.246094" xlink:href="#DejaVuSans-53"/>
      </g>
     </g>
    </g>
    <g id="ytick_3">
     <g id="line2d_10">
      <g>
       <use style="stroke:#000000;stroke-width:0.8;" x="46.965625" xlink:href="#mf9fa279d64" y="153.469528"/>
      </g>
     </g>
     <g id="text_11">
      <!-- 140 -->
      <g transform="translate(20.878125 157.268747)scale(0.1 -0.1)">
       <use xlink:href="#DejaVuSans-49"/>
       <use x="63.623047" xlink:href="#DejaVuSans-52"/>
       <use x="127.246094" xlink:href="#DejaVuSans-48"/>
      </g>
     </g>
    </g>
    <g id="ytick_4">
     <g id="line2d_11">
      <g>
       <use style="stroke:#000000;stroke-width:0.8;" x="46.965625" xlink:href="#mf9fa279d64" y="120.749818"/>
      </g>
     </g>
     <g id="text_12">
      <!-- 145 -->
      <g transform="translate(20.878125 124.549036)scale(0.1 -0.1)">
       <use xlink:href="#DejaVuSans-49"/>
       <use x="63.623047" xlink:href="#DejaVuSans-52"/>
       <use x="127.246094" xlink:href="#DejaVuSans-53"/>
      </g>
     </g>
    </g>
    <g id="ytick_5">
     <g id="line2d_12">
      <g>
       <use style="stroke:#000000;stroke-width:0.8;" x="46.965625" xlink:href="#mf9fa279d64" y="88.030107"/>
      </g>
     </g>
     <g id="text_13">
      <!-- 150 -->
      <g transform="translate(20.878125 91.829326)scale(0.1 -0.1)">
       <use xlink:href="#DejaVuSans-49"/>
       <use x="63.623047" xlink:href="#DejaVuSans-53"/>
       <use x="127.246094" xlink:href="#DejaVuSans-48"/>
      </g>
     </g>
    </g>
    <g id="ytick_6">
     <g id="line2d_13">
      <g>
       <use style="stroke:#000000;stroke-width:0.8;" x="46.965625" xlink:href="#mf9fa279d64" y="55.310397"/>
      </g>
     </g>
     <g id="text_14">
      <!-- 155 -->
      <g transform="translate(20.878125 59.109616)scale(0.1 -0.1)">
       <use xlink:href="#DejaVuSans-49"/>
       <use x="63.623047" xlink:href="#DejaVuSans-53"/>
       <use x="127.246094" xlink:href="#DejaVuSans-53"/>
      </g>
     </g>
    </g>
    <g id="ytick_7">
     <g id="line2d_14">
      <g>
       <use style="stroke:#000000;stroke-width:0.8;" x="46.965625" xlink:href="#mf9fa279d64" y="22.590686"/>
      </g>
     </g>
     <g id="text_15">
      <!-- 160 -->
      <g transform="translate(20.878125 26.389905)scale(0.1 -0.1)">
       <use xlink:href="#DejaVuSans-49"/>
       <use x="63.623047" xlink:href="#DejaVuSans-54"/>
       <use x="127.246094" xlink:href="#DejaVuSans-48"/>
      </g>
     </g>
    </g>
    <g id="text_16">
     <!-- Weight -->
     <g transform="translate(14.798438 148.456875)rotate(-90)scale(0.1 -0.1)">
      <defs>
       <path d="M 3.328125 72.90625 
L 13.28125 72.90625 
L 28.609375 11.28125 
L 43.890625 72.90625 
L 54.984375 72.90625 
L 70.3125 11.28125 
L 85.59375 72.90625 
L 95.609375 72.90625 
L 77.296875 0 
L 64.890625 0 
L 49.515625 63.28125 
L 33.984375 0 
L 21.578125 0 
z
" id="DejaVuSans-87"/>
      </defs>
      <use xlink:href="#DejaVuSans-87"/>
      <use x="93.001953" xlink:href="#DejaVuSans-101"/>
      <use x="154.525391" xlink:href="#DejaVuSans-105"/>
      <use x="182.308594" xlink:href="#DejaVuSans-103"/>
      <use x="245.785156" xlink:href="#DejaVuSans-104"/>
      <use x="309.164062" xlink:href="#DejaVuSans-116"/>
     </g>
    </g>
   </g>
   <g id="patch_3">
    <path d="M 46.965625 239.758125 
L 46.965625 22.318125 
" style="fill:none;stroke:#000000;stroke-linecap:square;stroke-linejoin:miter;stroke-width:0.8;"/>
   </g>
   <g id="patch_4">
    <path d="M 381.765625 239.758125 
L 381.765625 22.318125 
" style="fill:none;stroke:#000000;stroke-linecap:square;stroke-linejoin:miter;stroke-width:0.8;"/>
   </g>
   <g id="patch_5">
    <path d="M 46.965625 239.758125 
L 381.765625 239.758125 
" style="fill:none;stroke:#000000;stroke-linecap:square;stroke-linejoin:miter;stroke-width:0.8;"/>
   </g>
   <g id="patch_6">
    <path d="M 46.965625 22.318125 
L 381.765625 22.318125 
" style="fill:none;stroke:#000000;stroke-linecap:square;stroke-linejoin:miter;stroke-width:0.8;"/>
   </g>
   <g id="text_17">
    <!-- Height vs Weight -->
    <g transform="translate(163.137813 16.318125)scale(0.12 -0.12)">
     <defs>
      <path id="DejaVuSans-32"/>
      <path d="M 2.984375 54.6875 
L 12.5 54.6875 
L 29.59375 8.796875 
L 46.6875 54.6875 
L 56.203125 54.6875 
L 35.6875 0 
L 23.484375 0 
z
" id="DejaVuSans-118"/>
      <path d="M 44.28125 53.078125 
L 44.28125 44.578125 
Q 40.484375 46.53125 36.375 47.5 
Q 32.28125 48.484375 27.875 48.484375 
Q 21.1875 48.484375 17.84375 46.4375 
Q 14.5 44.390625 14.5 40.28125 
Q 14.5 37.15625 16.890625 35.375 
Q 19.28125 33.59375 26.515625 31.984375 
L 29.59375 31.296875 
Q 39.15625 29.25 43.1875 25.515625 
Q 47.21875 21.78125 47.21875 15.09375 
Q 47.21875 7.46875 41.1875 3.015625 
Q 35.15625 -1.421875 24.609375 -1.421875 
Q 20.21875 -1.421875 15.453125 -0.5625 
Q 10.6875 0.296875 5.421875 2 
L 5.421875 11.28125 
Q 10.40625 8.6875 15.234375 7.390625 
Q 20.0625 6.109375 24.8125 6.109375 
Q 31.15625 6.109375 34.5625 8.28125 
Q 37.984375 10.453125 37.984375 14.40625 
Q 37.984375 18.0625 35.515625 20.015625 
Q 33.0625 21.96875 24.703125 23.78125 
L 21.578125 24.515625 
Q 13.234375 26.265625 9.515625 29.90625 
Q 5.8125 33.546875 5.8125 39.890625 
Q 5.8125 47.609375 11.28125 51.796875 
Q 16.75 56 26.8125 56 
Q 31.78125 56 36.171875 55.265625 
Q 40.578125 54.546875 44.28125 53.078125 
z
" id="DejaVuSans-115"/>
     </defs>
     <use xlink:href="#DejaVuSans-72"/>
     <use x="75.195312" xlink:href="#DejaVuSans-101"/>
     <use x="136.71875" xlink:href="#DejaVuSans-105"/>
     <use x="164.501953" xlink:href="#DejaVuSans-103"/>
     <use x="227.978516" xlink:href="#DejaVuSans-104"/>
     <use x="291.357422" xlink:href="#DejaVuSans-116"/>
     <use x="330.566406" xlink:href="#DejaVuSans-32"/>
     <use x="362.353516" xlink:href="#DejaVuSans-118"/>
     <use x="421.533203" xlink:href="#DejaVuSans-115"/>
     <use x="473.632812" xlink:href="#DejaVuSans-32"/>
     <use x="505.419922" xlink:href="#DejaVuSans-87"/>
     <use x="598.421875" xlink:href="#DejaVuSans-101"/>
     <use x="659.945312" xlink:href="#DejaVuSans-105"/>
     <use x="687.728516" xlink:href="#DejaVuSans-103"/>
     <use x="751.205078" xlink:href="#DejaVuSans-104"/>
     <use x="814.583984" xlink:href="#DejaVuSans-116"/>
    </g>
   </g>
  </g>
 </g>
 <defs>
  <clipPath id="p92dd0de3f7">
   <rect height="217.44" width="334.8" x="46.965625" y="22.318125"/>
  </clipPath>
 </defs>
</svg>
