<?xml version="1.0" encoding="utf-8" standalone="no"?>
<!DOCTYPE svg PUBLIC "-//W3C//DTD SVG 1.1//EN"
  "http://www.w3.org/Graphics/SVG/1.1/DTD/svg11.dtd">
<!-- Created with matplotlib (https://matplotlib.org/) -->
<svg height="363.654844pt" version="1.1" viewBox="0 0 363.438437 363.654844" width="363.438437pt" xmlns="http://www.w3.org/2000/svg" xmlns:xlink="http://www.w3.org/1999/xlink">
 <metadata>
  <rdf:RDF xmlns:cc="http://creativecommons.org/ns#" xmlns:dc="http://purl.org/dc/elements/1.1/" xmlns:rdf="http://www.w3.org/1999/02/22-rdf-syntax-ns#">
   <cc:Work>
    <dc:type rdf:resource="http://purl.org/dc/dcmitype/StillImage"/>
    <dc:date>2022-01-31T21:09:41.268950</dc:date>
    <dc:format>image/svg+xml</dc:format>
    <dc:creator>
     <cc:Agent>
      <dc:title>Matplotlib v3.3.4, https://matplotlib.org/</dc:title>
     </cc:Agent>
    </dc:creator>
   </cc:Work>
  </rdf:RDF>
 </metadata>
 <defs>
  <style type="text/css">*{stroke-linecap:butt;stroke-linejoin:round;}</style>
 </defs>
 <g id="figure_1">
  <g id="patch_1">
   <path d="M 0 363.654844 
L 363.438437 363.654844 
L 363.438437 0 
L 0 0 
z
" style="fill:#ffffff;"/>
  </g>
  <g id="axes_1">
   <g id="patch_2">
    <path d="M 43.908438 321.78 
L 356.238437 321.78 
L 356.238437 7.2 
L 43.908438 7.2 
z
" style="fill:#ffffff;"/>
   </g>
   <g id="matplotlib.axis_1">
    <g id="xtick_1">
     <g id="line2d_1">
      <defs>
       <path d="M 0 0 
L 0 6 
" id="m20c42852a9" style="stroke:#262626;stroke-width:1.25;"/>
      </defs>
      <g>
       <use style="fill:#262626;stroke:#262626;stroke-width:1.25;" x="82.949688" xlink:href="#m20c42852a9" y="321.78"/>
      </g>
     </g>
     <g id="text_1">
      <!-- Thur -->
      <g style="fill:#262626;" transform="translate(71.642031 339.153594)scale(0.11 -0.11)">
       <defs>
        <path d="M 25.921875 0 
L 25.921875 63.140625 
L 2.34375 63.140625 
L 2.34375 71.578125 
L 59.078125 71.578125 
L 59.078125 63.140625 
L 35.40625 63.140625 
L 35.40625 0 
z
" id="ArialMT-84"/>
        <path d="M 6.59375 0 
L 6.59375 71.578125 
L 15.375 71.578125 
L 15.375 45.90625 
Q 21.53125 53.03125 30.90625 53.03125 
Q 36.671875 53.03125 40.921875 50.75 
Q 45.171875 48.484375 47 44.484375 
Q 48.828125 40.484375 48.828125 32.859375 
L 48.828125 0 
L 40.046875 0 
L 40.046875 32.859375 
Q 40.046875 39.453125 37.1875 42.453125 
Q 34.328125 45.453125 29.109375 45.453125 
Q 25.203125 45.453125 21.75 43.421875 
Q 18.3125 41.40625 16.84375 37.9375 
Q 15.375 34.46875 15.375 28.375 
L 15.375 0 
z
" id="ArialMT-104"/>
        <path d="M 40.578125 0 
L 40.578125 7.625 
Q 34.515625 -1.171875 24.125 -1.171875 
Q 19.53125 -1.171875 15.546875 0.578125 
Q 11.578125 2.34375 9.640625 5 
Q 7.71875 7.671875 6.9375 11.53125 
Q 6.390625 14.109375 6.390625 19.734375 
L 6.390625 51.859375 
L 15.1875 51.859375 
L 15.1875 23.09375 
Q 15.1875 16.21875 15.71875 13.8125 
Q 16.546875 10.359375 19.234375 8.375 
Q 21.921875 6.390625 25.875 6.390625 
Q 29.828125 6.390625 33.296875 8.421875 
Q 36.765625 10.453125 38.203125 13.9375 
Q 39.65625 17.4375 39.65625 24.078125 
L 39.65625 51.859375 
L 48.4375 51.859375 
L 48.4375 0 
z
" id="ArialMT-117"/>
        <path d="M 6.5 0 
L 6.5 51.859375 
L 14.40625 51.859375 
L 14.40625 44 
Q 17.4375 49.515625 20 51.265625 
Q 22.5625 53.03125 25.640625 53.03125 
Q 30.078125 53.03125 34.671875 50.203125 
L 31.640625 42.046875 
Q 28.421875 43.953125 25.203125 43.953125 
Q 22.3125 43.953125 20.015625 42.21875 
Q 17.71875 40.484375 16.75 37.40625 
Q 15.28125 32.71875 15.28125 27.15625 
L 15.28125 0 
z
" id="ArialMT-114"/>
       </defs>
       <use xlink:href="#ArialMT-84"/>
       <use x="61.083984" xlink:href="#ArialMT-104"/>
       <use x="116.699219" xlink:href="#ArialMT-117"/>
       <use x="172.314453" xlink:href="#ArialMT-114"/>
      </g>
     </g>
    </g>
    <g id="xtick_2">
     <g id="line2d_2">
      <g>
       <use style="fill:#262626;stroke:#262626;stroke-width:1.25;" x="161.032188" xlink:href="#m20c42852a9" y="321.78"/>
      </g>
     </g>
     <g id="text_2">
      <!-- Fri -->
      <g style="fill:#262626;" transform="translate(154.619531 339.153594)scale(0.11 -0.11)">
       <defs>
        <path d="M 8.203125 0 
L 8.203125 71.578125 
L 56.5 71.578125 
L 56.5 63.140625 
L 17.671875 63.140625 
L 17.671875 40.96875 
L 51.265625 40.96875 
L 51.265625 32.515625 
L 17.671875 32.515625 
L 17.671875 0 
z
" id="ArialMT-70"/>
        <path d="M 6.640625 61.46875 
L 6.640625 71.578125 
L 15.4375 71.578125 
L 15.4375 61.46875 
z
M 6.640625 0 
L 6.640625 51.859375 
L 15.4375 51.859375 
L 15.4375 0 
z
" id="ArialMT-105"/>
       </defs>
       <use xlink:href="#ArialMT-70"/>
       <use x="61.083984" xlink:href="#ArialMT-114"/>
       <use x="94.384766" xlink:href="#ArialMT-105"/>
      </g>
     </g>
    </g>
    <g id="xtick_3">
     <g id="line2d_3">
      <g>
       <use style="fill:#262626;stroke:#262626;stroke-width:1.25;" x="239.114688" xlink:href="#m20c42852a9" y="321.78"/>
      </g>
     </g>
     <g id="text_3">
      <!-- Sat -->
      <g style="fill:#262626;" transform="translate(230.859531 339.153594)scale(0.11 -0.11)">
       <defs>
        <path d="M 4.5 23 
L 13.421875 23.78125 
Q 14.0625 18.40625 16.375 14.96875 
Q 18.703125 11.53125 23.578125 9.40625 
Q 28.46875 7.28125 34.578125 7.28125 
Q 39.984375 7.28125 44.140625 8.890625 
Q 48.296875 10.5 50.3125 13.296875 
Q 52.34375 16.109375 52.34375 19.4375 
Q 52.34375 22.796875 50.390625 25.3125 
Q 48.4375 27.828125 43.953125 29.546875 
Q 41.0625 30.671875 31.203125 33.03125 
Q 21.34375 35.40625 17.390625 37.5 
Q 12.25 40.1875 9.734375 44.15625 
Q 7.234375 48.140625 7.234375 53.078125 
Q 7.234375 58.5 10.296875 63.203125 
Q 13.375 67.921875 19.28125 70.359375 
Q 25.203125 72.796875 32.421875 72.796875 
Q 40.375 72.796875 46.453125 70.234375 
Q 52.546875 67.671875 55.8125 62.6875 
Q 59.078125 57.71875 59.328125 51.421875 
L 50.25 50.734375 
Q 49.515625 57.515625 45.28125 60.984375 
Q 41.0625 64.453125 32.8125 64.453125 
Q 24.21875 64.453125 20.28125 61.296875 
Q 16.359375 58.15625 16.359375 53.71875 
Q 16.359375 49.859375 19.140625 47.359375 
Q 21.875 44.875 33.421875 42.265625 
Q 44.96875 39.65625 49.265625 37.703125 
Q 55.515625 34.8125 58.484375 30.390625 
Q 61.46875 25.984375 61.46875 20.21875 
Q 61.46875 14.5 58.203125 9.4375 
Q 54.9375 4.390625 48.796875 1.578125 
Q 42.671875 -1.21875 35.015625 -1.21875 
Q 25.296875 -1.21875 18.71875 1.609375 
Q 12.15625 4.4375 8.421875 10.125 
Q 4.6875 15.828125 4.5 23 
z
" id="ArialMT-83"/>
        <path d="M 40.4375 6.390625 
Q 35.546875 2.25 31.03125 0.53125 
Q 26.515625 -1.171875 21.34375 -1.171875 
Q 12.796875 -1.171875 8.203125 3 
Q 3.609375 7.171875 3.609375 13.671875 
Q 3.609375 17.484375 5.34375 20.625 
Q 7.078125 23.78125 9.890625 25.6875 
Q 12.703125 27.59375 16.21875 28.5625 
Q 18.796875 29.25 24.03125 29.890625 
Q 34.671875 31.15625 39.703125 32.90625 
Q 39.75 34.71875 39.75 35.203125 
Q 39.75 40.578125 37.25 42.78125 
Q 33.890625 45.75 27.25 45.75 
Q 21.046875 45.75 18.09375 43.578125 
Q 15.140625 41.40625 13.71875 35.890625 
L 5.125 37.0625 
Q 6.296875 42.578125 8.984375 45.96875 
Q 11.671875 49.359375 16.75 51.1875 
Q 21.828125 53.03125 28.515625 53.03125 
Q 35.15625 53.03125 39.296875 51.46875 
Q 43.453125 49.90625 45.40625 47.53125 
Q 47.359375 45.171875 48.140625 41.546875 
Q 48.578125 39.3125 48.578125 33.453125 
L 48.578125 21.734375 
Q 48.578125 9.46875 49.140625 6.21875 
Q 49.703125 2.984375 51.375 0 
L 42.1875 0 
Q 40.828125 2.734375 40.4375 6.390625 
z
M 39.703125 26.03125 
Q 34.90625 24.078125 25.34375 22.703125 
Q 19.921875 21.921875 17.671875 20.9375 
Q 15.4375 19.96875 14.203125 18.09375 
Q 12.984375 16.21875 12.984375 13.921875 
Q 12.984375 10.40625 15.640625 8.0625 
Q 18.3125 5.71875 23.4375 5.71875 
Q 28.515625 5.71875 32.46875 7.9375 
Q 36.421875 10.15625 38.28125 14.015625 
Q 39.703125 17 39.703125 22.796875 
z
" id="ArialMT-97"/>
        <path d="M 25.78125 7.859375 
L 27.046875 0.09375 
Q 23.34375 -0.6875 20.40625 -0.6875 
Q 15.625 -0.6875 12.984375 0.828125 
Q 10.359375 2.34375 9.28125 4.8125 
Q 8.203125 7.28125 8.203125 15.1875 
L 8.203125 45.015625 
L 1.765625 45.015625 
L 1.765625 51.859375 
L 8.203125 51.859375 
L 8.203125 64.703125 
L 16.9375 69.96875 
L 16.9375 51.859375 
L 25.78125 51.859375 
L 25.78125 45.015625 
L 16.9375 45.015625 
L 16.9375 14.703125 
Q 16.9375 10.9375 17.40625 9.859375 
Q 17.875 8.796875 18.921875 8.15625 
Q 19.96875 7.515625 21.921875 7.515625 
Q 23.390625 7.515625 25.78125 7.859375 
z
" id="ArialMT-116"/>
       </defs>
       <use xlink:href="#ArialMT-83"/>
       <use x="66.699219" xlink:href="#ArialMT-97"/>
       <use x="122.314453" xlink:href="#ArialMT-116"/>
      </g>
     </g>
    </g>
    <g id="xtick_4">
     <g id="line2d_4">
      <g>
       <use style="fill:#262626;stroke:#262626;stroke-width:1.25;" x="317.197188" xlink:href="#m20c42852a9" y="321.78"/>
      </g>
     </g>
     <g id="text_4">
      <!-- Sun -->
      <g style="fill:#262626;" transform="translate(307.411484 339.153594)scale(0.11 -0.11)">
       <defs>
        <path d="M 6.59375 0 
L 6.59375 51.859375 
L 14.5 51.859375 
L 14.5 44.484375 
Q 20.21875 53.03125 31 53.03125 
Q 35.6875 53.03125 39.625 51.34375 
Q 43.5625 49.65625 45.515625 46.921875 
Q 47.46875 44.1875 48.25 40.4375 
Q 48.734375 37.984375 48.734375 31.890625 
L 48.734375 0 
L 39.9375 0 
L 39.9375 31.546875 
Q 39.9375 36.921875 38.90625 39.578125 
Q 37.890625 42.234375 35.28125 43.8125 
Q 32.671875 45.40625 29.15625 45.40625 
Q 23.53125 45.40625 19.453125 41.84375 
Q 15.375 38.28125 15.375 28.328125 
L 15.375 0 
z
" id="ArialMT-110"/>
       </defs>
       <use xlink:href="#ArialMT-83"/>
       <use x="66.699219" xlink:href="#ArialMT-117"/>
       <use x="122.314453" xlink:href="#ArialMT-110"/>
      </g>
     </g>
    </g>
    <g id="text_5">
     <!-- day -->
     <g style="fill:#262626;" transform="translate(190.400313 353.929219)scale(0.12 -0.12)">
      <defs>
       <path d="M 40.234375 0 
L 40.234375 6.546875 
Q 35.296875 -1.171875 25.734375 -1.171875 
Q 19.53125 -1.171875 14.328125 2.25 
Q 9.125 5.671875 6.265625 11.796875 
Q 3.421875 17.921875 3.421875 25.875 
Q 3.421875 33.640625 6 39.96875 
Q 8.59375 46.296875 13.765625 49.65625 
Q 18.953125 53.03125 25.34375 53.03125 
Q 30.03125 53.03125 33.6875 51.046875 
Q 37.359375 49.078125 39.65625 45.90625 
L 39.65625 71.578125 
L 48.390625 71.578125 
L 48.390625 0 
z
M 12.453125 25.875 
Q 12.453125 15.921875 16.640625 10.984375 
Q 20.84375 6.0625 26.5625 6.0625 
Q 32.328125 6.0625 36.34375 10.765625 
Q 40.375 15.484375 40.375 25.140625 
Q 40.375 35.796875 36.265625 40.765625 
Q 32.171875 45.75 26.171875 45.75 
Q 20.3125 45.75 16.375 40.96875 
Q 12.453125 36.1875 12.453125 25.875 
z
" id="ArialMT-100"/>
       <path d="M 6.203125 -19.96875 
L 5.21875 -11.71875 
Q 8.109375 -12.5 10.25 -12.5 
Q 13.1875 -12.5 14.9375 -11.515625 
Q 16.703125 -10.546875 17.828125 -8.796875 
Q 18.65625 -7.46875 20.515625 -2.25 
Q 20.75 -1.515625 21.296875 -0.09375 
L 1.609375 51.859375 
L 11.078125 51.859375 
L 21.875 21.828125 
Q 23.96875 16.109375 25.640625 9.8125 
Q 27.15625 15.875 29.25 21.625 
L 40.328125 51.859375 
L 49.125 51.859375 
L 29.390625 -0.875 
Q 26.21875 -9.421875 24.46875 -12.640625 
Q 22.125 -17 19.09375 -19.015625 
Q 16.0625 -21.046875 11.859375 -21.046875 
Q 9.328125 -21.046875 6.203125 -19.96875 
z
" id="ArialMT-121"/>
      </defs>
      <use xlink:href="#ArialMT-100"/>
      <use x="55.615234" xlink:href="#ArialMT-97"/>
      <use x="111.230469" xlink:href="#ArialMT-121"/>
     </g>
    </g>
   </g>
   <g id="matplotlib.axis_2">
    <g id="ytick_1">
     <g id="line2d_5">
      <defs>
       <path d="M 0 0 
L -6 0 
" id="mddf58ef869" style="stroke:#262626;stroke-width:1.25;"/>
      </defs>
      <g>
       <use style="fill:#262626;stroke:#262626;stroke-width:1.25;" x="43.908438" xlink:href="#mddf58ef869" y="286.272327"/>
      </g>
     </g>
     <g id="text_6">
      <!-- 0 -->
      <g style="fill:#262626;" transform="translate(28.291406 290.209124)scale(0.11 -0.11)">
       <defs>
        <path d="M 4.15625 35.296875 
Q 4.15625 48 6.765625 55.734375 
Q 9.375 63.484375 14.515625 67.671875 
Q 19.671875 71.875 27.484375 71.875 
Q 33.25 71.875 37.59375 69.546875 
Q 41.9375 67.234375 44.765625 62.859375 
Q 47.609375 58.5 49.21875 52.21875 
Q 50.828125 45.953125 50.828125 35.296875 
Q 50.828125 22.703125 48.234375 14.96875 
Q 45.65625 7.234375 40.5 3 
Q 35.359375 -1.21875 27.484375 -1.21875 
Q 17.140625 -1.21875 11.234375 6.203125 
Q 4.15625 15.140625 4.15625 35.296875 
z
M 13.1875 35.296875 
Q 13.1875 17.671875 17.3125 11.828125 
Q 21.4375 6 27.484375 6 
Q 33.546875 6 37.671875 11.859375 
Q 41.796875 17.71875 41.796875 35.296875 
Q 41.796875 52.984375 37.671875 58.78125 
Q 33.546875 64.59375 27.390625 64.59375 
Q 21.34375 64.59375 17.71875 59.46875 
Q 13.1875 52.9375 13.1875 35.296875 
z
" id="ArialMT-48"/>
       </defs>
       <use xlink:href="#ArialMT-48"/>
      </g>
     </g>
    </g>
    <g id="ytick_2">
     <g id="line2d_6">
      <g>
       <use style="fill:#262626;stroke:#262626;stroke-width:1.25;" x="43.908438" xlink:href="#mddf58ef869" y="241.067306"/>
      </g>
     </g>
     <g id="text_7">
      <!-- 10 -->
      <g style="fill:#262626;" transform="translate(22.174375 245.004103)scale(0.11 -0.11)">
       <defs>
        <path d="M 37.25 0 
L 28.46875 0 
L 28.46875 56 
Q 25.296875 52.984375 20.140625 49.953125 
Q 14.984375 46.921875 10.890625 45.40625 
L 10.890625 53.90625 
Q 18.265625 57.375 23.78125 62.296875 
Q 29.296875 67.234375 31.59375 71.875 
L 37.25 71.875 
z
" id="ArialMT-49"/>
       </defs>
       <use xlink:href="#ArialMT-49"/>
       <use x="55.615234" xlink:href="#ArialMT-48"/>
      </g>
     </g>
    </g>
    <g id="ytick_3">
     <g id="line2d_7">
      <g>
       <use style="fill:#262626;stroke:#262626;stroke-width:1.25;" x="43.908438" xlink:href="#mddf58ef869" y="195.862285"/>
      </g>
     </g>
     <g id="text_8">
      <!-- 20 -->
      <g style="fill:#262626;" transform="translate(22.174375 199.799082)scale(0.11 -0.11)">
       <defs>
        <path d="M 50.34375 8.453125 
L 50.34375 0 
L 3.03125 0 
Q 2.9375 3.171875 4.046875 6.109375 
Q 5.859375 10.9375 9.828125 15.625 
Q 13.8125 20.3125 21.34375 26.46875 
Q 33.015625 36.03125 37.109375 41.625 
Q 41.21875 47.21875 41.21875 52.203125 
Q 41.21875 57.421875 37.46875 61 
Q 33.734375 64.59375 27.734375 64.59375 
Q 21.390625 64.59375 17.578125 60.78125 
Q 13.765625 56.984375 13.71875 50.25 
L 4.6875 51.171875 
Q 5.609375 61.28125 11.65625 66.578125 
Q 17.71875 71.875 27.9375 71.875 
Q 38.234375 71.875 44.234375 66.15625 
Q 50.25 60.453125 50.25 52 
Q 50.25 47.703125 48.484375 43.546875 
Q 46.734375 39.40625 42.65625 34.8125 
Q 38.578125 30.21875 29.109375 22.21875 
Q 21.1875 15.578125 18.9375 13.203125 
Q 16.703125 10.84375 15.234375 8.453125 
z
" id="ArialMT-50"/>
       </defs>
       <use xlink:href="#ArialMT-50"/>
       <use x="55.615234" xlink:href="#ArialMT-48"/>
      </g>
     </g>
    </g>
    <g id="ytick_4">
     <g id="line2d_8">
      <g>
       <use style="fill:#262626;stroke:#262626;stroke-width:1.25;" x="43.908438" xlink:href="#mddf58ef869" y="150.657264"/>
      </g>
     </g>
     <g id="text_9">
      <!-- 30 -->
      <g style="fill:#262626;" transform="translate(22.174375 154.59406)scale(0.11 -0.11)">
       <defs>
        <path d="M 4.203125 18.890625 
L 12.984375 20.0625 
Q 14.5 12.59375 18.140625 9.296875 
Q 21.78125 6 27 6 
Q 33.203125 6 37.46875 10.296875 
Q 41.75 14.59375 41.75 20.953125 
Q 41.75 27 37.796875 30.921875 
Q 33.84375 34.859375 27.734375 34.859375 
Q 25.25 34.859375 21.53125 33.890625 
L 22.515625 41.609375 
Q 23.390625 41.5 23.921875 41.5 
Q 29.546875 41.5 34.03125 44.421875 
Q 38.53125 47.359375 38.53125 53.46875 
Q 38.53125 58.296875 35.25 61.46875 
Q 31.984375 64.65625 26.8125 64.65625 
Q 21.6875 64.65625 18.265625 61.421875 
Q 14.84375 58.203125 13.875 51.765625 
L 5.078125 53.328125 
Q 6.6875 62.15625 12.390625 67.015625 
Q 18.109375 71.875 26.609375 71.875 
Q 32.46875 71.875 37.390625 69.359375 
Q 42.328125 66.84375 44.9375 62.5 
Q 47.5625 58.15625 47.5625 53.265625 
Q 47.5625 48.640625 45.0625 44.828125 
Q 42.578125 41.015625 37.703125 38.765625 
Q 44.046875 37.3125 47.5625 32.6875 
Q 51.078125 28.078125 51.078125 21.140625 
Q 51.078125 11.765625 44.234375 5.25 
Q 37.40625 -1.265625 26.953125 -1.265625 
Q 17.53125 -1.265625 11.296875 4.34375 
Q 5.078125 9.96875 4.203125 18.890625 
z
" id="ArialMT-51"/>
       </defs>
       <use xlink:href="#ArialMT-51"/>
       <use x="55.615234" xlink:href="#ArialMT-48"/>
      </g>
     </g>
    </g>
    <g id="ytick_5">
     <g id="line2d_9">
      <g>
       <use style="fill:#262626;stroke:#262626;stroke-width:1.25;" x="43.908438" xlink:href="#mddf58ef869" y="105.452242"/>
      </g>
     </g>
     <g id="text_10">
      <!-- 40 -->
      <g style="fill:#262626;" transform="translate(22.174375 109.389039)scale(0.11 -0.11)">
       <defs>
        <path d="M 32.328125 0 
L 32.328125 17.140625 
L 1.265625 17.140625 
L 1.265625 25.203125 
L 33.9375 71.578125 
L 41.109375 71.578125 
L 41.109375 25.203125 
L 50.78125 25.203125 
L 50.78125 17.140625 
L 41.109375 17.140625 
L 41.109375 0 
z
M 32.328125 25.203125 
L 32.328125 57.46875 
L 9.90625 25.203125 
z
" id="ArialMT-52"/>
       </defs>
       <use xlink:href="#ArialMT-52"/>
       <use x="55.615234" xlink:href="#ArialMT-48"/>
      </g>
     </g>
    </g>
    <g id="ytick_6">
     <g id="line2d_10">
      <g>
       <use style="fill:#262626;stroke:#262626;stroke-width:1.25;" x="43.908438" xlink:href="#mddf58ef869" y="60.247221"/>
      </g>
     </g>
     <g id="text_11">
      <!-- 50 -->
      <g style="fill:#262626;" transform="translate(22.174375 64.184018)scale(0.11 -0.11)">
       <defs>
        <path d="M 4.15625 18.75 
L 13.375 19.53125 
Q 14.40625 12.796875 18.140625 9.390625 
Q 21.875 6 27.15625 6 
Q 33.5 6 37.890625 10.78125 
Q 42.28125 15.578125 42.28125 23.484375 
Q 42.28125 31 38.0625 35.34375 
Q 33.84375 39.703125 27 39.703125 
Q 22.75 39.703125 19.328125 37.765625 
Q 15.921875 35.84375 13.96875 32.765625 
L 5.71875 33.84375 
L 12.640625 70.609375 
L 48.25 70.609375 
L 48.25 62.203125 
L 19.671875 62.203125 
L 15.828125 42.96875 
Q 22.265625 47.46875 29.34375 47.46875 
Q 38.71875 47.46875 45.15625 40.96875 
Q 51.609375 34.46875 51.609375 24.265625 
Q 51.609375 14.546875 45.953125 7.46875 
Q 39.0625 -1.21875 27.15625 -1.21875 
Q 17.390625 -1.21875 11.203125 4.25 
Q 5.03125 9.71875 4.15625 18.75 
z
" id="ArialMT-53"/>
       </defs>
       <use xlink:href="#ArialMT-53"/>
       <use x="55.615234" xlink:href="#ArialMT-48"/>
      </g>
     </g>
    </g>
    <g id="ytick_7">
     <g id="line2d_11">
      <g>
       <use style="fill:#262626;stroke:#262626;stroke-width:1.25;" x="43.908438" xlink:href="#mddf58ef869" y="15.0422"/>
      </g>
     </g>
     <g id="text_12">
      <!-- 60 -->
      <g style="fill:#262626;" transform="translate(22.174375 18.978997)scale(0.11 -0.11)">
       <defs>
        <path d="M 49.75 54.046875 
L 41.015625 53.375 
Q 39.84375 58.546875 37.703125 60.890625 
Q 34.125 64.65625 28.90625 64.65625 
Q 24.703125 64.65625 21.53125 62.3125 
Q 17.390625 59.28125 14.984375 53.46875 
Q 12.59375 47.65625 12.5 36.921875 
Q 15.671875 41.75 20.265625 44.09375 
Q 24.859375 46.4375 29.890625 46.4375 
Q 38.671875 46.4375 44.84375 39.96875 
Q 51.03125 33.5 51.03125 23.25 
Q 51.03125 16.5 48.125 10.71875 
Q 45.21875 4.9375 40.140625 1.859375 
Q 35.0625 -1.21875 28.609375 -1.21875 
Q 17.625 -1.21875 10.6875 6.859375 
Q 3.765625 14.9375 3.765625 33.5 
Q 3.765625 54.25 11.421875 63.671875 
Q 18.109375 71.875 29.4375 71.875 
Q 37.890625 71.875 43.28125 67.140625 
Q 48.6875 62.40625 49.75 54.046875 
z
M 13.875 23.1875 
Q 13.875 18.65625 15.796875 14.5 
Q 17.71875 10.359375 21.1875 8.171875 
Q 24.65625 6 28.46875 6 
Q 34.03125 6 38.03125 10.484375 
Q 42.046875 14.984375 42.046875 22.703125 
Q 42.046875 30.125 38.078125 34.390625 
Q 34.125 38.671875 28.125 38.671875 
Q 22.171875 38.671875 18.015625 34.390625 
Q 13.875 30.125 13.875 23.1875 
z
" id="ArialMT-54"/>
       </defs>
       <use xlink:href="#ArialMT-54"/>
       <use x="55.615234" xlink:href="#ArialMT-48"/>
      </g>
     </g>
    </g>
    <g id="text_13">
     <!-- total_bill -->
     <g style="fill:#262626;" transform="translate(15.789375 186.5025)rotate(-90)scale(0.12 -0.12)">
      <defs>
       <path d="M 3.328125 25.921875 
Q 3.328125 40.328125 11.328125 47.265625 
Q 18.015625 53.03125 27.640625 53.03125 
Q 38.328125 53.03125 45.109375 46.015625 
Q 51.90625 39.015625 51.90625 26.65625 
Q 51.90625 16.65625 48.90625 10.90625 
Q 45.90625 5.171875 40.15625 2 
Q 34.421875 -1.171875 27.640625 -1.171875 
Q 16.75 -1.171875 10.03125 5.8125 
Q 3.328125 12.796875 3.328125 25.921875 
z
M 12.359375 25.921875 
Q 12.359375 15.96875 16.703125 11.015625 
Q 21.046875 6.0625 27.640625 6.0625 
Q 34.1875 6.0625 38.53125 11.03125 
Q 42.875 16.015625 42.875 26.21875 
Q 42.875 35.84375 38.5 40.796875 
Q 34.125 45.75 27.640625 45.75 
Q 21.046875 45.75 16.703125 40.8125 
Q 12.359375 35.890625 12.359375 25.921875 
z
" id="ArialMT-111"/>
       <path d="M 6.390625 0 
L 6.390625 71.578125 
L 15.1875 71.578125 
L 15.1875 0 
z
" id="ArialMT-108"/>
       <path d="M -1.515625 -19.875 
L -1.515625 -13.53125 
L 56.734375 -13.53125 
L 56.734375 -19.875 
z
" id="ArialMT-95"/>
       <path d="M 14.703125 0 
L 6.546875 0 
L 6.546875 71.578125 
L 15.328125 71.578125 
L 15.328125 46.046875 
Q 20.90625 53.03125 29.546875 53.03125 
Q 34.328125 53.03125 38.59375 51.09375 
Q 42.875 49.171875 45.625 45.671875 
Q 48.390625 42.1875 49.953125 37.25 
Q 51.515625 32.328125 51.515625 26.703125 
Q 51.515625 13.375 44.921875 6.09375 
Q 38.328125 -1.171875 29.109375 -1.171875 
Q 19.921875 -1.171875 14.703125 6.5 
z
M 14.59375 26.3125 
Q 14.59375 17 17.140625 12.84375 
Q 21.296875 6.0625 28.375 6.0625 
Q 34.125 6.0625 38.328125 11.0625 
Q 42.53125 16.0625 42.53125 25.984375 
Q 42.53125 36.140625 38.5 40.96875 
Q 34.46875 45.796875 28.765625 45.796875 
Q 23 45.796875 18.796875 40.796875 
Q 14.59375 35.796875 14.59375 26.3125 
z
" id="ArialMT-98"/>
      </defs>
      <use xlink:href="#ArialMT-116"/>
      <use x="27.783203" xlink:href="#ArialMT-111"/>
      <use x="83.398438" xlink:href="#ArialMT-116"/>
      <use x="111.181641" xlink:href="#ArialMT-97"/>
      <use x="166.796875" xlink:href="#ArialMT-108"/>
      <use x="189.013672" xlink:href="#ArialMT-95"/>
      <use x="244.628906" xlink:href="#ArialMT-98"/>
      <use x="300.244141" xlink:href="#ArialMT-105"/>
      <use x="322.460938" xlink:href="#ArialMT-108"/>
      <use x="344.677734" xlink:href="#ArialMT-108"/>
     </g>
    </g>
   </g>
   <g id="PolyCollection_1">
    <defs>
     <path d="M 83.586857 -80.09915 
L 82.312518 -80.09915 
L 82.066255 -82.355661 
L 81.745887 -84.612171 
L 81.33706 -86.868682 
L 80.825179 -89.125193 
L 80.196201 -91.381703 
L 79.437551 -93.638214 
L 78.539108 -95.894724 
L 77.494185 -98.151235 
L 76.300427 -100.407746 
L 74.960545 -102.664256 
L 73.482805 -104.920767 
L 71.881231 -107.177277 
L 70.175483 -109.433788 
L 68.3904 -111.690299 
L 66.555208 -113.946809 
L 64.702456 -116.20332 
L 62.866711 -118.45983 
L 61.083098 -120.716341 
L 59.385781 -122.972852 
L 57.806508 -125.229362 
L 56.373304 -127.485873 
L 55.109465 -129.742384 
L 54.032913 -131.998894 
L 53.155977 -134.255405 
L 52.485608 -136.511915 
L 52.023963 -138.768426 
L 51.76925 -141.024937 
L 51.716688 -143.281447 
L 51.859411 -145.537958 
L 52.189179 -147.794468 
L 52.696769 -150.050979 
L 53.372034 -152.30749 
L 54.20364 -154.564 
L 55.178601 -156.820511 
L 56.281751 -159.077021 
L 57.495322 -161.333532 
L 58.798769 -163.590043 
L 60.168952 -165.846553 
L 61.580706 -168.103064 
L 63.007763 -170.359574 
L 64.423942 -172.616085 
L 65.804448 -174.872596 
L 67.127148 -177.129106 
L 68.373655 -179.385617 
L 69.53011 -181.642128 
L 70.587589 -183.898638 
L 71.542107 -186.155149 
L 72.394247 -188.411659 
L 73.148467 -190.66817 
L 73.8122 -192.924681 
L 74.394836 -195.181191 
L 74.906702 -197.437702 
L 75.35815 -199.694212 
L 75.758833 -201.950723 
L 76.117221 -204.207234 
L 76.440385 -206.463744 
L 76.734031 -208.720255 
L 77.002746 -210.976765 
L 77.25036 -213.233276 
L 77.480351 -215.489787 
L 77.696184 -217.746297 
L 77.901511 -220.002808 
L 78.100176 -222.259319 
L 78.29602 -224.515829 
L 78.492523 -226.77234 
L 78.692347 -229.02885 
L 78.896884 -231.285361 
L 79.105915 -233.541872 
L 79.317462 -235.798382 
L 79.527894 -238.054893 
L 79.732304 -240.311403 
L 79.925104 -242.567914 
L 80.100783 -244.824425 
L 80.25469 -247.080935 
L 80.383756 -249.337446 
L 80.487009 -251.593956 
L 80.565834 -253.850467 
L 80.623921 -256.106978 
L 80.66691 -258.363488 
L 80.701786 -260.619999 
L 80.736118 -262.87651 
L 80.77723 -265.13302 
L 80.831435 -267.389531 
L 80.903408 -269.646041 
L 80.995787 -271.902552 
L 81.109019 -274.159063 
L 81.241466 -276.415573 
L 81.389724 -278.672084 
L 81.549099 -280.928594 
L 81.714174 -283.185105 
L 81.879376 -285.441616 
L 82.039491 -287.698126 
L 82.190066 -289.954637 
L 82.327673 -292.211147 
L 82.450034 -294.467658 
L 82.55601 -296.724169 
L 82.645483 -298.980679 
L 82.719171 -301.23719 
L 82.778406 -303.493701 
L 83.120969 -303.493701 
L 83.120969 -303.493701 
L 83.180204 -301.23719 
L 83.253892 -298.980679 
L 83.343365 -296.724169 
L 83.449341 -294.467658 
L 83.571702 -292.211147 
L 83.709309 -289.954637 
L 83.859884 -287.698126 
L 84.019999 -285.441616 
L 84.185201 -283.185105 
L 84.350276 -280.928594 
L 84.509651 -278.672084 
L 84.657909 -276.415573 
L 84.790356 -274.159063 
L 84.903588 -271.902552 
L 84.995967 -269.646041 
L 85.06794 -267.389531 
L 85.122145 -265.13302 
L 85.163257 -262.87651 
L 85.197589 -260.619999 
L 85.232465 -258.363488 
L 85.275454 -256.106978 
L 85.333541 -253.850467 
L 85.412366 -251.593956 
L 85.515619 -249.337446 
L 85.644685 -247.080935 
L 85.798592 -244.824425 
L 85.974271 -242.567914 
L 86.167071 -240.311403 
L 86.371481 -238.054893 
L 86.581913 -235.798382 
L 86.79346 -233.541872 
L 87.002491 -231.285361 
L 87.207028 -229.02885 
L 87.406852 -226.77234 
L 87.603355 -224.515829 
L 87.799199 -222.259319 
L 87.997864 -220.002808 
L 88.203191 -217.746297 
L 88.419024 -215.489787 
L 88.649015 -213.233276 
L 88.896629 -210.976765 
L 89.165344 -208.720255 
L 89.45899 -206.463744 
L 89.782154 -204.207234 
L 90.140542 -201.950723 
L 90.541225 -199.694212 
L 90.992673 -197.437702 
L 91.504539 -195.181191 
L 92.087175 -192.924681 
L 92.750908 -190.66817 
L 93.505128 -188.411659 
L 94.357268 -186.155149 
L 95.311786 -183.898638 
L 96.369265 -181.642128 
L 97.52572 -179.385617 
L 98.772227 -177.129106 
L 100.094927 -174.872596 
L 101.475433 -172.616085 
L 102.891612 -170.359574 
L 104.318669 -168.103064 
L 105.730423 -165.846553 
L 107.100606 -163.590043 
L 108.404053 -161.333532 
L 109.617624 -159.077021 
L 110.720774 -156.820511 
L 111.695735 -154.564 
L 112.527341 -152.30749 
L 113.202606 -150.050979 
L 113.710196 -147.794468 
L 114.039964 -145.537958 
L 114.182688 -143.281447 
L 114.130125 -141.024937 
L 113.875412 -138.768426 
L 113.413767 -136.511915 
L 112.743398 -134.255405 
L 111.866462 -131.998894 
L 110.78991 -129.742384 
L 109.526071 -127.485873 
L 108.092867 -125.229362 
L 106.513594 -122.972852 
L 104.816277 -120.716341 
L 103.032664 -118.45983 
L 101.196919 -116.20332 
L 99.344167 -113.946809 
L 97.508975 -111.690299 
L 95.723892 -109.433788 
L 94.018144 -107.177277 
L 92.41657 -104.920767 
L 90.93883 -102.664256 
L 89.598948 -100.407746 
L 88.40519 -98.151235 
L 87.360267 -95.894724 
L 86.461824 -93.638214 
L 85.703174 -91.381703 
L 85.074196 -89.125193 
L 84.562315 -86.868682 
L 84.153488 -84.612171 
L 83.83312 -82.355661 
L 83.586857 -80.09915 
z
" id="m236f1cd8d8" style="stroke:#4c4c4c;stroke-width:1.5;"/>
    </defs>
    <g clip-path="url(#p38ba9bd879)">
     <use style="fill:#5875a4;stroke:#4c4c4c;stroke-width:1.5;" x="0" xlink:href="#m236f1cd8d8" y="363.654844"/>
    </g>
   </g>
   <g id="PolyCollection_2">
    <defs>
     <path d="M 161.513207 -61.718864 
L 160.551168 -61.718864 
L 160.408301 -64.132084 
L 160.231273 -66.545304 
L 160.014281 -68.958523 
L 159.751109 -71.371743 
L 159.435223 -73.784963 
L 159.059892 -76.198183 
L 158.618342 -78.611403 
L 158.103944 -81.024623 
L 157.51043 -83.437842 
L 156.832152 -85.851062 
L 156.064365 -88.264282 
L 155.203553 -90.677502 
L 154.247776 -93.090722 
L 153.197043 -95.503942 
L 152.05368 -97.917161 
L 150.822691 -100.330381 
L 149.512069 -102.743601 
L 148.133039 -105.156821 
L 146.700186 -107.570041 
L 145.231444 -109.983261 
L 143.747905 -112.39648 
L 142.273441 -114.8097 
L 140.834108 -117.22292 
L 139.457353 -119.63614 
L 138.171045 -122.04936 
L 137.002371 -124.462579 
L 135.976651 -126.875799 
L 135.11616 -129.289019 
L 134.439022 -131.702239 
L 133.958268 -134.115459 
L 133.681137 -136.528679 
L 133.608661 -138.941898 
L 133.735608 -141.355118 
L 134.050758 -143.768338 
L 134.537532 -146.181558 
L 135.174914 -148.594778 
L 135.938601 -151.007998 
L 136.802303 -153.421217 
L 137.739093 -155.834437 
L 138.722715 -158.247657 
L 139.728751 -160.660877 
L 140.735587 -163.074097 
L 141.725116 -165.487316 
L 142.683159 -167.900536 
L 143.599599 -170.313756 
L 144.468258 -172.726976 
L 145.286551 -175.140196 
L 146.054986 -177.553416 
L 146.77655 -179.966635 
L 147.456063 -182.379855 
L 148.099527 -184.793075 
L 148.713522 -187.206295 
L 149.304675 -189.619515 
L 149.879201 -192.032735 
L 150.442544 -194.445954 
L 150.999093 -196.859174 
L 151.551971 -199.272394 
L 152.102912 -201.685614 
L 152.652189 -204.098834 
L 153.198624 -206.512053 
L 153.739661 -208.925273 
L 154.271513 -211.338493 
L 154.789383 -213.751713 
L 155.287747 -216.164933 
L 155.760699 -218.578153 
L 156.202339 -220.991372 
L 156.607176 -223.404592 
L 156.970531 -225.817812 
L 157.288893 -228.231032 
L 157.560222 -230.644252 
L 157.784157 -233.057472 
L 157.962119 -235.470691 
L 158.097289 -237.883911 
L 158.194472 -240.297131 
L 158.25985 -242.710351 
L 158.300634 -245.123571 
L 158.324655 -247.53679 
L 158.33991 -249.95001 
L 158.354112 -252.36323 
L 158.374261 -254.77645 
L 158.406284 -257.18967 
L 158.454752 -259.60289 
L 158.522711 -262.016109 
L 158.611611 -264.429329 
L 158.721358 -266.842549 
L 158.850456 -269.255769 
L 158.996233 -271.668989 
L 159.155131 -274.082209 
L 159.323017 -276.495428 
L 159.495504 -278.908648 
L 159.668254 -281.321868 
L 159.837233 -283.735088 
L 159.998919 -286.148308 
L 160.150438 -288.561527 
L 160.289644 -290.974747 
L 160.415132 -293.387967 
L 160.526202 -295.801187 
L 160.622782 -298.214407 
L 160.705327 -300.627627 
L 161.359048 -300.627627 
L 161.359048 -300.627627 
L 161.441593 -298.214407 
L 161.538173 -295.801187 
L 161.649243 -293.387967 
L 161.774731 -290.974747 
L 161.913937 -288.561527 
L 162.065456 -286.148308 
L 162.227142 -283.735088 
L 162.396121 -281.321868 
L 162.568871 -278.908648 
L 162.741358 -276.495428 
L 162.909244 -274.082209 
L 163.068142 -271.668989 
L 163.213919 -269.255769 
L 163.343017 -266.842549 
L 163.452764 -264.429329 
L 163.541664 -262.016109 
L 163.609623 -259.60289 
L 163.658091 -257.18967 
L 163.690114 -254.77645 
L 163.710263 -252.36323 
L 163.724465 -249.95001 
L 163.73972 -247.53679 
L 163.763741 -245.123571 
L 163.804525 -242.710351 
L 163.869903 -240.297131 
L 163.967086 -237.883911 
L 164.102256 -235.470691 
L 164.280218 -233.057472 
L 164.504153 -230.644252 
L 164.775482 -228.231032 
L 165.093844 -225.817812 
L 165.457199 -223.404592 
L 165.862036 -220.991372 
L 166.303676 -218.578153 
L 166.776628 -216.164933 
L 167.274992 -213.751713 
L 167.792862 -211.338493 
L 168.324714 -208.925273 
L 168.865751 -206.512053 
L 169.412186 -204.098834 
L 169.961463 -201.685614 
L 170.512404 -199.272394 
L 171.065282 -196.859174 
L 171.621831 -194.445954 
L 172.185174 -192.032735 
L 172.7597 -189.619515 
L 173.350853 -187.206295 
L 173.964848 -184.793075 
L 174.608312 -182.379855 
L 175.287825 -179.966635 
L 176.009389 -177.553416 
L 176.777824 -175.140196 
L 177.596117 -172.726976 
L 178.464776 -170.313756 
L 179.381216 -167.900536 
L 180.339259 -165.487316 
L 181.328788 -163.074097 
L 182.335624 -160.660877 
L 183.34166 -158.247657 
L 184.325282 -155.834437 
L 185.262072 -153.421217 
L 186.125774 -151.007998 
L 186.889461 -148.594778 
L 187.526843 -146.181558 
L 188.013617 -143.768338 
L 188.328767 -141.355118 
L 188.455714 -138.941898 
L 188.383238 -136.528679 
L 188.106107 -134.115459 
L 187.625353 -131.702239 
L 186.948215 -129.289019 
L 186.087724 -126.875799 
L 185.062004 -124.462579 
L 183.89333 -122.04936 
L 182.607022 -119.63614 
L 181.230267 -117.22292 
L 179.790934 -114.8097 
L 178.31647 -112.39648 
L 176.832931 -109.983261 
L 175.364189 -107.570041 
L 173.931336 -105.156821 
L 172.552306 -102.743601 
L 171.241684 -100.330381 
L 170.010695 -97.917161 
L 168.867332 -95.503942 
L 167.816599 -93.090722 
L 166.860822 -90.677502 
L 166.00001 -88.264282 
L 165.232223 -85.851062 
L 164.553945 -83.437842 
L 163.960431 -81.024623 
L 163.446033 -78.611403 
L 163.004483 -76.198183 
L 162.629152 -73.784963 
L 162.313266 -71.371743 
L 162.050094 -68.958523 
L 161.833102 -66.545304 
L 161.656074 -64.132084 
L 161.513207 -61.718864 
z
" id="m9c0b9184f2" style="stroke:#4c4c4c;stroke-width:1.5;"/>
    </defs>
    <g clip-path="url(#p38ba9bd879)">
     <use style="fill:#cc8963;stroke:#4c4c4c;stroke-width:1.5;" x="0" xlink:href="#m9c0b9184f2" y="363.654844"/>
    </g>
   </g>
   <g id="PolyCollection_3">
    <defs>
     <path d="M 239.211565 -56.173935 
L 239.01781 -56.173935 
L 238.977737 -59.06264 
L 238.924952 -61.951345 
L 238.856684 -64.84005 
L 238.769749 -67.728756 
L 238.660401 -70.617461 
L 238.524093 -73.506166 
L 238.355168 -76.394871 
L 238.146496 -79.283577 
L 237.889132 -82.172282 
L 237.572093 -85.060987 
L 237.182353 -87.949692 
L 236.705169 -90.838397 
L 236.124819 -93.727103 
L 235.425771 -96.615808 
L 234.594236 -99.504513 
L 233.619948 -102.393218 
L 232.497992 -105.281924 
L 231.230382 -108.170629 
L 229.827161 -111.059334 
L 228.306783 -113.948039 
L 226.695665 -116.836745 
L 225.026924 -119.72545 
L 223.338426 -122.614155 
L 221.670422 -125.50286 
L 220.063074 -128.391566 
L 218.554214 -131.280271 
L 217.177589 -134.168976 
L 215.961729 -137.057681 
L 214.929458 -139.946386 
L 214.097914 -142.835092 
L 213.478867 -145.723797 
L 213.079103 -148.612502 
L 212.900678 -151.501207 
L 212.940924 -154.389913 
L 213.192251 -157.278618 
L 213.64185 -160.167323 
L 214.271523 -163.056028 
L 215.057877 -165.944734 
L 215.973041 -168.833439 
L 216.986008 -171.722144 
L 218.064524 -174.610849 
L 219.177321 -177.499554 
L 220.296383 -180.38826 
L 221.398895 -183.276965 
L 222.468546 -186.16567 
L 223.49598 -189.054375 
L 224.478315 -191.943081 
L 225.417847 -194.831786 
L 226.32017 -197.720491 
L 227.192049 -200.609196 
L 228.039401 -203.497902 
L 228.865688 -206.386607 
L 229.670954 -209.275312 
L 230.451574 -212.164017 
L 231.200712 -215.052723 
L 231.909349 -217.941428 
L 232.567669 -220.830133 
L 233.166592 -223.718838 
L 233.699193 -226.607543 
L 234.161819 -229.496249 
L 234.554732 -232.384954 
L 234.882201 -235.273659 
L 235.152025 -238.162364 
L 235.37457 -241.05107 
L 235.561456 -243.939775 
L 235.724105 -246.82848 
L 235.87237 -249.717185 
L 236.013456 -252.605891 
L 236.151301 -255.494596 
L 236.286498 -258.383301 
L 236.416744 -261.272006 
L 236.537733 -264.160712 
L 236.644313 -267.049417 
L 236.731719 -269.938122 
L 236.796678 -272.826827 
L 236.838234 -275.715532 
L 236.85817 -278.604238 
L 236.861008 -281.492943 
L 236.853591 -284.381648 
L 236.844333 -287.270353 
L 236.842262 -290.159059 
L 236.855973 -293.047764 
L 236.892645 -295.936469 
L 236.957251 -298.825174 
L 237.05204 -301.71388 
L 237.176373 -304.602585 
L 237.326894 -307.49129 
L 237.49802 -310.379995 
L 237.682649 -313.2687 
L 237.872978 -316.157406 
L 238.061329 -319.046111 
L 238.240856 -321.934816 
L 238.406069 -324.823521 
L 238.553134 -327.712227 
L 238.679932 -330.600932 
L 238.785936 -333.489637 
L 238.871936 -336.378342 
L 238.939686 -339.267048 
L 238.991541 -342.155753 
L 239.237834 -342.155753 
L 239.237834 -342.155753 
L 239.289689 -339.267048 
L 239.357439 -336.378342 
L 239.443439 -333.489637 
L 239.549443 -330.600932 
L 239.676241 -327.712227 
L 239.823306 -324.823521 
L 239.988519 -321.934816 
L 240.168046 -319.046111 
L 240.356397 -316.157406 
L 240.546726 -313.2687 
L 240.731355 -310.379995 
L 240.902481 -307.49129 
L 241.053002 -304.602585 
L 241.177335 -301.71388 
L 241.272124 -298.825174 
L 241.33673 -295.936469 
L 241.373402 -293.047764 
L 241.387113 -290.159059 
L 241.385042 -287.270353 
L 241.375784 -284.381648 
L 241.368367 -281.492943 
L 241.371205 -278.604238 
L 241.391141 -275.715532 
L 241.432697 -272.826827 
L 241.497656 -269.938122 
L 241.585062 -267.049417 
L 241.691642 -264.160712 
L 241.812631 -261.272006 
L 241.942877 -258.383301 
L 242.078074 -255.494596 
L 242.215919 -252.605891 
L 242.357005 -249.717185 
L 242.50527 -246.82848 
L 242.667919 -243.939775 
L 242.854805 -241.05107 
L 243.07735 -238.162364 
L 243.347174 -235.273659 
L 243.674643 -232.384954 
L 244.067556 -229.496249 
L 244.530182 -226.607543 
L 245.062783 -223.718838 
L 245.661706 -220.830133 
L 246.320026 -217.941428 
L 247.028663 -215.052723 
L 247.777801 -212.164017 
L 248.558421 -209.275312 
L 249.363687 -206.386607 
L 250.189974 -203.497902 
L 251.037326 -200.609196 
L 251.909205 -197.720491 
L 252.811528 -194.831786 
L 253.75106 -191.943081 
L 254.733395 -189.054375 
L 255.760829 -186.16567 
L 256.83048 -183.276965 
L 257.932992 -180.38826 
L 259.052054 -177.499554 
L 260.164851 -174.610849 
L 261.243367 -171.722144 
L 262.256334 -168.833439 
L 263.171498 -165.944734 
L 263.957852 -163.056028 
L 264.587525 -160.167323 
L 265.037124 -157.278618 
L 265.288451 -154.389913 
L 265.328697 -151.501207 
L 265.150272 -148.612502 
L 264.750508 -145.723797 
L 264.131461 -142.835092 
L 263.299917 -139.946386 
L 262.267646 -137.057681 
L 261.051786 -134.168976 
L 259.675161 -131.280271 
L 258.166301 -128.391566 
L 256.558953 -125.50286 
L 254.890949 -122.614155 
L 253.202451 -119.72545 
L 251.53371 -116.836745 
L 249.922592 -113.948039 
L 248.402214 -111.059334 
L 246.998993 -108.170629 
L 245.731383 -105.281924 
L 244.609427 -102.393218 
L 243.635139 -99.504513 
L 242.803604 -96.615808 
L 242.104556 -93.727103 
L 241.524206 -90.838397 
L 241.047022 -87.949692 
L 240.657282 -85.060987 
L 240.340243 -82.172282 
L 240.082879 -79.283577 
L 239.874207 -76.394871 
L 239.705282 -73.506166 
L 239.568974 -70.617461 
L 239.459626 -67.728756 
L 239.372691 -64.84005 
L 239.304423 -61.951345 
L 239.251638 -59.06264 
L 239.211565 -56.173935 
z
" id="mc12da14c30" style="stroke:#4c4c4c;stroke-width:1.5;"/>
    </defs>
    <g clip-path="url(#p38ba9bd879)">
     <use style="fill:#5f9e6e;stroke:#4c4c4c;stroke-width:1.5;" x="0" xlink:href="#mc12da14c30" y="363.654844"/>
    </g>
   </g>
   <g id="PolyCollection_4">
    <defs>
     <path d="M 317.4683 -76.573194 
L 316.926075 -76.573194 
L 316.808158 -79.120112 
L 316.649451 -81.66703 
L 316.440345 -84.213948 
L 316.170623 -86.760866 
L 315.829986 -89.307784 
L 315.408727 -91.854702 
L 314.898472 -94.40162 
L 314.292944 -96.948538 
L 313.588628 -99.495455 
L 312.785245 -102.042373 
L 311.885956 -104.589291 
L 310.897242 -107.136209 
L 309.828472 -109.683127 
L 308.691225 -112.230045 
L 307.498484 -114.776963 
L 306.263862 -117.323881 
L 305.001009 -119.870799 
L 303.723321 -122.417717 
L 302.444013 -124.964634 
L 301.176503 -127.511552 
L 299.934991 -130.05847 
L 298.735038 -132.605388 
L 297.593927 -135.152306 
L 296.530616 -137.699224 
L 295.565148 -140.246142 
L 294.717536 -142.79306 
L 294.006218 -145.339978 
L 293.446319 -147.886896 
L 293.048019 -150.433813 
L 292.815322 -152.980731 
L 292.745495 -155.527649 
L 292.829304 -158.074567 
L 293.052051 -160.621485 
L 293.395267 -163.168403 
L 293.838766 -165.715321 
L 294.362731 -168.262239 
L 294.949465 -170.809157 
L 295.584534 -173.356075 
L 296.257131 -175.902992 
L 296.959661 -178.44991 
L 297.686701 -180.996828 
L 298.433607 -183.543746 
L 299.195097 -186.090664 
L 299.964155 -188.637582 
L 300.731507 -191.1845 
L 301.485793 -193.731418 
L 302.214425 -196.278336 
L 302.904958 -198.825254 
L 303.546712 -201.372171 
L 304.132326 -203.919089 
L 304.658945 -206.466007 
L 305.128827 -209.012925 
L 305.549244 -211.559843 
L 305.931706 -214.106761 
L 306.290639 -216.653679 
L 306.641717 -219.200597 
L 307.000104 -221.747515 
L 307.378846 -224.294433 
L 307.7876 -226.84135 
L 308.231839 -229.388268 
L 308.712562 -231.935186 
L 309.226509 -234.482104 
L 309.766781 -237.029022 
L 310.32375 -239.57594 
L 310.88612 -242.122858 
L 311.442016 -244.669776 
L 311.97996 -247.216694 
L 312.489681 -249.763612 
L 312.962685 -252.310529 
L 313.392604 -254.857447 
L 313.775316 -257.404365 
L 314.108904 -259.951283 
L 314.393503 -262.498201 
L 314.631071 -265.045119 
L 314.825136 -267.592037 
L 314.980531 -270.138955 
L 315.103118 -272.685873 
L 315.199501 -275.232791 
L 315.276701 -277.779708 
L 315.341809 -280.326626 
L 315.401603 -282.873544 
L 315.462167 -285.420462 
L 315.528534 -287.96738 
L 315.604397 -290.514298 
L 315.691928 -293.061216 
L 315.791721 -295.608134 
L 315.90288 -298.155052 
L 316.023236 -300.701969 
L 316.149673 -303.248887 
L 316.278512 -305.795805 
L 316.405916 -308.342723 
L 316.528261 -310.889641 
L 316.642439 -313.436559 
L 316.74607 -315.983477 
L 316.837605 -318.530395 
L 316.916331 -321.077313 
L 316.982291 -323.624231 
L 317.03615 -326.171148 
L 317.079023 -328.718066 
L 317.315352 -328.718066 
L 317.315352 -328.718066 
L 317.358225 -326.171148 
L 317.412084 -323.624231 
L 317.478044 -321.077313 
L 317.55677 -318.530395 
L 317.648305 -315.983477 
L 317.751936 -313.436559 
L 317.866114 -310.889641 
L 317.988459 -308.342723 
L 318.115863 -305.795805 
L 318.244702 -303.248887 
L 318.371139 -300.701969 
L 318.491495 -298.155052 
L 318.602654 -295.608134 
L 318.702447 -293.061216 
L 318.789978 -290.514298 
L 318.865841 -287.96738 
L 318.932208 -285.420462 
L 318.992772 -282.873544 
L 319.052566 -280.326626 
L 319.117674 -277.779708 
L 319.194874 -275.232791 
L 319.291257 -272.685873 
L 319.413844 -270.138955 
L 319.569239 -267.592037 
L 319.763304 -265.045119 
L 320.000872 -262.498201 
L 320.285471 -259.951283 
L 320.619059 -257.404365 
L 321.001771 -254.857447 
L 321.43169 -252.310529 
L 321.904694 -249.763612 
L 322.414415 -247.216694 
L 322.952359 -244.669776 
L 323.508255 -242.122858 
L 324.070625 -239.57594 
L 324.627594 -237.029022 
L 325.167866 -234.482104 
L 325.681813 -231.935186 
L 326.162536 -229.388268 
L 326.606775 -226.84135 
L 327.015529 -224.294433 
L 327.394271 -221.747515 
L 327.752658 -219.200597 
L 328.103736 -216.653679 
L 328.462669 -214.106761 
L 328.845131 -211.559843 
L 329.265548 -209.012925 
L 329.73543 -206.466007 
L 330.262049 -203.919089 
L 330.847663 -201.372171 
L 331.489417 -198.825254 
L 332.17995 -196.278336 
L 332.908582 -193.731418 
L 333.662868 -191.1845 
L 334.43022 -188.637582 
L 335.199278 -186.090664 
L 335.960768 -183.543746 
L 336.707674 -180.996828 
L 337.434714 -178.44991 
L 338.137244 -175.902992 
L 338.809841 -173.356075 
L 339.44491 -170.809157 
L 340.031644 -168.262239 
L 340.555609 -165.715321 
L 340.999108 -163.168403 
L 341.342324 -160.621485 
L 341.565071 -158.074567 
L 341.64888 -155.527649 
L 341.579053 -152.980731 
L 341.346356 -150.433813 
L 340.948056 -147.886896 
L 340.388157 -145.339978 
L 339.676839 -142.79306 
L 338.829227 -140.246142 
L 337.863759 -137.699224 
L 336.800448 -135.152306 
L 335.659337 -132.605388 
L 334.459384 -130.05847 
L 333.217872 -127.511552 
L 331.950362 -124.964634 
L 330.671054 -122.417717 
L 329.393366 -119.870799 
L 328.130513 -117.323881 
L 326.895891 -114.776963 
L 325.70315 -112.230045 
L 324.565903 -109.683127 
L 323.497133 -107.136209 
L 322.508419 -104.589291 
L 321.60913 -102.042373 
L 320.805747 -99.495455 
L 320.101431 -96.948538 
L 319.495903 -94.40162 
L 318.985648 -91.854702 
L 318.564389 -89.307784 
L 318.223752 -86.760866 
L 317.95403 -84.213948 
L 317.744924 -81.66703 
L 317.586217 -79.120112 
L 317.4683 -76.573194 
z
" id="m0c2509db5b" style="stroke:#4c4c4c;stroke-width:1.5;"/>
    </defs>
    <g clip-path="url(#p38ba9bd879)">
     <use style="fill:#b55d60;stroke:#4c4c4c;stroke-width:1.5;" x="0" xlink:href="#m0c2509db5b" y="363.654844"/>
    </g>
   </g>
   <g id="line2d_12">
    <path clip-path="url(#p38ba9bd879)" d="M 82.949688 252.323356 
L 82.949688 151.561364 
" style="fill:none;stroke:#4c4c4c;stroke-linecap:round;stroke-width:1.5;"/>
   </g>
   <g id="line2d_13">
    <path clip-path="url(#p38ba9bd879)" d="M 82.949688 230.02598 
L 82.949688 195.161607 
" style="fill:none;stroke:#4c4c4c;stroke-linecap:round;stroke-width:4.5;"/>
   </g>
   <g id="line2d_14">
    <path clip-path="url(#p38ba9bd879)" d="M 161.032188 260.27944 
L 161.032188 155.313381 
" style="fill:none;stroke:#4c4c4c;stroke-linecap:round;stroke-width:1.5;"/>
   </g>
   <g id="line2d_15">
    <path clip-path="url(#p38ba9bd879)" d="M 161.032188 231.596854 
L 161.032188 187.951406 
" style="fill:none;stroke:#4c4c4c;stroke-linecap:round;stroke-width:4.5;"/>
   </g>
   <g id="line2d_16">
    <path clip-path="url(#p38ba9bd879)" d="M 239.114688 272.394386 
L 239.114688 108.074134 
" style="fill:none;stroke:#4c4c4c;stroke-linecap:round;stroke-width:1.5;"/>
   </g>
   <g id="line2d_17">
    <path clip-path="url(#p38ba9bd879)" d="M 239.114688 223.414745 
L 239.114688 174.435105 
" style="fill:none;stroke:#4c4c4c;stroke-linecap:round;stroke-width:4.5;"/>
   </g>
   <g id="line2d_18">
    <path clip-path="url(#p38ba9bd879)" d="M 317.197188 253.498687 
L 317.197188 102.965966 
" style="fill:none;stroke:#4c4c4c;stroke-linecap:round;stroke-width:1.5;"/>
   </g>
   <g id="line2d_19">
    <path clip-path="url(#p38ba9bd879)" d="M 317.197188 218.521302 
L 317.197188 170.558774 
" style="fill:none;stroke:#4c4c4c;stroke-linecap:round;stroke-width:4.5;"/>
   </g>
   <g id="patch_3">
    <path d="M 43.908438 321.78 
L 43.908438 7.2 
" style="fill:none;stroke:#262626;stroke-linecap:square;stroke-linejoin:miter;stroke-width:1.25;"/>
   </g>
   <g id="patch_4">
    <path d="M 43.908438 321.78 
L 356.238438 321.78 
" style="fill:none;stroke:#262626;stroke-linecap:square;stroke-linejoin:miter;stroke-width:1.25;"/>
   </g>
   <g id="PathCollection_1">
    <defs>
     <path d="M 0 1.5 
C 0.397805 1.5 0.77937 1.341951 1.06066 1.06066 
C 1.341951 0.77937 1.5 0.397805 1.5 0 
C 1.5 -0.397805 1.341951 -0.77937 1.06066 -1.06066 
C 0.77937 -1.341951 0.397805 -1.5 0 -1.5 
C -0.397805 -1.5 -0.77937 -1.341951 -1.06066 -1.06066 
C -1.341951 -0.77937 -1.5 -0.397805 -1.5 0 
C -1.5 0.397805 -1.341951 0.77937 -1.06066 1.06066 
C -0.77937 1.341951 -0.397805 1.5 0 1.5 
z
" id="mca12a76f56" style="stroke:#4c4c4c;"/>
    </defs>
    <g clip-path="url(#p38ba9bd879)">
     <use style="fill:#ffffff;stroke:#4c4c4c;" x="82.949688" xlink:href="#mca12a76f56" y="213.040193"/>
    </g>
   </g>
   <g id="PathCollection_2">
    <g clip-path="url(#p38ba9bd879)">
     <use style="fill:#ffffff;stroke:#4c4c4c;" x="161.032188" xlink:href="#mca12a76f56" y="216.747005"/>
    </g>
   </g>
   <g id="PathCollection_3">
    <g clip-path="url(#p38ba9bd879)">
     <use style="fill:#ffffff;stroke:#4c4c4c;" x="239.114688" xlink:href="#mca12a76f56" y="203.818368"/>
    </g>
   </g>
   <g id="PathCollection_4">
    <g clip-path="url(#p38ba9bd879)">
     <use style="fill:#ffffff;stroke:#4c4c4c;" x="317.197188" xlink:href="#mca12a76f56" y="197.534871"/>
    </g>
   </g>
  </g>
 </g>
 <defs>
  <clipPath id="p38ba9bd879">
   <rect height="314.58" width="312.33" x="43.908438" y="7.2"/>
  </clipPath>
 </defs>
</svg>
