<?xml version="1.0" encoding="utf-8" standalone="no"?>
<!DOCTYPE svg PUBLIC "-//W3C//DTD SVG 1.1//EN"
  "http://www.w3.org/Graphics/SVG/1.1/DTD/svg11.dtd">
<!-- Created with matplotlib (https://matplotlib.org/) -->
<svg height="266.514844pt" version="1.1" viewBox="0 0 385.908437 266.514844" width="385.908437pt" xmlns="http://www.w3.org/2000/svg" xmlns:xlink="http://www.w3.org/1999/xlink">
 <metadata>
  <rdf:RDF xmlns:cc="http://creativecommons.org/ns#" xmlns:dc="http://purl.org/dc/elements/1.1/" xmlns:rdf="http://www.w3.org/1999/02/22-rdf-syntax-ns#">
   <cc:Work>
    <dc:type rdf:resource="http://purl.org/dc/dcmitype/StillImage"/>
    <dc:date>2022-01-31T22:21:47.544409</dc:date>
    <dc:format>image/svg+xml</dc:format>
    <dc:creator>
     <cc:Agent>
      <dc:title>Matplotlib v3.3.4, https://matplotlib.org/</dc:title>
     </cc:Agent>
    </dc:creator>
   </cc:Work>
  </rdf:RDF>
 </metadata>
 <defs>
  <style type="text/css">*{stroke-linecap:butt;stroke-linejoin:round;}</style>
 </defs>
 <g id="figure_1">
  <g id="patch_1">
   <path d="M 0 266.514844 
L 385.908437 266.514844 
L 385.908437 0 
L 0 0 
z
" style="fill:#ffffff;"/>
  </g>
  <g id="axes_1">
   <g id="patch_2">
    <path d="M 43.908438 224.64 
L 378.708438 224.64 
L 378.708438 7.2 
L 43.908438 7.2 
z
" style="fill:#ffffff;"/>
   </g>
   <g id="matplotlib.axis_1">
    <g id="xtick_1">
     <g id="line2d_1">
      <defs>
       <path d="M 0 0 
L 0 6 
" id="m52e238cc43" style="stroke:#262626;stroke-width:1.25;"/>
      </defs>
      <g>
       <use style="fill:#262626;stroke:#262626;stroke-width:1.25;" x="85.758438" xlink:href="#m52e238cc43" y="224.64"/>
      </g>
     </g>
     <g id="text_1">
      <!-- Thur -->
      <g style="fill:#262626;" transform="translate(74.450781 242.013594)scale(0.11 -0.11)">
       <defs>
        <path d="M 25.921875 0 
L 25.921875 63.140625 
L 2.34375 63.140625 
L 2.34375 71.578125 
L 59.078125 71.578125 
L 59.078125 63.140625 
L 35.40625 63.140625 
L 35.40625 0 
z
" id="ArialMT-84"/>
        <path d="M 6.59375 0 
L 6.59375 71.578125 
L 15.375 71.578125 
L 15.375 45.90625 
Q 21.53125 53.03125 30.90625 53.03125 
Q 36.671875 53.03125 40.921875 50.75 
Q 45.171875 48.484375 47 44.484375 
Q 48.828125 40.484375 48.828125 32.859375 
L 48.828125 0 
L 40.046875 0 
L 40.046875 32.859375 
Q 40.046875 39.453125 37.1875 42.453125 
Q 34.328125 45.453125 29.109375 45.453125 
Q 25.203125 45.453125 21.75 43.421875 
Q 18.3125 41.40625 16.84375 37.9375 
Q 15.375 34.46875 15.375 28.375 
L 15.375 0 
z
" id="ArialMT-104"/>
        <path d="M 40.578125 0 
L 40.578125 7.625 
Q 34.515625 -1.171875 24.125 -1.171875 
Q 19.53125 -1.171875 15.546875 0.578125 
Q 11.578125 2.34375 9.640625 5 
Q 7.71875 7.671875 6.9375 11.53125 
Q 6.390625 14.109375 6.390625 19.734375 
L 6.390625 51.859375 
L 15.1875 51.859375 
L 15.1875 23.09375 
Q 15.1875 16.21875 15.71875 13.8125 
Q 16.546875 10.359375 19.234375 8.375 
Q 21.921875 6.390625 25.875 6.390625 
Q 29.828125 6.390625 33.296875 8.421875 
Q 36.765625 10.453125 38.203125 13.9375 
Q 39.65625 17.4375 39.65625 24.078125 
L 39.65625 51.859375 
L 48.4375 51.859375 
L 48.4375 0 
z
" id="ArialMT-117"/>
        <path d="M 6.5 0 
L 6.5 51.859375 
L 14.40625 51.859375 
L 14.40625 44 
Q 17.4375 49.515625 20 51.265625 
Q 22.5625 53.03125 25.640625 53.03125 
Q 30.078125 53.03125 34.671875 50.203125 
L 31.640625 42.046875 
Q 28.421875 43.953125 25.203125 43.953125 
Q 22.3125 43.953125 20.015625 42.21875 
Q 17.71875 40.484375 16.75 37.40625 
Q 15.28125 32.71875 15.28125 27.15625 
L 15.28125 0 
z
" id="ArialMT-114"/>
       </defs>
       <use xlink:href="#ArialMT-84"/>
       <use x="61.083984" xlink:href="#ArialMT-104"/>
       <use x="116.699219" xlink:href="#ArialMT-117"/>
       <use x="172.314453" xlink:href="#ArialMT-114"/>
      </g>
     </g>
    </g>
    <g id="xtick_2">
     <g id="line2d_2">
      <g>
       <use style="fill:#262626;stroke:#262626;stroke-width:1.25;" x="169.458438" xlink:href="#m52e238cc43" y="224.64"/>
      </g>
     </g>
     <g id="text_2">
      <!-- Fri -->
      <g style="fill:#262626;" transform="translate(163.045781 242.013594)scale(0.11 -0.11)">
       <defs>
        <path d="M 8.203125 0 
L 8.203125 71.578125 
L 56.5 71.578125 
L 56.5 63.140625 
L 17.671875 63.140625 
L 17.671875 40.96875 
L 51.265625 40.96875 
L 51.265625 32.515625 
L 17.671875 32.515625 
L 17.671875 0 
z
" id="ArialMT-70"/>
        <path d="M 6.640625 61.46875 
L 6.640625 71.578125 
L 15.4375 71.578125 
L 15.4375 61.46875 
z
M 6.640625 0 
L 6.640625 51.859375 
L 15.4375 51.859375 
L 15.4375 0 
z
" id="ArialMT-105"/>
       </defs>
       <use xlink:href="#ArialMT-70"/>
       <use x="61.083984" xlink:href="#ArialMT-114"/>
       <use x="94.384766" xlink:href="#ArialMT-105"/>
      </g>
     </g>
    </g>
    <g id="xtick_3">
     <g id="line2d_3">
      <g>
       <use style="fill:#262626;stroke:#262626;stroke-width:1.25;" x="253.158438" xlink:href="#m52e238cc43" y="224.64"/>
      </g>
     </g>
     <g id="text_3">
      <!-- Sat -->
      <g style="fill:#262626;" transform="translate(244.903281 242.013594)scale(0.11 -0.11)">
       <defs>
        <path d="M 4.5 23 
L 13.421875 23.78125 
Q 14.0625 18.40625 16.375 14.96875 
Q 18.703125 11.53125 23.578125 9.40625 
Q 28.46875 7.28125 34.578125 7.28125 
Q 39.984375 7.28125 44.140625 8.890625 
Q 48.296875 10.5 50.3125 13.296875 
Q 52.34375 16.109375 52.34375 19.4375 
Q 52.34375 22.796875 50.390625 25.3125 
Q 48.4375 27.828125 43.953125 29.546875 
Q 41.0625 30.671875 31.203125 33.03125 
Q 21.34375 35.40625 17.390625 37.5 
Q 12.25 40.1875 9.734375 44.15625 
Q 7.234375 48.140625 7.234375 53.078125 
Q 7.234375 58.5 10.296875 63.203125 
Q 13.375 67.921875 19.28125 70.359375 
Q 25.203125 72.796875 32.421875 72.796875 
Q 40.375 72.796875 46.453125 70.234375 
Q 52.546875 67.671875 55.8125 62.6875 
Q 59.078125 57.71875 59.328125 51.421875 
L 50.25 50.734375 
Q 49.515625 57.515625 45.28125 60.984375 
Q 41.0625 64.453125 32.8125 64.453125 
Q 24.21875 64.453125 20.28125 61.296875 
Q 16.359375 58.15625 16.359375 53.71875 
Q 16.359375 49.859375 19.140625 47.359375 
Q 21.875 44.875 33.421875 42.265625 
Q 44.96875 39.65625 49.265625 37.703125 
Q 55.515625 34.8125 58.484375 30.390625 
Q 61.46875 25.984375 61.46875 20.21875 
Q 61.46875 14.5 58.203125 9.4375 
Q 54.9375 4.390625 48.796875 1.578125 
Q 42.671875 -1.21875 35.015625 -1.21875 
Q 25.296875 -1.21875 18.71875 1.609375 
Q 12.15625 4.4375 8.421875 10.125 
Q 4.6875 15.828125 4.5 23 
z
" id="ArialMT-83"/>
        <path d="M 40.4375 6.390625 
Q 35.546875 2.25 31.03125 0.53125 
Q 26.515625 -1.171875 21.34375 -1.171875 
Q 12.796875 -1.171875 8.203125 3 
Q 3.609375 7.171875 3.609375 13.671875 
Q 3.609375 17.484375 5.34375 20.625 
Q 7.078125 23.78125 9.890625 25.6875 
Q 12.703125 27.59375 16.21875 28.5625 
Q 18.796875 29.25 24.03125 29.890625 
Q 34.671875 31.15625 39.703125 32.90625 
Q 39.75 34.71875 39.75 35.203125 
Q 39.75 40.578125 37.25 42.78125 
Q 33.890625 45.75 27.25 45.75 
Q 21.046875 45.75 18.09375 43.578125 
Q 15.140625 41.40625 13.71875 35.890625 
L 5.125 37.0625 
Q 6.296875 42.578125 8.984375 45.96875 
Q 11.671875 49.359375 16.75 51.1875 
Q 21.828125 53.03125 28.515625 53.03125 
Q 35.15625 53.03125 39.296875 51.46875 
Q 43.453125 49.90625 45.40625 47.53125 
Q 47.359375 45.171875 48.140625 41.546875 
Q 48.578125 39.3125 48.578125 33.453125 
L 48.578125 21.734375 
Q 48.578125 9.46875 49.140625 6.21875 
Q 49.703125 2.984375 51.375 0 
L 42.1875 0 
Q 40.828125 2.734375 40.4375 6.390625 
z
M 39.703125 26.03125 
Q 34.90625 24.078125 25.34375 22.703125 
Q 19.921875 21.921875 17.671875 20.9375 
Q 15.4375 19.96875 14.203125 18.09375 
Q 12.984375 16.21875 12.984375 13.921875 
Q 12.984375 10.40625 15.640625 8.0625 
Q 18.3125 5.71875 23.4375 5.71875 
Q 28.515625 5.71875 32.46875 7.9375 
Q 36.421875 10.15625 38.28125 14.015625 
Q 39.703125 17 39.703125 22.796875 
z
" id="ArialMT-97"/>
        <path d="M 25.78125 7.859375 
L 27.046875 0.09375 
Q 23.34375 -0.6875 20.40625 -0.6875 
Q 15.625 -0.6875 12.984375 0.828125 
Q 10.359375 2.34375 9.28125 4.8125 
Q 8.203125 7.28125 8.203125 15.1875 
L 8.203125 45.015625 
L 1.765625 45.015625 
L 1.765625 51.859375 
L 8.203125 51.859375 
L 8.203125 64.703125 
L 16.9375 69.96875 
L 16.9375 51.859375 
L 25.78125 51.859375 
L 25.78125 45.015625 
L 16.9375 45.015625 
L 16.9375 14.703125 
Q 16.9375 10.9375 17.40625 9.859375 
Q 17.875 8.796875 18.921875 8.15625 
Q 19.96875 7.515625 21.921875 7.515625 
Q 23.390625 7.515625 25.78125 7.859375 
z
" id="ArialMT-116"/>
       </defs>
       <use xlink:href="#ArialMT-83"/>
       <use x="66.699219" xlink:href="#ArialMT-97"/>
       <use x="122.314453" xlink:href="#ArialMT-116"/>
      </g>
     </g>
    </g>
    <g id="xtick_4">
     <g id="line2d_4">
      <g>
       <use style="fill:#262626;stroke:#262626;stroke-width:1.25;" x="336.858438" xlink:href="#m52e238cc43" y="224.64"/>
      </g>
     </g>
     <g id="text_4">
      <!-- Sun -->
      <g style="fill:#262626;" transform="translate(327.072734 242.013594)scale(0.11 -0.11)">
       <defs>
        <path d="M 6.59375 0 
L 6.59375 51.859375 
L 14.5 51.859375 
L 14.5 44.484375 
Q 20.21875 53.03125 31 53.03125 
Q 35.6875 53.03125 39.625 51.34375 
Q 43.5625 49.65625 45.515625 46.921875 
Q 47.46875 44.1875 48.25 40.4375 
Q 48.734375 37.984375 48.734375 31.890625 
L 48.734375 0 
L 39.9375 0 
L 39.9375 31.546875 
Q 39.9375 36.921875 38.90625 39.578125 
Q 37.890625 42.234375 35.28125 43.8125 
Q 32.671875 45.40625 29.15625 45.40625 
Q 23.53125 45.40625 19.453125 41.84375 
Q 15.375 38.28125 15.375 28.328125 
L 15.375 0 
z
" id="ArialMT-110"/>
       </defs>
       <use xlink:href="#ArialMT-83"/>
       <use x="66.699219" xlink:href="#ArialMT-117"/>
       <use x="122.314453" xlink:href="#ArialMT-110"/>
      </g>
     </g>
    </g>
    <g id="text_5">
     <!-- day -->
     <g style="fill:#262626;" transform="translate(201.635313 256.789219)scale(0.12 -0.12)">
      <defs>
       <path d="M 40.234375 0 
L 40.234375 6.546875 
Q 35.296875 -1.171875 25.734375 -1.171875 
Q 19.53125 -1.171875 14.328125 2.25 
Q 9.125 5.671875 6.265625 11.796875 
Q 3.421875 17.921875 3.421875 25.875 
Q 3.421875 33.640625 6 39.96875 
Q 8.59375 46.296875 13.765625 49.65625 
Q 18.953125 53.03125 25.34375 53.03125 
Q 30.03125 53.03125 33.6875 51.046875 
Q 37.359375 49.078125 39.65625 45.90625 
L 39.65625 71.578125 
L 48.390625 71.578125 
L 48.390625 0 
z
M 12.453125 25.875 
Q 12.453125 15.921875 16.640625 10.984375 
Q 20.84375 6.0625 26.5625 6.0625 
Q 32.328125 6.0625 36.34375 10.765625 
Q 40.375 15.484375 40.375 25.140625 
Q 40.375 35.796875 36.265625 40.765625 
Q 32.171875 45.75 26.171875 45.75 
Q 20.3125 45.75 16.375 40.96875 
Q 12.453125 36.1875 12.453125 25.875 
z
" id="ArialMT-100"/>
       <path d="M 6.203125 -19.96875 
L 5.21875 -11.71875 
Q 8.109375 -12.5 10.25 -12.5 
Q 13.1875 -12.5 14.9375 -11.515625 
Q 16.703125 -10.546875 17.828125 -8.796875 
Q 18.65625 -7.46875 20.515625 -2.25 
Q 20.75 -1.515625 21.296875 -0.09375 
L 1.609375 51.859375 
L 11.078125 51.859375 
L 21.875 21.828125 
Q 23.96875 16.109375 25.640625 9.8125 
Q 27.15625 15.875 29.25 21.625 
L 40.328125 51.859375 
L 49.125 51.859375 
L 29.390625 -0.875 
Q 26.21875 -9.421875 24.46875 -12.640625 
Q 22.125 -17 19.09375 -19.015625 
Q 16.0625 -21.046875 11.859375 -21.046875 
Q 9.328125 -21.046875 6.203125 -19.96875 
z
" id="ArialMT-121"/>
      </defs>
      <use xlink:href="#ArialMT-100"/>
      <use x="55.615234" xlink:href="#ArialMT-97"/>
      <use x="111.230469" xlink:href="#ArialMT-121"/>
     </g>
    </g>
   </g>
   <g id="matplotlib.axis_2">
    <g id="ytick_1">
     <g id="line2d_5">
      <defs>
       <path d="M 0 0 
L -6 0 
" id="m7321202313" style="stroke:#262626;stroke-width:1.25;"/>
      </defs>
      <g>
       <use style="fill:#262626;stroke:#262626;stroke-width:1.25;" x="43.908438" xlink:href="#m7321202313" y="196.721682"/>
      </g>
     </g>
     <g id="text_6">
      <!-- 0 -->
      <g style="fill:#262626;" transform="translate(28.291406 200.658479)scale(0.11 -0.11)">
       <defs>
        <path d="M 4.15625 35.296875 
Q 4.15625 48 6.765625 55.734375 
Q 9.375 63.484375 14.515625 67.671875 
Q 19.671875 71.875 27.484375 71.875 
Q 33.25 71.875 37.59375 69.546875 
Q 41.9375 67.234375 44.765625 62.859375 
Q 47.609375 58.5 49.21875 52.21875 
Q 50.828125 45.953125 50.828125 35.296875 
Q 50.828125 22.703125 48.234375 14.96875 
Q 45.65625 7.234375 40.5 3 
Q 35.359375 -1.21875 27.484375 -1.21875 
Q 17.140625 -1.21875 11.234375 6.203125 
Q 4.15625 15.140625 4.15625 35.296875 
z
M 13.1875 35.296875 
Q 13.1875 17.671875 17.3125 11.828125 
Q 21.4375 6 27.484375 6 
Q 33.546875 6 37.671875 11.859375 
Q 41.796875 17.71875 41.796875 35.296875 
Q 41.796875 52.984375 37.671875 58.78125 
Q 33.546875 64.59375 27.390625 64.59375 
Q 21.34375 64.59375 17.71875 59.46875 
Q 13.1875 52.9375 13.1875 35.296875 
z
" id="ArialMT-48"/>
       </defs>
       <use xlink:href="#ArialMT-48"/>
      </g>
     </g>
    </g>
    <g id="ytick_2">
     <g id="line2d_6">
      <g>
       <use style="fill:#262626;stroke:#262626;stroke-width:1.25;" x="43.908438" xlink:href="#m7321202313" y="166.537239"/>
      </g>
     </g>
     <g id="text_7">
      <!-- 10 -->
      <g style="fill:#262626;" transform="translate(22.174375 170.474036)scale(0.11 -0.11)">
       <defs>
        <path d="M 37.25 0 
L 28.46875 0 
L 28.46875 56 
Q 25.296875 52.984375 20.140625 49.953125 
Q 14.984375 46.921875 10.890625 45.40625 
L 10.890625 53.90625 
Q 18.265625 57.375 23.78125 62.296875 
Q 29.296875 67.234375 31.59375 71.875 
L 37.25 71.875 
z
" id="ArialMT-49"/>
       </defs>
       <use xlink:href="#ArialMT-49"/>
       <use x="55.615234" xlink:href="#ArialMT-48"/>
      </g>
     </g>
    </g>
    <g id="ytick_3">
     <g id="line2d_7">
      <g>
       <use style="fill:#262626;stroke:#262626;stroke-width:1.25;" x="43.908438" xlink:href="#m7321202313" y="136.352796"/>
      </g>
     </g>
     <g id="text_8">
      <!-- 20 -->
      <g style="fill:#262626;" transform="translate(22.174375 140.289593)scale(0.11 -0.11)">
       <defs>
        <path d="M 50.34375 8.453125 
L 50.34375 0 
L 3.03125 0 
Q 2.9375 3.171875 4.046875 6.109375 
Q 5.859375 10.9375 9.828125 15.625 
Q 13.8125 20.3125 21.34375 26.46875 
Q 33.015625 36.03125 37.109375 41.625 
Q 41.21875 47.21875 41.21875 52.203125 
Q 41.21875 57.421875 37.46875 61 
Q 33.734375 64.59375 27.734375 64.59375 
Q 21.390625 64.59375 17.578125 60.78125 
Q 13.765625 56.984375 13.71875 50.25 
L 4.6875 51.171875 
Q 5.609375 61.28125 11.65625 66.578125 
Q 17.71875 71.875 27.9375 71.875 
Q 38.234375 71.875 44.234375 66.15625 
Q 50.25 60.453125 50.25 52 
Q 50.25 47.703125 48.484375 43.546875 
Q 46.734375 39.40625 42.65625 34.8125 
Q 38.578125 30.21875 29.109375 22.21875 
Q 21.1875 15.578125 18.9375 13.203125 
Q 16.703125 10.84375 15.234375 8.453125 
z
" id="ArialMT-50"/>
       </defs>
       <use xlink:href="#ArialMT-50"/>
       <use x="55.615234" xlink:href="#ArialMT-48"/>
      </g>
     </g>
    </g>
    <g id="ytick_4">
     <g id="line2d_8">
      <g>
       <use style="fill:#262626;stroke:#262626;stroke-width:1.25;" x="43.908438" xlink:href="#m7321202313" y="106.168353"/>
      </g>
     </g>
     <g id="text_9">
      <!-- 30 -->
      <g style="fill:#262626;" transform="translate(22.174375 110.10515)scale(0.11 -0.11)">
       <defs>
        <path d="M 4.203125 18.890625 
L 12.984375 20.0625 
Q 14.5 12.59375 18.140625 9.296875 
Q 21.78125 6 27 6 
Q 33.203125 6 37.46875 10.296875 
Q 41.75 14.59375 41.75 20.953125 
Q 41.75 27 37.796875 30.921875 
Q 33.84375 34.859375 27.734375 34.859375 
Q 25.25 34.859375 21.53125 33.890625 
L 22.515625 41.609375 
Q 23.390625 41.5 23.921875 41.5 
Q 29.546875 41.5 34.03125 44.421875 
Q 38.53125 47.359375 38.53125 53.46875 
Q 38.53125 58.296875 35.25 61.46875 
Q 31.984375 64.65625 26.8125 64.65625 
Q 21.6875 64.65625 18.265625 61.421875 
Q 14.84375 58.203125 13.875 51.765625 
L 5.078125 53.328125 
Q 6.6875 62.15625 12.390625 67.015625 
Q 18.109375 71.875 26.609375 71.875 
Q 32.46875 71.875 37.390625 69.359375 
Q 42.328125 66.84375 44.9375 62.5 
Q 47.5625 58.15625 47.5625 53.265625 
Q 47.5625 48.640625 45.0625 44.828125 
Q 42.578125 41.015625 37.703125 38.765625 
Q 44.046875 37.3125 47.5625 32.6875 
Q 51.078125 28.078125 51.078125 21.140625 
Q 51.078125 11.765625 44.234375 5.25 
Q 37.40625 -1.265625 26.953125 -1.265625 
Q 17.53125 -1.265625 11.296875 4.34375 
Q 5.078125 9.96875 4.203125 18.890625 
z
" id="ArialMT-51"/>
       </defs>
       <use xlink:href="#ArialMT-51"/>
       <use x="55.615234" xlink:href="#ArialMT-48"/>
      </g>
     </g>
    </g>
    <g id="ytick_5">
     <g id="line2d_9">
      <g>
       <use style="fill:#262626;stroke:#262626;stroke-width:1.25;" x="43.908438" xlink:href="#m7321202313" y="75.98391"/>
      </g>
     </g>
     <g id="text_10">
      <!-- 40 -->
      <g style="fill:#262626;" transform="translate(22.174375 79.920707)scale(0.11 -0.11)">
       <defs>
        <path d="M 32.328125 0 
L 32.328125 17.140625 
L 1.265625 17.140625 
L 1.265625 25.203125 
L 33.9375 71.578125 
L 41.109375 71.578125 
L 41.109375 25.203125 
L 50.78125 25.203125 
L 50.78125 17.140625 
L 41.109375 17.140625 
L 41.109375 0 
z
M 32.328125 25.203125 
L 32.328125 57.46875 
L 9.90625 25.203125 
z
" id="ArialMT-52"/>
       </defs>
       <use xlink:href="#ArialMT-52"/>
       <use x="55.615234" xlink:href="#ArialMT-48"/>
      </g>
     </g>
    </g>
    <g id="ytick_6">
     <g id="line2d_10">
      <g>
       <use style="fill:#262626;stroke:#262626;stroke-width:1.25;" x="43.908438" xlink:href="#m7321202313" y="45.799467"/>
      </g>
     </g>
     <g id="text_11">
      <!-- 50 -->
      <g style="fill:#262626;" transform="translate(22.174375 49.736263)scale(0.11 -0.11)">
       <defs>
        <path d="M 4.15625 18.75 
L 13.375 19.53125 
Q 14.40625 12.796875 18.140625 9.390625 
Q 21.875 6 27.15625 6 
Q 33.5 6 37.890625 10.78125 
Q 42.28125 15.578125 42.28125 23.484375 
Q 42.28125 31 38.0625 35.34375 
Q 33.84375 39.703125 27 39.703125 
Q 22.75 39.703125 19.328125 37.765625 
Q 15.921875 35.84375 13.96875 32.765625 
L 5.71875 33.84375 
L 12.640625 70.609375 
L 48.25 70.609375 
L 48.25 62.203125 
L 19.671875 62.203125 
L 15.828125 42.96875 
Q 22.265625 47.46875 29.34375 47.46875 
Q 38.71875 47.46875 45.15625 40.96875 
Q 51.609375 34.46875 51.609375 24.265625 
Q 51.609375 14.546875 45.953125 7.46875 
Q 39.0625 -1.21875 27.15625 -1.21875 
Q 17.390625 -1.21875 11.203125 4.25 
Q 5.03125 9.71875 4.15625 18.75 
z
" id="ArialMT-53"/>
       </defs>
       <use xlink:href="#ArialMT-53"/>
       <use x="55.615234" xlink:href="#ArialMT-48"/>
      </g>
     </g>
    </g>
    <g id="ytick_7">
     <g id="line2d_11">
      <g>
       <use style="fill:#262626;stroke:#262626;stroke-width:1.25;" x="43.908438" xlink:href="#m7321202313" y="15.615024"/>
      </g>
     </g>
     <g id="text_12">
      <!-- 60 -->
      <g style="fill:#262626;" transform="translate(22.174375 19.55182)scale(0.11 -0.11)">
       <defs>
        <path d="M 49.75 54.046875 
L 41.015625 53.375 
Q 39.84375 58.546875 37.703125 60.890625 
Q 34.125 64.65625 28.90625 64.65625 
Q 24.703125 64.65625 21.53125 62.3125 
Q 17.390625 59.28125 14.984375 53.46875 
Q 12.59375 47.65625 12.5 36.921875 
Q 15.671875 41.75 20.265625 44.09375 
Q 24.859375 46.4375 29.890625 46.4375 
Q 38.671875 46.4375 44.84375 39.96875 
Q 51.03125 33.5 51.03125 23.25 
Q 51.03125 16.5 48.125 10.71875 
Q 45.21875 4.9375 40.140625 1.859375 
Q 35.0625 -1.21875 28.609375 -1.21875 
Q 17.625 -1.21875 10.6875 6.859375 
Q 3.765625 14.9375 3.765625 33.5 
Q 3.765625 54.25 11.421875 63.671875 
Q 18.109375 71.875 29.4375 71.875 
Q 37.890625 71.875 43.28125 67.140625 
Q 48.6875 62.40625 49.75 54.046875 
z
M 13.875 23.1875 
Q 13.875 18.65625 15.796875 14.5 
Q 17.71875 10.359375 21.1875 8.171875 
Q 24.65625 6 28.46875 6 
Q 34.03125 6 38.03125 10.484375 
Q 42.046875 14.984375 42.046875 22.703125 
Q 42.046875 30.125 38.078125 34.390625 
Q 34.125 38.671875 28.125 38.671875 
Q 22.171875 38.671875 18.015625 34.390625 
Q 13.875 30.125 13.875 23.1875 
z
" id="ArialMT-54"/>
       </defs>
       <use xlink:href="#ArialMT-54"/>
       <use x="55.615234" xlink:href="#ArialMT-48"/>
      </g>
     </g>
    </g>
    <g id="text_13">
     <!-- total_bill -->
     <g style="fill:#262626;" transform="translate(15.789375 137.9325)rotate(-90)scale(0.12 -0.12)">
      <defs>
       <path d="M 3.328125 25.921875 
Q 3.328125 40.328125 11.328125 47.265625 
Q 18.015625 53.03125 27.640625 53.03125 
Q 38.328125 53.03125 45.109375 46.015625 
Q 51.90625 39.015625 51.90625 26.65625 
Q 51.90625 16.65625 48.90625 10.90625 
Q 45.90625 5.171875 40.15625 2 
Q 34.421875 -1.171875 27.640625 -1.171875 
Q 16.75 -1.171875 10.03125 5.8125 
Q 3.328125 12.796875 3.328125 25.921875 
z
M 12.359375 25.921875 
Q 12.359375 15.96875 16.703125 11.015625 
Q 21.046875 6.0625 27.640625 6.0625 
Q 34.1875 6.0625 38.53125 11.03125 
Q 42.875 16.015625 42.875 26.21875 
Q 42.875 35.84375 38.5 40.796875 
Q 34.125 45.75 27.640625 45.75 
Q 21.046875 45.75 16.703125 40.8125 
Q 12.359375 35.890625 12.359375 25.921875 
z
" id="ArialMT-111"/>
       <path d="M 6.390625 0 
L 6.390625 71.578125 
L 15.1875 71.578125 
L 15.1875 0 
z
" id="ArialMT-108"/>
       <path d="M -1.515625 -19.875 
L -1.515625 -13.53125 
L 56.734375 -13.53125 
L 56.734375 -19.875 
z
" id="ArialMT-95"/>
       <path d="M 14.703125 0 
L 6.546875 0 
L 6.546875 71.578125 
L 15.328125 71.578125 
L 15.328125 46.046875 
Q 20.90625 53.03125 29.546875 53.03125 
Q 34.328125 53.03125 38.59375 51.09375 
Q 42.875 49.171875 45.625 45.671875 
Q 48.390625 42.1875 49.953125 37.25 
Q 51.515625 32.328125 51.515625 26.703125 
Q 51.515625 13.375 44.921875 6.09375 
Q 38.328125 -1.171875 29.109375 -1.171875 
Q 19.921875 -1.171875 14.703125 6.5 
z
M 14.59375 26.3125 
Q 14.59375 17 17.140625 12.84375 
Q 21.296875 6.0625 28.375 6.0625 
Q 34.125 6.0625 38.328125 11.0625 
Q 42.53125 16.0625 42.53125 25.984375 
Q 42.53125 36.140625 38.5 40.96875 
Q 34.46875 45.796875 28.765625 45.796875 
Q 23 45.796875 18.796875 40.796875 
Q 14.59375 35.796875 14.59375 26.3125 
z
" id="ArialMT-98"/>
      </defs>
      <use xlink:href="#ArialMT-116"/>
      <use x="27.783203" xlink:href="#ArialMT-111"/>
      <use x="83.398438" xlink:href="#ArialMT-116"/>
      <use x="111.181641" xlink:href="#ArialMT-97"/>
      <use x="166.796875" xlink:href="#ArialMT-108"/>
      <use x="189.013672" xlink:href="#ArialMT-95"/>
      <use x="244.628906" xlink:href="#ArialMT-98"/>
      <use x="300.244141" xlink:href="#ArialMT-105"/>
      <use x="322.460938" xlink:href="#ArialMT-108"/>
      <use x="344.677734" xlink:href="#ArialMT-108"/>
     </g>
    </g>
   </g>
   <g id="PolyCollection_1">
    <defs>
     <path d="M 85.758438 -67.940094 
L 85.026717 -67.940094 
L 84.803784 -69.46236 
L 84.529793 -70.984627 
L 84.198289 -72.506893 
L 83.803409 -74.029159 
L 83.34026 -75.551426 
L 82.805298 -77.073692 
L 82.19665 -78.595959 
L 81.514355 -80.118225 
L 80.760487 -81.640491 
L 79.939123 -83.162758 
L 79.05616 -84.685024 
L 78.118977 -86.207291 
L 77.135974 -87.729557 
L 76.116034 -89.251823 
L 75.067962 -90.77409 
L 73.999976 -92.296356 
L 72.919321 -93.818623 
L 71.832055 -95.340889 
L 70.743049 -96.863155 
L 69.656214 -98.385422 
L 68.574945 -99.907688 
L 67.502707 -101.429955 
L 66.443723 -102.952221 
L 65.403647 -104.474487 
L 64.390132 -105.996754 
L 63.413207 -107.51902 
L 62.48539 -109.041287 
L 61.621491 -110.563553 
L 60.838107 -112.085819 
L 60.152839 -113.608086 
L 59.58329 -115.130352 
L 59.145954 -116.652619 
L 58.855078 -118.174885 
L 58.721635 -119.697151 
L 58.752475 -121.219418 
L 58.949757 -122.741684 
L 59.310697 -124.263951 
L 59.827642 -125.786217 
L 60.488458 -127.308483 
L 61.277183 -128.83075 
L 62.174876 -130.353016 
L 63.160589 -131.875283 
L 64.212372 -133.397549 
L 65.308247 -134.919815 
L 66.427074 -136.442082 
L 67.549282 -137.964348 
L 68.657414 -139.486615 
L 69.736503 -141.008881 
L 70.774256 -142.531148 
L 71.761092 -144.053414 
L 72.690044 -145.57568 
L 73.556564 -147.097947 
L 74.358269 -148.620213 
L 75.094653 -150.14248 
L 75.766804 -151.664746 
L 76.377123 -153.187012 
L 76.929088 -154.709279 
L 77.427033 -156.231545 
L 77.875961 -157.753812 
L 78.281362 -159.276078 
L 78.649038 -160.798344 
L 78.984913 -162.320611 
L 79.294823 -163.842877 
L 79.5843 -165.365144 
L 79.858338 -166.88741 
L 80.121178 -168.409676 
L 80.376129 -169.931943 
L 80.625445 -171.454209 
L 80.870292 -172.976476 
L 81.110805 -174.498742 
L 81.346248 -176.021008 
L 81.575251 -177.543275 
L 81.796122 -179.065541 
L 82.007173 -180.587808 
L 82.207036 -182.110074 
L 82.394929 -183.63234 
L 82.570825 -185.154607 
L 82.735523 -186.676873 
L 82.890594 -188.19914 
L 83.038226 -189.721406 
L 83.180981 -191.243672 
L 83.321513 -192.765939 
L 83.462262 -194.288205 
L 83.60519 -195.810472 
L 83.751571 -197.332738 
L 83.90187 -198.855004 
L 84.055714 -200.377271 
L 84.211956 -201.899537 
L 84.368819 -203.421804 
L 84.524088 -204.94407 
L 84.675341 -206.466336 
L 84.820167 -207.988603 
L 84.956374 -209.510869 
L 85.082144 -211.033136 
L 85.196141 -212.555402 
L 85.297563 -214.077668 
L 85.386138 -215.599935 
L 85.462077 -217.122201 
L 85.526002 -218.644468 
L 85.758438 -218.644468 
L 85.758438 -218.644468 
L 85.758438 -217.122201 
L 85.758438 -215.599935 
L 85.758438 -214.077668 
L 85.758438 -212.555402 
L 85.758438 -211.033136 
L 85.758438 -209.510869 
L 85.758438 -207.988603 
L 85.758438 -206.466336 
L 85.758438 -204.94407 
L 85.758438 -203.421804 
L 85.758438 -201.899537 
L 85.758438 -200.377271 
L 85.758438 -198.855004 
L 85.758438 -197.332738 
L 85.758438 -195.810472 
L 85.758438 -194.288205 
L 85.758438 -192.765939 
L 85.758438 -191.243672 
L 85.758438 -189.721406 
L 85.758438 -188.19914 
L 85.758438 -186.676873 
L 85.758438 -185.154607 
L 85.758438 -183.63234 
L 85.758438 -182.110074 
L 85.758438 -180.587808 
L 85.758438 -179.065541 
L 85.758438 -177.543275 
L 85.758438 -176.021008 
L 85.758438 -174.498742 
L 85.758438 -172.976476 
L 85.758438 -171.454209 
L 85.758438 -169.931943 
L 85.758438 -168.409676 
L 85.758438 -166.88741 
L 85.758438 -165.365144 
L 85.758438 -163.842877 
L 85.758438 -162.320611 
L 85.758438 -160.798344 
L 85.758438 -159.276078 
L 85.758438 -157.753812 
L 85.758438 -156.231545 
L 85.758438 -154.709279 
L 85.758438 -153.187012 
L 85.758438 -151.664746 
L 85.758438 -150.14248 
L 85.758438 -148.620213 
L 85.758438 -147.097947 
L 85.758438 -145.57568 
L 85.758438 -144.053414 
L 85.758438 -142.531148 
L 85.758438 -141.008881 
L 85.758438 -139.486615 
L 85.758438 -137.964348 
L 85.758438 -136.442082 
L 85.758438 -134.919815 
L 85.758438 -133.397549 
L 85.758438 -131.875283 
L 85.758438 -130.353016 
L 85.758438 -128.83075 
L 85.758438 -127.308483 
L 85.758438 -125.786217 
L 85.758438 -124.263951 
L 85.758438 -122.741684 
L 85.758438 -121.219418 
L 85.758438 -119.697151 
L 85.758438 -118.174885 
L 85.758438 -116.652619 
L 85.758438 -115.130352 
L 85.758438 -113.608086 
L 85.758438 -112.085819 
L 85.758438 -110.563553 
L 85.758438 -109.041287 
L 85.758438 -107.51902 
L 85.758438 -105.996754 
L 85.758438 -104.474487 
L 85.758438 -102.952221 
L 85.758438 -101.429955 
L 85.758438 -99.907688 
L 85.758438 -98.385422 
L 85.758438 -96.863155 
L 85.758438 -95.340889 
L 85.758438 -93.818623 
L 85.758438 -92.296356 
L 85.758438 -90.77409 
L 85.758438 -89.251823 
L 85.758438 -87.729557 
L 85.758438 -86.207291 
L 85.758438 -84.685024 
L 85.758438 -83.162758 
L 85.758438 -81.640491 
L 85.758438 -80.118225 
L 85.758438 -78.595959 
L 85.758438 -77.073692 
L 85.758438 -75.551426 
L 85.758438 -74.029159 
L 85.758438 -72.506893 
L 85.758438 -70.984627 
L 85.758438 -69.46236 
L 85.758438 -67.940094 
z
" id="m6b211e70c9" style="stroke:#4c4c4c;stroke-width:1.5;"/>
    </defs>
    <g clip-path="url(#pbce9cc4cd9)">
     <use style="fill:#5875a4;stroke:#4c4c4c;stroke-width:1.5;" x="0" xlink:href="#m6b211e70c9" y="266.514844"/>
    </g>
   </g>
   <g id="PolyCollection_2">
    <defs>
     <path d="M 86.611267 -71.574755 
L 85.758438 -71.574755 
L 85.758438 -73.107745 
L 85.758438 -74.640734 
L 85.758438 -76.173724 
L 85.758438 -77.706713 
L 85.758438 -79.239703 
L 85.758438 -80.772692 
L 85.758438 -82.305682 
L 85.758438 -83.838671 
L 85.758438 -85.371661 
L 85.758438 -86.90465 
L 85.758438 -88.43764 
L 85.758438 -89.970629 
L 85.758438 -91.503618 
L 85.758438 -93.036608 
L 85.758438 -94.569597 
L 85.758438 -96.102587 
L 85.758438 -97.635576 
L 85.758438 -99.168566 
L 85.758438 -100.701555 
L 85.758438 -102.234545 
L 85.758438 -103.767534 
L 85.758438 -105.300524 
L 85.758438 -106.833513 
L 85.758438 -108.366503 
L 85.758438 -109.899492 
L 85.758438 -111.432481 
L 85.758438 -112.965471 
L 85.758438 -114.49846 
L 85.758438 -116.03145 
L 85.758438 -117.564439 
L 85.758438 -119.097429 
L 85.758438 -120.630418 
L 85.758438 -122.163408 
L 85.758438 -123.696397 
L 85.758438 -125.229387 
L 85.758438 -126.762376 
L 85.758438 -128.295366 
L 85.758438 -129.828355 
L 85.758438 -131.361344 
L 85.758438 -132.894334 
L 85.758438 -134.427323 
L 85.758438 -135.960313 
L 85.758438 -137.493302 
L 85.758438 -139.026292 
L 85.758438 -140.559281 
L 85.758438 -142.092271 
L 85.758438 -143.62526 
L 85.758438 -145.15825 
L 85.758438 -146.691239 
L 85.758438 -148.224229 
L 85.758438 -149.757218 
L 85.758438 -151.290208 
L 85.758438 -152.823197 
L 85.758438 -154.356186 
L 85.758438 -155.889176 
L 85.758438 -157.422165 
L 85.758438 -158.955155 
L 85.758438 -160.488144 
L 85.758438 -162.021134 
L 85.758438 -163.554123 
L 85.758438 -165.087113 
L 85.758438 -166.620102 
L 85.758438 -168.153092 
L 85.758438 -169.686081 
L 85.758438 -171.219071 
L 85.758438 -172.75206 
L 85.758438 -174.285049 
L 85.758438 -175.818039 
L 85.758438 -177.351028 
L 85.758438 -178.884018 
L 85.758438 -180.417007 
L 85.758438 -181.949997 
L 85.758438 -183.482986 
L 85.758438 -185.015976 
L 85.758438 -186.548965 
L 85.758438 -188.081955 
L 85.758438 -189.614944 
L 85.758438 -191.147934 
L 85.758438 -192.680923 
L 85.758438 -194.213912 
L 85.758438 -195.746902 
L 85.758438 -197.279891 
L 85.758438 -198.812881 
L 85.758438 -200.34587 
L 85.758438 -201.87886 
L 85.758438 -203.411849 
L 85.758438 -204.944839 
L 85.758438 -206.477828 
L 85.758438 -208.010818 
L 85.758438 -209.543807 
L 85.758438 -211.076797 
L 85.758438 -212.609786 
L 85.758438 -214.142775 
L 85.758438 -215.675765 
L 85.758438 -217.208754 
L 85.758438 -218.741744 
L 85.758438 -220.274733 
L 85.758438 -221.807723 
L 85.758438 -223.340712 
L 85.98471 -223.340712 
L 85.98471 -223.340712 
L 86.050053 -221.807723 
L 86.127936 -220.274733 
L 86.218756 -218.741744 
L 86.322305 -217.208754 
L 86.437648 -215.675765 
L 86.563053 -214.142775 
L 86.695983 -212.609786 
L 86.833171 -211.076797 
L 86.970773 -209.543807 
L 87.104615 -208.010818 
L 87.230505 -206.477828 
L 87.344579 -204.944839 
L 87.443669 -203.411849 
L 87.525622 -201.87886 
L 87.58955 -200.34587 
L 87.635969 -198.812881 
L 87.666801 -197.279891 
L 87.685237 -195.746902 
L 87.69547 -194.213912 
L 87.702322 -192.680923 
L 87.710817 -191.147934 
L 87.725741 -189.614944 
L 87.751247 -188.081955 
L 87.790546 -186.548965 
L 87.845727 -185.015976 
L 87.917704 -183.482986 
L 88.0063 -181.949997 
L 88.110444 -180.417007 
L 88.22843 -178.884018 
L 88.358215 -177.351028 
L 88.497693 -175.818039 
L 88.644925 -174.285049 
L 88.79829 -172.75206 
L 88.956552 -171.219071 
L 89.118857 -169.686081 
L 89.284691 -168.153092 
L 89.453812 -166.620102 
L 89.626216 -165.087113 
L 89.802147 -163.554123 
L 89.982193 -162.021134 
L 90.167446 -160.488144 
L 90.359743 -158.955155 
L 90.561931 -157.422165 
L 90.778139 -155.889176 
L 91.013995 -154.356186 
L 91.276742 -152.823197 
L 91.575215 -151.290208 
L 91.919652 -149.757218 
L 92.321313 -148.224229 
L 92.791946 -146.691239 
L 93.34311 -145.15825 
L 93.985423 -143.62526 
L 94.727795 -142.092271 
L 95.57673 -140.559281 
L 96.535765 -139.026292 
L 97.605086 -137.493302 
L 98.781383 -135.960313 
L 100.057911 -134.427323 
L 101.424736 -132.894334 
L 102.869108 -131.361344 
L 104.375855 -129.828355 
L 105.927743 -128.295366 
L 107.505698 -126.762376 
L 109.088871 -125.229387 
L 110.654543 -123.696397 
L 112.17793 -122.163408 
L 113.631981 -120.630418 
L 114.987306 -119.097429 
L 116.212362 -117.564439 
L 117.274033 -116.03145 
L 118.138643 -114.49846 
L 118.773436 -112.965471 
L 119.148419 -111.432481 
L 119.238438 -109.899492 
L 119.025263 -108.366503 
L 118.499467 -106.833513 
L 117.661839 -105.300524 
L 116.524163 -103.767534 
L 115.109221 -102.234545 
L 113.449995 -100.701555 
L 111.588108 -99.168566 
L 109.57165 -97.635576 
L 107.452583 -96.102587 
L 105.283963 -94.569597 
L 103.117228 -93.036608 
L 100.999752 -91.503618 
L 98.972868 -89.970629 
L 97.070446 -88.43764 
L 95.318093 -86.90465 
L 93.732958 -85.371661 
L 92.324068 -83.838671 
L 91.093115 -82.305682 
L 90.03554 -80.772692 
L 89.14181 -79.239703 
L 88.398758 -77.706713 
L 87.790873 -76.173724 
L 87.30147 -74.640734 
L 86.913687 -73.107745 
L 86.611267 -71.574755 
z
" id="m17379612e1" style="stroke:#4c4c4c;stroke-width:1.5;"/>
    </defs>
    <g clip-path="url(#pbce9cc4cd9)">
     <use style="fill:#cc8963;stroke:#4c4c4c;stroke-width:1.5;" x="0" xlink:href="#m17379612e1" y="266.514844"/>
    </g>
   </g>
   <g id="PolyCollection_3">
    <defs>
     <path d="M 169.458438 -57.540858 
L 168.743674 -57.540858 
L 168.580646 -59.274735 
L 168.388405 -61.008611 
L 168.163695 -62.742488 
L 167.903346 -64.476364 
L 167.604398 -66.210241 
L 167.264228 -67.944117 
L 166.880699 -69.677994 
L 166.452307 -71.41187 
L 165.978335 -73.145746 
L 165.458992 -74.879623 
L 164.895542 -76.613499 
L 164.290406 -78.347376 
L 163.647225 -80.081252 
L 162.970894 -81.815129 
L 162.267536 -83.549005 
L 161.544427 -85.282881 
L 160.809865 -87.016758 
L 160.07299 -88.750634 
L 159.34354 -90.484511 
L 158.631583 -92.218387 
L 157.947195 -93.952264 
L 157.30014 -95.68614 
L 156.699526 -97.420016 
L 156.153494 -99.153893 
L 155.668921 -100.887769 
L 155.251178 -102.621646 
L 154.90395 -104.355522 
L 154.629118 -106.089399 
L 154.426734 -107.823275 
L 154.295061 -109.557151 
L 154.23071 -111.291028 
L 154.228834 -113.024904 
L 154.283392 -114.758781 
L 154.387458 -116.492657 
L 154.533557 -118.226534 
L 154.714013 -119.96041 
L 154.921288 -121.694286 
L 155.148295 -123.428163 
L 155.388669 -125.162039 
L 155.636978 -126.895916 
L 155.888881 -128.629792 
L 156.141205 -130.363669 
L 156.391962 -132.097545 
L 156.640296 -133.831421 
L 156.886376 -135.565298 
L 157.131233 -137.299174 
L 157.376567 -139.033051 
L 157.624527 -140.766927 
L 157.877484 -142.500804 
L 158.137805 -144.23468 
L 158.407645 -145.968556 
L 158.688763 -147.702433 
L 158.982375 -149.436309 
L 159.28905 -151.170186 
L 159.608648 -152.904062 
L 159.940303 -154.637939 
L 160.282458 -156.371815 
L 160.632937 -158.105691 
L 160.989048 -159.839568 
L 161.347726 -161.573444 
L 161.705684 -163.307321 
L 162.059581 -165.041197 
L 162.40619 -166.775074 
L 162.742553 -168.50895 
L 163.06612 -170.242826 
L 163.374866 -171.976703 
L 163.667369 -173.710579 
L 163.942856 -175.444456 
L 164.201215 -177.178332 
L 164.442964 -178.912209 
L 164.669191 -180.646085 
L 164.881462 -182.379962 
L 165.081707 -184.113838 
L 165.272094 -185.847714 
L 165.454892 -187.581591 
L 165.632338 -189.315467 
L 165.806514 -191.049344 
L 165.979241 -192.78322 
L 166.15199 -194.517097 
L 166.325827 -196.250973 
L 166.501379 -197.984849 
L 166.678827 -199.718726 
L 166.85793 -201.452602 
L 167.038069 -203.186479 
L 167.218304 -204.920355 
L 167.397453 -206.654232 
L 167.574168 -208.388108 
L 167.747024 -210.121984 
L 167.914594 -211.855861 
L 168.075523 -213.589737 
L 168.22859 -215.323614 
L 168.372755 -217.05749 
L 168.507194 -218.791367 
L 168.631319 -220.525243 
L 168.744781 -222.259119 
L 168.847468 -223.992996 
L 168.939484 -225.726872 
L 169.021127 -227.460749 
L 169.092857 -229.194625 
L 169.458438 -229.194625 
L 169.458438 -229.194625 
L 169.458438 -227.460749 
L 169.458438 -225.726872 
L 169.458438 -223.992996 
L 169.458438 -222.259119 
L 169.458438 -220.525243 
L 169.458438 -218.791367 
L 169.458438 -217.05749 
L 169.458438 -215.323614 
L 169.458438 -213.589737 
L 169.458438 -211.855861 
L 169.458438 -210.121984 
L 169.458438 -208.388108 
L 169.458438 -206.654232 
L 169.458438 -204.920355 
L 169.458438 -203.186479 
L 169.458438 -201.452602 
L 169.458438 -199.718726 
L 169.458438 -197.984849 
L 169.458438 -196.250973 
L 169.458438 -194.517097 
L 169.458438 -192.78322 
L 169.458438 -191.049344 
L 169.458438 -189.315467 
L 169.458438 -187.581591 
L 169.458438 -185.847714 
L 169.458438 -184.113838 
L 169.458438 -182.379962 
L 169.458438 -180.646085 
L 169.458438 -178.912209 
L 169.458438 -177.178332 
L 169.458438 -175.444456 
L 169.458438 -173.710579 
L 169.458438 -171.976703 
L 169.458438 -170.242826 
L 169.458438 -168.50895 
L 169.458438 -166.775074 
L 169.458438 -165.041197 
L 169.458438 -163.307321 
L 169.458438 -161.573444 
L 169.458438 -159.839568 
L 169.458438 -158.105691 
L 169.458438 -156.371815 
L 169.458438 -154.637939 
L 169.458438 -152.904062 
L 169.458438 -151.170186 
L 169.458438 -149.436309 
L 169.458438 -147.702433 
L 169.458438 -145.968556 
L 169.458438 -144.23468 
L 169.458438 -142.500804 
L 169.458438 -140.766927 
L 169.458438 -139.033051 
L 169.458438 -137.299174 
L 169.458438 -135.565298 
L 169.458438 -133.831421 
L 169.458438 -132.097545 
L 169.458438 -130.363669 
L 169.458438 -128.629792 
L 169.458438 -126.895916 
L 169.458438 -125.162039 
L 169.458438 -123.428163 
L 169.458438 -121.694286 
L 169.458438 -119.96041 
L 169.458438 -118.226534 
L 169.458438 -116.492657 
L 169.458438 -114.758781 
L 169.458438 -113.024904 
L 169.458438 -111.291028 
L 169.458438 -109.557151 
L 169.458438 -107.823275 
L 169.458438 -106.089399 
L 169.458438 -104.355522 
L 169.458438 -102.621646 
L 169.458438 -100.887769 
L 169.458438 -99.153893 
L 169.458438 -97.420016 
L 169.458438 -95.68614 
L 169.458438 -93.952264 
L 169.458438 -92.218387 
L 169.458438 -90.484511 
L 169.458438 -88.750634 
L 169.458438 -87.016758 
L 169.458438 -85.282881 
L 169.458438 -83.549005 
L 169.458438 -81.815129 
L 169.458438 -80.081252 
L 169.458438 -78.347376 
L 169.458438 -76.613499 
L 169.458438 -74.879623 
L 169.458438 -73.145746 
L 169.458438 -71.41187 
L 169.458438 -69.677994 
L 169.458438 -67.944117 
L 169.458438 -66.210241 
L 169.458438 -64.476364 
L 169.458438 -62.742488 
L 169.458438 -61.008611 
L 169.458438 -59.274735 
L 169.458438 -57.540858 
z
" id="m1010b584c4" style="stroke:#4c4c4c;stroke-width:1.5;"/>
    </defs>
    <g clip-path="url(#pbce9cc4cd9)">
     <use style="fill:#5875a4;stroke:#4c4c4c;stroke-width:1.5;" x="0" xlink:href="#m1010b584c4" y="266.514844"/>
    </g>
   </g>
   <g id="PolyCollection_4">
    <defs>
     <path d="M 170.306481 -68.521125 
L 169.458438 -68.521125 
L 169.458438 -69.415769 
L 169.458438 -70.310412 
L 169.458438 -71.205056 
L 169.458438 -72.0997 
L 169.458438 -72.994344 
L 169.458438 -73.888988 
L 169.458438 -74.783631 
L 169.458438 -75.678275 
L 169.458438 -76.572919 
L 169.458438 -77.467563 
L 169.458438 -78.362207 
L 169.458438 -79.25685 
L 169.458438 -80.151494 
L 169.458438 -81.046138 
L 169.458438 -81.940782 
L 169.458438 -82.835426 
L 169.458438 -83.730069 
L 169.458438 -84.624713 
L 169.458438 -85.519357 
L 169.458438 -86.414001 
L 169.458438 -87.308645 
L 169.458438 -88.203288 
L 169.458438 -89.097932 
L 169.458438 -89.992576 
L 169.458438 -90.88722 
L 169.458438 -91.781864 
L 169.458438 -92.676508 
L 169.458438 -93.571151 
L 169.458438 -94.465795 
L 169.458438 -95.360439 
L 169.458438 -96.255083 
L 169.458438 -97.149727 
L 169.458438 -98.04437 
L 169.458438 -98.939014 
L 169.458438 -99.833658 
L 169.458438 -100.728302 
L 169.458438 -101.622946 
L 169.458438 -102.517589 
L 169.458438 -103.412233 
L 169.458438 -104.306877 
L 169.458438 -105.201521 
L 169.458438 -106.096165 
L 169.458438 -106.990808 
L 169.458438 -107.885452 
L 169.458438 -108.780096 
L 169.458438 -109.67474 
L 169.458438 -110.569384 
L 169.458438 -111.464027 
L 169.458438 -112.358671 
L 169.458438 -113.253315 
L 169.458438 -114.147959 
L 169.458438 -115.042603 
L 169.458438 -115.937247 
L 169.458438 -116.83189 
L 169.458438 -117.726534 
L 169.458438 -118.621178 
L 169.458438 -119.515822 
L 169.458438 -120.410466 
L 169.458438 -121.305109 
L 169.458438 -122.199753 
L 169.458438 -123.094397 
L 169.458438 -123.989041 
L 169.458438 -124.883685 
L 169.458438 -125.778328 
L 169.458438 -126.672972 
L 169.458438 -127.567616 
L 169.458438 -128.46226 
L 169.458438 -129.356904 
L 169.458438 -130.251547 
L 169.458438 -131.146191 
L 169.458438 -132.040835 
L 169.458438 -132.935479 
L 169.458438 -133.830123 
L 169.458438 -134.724767 
L 169.458438 -135.61941 
L 169.458438 -136.514054 
L 169.458438 -137.408698 
L 169.458438 -138.303342 
L 169.458438 -139.197986 
L 169.458438 -140.092629 
L 169.458438 -140.987273 
L 169.458438 -141.881917 
L 169.458438 -142.776561 
L 169.458438 -143.671205 
L 169.458438 -144.565848 
L 169.458438 -145.460492 
L 169.458438 -146.355136 
L 169.458438 -147.24978 
L 169.458438 -148.144424 
L 169.458438 -149.039067 
L 169.458438 -149.933711 
L 169.458438 -150.828355 
L 169.458438 -151.722999 
L 169.458438 -152.617643 
L 169.458438 -153.512286 
L 169.458438 -154.40693 
L 169.458438 -155.301574 
L 169.458438 -156.196218 
L 169.458438 -157.090862 
L 170.287729 -157.090862 
L 170.287729 -157.090862 
L 170.459899 -156.196218 
L 170.657022 -155.301574 
L 170.880231 -154.40693 
L 171.130179 -153.512286 
L 171.406961 -152.617643 
L 171.71005 -151.722999 
L 172.038265 -150.828355 
L 172.389784 -149.933711 
L 172.762197 -149.039067 
L 173.152609 -148.144424 
L 173.557805 -147.24978 
L 173.974456 -146.355136 
L 174.399368 -145.460492 
L 174.829776 -144.565848 
L 175.263636 -143.671205 
L 175.699933 -142.776561 
L 176.138944 -141.881917 
L 176.582468 -140.987273 
L 177.033973 -140.092629 
L 177.498645 -139.197986 
L 177.983329 -138.303342 
L 178.496344 -137.408698 
L 179.047166 -136.514054 
L 179.645987 -135.61941 
L 180.303169 -134.724767 
L 181.028608 -133.830123 
L 181.831047 -132.935479 
L 182.717379 -132.040835 
L 183.691979 -131.146191 
L 184.75611 -130.251547 
L 185.90746 -129.356904 
L 187.13983 -128.46226 
L 188.443018 -127.567616 
L 189.802913 -126.672972 
L 191.201804 -125.778328 
L 192.618899 -124.883685 
L 194.031027 -123.989041 
L 195.413491 -123.094397 
L 196.741021 -122.199753 
L 197.988774 -121.305109 
L 199.133322 -120.410466 
L 200.153569 -119.515822 
L 201.031544 -118.621178 
L 201.753022 -117.726534 
L 202.307955 -116.83189 
L 202.690676 -115.937247 
L 202.899886 -115.042603 
L 202.938438 -114.147959 
L 202.812937 -113.253315 
L 202.533208 -112.358671 
L 202.111653 -111.464027 
L 201.562574 -110.569384 
L 200.901478 -109.67474 
L 200.144435 -108.780096 
L 199.307499 -107.885452 
L 198.40623 -106.990808 
L 197.455324 -106.096165 
L 196.468352 -105.201521 
L 195.457609 -104.306877 
L 194.434043 -103.412233 
L 193.407258 -102.517589 
L 192.385563 -101.622946 
L 191.376042 -100.728302 
L 190.384638 -99.833658 
L 189.416221 -98.939014 
L 188.474655 -98.04437 
L 187.562835 -97.149727 
L 186.682727 -96.255083 
L 185.835388 -95.360439 
L 185.021007 -94.465795 
L 184.238952 -93.571151 
L 183.48784 -92.676508 
L 182.765646 -91.781864 
L 182.069834 -90.88722 
L 181.397522 -89.992576 
L 180.74567 -89.097932 
L 180.111273 -88.203288 
L 179.49156 -87.308645 
L 178.884176 -86.414001 
L 178.287328 -85.519357 
L 177.699902 -84.624713 
L 177.121528 -83.730069 
L 176.552589 -82.835426 
L 175.994183 -81.940782 
L 175.448035 -81.046138 
L 174.916376 -80.151494 
L 174.40178 -79.25685 
L 173.906999 -78.362207 
L 173.434786 -77.467563 
L 172.987731 -76.572919 
L 172.568109 -75.678275 
L 172.17777 -74.783631 
L 171.818044 -73.888988 
L 171.489699 -72.994344 
L 171.192919 -72.0997 
L 170.927324 -71.205056 
L 170.692017 -70.310412 
L 170.485644 -69.415769 
L 170.306481 -68.521125 
z
" id="m34d02edf18" style="stroke:#4c4c4c;stroke-width:1.5;"/>
    </defs>
    <g clip-path="url(#pbce9cc4cd9)">
     <use style="fill:#cc8963;stroke:#4c4c4c;stroke-width:1.5;" x="0" xlink:href="#m34d02edf18" y="266.514844"/>
    </g>
   </g>
   <g id="PolyCollection_5">
    <defs>
     <path d="M 253.158438 -66.88503 
L 252.726519 -66.88503 
L 252.550317 -68.728931 
L 252.315827 -70.572832 
L 252.009306 -72.416733 
L 251.615751 -74.260634 
L 251.11945 -76.104534 
L 250.504747 -77.948435 
L 249.756999 -79.792336 
L 248.863683 -81.636237 
L 247.81557 -83.480137 
L 246.607853 -85.324038 
L 245.241127 -87.167939 
L 243.722085 -89.01184 
L 242.063832 -90.855741 
L 240.285756 -92.699641 
L 238.412946 -94.543542 
L 236.475184 -96.387443 
L 234.505629 -98.231344 
L 232.539329 -100.075244 
L 230.611719 -101.919145 
L 228.757279 -103.763046 
L 227.008444 -105.606947 
L 225.39486 -107.450848 
L 223.942963 -109.294748 
L 222.675816 -111.138649 
L 221.6131 -112.98255 
L 220.771114 -114.826451 
L 220.162675 -116.670351 
L 219.796838 -118.514252 
L 219.678438 -120.358153 
L 219.807503 -122.202054 
L 220.178666 -124.045955 
L 220.780724 -125.889855 
L 221.596493 -127.733756 
L 222.603084 -129.577657 
L 223.772653 -131.421558 
L 225.073601 -133.265458 
L 226.472133 -135.109359 
L 227.934015 -136.95326 
L 229.42636 -138.797161 
L 230.919221 -140.641062 
L 232.386866 -142.484962 
L 233.808597 -144.328863 
L 235.16908 -146.172764 
L 236.458194 -148.016665 
L 237.67048 -149.860565 
L 238.804277 -151.704466 
L 239.860703 -153.548367 
L 240.842589 -155.392268 
L 241.753506 -157.236169 
L 242.596969 -159.080069 
L 243.375904 -160.92397 
L 244.09239 -162.767871 
L 244.7477 -164.611772 
L 245.342575 -166.455672 
L 245.877691 -168.299573 
L 246.354202 -170.143474 
L 246.774263 -171.987375 
L 247.141429 -173.831276 
L 247.460837 -175.675176 
L 247.739115 -177.519077 
L 247.984009 -179.362978 
L 248.203757 -181.206879 
L 248.406299 -183.050779 
L 248.59844 -184.89468 
L 248.785091 -186.738581 
L 248.968736 -188.582482 
L 249.149201 -190.426383 
L 249.323804 -192.270283 
L 249.487871 -194.114184 
L 249.63555 -195.958085 
L 249.760836 -197.801986 
L 249.858643 -199.645886 
L 249.925781 -201.489787 
L 249.961697 -203.333688 
L 249.968872 -205.177589 
L 249.952824 -207.02149 
L 249.921713 -208.86539 
L 249.885602 -210.709291 
L 249.855474 -212.553192 
L 249.842145 -214.397093 
L 249.855191 -216.240993 
L 249.90204 -218.084894 
L 249.987315 -219.928795 
L 250.1125 -221.772696 
L 250.275946 -223.616597 
L 250.473189 -225.460497 
L 250.697523 -227.304398 
L 250.940734 -229.148299 
L 251.193907 -230.9922 
L 251.448202 -232.8361 
L 251.695531 -234.680001 
L 251.929067 -236.523902 
L 252.143566 -238.367803 
L 252.335498 -240.211704 
L 252.503009 -242.055604 
L 252.645741 -243.899505 
L 252.764568 -245.743406 
L 252.861285 -247.587307 
L 252.938284 -249.431207 
L 253.158438 -249.431207 
L 253.158438 -249.431207 
L 253.158438 -247.587307 
L 253.158438 -245.743406 
L 253.158438 -243.899505 
L 253.158438 -242.055604 
L 253.158438 -240.211704 
L 253.158438 -238.367803 
L 253.158438 -236.523902 
L 253.158438 -234.680001 
L 253.158438 -232.8361 
L 253.158438 -230.9922 
L 253.158438 -229.148299 
L 253.158438 -227.304398 
L 253.158438 -225.460497 
L 253.158438 -223.616597 
L 253.158438 -221.772696 
L 253.158438 -219.928795 
L 253.158438 -218.084894 
L 253.158438 -216.240993 
L 253.158438 -214.397093 
L 253.158438 -212.553192 
L 253.158438 -210.709291 
L 253.158438 -208.86539 
L 253.158438 -207.02149 
L 253.158438 -205.177589 
L 253.158438 -203.333688 
L 253.158438 -201.489787 
L 253.158438 -199.645886 
L 253.158438 -197.801986 
L 253.158438 -195.958085 
L 253.158438 -194.114184 
L 253.158438 -192.270283 
L 253.158438 -190.426383 
L 253.158438 -188.582482 
L 253.158438 -186.738581 
L 253.158438 -184.89468 
L 253.158438 -183.050779 
L 253.158438 -181.206879 
L 253.158438 -179.362978 
L 253.158438 -177.519077 
L 253.158438 -175.675176 
L 253.158438 -173.831276 
L 253.158438 -171.987375 
L 253.158438 -170.143474 
L 253.158438 -168.299573 
L 253.158438 -166.455672 
L 253.158438 -164.611772 
L 253.158438 -162.767871 
L 253.158438 -160.92397 
L 253.158438 -159.080069 
L 253.158438 -157.236169 
L 253.158438 -155.392268 
L 253.158438 -153.548367 
L 253.158438 -151.704466 
L 253.158438 -149.860565 
L 253.158438 -148.016665 
L 253.158438 -146.172764 
L 253.158438 -144.328863 
L 253.158438 -142.484962 
L 253.158438 -140.641062 
L 253.158438 -138.797161 
L 253.158438 -136.95326 
L 253.158438 -135.109359 
L 253.158438 -133.265458 
L 253.158438 -131.421558 
L 253.158438 -129.577657 
L 253.158438 -127.733756 
L 253.158438 -125.889855 
L 253.158438 -124.045955 
L 253.158438 -122.202054 
L 253.158438 -120.358153 
L 253.158438 -118.514252 
L 253.158438 -116.670351 
L 253.158438 -114.826451 
L 253.158438 -112.98255 
L 253.158438 -111.138649 
L 253.158438 -109.294748 
L 253.158438 -107.450848 
L 253.158438 -105.606947 
L 253.158438 -103.763046 
L 253.158438 -101.919145 
L 253.158438 -100.075244 
L 253.158438 -98.231344 
L 253.158438 -96.387443 
L 253.158438 -94.543542 
L 253.158438 -92.699641 
L 253.158438 -90.855741 
L 253.158438 -89.01184 
L 253.158438 -87.167939 
L 253.158438 -85.324038 
L 253.158438 -83.480137 
L 253.158438 -81.636237 
L 253.158438 -79.792336 
L 253.158438 -77.948435 
L 253.158438 -76.104534 
L 253.158438 -74.260634 
L 253.158438 -72.416733 
L 253.158438 -70.572832 
L 253.158438 -68.728931 
L 253.158438 -66.88503 
z
" id="m40c9506c0e" style="stroke:#4c4c4c;stroke-width:1.5;"/>
    </defs>
    <g clip-path="url(#pbce9cc4cd9)">
     <use style="fill:#5875a4;stroke:#4c4c4c;stroke-width:1.5;" x="0" xlink:href="#m40c9506c0e" y="266.514844"/>
    </g>
   </g>
   <g id="PolyCollection_6">
    <defs>
     <path d="M 253.485591 -51.75848 
L 253.158438 -51.75848 
L 253.158438 -53.567097 
L 253.158438 -55.375714 
L 253.158438 -57.184331 
L 253.158438 -58.992948 
L 253.158438 -60.801564 
L 253.158438 -62.610181 
L 253.158438 -64.418798 
L 253.158438 -66.227415 
L 253.158438 -68.036032 
L 253.158438 -69.844649 
L 253.158438 -71.653266 
L 253.158438 -73.461883 
L 253.158438 -75.270499 
L 253.158438 -77.079116 
L 253.158438 -78.887733 
L 253.158438 -80.69635 
L 253.158438 -82.504967 
L 253.158438 -84.313584 
L 253.158438 -86.122201 
L 253.158438 -87.930818 
L 253.158438 -89.739434 
L 253.158438 -91.548051 
L 253.158438 -93.356668 
L 253.158438 -95.165285 
L 253.158438 -96.973902 
L 253.158438 -98.782519 
L 253.158438 -100.591136 
L 253.158438 -102.399753 
L 253.158438 -104.208369 
L 253.158438 -106.016986 
L 253.158438 -107.825603 
L 253.158438 -109.63422 
L 253.158438 -111.442837 
L 253.158438 -113.251454 
L 253.158438 -115.060071 
L 253.158438 -116.868687 
L 253.158438 -118.677304 
L 253.158438 -120.485921 
L 253.158438 -122.294538 
L 253.158438 -124.103155 
L 253.158438 -125.911772 
L 253.158438 -127.720389 
L 253.158438 -129.529006 
L 253.158438 -131.337622 
L 253.158438 -133.146239 
L 253.158438 -134.954856 
L 253.158438 -136.763473 
L 253.158438 -138.57209 
L 253.158438 -140.380707 
L 253.158438 -142.189324 
L 253.158438 -143.997941 
L 253.158438 -145.806557 
L 253.158438 -147.615174 
L 253.158438 -149.423791 
L 253.158438 -151.232408 
L 253.158438 -153.041025 
L 253.158438 -154.849642 
L 253.158438 -156.658259 
L 253.158438 -158.466876 
L 253.158438 -160.275492 
L 253.158438 -162.084109 
L 253.158438 -163.892726 
L 253.158438 -165.701343 
L 253.158438 -167.50996 
L 253.158438 -169.318577 
L 253.158438 -171.127194 
L 253.158438 -172.93581 
L 253.158438 -174.744427 
L 253.158438 -176.553044 
L 253.158438 -178.361661 
L 253.158438 -180.170278 
L 253.158438 -181.978895 
L 253.158438 -183.787512 
L 253.158438 -185.596129 
L 253.158438 -187.404745 
L 253.158438 -189.213362 
L 253.158438 -191.021979 
L 253.158438 -192.830596 
L 253.158438 -194.639213 
L 253.158438 -196.44783 
L 253.158438 -198.256447 
L 253.158438 -200.065064 
L 253.158438 -201.87368 
L 253.158438 -203.682297 
L 253.158438 -205.490914 
L 253.158438 -207.299531 
L 253.158438 -209.108148 
L 253.158438 -210.916765 
L 253.158438 -212.725382 
L 253.158438 -214.533999 
L 253.158438 -216.342615 
L 253.158438 -218.151232 
L 253.158438 -219.959849 
L 253.158438 -221.768466 
L 253.158438 -223.577083 
L 253.158438 -225.3857 
L 253.158438 -227.194317 
L 253.158438 -229.002933 
L 253.158438 -230.81155 
L 253.450496 -230.81155 
L 253.450496 -230.81155 
L 253.53622 -229.002933 
L 253.638758 -227.194317 
L 253.75875 -225.3857 
L 253.896057 -223.577083 
L 254.049607 -221.768466 
L 254.217312 -219.959849 
L 254.396069 -218.151232 
L 254.581865 -216.342615 
L 254.770004 -214.533999 
L 254.955429 -212.725382 
L 255.133138 -210.916765 
L 255.298638 -209.108148 
L 255.448399 -207.299531 
L 255.580247 -205.490914 
L 255.693659 -203.682297 
L 255.789913 -201.87368 
L 255.87208 -200.065064 
L 255.944863 -198.256447 
L 256.014311 -196.44783 
L 256.087454 -194.639213 
L 256.171919 -192.830596 
L 256.27557 -191.021979 
L 256.406231 -189.213362 
L 256.571511 -187.404745 
L 256.778719 -185.596129 
L 257.034857 -183.787512 
L 257.346633 -181.978895 
L 257.720429 -180.170278 
L 258.162198 -178.361661 
L 258.677218 -176.553044 
L 259.269719 -174.744427 
L 259.942404 -172.93581 
L 260.695919 -171.127194 
L 261.528358 -169.318577 
L 262.434908 -167.50996 
L 263.407705 -165.701343 
L 264.435991 -163.892726 
L 265.50658 -162.084109 
L 266.604615 -160.275492 
L 267.714557 -158.466876 
L 268.821276 -156.658259 
L 269.91114 -154.849642 
L 270.972934 -153.041025 
L 271.998526 -151.232408 
L 272.983166 -149.423791 
L 273.92541 -147.615174 
L 274.826672 -145.806557 
L 275.690466 -143.997941 
L 276.52143 -142.189324 
L 277.324243 -140.380707 
L 278.102545 -138.57209 
L 278.857951 -136.763473 
L 279.58924 -134.954856 
L 280.29178 -133.146239 
L 280.95722 -131.337622 
L 281.573474 -129.529006 
L 282.125013 -127.720389 
L 282.593454 -125.911772 
L 282.958447 -124.103155 
L 283.198824 -122.294538 
L 283.293948 -120.485921 
L 283.22519 -118.677304 
L 282.97743 -116.868687 
L 282.540438 -115.060071 
L 281.910017 -113.251454 
L 281.08878 -111.442837 
L 280.086454 -109.63422 
L 278.919668 -107.825603 
L 277.611221 -106.016986 
L 276.188875 -104.208369 
L 274.68379 -102.399753 
L 273.128731 -100.591136 
L 271.556227 -98.782519 
L 269.996825 -96.973902 
L 268.477607 -95.165285 
L 267.021073 -93.356668 
L 265.644453 -91.548051 
L 264.359483 -89.739434 
L 263.172601 -87.930818 
L 262.085516 -86.122201 
L 261.096034 -84.313584 
L 260.199051 -82.504967 
L 259.387584 -80.69635 
L 258.653745 -78.887733 
L 257.989578 -77.079116 
L 257.387694 -75.270499 
L 256.841686 -73.461883 
L 256.346327 -71.653266 
L 255.897563 -69.844649 
L 255.492366 -68.036032 
L 255.128479 -66.227415 
L 254.804128 -64.418798 
L 254.517728 -62.610181 
L 254.267645 -60.801564 
L 254.052017 -58.992948 
L 253.86866 -57.184331 
L 253.715051 -55.375714 
L 253.58837 -53.567097 
L 253.485591 -51.75848 
z
" id="mf89d45dba6" style="stroke:#4c4c4c;stroke-width:1.5;"/>
    </defs>
    <g clip-path="url(#pbce9cc4cd9)">
     <use style="fill:#cc8963;stroke:#4c4c4c;stroke-width:1.5;" x="0" xlink:href="#mf89d45dba6" y="266.514844"/>
    </g>
   </g>
   <g id="PolyCollection_7">
    <defs>
     <path d="M 336.858438 -67.21119 
L 336.485647 -67.21119 
L 336.339512 -68.95307 
L 336.148017 -70.69495 
L 335.901657 -72.43683 
L 335.590424 -74.17871 
L 335.20422 -75.920591 
L 334.733363 -77.662471 
L 334.16913 -79.404351 
L 333.50432 -81.146231 
L 332.733761 -82.888111 
L 331.854725 -84.629991 
L 330.86721 -86.371871 
L 329.774073 -88.113751 
L 328.581009 -89.855631 
L 327.296408 -91.597511 
L 325.931126 -93.339391 
L 324.498224 -95.081271 
L 323.012704 -96.823151 
L 321.491283 -98.565031 
L 319.952179 -100.306912 
L 318.414915 -102.048792 
L 316.900055 -103.790672 
L 315.428853 -105.532552 
L 314.022749 -107.274432 
L 312.702703 -109.016312 
L 311.488397 -110.758192 
L 310.397368 -112.500072 
L 309.444169 -114.241952 
L 308.639687 -115.983832 
L 307.990725 -117.725712 
L 307.49993 -119.467592 
L 307.166095 -121.209472 
L 306.984796 -122.951352 
L 306.949264 -124.693232 
L 307.051339 -126.435113 
L 307.282341 -128.176993 
L 307.633696 -129.918873 
L 308.097207 -131.660753 
L 308.664924 -133.402633 
L 309.328671 -135.144513 
L 310.079327 -136.886393 
L 310.906071 -138.628273 
L 311.795781 -140.370153 
L 312.732782 -142.112033 
L 313.699079 -143.853913 
L 314.675127 -145.595793 
L 315.641077 -147.337673 
L 316.578347 -149.079553 
L 317.471296 -150.821433 
L 318.308735 -152.563314 
L 319.085028 -154.305194 
L 319.800577 -156.047074 
L 320.46161 -157.788954 
L 321.079258 -159.530834 
L 321.668051 -161.272714 
L 322.244039 -163.014594 
L 322.822789 -164.756474 
L 323.417538 -166.498354 
L 324.037723 -168.240234 
L 324.688067 -169.982114 
L 325.368289 -171.723994 
L 326.073424 -173.465874 
L 326.794643 -175.207754 
L 327.520427 -176.949634 
L 328.237888 -178.691515 
L 328.934071 -180.433395 
L 329.597074 -182.175275 
L 330.21689 -183.917155 
L 330.785926 -185.659035 
L 331.299218 -187.400915 
L 331.754387 -189.142795 
L 332.151416 -190.884675 
L 332.492334 -192.626555 
L 332.780872 -194.368435 
L 333.022127 -196.110315 
L 333.222271 -197.852195 
L 333.388286 -199.594075 
L 333.527699 -201.335955 
L 333.648315 -203.077836 
L 333.757903 -204.819716 
L 333.863851 -206.561596 
L 333.972795 -208.303476 
L 334.090259 -210.045356 
L 334.220333 -211.787236 
L 334.365451 -213.529116 
L 334.52629 -215.270996 
L 334.701812 -217.012876 
L 334.889457 -218.754756 
L 335.085454 -220.496636 
L 335.285235 -222.238516 
L 335.483878 -223.980396 
L 335.676551 -225.722276 
L 335.858901 -227.464156 
L 336.027354 -229.206037 
L 336.179304 -230.947917 
L 336.313189 -232.689797 
L 336.428458 -234.431677 
L 336.525461 -236.173557 
L 336.605272 -237.915437 
L 336.669489 -239.657317 
L 336.858438 -239.657317 
L 336.858438 -239.657317 
L 336.858438 -237.915437 
L 336.858438 -236.173557 
L 336.858438 -234.431677 
L 336.858438 -232.689797 
L 336.858438 -230.947917 
L 336.858438 -229.206037 
L 336.858438 -227.464156 
L 336.858438 -225.722276 
L 336.858438 -223.980396 
L 336.858438 -222.238516 
L 336.858438 -220.496636 
L 336.858438 -218.754756 
L 336.858438 -217.012876 
L 336.858438 -215.270996 
L 336.858438 -213.529116 
L 336.858438 -211.787236 
L 336.858438 -210.045356 
L 336.858438 -208.303476 
L 336.858438 -206.561596 
L 336.858438 -204.819716 
L 336.858438 -203.077836 
L 336.858438 -201.335955 
L 336.858438 -199.594075 
L 336.858438 -197.852195 
L 336.858438 -196.110315 
L 336.858438 -194.368435 
L 336.858438 -192.626555 
L 336.858438 -190.884675 
L 336.858438 -189.142795 
L 336.858438 -187.400915 
L 336.858438 -185.659035 
L 336.858438 -183.917155 
L 336.858438 -182.175275 
L 336.858438 -180.433395 
L 336.858438 -178.691515 
L 336.858438 -176.949634 
L 336.858438 -175.207754 
L 336.858438 -173.465874 
L 336.858438 -171.723994 
L 336.858438 -169.982114 
L 336.858438 -168.240234 
L 336.858438 -166.498354 
L 336.858438 -164.756474 
L 336.858438 -163.014594 
L 336.858438 -161.272714 
L 336.858438 -159.530834 
L 336.858438 -157.788954 
L 336.858438 -156.047074 
L 336.858438 -154.305194 
L 336.858438 -152.563314 
L 336.858438 -150.821433 
L 336.858438 -149.079553 
L 336.858438 -147.337673 
L 336.858438 -145.595793 
L 336.858438 -143.853913 
L 336.858438 -142.112033 
L 336.858438 -140.370153 
L 336.858438 -138.628273 
L 336.858438 -136.886393 
L 336.858438 -135.144513 
L 336.858438 -133.402633 
L 336.858438 -131.660753 
L 336.858438 -129.918873 
L 336.858438 -128.176993 
L 336.858438 -126.435113 
L 336.858438 -124.693232 
L 336.858438 -122.951352 
L 336.858438 -121.209472 
L 336.858438 -119.467592 
L 336.858438 -117.725712 
L 336.858438 -115.983832 
L 336.858438 -114.241952 
L 336.858438 -112.500072 
L 336.858438 -110.758192 
L 336.858438 -109.016312 
L 336.858438 -107.274432 
L 336.858438 -105.532552 
L 336.858438 -103.790672 
L 336.858438 -102.048792 
L 336.858438 -100.306912 
L 336.858438 -98.565031 
L 336.858438 -96.823151 
L 336.858438 -95.081271 
L 336.858438 -93.339391 
L 336.858438 -91.597511 
L 336.858438 -89.855631 
L 336.858438 -88.113751 
L 336.858438 -86.371871 
L 336.858438 -84.629991 
L 336.858438 -82.888111 
L 336.858438 -81.146231 
L 336.858438 -79.404351 
L 336.858438 -77.662471 
L 336.858438 -75.920591 
L 336.858438 -74.17871 
L 336.858438 -72.43683 
L 336.858438 -70.69495 
L 336.858438 -68.95307 
L 336.858438 -67.21119 
z
" id="m0e23cc4369" style="stroke:#4c4c4c;stroke-width:1.5;"/>
    </defs>
    <g clip-path="url(#pbce9cc4cd9)">
     <use style="fill:#5875a4;stroke:#4c4c4c;stroke-width:1.5;" x="0" xlink:href="#m0e23cc4369" y="266.514844"/>
    </g>
   </g>
   <g id="PolyCollection_8">
    <defs>
     <path d="M 338.096478 -72.228027 
L 336.858438 -72.228027 
L 336.858438 -73.546589 
L 336.858438 -74.865152 
L 336.858438 -76.183714 
L 336.858438 -77.502277 
L 336.858438 -78.820839 
L 336.858438 -80.139401 
L 336.858438 -81.457964 
L 336.858438 -82.776526 
L 336.858438 -84.095089 
L 336.858438 -85.413651 
L 336.858438 -86.732214 
L 336.858438 -88.050776 
L 336.858438 -89.369339 
L 336.858438 -90.687901 
L 336.858438 -92.006463 
L 336.858438 -93.325026 
L 336.858438 -94.643588 
L 336.858438 -95.962151 
L 336.858438 -97.280713 
L 336.858438 -98.599276 
L 336.858438 -99.917838 
L 336.858438 -101.236401 
L 336.858438 -102.554963 
L 336.858438 -103.873525 
L 336.858438 -105.192088 
L 336.858438 -106.51065 
L 336.858438 -107.829213 
L 336.858438 -109.147775 
L 336.858438 -110.466338 
L 336.858438 -111.7849 
L 336.858438 -113.103462 
L 336.858438 -114.422025 
L 336.858438 -115.740587 
L 336.858438 -117.05915 
L 336.858438 -118.377712 
L 336.858438 -119.696275 
L 336.858438 -121.014837 
L 336.858438 -122.3334 
L 336.858438 -123.651962 
L 336.858438 -124.970524 
L 336.858438 -126.289087 
L 336.858438 -127.607649 
L 336.858438 -128.926212 
L 336.858438 -130.244774 
L 336.858438 -131.563337 
L 336.858438 -132.881899 
L 336.858438 -134.200462 
L 336.858438 -135.519024 
L 336.858438 -136.837586 
L 336.858438 -138.156149 
L 336.858438 -139.474711 
L 336.858438 -140.793274 
L 336.858438 -142.111836 
L 336.858438 -143.430399 
L 336.858438 -144.748961 
L 336.858438 -146.067524 
L 336.858438 -147.386086 
L 336.858438 -148.704648 
L 336.858438 -150.023211 
L 336.858438 -151.341773 
L 336.858438 -152.660336 
L 336.858438 -153.978898 
L 336.858438 -155.297461 
L 336.858438 -156.616023 
L 336.858438 -157.934585 
L 336.858438 -159.253148 
L 336.858438 -160.57171 
L 336.858438 -161.890273 
L 336.858438 -163.208835 
L 336.858438 -164.527398 
L 336.858438 -165.84596 
L 336.858438 -167.164523 
L 336.858438 -168.483085 
L 336.858438 -169.801647 
L 336.858438 -171.12021 
L 336.858438 -172.438772 
L 336.858438 -173.757335 
L 336.858438 -175.075897 
L 336.858438 -176.39446 
L 336.858438 -177.713022 
L 336.858438 -179.031585 
L 336.858438 -180.350147 
L 336.858438 -181.668709 
L 336.858438 -182.987272 
L 336.858438 -184.305834 
L 336.858438 -185.624397 
L 336.858438 -186.942959 
L 336.858438 -188.261522 
L 336.858438 -189.580084 
L 336.858438 -190.898646 
L 336.858438 -192.217209 
L 336.858438 -193.535771 
L 336.858438 -194.854334 
L 336.858438 -196.172896 
L 336.858438 -197.491459 
L 336.858438 -198.810021 
L 336.858438 -200.128584 
L 336.858438 -201.447146 
L 336.858438 -202.765708 
L 337.725367 -202.765708 
L 337.725367 -202.765708 
L 337.918725 -201.447146 
L 338.143016 -200.128584 
L 338.400206 -198.810021 
L 338.691711 -197.491459 
L 339.018253 -196.172896 
L 339.379735 -194.854334 
L 339.775137 -193.535771 
L 340.202451 -192.217209 
L 340.658659 -190.898646 
L 341.139768 -189.580084 
L 341.640901 -188.261522 
L 342.156444 -186.942959 
L 342.680259 -185.624397 
L 343.205936 -184.305834 
L 343.727082 -182.987272 
L 344.237633 -181.668709 
L 344.732164 -180.350147 
L 345.206176 -179.031585 
L 345.656345 -177.713022 
L 346.080711 -176.39446 
L 346.478786 -175.075897 
L 346.851588 -173.757335 
L 347.201576 -172.438772 
L 347.532502 -171.12021 
L 347.849183 -169.801647 
L 348.157221 -168.483085 
L 348.462668 -167.164523 
L 348.771689 -165.84596 
L 349.090222 -164.527398 
L 349.423683 -163.208835 
L 349.776723 -161.890273 
L 350.153064 -160.57171 
L 350.555418 -159.253148 
L 350.985505 -157.934585 
L 351.444149 -156.616023 
L 351.931454 -155.297461 
L 352.447032 -153.978898 
L 352.990264 -152.660336 
L 353.560552 -151.341773 
L 354.157544 -150.023211 
L 354.781299 -148.704648 
L 355.432363 -147.386086 
L 356.111743 -146.067524 
L 356.820771 -144.748961 
L 357.560855 -143.430399 
L 358.333149 -142.111836 
L 359.138138 -140.793274 
L 359.975203 -139.474711 
L 360.842187 -138.156149 
L 361.735011 -136.837586 
L 362.647383 -135.519024 
L 363.570637 -134.200462 
L 364.493725 -132.881899 
L 365.403384 -131.563337 
L 366.284468 -130.244774 
L 367.120444 -128.926212 
L 367.894007 -127.607649 
L 368.587791 -126.289087 
L 369.185111 -124.970524 
L 369.670692 -123.651962 
L 370.031328 -122.3334 
L 370.256433 -121.014837 
L 370.338437 -119.696275 
L 370.273012 -118.377712 
L 370.059112 -117.05915 
L 369.69885 -115.740587 
L 369.197213 -114.422025 
L 368.561663 -113.103462 
L 367.801662 -111.7849 
L 366.928152 -110.466338 
L 365.953054 -109.147775 
L 364.888808 -107.829213 
L 363.747976 -106.51065 
L 362.542953 -105.192088 
L 361.285761 -103.873525 
L 359.98794 -102.554963 
L 358.660517 -101.236401 
L 357.31403 -99.917838 
L 355.958591 -98.599276 
L 354.603949 -97.280713 
L 353.259541 -95.962151 
L 351.93452 -94.643588 
L 350.637728 -93.325026 
L 349.377631 -92.006463 
L 348.162218 -90.687901 
L 346.998856 -89.369339 
L 345.894135 -88.050776 
L 344.853712 -86.732214 
L 343.882163 -85.413651 
L 342.982872 -84.095089 
L 342.157956 -82.776526 
L 341.408241 -81.457964 
L 340.733285 -80.139401 
L 340.131458 -78.820839 
L 339.600058 -77.502277 
L 339.135468 -76.183714 
L 338.733333 -74.865152 
L 338.388753 -73.546589 
L 338.096478 -72.228027 
z
" id="m1ff0386098" style="stroke:#4c4c4c;stroke-width:1.5;"/>
    </defs>
    <g clip-path="url(#pbce9cc4cd9)">
     <use style="fill:#cc8963;stroke:#4c4c4c;stroke-width:1.5;" x="0" xlink:href="#m1ff0386098" y="266.514844"/>
    </g>
   </g>
   <g id="patch_3">
    <path clip-path="url(#pbce9cc4cd9)" d="M 85.758438 196.721682 
L 85.758438 196.721682 
L 85.758438 196.721682 
L 85.758438 196.721682 
z
" style="fill:#5875a4;stroke:#4c4c4c;stroke-linejoin:miter;stroke-width:0.75;"/>
   </g>
   <g id="patch_4">
    <path clip-path="url(#pbce9cc4cd9)" d="M 85.758438 196.721682 
L 85.758438 196.721682 
L 85.758438 196.721682 
L 85.758438 196.721682 
z
" style="fill:#cc8963;stroke:#4c4c4c;stroke-linejoin:miter;stroke-width:0.75;"/>
   </g>
   <g id="line2d_12">
    <path clip-path="url(#pbce9cc4cd9)" d="M 85.758438 174.053165 
L 85.758438 106.772042 
" style="fill:none;stroke:#4c4c4c;stroke-linecap:round;stroke-width:1.5;"/>
   </g>
   <g id="line2d_13">
    <path clip-path="url(#pbce9cc4cd9)" d="M 85.758438 159.164689 
L 85.758438 135.884937 
" style="fill:none;stroke:#4c4c4c;stroke-linecap:round;stroke-width:4.5;"/>
   </g>
   <g id="line2d_14">
    <path clip-path="url(#pbce9cc4cd9)" d="M 169.458438 179.365627 
L 169.458438 109.27735 
" style="fill:none;stroke:#4c4c4c;stroke-linecap:round;stroke-width:1.5;"/>
   </g>
   <g id="line2d_15">
    <path clip-path="url(#pbce9cc4cd9)" d="M 169.458438 160.213598 
L 169.458438 131.070518 
" style="fill:none;stroke:#4c4c4c;stroke-linecap:round;stroke-width:4.5;"/>
   </g>
   <g id="line2d_16">
    <path clip-path="url(#pbce9cc4cd9)" d="M 253.158438 187.455058 
L 253.158438 77.734607 
" style="fill:none;stroke:#4c4c4c;stroke-linecap:round;stroke-width:1.5;"/>
   </g>
   <g id="line2d_17">
    <path clip-path="url(#pbce9cc4cd9)" d="M 253.158438 154.750214 
L 253.158438 122.04537 
" style="fill:none;stroke:#4c4c4c;stroke-linecap:round;stroke-width:4.5;"/>
   </g>
   <g id="line2d_18">
    <path clip-path="url(#pbce9cc4cd9)" d="M 336.858438 174.837961 
L 336.858438 74.323765 
" style="fill:none;stroke:#4c4c4c;stroke-linecap:round;stroke-width:1.5;"/>
   </g>
   <g id="line2d_19">
    <path clip-path="url(#pbce9cc4cd9)" d="M 336.858438 151.482748 
L 336.858438 119.457054 
" style="fill:none;stroke:#4c4c4c;stroke-linecap:round;stroke-width:4.5;"/>
   </g>
   <g id="patch_5">
    <path d="M 43.908438 224.64 
L 43.908438 7.2 
" style="fill:none;stroke:#262626;stroke-linecap:square;stroke-linejoin:miter;stroke-width:1.25;"/>
   </g>
   <g id="patch_6">
    <path d="M 378.708438 224.64 
L 378.708438 7.2 
" style="fill:none;stroke:#262626;stroke-linecap:square;stroke-linejoin:miter;stroke-width:1.25;"/>
   </g>
   <g id="patch_7">
    <path d="M 43.908438 224.64 
L 378.708438 224.64 
" style="fill:none;stroke:#262626;stroke-linecap:square;stroke-linejoin:miter;stroke-width:1.25;"/>
   </g>
   <g id="patch_8">
    <path d="M 43.908438 7.2 
L 378.708438 7.2 
" style="fill:none;stroke:#262626;stroke-linecap:square;stroke-linejoin:miter;stroke-width:1.25;"/>
   </g>
   <g id="PathCollection_1">
    <defs>
     <path d="M 0 1.5 
C 0.397805 1.5 0.77937 1.341951 1.06066 1.06066 
C 1.341951 0.77937 1.5 0.397805 1.5 0 
C 1.5 -0.397805 1.341951 -0.77937 1.06066 -1.06066 
C 0.77937 -1.341951 0.397805 -1.5 0 -1.5 
C -0.397805 -1.5 -0.77937 -1.341951 -1.06066 -1.06066 
C -1.341951 -0.77937 -1.5 -0.397805 -1.5 0 
C -1.5 0.397805 -1.341951 0.77937 -1.06066 1.06066 
C -0.77937 1.341951 -0.397805 1.5 0 1.5 
z
" id="m8457fd790a" style="stroke:#4c4c4c;"/>
    </defs>
    <g clip-path="url(#pbce9cc4cd9)">
     <use style="fill:#ffffff;stroke:#4c4c4c;" x="85.758438" xlink:href="#m8457fd790a" y="147.822884"/>
    </g>
   </g>
   <g id="PathCollection_2">
    <g clip-path="url(#pbce9cc4cd9)">
     <use style="fill:#ffffff;stroke:#4c4c4c;" x="169.458438" xlink:href="#m8457fd790a" y="150.298008"/>
    </g>
   </g>
   <g id="PathCollection_3">
    <g clip-path="url(#pbce9cc4cd9)">
     <use style="fill:#ffffff;stroke:#4c4c4c;" x="253.158438" xlink:href="#m8457fd790a" y="141.665258"/>
    </g>
   </g>
   <g id="PathCollection_4">
    <g clip-path="url(#pbce9cc4cd9)">
     <use style="fill:#ffffff;stroke:#4c4c4c;" x="336.858438" xlink:href="#m8457fd790a" y="137.46962"/>
    </g>
   </g>
   <g id="legend_1">
    <g id="patch_9">
     <path d="M 299.132031 63.594062 
L 371.008438 63.594062 
Q 373.208438 63.594062 373.208438 61.394062 
L 373.208438 14.9 
Q 373.208438 12.7 371.008438 12.7 
L 299.132031 12.7 
Q 296.932031 12.7 296.932031 14.9 
L 296.932031 61.394062 
Q 296.932031 63.594062 299.132031 63.594062 
z
" style="fill:#ffffff;opacity:0.8;stroke:#cccccc;stroke-linejoin:miter;"/>
    </g>
    <g id="text_14">
     <!-- sex -->
     <g style="fill:#262626;" transform="translate(325.733672 25.689375)scale(0.12 -0.12)">
      <defs>
       <path d="M 3.078125 15.484375 
L 11.765625 16.84375 
Q 12.5 11.625 15.84375 8.84375 
Q 19.1875 6.0625 25.203125 6.0625 
Q 31.25 6.0625 34.171875 8.515625 
Q 37.109375 10.984375 37.109375 14.3125 
Q 37.109375 17.28125 34.515625 19 
Q 32.71875 20.171875 25.53125 21.96875 
Q 15.875 24.421875 12.140625 26.203125 
Q 8.40625 27.984375 6.46875 31.125 
Q 4.546875 34.28125 4.546875 38.09375 
Q 4.546875 41.546875 6.125 44.5 
Q 7.71875 47.46875 10.453125 49.421875 
Q 12.5 50.921875 16.03125 51.96875 
Q 19.578125 53.03125 23.640625 53.03125 
Q 29.734375 53.03125 34.34375 51.265625 
Q 38.96875 49.515625 41.15625 46.5 
Q 43.359375 43.5 44.1875 38.484375 
L 35.59375 37.3125 
Q 35.015625 41.3125 32.203125 43.546875 
Q 29.390625 45.796875 24.265625 45.796875 
Q 18.21875 45.796875 15.625 43.796875 
Q 13.03125 41.796875 13.03125 39.109375 
Q 13.03125 37.40625 14.109375 36.03125 
Q 15.1875 34.625 17.484375 33.6875 
Q 18.796875 33.203125 25.25 31.453125 
Q 34.578125 28.953125 38.25 27.359375 
Q 41.9375 25.78125 44.03125 22.75 
Q 46.140625 19.734375 46.140625 15.234375 
Q 46.140625 10.84375 43.578125 6.953125 
Q 41.015625 3.078125 36.171875 0.953125 
Q 31.34375 -1.171875 25.25 -1.171875 
Q 15.140625 -1.171875 9.84375 3.03125 
Q 4.546875 7.234375 3.078125 15.484375 
z
" id="ArialMT-115"/>
       <path d="M 42.09375 16.703125 
L 51.171875 15.578125 
Q 49.03125 7.625 43.21875 3.21875 
Q 37.40625 -1.171875 28.375 -1.171875 
Q 17 -1.171875 10.328125 5.828125 
Q 3.65625 12.84375 3.65625 25.484375 
Q 3.65625 38.578125 10.390625 45.796875 
Q 17.140625 53.03125 27.875 53.03125 
Q 38.28125 53.03125 44.875 45.953125 
Q 51.46875 38.875 51.46875 26.03125 
Q 51.46875 25.25 51.421875 23.6875 
L 12.75 23.6875 
Q 13.234375 15.140625 17.578125 10.59375 
Q 21.921875 6.0625 28.421875 6.0625 
Q 33.25 6.0625 36.671875 8.59375 
Q 40.09375 11.140625 42.09375 16.703125 
z
M 13.234375 30.90625 
L 42.1875 30.90625 
Q 41.609375 37.453125 38.875 40.71875 
Q 34.671875 45.796875 27.984375 45.796875 
Q 21.921875 45.796875 17.796875 41.75 
Q 13.671875 37.703125 13.234375 30.90625 
z
" id="ArialMT-101"/>
       <path d="M 0.734375 0 
L 19.671875 26.953125 
L 2.15625 51.859375 
L 13.140625 51.859375 
L 21.09375 39.703125 
Q 23.34375 36.234375 24.703125 33.890625 
Q 26.859375 37.109375 28.65625 39.59375 
L 37.40625 51.859375 
L 47.90625 51.859375 
L 29.984375 27.4375 
L 49.265625 0 
L 38.484375 0 
L 27.828125 16.109375 
L 25 20.453125 
L 11.375 0 
z
" id="ArialMT-120"/>
      </defs>
      <use xlink:href="#ArialMT-115"/>
      <use x="50" xlink:href="#ArialMT-101"/>
      <use x="105.615234" xlink:href="#ArialMT-120"/>
     </g>
    </g>
    <g id="patch_10">
     <path d="M 301.332031 41.447969 
L 323.332031 41.447969 
L 323.332031 33.747969 
L 301.332031 33.747969 
z
" style="fill:#5875a4;stroke:#4c4c4c;stroke-linejoin:miter;stroke-width:0.75;"/>
    </g>
    <g id="text_15">
     <!-- Male -->
     <g style="fill:#262626;" transform="translate(332.132031 41.447969)scale(0.11 -0.11)">
      <defs>
       <path d="M 7.421875 0 
L 7.421875 71.578125 
L 21.6875 71.578125 
L 38.625 20.90625 
Q 40.96875 13.8125 42.046875 10.296875 
Q 43.265625 14.203125 45.84375 21.78125 
L 62.984375 71.578125 
L 75.734375 71.578125 
L 75.734375 0 
L 66.609375 0 
L 66.609375 59.90625 
L 45.796875 0 
L 37.25 0 
L 16.546875 60.9375 
L 16.546875 0 
z
" id="ArialMT-77"/>
      </defs>
      <use xlink:href="#ArialMT-77"/>
      <use x="83.300781" xlink:href="#ArialMT-97"/>
      <use x="138.916016" xlink:href="#ArialMT-108"/>
      <use x="161.132812" xlink:href="#ArialMT-101"/>
     </g>
    </g>
    <g id="patch_11">
     <path d="M 301.332031 57.007812 
L 323.332031 57.007812 
L 323.332031 49.307812 
L 301.332031 49.307812 
z
" style="fill:#cc8963;stroke:#4c4c4c;stroke-linejoin:miter;stroke-width:0.75;"/>
    </g>
    <g id="text_16">
     <!-- Female -->
     <g style="fill:#262626;" transform="translate(332.132031 57.007812)scale(0.11 -0.11)">
      <defs>
       <path d="M 6.59375 0 
L 6.59375 51.859375 
L 14.453125 51.859375 
L 14.453125 44.578125 
Q 16.890625 48.390625 20.9375 50.703125 
Q 25 53.03125 30.171875 53.03125 
Q 35.9375 53.03125 39.625 50.640625 
Q 43.3125 48.25 44.828125 43.953125 
Q 50.984375 53.03125 60.84375 53.03125 
Q 68.5625 53.03125 72.703125 48.75 
Q 76.859375 44.484375 76.859375 35.59375 
L 76.859375 0 
L 68.109375 0 
L 68.109375 32.671875 
Q 68.109375 37.9375 67.25 40.25 
Q 66.40625 42.578125 64.15625 43.984375 
Q 61.921875 45.40625 58.890625 45.40625 
Q 53.421875 45.40625 49.796875 41.765625 
Q 46.1875 38.140625 46.1875 30.125 
L 46.1875 0 
L 37.40625 0 
L 37.40625 33.6875 
Q 37.40625 39.546875 35.25 42.46875 
Q 33.109375 45.40625 28.21875 45.40625 
Q 24.515625 45.40625 21.359375 43.453125 
Q 18.21875 41.5 16.796875 37.734375 
Q 15.375 33.984375 15.375 26.90625 
L 15.375 0 
z
" id="ArialMT-109"/>
      </defs>
      <use xlink:href="#ArialMT-70"/>
      <use x="61.083984" xlink:href="#ArialMT-101"/>
      <use x="116.699219" xlink:href="#ArialMT-109"/>
      <use x="200" xlink:href="#ArialMT-97"/>
      <use x="255.615234" xlink:href="#ArialMT-108"/>
      <use x="277.832031" xlink:href="#ArialMT-101"/>
     </g>
    </g>
   </g>
  </g>
 </g>
 <defs>
  <clipPath id="pbce9cc4cd9">
   <rect height="217.44" width="334.8" x="43.908438" y="7.2"/>
  </clipPath>
 </defs>
</svg>
