<?xml version="1.0" encoding="utf-8" standalone="no"?>
<!DOCTYPE svg PUBLIC "-//W3C//DTD SVG 1.1//EN"
  "http://www.w3.org/Graphics/SVG/1.1/DTD/svg11.dtd">
<!-- Created with matplotlib (https://matplotlib.org/) -->
<svg height="266.514844pt" version="1.1" viewBox="0 0 385.908437 266.514844" width="385.908437pt" xmlns="http://www.w3.org/2000/svg" xmlns:xlink="http://www.w3.org/1999/xlink">
 <metadata>
  <rdf:RDF xmlns:cc="http://creativecommons.org/ns#" xmlns:dc="http://purl.org/dc/elements/1.1/" xmlns:rdf="http://www.w3.org/1999/02/22-rdf-syntax-ns#">
   <cc:Work>
    <dc:type rdf:resource="http://purl.org/dc/dcmitype/StillImage"/>
    <dc:date>2022-01-31T22:21:31.799447</dc:date>
    <dc:format>image/svg+xml</dc:format>
    <dc:creator>
     <cc:Agent>
      <dc:title>Matplotlib v3.3.4, https://matplotlib.org/</dc:title>
     </cc:Agent>
    </dc:creator>
   </cc:Work>
  </rdf:RDF>
 </metadata>
 <defs>
  <style type="text/css">*{stroke-linecap:butt;stroke-linejoin:round;}</style>
 </defs>
 <g id="figure_1">
  <g id="patch_1">
   <path d="M 0 266.514844 
L 385.908437 266.514844 
L 385.908437 0 
L 0 0 
z
" style="fill:#ffffff;"/>
  </g>
  <g id="axes_1">
   <g id="patch_2">
    <path d="M 43.908438 224.64 
L 378.708438 224.64 
L 378.708438 7.2 
L 43.908438 7.2 
z
" style="fill:#ffffff;"/>
   </g>
   <g id="matplotlib.axis_1">
    <g id="xtick_1">
     <g id="line2d_1">
      <defs>
       <path d="M 0 0 
L 0 6 
" id="m3d8e16a532" style="stroke:#262626;stroke-width:1.25;"/>
      </defs>
      <g>
       <use style="fill:#262626;stroke:#262626;stroke-width:1.25;" x="85.758438" xlink:href="#m3d8e16a532" y="224.64"/>
      </g>
     </g>
     <g id="text_1">
      <!-- Thur -->
      <g style="fill:#262626;" transform="translate(74.450781 242.013594)scale(0.11 -0.11)">
       <defs>
        <path d="M 25.921875 0 
L 25.921875 63.140625 
L 2.34375 63.140625 
L 2.34375 71.578125 
L 59.078125 71.578125 
L 59.078125 63.140625 
L 35.40625 63.140625 
L 35.40625 0 
z
" id="ArialMT-84"/>
        <path d="M 6.59375 0 
L 6.59375 71.578125 
L 15.375 71.578125 
L 15.375 45.90625 
Q 21.53125 53.03125 30.90625 53.03125 
Q 36.671875 53.03125 40.921875 50.75 
Q 45.171875 48.484375 47 44.484375 
Q 48.828125 40.484375 48.828125 32.859375 
L 48.828125 0 
L 40.046875 0 
L 40.046875 32.859375 
Q 40.046875 39.453125 37.1875 42.453125 
Q 34.328125 45.453125 29.109375 45.453125 
Q 25.203125 45.453125 21.75 43.421875 
Q 18.3125 41.40625 16.84375 37.9375 
Q 15.375 34.46875 15.375 28.375 
L 15.375 0 
z
" id="ArialMT-104"/>
        <path d="M 40.578125 0 
L 40.578125 7.625 
Q 34.515625 -1.171875 24.125 -1.171875 
Q 19.53125 -1.171875 15.546875 0.578125 
Q 11.578125 2.34375 9.640625 5 
Q 7.71875 7.671875 6.9375 11.53125 
Q 6.390625 14.109375 6.390625 19.734375 
L 6.390625 51.859375 
L 15.1875 51.859375 
L 15.1875 23.09375 
Q 15.1875 16.21875 15.71875 13.8125 
Q 16.546875 10.359375 19.234375 8.375 
Q 21.921875 6.390625 25.875 6.390625 
Q 29.828125 6.390625 33.296875 8.421875 
Q 36.765625 10.453125 38.203125 13.9375 
Q 39.65625 17.4375 39.65625 24.078125 
L 39.65625 51.859375 
L 48.4375 51.859375 
L 48.4375 0 
z
" id="ArialMT-117"/>
        <path d="M 6.5 0 
L 6.5 51.859375 
L 14.40625 51.859375 
L 14.40625 44 
Q 17.4375 49.515625 20 51.265625 
Q 22.5625 53.03125 25.640625 53.03125 
Q 30.078125 53.03125 34.671875 50.203125 
L 31.640625 42.046875 
Q 28.421875 43.953125 25.203125 43.953125 
Q 22.3125 43.953125 20.015625 42.21875 
Q 17.71875 40.484375 16.75 37.40625 
Q 15.28125 32.71875 15.28125 27.15625 
L 15.28125 0 
z
" id="ArialMT-114"/>
       </defs>
       <use xlink:href="#ArialMT-84"/>
       <use x="61.083984" xlink:href="#ArialMT-104"/>
       <use x="116.699219" xlink:href="#ArialMT-117"/>
       <use x="172.314453" xlink:href="#ArialMT-114"/>
      </g>
     </g>
    </g>
    <g id="xtick_2">
     <g id="line2d_2">
      <g>
       <use style="fill:#262626;stroke:#262626;stroke-width:1.25;" x="169.458438" xlink:href="#m3d8e16a532" y="224.64"/>
      </g>
     </g>
     <g id="text_2">
      <!-- Fri -->
      <g style="fill:#262626;" transform="translate(163.045781 242.013594)scale(0.11 -0.11)">
       <defs>
        <path d="M 8.203125 0 
L 8.203125 71.578125 
L 56.5 71.578125 
L 56.5 63.140625 
L 17.671875 63.140625 
L 17.671875 40.96875 
L 51.265625 40.96875 
L 51.265625 32.515625 
L 17.671875 32.515625 
L 17.671875 0 
z
" id="ArialMT-70"/>
        <path d="M 6.640625 61.46875 
L 6.640625 71.578125 
L 15.4375 71.578125 
L 15.4375 61.46875 
z
M 6.640625 0 
L 6.640625 51.859375 
L 15.4375 51.859375 
L 15.4375 0 
z
" id="ArialMT-105"/>
       </defs>
       <use xlink:href="#ArialMT-70"/>
       <use x="61.083984" xlink:href="#ArialMT-114"/>
       <use x="94.384766" xlink:href="#ArialMT-105"/>
      </g>
     </g>
    </g>
    <g id="xtick_3">
     <g id="line2d_3">
      <g>
       <use style="fill:#262626;stroke:#262626;stroke-width:1.25;" x="253.158438" xlink:href="#m3d8e16a532" y="224.64"/>
      </g>
     </g>
     <g id="text_3">
      <!-- Sat -->
      <g style="fill:#262626;" transform="translate(244.903281 242.013594)scale(0.11 -0.11)">
       <defs>
        <path d="M 4.5 23 
L 13.421875 23.78125 
Q 14.0625 18.40625 16.375 14.96875 
Q 18.703125 11.53125 23.578125 9.40625 
Q 28.46875 7.28125 34.578125 7.28125 
Q 39.984375 7.28125 44.140625 8.890625 
Q 48.296875 10.5 50.3125 13.296875 
Q 52.34375 16.109375 52.34375 19.4375 
Q 52.34375 22.796875 50.390625 25.3125 
Q 48.4375 27.828125 43.953125 29.546875 
Q 41.0625 30.671875 31.203125 33.03125 
Q 21.34375 35.40625 17.390625 37.5 
Q 12.25 40.1875 9.734375 44.15625 
Q 7.234375 48.140625 7.234375 53.078125 
Q 7.234375 58.5 10.296875 63.203125 
Q 13.375 67.921875 19.28125 70.359375 
Q 25.203125 72.796875 32.421875 72.796875 
Q 40.375 72.796875 46.453125 70.234375 
Q 52.546875 67.671875 55.8125 62.6875 
Q 59.078125 57.71875 59.328125 51.421875 
L 50.25 50.734375 
Q 49.515625 57.515625 45.28125 60.984375 
Q 41.0625 64.453125 32.8125 64.453125 
Q 24.21875 64.453125 20.28125 61.296875 
Q 16.359375 58.15625 16.359375 53.71875 
Q 16.359375 49.859375 19.140625 47.359375 
Q 21.875 44.875 33.421875 42.265625 
Q 44.96875 39.65625 49.265625 37.703125 
Q 55.515625 34.8125 58.484375 30.390625 
Q 61.46875 25.984375 61.46875 20.21875 
Q 61.46875 14.5 58.203125 9.4375 
Q 54.9375 4.390625 48.796875 1.578125 
Q 42.671875 -1.21875 35.015625 -1.21875 
Q 25.296875 -1.21875 18.71875 1.609375 
Q 12.15625 4.4375 8.421875 10.125 
Q 4.6875 15.828125 4.5 23 
z
" id="ArialMT-83"/>
        <path d="M 40.4375 6.390625 
Q 35.546875 2.25 31.03125 0.53125 
Q 26.515625 -1.171875 21.34375 -1.171875 
Q 12.796875 -1.171875 8.203125 3 
Q 3.609375 7.171875 3.609375 13.671875 
Q 3.609375 17.484375 5.34375 20.625 
Q 7.078125 23.78125 9.890625 25.6875 
Q 12.703125 27.59375 16.21875 28.5625 
Q 18.796875 29.25 24.03125 29.890625 
Q 34.671875 31.15625 39.703125 32.90625 
Q 39.75 34.71875 39.75 35.203125 
Q 39.75 40.578125 37.25 42.78125 
Q 33.890625 45.75 27.25 45.75 
Q 21.046875 45.75 18.09375 43.578125 
Q 15.140625 41.40625 13.71875 35.890625 
L 5.125 37.0625 
Q 6.296875 42.578125 8.984375 45.96875 
Q 11.671875 49.359375 16.75 51.1875 
Q 21.828125 53.03125 28.515625 53.03125 
Q 35.15625 53.03125 39.296875 51.46875 
Q 43.453125 49.90625 45.40625 47.53125 
Q 47.359375 45.171875 48.140625 41.546875 
Q 48.578125 39.3125 48.578125 33.453125 
L 48.578125 21.734375 
Q 48.578125 9.46875 49.140625 6.21875 
Q 49.703125 2.984375 51.375 0 
L 42.1875 0 
Q 40.828125 2.734375 40.4375 6.390625 
z
M 39.703125 26.03125 
Q 34.90625 24.078125 25.34375 22.703125 
Q 19.921875 21.921875 17.671875 20.9375 
Q 15.4375 19.96875 14.203125 18.09375 
Q 12.984375 16.21875 12.984375 13.921875 
Q 12.984375 10.40625 15.640625 8.0625 
Q 18.3125 5.71875 23.4375 5.71875 
Q 28.515625 5.71875 32.46875 7.9375 
Q 36.421875 10.15625 38.28125 14.015625 
Q 39.703125 17 39.703125 22.796875 
z
" id="ArialMT-97"/>
        <path d="M 25.78125 7.859375 
L 27.046875 0.09375 
Q 23.34375 -0.6875 20.40625 -0.6875 
Q 15.625 -0.6875 12.984375 0.828125 
Q 10.359375 2.34375 9.28125 4.8125 
Q 8.203125 7.28125 8.203125 15.1875 
L 8.203125 45.015625 
L 1.765625 45.015625 
L 1.765625 51.859375 
L 8.203125 51.859375 
L 8.203125 64.703125 
L 16.9375 69.96875 
L 16.9375 51.859375 
L 25.78125 51.859375 
L 25.78125 45.015625 
L 16.9375 45.015625 
L 16.9375 14.703125 
Q 16.9375 10.9375 17.40625 9.859375 
Q 17.875 8.796875 18.921875 8.15625 
Q 19.96875 7.515625 21.921875 7.515625 
Q 23.390625 7.515625 25.78125 7.859375 
z
" id="ArialMT-116"/>
       </defs>
       <use xlink:href="#ArialMT-83"/>
       <use x="66.699219" xlink:href="#ArialMT-97"/>
       <use x="122.314453" xlink:href="#ArialMT-116"/>
      </g>
     </g>
    </g>
    <g id="xtick_4">
     <g id="line2d_4">
      <g>
       <use style="fill:#262626;stroke:#262626;stroke-width:1.25;" x="336.858438" xlink:href="#m3d8e16a532" y="224.64"/>
      </g>
     </g>
     <g id="text_4">
      <!-- Sun -->
      <g style="fill:#262626;" transform="translate(327.072734 242.013594)scale(0.11 -0.11)">
       <defs>
        <path d="M 6.59375 0 
L 6.59375 51.859375 
L 14.5 51.859375 
L 14.5 44.484375 
Q 20.21875 53.03125 31 53.03125 
Q 35.6875 53.03125 39.625 51.34375 
Q 43.5625 49.65625 45.515625 46.921875 
Q 47.46875 44.1875 48.25 40.4375 
Q 48.734375 37.984375 48.734375 31.890625 
L 48.734375 0 
L 39.9375 0 
L 39.9375 31.546875 
Q 39.9375 36.921875 38.90625 39.578125 
Q 37.890625 42.234375 35.28125 43.8125 
Q 32.671875 45.40625 29.15625 45.40625 
Q 23.53125 45.40625 19.453125 41.84375 
Q 15.375 38.28125 15.375 28.328125 
L 15.375 0 
z
" id="ArialMT-110"/>
       </defs>
       <use xlink:href="#ArialMT-83"/>
       <use x="66.699219" xlink:href="#ArialMT-117"/>
       <use x="122.314453" xlink:href="#ArialMT-110"/>
      </g>
     </g>
    </g>
    <g id="text_5">
     <!-- day -->
     <g style="fill:#262626;" transform="translate(201.635313 256.789219)scale(0.12 -0.12)">
      <defs>
       <path d="M 40.234375 0 
L 40.234375 6.546875 
Q 35.296875 -1.171875 25.734375 -1.171875 
Q 19.53125 -1.171875 14.328125 2.25 
Q 9.125 5.671875 6.265625 11.796875 
Q 3.421875 17.921875 3.421875 25.875 
Q 3.421875 33.640625 6 39.96875 
Q 8.59375 46.296875 13.765625 49.65625 
Q 18.953125 53.03125 25.34375 53.03125 
Q 30.03125 53.03125 33.6875 51.046875 
Q 37.359375 49.078125 39.65625 45.90625 
L 39.65625 71.578125 
L 48.390625 71.578125 
L 48.390625 0 
z
M 12.453125 25.875 
Q 12.453125 15.921875 16.640625 10.984375 
Q 20.84375 6.0625 26.5625 6.0625 
Q 32.328125 6.0625 36.34375 10.765625 
Q 40.375 15.484375 40.375 25.140625 
Q 40.375 35.796875 36.265625 40.765625 
Q 32.171875 45.75 26.171875 45.75 
Q 20.3125 45.75 16.375 40.96875 
Q 12.453125 36.1875 12.453125 25.875 
z
" id="ArialMT-100"/>
       <path d="M 6.203125 -19.96875 
L 5.21875 -11.71875 
Q 8.109375 -12.5 10.25 -12.5 
Q 13.1875 -12.5 14.9375 -11.515625 
Q 16.703125 -10.546875 17.828125 -8.796875 
Q 18.65625 -7.46875 20.515625 -2.25 
Q 20.75 -1.515625 21.296875 -0.09375 
L 1.609375 51.859375 
L 11.078125 51.859375 
L 21.875 21.828125 
Q 23.96875 16.109375 25.640625 9.8125 
Q 27.15625 15.875 29.25 21.625 
L 40.328125 51.859375 
L 49.125 51.859375 
L 29.390625 -0.875 
Q 26.21875 -9.421875 24.46875 -12.640625 
Q 22.125 -17 19.09375 -19.015625 
Q 16.0625 -21.046875 11.859375 -21.046875 
Q 9.328125 -21.046875 6.203125 -19.96875 
z
" id="ArialMT-121"/>
      </defs>
      <use xlink:href="#ArialMT-100"/>
      <use x="55.615234" xlink:href="#ArialMT-97"/>
      <use x="111.230469" xlink:href="#ArialMT-121"/>
     </g>
    </g>
   </g>
   <g id="matplotlib.axis_2">
    <g id="ytick_1">
     <g id="line2d_5">
      <defs>
       <path d="M 0 0 
L -6 0 
" id="m09aa4ba3ee" style="stroke:#262626;stroke-width:1.25;"/>
      </defs>
      <g>
       <use style="fill:#262626;stroke:#262626;stroke-width:1.25;" x="43.908438" xlink:href="#m09aa4ba3ee" y="196.721682"/>
      </g>
     </g>
     <g id="text_6">
      <!-- 0 -->
      <g style="fill:#262626;" transform="translate(28.291406 200.658479)scale(0.11 -0.11)">
       <defs>
        <path d="M 4.15625 35.296875 
Q 4.15625 48 6.765625 55.734375 
Q 9.375 63.484375 14.515625 67.671875 
Q 19.671875 71.875 27.484375 71.875 
Q 33.25 71.875 37.59375 69.546875 
Q 41.9375 67.234375 44.765625 62.859375 
Q 47.609375 58.5 49.21875 52.21875 
Q 50.828125 45.953125 50.828125 35.296875 
Q 50.828125 22.703125 48.234375 14.96875 
Q 45.65625 7.234375 40.5 3 
Q 35.359375 -1.21875 27.484375 -1.21875 
Q 17.140625 -1.21875 11.234375 6.203125 
Q 4.15625 15.140625 4.15625 35.296875 
z
M 13.1875 35.296875 
Q 13.1875 17.671875 17.3125 11.828125 
Q 21.4375 6 27.484375 6 
Q 33.546875 6 37.671875 11.859375 
Q 41.796875 17.71875 41.796875 35.296875 
Q 41.796875 52.984375 37.671875 58.78125 
Q 33.546875 64.59375 27.390625 64.59375 
Q 21.34375 64.59375 17.71875 59.46875 
Q 13.1875 52.9375 13.1875 35.296875 
z
" id="ArialMT-48"/>
       </defs>
       <use xlink:href="#ArialMT-48"/>
      </g>
     </g>
    </g>
    <g id="ytick_2">
     <g id="line2d_6">
      <g>
       <use style="fill:#262626;stroke:#262626;stroke-width:1.25;" x="43.908438" xlink:href="#m09aa4ba3ee" y="166.537239"/>
      </g>
     </g>
     <g id="text_7">
      <!-- 10 -->
      <g style="fill:#262626;" transform="translate(22.174375 170.474036)scale(0.11 -0.11)">
       <defs>
        <path d="M 37.25 0 
L 28.46875 0 
L 28.46875 56 
Q 25.296875 52.984375 20.140625 49.953125 
Q 14.984375 46.921875 10.890625 45.40625 
L 10.890625 53.90625 
Q 18.265625 57.375 23.78125 62.296875 
Q 29.296875 67.234375 31.59375 71.875 
L 37.25 71.875 
z
" id="ArialMT-49"/>
       </defs>
       <use xlink:href="#ArialMT-49"/>
       <use x="55.615234" xlink:href="#ArialMT-48"/>
      </g>
     </g>
    </g>
    <g id="ytick_3">
     <g id="line2d_7">
      <g>
       <use style="fill:#262626;stroke:#262626;stroke-width:1.25;" x="43.908438" xlink:href="#m09aa4ba3ee" y="136.352796"/>
      </g>
     </g>
     <g id="text_8">
      <!-- 20 -->
      <g style="fill:#262626;" transform="translate(22.174375 140.289593)scale(0.11 -0.11)">
       <defs>
        <path d="M 50.34375 8.453125 
L 50.34375 0 
L 3.03125 0 
Q 2.9375 3.171875 4.046875 6.109375 
Q 5.859375 10.9375 9.828125 15.625 
Q 13.8125 20.3125 21.34375 26.46875 
Q 33.015625 36.03125 37.109375 41.625 
Q 41.21875 47.21875 41.21875 52.203125 
Q 41.21875 57.421875 37.46875 61 
Q 33.734375 64.59375 27.734375 64.59375 
Q 21.390625 64.59375 17.578125 60.78125 
Q 13.765625 56.984375 13.71875 50.25 
L 4.6875 51.171875 
Q 5.609375 61.28125 11.65625 66.578125 
Q 17.71875 71.875 27.9375 71.875 
Q 38.234375 71.875 44.234375 66.15625 
Q 50.25 60.453125 50.25 52 
Q 50.25 47.703125 48.484375 43.546875 
Q 46.734375 39.40625 42.65625 34.8125 
Q 38.578125 30.21875 29.109375 22.21875 
Q 21.1875 15.578125 18.9375 13.203125 
Q 16.703125 10.84375 15.234375 8.453125 
z
" id="ArialMT-50"/>
       </defs>
       <use xlink:href="#ArialMT-50"/>
       <use x="55.615234" xlink:href="#ArialMT-48"/>
      </g>
     </g>
    </g>
    <g id="ytick_4">
     <g id="line2d_8">
      <g>
       <use style="fill:#262626;stroke:#262626;stroke-width:1.25;" x="43.908438" xlink:href="#m09aa4ba3ee" y="106.168353"/>
      </g>
     </g>
     <g id="text_9">
      <!-- 30 -->
      <g style="fill:#262626;" transform="translate(22.174375 110.10515)scale(0.11 -0.11)">
       <defs>
        <path d="M 4.203125 18.890625 
L 12.984375 20.0625 
Q 14.5 12.59375 18.140625 9.296875 
Q 21.78125 6 27 6 
Q 33.203125 6 37.46875 10.296875 
Q 41.75 14.59375 41.75 20.953125 
Q 41.75 27 37.796875 30.921875 
Q 33.84375 34.859375 27.734375 34.859375 
Q 25.25 34.859375 21.53125 33.890625 
L 22.515625 41.609375 
Q 23.390625 41.5 23.921875 41.5 
Q 29.546875 41.5 34.03125 44.421875 
Q 38.53125 47.359375 38.53125 53.46875 
Q 38.53125 58.296875 35.25 61.46875 
Q 31.984375 64.65625 26.8125 64.65625 
Q 21.6875 64.65625 18.265625 61.421875 
Q 14.84375 58.203125 13.875 51.765625 
L 5.078125 53.328125 
Q 6.6875 62.15625 12.390625 67.015625 
Q 18.109375 71.875 26.609375 71.875 
Q 32.46875 71.875 37.390625 69.359375 
Q 42.328125 66.84375 44.9375 62.5 
Q 47.5625 58.15625 47.5625 53.265625 
Q 47.5625 48.640625 45.0625 44.828125 
Q 42.578125 41.015625 37.703125 38.765625 
Q 44.046875 37.3125 47.5625 32.6875 
Q 51.078125 28.078125 51.078125 21.140625 
Q 51.078125 11.765625 44.234375 5.25 
Q 37.40625 -1.265625 26.953125 -1.265625 
Q 17.53125 -1.265625 11.296875 4.34375 
Q 5.078125 9.96875 4.203125 18.890625 
z
" id="ArialMT-51"/>
       </defs>
       <use xlink:href="#ArialMT-51"/>
       <use x="55.615234" xlink:href="#ArialMT-48"/>
      </g>
     </g>
    </g>
    <g id="ytick_5">
     <g id="line2d_9">
      <g>
       <use style="fill:#262626;stroke:#262626;stroke-width:1.25;" x="43.908438" xlink:href="#m09aa4ba3ee" y="75.98391"/>
      </g>
     </g>
     <g id="text_10">
      <!-- 40 -->
      <g style="fill:#262626;" transform="translate(22.174375 79.920707)scale(0.11 -0.11)">
       <defs>
        <path d="M 32.328125 0 
L 32.328125 17.140625 
L 1.265625 17.140625 
L 1.265625 25.203125 
L 33.9375 71.578125 
L 41.109375 71.578125 
L 41.109375 25.203125 
L 50.78125 25.203125 
L 50.78125 17.140625 
L 41.109375 17.140625 
L 41.109375 0 
z
M 32.328125 25.203125 
L 32.328125 57.46875 
L 9.90625 25.203125 
z
" id="ArialMT-52"/>
       </defs>
       <use xlink:href="#ArialMT-52"/>
       <use x="55.615234" xlink:href="#ArialMT-48"/>
      </g>
     </g>
    </g>
    <g id="ytick_6">
     <g id="line2d_10">
      <g>
       <use style="fill:#262626;stroke:#262626;stroke-width:1.25;" x="43.908438" xlink:href="#m09aa4ba3ee" y="45.799467"/>
      </g>
     </g>
     <g id="text_11">
      <!-- 50 -->
      <g style="fill:#262626;" transform="translate(22.174375 49.736263)scale(0.11 -0.11)">
       <defs>
        <path d="M 4.15625 18.75 
L 13.375 19.53125 
Q 14.40625 12.796875 18.140625 9.390625 
Q 21.875 6 27.15625 6 
Q 33.5 6 37.890625 10.78125 
Q 42.28125 15.578125 42.28125 23.484375 
Q 42.28125 31 38.0625 35.34375 
Q 33.84375 39.703125 27 39.703125 
Q 22.75 39.703125 19.328125 37.765625 
Q 15.921875 35.84375 13.96875 32.765625 
L 5.71875 33.84375 
L 12.640625 70.609375 
L 48.25 70.609375 
L 48.25 62.203125 
L 19.671875 62.203125 
L 15.828125 42.96875 
Q 22.265625 47.46875 29.34375 47.46875 
Q 38.71875 47.46875 45.15625 40.96875 
Q 51.609375 34.46875 51.609375 24.265625 
Q 51.609375 14.546875 45.953125 7.46875 
Q 39.0625 -1.21875 27.15625 -1.21875 
Q 17.390625 -1.21875 11.203125 4.25 
Q 5.03125 9.71875 4.15625 18.75 
z
" id="ArialMT-53"/>
       </defs>
       <use xlink:href="#ArialMT-53"/>
       <use x="55.615234" xlink:href="#ArialMT-48"/>
      </g>
     </g>
    </g>
    <g id="ytick_7">
     <g id="line2d_11">
      <g>
       <use style="fill:#262626;stroke:#262626;stroke-width:1.25;" x="43.908438" xlink:href="#m09aa4ba3ee" y="15.615024"/>
      </g>
     </g>
     <g id="text_12">
      <!-- 60 -->
      <g style="fill:#262626;" transform="translate(22.174375 19.55182)scale(0.11 -0.11)">
       <defs>
        <path d="M 49.75 54.046875 
L 41.015625 53.375 
Q 39.84375 58.546875 37.703125 60.890625 
Q 34.125 64.65625 28.90625 64.65625 
Q 24.703125 64.65625 21.53125 62.3125 
Q 17.390625 59.28125 14.984375 53.46875 
Q 12.59375 47.65625 12.5 36.921875 
Q 15.671875 41.75 20.265625 44.09375 
Q 24.859375 46.4375 29.890625 46.4375 
Q 38.671875 46.4375 44.84375 39.96875 
Q 51.03125 33.5 51.03125 23.25 
Q 51.03125 16.5 48.125 10.71875 
Q 45.21875 4.9375 40.140625 1.859375 
Q 35.0625 -1.21875 28.609375 -1.21875 
Q 17.625 -1.21875 10.6875 6.859375 
Q 3.765625 14.9375 3.765625 33.5 
Q 3.765625 54.25 11.421875 63.671875 
Q 18.109375 71.875 29.4375 71.875 
Q 37.890625 71.875 43.28125 67.140625 
Q 48.6875 62.40625 49.75 54.046875 
z
M 13.875 23.1875 
Q 13.875 18.65625 15.796875 14.5 
Q 17.71875 10.359375 21.1875 8.171875 
Q 24.65625 6 28.46875 6 
Q 34.03125 6 38.03125 10.484375 
Q 42.046875 14.984375 42.046875 22.703125 
Q 42.046875 30.125 38.078125 34.390625 
Q 34.125 38.671875 28.125 38.671875 
Q 22.171875 38.671875 18.015625 34.390625 
Q 13.875 30.125 13.875 23.1875 
z
" id="ArialMT-54"/>
       </defs>
       <use xlink:href="#ArialMT-54"/>
       <use x="55.615234" xlink:href="#ArialMT-48"/>
      </g>
     </g>
    </g>
    <g id="text_13">
     <!-- total_bill -->
     <g style="fill:#262626;" transform="translate(15.789375 137.9325)rotate(-90)scale(0.12 -0.12)">
      <defs>
       <path d="M 3.328125 25.921875 
Q 3.328125 40.328125 11.328125 47.265625 
Q 18.015625 53.03125 27.640625 53.03125 
Q 38.328125 53.03125 45.109375 46.015625 
Q 51.90625 39.015625 51.90625 26.65625 
Q 51.90625 16.65625 48.90625 10.90625 
Q 45.90625 5.171875 40.15625 2 
Q 34.421875 -1.171875 27.640625 -1.171875 
Q 16.75 -1.171875 10.03125 5.8125 
Q 3.328125 12.796875 3.328125 25.921875 
z
M 12.359375 25.921875 
Q 12.359375 15.96875 16.703125 11.015625 
Q 21.046875 6.0625 27.640625 6.0625 
Q 34.1875 6.0625 38.53125 11.03125 
Q 42.875 16.015625 42.875 26.21875 
Q 42.875 35.84375 38.5 40.796875 
Q 34.125 45.75 27.640625 45.75 
Q 21.046875 45.75 16.703125 40.8125 
Q 12.359375 35.890625 12.359375 25.921875 
z
" id="ArialMT-111"/>
       <path d="M 6.390625 0 
L 6.390625 71.578125 
L 15.1875 71.578125 
L 15.1875 0 
z
" id="ArialMT-108"/>
       <path d="M -1.515625 -19.875 
L -1.515625 -13.53125 
L 56.734375 -13.53125 
L 56.734375 -19.875 
z
" id="ArialMT-95"/>
       <path d="M 14.703125 0 
L 6.546875 0 
L 6.546875 71.578125 
L 15.328125 71.578125 
L 15.328125 46.046875 
Q 20.90625 53.03125 29.546875 53.03125 
Q 34.328125 53.03125 38.59375 51.09375 
Q 42.875 49.171875 45.625 45.671875 
Q 48.390625 42.1875 49.953125 37.25 
Q 51.515625 32.328125 51.515625 26.703125 
Q 51.515625 13.375 44.921875 6.09375 
Q 38.328125 -1.171875 29.109375 -1.171875 
Q 19.921875 -1.171875 14.703125 6.5 
z
M 14.59375 26.3125 
Q 14.59375 17 17.140625 12.84375 
Q 21.296875 6.0625 28.375 6.0625 
Q 34.125 6.0625 38.328125 11.0625 
Q 42.53125 16.0625 42.53125 25.984375 
Q 42.53125 36.140625 38.5 40.96875 
Q 34.46875 45.796875 28.765625 45.796875 
Q 23 45.796875 18.796875 40.796875 
Q 14.59375 35.796875 14.59375 26.3125 
z
" id="ArialMT-98"/>
      </defs>
      <use xlink:href="#ArialMT-116"/>
      <use x="27.783203" xlink:href="#ArialMT-111"/>
      <use x="83.398438" xlink:href="#ArialMT-116"/>
      <use x="111.181641" xlink:href="#ArialMT-97"/>
      <use x="166.796875" xlink:href="#ArialMT-108"/>
      <use x="189.013672" xlink:href="#ArialMT-95"/>
      <use x="244.628906" xlink:href="#ArialMT-98"/>
      <use x="300.244141" xlink:href="#ArialMT-105"/>
      <use x="322.460938" xlink:href="#ArialMT-108"/>
      <use x="344.677734" xlink:href="#ArialMT-108"/>
     </g>
    </g>
   </g>
   <g id="PolyCollection_1">
    <defs>
     <path d="M 69.384298 -67.940094 
L 68.652577 -67.940094 
L 68.541111 -69.46236 
L 68.404115 -70.984627 
L 68.238363 -72.506893 
L 68.040923 -74.029159 
L 67.809349 -75.551426 
L 67.541868 -77.073692 
L 67.237544 -78.595959 
L 66.896396 -80.118225 
L 66.519462 -81.640491 
L 66.10878 -83.162758 
L 65.667299 -84.685024 
L 65.198707 -86.207291 
L 64.707206 -87.729557 
L 64.197236 -89.251823 
L 63.6732 -90.77409 
L 63.139207 -92.296356 
L 62.598879 -93.818623 
L 62.055246 -95.340889 
L 61.510743 -96.863155 
L 60.967326 -98.385422 
L 60.426691 -99.907688 
L 59.890572 -101.429955 
L 59.36108 -102.952221 
L 58.841042 -104.474487 
L 58.334285 -105.996754 
L 57.845822 -107.51902 
L 57.381914 -109.041287 
L 56.949964 -110.563553 
L 56.558272 -112.085819 
L 56.215638 -113.608086 
L 55.930864 -115.130352 
L 55.712196 -116.652619 
L 55.566758 -118.174885 
L 55.500036 -119.697151 
L 55.515456 -121.219418 
L 55.614097 -122.741684 
L 55.794567 -124.263951 
L 56.05304 -125.786217 
L 56.383448 -127.308483 
L 56.77781 -128.83075 
L 57.226657 -130.353016 
L 57.719513 -131.875283 
L 58.245405 -133.397549 
L 58.793342 -134.919815 
L 59.352756 -136.442082 
L 59.91386 -137.964348 
L 60.467926 -139.486615 
L 61.00747 -141.008881 
L 61.526347 -142.531148 
L 62.019765 -144.053414 
L 62.484241 -145.57568 
L 62.917501 -147.097947 
L 63.318353 -148.620213 
L 63.686545 -150.14248 
L 64.022621 -151.664746 
L 64.32778 -153.187012 
L 64.603763 -154.709279 
L 64.852735 -156.231545 
L 65.077199 -157.753812 
L 65.2799 -159.276078 
L 65.463738 -160.798344 
L 65.631675 -162.320611 
L 65.78663 -163.842877 
L 65.931369 -165.365144 
L 66.068388 -166.88741 
L 66.199808 -168.409676 
L 66.327283 -169.931943 
L 66.451941 -171.454209 
L 66.574365 -172.976476 
L 66.694621 -174.498742 
L 66.812343 -176.021008 
L 66.926844 -177.543275 
L 67.03728 -179.065541 
L 67.142805 -180.587808 
L 67.242737 -182.110074 
L 67.336683 -183.63234 
L 67.424631 -185.154607 
L 67.50698 -186.676873 
L 67.584516 -188.19914 
L 67.658332 -189.721406 
L 67.729709 -191.243672 
L 67.799975 -192.765939 
L 67.87035 -194.288205 
L 67.941814 -195.810472 
L 68.015004 -197.332738 
L 68.090154 -198.855004 
L 68.167076 -200.377271 
L 68.245197 -201.899537 
L 68.323628 -203.421804 
L 68.401263 -204.94407 
L 68.476889 -206.466336 
L 68.549302 -207.988603 
L 68.617406 -209.510869 
L 68.680291 -211.033136 
L 68.737289 -212.555402 
L 68.788 -214.077668 
L 68.832288 -215.599935 
L 68.870257 -217.122201 
L 68.90222 -218.644468 
L 69.134655 -218.644468 
L 69.134655 -218.644468 
L 69.166618 -217.122201 
L 69.204587 -215.599935 
L 69.248875 -214.077668 
L 69.299586 -212.555402 
L 69.356584 -211.033136 
L 69.419469 -209.510869 
L 69.487573 -207.988603 
L 69.559986 -206.466336 
L 69.635612 -204.94407 
L 69.713247 -203.421804 
L 69.791678 -201.899537 
L 69.869799 -200.377271 
L 69.946721 -198.855004 
L 70.021871 -197.332738 
L 70.095061 -195.810472 
L 70.166525 -194.288205 
L 70.2369 -192.765939 
L 70.307166 -191.243672 
L 70.378543 -189.721406 
L 70.452359 -188.19914 
L 70.529895 -186.676873 
L 70.612244 -185.154607 
L 70.700192 -183.63234 
L 70.794138 -182.110074 
L 70.89407 -180.587808 
L 70.999595 -179.065541 
L 71.110031 -177.543275 
L 71.224532 -176.021008 
L 71.342254 -174.498742 
L 71.46251 -172.976476 
L 71.584934 -171.454209 
L 71.709592 -169.931943 
L 71.837067 -168.409676 
L 71.968487 -166.88741 
L 72.105506 -165.365144 
L 72.250245 -163.842877 
L 72.4052 -162.320611 
L 72.573137 -160.798344 
L 72.756975 -159.276078 
L 72.959676 -157.753812 
L 73.18414 -156.231545 
L 73.433112 -154.709279 
L 73.709095 -153.187012 
L 74.014254 -151.664746 
L 74.35033 -150.14248 
L 74.718522 -148.620213 
L 75.119374 -147.097947 
L 75.552634 -145.57568 
L 76.01711 -144.053414 
L 76.510528 -142.531148 
L 77.029405 -141.008881 
L 77.568949 -139.486615 
L 78.123015 -137.964348 
L 78.684119 -136.442082 
L 79.243533 -134.919815 
L 79.79147 -133.397549 
L 80.317362 -131.875283 
L 80.810218 -130.353016 
L 81.259065 -128.83075 
L 81.653427 -127.308483 
L 81.983835 -125.786217 
L 82.242308 -124.263951 
L 82.422778 -122.741684 
L 82.521419 -121.219418 
L 82.536839 -119.697151 
L 82.470117 -118.174885 
L 82.324679 -116.652619 
L 82.106011 -115.130352 
L 81.821237 -113.608086 
L 81.478603 -112.085819 
L 81.086911 -110.563553 
L 80.654961 -109.041287 
L 80.191053 -107.51902 
L 79.70259 -105.996754 
L 79.195833 -104.474487 
L 78.675795 -102.952221 
L 78.146303 -101.429955 
L 77.610184 -99.907688 
L 77.069549 -98.385422 
L 76.526132 -96.863155 
L 75.981629 -95.340889 
L 75.437996 -93.818623 
L 74.897668 -92.296356 
L 74.363675 -90.77409 
L 73.839639 -89.251823 
L 73.329669 -87.729557 
L 72.838168 -86.207291 
L 72.369576 -84.685024 
L 71.928095 -83.162758 
L 71.517413 -81.640491 
L 71.140479 -80.118225 
L 70.799331 -78.595959 
L 70.495007 -77.073692 
L 70.227526 -75.551426 
L 69.995952 -74.029159 
L 69.798512 -72.506893 
L 69.63276 -70.984627 
L 69.495764 -69.46236 
L 69.384298 -67.940094 
z
" id="m386b7efe51" style="stroke:#4c4c4c;stroke-width:1.5;"/>
    </defs>
    <g clip-path="url(#pd47e2c23a7)">
     <use style="fill:#5875a4;stroke:#4c4c4c;stroke-width:1.5;" x="0" xlink:href="#m386b7efe51" y="266.514844"/>
    </g>
   </g>
   <g id="PolyCollection_2">
    <defs>
     <path d="M 102.924852 -71.574755 
L 102.072023 -71.574755 
L 101.920813 -73.107745 
L 101.726921 -74.640734 
L 101.48222 -76.173724 
L 101.178277 -77.706713 
L 100.806751 -79.239703 
L 100.359886 -80.772692 
L 99.831099 -82.305682 
L 99.215622 -83.838671 
L 98.511177 -85.371661 
L 97.71861 -86.90465 
L 96.842433 -88.43764 
L 95.891222 -89.970629 
L 94.87778 -91.503618 
L 93.819042 -93.036608 
L 92.735675 -94.569597 
L 91.651365 -96.102587 
L 90.591831 -97.635576 
L 89.583602 -99.168566 
L 88.652659 -100.701555 
L 87.823046 -102.234545 
L 87.115575 -103.767534 
L 86.546737 -105.300524 
L 86.127923 -106.833513 
L 85.865025 -108.366503 
L 85.758438 -109.899492 
L 85.803447 -111.432481 
L 85.990938 -112.965471 
L 86.308335 -114.49846 
L 86.74064 -116.03145 
L 87.271475 -117.564439 
L 87.884003 -119.097429 
L 88.561666 -120.630418 
L 89.288691 -122.163408 
L 90.050385 -123.696397 
L 90.833221 -125.229387 
L 91.624807 -126.762376 
L 92.413785 -128.295366 
L 93.189729 -129.828355 
L 93.943102 -131.361344 
L 94.665288 -132.894334 
L 95.348701 -134.427323 
L 95.986965 -135.960313 
L 96.575113 -137.493302 
L 97.109774 -139.026292 
L 97.589291 -140.559281 
L 98.013759 -142.092271 
L 98.384945 -143.62526 
L 98.706101 -145.15825 
L 98.981683 -146.691239 
L 99.217 -148.224229 
L 99.41783 -149.757218 
L 99.590049 -151.290208 
L 99.739285 -152.823197 
L 99.870659 -154.356186 
L 99.988587 -155.889176 
L 100.096691 -157.422165 
L 100.197785 -158.955155 
L 100.293933 -160.488144 
L 100.38656 -162.021134 
L 100.476583 -163.554123 
L 100.564548 -165.087113 
L 100.65075 -166.620102 
L 100.735311 -168.153092 
L 100.818228 -169.686081 
L 100.89938 -171.219071 
L 100.978511 -172.75206 
L 101.055194 -174.285049 
L 101.12881 -175.818039 
L 101.198549 -177.351028 
L 101.263441 -178.884018 
L 101.322434 -180.417007 
L 101.374506 -181.949997 
L 101.418804 -183.482986 
L 101.454793 -185.015976 
L 101.482383 -186.548965 
L 101.502033 -188.081955 
L 101.514786 -189.614944 
L 101.522248 -191.147934 
L 101.526495 -192.680923 
L 101.529921 -194.213912 
L 101.535038 -195.746902 
L 101.544256 -197.279891 
L 101.559672 -198.812881 
L 101.582881 -200.34587 
L 101.614845 -201.87886 
L 101.655822 -203.411849 
L 101.705367 -204.944839 
L 101.762404 -206.477828 
L 101.825349 -208.010818 
L 101.89227 -209.543807 
L 101.961071 -211.076797 
L 102.029665 -212.609786 
L 102.09613 -214.142775 
L 102.158832 -215.675765 
L 102.216504 -217.208754 
L 102.268278 -218.741744 
L 102.313688 -220.274733 
L 102.35263 -221.807723 
L 102.385301 -223.340712 
L 102.611574 -223.340712 
L 102.611574 -223.340712 
L 102.644245 -221.807723 
L 102.683187 -220.274733 
L 102.728597 -218.741744 
L 102.780371 -217.208754 
L 102.838043 -215.675765 
L 102.900745 -214.142775 
L 102.96721 -212.609786 
L 103.035804 -211.076797 
L 103.104605 -209.543807 
L 103.171526 -208.010818 
L 103.234471 -206.477828 
L 103.291508 -204.944839 
L 103.341053 -203.411849 
L 103.38203 -201.87886 
L 103.413994 -200.34587 
L 103.437203 -198.812881 
L 103.452619 -197.279891 
L 103.461837 -195.746902 
L 103.466954 -194.213912 
L 103.47038 -192.680923 
L 103.474627 -191.147934 
L 103.482089 -189.614944 
L 103.494842 -188.081955 
L 103.514492 -186.548965 
L 103.542082 -185.015976 
L 103.578071 -183.482986 
L 103.622369 -181.949997 
L 103.674441 -180.417007 
L 103.733434 -178.884018 
L 103.798326 -177.351028 
L 103.868065 -175.818039 
L 103.941681 -174.285049 
L 104.018364 -172.75206 
L 104.097495 -171.219071 
L 104.178647 -169.686081 
L 104.261564 -168.153092 
L 104.346125 -166.620102 
L 104.432327 -165.087113 
L 104.520292 -163.554123 
L 104.610315 -162.021134 
L 104.702942 -160.488144 
L 104.79909 -158.955155 
L 104.900184 -157.422165 
L 105.008288 -155.889176 
L 105.126216 -154.356186 
L 105.25759 -152.823197 
L 105.406826 -151.290208 
L 105.579045 -149.757218 
L 105.779875 -148.224229 
L 106.015192 -146.691239 
L 106.290774 -145.15825 
L 106.61193 -143.62526 
L 106.983116 -142.092271 
L 107.407584 -140.559281 
L 107.887101 -139.026292 
L 108.421762 -137.493302 
L 109.00991 -135.960313 
L 109.648174 -134.427323 
L 110.331587 -132.894334 
L 111.053773 -131.361344 
L 111.807146 -129.828355 
L 112.58309 -128.295366 
L 113.372068 -126.762376 
L 114.163654 -125.229387 
L 114.94649 -123.696397 
L 115.708184 -122.163408 
L 116.435209 -120.630418 
L 117.112872 -119.097429 
L 117.7254 -117.564439 
L 118.256235 -116.03145 
L 118.68854 -114.49846 
L 119.005937 -112.965471 
L 119.193428 -111.432481 
L 119.238438 -109.899492 
L 119.13185 -108.366503 
L 118.868952 -106.833513 
L 118.450138 -105.300524 
L 117.8813 -103.767534 
L 117.173829 -102.234545 
L 116.344216 -100.701555 
L 115.413273 -99.168566 
L 114.405044 -97.635576 
L 113.34551 -96.102587 
L 112.2612 -94.569597 
L 111.177833 -93.036608 
L 110.119095 -91.503618 
L 109.105653 -89.970629 
L 108.154442 -88.43764 
L 107.278265 -86.90465 
L 106.485698 -85.371661 
L 105.781253 -83.838671 
L 105.165776 -82.305682 
L 104.636989 -80.772692 
L 104.190124 -79.239703 
L 103.818598 -77.706713 
L 103.514655 -76.173724 
L 103.269954 -74.640734 
L 103.076062 -73.107745 
L 102.924852 -71.574755 
z
" id="m05c3932cde" style="stroke:#4c4c4c;stroke-width:1.5;"/>
    </defs>
    <g clip-path="url(#pd47e2c23a7)">
     <use style="fill:#cc8963;stroke:#4c4c4c;stroke-width:1.5;" x="0" xlink:href="#m05c3932cde" y="266.514844"/>
    </g>
   </g>
   <g id="PolyCollection_3">
    <defs>
     <path d="M 153.075819 -57.540858 
L 152.361056 -57.540858 
L 152.279542 -59.274735 
L 152.183421 -61.008611 
L 152.071066 -62.742488 
L 151.940892 -64.476364 
L 151.791418 -66.210241 
L 151.621333 -67.944117 
L 151.429568 -69.677994 
L 151.215372 -71.41187 
L 150.978386 -73.145746 
L 150.718715 -74.879623 
L 150.43699 -76.613499 
L 150.134422 -78.347376 
L 149.812831 -80.081252 
L 149.474666 -81.815129 
L 149.122987 -83.549005 
L 148.761432 -85.282881 
L 148.394151 -87.016758 
L 148.025714 -88.750634 
L 147.660989 -90.484511 
L 147.30501 -92.218387 
L 146.962816 -93.952264 
L 146.639289 -95.68614 
L 146.338982 -97.420016 
L 146.065966 -99.153893 
L 145.823679 -100.887769 
L 145.614808 -102.621646 
L 145.441194 -104.355522 
L 145.303778 -106.089399 
L 145.202586 -107.823275 
L 145.136749 -109.557151 
L 145.104574 -111.291028 
L 145.103636 -113.024904 
L 145.130915 -114.758781 
L 145.182948 -116.492657 
L 145.255997 -118.226534 
L 145.346225 -119.96041 
L 145.449863 -121.694286 
L 145.563366 -123.428163 
L 145.683553 -125.162039 
L 145.807708 -126.895916 
L 145.933659 -128.629792 
L 146.059821 -130.363669 
L 146.1852 -132.097545 
L 146.309367 -133.831421 
L 146.432407 -135.565298 
L 146.554835 -137.299174 
L 146.677502 -139.033051 
L 146.801482 -140.766927 
L 146.927961 -142.500804 
L 147.058121 -144.23468 
L 147.193041 -145.968556 
L 147.3336 -147.702433 
L 147.480406 -149.436309 
L 147.633744 -151.170186 
L 147.793543 -152.904062 
L 147.95937 -154.637939 
L 148.130448 -156.371815 
L 148.305687 -158.105691 
L 148.483743 -159.839568 
L 148.663082 -161.573444 
L 148.842061 -163.307321 
L 149.019009 -165.041197 
L 149.192314 -166.775074 
L 149.360495 -168.50895 
L 149.522279 -170.242826 
L 149.676652 -171.976703 
L 149.822903 -173.710579 
L 149.960647 -175.444456 
L 150.089826 -177.178332 
L 150.210701 -178.912209 
L 150.323814 -180.646085 
L 150.42995 -182.379962 
L 150.530072 -184.113838 
L 150.625266 -185.847714 
L 150.716665 -187.581591 
L 150.805388 -189.315467 
L 150.892476 -191.049344 
L 150.978839 -192.78322 
L 151.065214 -194.517097 
L 151.152132 -196.250973 
L 151.239908 -197.984849 
L 151.328632 -199.718726 
L 151.418184 -201.452602 
L 151.508253 -203.186479 
L 151.598371 -204.920355 
L 151.687945 -206.654232 
L 151.776303 -208.388108 
L 151.862731 -210.121984 
L 151.946516 -211.855861 
L 152.02698 -213.589737 
L 152.103514 -215.323614 
L 152.175596 -217.05749 
L 152.242816 -218.791367 
L 152.304878 -220.525243 
L 152.361609 -222.259119 
L 152.412953 -223.992996 
L 152.458961 -225.726872 
L 152.499782 -227.460749 
L 152.535647 -229.194625 
L 152.901228 -229.194625 
L 152.901228 -229.194625 
L 152.937093 -227.460749 
L 152.977914 -225.726872 
L 153.023922 -223.992996 
L 153.075266 -222.259119 
L 153.131997 -220.525243 
L 153.194059 -218.791367 
L 153.261279 -217.05749 
L 153.333361 -215.323614 
L 153.409895 -213.589737 
L 153.490359 -211.855861 
L 153.574144 -210.121984 
L 153.660572 -208.388108 
L 153.74893 -206.654232 
L 153.838504 -204.920355 
L 153.928622 -203.186479 
L 154.018691 -201.452602 
L 154.108243 -199.718726 
L 154.196967 -197.984849 
L 154.284743 -196.250973 
L 154.371661 -194.517097 
L 154.458036 -192.78322 
L 154.544399 -191.049344 
L 154.631487 -189.315467 
L 154.72021 -187.581591 
L 154.811609 -185.847714 
L 154.906803 -184.113838 
L 155.006925 -182.379962 
L 155.113061 -180.646085 
L 155.226174 -178.912209 
L 155.347049 -177.178332 
L 155.476228 -175.444456 
L 155.613972 -173.710579 
L 155.760223 -171.976703 
L 155.914596 -170.242826 
L 156.07638 -168.50895 
L 156.244561 -166.775074 
L 156.417866 -165.041197 
L 156.594814 -163.307321 
L 156.773793 -161.573444 
L 156.953132 -159.839568 
L 157.131188 -158.105691 
L 157.306427 -156.371815 
L 157.477505 -154.637939 
L 157.643332 -152.904062 
L 157.803131 -151.170186 
L 157.956469 -149.436309 
L 158.103275 -147.702433 
L 158.243834 -145.968556 
L 158.378754 -144.23468 
L 158.508914 -142.500804 
L 158.635393 -140.766927 
L 158.759373 -139.033051 
L 158.88204 -137.299174 
L 159.004468 -135.565298 
L 159.127508 -133.831421 
L 159.251675 -132.097545 
L 159.377054 -130.363669 
L 159.503216 -128.629792 
L 159.629167 -126.895916 
L 159.753322 -125.162039 
L 159.873509 -123.428163 
L 159.987012 -121.694286 
L 160.09065 -119.96041 
L 160.180878 -118.226534 
L 160.253927 -116.492657 
L 160.30596 -114.758781 
L 160.333239 -113.024904 
L 160.332301 -111.291028 
L 160.300126 -109.557151 
L 160.234289 -107.823275 
L 160.133097 -106.089399 
L 159.995681 -104.355522 
L 159.822067 -102.621646 
L 159.613196 -100.887769 
L 159.370909 -99.153893 
L 159.097893 -97.420016 
L 158.797586 -95.68614 
L 158.474059 -93.952264 
L 158.131865 -92.218387 
L 157.775886 -90.484511 
L 157.411161 -88.750634 
L 157.042724 -87.016758 
L 156.675443 -85.282881 
L 156.313888 -83.549005 
L 155.962209 -81.815129 
L 155.624044 -80.081252 
L 155.302453 -78.347376 
L 154.999885 -76.613499 
L 154.71816 -74.879623 
L 154.458489 -73.145746 
L 154.221503 -71.41187 
L 154.007307 -69.677994 
L 153.815542 -67.944117 
L 153.645457 -66.210241 
L 153.495983 -64.476364 
L 153.365809 -62.742488 
L 153.253454 -61.008611 
L 153.157333 -59.274735 
L 153.075819 -57.540858 
z
" id="m25fbb27d95" style="stroke:#4c4c4c;stroke-width:1.5;"/>
    </defs>
    <g clip-path="url(#pd47e2c23a7)">
     <use style="fill:#5875a4;stroke:#4c4c4c;stroke-width:1.5;" x="0" xlink:href="#m25fbb27d95" y="266.514844"/>
    </g>
   </g>
   <g id="PolyCollection_4">
    <defs>
     <path d="M 186.622459 -68.521125 
L 185.774416 -68.521125 
L 185.684834 -69.415769 
L 185.581648 -70.310412 
L 185.463994 -71.205056 
L 185.331197 -72.0997 
L 185.182807 -72.994344 
L 185.018634 -73.888988 
L 184.838771 -74.783631 
L 184.643602 -75.678275 
L 184.433791 -76.572919 
L 184.210263 -77.467563 
L 183.974157 -78.362207 
L 183.726766 -79.25685 
L 183.469468 -80.151494 
L 183.203639 -81.046138 
L 182.930565 -81.940782 
L 182.651362 -82.835426 
L 182.366892 -83.730069 
L 182.077705 -84.624713 
L 181.783992 -85.519357 
L 181.485568 -86.414001 
L 181.181876 -87.308645 
L 180.87202 -88.203288 
L 180.554821 -89.097932 
L 180.228895 -89.992576 
L 179.892739 -90.88722 
L 179.544833 -91.781864 
L 179.183736 -92.676508 
L 178.80818 -93.571151 
L 178.417153 -94.465795 
L 178.009962 -95.360439 
L 177.586293 -96.255083 
L 177.146239 -97.149727 
L 176.690329 -98.04437 
L 176.219546 -98.939014 
L 175.735337 -99.833658 
L 175.239635 -100.728302 
L 174.734875 -101.622946 
L 174.224027 -102.517589 
L 173.710635 -103.412233 
L 173.198852 -104.306877 
L 172.69348 -105.201521 
L 172.199994 -106.096165 
L 171.724541 -106.990808 
L 171.273907 -107.885452 
L 170.855439 -108.780096 
L 170.476917 -109.67474 
L 170.146369 -110.569384 
L 169.87183 -111.464027 
L 169.661052 -112.358671 
L 169.521188 -113.253315 
L 169.458438 -114.147959 
L 169.477713 -115.042603 
L 169.582318 -115.937247 
L 169.773679 -116.83189 
L 170.051145 -117.726534 
L 170.411884 -118.621178 
L 170.850872 -119.515822 
L 171.360995 -120.410466 
L 171.933269 -121.305109 
L 172.557146 -122.199753 
L 173.220911 -123.094397 
L 173.912143 -123.989041 
L 174.618207 -124.883685 
L 175.326754 -125.778328 
L 176.0262 -126.672972 
L 176.706147 -127.567616 
L 177.357741 -128.46226 
L 177.973926 -129.356904 
L 178.549601 -130.251547 
L 179.081667 -131.146191 
L 179.568967 -132.040835 
L 180.012133 -132.935479 
L 180.413352 -133.830123 
L 180.776072 -134.724767 
L 181.104663 -135.61941 
L 181.404073 -136.514054 
L 181.679484 -137.408698 
L 181.935992 -138.303342 
L 182.178334 -139.197986 
L 182.41067 -140.092629 
L 182.636422 -140.987273 
L 182.858184 -141.881917 
L 183.07769 -142.776561 
L 183.295838 -143.671205 
L 183.512768 -144.565848 
L 183.727972 -145.460492 
L 183.940428 -146.355136 
L 184.148754 -147.24978 
L 184.351352 -148.144424 
L 184.546558 -149.039067 
L 184.732764 -149.933711 
L 184.908524 -150.828355 
L 185.072631 -151.722999 
L 185.224176 -152.617643 
L 185.362567 -153.512286 
L 185.487541 -154.40693 
L 185.599145 -155.301574 
L 185.697707 -156.196218 
L 185.783792 -157.090862 
L 186.613083 -157.090862 
L 186.613083 -157.090862 
L 186.699168 -156.196218 
L 186.79773 -155.301574 
L 186.909334 -154.40693 
L 187.034308 -153.512286 
L 187.172699 -152.617643 
L 187.324244 -151.722999 
L 187.488351 -150.828355 
L 187.664111 -149.933711 
L 187.850317 -149.039067 
L 188.045523 -148.144424 
L 188.248121 -147.24978 
L 188.456447 -146.355136 
L 188.668903 -145.460492 
L 188.884107 -144.565848 
L 189.101037 -143.671205 
L 189.319185 -142.776561 
L 189.538691 -141.881917 
L 189.760453 -140.987273 
L 189.986205 -140.092629 
L 190.218541 -139.197986 
L 190.460883 -138.303342 
L 190.717391 -137.408698 
L 190.992802 -136.514054 
L 191.292212 -135.61941 
L 191.620803 -134.724767 
L 191.983523 -133.830123 
L 192.384742 -132.935479 
L 192.827908 -132.040835 
L 193.315208 -131.146191 
L 193.847274 -130.251547 
L 194.422949 -129.356904 
L 195.039134 -128.46226 
L 195.690728 -127.567616 
L 196.370675 -126.672972 
L 197.070121 -125.778328 
L 197.778668 -124.883685 
L 198.484732 -123.989041 
L 199.175964 -123.094397 
L 199.839729 -122.199753 
L 200.463606 -121.305109 
L 201.03588 -120.410466 
L 201.546003 -119.515822 
L 201.984991 -118.621178 
L 202.34573 -117.726534 
L 202.623196 -116.83189 
L 202.814557 -115.937247 
L 202.919162 -115.042603 
L 202.938438 -114.147959 
L 202.875687 -113.253315 
L 202.735823 -112.358671 
L 202.525045 -111.464027 
L 202.250506 -110.569384 
L 201.919958 -109.67474 
L 201.541436 -108.780096 
L 201.122968 -107.885452 
L 200.672334 -106.990808 
L 200.196881 -106.096165 
L 199.703395 -105.201521 
L 199.198023 -104.306877 
L 198.68624 -103.412233 
L 198.172848 -102.517589 
L 197.662 -101.622946 
L 197.15724 -100.728302 
L 196.661538 -99.833658 
L 196.177329 -98.939014 
L 195.706546 -98.04437 
L 195.250636 -97.149727 
L 194.810582 -96.255083 
L 194.386913 -95.360439 
L 193.979722 -94.465795 
L 193.588695 -93.571151 
L 193.213139 -92.676508 
L 192.852042 -91.781864 
L 192.504136 -90.88722 
L 192.16798 -89.992576 
L 191.842054 -89.097932 
L 191.524855 -88.203288 
L 191.214999 -87.308645 
L 190.911307 -86.414001 
L 190.612883 -85.519357 
L 190.31917 -84.624713 
L 190.029983 -83.730069 
L 189.745513 -82.835426 
L 189.46631 -81.940782 
L 189.193236 -81.046138 
L 188.927407 -80.151494 
L 188.670109 -79.25685 
L 188.422718 -78.362207 
L 188.186612 -77.467563 
L 187.963084 -76.572919 
L 187.753273 -75.678275 
L 187.558104 -74.783631 
L 187.378241 -73.888988 
L 187.214068 -72.994344 
L 187.065678 -72.0997 
L 186.932881 -71.205056 
L 186.815227 -70.310412 
L 186.712041 -69.415769 
L 186.622459 -68.521125 
z
" id="m6e27c4e6b0" style="stroke:#4c4c4c;stroke-width:1.5;"/>
    </defs>
    <g clip-path="url(#pd47e2c23a7)">
     <use style="fill:#cc8963;stroke:#4c4c4c;stroke-width:1.5;" x="0" xlink:href="#m6e27c4e6b0" y="266.514844"/>
    </g>
   </g>
   <g id="PolyCollection_5">
    <defs>
     <path d="M 236.634397 -66.88503 
L 236.202478 -66.88503 
L 236.114377 -68.728931 
L 235.997132 -70.572832 
L 235.843872 -72.416733 
L 235.647094 -74.260634 
L 235.398944 -76.104534 
L 235.091592 -77.948435 
L 234.717718 -79.792336 
L 234.27106 -81.636237 
L 233.747004 -83.480137 
L 233.143145 -85.324038 
L 232.459782 -87.167939 
L 231.700261 -89.01184 
L 230.871135 -90.855741 
L 229.982097 -92.699641 
L 229.045692 -94.543542 
L 228.076811 -96.387443 
L 227.092033 -98.231344 
L 226.108883 -100.075244 
L 225.145078 -101.919145 
L 224.217858 -103.763046 
L 223.343441 -105.606947 
L 222.536649 -107.450848 
L 221.8107 -109.294748 
L 221.177127 -111.138649 
L 220.645769 -112.98255 
L 220.224776 -114.826451 
L 219.920556 -116.670351 
L 219.737638 -118.514252 
L 219.678438 -120.358153 
L 219.74297 -122.202054 
L 219.928552 -124.045955 
L 220.229581 -125.889855 
L 220.637465 -127.733756 
L 221.140761 -129.577657 
L 221.725545 -131.421558 
L 222.376019 -133.265458 
L 223.075285 -135.109359 
L 223.806226 -136.95326 
L 224.552399 -138.797161 
L 225.298829 -140.641062 
L 226.032652 -142.484962 
L 226.743517 -144.328863 
L 227.423759 -146.172764 
L 228.068316 -148.016665 
L 228.674459 -149.860565 
L 229.241357 -151.704466 
L 229.76957 -153.548367 
L 230.260513 -155.392268 
L 230.715972 -157.236169 
L 231.137703 -159.080069 
L 231.527171 -160.92397 
L 231.885414 -162.767871 
L 232.213069 -164.611772 
L 232.510506 -166.455672 
L 232.778064 -168.299573 
L 233.01632 -170.143474 
L 233.22635 -171.987375 
L 233.409933 -173.831276 
L 233.569637 -175.675176 
L 233.708776 -177.519077 
L 233.831223 -179.362978 
L 233.941097 -181.206879 
L 234.042368 -183.050779 
L 234.138439 -184.89468 
L 234.231764 -186.738581 
L 234.323587 -188.582482 
L 234.413819 -190.426383 
L 234.501121 -192.270283 
L 234.583154 -194.114184 
L 234.656994 -195.958085 
L 234.719637 -197.801986 
L 234.76854 -199.645886 
L 234.802109 -201.489787 
L 234.820067 -203.333688 
L 234.823655 -205.177589 
L 234.815631 -207.02149 
L 234.800075 -208.86539 
L 234.78202 -210.709291 
L 234.766956 -212.553192 
L 234.760291 -214.397093 
L 234.766814 -216.240993 
L 234.790239 -218.084894 
L 234.832876 -219.928795 
L 234.895469 -221.772696 
L 234.977192 -223.616597 
L 235.075813 -225.460497 
L 235.18798 -227.304398 
L 235.309586 -229.148299 
L 235.436172 -230.9922 
L 235.56332 -232.8361 
L 235.686984 -234.680001 
L 235.803752 -236.523902 
L 235.911002 -238.367803 
L 236.006968 -240.211704 
L 236.090723 -242.055604 
L 236.162089 -243.899505 
L 236.221503 -245.743406 
L 236.269861 -247.587307 
L 236.308361 -249.431207 
L 236.528514 -249.431207 
L 236.528514 -249.431207 
L 236.567014 -247.587307 
L 236.615372 -245.743406 
L 236.674786 -243.899505 
L 236.746152 -242.055604 
L 236.829907 -240.211704 
L 236.925873 -238.367803 
L 237.033123 -236.523902 
L 237.149891 -234.680001 
L 237.273555 -232.8361 
L 237.400703 -230.9922 
L 237.527289 -229.148299 
L 237.648895 -227.304398 
L 237.761062 -225.460497 
L 237.859683 -223.616597 
L 237.941406 -221.772696 
L 238.003999 -219.928795 
L 238.046636 -218.084894 
L 238.070061 -216.240993 
L 238.076584 -214.397093 
L 238.069919 -212.553192 
L 238.054855 -210.709291 
L 238.0368 -208.86539 
L 238.021244 -207.02149 
L 238.01322 -205.177589 
L 238.016808 -203.333688 
L 238.034766 -201.489787 
L 238.068335 -199.645886 
L 238.117238 -197.801986 
L 238.179881 -195.958085 
L 238.253721 -194.114184 
L 238.335754 -192.270283 
L 238.423056 -190.426383 
L 238.513288 -188.582482 
L 238.605111 -186.738581 
L 238.698436 -184.89468 
L 238.794507 -183.050779 
L 238.895778 -181.206879 
L 239.005652 -179.362978 
L 239.128099 -177.519077 
L 239.267238 -175.675176 
L 239.426942 -173.831276 
L 239.610525 -171.987375 
L 239.820555 -170.143474 
L 240.058811 -168.299573 
L 240.326369 -166.455672 
L 240.623806 -164.611772 
L 240.951461 -162.767871 
L 241.309704 -160.92397 
L 241.699172 -159.080069 
L 242.120903 -157.236169 
L 242.576362 -155.392268 
L 243.067305 -153.548367 
L 243.595518 -151.704466 
L 244.162416 -149.860565 
L 244.768559 -148.016665 
L 245.413116 -146.172764 
L 246.093358 -144.328863 
L 246.804223 -142.484962 
L 247.538046 -140.641062 
L 248.284476 -138.797161 
L 249.030649 -136.95326 
L 249.76159 -135.109359 
L 250.460856 -133.265458 
L 251.11133 -131.421558 
L 251.696114 -129.577657 
L 252.19941 -127.733756 
L 252.607294 -125.889855 
L 252.908323 -124.045955 
L 253.093905 -122.202054 
L 253.158438 -120.358153 
L 253.099237 -118.514252 
L 252.916319 -116.670351 
L 252.612099 -114.826451 
L 252.191106 -112.98255 
L 251.659748 -111.138649 
L 251.026175 -109.294748 
L 250.300226 -107.450848 
L 249.493434 -105.606947 
L 248.619017 -103.763046 
L 247.691797 -101.919145 
L 246.727992 -100.075244 
L 245.744842 -98.231344 
L 244.760064 -96.387443 
L 243.791183 -94.543542 
L 242.854778 -92.699641 
L 241.96574 -90.855741 
L 241.136614 -89.01184 
L 240.377093 -87.167939 
L 239.69373 -85.324038 
L 239.089871 -83.480137 
L 238.565815 -81.636237 
L 238.119157 -79.792336 
L 237.745283 -77.948435 
L 237.437931 -76.104534 
L 237.189781 -74.260634 
L 236.993003 -72.416733 
L 236.839743 -70.572832 
L 236.722498 -68.728931 
L 236.634397 -66.88503 
z
" id="m8daeb038bd" style="stroke:#4c4c4c;stroke-width:1.5;"/>
    </defs>
    <g clip-path="url(#pd47e2c23a7)">
     <use style="fill:#5875a4;stroke:#4c4c4c;stroke-width:1.5;" x="0" xlink:href="#m8daeb038bd" y="266.514844"/>
    </g>
   </g>
   <g id="PolyCollection_6">
    <defs>
     <path d="M 270.062014 -51.75848 
L 269.734861 -51.75848 
L 269.683471 -53.567097 
L 269.620131 -55.375714 
L 269.543326 -57.184331 
L 269.451648 -58.992948 
L 269.343834 -60.801564 
L 269.218792 -62.610181 
L 269.075592 -64.418798 
L 268.913417 -66.227415 
L 268.731473 -68.036032 
L 268.528875 -69.844649 
L 268.304493 -71.653266 
L 268.056813 -73.461883 
L 267.783809 -75.270499 
L 267.482867 -77.079116 
L 267.150784 -78.887733 
L 266.783864 -80.69635 
L 266.378131 -82.504967 
L 265.929639 -84.313584 
L 265.434898 -86.122201 
L 264.891356 -87.930818 
L 264.297915 -89.739434 
L 263.65543 -91.548051 
L 262.96712 -93.356668 
L 262.238853 -95.165285 
L 261.479244 -96.973902 
L 260.699543 -98.782519 
L 259.913291 -100.591136 
L 259.135761 -102.399753 
L 258.383219 -104.208369 
L 257.672046 -106.016986 
L 257.017822 -107.825603 
L 256.434429 -109.63422 
L 255.933266 -111.442837 
L 255.522648 -113.251454 
L 255.207437 -115.060071 
L 254.988941 -116.868687 
L 254.865061 -118.677304 
L 254.830682 -120.485921 
L 254.878244 -122.294538 
L 254.998433 -124.103155 
L 255.180929 -125.911772 
L 255.41515 -127.720389 
L 255.690919 -129.529006 
L 255.999046 -131.337622 
L 256.331766 -133.146239 
L 256.683036 -134.954856 
L 257.048681 -136.763473 
L 257.426384 -138.57209 
L 257.815535 -140.380707 
L 258.216941 -142.189324 
L 258.632423 -143.997941 
L 259.06432 -145.806557 
L 259.514951 -147.615174 
L 259.986073 -149.423791 
L 260.478393 -151.232408 
L 260.991189 -153.041025 
L 261.522086 -154.849642 
L 262.067018 -156.658259 
L 262.620378 -158.466876 
L 263.175349 -160.275492 
L 263.724366 -162.084109 
L 264.259661 -163.892726 
L 264.773804 -165.701343 
L 265.260202 -167.50996 
L 265.713477 -169.318577 
L 266.129697 -171.127194 
L 266.506454 -172.93581 
L 266.842797 -174.744427 
L 267.139047 -176.553044 
L 267.396557 -178.361661 
L 267.617442 -180.170278 
L 267.80434 -181.978895 
L 267.960228 -183.787512 
L 268.088297 -185.596129 
L 268.191901 -187.404745 
L 268.274541 -189.213362 
L 268.339871 -191.021979 
L 268.391697 -192.830596 
L 268.433929 -194.639213 
L 268.470501 -196.44783 
L 268.505225 -198.256447 
L 268.541616 -200.065064 
L 268.5827 -201.87368 
L 268.630827 -203.682297 
L 268.687533 -205.490914 
L 268.753457 -207.299531 
L 268.828337 -209.108148 
L 268.911087 -210.916765 
L 268.999942 -212.725382 
L 269.092654 -214.533999 
L 269.186724 -216.342615 
L 269.279622 -218.151232 
L 269.369 -219.959849 
L 269.452853 -221.768466 
L 269.529628 -223.577083 
L 269.598281 -225.3857 
L 269.658277 -227.194317 
L 269.709546 -229.002933 
L 269.752408 -230.81155 
L 270.044467 -230.81155 
L 270.044467 -230.81155 
L 270.087329 -229.002933 
L 270.138598 -227.194317 
L 270.198594 -225.3857 
L 270.267247 -223.577083 
L 270.344022 -221.768466 
L 270.427875 -219.959849 
L 270.517253 -218.151232 
L 270.610151 -216.342615 
L 270.704221 -214.533999 
L 270.796933 -212.725382 
L 270.885788 -210.916765 
L 270.968538 -209.108148 
L 271.043418 -207.299531 
L 271.109342 -205.490914 
L 271.166048 -203.682297 
L 271.214175 -201.87368 
L 271.255259 -200.065064 
L 271.29165 -198.256447 
L 271.326374 -196.44783 
L 271.362946 -194.639213 
L 271.405178 -192.830596 
L 271.457004 -191.021979 
L 271.522334 -189.213362 
L 271.604974 -187.404745 
L 271.708578 -185.596129 
L 271.836647 -183.787512 
L 271.992535 -181.978895 
L 272.179433 -180.170278 
L 272.400318 -178.361661 
L 272.657828 -176.553044 
L 272.954078 -174.744427 
L 273.290421 -172.93581 
L 273.667178 -171.127194 
L 274.083398 -169.318577 
L 274.536673 -167.50996 
L 275.023071 -165.701343 
L 275.537214 -163.892726 
L 276.072509 -162.084109 
L 276.621526 -160.275492 
L 277.176497 -158.466876 
L 277.729857 -156.658259 
L 278.274789 -154.849642 
L 278.805686 -153.041025 
L 279.318482 -151.232408 
L 279.810802 -149.423791 
L 280.281924 -147.615174 
L 280.732555 -145.806557 
L 281.164452 -143.997941 
L 281.579934 -142.189324 
L 281.98134 -140.380707 
L 282.370491 -138.57209 
L 282.748194 -136.763473 
L 283.113839 -134.954856 
L 283.465109 -133.146239 
L 283.797829 -131.337622 
L 284.105956 -129.529006 
L 284.381725 -127.720389 
L 284.615946 -125.911772 
L 284.798442 -124.103155 
L 284.918631 -122.294538 
L 284.966193 -120.485921 
L 284.931814 -118.677304 
L 284.807934 -116.868687 
L 284.589438 -115.060071 
L 284.274227 -113.251454 
L 283.863609 -111.442837 
L 283.362446 -109.63422 
L 282.779053 -107.825603 
L 282.124829 -106.016986 
L 281.413656 -104.208369 
L 280.661114 -102.399753 
L 279.883584 -100.591136 
L 279.097332 -98.782519 
L 278.317631 -96.973902 
L 277.558022 -95.165285 
L 276.829755 -93.356668 
L 276.141445 -91.548051 
L 275.49896 -89.739434 
L 274.905519 -87.930818 
L 274.361977 -86.122201 
L 273.867236 -84.313584 
L 273.418744 -82.504967 
L 273.013011 -80.69635 
L 272.646091 -78.887733 
L 272.314008 -77.079116 
L 272.013066 -75.270499 
L 271.740062 -73.461883 
L 271.492382 -71.653266 
L 271.268 -69.844649 
L 271.065402 -68.036032 
L 270.883458 -66.227415 
L 270.721283 -64.418798 
L 270.578083 -62.610181 
L 270.453041 -60.801564 
L 270.345227 -58.992948 
L 270.253549 -57.184331 
L 270.176744 -55.375714 
L 270.113404 -53.567097 
L 270.062014 -51.75848 
z
" id="m0cb7867f1f" style="stroke:#4c4c4c;stroke-width:1.5;"/>
    </defs>
    <g clip-path="url(#pd47e2c23a7)">
     <use style="fill:#cc8963;stroke:#4c4c4c;stroke-width:1.5;" x="0" xlink:href="#m0cb7867f1f" y="266.514844"/>
    </g>
   </g>
   <g id="PolyCollection_7">
    <defs>
     <path d="M 320.304833 -67.21119 
L 319.932042 -67.21119 
L 319.858975 -68.95307 
L 319.763227 -70.69495 
L 319.640047 -72.43683 
L 319.484431 -74.17871 
L 319.291329 -75.920591 
L 319.0559 -77.662471 
L 318.773784 -79.404351 
L 318.441379 -81.146231 
L 318.056099 -82.888111 
L 317.616581 -84.629991 
L 317.122824 -86.371871 
L 316.576255 -88.113751 
L 315.979723 -89.855631 
L 315.337423 -91.597511 
L 314.654782 -93.339391 
L 313.938331 -95.081271 
L 313.195571 -96.823151 
L 312.43486 -98.565031 
L 311.665308 -100.306912 
L 310.896676 -102.048792 
L 310.139246 -103.790672 
L 309.403645 -105.532552 
L 308.700593 -107.274432 
L 308.04057 -109.016312 
L 307.433417 -110.758192 
L 306.887903 -112.500072 
L 306.411303 -114.241952 
L 306.009062 -115.983832 
L 305.684581 -117.725712 
L 305.439184 -119.467592 
L 305.272266 -121.209472 
L 305.181617 -122.951352 
L 305.163851 -124.693232 
L 305.214888 -126.435113 
L 305.330389 -128.176993 
L 305.506067 -129.918873 
L 305.737822 -131.660753 
L 306.021681 -133.402633 
L 306.353554 -135.144513 
L 306.728882 -136.886393 
L 307.142254 -138.628273 
L 307.587109 -140.370153 
L 308.05561 -142.112033 
L 308.538758 -143.853913 
L 309.026782 -145.595793 
L 309.509757 -147.337673 
L 309.978392 -149.079553 
L 310.424867 -150.821433 
L 310.843586 -152.563314 
L 311.231733 -154.305194 
L 311.589507 -156.047074 
L 311.920024 -157.788954 
L 312.228848 -159.530834 
L 312.523244 -161.272714 
L 312.811238 -163.014594 
L 313.100613 -164.756474 
L 313.397988 -166.498354 
L 313.70808 -168.240234 
L 314.033252 -169.982114 
L 314.373363 -171.723994 
L 314.725931 -173.465874 
L 315.08654 -175.207754 
L 315.449432 -176.949634 
L 315.808163 -178.691515 
L 316.156254 -180.433395 
L 316.487756 -182.175275 
L 316.797664 -183.917155 
L 317.082182 -185.659035 
L 317.338828 -187.400915 
L 317.566412 -189.142795 
L 317.764927 -190.884675 
L 317.935386 -192.626555 
L 318.079655 -194.368435 
L 318.200282 -196.110315 
L 318.300354 -197.852195 
L 318.383362 -199.594075 
L 318.453068 -201.335955 
L 318.513376 -203.077836 
L 318.56817 -204.819716 
L 318.621144 -206.561596 
L 318.675616 -208.303476 
L 318.734348 -210.045356 
L 318.799385 -211.787236 
L 318.871944 -213.529116 
L 318.952364 -215.270996 
L 319.040125 -217.012876 
L 319.133947 -218.754756 
L 319.231946 -220.496636 
L 319.331836 -222.238516 
L 319.431158 -223.980396 
L 319.527494 -225.722276 
L 319.618669 -227.464156 
L 319.702896 -229.206037 
L 319.778871 -230.947917 
L 319.845813 -232.689797 
L 319.903448 -234.431677 
L 319.951949 -236.173557 
L 319.991855 -237.915437 
L 320.023963 -239.657317 
L 320.212912 -239.657317 
L 320.212912 -239.657317 
L 320.24502 -237.915437 
L 320.284926 -236.173557 
L 320.333427 -234.431677 
L 320.391062 -232.689797 
L 320.458004 -230.947917 
L 320.533979 -229.206037 
L 320.618206 -227.464156 
L 320.709381 -225.722276 
L 320.805717 -223.980396 
L 320.905039 -222.238516 
L 321.004929 -220.496636 
L 321.102928 -218.754756 
L 321.19675 -217.012876 
L 321.284511 -215.270996 
L 321.364931 -213.529116 
L 321.43749 -211.787236 
L 321.502527 -210.045356 
L 321.561259 -208.303476 
L 321.615731 -206.561596 
L 321.668705 -204.819716 
L 321.723499 -203.077836 
L 321.783807 -201.335955 
L 321.853513 -199.594075 
L 321.936521 -197.852195 
L 322.036593 -196.110315 
L 322.15722 -194.368435 
L 322.301489 -192.626555 
L 322.471948 -190.884675 
L 322.670463 -189.142795 
L 322.898047 -187.400915 
L 323.154693 -185.659035 
L 323.439211 -183.917155 
L 323.749119 -182.175275 
L 324.080621 -180.433395 
L 324.428712 -178.691515 
L 324.787443 -176.949634 
L 325.150335 -175.207754 
L 325.510944 -173.465874 
L 325.863512 -171.723994 
L 326.203623 -169.982114 
L 326.528795 -168.240234 
L 326.838887 -166.498354 
L 327.136262 -164.756474 
L 327.425637 -163.014594 
L 327.713631 -161.272714 
L 328.008027 -159.530834 
L 328.316851 -157.788954 
L 328.647368 -156.047074 
L 329.005142 -154.305194 
L 329.393289 -152.563314 
L 329.812008 -150.821433 
L 330.258483 -149.079553 
L 330.727118 -147.337673 
L 331.210093 -145.595793 
L 331.698117 -143.853913 
L 332.181265 -142.112033 
L 332.649766 -140.370153 
L 333.094621 -138.628273 
L 333.507993 -136.886393 
L 333.883321 -135.144513 
L 334.215194 -133.402633 
L 334.499053 -131.660753 
L 334.730808 -129.918873 
L 334.906486 -128.176993 
L 335.021987 -126.435113 
L 335.073024 -124.693232 
L 335.055258 -122.951352 
L 334.964609 -121.209472 
L 334.797691 -119.467592 
L 334.552294 -117.725712 
L 334.227813 -115.983832 
L 333.825572 -114.241952 
L 333.348972 -112.500072 
L 332.803458 -110.758192 
L 332.196305 -109.016312 
L 331.536282 -107.274432 
L 330.83323 -105.532552 
L 330.097629 -103.790672 
L 329.340199 -102.048792 
L 328.571567 -100.306912 
L 327.802015 -98.565031 
L 327.041304 -96.823151 
L 326.298544 -95.081271 
L 325.582093 -93.339391 
L 324.899452 -91.597511 
L 324.257152 -89.855631 
L 323.66062 -88.113751 
L 323.114051 -86.371871 
L 322.620294 -84.629991 
L 322.180776 -82.888111 
L 321.795496 -81.146231 
L 321.463091 -79.404351 
L 321.180975 -77.662471 
L 320.945546 -75.920591 
L 320.752444 -74.17871 
L 320.596828 -72.43683 
L 320.473648 -70.69495 
L 320.3779 -68.95307 
L 320.304833 -67.21119 
z
" id="maf2c3e7d65" style="stroke:#4c4c4c;stroke-width:1.5;"/>
    </defs>
    <g clip-path="url(#pd47e2c23a7)">
     <use style="fill:#5875a4;stroke:#4c4c4c;stroke-width:1.5;" x="0" xlink:href="#maf2c3e7d65" y="266.514844"/>
    </g>
   </g>
   <g id="PolyCollection_8">
    <defs>
     <path d="M 354.217458 -72.228027 
L 352.979417 -72.228027 
L 352.83328 -73.546589 
L 352.66099 -74.865152 
L 352.459922 -76.183714 
L 352.227627 -77.502277 
L 351.961927 -78.820839 
L 351.661014 -80.139401 
L 351.323536 -81.457964 
L 350.948678 -82.776526 
L 350.53622 -84.095089 
L 350.086575 -85.413651 
L 349.6008 -86.732214 
L 349.080589 -88.050776 
L 348.528228 -89.369339 
L 347.946547 -90.687901 
L 347.338841 -92.006463 
L 346.708792 -93.325026 
L 346.060396 -94.643588 
L 345.397886 -95.962151 
L 344.725682 -97.280713 
L 344.048361 -98.599276 
L 343.370641 -99.917838 
L 342.697398 -101.236401 
L 342.033686 -102.554963 
L 341.384776 -103.873525 
L 340.75618 -105.192088 
L 340.153668 -106.51065 
L 339.583252 -107.829213 
L 339.051129 -109.147775 
L 338.56358 -110.466338 
L 338.126825 -111.7849 
L 337.746825 -113.103462 
L 337.42905 -114.422025 
L 337.178231 -115.740587 
L 336.9981 -117.05915 
L 336.89115 -118.377712 
L 336.858438 -119.696275 
L 336.89944 -121.014837 
L 337.011992 -122.3334 
L 337.19231 -123.651962 
L 337.435101 -124.970524 
L 337.733761 -126.289087 
L 338.080653 -127.607649 
L 338.467434 -128.926212 
L 338.885422 -130.244774 
L 339.325964 -131.563337 
L 339.780794 -132.881899 
L 340.242338 -134.200462 
L 340.703965 -135.519024 
L 341.160151 -136.837586 
L 341.606563 -138.156149 
L 342.040055 -139.474711 
L 342.458587 -140.793274 
L 342.861082 -142.111836 
L 343.247229 -143.430399 
L 343.617271 -144.748961 
L 343.971785 -146.067524 
L 344.311475 -147.386086 
L 344.637007 -148.704648 
L 344.948884 -150.023211 
L 345.24738 -151.341773 
L 345.532524 -152.660336 
L 345.80414 -153.978898 
L 346.061929 -155.297461 
L 346.305582 -156.616023 
L 346.534904 -157.934585 
L 346.749947 -159.253148 
L 346.951124 -160.57171 
L 347.139295 -161.890273 
L 347.315815 -163.208835 
L 347.482545 -164.527398 
L 347.641812 -165.84596 
L 347.796322 -167.164523 
L 347.949046 -168.483085 
L 348.103065 -169.801647 
L 348.261405 -171.12021 
L 348.426868 -172.438772 
L 348.601862 -173.757335 
L 348.788263 -175.075897 
L 348.987301 -176.39446 
L 349.199484 -177.713022 
L 349.424568 -179.031585 
L 349.661574 -180.350147 
L 349.90884 -181.668709 
L 350.164115 -182.987272 
L 350.424688 -184.305834 
L 350.687527 -185.624397 
L 350.949434 -186.942959 
L 351.207206 -188.261522 
L 351.457772 -189.580084 
L 351.698327 -190.898646 
L 351.926431 -192.217209 
L 352.140088 -193.535771 
L 352.337789 -194.854334 
L 352.51853 -196.172896 
L 352.681801 -197.491459 
L 352.827553 -198.810021 
L 352.956148 -200.128584 
L 353.068294 -201.447146 
L 353.164973 -202.765708 
L 354.031902 -202.765708 
L 354.031902 -202.765708 
L 354.128581 -201.447146 
L 354.240727 -200.128584 
L 354.369322 -198.810021 
L 354.515074 -197.491459 
L 354.678345 -196.172896 
L 354.859086 -194.854334 
L 355.056787 -193.535771 
L 355.270444 -192.217209 
L 355.498548 -190.898646 
L 355.739103 -189.580084 
L 355.989669 -188.261522 
L 356.247441 -186.942959 
L 356.509348 -185.624397 
L 356.772187 -184.305834 
L 357.03276 -182.987272 
L 357.288035 -181.668709 
L 357.535301 -180.350147 
L 357.772307 -179.031585 
L 357.997391 -177.713022 
L 358.209574 -176.39446 
L 358.408612 -175.075897 
L 358.595013 -173.757335 
L 358.770007 -172.438772 
L 358.93547 -171.12021 
L 359.09381 -169.801647 
L 359.247829 -168.483085 
L 359.400553 -167.164523 
L 359.555063 -165.84596 
L 359.71433 -164.527398 
L 359.88106 -163.208835 
L 360.05758 -161.890273 
L 360.245751 -160.57171 
L 360.446928 -159.253148 
L 360.661971 -157.934585 
L 360.891293 -156.616023 
L 361.134946 -155.297461 
L 361.392735 -153.978898 
L 361.664351 -152.660336 
L 361.949495 -151.341773 
L 362.247991 -150.023211 
L 362.559868 -148.704648 
L 362.8854 -147.386086 
L 363.22509 -146.067524 
L 363.579604 -144.748961 
L 363.949646 -143.430399 
L 364.335793 -142.111836 
L 364.738288 -140.793274 
L 365.15682 -139.474711 
L 365.590312 -138.156149 
L 366.036724 -136.837586 
L 366.49291 -135.519024 
L 366.954537 -134.200462 
L 367.416081 -132.881899 
L 367.870911 -131.563337 
L 368.311453 -130.244774 
L 368.729441 -128.926212 
L 369.116222 -127.607649 
L 369.463114 -126.289087 
L 369.761774 -124.970524 
L 370.004565 -123.651962 
L 370.184883 -122.3334 
L 370.297435 -121.014837 
L 370.338438 -119.696275 
L 370.305725 -118.377712 
L 370.198775 -117.05915 
L 370.018644 -115.740587 
L 369.767825 -114.422025 
L 369.45005 -113.103462 
L 369.07005 -111.7849 
L 368.633295 -110.466338 
L 368.145746 -109.147775 
L 367.613623 -107.829213 
L 367.043207 -106.51065 
L 366.440695 -105.192088 
L 365.812099 -103.873525 
L 365.163189 -102.554963 
L 364.499477 -101.236401 
L 363.826234 -99.917838 
L 363.148514 -98.599276 
L 362.471193 -97.280713 
L 361.798989 -95.962151 
L 361.136479 -94.643588 
L 360.488083 -93.325026 
L 359.858034 -92.006463 
L 359.250328 -90.687901 
L 358.668647 -89.369339 
L 358.116286 -88.050776 
L 357.596075 -86.732214 
L 357.1103 -85.413651 
L 356.660655 -84.095089 
L 356.248197 -82.776526 
L 355.873339 -81.457964 
L 355.535861 -80.139401 
L 355.234948 -78.820839 
L 354.969248 -77.502277 
L 354.736953 -76.183714 
L 354.535885 -74.865152 
L 354.363595 -73.546589 
L 354.217458 -72.228027 
z
" id="maf86e2030a" style="stroke:#4c4c4c;stroke-width:1.5;"/>
    </defs>
    <g clip-path="url(#pd47e2c23a7)">
     <use style="fill:#cc8963;stroke:#4c4c4c;stroke-width:1.5;" x="0" xlink:href="#maf86e2030a" y="266.514844"/>
    </g>
   </g>
   <g id="patch_3">
    <path clip-path="url(#pd47e2c23a7)" d="M 85.758438 196.721682 
L 85.758438 196.721682 
L 85.758438 196.721682 
L 85.758438 196.721682 
z
" style="fill:#5875a4;stroke:#4c4c4c;stroke-linejoin:miter;stroke-width:0.75;"/>
   </g>
   <g id="patch_4">
    <path clip-path="url(#pd47e2c23a7)" d="M 85.758438 196.721682 
L 85.758438 196.721682 
L 85.758438 196.721682 
L 85.758438 196.721682 
z
" style="fill:#cc8963;stroke:#4c4c4c;stroke-linejoin:miter;stroke-width:0.75;"/>
   </g>
   <g id="line2d_12">
    <path clip-path="url(#pd47e2c23a7)" d="M 69.018438 174.053165 
L 69.018438 93.189042 
" style="fill:none;stroke:#4c4c4c;stroke-linecap:round;stroke-width:1.5;"/>
   </g>
   <g id="line2d_13">
    <path clip-path="url(#pd47e2c23a7)" d="M 69.018438 155.376541 
L 69.018438 129.229267 
" style="fill:none;stroke:#4c4c4c;stroke-linecap:round;stroke-width:4.5;"/>
   </g>
   <g id="line2d_14">
    <path clip-path="url(#pd47e2c23a7)" d="M 102.498438 171.517672 
L 102.498438 115.072763 
" style="fill:none;stroke:#4c4c4c;stroke-linecap:round;stroke-width:1.5;"/>
   </g>
   <g id="line2d_15">
    <path clip-path="url(#pd47e2c23a7)" d="M 102.498438 160.009853 
L 102.498438 140.352234 
" style="fill:none;stroke:#4c4c4c;stroke-linecap:round;stroke-width:4.5;"/>
   </g>
   <g id="line2d_16">
    <path clip-path="url(#pd47e2c23a7)" d="M 152.718438 170.82343 
L 152.718438 75.470774 
" style="fill:none;stroke:#4c4c4c;stroke-linecap:round;stroke-width:1.5;"/>
   </g>
   <g id="line2d_17">
    <path clip-path="url(#pd47e2c23a7)" d="M 152.718438 159.791016 
L 152.718438 117.993108 
" style="fill:none;stroke:#4c4c4c;stroke-linecap:round;stroke-width:4.5;"/>
   </g>
   <g id="line2d_18">
    <path clip-path="url(#pd47e2c23a7)" d="M 186.198438 179.365627 
L 186.198438 128.052074 
" style="fill:none;stroke:#4c4c4c;stroke-linecap:round;stroke-width:1.5;"/>
   </g>
   <g id="line2d_19">
    <path clip-path="url(#pd47e2c23a7)" d="M 186.198438 162.462339 
L 186.198438 147.611593 
" style="fill:none;stroke:#4c4c4c;stroke-linecap:round;stroke-width:4.5;"/>
   </g>
   <g id="line2d_20">
    <path clip-path="url(#pd47e2c23a7)" d="M 236.418438 173.358923 
L 236.418438 77.734607 
" style="fill:none;stroke:#4c4c4c;stroke-linecap:round;stroke-width:1.5;"/>
   </g>
   <g id="line2d_21">
    <path clip-path="url(#pd47e2c23a7)" d="M 236.418438 154.750214 
L 236.418438 123.780975 
" style="fill:none;stroke:#4c4c4c;stroke-linecap:round;stroke-width:4.5;"/>
   </g>
   <g id="line2d_22">
    <path clip-path="url(#pd47e2c23a7)" d="M 269.898438 187.455058 
L 269.898438 88.570822 
" style="fill:none;stroke:#4c4c4c;stroke-linecap:round;stroke-width:1.5;"/>
   </g>
   <g id="line2d_23">
    <path clip-path="url(#pd47e2c23a7)" d="M 269.898438 154.312539 
L 269.898438 119.562699 
" style="fill:none;stroke:#4c4c4c;stroke-linecap:round;stroke-width:4.5;"/>
   </g>
   <g id="line2d_24">
    <path clip-path="url(#pd47e2c23a7)" d="M 320.118438 174.837961 
L 320.118438 74.323765 
" style="fill:none;stroke:#4c4c4c;stroke-linecap:round;stroke-width:1.5;"/>
   </g>
   <g id="line2d_25">
    <path clip-path="url(#pd47e2c23a7)" d="M 320.118438 151.037527 
L 320.118438 116.581986 
" style="fill:none;stroke:#4c4c4c;stroke-linecap:round;stroke-width:4.5;"/>
   </g>
   <g id="line2d_26">
    <path clip-path="url(#pd47e2c23a7)" d="M 353.598438 167.744617 
L 353.598438 90.291336 
" style="fill:none;stroke:#4c4c4c;stroke-linecap:round;stroke-width:1.5;"/>
   </g>
   <g id="line2d_27">
    <path clip-path="url(#pd47e2c23a7)" d="M 353.598438 150.91679 
L 353.598438 121.569965 
" style="fill:none;stroke:#4c4c4c;stroke-linecap:round;stroke-width:4.5;"/>
   </g>
   <g id="patch_5">
    <path d="M 43.908438 224.64 
L 43.908438 7.2 
" style="fill:none;stroke:#262626;stroke-linecap:square;stroke-linejoin:miter;stroke-width:1.25;"/>
   </g>
   <g id="patch_6">
    <path d="M 378.708438 224.64 
L 378.708438 7.2 
" style="fill:none;stroke:#262626;stroke-linecap:square;stroke-linejoin:miter;stroke-width:1.25;"/>
   </g>
   <g id="patch_7">
    <path d="M 43.908438 224.64 
L 378.708438 224.64 
" style="fill:none;stroke:#262626;stroke-linecap:square;stroke-linejoin:miter;stroke-width:1.25;"/>
   </g>
   <g id="patch_8">
    <path d="M 43.908438 7.2 
L 378.708438 7.2 
" style="fill:none;stroke:#262626;stroke-linecap:square;stroke-linejoin:miter;stroke-width:1.25;"/>
   </g>
   <g id="PathCollection_1">
    <defs>
     <path d="M 0 1.5 
C 0.397805 1.5 0.77937 1.341951 1.06066 1.06066 
C 1.341951 0.77937 1.5 0.397805 1.5 0 
C 1.5 -0.397805 1.341951 -0.77937 1.06066 -1.06066 
C 0.77937 -1.341951 0.397805 -1.5 0 -1.5 
C -0.397805 -1.5 -0.77937 -1.341951 -1.06066 -1.06066 
C -1.341951 -0.77937 -1.5 -0.397805 -1.5 0 
C -1.5 0.397805 -1.341951 0.77937 -1.06066 1.06066 
C -0.77937 1.341951 -0.397805 1.5 0 1.5 
z
" id="m13acd24a23" style="stroke:#4c4c4c;"/>
    </defs>
    <g clip-path="url(#pd47e2c23a7)">
     <use style="fill:#ffffff;stroke:#4c4c4c;" x="69.018438" xlink:href="#m13acd24a23" y="145.48359"/>
    </g>
   </g>
   <g id="PathCollection_2">
    <g clip-path="url(#pd47e2c23a7)">
     <use style="fill:#ffffff;stroke:#4c4c4c;" x="102.498438" xlink:href="#m13acd24a23" y="155.112427"/>
    </g>
   </g>
   <g id="PathCollection_3">
    <g clip-path="url(#pd47e2c23a7)">
     <use style="fill:#ffffff;stroke:#4c4c4c;" x="152.718438" xlink:href="#m13acd24a23" y="144.759163"/>
    </g>
   </g>
   <g id="PathCollection_4">
    <g clip-path="url(#pd47e2c23a7)">
     <use style="fill:#ffffff;stroke:#4c4c4c;" x="186.198438" xlink:href="#m13acd24a23" y="150.298008"/>
    </g>
   </g>
   <g id="PathCollection_5">
    <g clip-path="url(#pd47e2c23a7)">
     <use style="fill:#ffffff;stroke:#4c4c4c;" x="236.418438" xlink:href="#m13acd24a23" y="141.665258"/>
    </g>
   </g>
   <g id="PathCollection_6">
    <g clip-path="url(#pd47e2c23a7)">
     <use style="fill:#ffffff;stroke:#4c4c4c;" x="269.898438" xlink:href="#m13acd24a23" y="141.303044"/>
    </g>
   </g>
   <g id="PathCollection_7">
    <g clip-path="url(#pd47e2c23a7)">
     <use style="fill:#ffffff;stroke:#4c4c4c;" x="320.118438" xlink:href="#m13acd24a23" y="134.164424"/>
    </g>
   </g>
   <g id="PathCollection_8">
    <g clip-path="url(#pd47e2c23a7)">
     <use style="fill:#ffffff;stroke:#4c4c4c;" x="353.598438" xlink:href="#m13acd24a23" y="144.170567"/>
    </g>
   </g>
   <g id="legend_1">
    <g id="patch_9">
     <path d="M 299.132031 63.594062 
L 371.008438 63.594062 
Q 373.208438 63.594062 373.208438 61.394062 
L 373.208438 14.9 
Q 373.208438 12.7 371.008438 12.7 
L 299.132031 12.7 
Q 296.932031 12.7 296.932031 14.9 
L 296.932031 61.394062 
Q 296.932031 63.594062 299.132031 63.594062 
z
" style="fill:#ffffff;opacity:0.8;stroke:#cccccc;stroke-linejoin:miter;"/>
    </g>
    <g id="text_14">
     <!-- sex -->
     <g style="fill:#262626;" transform="translate(325.733672 25.689375)scale(0.12 -0.12)">
      <defs>
       <path d="M 3.078125 15.484375 
L 11.765625 16.84375 
Q 12.5 11.625 15.84375 8.84375 
Q 19.1875 6.0625 25.203125 6.0625 
Q 31.25 6.0625 34.171875 8.515625 
Q 37.109375 10.984375 37.109375 14.3125 
Q 37.109375 17.28125 34.515625 19 
Q 32.71875 20.171875 25.53125 21.96875 
Q 15.875 24.421875 12.140625 26.203125 
Q 8.40625 27.984375 6.46875 31.125 
Q 4.546875 34.28125 4.546875 38.09375 
Q 4.546875 41.546875 6.125 44.5 
Q 7.71875 47.46875 10.453125 49.421875 
Q 12.5 50.921875 16.03125 51.96875 
Q 19.578125 53.03125 23.640625 53.03125 
Q 29.734375 53.03125 34.34375 51.265625 
Q 38.96875 49.515625 41.15625 46.5 
Q 43.359375 43.5 44.1875 38.484375 
L 35.59375 37.3125 
Q 35.015625 41.3125 32.203125 43.546875 
Q 29.390625 45.796875 24.265625 45.796875 
Q 18.21875 45.796875 15.625 43.796875 
Q 13.03125 41.796875 13.03125 39.109375 
Q 13.03125 37.40625 14.109375 36.03125 
Q 15.1875 34.625 17.484375 33.6875 
Q 18.796875 33.203125 25.25 31.453125 
Q 34.578125 28.953125 38.25 27.359375 
Q 41.9375 25.78125 44.03125 22.75 
Q 46.140625 19.734375 46.140625 15.234375 
Q 46.140625 10.84375 43.578125 6.953125 
Q 41.015625 3.078125 36.171875 0.953125 
Q 31.34375 -1.171875 25.25 -1.171875 
Q 15.140625 -1.171875 9.84375 3.03125 
Q 4.546875 7.234375 3.078125 15.484375 
z
" id="ArialMT-115"/>
       <path d="M 42.09375 16.703125 
L 51.171875 15.578125 
Q 49.03125 7.625 43.21875 3.21875 
Q 37.40625 -1.171875 28.375 -1.171875 
Q 17 -1.171875 10.328125 5.828125 
Q 3.65625 12.84375 3.65625 25.484375 
Q 3.65625 38.578125 10.390625 45.796875 
Q 17.140625 53.03125 27.875 53.03125 
Q 38.28125 53.03125 44.875 45.953125 
Q 51.46875 38.875 51.46875 26.03125 
Q 51.46875 25.25 51.421875 23.6875 
L 12.75 23.6875 
Q 13.234375 15.140625 17.578125 10.59375 
Q 21.921875 6.0625 28.421875 6.0625 
Q 33.25 6.0625 36.671875 8.59375 
Q 40.09375 11.140625 42.09375 16.703125 
z
M 13.234375 30.90625 
L 42.1875 30.90625 
Q 41.609375 37.453125 38.875 40.71875 
Q 34.671875 45.796875 27.984375 45.796875 
Q 21.921875 45.796875 17.796875 41.75 
Q 13.671875 37.703125 13.234375 30.90625 
z
" id="ArialMT-101"/>
       <path d="M 0.734375 0 
L 19.671875 26.953125 
L 2.15625 51.859375 
L 13.140625 51.859375 
L 21.09375 39.703125 
Q 23.34375 36.234375 24.703125 33.890625 
Q 26.859375 37.109375 28.65625 39.59375 
L 37.40625 51.859375 
L 47.90625 51.859375 
L 29.984375 27.4375 
L 49.265625 0 
L 38.484375 0 
L 27.828125 16.109375 
L 25 20.453125 
L 11.375 0 
z
" id="ArialMT-120"/>
      </defs>
      <use xlink:href="#ArialMT-115"/>
      <use x="50" xlink:href="#ArialMT-101"/>
      <use x="105.615234" xlink:href="#ArialMT-120"/>
     </g>
    </g>
    <g id="patch_10">
     <path d="M 301.332031 41.447969 
L 323.332031 41.447969 
L 323.332031 33.747969 
L 301.332031 33.747969 
z
" style="fill:#5875a4;stroke:#4c4c4c;stroke-linejoin:miter;stroke-width:0.75;"/>
    </g>
    <g id="text_15">
     <!-- Male -->
     <g style="fill:#262626;" transform="translate(332.132031 41.447969)scale(0.11 -0.11)">
      <defs>
       <path d="M 7.421875 0 
L 7.421875 71.578125 
L 21.6875 71.578125 
L 38.625 20.90625 
Q 40.96875 13.8125 42.046875 10.296875 
Q 43.265625 14.203125 45.84375 21.78125 
L 62.984375 71.578125 
L 75.734375 71.578125 
L 75.734375 0 
L 66.609375 0 
L 66.609375 59.90625 
L 45.796875 0 
L 37.25 0 
L 16.546875 60.9375 
L 16.546875 0 
z
" id="ArialMT-77"/>
      </defs>
      <use xlink:href="#ArialMT-77"/>
      <use x="83.300781" xlink:href="#ArialMT-97"/>
      <use x="138.916016" xlink:href="#ArialMT-108"/>
      <use x="161.132812" xlink:href="#ArialMT-101"/>
     </g>
    </g>
    <g id="patch_11">
     <path d="M 301.332031 57.007812 
L 323.332031 57.007812 
L 323.332031 49.307812 
L 301.332031 49.307812 
z
" style="fill:#cc8963;stroke:#4c4c4c;stroke-linejoin:miter;stroke-width:0.75;"/>
    </g>
    <g id="text_16">
     <!-- Female -->
     <g style="fill:#262626;" transform="translate(332.132031 57.007812)scale(0.11 -0.11)">
      <defs>
       <path d="M 6.59375 0 
L 6.59375 51.859375 
L 14.453125 51.859375 
L 14.453125 44.578125 
Q 16.890625 48.390625 20.9375 50.703125 
Q 25 53.03125 30.171875 53.03125 
Q 35.9375 53.03125 39.625 50.640625 
Q 43.3125 48.25 44.828125 43.953125 
Q 50.984375 53.03125 60.84375 53.03125 
Q 68.5625 53.03125 72.703125 48.75 
Q 76.859375 44.484375 76.859375 35.59375 
L 76.859375 0 
L 68.109375 0 
L 68.109375 32.671875 
Q 68.109375 37.9375 67.25 40.25 
Q 66.40625 42.578125 64.15625 43.984375 
Q 61.921875 45.40625 58.890625 45.40625 
Q 53.421875 45.40625 49.796875 41.765625 
Q 46.1875 38.140625 46.1875 30.125 
L 46.1875 0 
L 37.40625 0 
L 37.40625 33.6875 
Q 37.40625 39.546875 35.25 42.46875 
Q 33.109375 45.40625 28.21875 45.40625 
Q 24.515625 45.40625 21.359375 43.453125 
Q 18.21875 41.5 16.796875 37.734375 
Q 15.375 33.984375 15.375 26.90625 
L 15.375 0 
z
" id="ArialMT-109"/>
      </defs>
      <use xlink:href="#ArialMT-70"/>
      <use x="61.083984" xlink:href="#ArialMT-101"/>
      <use x="116.699219" xlink:href="#ArialMT-109"/>
      <use x="200" xlink:href="#ArialMT-97"/>
      <use x="255.615234" xlink:href="#ArialMT-108"/>
      <use x="277.832031" xlink:href="#ArialMT-101"/>
     </g>
    </g>
   </g>
  </g>
 </g>
 <defs>
  <clipPath id="pd47e2c23a7">
   <rect height="217.44" width="334.8" x="43.908438" y="7.2"/>
  </clipPath>
 </defs>
</svg>
