<?xml version="1.0" encoding="utf-8" standalone="no"?>
<!DOCTYPE svg PUBLIC "-//W3C//DTD SVG 1.1//EN"
  "http://www.w3.org/Graphics/SVG/1.1/DTD/svg11.dtd">
<!-- Created with matplotlib (https://matplotlib.org/) -->
<svg height="266.514844pt" version="1.1" viewBox="0 0 385.908437 266.514844" width="385.908437pt" xmlns="http://www.w3.org/2000/svg" xmlns:xlink="http://www.w3.org/1999/xlink">
 <metadata>
  <rdf:RDF xmlns:cc="http://creativecommons.org/ns#" xmlns:dc="http://purl.org/dc/elements/1.1/" xmlns:rdf="http://www.w3.org/1999/02/22-rdf-syntax-ns#">
   <cc:Work>
    <dc:type rdf:resource="http://purl.org/dc/dcmitype/StillImage"/>
    <dc:date>2022-01-31T22:19:55.923275</dc:date>
    <dc:format>image/svg+xml</dc:format>
    <dc:creator>
     <cc:Agent>
      <dc:title>Matplotlib v3.3.4, https://matplotlib.org/</dc:title>
     </cc:Agent>
    </dc:creator>
   </cc:Work>
  </rdf:RDF>
 </metadata>
 <defs>
  <style type="text/css">*{stroke-linecap:butt;stroke-linejoin:round;}</style>
 </defs>
 <g id="figure_1">
  <g id="patch_1">
   <path d="M 0 266.514844 
L 385.908437 266.514844 
L 385.908437 0 
L 0 0 
z
" style="fill:#ffffff;"/>
  </g>
  <g id="axes_1">
   <g id="patch_2">
    <path d="M 43.908438 224.64 
L 378.708438 224.64 
L 378.708438 7.2 
L 43.908438 7.2 
z
" style="fill:#ffffff;"/>
   </g>
   <g id="matplotlib.axis_1">
    <g id="xtick_1">
     <g id="line2d_1">
      <defs>
       <path d="M 0 0 
L 0 6 
" id="mdae8fc3619" style="stroke:#262626;stroke-width:1.25;"/>
      </defs>
      <g>
       <use style="fill:#262626;stroke:#262626;stroke-width:1.25;" x="85.758438" xlink:href="#mdae8fc3619" y="224.64"/>
      </g>
     </g>
     <g id="text_1">
      <!-- Thur -->
      <g style="fill:#262626;" transform="translate(74.450781 242.013594)scale(0.11 -0.11)">
       <defs>
        <path d="M 25.921875 0 
L 25.921875 63.140625 
L 2.34375 63.140625 
L 2.34375 71.578125 
L 59.078125 71.578125 
L 59.078125 63.140625 
L 35.40625 63.140625 
L 35.40625 0 
z
" id="ArialMT-84"/>
        <path d="M 6.59375 0 
L 6.59375 71.578125 
L 15.375 71.578125 
L 15.375 45.90625 
Q 21.53125 53.03125 30.90625 53.03125 
Q 36.671875 53.03125 40.921875 50.75 
Q 45.171875 48.484375 47 44.484375 
Q 48.828125 40.484375 48.828125 32.859375 
L 48.828125 0 
L 40.046875 0 
L 40.046875 32.859375 
Q 40.046875 39.453125 37.1875 42.453125 
Q 34.328125 45.453125 29.109375 45.453125 
Q 25.203125 45.453125 21.75 43.421875 
Q 18.3125 41.40625 16.84375 37.9375 
Q 15.375 34.46875 15.375 28.375 
L 15.375 0 
z
" id="ArialMT-104"/>
        <path d="M 40.578125 0 
L 40.578125 7.625 
Q 34.515625 -1.171875 24.125 -1.171875 
Q 19.53125 -1.171875 15.546875 0.578125 
Q 11.578125 2.34375 9.640625 5 
Q 7.71875 7.671875 6.9375 11.53125 
Q 6.390625 14.109375 6.390625 19.734375 
L 6.390625 51.859375 
L 15.1875 51.859375 
L 15.1875 23.09375 
Q 15.1875 16.21875 15.71875 13.8125 
Q 16.546875 10.359375 19.234375 8.375 
Q 21.921875 6.390625 25.875 6.390625 
Q 29.828125 6.390625 33.296875 8.421875 
Q 36.765625 10.453125 38.203125 13.9375 
Q 39.65625 17.4375 39.65625 24.078125 
L 39.65625 51.859375 
L 48.4375 51.859375 
L 48.4375 0 
z
" id="ArialMT-117"/>
        <path d="M 6.5 0 
L 6.5 51.859375 
L 14.40625 51.859375 
L 14.40625 44 
Q 17.4375 49.515625 20 51.265625 
Q 22.5625 53.03125 25.640625 53.03125 
Q 30.078125 53.03125 34.671875 50.203125 
L 31.640625 42.046875 
Q 28.421875 43.953125 25.203125 43.953125 
Q 22.3125 43.953125 20.015625 42.21875 
Q 17.71875 40.484375 16.75 37.40625 
Q 15.28125 32.71875 15.28125 27.15625 
L 15.28125 0 
z
" id="ArialMT-114"/>
       </defs>
       <use xlink:href="#ArialMT-84"/>
       <use x="61.083984" xlink:href="#ArialMT-104"/>
       <use x="116.699219" xlink:href="#ArialMT-117"/>
       <use x="172.314453" xlink:href="#ArialMT-114"/>
      </g>
     </g>
    </g>
    <g id="xtick_2">
     <g id="line2d_2">
      <g>
       <use style="fill:#262626;stroke:#262626;stroke-width:1.25;" x="169.458438" xlink:href="#mdae8fc3619" y="224.64"/>
      </g>
     </g>
     <g id="text_2">
      <!-- Fri -->
      <g style="fill:#262626;" transform="translate(163.045781 242.013594)scale(0.11 -0.11)">
       <defs>
        <path d="M 8.203125 0 
L 8.203125 71.578125 
L 56.5 71.578125 
L 56.5 63.140625 
L 17.671875 63.140625 
L 17.671875 40.96875 
L 51.265625 40.96875 
L 51.265625 32.515625 
L 17.671875 32.515625 
L 17.671875 0 
z
" id="ArialMT-70"/>
        <path d="M 6.640625 61.46875 
L 6.640625 71.578125 
L 15.4375 71.578125 
L 15.4375 61.46875 
z
M 6.640625 0 
L 6.640625 51.859375 
L 15.4375 51.859375 
L 15.4375 0 
z
" id="ArialMT-105"/>
       </defs>
       <use xlink:href="#ArialMT-70"/>
       <use x="61.083984" xlink:href="#ArialMT-114"/>
       <use x="94.384766" xlink:href="#ArialMT-105"/>
      </g>
     </g>
    </g>
    <g id="xtick_3">
     <g id="line2d_3">
      <g>
       <use style="fill:#262626;stroke:#262626;stroke-width:1.25;" x="253.158438" xlink:href="#mdae8fc3619" y="224.64"/>
      </g>
     </g>
     <g id="text_3">
      <!-- Sat -->
      <g style="fill:#262626;" transform="translate(244.903281 242.013594)scale(0.11 -0.11)">
       <defs>
        <path d="M 4.5 23 
L 13.421875 23.78125 
Q 14.0625 18.40625 16.375 14.96875 
Q 18.703125 11.53125 23.578125 9.40625 
Q 28.46875 7.28125 34.578125 7.28125 
Q 39.984375 7.28125 44.140625 8.890625 
Q 48.296875 10.5 50.3125 13.296875 
Q 52.34375 16.109375 52.34375 19.4375 
Q 52.34375 22.796875 50.390625 25.3125 
Q 48.4375 27.828125 43.953125 29.546875 
Q 41.0625 30.671875 31.203125 33.03125 
Q 21.34375 35.40625 17.390625 37.5 
Q 12.25 40.1875 9.734375 44.15625 
Q 7.234375 48.140625 7.234375 53.078125 
Q 7.234375 58.5 10.296875 63.203125 
Q 13.375 67.921875 19.28125 70.359375 
Q 25.203125 72.796875 32.421875 72.796875 
Q 40.375 72.796875 46.453125 70.234375 
Q 52.546875 67.671875 55.8125 62.6875 
Q 59.078125 57.71875 59.328125 51.421875 
L 50.25 50.734375 
Q 49.515625 57.515625 45.28125 60.984375 
Q 41.0625 64.453125 32.8125 64.453125 
Q 24.21875 64.453125 20.28125 61.296875 
Q 16.359375 58.15625 16.359375 53.71875 
Q 16.359375 49.859375 19.140625 47.359375 
Q 21.875 44.875 33.421875 42.265625 
Q 44.96875 39.65625 49.265625 37.703125 
Q 55.515625 34.8125 58.484375 30.390625 
Q 61.46875 25.984375 61.46875 20.21875 
Q 61.46875 14.5 58.203125 9.4375 
Q 54.9375 4.390625 48.796875 1.578125 
Q 42.671875 -1.21875 35.015625 -1.21875 
Q 25.296875 -1.21875 18.71875 1.609375 
Q 12.15625 4.4375 8.421875 10.125 
Q 4.6875 15.828125 4.5 23 
z
" id="ArialMT-83"/>
        <path d="M 40.4375 6.390625 
Q 35.546875 2.25 31.03125 0.53125 
Q 26.515625 -1.171875 21.34375 -1.171875 
Q 12.796875 -1.171875 8.203125 3 
Q 3.609375 7.171875 3.609375 13.671875 
Q 3.609375 17.484375 5.34375 20.625 
Q 7.078125 23.78125 9.890625 25.6875 
Q 12.703125 27.59375 16.21875 28.5625 
Q 18.796875 29.25 24.03125 29.890625 
Q 34.671875 31.15625 39.703125 32.90625 
Q 39.75 34.71875 39.75 35.203125 
Q 39.75 40.578125 37.25 42.78125 
Q 33.890625 45.75 27.25 45.75 
Q 21.046875 45.75 18.09375 43.578125 
Q 15.140625 41.40625 13.71875 35.890625 
L 5.125 37.0625 
Q 6.296875 42.578125 8.984375 45.96875 
Q 11.671875 49.359375 16.75 51.1875 
Q 21.828125 53.03125 28.515625 53.03125 
Q 35.15625 53.03125 39.296875 51.46875 
Q 43.453125 49.90625 45.40625 47.53125 
Q 47.359375 45.171875 48.140625 41.546875 
Q 48.578125 39.3125 48.578125 33.453125 
L 48.578125 21.734375 
Q 48.578125 9.46875 49.140625 6.21875 
Q 49.703125 2.984375 51.375 0 
L 42.1875 0 
Q 40.828125 2.734375 40.4375 6.390625 
z
M 39.703125 26.03125 
Q 34.90625 24.078125 25.34375 22.703125 
Q 19.921875 21.921875 17.671875 20.9375 
Q 15.4375 19.96875 14.203125 18.09375 
Q 12.984375 16.21875 12.984375 13.921875 
Q 12.984375 10.40625 15.640625 8.0625 
Q 18.3125 5.71875 23.4375 5.71875 
Q 28.515625 5.71875 32.46875 7.9375 
Q 36.421875 10.15625 38.28125 14.015625 
Q 39.703125 17 39.703125 22.796875 
z
" id="ArialMT-97"/>
        <path d="M 25.78125 7.859375 
L 27.046875 0.09375 
Q 23.34375 -0.6875 20.40625 -0.6875 
Q 15.625 -0.6875 12.984375 0.828125 
Q 10.359375 2.34375 9.28125 4.8125 
Q 8.203125 7.28125 8.203125 15.1875 
L 8.203125 45.015625 
L 1.765625 45.015625 
L 1.765625 51.859375 
L 8.203125 51.859375 
L 8.203125 64.703125 
L 16.9375 69.96875 
L 16.9375 51.859375 
L 25.78125 51.859375 
L 25.78125 45.015625 
L 16.9375 45.015625 
L 16.9375 14.703125 
Q 16.9375 10.9375 17.40625 9.859375 
Q 17.875 8.796875 18.921875 8.15625 
Q 19.96875 7.515625 21.921875 7.515625 
Q 23.390625 7.515625 25.78125 7.859375 
z
" id="ArialMT-116"/>
       </defs>
       <use xlink:href="#ArialMT-83"/>
       <use x="66.699219" xlink:href="#ArialMT-97"/>
       <use x="122.314453" xlink:href="#ArialMT-116"/>
      </g>
     </g>
    </g>
    <g id="xtick_4">
     <g id="line2d_4">
      <g>
       <use style="fill:#262626;stroke:#262626;stroke-width:1.25;" x="336.858438" xlink:href="#mdae8fc3619" y="224.64"/>
      </g>
     </g>
     <g id="text_4">
      <!-- Sun -->
      <g style="fill:#262626;" transform="translate(327.072734 242.013594)scale(0.11 -0.11)">
       <defs>
        <path d="M 6.59375 0 
L 6.59375 51.859375 
L 14.5 51.859375 
L 14.5 44.484375 
Q 20.21875 53.03125 31 53.03125 
Q 35.6875 53.03125 39.625 51.34375 
Q 43.5625 49.65625 45.515625 46.921875 
Q 47.46875 44.1875 48.25 40.4375 
Q 48.734375 37.984375 48.734375 31.890625 
L 48.734375 0 
L 39.9375 0 
L 39.9375 31.546875 
Q 39.9375 36.921875 38.90625 39.578125 
Q 37.890625 42.234375 35.28125 43.8125 
Q 32.671875 45.40625 29.15625 45.40625 
Q 23.53125 45.40625 19.453125 41.84375 
Q 15.375 38.28125 15.375 28.328125 
L 15.375 0 
z
" id="ArialMT-110"/>
       </defs>
       <use xlink:href="#ArialMT-83"/>
       <use x="66.699219" xlink:href="#ArialMT-117"/>
       <use x="122.314453" xlink:href="#ArialMT-110"/>
      </g>
     </g>
    </g>
    <g id="text_5">
     <!-- day -->
     <g style="fill:#262626;" transform="translate(201.635313 256.789219)scale(0.12 -0.12)">
      <defs>
       <path d="M 40.234375 0 
L 40.234375 6.546875 
Q 35.296875 -1.171875 25.734375 -1.171875 
Q 19.53125 -1.171875 14.328125 2.25 
Q 9.125 5.671875 6.265625 11.796875 
Q 3.421875 17.921875 3.421875 25.875 
Q 3.421875 33.640625 6 39.96875 
Q 8.59375 46.296875 13.765625 49.65625 
Q 18.953125 53.03125 25.34375 53.03125 
Q 30.03125 53.03125 33.6875 51.046875 
Q 37.359375 49.078125 39.65625 45.90625 
L 39.65625 71.578125 
L 48.390625 71.578125 
L 48.390625 0 
z
M 12.453125 25.875 
Q 12.453125 15.921875 16.640625 10.984375 
Q 20.84375 6.0625 26.5625 6.0625 
Q 32.328125 6.0625 36.34375 10.765625 
Q 40.375 15.484375 40.375 25.140625 
Q 40.375 35.796875 36.265625 40.765625 
Q 32.171875 45.75 26.171875 45.75 
Q 20.3125 45.75 16.375 40.96875 
Q 12.453125 36.1875 12.453125 25.875 
z
" id="ArialMT-100"/>
       <path d="M 6.203125 -19.96875 
L 5.21875 -11.71875 
Q 8.109375 -12.5 10.25 -12.5 
Q 13.1875 -12.5 14.9375 -11.515625 
Q 16.703125 -10.546875 17.828125 -8.796875 
Q 18.65625 -7.46875 20.515625 -2.25 
Q 20.75 -1.515625 21.296875 -0.09375 
L 1.609375 51.859375 
L 11.078125 51.859375 
L 21.875 21.828125 
Q 23.96875 16.109375 25.640625 9.8125 
Q 27.15625 15.875 29.25 21.625 
L 40.328125 51.859375 
L 49.125 51.859375 
L 29.390625 -0.875 
Q 26.21875 -9.421875 24.46875 -12.640625 
Q 22.125 -17 19.09375 -19.015625 
Q 16.0625 -21.046875 11.859375 -21.046875 
Q 9.328125 -21.046875 6.203125 -19.96875 
z
" id="ArialMT-121"/>
      </defs>
      <use xlink:href="#ArialMT-100"/>
      <use x="55.615234" xlink:href="#ArialMT-97"/>
      <use x="111.230469" xlink:href="#ArialMT-121"/>
     </g>
    </g>
   </g>
   <g id="matplotlib.axis_2">
    <g id="ytick_1">
     <g id="line2d_5">
      <defs>
       <path d="M 0 0 
L -6 0 
" id="m7750cccc13" style="stroke:#262626;stroke-width:1.25;"/>
      </defs>
      <g>
       <use style="fill:#262626;stroke:#262626;stroke-width:1.25;" x="43.908438" xlink:href="#m7750cccc13" y="200.096836"/>
      </g>
     </g>
     <g id="text_6">
      <!-- 0 -->
      <g style="fill:#262626;" transform="translate(28.291406 204.033633)scale(0.11 -0.11)">
       <defs>
        <path d="M 4.15625 35.296875 
Q 4.15625 48 6.765625 55.734375 
Q 9.375 63.484375 14.515625 67.671875 
Q 19.671875 71.875 27.484375 71.875 
Q 33.25 71.875 37.59375 69.546875 
Q 41.9375 67.234375 44.765625 62.859375 
Q 47.609375 58.5 49.21875 52.21875 
Q 50.828125 45.953125 50.828125 35.296875 
Q 50.828125 22.703125 48.234375 14.96875 
Q 45.65625 7.234375 40.5 3 
Q 35.359375 -1.21875 27.484375 -1.21875 
Q 17.140625 -1.21875 11.234375 6.203125 
Q 4.15625 15.140625 4.15625 35.296875 
z
M 13.1875 35.296875 
Q 13.1875 17.671875 17.3125 11.828125 
Q 21.4375 6 27.484375 6 
Q 33.546875 6 37.671875 11.859375 
Q 41.796875 17.71875 41.796875 35.296875 
Q 41.796875 52.984375 37.671875 58.78125 
Q 33.546875 64.59375 27.390625 64.59375 
Q 21.34375 64.59375 17.71875 59.46875 
Q 13.1875 52.9375 13.1875 35.296875 
z
" id="ArialMT-48"/>
       </defs>
       <use xlink:href="#ArialMT-48"/>
      </g>
     </g>
    </g>
    <g id="ytick_2">
     <g id="line2d_6">
      <g>
       <use style="fill:#262626;stroke:#262626;stroke-width:1.25;" x="43.908438" xlink:href="#m7750cccc13" y="168.850795"/>
      </g>
     </g>
     <g id="text_7">
      <!-- 10 -->
      <g style="fill:#262626;" transform="translate(22.174375 172.787592)scale(0.11 -0.11)">
       <defs>
        <path d="M 37.25 0 
L 28.46875 0 
L 28.46875 56 
Q 25.296875 52.984375 20.140625 49.953125 
Q 14.984375 46.921875 10.890625 45.40625 
L 10.890625 53.90625 
Q 18.265625 57.375 23.78125 62.296875 
Q 29.296875 67.234375 31.59375 71.875 
L 37.25 71.875 
z
" id="ArialMT-49"/>
       </defs>
       <use xlink:href="#ArialMT-49"/>
       <use x="55.615234" xlink:href="#ArialMT-48"/>
      </g>
     </g>
    </g>
    <g id="ytick_3">
     <g id="line2d_7">
      <g>
       <use style="fill:#262626;stroke:#262626;stroke-width:1.25;" x="43.908438" xlink:href="#m7750cccc13" y="137.604753"/>
      </g>
     </g>
     <g id="text_8">
      <!-- 20 -->
      <g style="fill:#262626;" transform="translate(22.174375 141.54155)scale(0.11 -0.11)">
       <defs>
        <path d="M 50.34375 8.453125 
L 50.34375 0 
L 3.03125 0 
Q 2.9375 3.171875 4.046875 6.109375 
Q 5.859375 10.9375 9.828125 15.625 
Q 13.8125 20.3125 21.34375 26.46875 
Q 33.015625 36.03125 37.109375 41.625 
Q 41.21875 47.21875 41.21875 52.203125 
Q 41.21875 57.421875 37.46875 61 
Q 33.734375 64.59375 27.734375 64.59375 
Q 21.390625 64.59375 17.578125 60.78125 
Q 13.765625 56.984375 13.71875 50.25 
L 4.6875 51.171875 
Q 5.609375 61.28125 11.65625 66.578125 
Q 17.71875 71.875 27.9375 71.875 
Q 38.234375 71.875 44.234375 66.15625 
Q 50.25 60.453125 50.25 52 
Q 50.25 47.703125 48.484375 43.546875 
Q 46.734375 39.40625 42.65625 34.8125 
Q 38.578125 30.21875 29.109375 22.21875 
Q 21.1875 15.578125 18.9375 13.203125 
Q 16.703125 10.84375 15.234375 8.453125 
z
" id="ArialMT-50"/>
       </defs>
       <use xlink:href="#ArialMT-50"/>
       <use x="55.615234" xlink:href="#ArialMT-48"/>
      </g>
     </g>
    </g>
    <g id="ytick_4">
     <g id="line2d_8">
      <g>
       <use style="fill:#262626;stroke:#262626;stroke-width:1.25;" x="43.908438" xlink:href="#m7750cccc13" y="106.358711"/>
      </g>
     </g>
     <g id="text_9">
      <!-- 30 -->
      <g style="fill:#262626;" transform="translate(22.174375 110.295508)scale(0.11 -0.11)">
       <defs>
        <path d="M 4.203125 18.890625 
L 12.984375 20.0625 
Q 14.5 12.59375 18.140625 9.296875 
Q 21.78125 6 27 6 
Q 33.203125 6 37.46875 10.296875 
Q 41.75 14.59375 41.75 20.953125 
Q 41.75 27 37.796875 30.921875 
Q 33.84375 34.859375 27.734375 34.859375 
Q 25.25 34.859375 21.53125 33.890625 
L 22.515625 41.609375 
Q 23.390625 41.5 23.921875 41.5 
Q 29.546875 41.5 34.03125 44.421875 
Q 38.53125 47.359375 38.53125 53.46875 
Q 38.53125 58.296875 35.25 61.46875 
Q 31.984375 64.65625 26.8125 64.65625 
Q 21.6875 64.65625 18.265625 61.421875 
Q 14.84375 58.203125 13.875 51.765625 
L 5.078125 53.328125 
Q 6.6875 62.15625 12.390625 67.015625 
Q 18.109375 71.875 26.609375 71.875 
Q 32.46875 71.875 37.390625 69.359375 
Q 42.328125 66.84375 44.9375 62.5 
Q 47.5625 58.15625 47.5625 53.265625 
Q 47.5625 48.640625 45.0625 44.828125 
Q 42.578125 41.015625 37.703125 38.765625 
Q 44.046875 37.3125 47.5625 32.6875 
Q 51.078125 28.078125 51.078125 21.140625 
Q 51.078125 11.765625 44.234375 5.25 
Q 37.40625 -1.265625 26.953125 -1.265625 
Q 17.53125 -1.265625 11.296875 4.34375 
Q 5.078125 9.96875 4.203125 18.890625 
z
" id="ArialMT-51"/>
       </defs>
       <use xlink:href="#ArialMT-51"/>
       <use x="55.615234" xlink:href="#ArialMT-48"/>
      </g>
     </g>
    </g>
    <g id="ytick_5">
     <g id="line2d_9">
      <g>
       <use style="fill:#262626;stroke:#262626;stroke-width:1.25;" x="43.908438" xlink:href="#m7750cccc13" y="75.112669"/>
      </g>
     </g>
     <g id="text_10">
      <!-- 40 -->
      <g style="fill:#262626;" transform="translate(22.174375 79.049466)scale(0.11 -0.11)">
       <defs>
        <path d="M 32.328125 0 
L 32.328125 17.140625 
L 1.265625 17.140625 
L 1.265625 25.203125 
L 33.9375 71.578125 
L 41.109375 71.578125 
L 41.109375 25.203125 
L 50.78125 25.203125 
L 50.78125 17.140625 
L 41.109375 17.140625 
L 41.109375 0 
z
M 32.328125 25.203125 
L 32.328125 57.46875 
L 9.90625 25.203125 
z
" id="ArialMT-52"/>
       </defs>
       <use xlink:href="#ArialMT-52"/>
       <use x="55.615234" xlink:href="#ArialMT-48"/>
      </g>
     </g>
    </g>
    <g id="ytick_6">
     <g id="line2d_10">
      <g>
       <use style="fill:#262626;stroke:#262626;stroke-width:1.25;" x="43.908438" xlink:href="#m7750cccc13" y="43.866628"/>
      </g>
     </g>
     <g id="text_11">
      <!-- 50 -->
      <g style="fill:#262626;" transform="translate(22.174375 47.803425)scale(0.11 -0.11)">
       <defs>
        <path d="M 4.15625 18.75 
L 13.375 19.53125 
Q 14.40625 12.796875 18.140625 9.390625 
Q 21.875 6 27.15625 6 
Q 33.5 6 37.890625 10.78125 
Q 42.28125 15.578125 42.28125 23.484375 
Q 42.28125 31 38.0625 35.34375 
Q 33.84375 39.703125 27 39.703125 
Q 22.75 39.703125 19.328125 37.765625 
Q 15.921875 35.84375 13.96875 32.765625 
L 5.71875 33.84375 
L 12.640625 70.609375 
L 48.25 70.609375 
L 48.25 62.203125 
L 19.671875 62.203125 
L 15.828125 42.96875 
Q 22.265625 47.46875 29.34375 47.46875 
Q 38.71875 47.46875 45.15625 40.96875 
Q 51.609375 34.46875 51.609375 24.265625 
Q 51.609375 14.546875 45.953125 7.46875 
Q 39.0625 -1.21875 27.15625 -1.21875 
Q 17.390625 -1.21875 11.203125 4.25 
Q 5.03125 9.71875 4.15625 18.75 
z
" id="ArialMT-53"/>
       </defs>
       <use xlink:href="#ArialMT-53"/>
       <use x="55.615234" xlink:href="#ArialMT-48"/>
      </g>
     </g>
    </g>
    <g id="ytick_7">
     <g id="line2d_11">
      <g>
       <use style="fill:#262626;stroke:#262626;stroke-width:1.25;" x="43.908438" xlink:href="#m7750cccc13" y="12.620586"/>
      </g>
     </g>
     <g id="text_12">
      <!-- 60 -->
      <g style="fill:#262626;" transform="translate(22.174375 16.557383)scale(0.11 -0.11)">
       <defs>
        <path d="M 49.75 54.046875 
L 41.015625 53.375 
Q 39.84375 58.546875 37.703125 60.890625 
Q 34.125 64.65625 28.90625 64.65625 
Q 24.703125 64.65625 21.53125 62.3125 
Q 17.390625 59.28125 14.984375 53.46875 
Q 12.59375 47.65625 12.5 36.921875 
Q 15.671875 41.75 20.265625 44.09375 
Q 24.859375 46.4375 29.890625 46.4375 
Q 38.671875 46.4375 44.84375 39.96875 
Q 51.03125 33.5 51.03125 23.25 
Q 51.03125 16.5 48.125 10.71875 
Q 45.21875 4.9375 40.140625 1.859375 
Q 35.0625 -1.21875 28.609375 -1.21875 
Q 17.625 -1.21875 10.6875 6.859375 
Q 3.765625 14.9375 3.765625 33.5 
Q 3.765625 54.25 11.421875 63.671875 
Q 18.109375 71.875 29.4375 71.875 
Q 37.890625 71.875 43.28125 67.140625 
Q 48.6875 62.40625 49.75 54.046875 
z
M 13.875 23.1875 
Q 13.875 18.65625 15.796875 14.5 
Q 17.71875 10.359375 21.1875 8.171875 
Q 24.65625 6 28.46875 6 
Q 34.03125 6 38.03125 10.484375 
Q 42.046875 14.984375 42.046875 22.703125 
Q 42.046875 30.125 38.078125 34.390625 
Q 34.125 38.671875 28.125 38.671875 
Q 22.171875 38.671875 18.015625 34.390625 
Q 13.875 30.125 13.875 23.1875 
z
" id="ArialMT-54"/>
       </defs>
       <use xlink:href="#ArialMT-54"/>
       <use x="55.615234" xlink:href="#ArialMT-48"/>
      </g>
     </g>
    </g>
    <g id="text_13">
     <!-- total_bill -->
     <g style="fill:#262626;" transform="translate(15.789375 137.9325)rotate(-90)scale(0.12 -0.12)">
      <defs>
       <path d="M 3.328125 25.921875 
Q 3.328125 40.328125 11.328125 47.265625 
Q 18.015625 53.03125 27.640625 53.03125 
Q 38.328125 53.03125 45.109375 46.015625 
Q 51.90625 39.015625 51.90625 26.65625 
Q 51.90625 16.65625 48.90625 10.90625 
Q 45.90625 5.171875 40.15625 2 
Q 34.421875 -1.171875 27.640625 -1.171875 
Q 16.75 -1.171875 10.03125 5.8125 
Q 3.328125 12.796875 3.328125 25.921875 
z
M 12.359375 25.921875 
Q 12.359375 15.96875 16.703125 11.015625 
Q 21.046875 6.0625 27.640625 6.0625 
Q 34.1875 6.0625 38.53125 11.03125 
Q 42.875 16.015625 42.875 26.21875 
Q 42.875 35.84375 38.5 40.796875 
Q 34.125 45.75 27.640625 45.75 
Q 21.046875 45.75 16.703125 40.8125 
Q 12.359375 35.890625 12.359375 25.921875 
z
" id="ArialMT-111"/>
       <path d="M 6.390625 0 
L 6.390625 71.578125 
L 15.1875 71.578125 
L 15.1875 0 
z
" id="ArialMT-108"/>
       <path d="M -1.515625 -19.875 
L -1.515625 -13.53125 
L 56.734375 -13.53125 
L 56.734375 -19.875 
z
" id="ArialMT-95"/>
       <path d="M 14.703125 0 
L 6.546875 0 
L 6.546875 71.578125 
L 15.328125 71.578125 
L 15.328125 46.046875 
Q 20.90625 53.03125 29.546875 53.03125 
Q 34.328125 53.03125 38.59375 51.09375 
Q 42.875 49.171875 45.625 45.671875 
Q 48.390625 42.1875 49.953125 37.25 
Q 51.515625 32.328125 51.515625 26.703125 
Q 51.515625 13.375 44.921875 6.09375 
Q 38.328125 -1.171875 29.109375 -1.171875 
Q 19.921875 -1.171875 14.703125 6.5 
z
M 14.59375 26.3125 
Q 14.59375 17 17.140625 12.84375 
Q 21.296875 6.0625 28.375 6.0625 
Q 34.125 6.0625 38.328125 11.0625 
Q 42.53125 16.0625 42.53125 25.984375 
Q 42.53125 36.140625 38.5 40.96875 
Q 34.46875 45.796875 28.765625 45.796875 
Q 23 45.796875 18.796875 40.796875 
Q 14.59375 35.796875 14.59375 26.3125 
z
" id="ArialMT-98"/>
      </defs>
      <use xlink:href="#ArialMT-116"/>
      <use x="27.783203" xlink:href="#ArialMT-111"/>
      <use x="83.398438" xlink:href="#ArialMT-116"/>
      <use x="111.181641" xlink:href="#ArialMT-97"/>
      <use x="166.796875" xlink:href="#ArialMT-108"/>
      <use x="189.013672" xlink:href="#ArialMT-95"/>
      <use x="244.628906" xlink:href="#ArialMT-98"/>
      <use x="300.244141" xlink:href="#ArialMT-105"/>
      <use x="322.460938" xlink:href="#ArialMT-108"/>
      <use x="344.677734" xlink:href="#ArialMT-108"/>
     </g>
    </g>
   </g>
   <g id="PolyCollection_1">
    <defs>
     <path d="M 86.441447 -68.295764 
L 85.075428 -68.295764 
L 84.811448 -69.855481 
L 84.468032 -71.415198 
L 84.029792 -72.974914 
L 83.481085 -74.534631 
L 82.806857 -76.094348 
L 81.993627 -77.654064 
L 81.030547 -79.213781 
L 79.910449 -80.773498 
L 78.630809 -82.333214 
L 77.194531 -83.892931 
L 75.610477 -85.452648 
L 73.893681 -87.012364 
L 72.065217 -88.572081 
L 70.151709 -90.131797 
L 68.184487 -91.691514 
L 66.198443 -93.251231 
L 64.230629 -94.810947 
L 62.318696 -96.370664 
L 60.49927 -97.930381 
L 58.806379 -99.490097 
L 57.270066 -101.049814 
L 55.915303 -102.609531 
L 54.7613 -104.169247 
L 53.821274 -105.728964 
L 53.102677 -107.288681 
L 52.60782 -108.848397 
L 52.334782 -110.408114 
L 52.278438 -111.967831 
L 52.431429 -113.527547 
L 52.784921 -115.087264 
L 53.329029 -116.646981 
L 54.052875 -118.206697 
L 54.944309 -119.766414 
L 55.989412 -121.326131 
L 57.171926 -122.885847 
L 58.472805 -124.445564 
L 59.870026 -126.005281 
L 61.338785 -127.564997 
L 62.852104 -129.124714 
L 64.381829 -130.684431 
L 65.899892 -132.244147 
L 67.379716 -133.803864 
L 68.797575 -135.363581 
L 70.13376 -136.923297 
L 71.373413 -138.483014 
L 72.506971 -140.042731 
L 73.53016 -141.602447 
L 74.443605 -143.162164 
L 75.252086 -144.721881 
L 75.963571 -146.281597 
L 76.588123 -147.841314 
L 77.136814 -149.401031 
L 77.620741 -150.960747 
L 78.050251 -152.520464 
L 78.434422 -154.080181 
L 78.780835 -155.639897 
L 79.095607 -157.199614 
L 79.383654 -158.759331 
L 79.649082 -160.319047 
L 79.895619 -161.878764 
L 80.126981 -163.438481 
L 80.34708 -164.998197 
L 80.560037 -166.557914 
L 80.769971 -168.117631 
L 80.980611 -169.677347 
L 81.194811 -171.237064 
L 81.414063 -172.796781 
L 81.638132 -174.356497 
L 81.864898 -175.916214 
L 82.09047 -177.47593 
L 82.309585 -179.035647 
L 82.516256 -180.595364 
L 82.704573 -182.15508 
L 82.869554 -183.714797 
L 83.007905 -185.274514 
L 83.118586 -186.83423 
L 83.203082 -188.393947 
L 83.265348 -189.953664 
L 83.311429 -191.51338 
L 83.348815 -193.073097 
L 83.385617 -194.632814 
L 83.429687 -196.19253 
L 83.487791 -197.752247 
L 83.564942 -199.311964 
L 83.663967 -200.87168 
L 83.785345 -202.431397 
L 83.927321 -203.991114 
L 84.086245 -205.55083 
L 84.257086 -207.110547 
L 84.434037 -208.670264 
L 84.611125 -210.22998 
L 84.782759 -211.789697 
L 84.944166 -213.349414 
L 85.091673 -214.90913 
L 85.222838 -216.468847 
L 85.336438 -218.028564 
L 85.432347 -219.58828 
L 85.511337 -221.147997 
L 85.574833 -222.707714 
L 85.942042 -222.707714 
L 85.942042 -222.707714 
L 86.005538 -221.147997 
L 86.084528 -219.58828 
L 86.180437 -218.028564 
L 86.294037 -216.468847 
L 86.425202 -214.90913 
L 86.572709 -213.349414 
L 86.734116 -211.789697 
L 86.90575 -210.22998 
L 87.082838 -208.670264 
L 87.259789 -207.110547 
L 87.43063 -205.55083 
L 87.589554 -203.991114 
L 87.73153 -202.431397 
L 87.852908 -200.87168 
L 87.951933 -199.311964 
L 88.029084 -197.752247 
L 88.087188 -196.19253 
L 88.131258 -194.632814 
L 88.16806 -193.073097 
L 88.205446 -191.51338 
L 88.251527 -189.953664 
L 88.313793 -188.393947 
L 88.398289 -186.83423 
L 88.50897 -185.274514 
L 88.647321 -183.714797 
L 88.812302 -182.15508 
L 89.000619 -180.595364 
L 89.20729 -179.035647 
L 89.426405 -177.47593 
L 89.651977 -175.916214 
L 89.878743 -174.356497 
L 90.102812 -172.796781 
L 90.322064 -171.237064 
L 90.536264 -169.677347 
L 90.746904 -168.117631 
L 90.956838 -166.557914 
L 91.169795 -164.998197 
L 91.389894 -163.438481 
L 91.621256 -161.878764 
L 91.867793 -160.319047 
L 92.133221 -158.759331 
L 92.421268 -157.199614 
L 92.73604 -155.639897 
L 93.082453 -154.080181 
L 93.466624 -152.520464 
L 93.896134 -150.960747 
L 94.380061 -149.401031 
L 94.928752 -147.841314 
L 95.553304 -146.281597 
L 96.264789 -144.721881 
L 97.07327 -143.162164 
L 97.986715 -141.602447 
L 99.009904 -140.042731 
L 100.143462 -138.483014 
L 101.383115 -136.923297 
L 102.7193 -135.363581 
L 104.137159 -133.803864 
L 105.616983 -132.244147 
L 107.135046 -130.684431 
L 108.664771 -129.124714 
L 110.17809 -127.564997 
L 111.646849 -126.005281 
L 113.04407 -124.445564 
L 114.344949 -122.885847 
L 115.527463 -121.326131 
L 116.572566 -119.766414 
L 117.464 -118.206697 
L 118.187846 -116.646981 
L 118.731954 -115.087264 
L 119.085446 -113.527547 
L 119.238438 -111.967831 
L 119.182093 -110.408114 
L 118.909055 -108.848397 
L 118.414198 -107.288681 
L 117.695601 -105.728964 
L 116.755575 -104.169247 
L 115.601572 -102.609531 
L 114.246809 -101.049814 
L 112.710496 -99.490097 
L 111.017605 -97.930381 
L 109.198179 -96.370664 
L 107.286246 -94.810947 
L 105.318432 -93.251231 
L 103.332388 -91.691514 
L 101.365166 -90.131797 
L 99.451658 -88.572081 
L 97.623194 -87.012364 
L 95.906398 -85.452648 
L 94.322344 -83.892931 
L 92.886066 -82.333214 
L 91.606426 -80.773498 
L 90.486328 -79.213781 
L 89.523248 -77.654064 
L 88.710018 -76.094348 
L 88.03579 -74.534631 
L 87.487083 -72.974914 
L 87.048843 -71.415198 
L 86.705427 -69.855481 
L 86.441447 -68.295764 
z
" id="m7014a595ac" style="stroke:#4c4c4c;stroke-width:1.5;"/>
    </defs>
    <g clip-path="url(#pdbc1f35748)">
     <use style="fill:#5875a4;stroke:#4c4c4c;stroke-width:1.5;" x="0" xlink:href="#m7014a595ac" y="266.514844"/>
    </g>
   </g>
   <g id="PolyCollection_2">
    <defs>
     <path d="M 169.974063 -55.591176 
L 168.942812 -55.591176 
L 168.789667 -57.259211 
L 168.599902 -58.927246 
L 168.367299 -60.595282 
L 168.085195 -62.263317 
L 167.746583 -63.931352 
L 167.344249 -65.599387 
L 166.870932 -67.267422 
L 166.319527 -68.935458 
L 165.683314 -70.603493 
L 164.956238 -72.271528 
L 164.133214 -73.939563 
L 163.210472 -75.607599 
L 162.185934 -77.275634 
L 161.059608 -78.943669 
L 159.833988 -80.611704 
L 158.514437 -82.279739 
L 157.109525 -83.947775 
L 155.631284 -85.61581 
L 154.095347 -87.283845 
L 152.520938 -88.95188 
L 150.93067 -90.619915 
L 149.350128 -92.287951 
L 147.807245 -93.955986 
L 146.331442 -95.624021 
L 144.952593 -97.292056 
L 143.699841 -98.960092 
L 142.600327 -100.628127 
L 141.67793 -102.296162 
L 140.952076 -103.964197 
L 140.436736 -105.632232 
L 140.139666 -107.300268 
L 140.061977 -108.968303 
L 140.198056 -110.636338 
L 140.535879 -112.304373 
L 141.057673 -113.972408 
L 141.740911 -115.640444 
L 142.559539 -117.308479 
L 143.485379 -118.976514 
L 144.489565 -120.644549 
L 145.543952 -122.312585 
L 146.622365 -123.98062 
L 147.701636 -125.648655 
L 148.762355 -127.31669 
L 149.789322 -128.984725 
L 150.771694 -130.652761 
L 151.702847 -132.320796 
L 152.580011 -133.988831 
L 153.403729 -135.656866 
L 154.177205 -137.324902 
L 154.905604 -138.992937 
L 155.595361 -140.660972 
L 156.253529 -142.329007 
L 156.887211 -143.997042 
L 157.50307 -145.665078 
L 158.106942 -147.333113 
L 158.70353 -149.001148 
L 159.296185 -150.669183 
L 159.886762 -152.337218 
L 160.475555 -154.005254 
L 161.061303 -155.673289 
L 161.641264 -157.341324 
L 162.211379 -159.009359 
L 162.766507 -160.677395 
L 163.300724 -162.34543 
L 163.807701 -164.013465 
L 164.281114 -165.6815 
L 164.715077 -167.349535 
L 165.104573 -169.017571 
L 165.445838 -170.685606 
L 165.736688 -172.353641 
L 165.976734 -174.021676 
L 166.167499 -175.689712 
L 166.312393 -177.357747 
L 166.416568 -179.025782 
L 166.486649 -180.693817 
L 166.530368 -182.361852 
L 166.556117 -184.029888 
L 166.57247 -185.697923 
L 166.587693 -187.365958 
L 166.609292 -189.033993 
L 166.643618 -190.702028 
L 166.695573 -192.370064 
L 166.768421 -194.038099 
L 166.863717 -195.706134 
L 166.98136 -197.374169 
L 167.119745 -199.042205 
L 167.27601 -200.71024 
L 167.44634 -202.378275 
L 167.626304 -204.04631 
L 167.8112 -205.714345 
L 167.996378 -207.382381 
L 168.177514 -209.050416 
L 168.350832 -210.718451 
L 168.513252 -212.386486 
L 168.662473 -214.054521 
L 168.796989 -215.722557 
L 168.91605 -217.390592 
L 169.019578 -219.058627 
L 169.108062 -220.726662 
L 169.808813 -220.726662 
L 169.808813 -220.726662 
L 169.897297 -219.058627 
L 170.000825 -217.390592 
L 170.119886 -215.722557 
L 170.254402 -214.054521 
L 170.403623 -212.386486 
L 170.566043 -210.718451 
L 170.739361 -209.050416 
L 170.920497 -207.382381 
L 171.105675 -205.714345 
L 171.290571 -204.04631 
L 171.470535 -202.378275 
L 171.640865 -200.71024 
L 171.79713 -199.042205 
L 171.935515 -197.374169 
L 172.053158 -195.706134 
L 172.148454 -194.038099 
L 172.221302 -192.370064 
L 172.273257 -190.702028 
L 172.307583 -189.033993 
L 172.329182 -187.365958 
L 172.344405 -185.697923 
L 172.360758 -184.029888 
L 172.386507 -182.361852 
L 172.430226 -180.693817 
L 172.500307 -179.025782 
L 172.604482 -177.357747 
L 172.749376 -175.689712 
L 172.940141 -174.021676 
L 173.180187 -172.353641 
L 173.471037 -170.685606 
L 173.812302 -169.017571 
L 174.201798 -167.349535 
L 174.635761 -165.6815 
L 175.109174 -164.013465 
L 175.616151 -162.34543 
L 176.150368 -160.677395 
L 176.705496 -159.009359 
L 177.275611 -157.341324 
L 177.855572 -155.673289 
L 178.44132 -154.005254 
L 179.030113 -152.337218 
L 179.62069 -150.669183 
L 180.213345 -149.001148 
L 180.809933 -147.333113 
L 181.413805 -145.665078 
L 182.029664 -143.997042 
L 182.663346 -142.329007 
L 183.321514 -140.660972 
L 184.011271 -138.992937 
L 184.73967 -137.324902 
L 185.513146 -135.656866 
L 186.336864 -133.988831 
L 187.214028 -132.320796 
L 188.145181 -130.652761 
L 189.127553 -128.984725 
L 190.15452 -127.31669 
L 191.215239 -125.648655 
L 192.29451 -123.98062 
L 193.372923 -122.312585 
L 194.42731 -120.644549 
L 195.431496 -118.976514 
L 196.357336 -117.308479 
L 197.175964 -115.640444 
L 197.859202 -113.972408 
L 198.380996 -112.304373 
L 198.718819 -110.636338 
L 198.854898 -108.968303 
L 198.777209 -107.300268 
L 198.480139 -105.632232 
L 197.964799 -103.964197 
L 197.238945 -102.296162 
L 196.316548 -100.628127 
L 195.217034 -98.960092 
L 193.964282 -97.292056 
L 192.585433 -95.624021 
L 191.10963 -93.955986 
L 189.566747 -92.287951 
L 187.986205 -90.619915 
L 186.395937 -88.95188 
L 184.821528 -87.283845 
L 183.285591 -85.61581 
L 181.80735 -83.947775 
L 180.402438 -82.279739 
L 179.082887 -80.611704 
L 177.857267 -78.943669 
L 176.730941 -77.275634 
L 175.706403 -75.607599 
L 174.783661 -73.939563 
L 173.960637 -72.271528 
L 173.233561 -70.603493 
L 172.597348 -68.935458 
L 172.045943 -67.267422 
L 171.572626 -65.599387 
L 171.170292 -63.931352 
L 170.83168 -62.263317 
L 170.549576 -60.595282 
L 170.316973 -58.927246 
L 170.127208 -57.259211 
L 169.974063 -55.591176 
z
" id="m6aa1ad6f96" style="stroke:#4c4c4c;stroke-width:1.5;"/>
    </defs>
    <g clip-path="url(#pdbc1f35748)">
     <use style="fill:#cc8963;stroke:#4c4c4c;stroke-width:1.5;" x="0" xlink:href="#m6aa1ad6f96" y="266.514844"/>
    </g>
   </g>
   <g id="PolyCollection_3">
    <defs>
     <path d="M 253.262285 -51.75848 
L 253.05459 -51.75848 
L 253.011634 -53.755174 
L 252.955052 -55.751869 
L 252.881873 -57.748563 
L 252.788683 -59.745257 
L 252.671468 -61.741951 
L 252.525354 -63.738645 
L 252.344276 -65.73534 
L 252.120591 -67.732034 
L 251.844711 -69.728728 
L 251.504864 -71.725422 
L 251.087085 -73.722116 
L 250.575571 -75.718811 
L 249.953468 -77.715505 
L 249.204129 -79.712199 
L 248.31277 -81.708893 
L 247.26839 -83.705588 
L 246.065716 -85.702282 
L 244.70691 -87.698976 
L 243.202738 -89.69567 
L 241.572978 -91.692364 
L 239.845952 -93.689059 
L 238.057156 -95.685753 
L 236.247183 -97.682447 
L 234.459177 -99.679141 
L 232.736191 -101.675835 
L 231.118779 -103.67253 
L 229.643115 -105.669224 
L 228.339782 -107.665918 
L 227.233247 -109.662612 
L 226.341879 -111.659307 
L 225.678295 -113.656001 
L 225.249772 -115.652695 
L 225.058509 -117.649389 
L 225.101651 -119.646083 
L 225.37106 -121.642778 
L 225.853004 -123.639472 
L 226.527978 -125.636166 
L 227.370905 -127.63286 
L 228.351908 -129.629554 
L 229.437751 -131.626249 
L 230.59386 -133.622943 
L 231.786715 -135.619637 
L 232.986286 -137.616331 
L 234.168115 -139.613026 
L 235.314721 -141.60972 
L 236.416071 -143.606414 
L 237.469078 -145.603108 
L 238.476203 -147.599802 
L 239.443442 -149.596497 
L 240.378047 -151.593191 
L 241.28636 -153.589885 
L 242.172093 -155.586579 
L 243.035292 -157.583274 
L 243.872072 -159.579968 
L 244.675106 -161.576662 
L 245.434725 -163.573356 
L 246.140406 -165.57005 
L 246.782417 -167.566745 
L 247.353335 -169.563439 
L 247.849244 -171.560133 
L 248.270425 -173.556827 
L 248.621453 -175.553521 
L 248.910689 -177.550216 
L 249.149244 -179.54691 
L 249.349575 -181.543604 
L 249.523926 -183.540298 
L 249.682858 -185.536993 
L 249.834094 -187.533687 
L 249.981856 -189.530381 
L 250.126779 -191.527075 
L 250.266395 -193.523769 
L 250.396089 -195.520464 
L 250.510337 -197.517158 
L 250.604031 -199.513852 
L 250.673663 -201.510546 
L 250.718208 -203.50724 
L 250.739579 -205.503935 
L 250.742622 -207.500629 
L 250.73467 -209.497323 
L 250.724747 -211.494017 
L 250.722527 -213.490712 
L 250.737224 -215.487406 
L 250.776535 -217.4841 
L 250.845788 -219.480794 
L 250.947397 -221.477488 
L 251.080674 -223.474183 
L 251.242024 -225.470877 
L 251.425462 -227.467571 
L 251.623374 -229.464265 
L 251.827396 -231.460959 
L 252.029297 -233.457654 
L 252.221739 -235.454348 
L 252.398839 -237.451042 
L 252.556484 -239.447736 
L 252.692404 -241.444431 
L 252.806034 -243.441125 
L 252.898221 -245.437819 
L 252.970846 -247.434513 
L 253.026432 -249.431207 
L 253.290443 -249.431207 
L 253.290443 -249.431207 
L 253.346029 -247.434513 
L 253.418654 -245.437819 
L 253.510841 -243.441125 
L 253.624471 -241.444431 
L 253.760391 -239.447736 
L 253.918036 -237.451042 
L 254.095136 -235.454348 
L 254.287578 -233.457654 
L 254.489479 -231.460959 
L 254.693501 -229.464265 
L 254.891413 -227.467571 
L 255.074851 -225.470877 
L 255.236201 -223.474183 
L 255.369478 -221.477488 
L 255.471087 -219.480794 
L 255.54034 -217.4841 
L 255.579651 -215.487406 
L 255.594348 -213.490712 
L 255.592128 -211.494017 
L 255.582205 -209.497323 
L 255.574253 -207.500629 
L 255.577296 -205.503935 
L 255.598667 -203.50724 
L 255.643212 -201.510546 
L 255.712844 -199.513852 
L 255.806538 -197.517158 
L 255.920786 -195.520464 
L 256.05048 -193.523769 
L 256.190096 -191.527075 
L 256.335019 -189.530381 
L 256.482781 -187.533687 
L 256.634017 -185.536993 
L 256.792949 -183.540298 
L 256.9673 -181.543604 
L 257.167631 -179.54691 
L 257.406186 -177.550216 
L 257.695422 -175.553521 
L 258.04645 -173.556827 
L 258.467631 -171.560133 
L 258.96354 -169.563439 
L 259.534458 -167.566745 
L 260.176469 -165.57005 
L 260.88215 -163.573356 
L 261.641769 -161.576662 
L 262.444803 -159.579968 
L 263.281583 -157.583274 
L 264.144782 -155.586579 
L 265.030515 -153.589885 
L 265.938828 -151.593191 
L 266.873433 -149.596497 
L 267.840672 -147.599802 
L 268.847797 -145.603108 
L 269.900804 -143.606414 
L 271.002154 -141.60972 
L 272.14876 -139.613026 
L 273.330589 -137.616331 
L 274.53016 -135.619637 
L 275.723015 -133.622943 
L 276.879124 -131.626249 
L 277.964967 -129.629554 
L 278.94597 -127.63286 
L 279.788897 -125.636166 
L 280.463871 -123.639472 
L 280.945815 -121.642778 
L 281.215224 -119.646083 
L 281.258366 -117.649389 
L 281.067103 -115.652695 
L 280.63858 -113.656001 
L 279.974996 -111.659307 
L 279.083628 -109.662612 
L 277.977093 -107.665918 
L 276.67376 -105.669224 
L 275.198096 -103.67253 
L 273.580684 -101.675835 
L 271.857698 -99.679141 
L 270.069692 -97.682447 
L 268.259719 -95.685753 
L 266.470923 -93.689059 
L 264.743897 -91.692364 
L 263.114137 -89.69567 
L 261.609965 -87.698976 
L 260.251159 -85.702282 
L 259.048485 -83.705588 
L 258.004105 -81.708893 
L 257.112746 -79.712199 
L 256.363407 -77.715505 
L 255.741304 -75.718811 
L 255.22979 -73.722116 
L 254.812011 -71.725422 
L 254.472164 -69.728728 
L 254.196284 -67.732034 
L 253.972599 -65.73534 
L 253.791521 -63.738645 
L 253.645407 -61.741951 
L 253.528192 -59.745257 
L 253.435002 -57.748563 
L 253.361823 -55.751869 
L 253.305241 -53.755174 
L 253.262285 -51.75848 
z
" id="m3f7f96152a" style="stroke:#4c4c4c;stroke-width:1.5;"/>
    </defs>
    <g clip-path="url(#pdbc1f35748)">
     <use style="fill:#5f9e6e;stroke:#4c4c4c;stroke-width:1.5;" x="0" xlink:href="#m3f7f96152a" y="266.514844"/>
    </g>
   </g>
   <g id="PolyCollection_4">
    <defs>
     <path d="M 337.149055 -65.858598 
L 336.56782 -65.858598 
L 336.44142 -67.619046 
L 336.271295 -69.379494 
L 336.047146 -71.139943 
L 335.758018 -72.900391 
L 335.392876 -74.660839 
L 334.941309 -76.421288 
L 334.394345 -78.181736 
L 333.745254 -79.942184 
L 332.990267 -81.702633 
L 332.129086 -83.463081 
L 331.165099 -85.223529 
L 330.105254 -86.983978 
L 328.959593 -88.744426 
L 327.740529 -90.504874 
L 326.461979 -92.265322 
L 325.138535 -94.025771 
L 323.784827 -95.786219 
L 322.415218 -97.546667 
L 321.043873 -99.307116 
L 319.685175 -101.067564 
L 318.354344 -102.828012 
L 317.068063 -104.588461 
L 315.844857 -106.348909 
L 314.705048 -108.109357 
L 313.670121 -109.869805 
L 312.761529 -111.630254 
L 311.999037 -113.390702 
L 311.398857 -115.15115 
L 310.971902 -116.911599 
L 310.722464 -118.672047 
L 310.647614 -120.432495 
L 310.737452 -122.192944 
L 310.976225 -123.953392 
L 311.344132 -125.71384 
L 311.819538 -127.474289 
L 312.381198 -129.234737 
L 313.010144 -130.995185 
L 313.690902 -132.755633 
L 314.411888 -134.516082 
L 315.164959 -136.27653 
L 315.944306 -138.036978 
L 316.744946 -139.797427 
L 317.56122 -141.557875 
L 318.385607 -143.318323 
L 319.208164 -145.078772 
L 320.016716 -146.83922 
L 320.797768 -148.599668 
L 321.53798 -150.360117 
L 322.225904 -152.120565 
L 322.853649 -153.881013 
L 323.418155 -155.641461 
L 323.921842 -157.40191 
L 324.372504 -159.162358 
L 324.782482 -160.922806 
L 325.167238 -162.683255 
L 325.543573 -164.443703 
L 325.927744 -166.204151 
L 326.333733 -167.9646 
L 326.771895 -169.725048 
L 327.248093 -171.485496 
L 327.763401 -173.245944 
L 328.314324 -175.006393 
L 328.893465 -176.766841 
L 329.490503 -178.527289 
L 330.093332 -180.287738 
L 330.689221 -182.048186 
L 331.265867 -183.808634 
L 331.812258 -185.569083 
L 332.319292 -187.329531 
L 332.780141 -189.089979 
L 333.190385 -190.850428 
L 333.547973 -192.610876 
L 333.853047 -194.371324 
L 334.107707 -196.131772 
L 334.315733 -197.892221 
L 334.482308 -199.652669 
L 334.613714 -201.413117 
L 334.717031 -203.173566 
L 334.799785 -204.934014 
L 334.869577 -206.694462 
L 334.933673 -208.454911 
L 334.998594 -210.215359 
L 335.069735 -211.975807 
L 335.151057 -213.736256 
L 335.244885 -215.496704 
L 335.351858 -217.257152 
L 335.471013 -219.0176 
L 335.600028 -220.778049 
L 335.735561 -222.538497 
L 335.87367 -224.298945 
L 336.01024 -226.059394 
L 336.141387 -227.819842 
L 336.263779 -229.58029 
L 336.374866 -231.340739 
L 336.472986 -233.101187 
L 336.557375 -234.861635 
L 336.62808 -236.622083 
L 336.685814 -238.382532 
L 336.731772 -240.14298 
L 336.985103 -240.14298 
L 336.985103 -240.14298 
L 337.031061 -238.382532 
L 337.088795 -236.622083 
L 337.1595 -234.861635 
L 337.243889 -233.101187 
L 337.342009 -231.340739 
L 337.453096 -229.58029 
L 337.575488 -227.819842 
L 337.706635 -226.059394 
L 337.843205 -224.298945 
L 337.981314 -222.538497 
L 338.116847 -220.778049 
L 338.245862 -219.0176 
L 338.365017 -217.257152 
L 338.47199 -215.496704 
L 338.565818 -213.736256 
L 338.64714 -211.975807 
L 338.718281 -210.215359 
L 338.783202 -208.454911 
L 338.847298 -206.694462 
L 338.91709 -204.934014 
L 338.999844 -203.173566 
L 339.103161 -201.413117 
L 339.234567 -199.652669 
L 339.401142 -197.892221 
L 339.609168 -196.131772 
L 339.863828 -194.371324 
L 340.168902 -192.610876 
L 340.52649 -190.850428 
L 340.936734 -189.089979 
L 341.397583 -187.329531 
L 341.904617 -185.569083 
L 342.451008 -183.808634 
L 343.027654 -182.048186 
L 343.623543 -180.287738 
L 344.226372 -178.527289 
L 344.82341 -176.766841 
L 345.402551 -175.006393 
L 345.953474 -173.245944 
L 346.468782 -171.485496 
L 346.94498 -169.725048 
L 347.383142 -167.9646 
L 347.789131 -166.204151 
L 348.173302 -164.443703 
L 348.549637 -162.683255 
L 348.934393 -160.922806 
L 349.344371 -159.162358 
L 349.795033 -157.40191 
L 350.29872 -155.641461 
L 350.863226 -153.881013 
L 351.490971 -152.120565 
L 352.178895 -150.360117 
L 352.919107 -148.599668 
L 353.700159 -146.83922 
L 354.508711 -145.078772 
L 355.331268 -143.318323 
L 356.155655 -141.557875 
L 356.971929 -139.797427 
L 357.772569 -138.036978 
L 358.551916 -136.27653 
L 359.304987 -134.516082 
L 360.025973 -132.755633 
L 360.706731 -130.995185 
L 361.335677 -129.234737 
L 361.897337 -127.474289 
L 362.372743 -125.71384 
L 362.74065 -123.953392 
L 362.979423 -122.192944 
L 363.069261 -120.432495 
L 362.994411 -118.672047 
L 362.744973 -116.911599 
L 362.318018 -115.15115 
L 361.717838 -113.390702 
L 360.955346 -111.630254 
L 360.046754 -109.869805 
L 359.011827 -108.109357 
L 357.872018 -106.348909 
L 356.648812 -104.588461 
L 355.362531 -102.828012 
L 354.0317 -101.067564 
L 352.673002 -99.307116 
L 351.301657 -97.546667 
L 349.932048 -95.786219 
L 348.57834 -94.025771 
L 347.254896 -92.265322 
L 345.976346 -90.504874 
L 344.757282 -88.744426 
L 343.611621 -86.983978 
L 342.551776 -85.223529 
L 341.587789 -83.463081 
L 340.726608 -81.702633 
L 339.971621 -79.942184 
L 339.32253 -78.181736 
L 338.775566 -76.421288 
L 338.323999 -74.660839 
L 337.958857 -72.900391 
L 337.669729 -71.139943 
L 337.44558 -69.379494 
L 337.275455 -67.619046 
L 337.149055 -65.858598 
z
" id="m704c40e967" style="stroke:#4c4c4c;stroke-width:1.5;"/>
    </defs>
    <g clip-path="url(#pdbc1f35748)">
     <use style="fill:#b55d60;stroke:#4c4c4c;stroke-width:1.5;" x="0" xlink:href="#m704c40e967" y="266.514844"/>
    </g>
   </g>
   <g id="line2d_12">
    <path clip-path="url(#pdbc1f35748)" d="M 85.758438 176.631059 
L 85.758438 106.983632 
" style="fill:none;stroke:#4c4c4c;stroke-linecap:round;stroke-width:1.5;"/>
   </g>
   <g id="line2d_13">
    <path clip-path="url(#pdbc1f35748)" d="M 85.758438 161.218949 
L 85.758438 137.120439 
" style="fill:none;stroke:#4c4c4c;stroke-linecap:round;stroke-width:4.5;"/>
   </g>
   <g id="line2d_14">
    <path clip-path="url(#pdbc1f35748)" d="M 169.458438 182.130362 
L 169.458438 109.577054 
" style="fill:none;stroke:#4c4c4c;stroke-linecap:round;stroke-width:1.5;"/>
   </g>
   <g id="line2d_15">
    <path clip-path="url(#pdbc1f35748)" d="M 169.458438 162.304749 
L 169.458438 132.136696 
" style="fill:none;stroke:#4c4c4c;stroke-linecap:round;stroke-width:4.5;"/>
   </g>
   <g id="line2d_16">
    <path clip-path="url(#pdbc1f35748)" d="M 253.158438 190.504302 
L 253.158438 76.92494 
" style="fill:none;stroke:#4c4c4c;stroke-linecap:round;stroke-width:1.5;"/>
   </g>
   <g id="line2d_17">
    <path clip-path="url(#pdbc1f35748)" d="M 253.158438 156.649215 
L 253.158438 122.794129 
" style="fill:none;stroke:#4c4c4c;stroke-linecap:round;stroke-width:4.5;"/>
   </g>
   <g id="line2d_18">
    <path clip-path="url(#pdbc1f35748)" d="M 336.858438 177.443456 
L 336.858438 73.394137 
" style="fill:none;stroke:#4c4c4c;stroke-linecap:round;stroke-width:1.5;"/>
   </g>
   <g id="line2d_19">
    <path clip-path="url(#pdbc1f35748)" d="M 336.858438 153.266831 
L 336.858438 120.114781 
" style="fill:none;stroke:#4c4c4c;stroke-linecap:round;stroke-width:4.5;"/>
   </g>
   <g id="patch_3">
    <path d="M 43.908438 224.64 
L 43.908438 7.2 
" style="fill:none;stroke:#262626;stroke-linecap:square;stroke-linejoin:miter;stroke-width:1.25;"/>
   </g>
   <g id="patch_4">
    <path d="M 378.708438 224.64 
L 378.708438 7.2 
" style="fill:none;stroke:#262626;stroke-linecap:square;stroke-linejoin:miter;stroke-width:1.25;"/>
   </g>
   <g id="patch_5">
    <path d="M 43.908438 224.64 
L 378.708438 224.64 
" style="fill:none;stroke:#262626;stroke-linecap:square;stroke-linejoin:miter;stroke-width:1.25;"/>
   </g>
   <g id="patch_6">
    <path d="M 43.908438 7.2 
L 378.708438 7.2 
" style="fill:none;stroke:#262626;stroke-linecap:square;stroke-linejoin:miter;stroke-width:1.25;"/>
   </g>
   <g id="PathCollection_1">
    <defs>
     <path d="M 0 1.5 
C 0.397805 1.5 0.77937 1.341951 1.06066 1.06066 
C 1.341951 0.77937 1.5 0.397805 1.5 0 
C 1.5 -0.397805 1.341951 -0.77937 1.06066 -1.06066 
C 0.77937 -1.341951 0.397805 -1.5 0 -1.5 
C -0.397805 -1.5 -0.77937 -1.341951 -1.06066 -1.06066 
C -1.341951 -0.77937 -1.5 -0.397805 -1.5 0 
C -1.5 0.397805 -1.341951 0.77937 -1.06066 1.06066 
C -0.77937 1.341951 -0.397805 1.5 0 1.5 
z
" id="m65246834d8" style="stroke:#4c4c4c;"/>
    </defs>
    <g clip-path="url(#pdbc1f35748)">
     <use style="fill:#ffffff;stroke:#4c4c4c;" x="85.758438" xlink:href="#m65246834d8" y="149.478249"/>
    </g>
   </g>
   <g id="PathCollection_2">
    <g clip-path="url(#pdbc1f35748)">
     <use style="fill:#ffffff;stroke:#4c4c4c;" x="169.458438" xlink:href="#m65246834d8" y="152.040424"/>
    </g>
   </g>
   <g id="PathCollection_3">
    <g clip-path="url(#pdbc1f35748)">
     <use style="fill:#ffffff;stroke:#4c4c4c;" x="253.158438" xlink:href="#m65246834d8" y="143.104056"/>
    </g>
   </g>
   <g id="PathCollection_4">
    <g clip-path="url(#pdbc1f35748)">
     <use style="fill:#ffffff;stroke:#4c4c4c;" x="336.858438" xlink:href="#m65246834d8" y="138.760857"/>
    </g>
   </g>
  </g>
 </g>
 <defs>
  <clipPath id="pdbc1f35748">
   <rect height="217.44" width="334.8" x="43.908438" y="7.2"/>
  </clipPath>
 </defs>
</svg>
