<?xml version="1.0" encoding="utf-8" standalone="no"?>
<!DOCTYPE svg PUBLIC "-//W3C//DTD SVG 1.1//EN"
  "http://www.w3.org/Graphics/SVG/1.1/DTD/svg11.dtd">
<!-- Created with matplotlib (https://matplotlib.org/) -->
<svg height="266.374219pt" version="1.1" viewBox="0 0 355.2 266.374219" width="355.2pt" xmlns="http://www.w3.org/2000/svg" xmlns:xlink="http://www.w3.org/1999/xlink">
 <metadata>
  <rdf:RDF xmlns:cc="http://creativecommons.org/ns#" xmlns:dc="http://purl.org/dc/elements/1.1/" xmlns:rdf="http://www.w3.org/1999/02/22-rdf-syntax-ns#">
   <cc:Work>
    <dc:type rdf:resource="http://purl.org/dc/dcmitype/StillImage"/>
    <dc:date>2022-01-31T22:08:01.424291</dc:date>
    <dc:format>image/svg+xml</dc:format>
    <dc:creator>
     <cc:Agent>
      <dc:title>Matplotlib v3.3.4, https://matplotlib.org/</dc:title>
     </cc:Agent>
    </dc:creator>
   </cc:Work>
  </rdf:RDF>
 </metadata>
 <defs>
  <style type="text/css">*{stroke-linecap:butt;stroke-linejoin:round;}</style>
 </defs>
 <g id="figure_1">
  <g id="patch_1">
   <path d="M 0 266.374219 
L 355.2 266.374219 
L 355.2 0 
L 0 0 
z
" style="fill:#ffffff;"/>
  </g>
  <g id="axes_1">
   <g id="patch_2">
    <path d="M 13.2 224.64 
L 348 224.64 
L 348 7.2 
L 13.2 7.2 
z
" style="fill:#ffffff;"/>
   </g>
   <g id="matplotlib.axis_1">
    <g id="xtick_1">
     <g id="line2d_1">
      <defs>
       <path d="M 0 0 
L 0 6 
" id="m0f7eaa122b" style="stroke:#262626;stroke-width:1.25;"/>
      </defs>
      <g>
       <use style="fill:#262626;stroke:#262626;stroke-width:1.25;" x="43.023868" xlink:href="#m0f7eaa122b" y="224.64"/>
      </g>
     </g>
     <g id="text_1">
      <!-- 0 -->
      <g style="fill:#262626;" transform="translate(39.965352 242.013594)scale(0.11 -0.11)">
       <defs>
        <path d="M 4.15625 35.296875 
Q 4.15625 48 6.765625 55.734375 
Q 9.375 63.484375 14.515625 67.671875 
Q 19.671875 71.875 27.484375 71.875 
Q 33.25 71.875 37.59375 69.546875 
Q 41.9375 67.234375 44.765625 62.859375 
Q 47.609375 58.5 49.21875 52.21875 
Q 50.828125 45.953125 50.828125 35.296875 
Q 50.828125 22.703125 48.234375 14.96875 
Q 45.65625 7.234375 40.5 3 
Q 35.359375 -1.21875 27.484375 -1.21875 
Q 17.140625 -1.21875 11.234375 6.203125 
Q 4.15625 15.140625 4.15625 35.296875 
z
M 13.1875 35.296875 
Q 13.1875 17.671875 17.3125 11.828125 
Q 21.4375 6 27.484375 6 
Q 33.546875 6 37.671875 11.859375 
Q 41.796875 17.71875 41.796875 35.296875 
Q 41.796875 52.984375 37.671875 58.78125 
Q 33.546875 64.59375 27.390625 64.59375 
Q 21.34375 64.59375 17.71875 59.46875 
Q 13.1875 52.9375 13.1875 35.296875 
z
" id="ArialMT-48"/>
       </defs>
       <use xlink:href="#ArialMT-48"/>
      </g>
     </g>
    </g>
    <g id="xtick_2">
     <g id="line2d_2">
      <g>
       <use style="fill:#262626;stroke:#262626;stroke-width:1.25;" x="94.091474" xlink:href="#m0f7eaa122b" y="224.64"/>
      </g>
     </g>
     <g id="text_2">
      <!-- 10 -->
      <g style="fill:#262626;" transform="translate(87.974443 242.013594)scale(0.11 -0.11)">
       <defs>
        <path d="M 37.25 0 
L 28.46875 0 
L 28.46875 56 
Q 25.296875 52.984375 20.140625 49.953125 
Q 14.984375 46.921875 10.890625 45.40625 
L 10.890625 53.90625 
Q 18.265625 57.375 23.78125 62.296875 
Q 29.296875 67.234375 31.59375 71.875 
L 37.25 71.875 
z
" id="ArialMT-49"/>
       </defs>
       <use xlink:href="#ArialMT-49"/>
       <use x="55.615234" xlink:href="#ArialMT-48"/>
      </g>
     </g>
    </g>
    <g id="xtick_3">
     <g id="line2d_3">
      <g>
       <use style="fill:#262626;stroke:#262626;stroke-width:1.25;" x="145.159081" xlink:href="#m0f7eaa122b" y="224.64"/>
      </g>
     </g>
     <g id="text_3">
      <!-- 20 -->
      <g style="fill:#262626;" transform="translate(139.04205 242.013594)scale(0.11 -0.11)">
       <defs>
        <path d="M 50.34375 8.453125 
L 50.34375 0 
L 3.03125 0 
Q 2.9375 3.171875 4.046875 6.109375 
Q 5.859375 10.9375 9.828125 15.625 
Q 13.8125 20.3125 21.34375 26.46875 
Q 33.015625 36.03125 37.109375 41.625 
Q 41.21875 47.21875 41.21875 52.203125 
Q 41.21875 57.421875 37.46875 61 
Q 33.734375 64.59375 27.734375 64.59375 
Q 21.390625 64.59375 17.578125 60.78125 
Q 13.765625 56.984375 13.71875 50.25 
L 4.6875 51.171875 
Q 5.609375 61.28125 11.65625 66.578125 
Q 17.71875 71.875 27.9375 71.875 
Q 38.234375 71.875 44.234375 66.15625 
Q 50.25 60.453125 50.25 52 
Q 50.25 47.703125 48.484375 43.546875 
Q 46.734375 39.40625 42.65625 34.8125 
Q 38.578125 30.21875 29.109375 22.21875 
Q 21.1875 15.578125 18.9375 13.203125 
Q 16.703125 10.84375 15.234375 8.453125 
z
" id="ArialMT-50"/>
       </defs>
       <use xlink:href="#ArialMT-50"/>
       <use x="55.615234" xlink:href="#ArialMT-48"/>
      </g>
     </g>
    </g>
    <g id="xtick_4">
     <g id="line2d_4">
      <g>
       <use style="fill:#262626;stroke:#262626;stroke-width:1.25;" x="196.226688" xlink:href="#m0f7eaa122b" y="224.64"/>
      </g>
     </g>
     <g id="text_4">
      <!-- 30 -->
      <g style="fill:#262626;" transform="translate(190.109656 242.013594)scale(0.11 -0.11)">
       <defs>
        <path d="M 4.203125 18.890625 
L 12.984375 20.0625 
Q 14.5 12.59375 18.140625 9.296875 
Q 21.78125 6 27 6 
Q 33.203125 6 37.46875 10.296875 
Q 41.75 14.59375 41.75 20.953125 
Q 41.75 27 37.796875 30.921875 
Q 33.84375 34.859375 27.734375 34.859375 
Q 25.25 34.859375 21.53125 33.890625 
L 22.515625 41.609375 
Q 23.390625 41.5 23.921875 41.5 
Q 29.546875 41.5 34.03125 44.421875 
Q 38.53125 47.359375 38.53125 53.46875 
Q 38.53125 58.296875 35.25 61.46875 
Q 31.984375 64.65625 26.8125 64.65625 
Q 21.6875 64.65625 18.265625 61.421875 
Q 14.84375 58.203125 13.875 51.765625 
L 5.078125 53.328125 
Q 6.6875 62.15625 12.390625 67.015625 
Q 18.109375 71.875 26.609375 71.875 
Q 32.46875 71.875 37.390625 69.359375 
Q 42.328125 66.84375 44.9375 62.5 
Q 47.5625 58.15625 47.5625 53.265625 
Q 47.5625 48.640625 45.0625 44.828125 
Q 42.578125 41.015625 37.703125 38.765625 
Q 44.046875 37.3125 47.5625 32.6875 
Q 51.078125 28.078125 51.078125 21.140625 
Q 51.078125 11.765625 44.234375 5.25 
Q 37.40625 -1.265625 26.953125 -1.265625 
Q 17.53125 -1.265625 11.296875 4.34375 
Q 5.078125 9.96875 4.203125 18.890625 
z
" id="ArialMT-51"/>
       </defs>
       <use xlink:href="#ArialMT-51"/>
       <use x="55.615234" xlink:href="#ArialMT-48"/>
      </g>
     </g>
    </g>
    <g id="xtick_5">
     <g id="line2d_5">
      <g>
       <use style="fill:#262626;stroke:#262626;stroke-width:1.25;" x="247.294294" xlink:href="#m0f7eaa122b" y="224.64"/>
      </g>
     </g>
     <g id="text_5">
      <!-- 40 -->
      <g style="fill:#262626;" transform="translate(241.177263 242.013594)scale(0.11 -0.11)">
       <defs>
        <path d="M 32.328125 0 
L 32.328125 17.140625 
L 1.265625 17.140625 
L 1.265625 25.203125 
L 33.9375 71.578125 
L 41.109375 71.578125 
L 41.109375 25.203125 
L 50.78125 25.203125 
L 50.78125 17.140625 
L 41.109375 17.140625 
L 41.109375 0 
z
M 32.328125 25.203125 
L 32.328125 57.46875 
L 9.90625 25.203125 
z
" id="ArialMT-52"/>
       </defs>
       <use xlink:href="#ArialMT-52"/>
       <use x="55.615234" xlink:href="#ArialMT-48"/>
      </g>
     </g>
    </g>
    <g id="xtick_6">
     <g id="line2d_6">
      <g>
       <use style="fill:#262626;stroke:#262626;stroke-width:1.25;" x="298.361901" xlink:href="#m0f7eaa122b" y="224.64"/>
      </g>
     </g>
     <g id="text_6">
      <!-- 50 -->
      <g style="fill:#262626;" transform="translate(292.24487 242.013594)scale(0.11 -0.11)">
       <defs>
        <path d="M 4.15625 18.75 
L 13.375 19.53125 
Q 14.40625 12.796875 18.140625 9.390625 
Q 21.875 6 27.15625 6 
Q 33.5 6 37.890625 10.78125 
Q 42.28125 15.578125 42.28125 23.484375 
Q 42.28125 31 38.0625 35.34375 
Q 33.84375 39.703125 27 39.703125 
Q 22.75 39.703125 19.328125 37.765625 
Q 15.921875 35.84375 13.96875 32.765625 
L 5.71875 33.84375 
L 12.640625 70.609375 
L 48.25 70.609375 
L 48.25 62.203125 
L 19.671875 62.203125 
L 15.828125 42.96875 
Q 22.265625 47.46875 29.34375 47.46875 
Q 38.71875 47.46875 45.15625 40.96875 
Q 51.609375 34.46875 51.609375 24.265625 
Q 51.609375 14.546875 45.953125 7.46875 
Q 39.0625 -1.21875 27.15625 -1.21875 
Q 17.390625 -1.21875 11.203125 4.25 
Q 5.03125 9.71875 4.15625 18.75 
z
" id="ArialMT-53"/>
       </defs>
       <use xlink:href="#ArialMT-53"/>
       <use x="55.615234" xlink:href="#ArialMT-48"/>
      </g>
     </g>
    </g>
    <g id="text_7">
     <!-- total_bill -->
     <g style="fill:#262626;" transform="translate(158.5875 256.789219)scale(0.12 -0.12)">
      <defs>
       <path d="M 25.78125 7.859375 
L 27.046875 0.09375 
Q 23.34375 -0.6875 20.40625 -0.6875 
Q 15.625 -0.6875 12.984375 0.828125 
Q 10.359375 2.34375 9.28125 4.8125 
Q 8.203125 7.28125 8.203125 15.1875 
L 8.203125 45.015625 
L 1.765625 45.015625 
L 1.765625 51.859375 
L 8.203125 51.859375 
L 8.203125 64.703125 
L 16.9375 69.96875 
L 16.9375 51.859375 
L 25.78125 51.859375 
L 25.78125 45.015625 
L 16.9375 45.015625 
L 16.9375 14.703125 
Q 16.9375 10.9375 17.40625 9.859375 
Q 17.875 8.796875 18.921875 8.15625 
Q 19.96875 7.515625 21.921875 7.515625 
Q 23.390625 7.515625 25.78125 7.859375 
z
" id="ArialMT-116"/>
       <path d="M 3.328125 25.921875 
Q 3.328125 40.328125 11.328125 47.265625 
Q 18.015625 53.03125 27.640625 53.03125 
Q 38.328125 53.03125 45.109375 46.015625 
Q 51.90625 39.015625 51.90625 26.65625 
Q 51.90625 16.65625 48.90625 10.90625 
Q 45.90625 5.171875 40.15625 2 
Q 34.421875 -1.171875 27.640625 -1.171875 
Q 16.75 -1.171875 10.03125 5.8125 
Q 3.328125 12.796875 3.328125 25.921875 
z
M 12.359375 25.921875 
Q 12.359375 15.96875 16.703125 11.015625 
Q 21.046875 6.0625 27.640625 6.0625 
Q 34.1875 6.0625 38.53125 11.03125 
Q 42.875 16.015625 42.875 26.21875 
Q 42.875 35.84375 38.5 40.796875 
Q 34.125 45.75 27.640625 45.75 
Q 21.046875 45.75 16.703125 40.8125 
Q 12.359375 35.890625 12.359375 25.921875 
z
" id="ArialMT-111"/>
       <path d="M 40.4375 6.390625 
Q 35.546875 2.25 31.03125 0.53125 
Q 26.515625 -1.171875 21.34375 -1.171875 
Q 12.796875 -1.171875 8.203125 3 
Q 3.609375 7.171875 3.609375 13.671875 
Q 3.609375 17.484375 5.34375 20.625 
Q 7.078125 23.78125 9.890625 25.6875 
Q 12.703125 27.59375 16.21875 28.5625 
Q 18.796875 29.25 24.03125 29.890625 
Q 34.671875 31.15625 39.703125 32.90625 
Q 39.75 34.71875 39.75 35.203125 
Q 39.75 40.578125 37.25 42.78125 
Q 33.890625 45.75 27.25 45.75 
Q 21.046875 45.75 18.09375 43.578125 
Q 15.140625 41.40625 13.71875 35.890625 
L 5.125 37.0625 
Q 6.296875 42.578125 8.984375 45.96875 
Q 11.671875 49.359375 16.75 51.1875 
Q 21.828125 53.03125 28.515625 53.03125 
Q 35.15625 53.03125 39.296875 51.46875 
Q 43.453125 49.90625 45.40625 47.53125 
Q 47.359375 45.171875 48.140625 41.546875 
Q 48.578125 39.3125 48.578125 33.453125 
L 48.578125 21.734375 
Q 48.578125 9.46875 49.140625 6.21875 
Q 49.703125 2.984375 51.375 0 
L 42.1875 0 
Q 40.828125 2.734375 40.4375 6.390625 
z
M 39.703125 26.03125 
Q 34.90625 24.078125 25.34375 22.703125 
Q 19.921875 21.921875 17.671875 20.9375 
Q 15.4375 19.96875 14.203125 18.09375 
Q 12.984375 16.21875 12.984375 13.921875 
Q 12.984375 10.40625 15.640625 8.0625 
Q 18.3125 5.71875 23.4375 5.71875 
Q 28.515625 5.71875 32.46875 7.9375 
Q 36.421875 10.15625 38.28125 14.015625 
Q 39.703125 17 39.703125 22.796875 
z
" id="ArialMT-97"/>
       <path d="M 6.390625 0 
L 6.390625 71.578125 
L 15.1875 71.578125 
L 15.1875 0 
z
" id="ArialMT-108"/>
       <path d="M -1.515625 -19.875 
L -1.515625 -13.53125 
L 56.734375 -13.53125 
L 56.734375 -19.875 
z
" id="ArialMT-95"/>
       <path d="M 14.703125 0 
L 6.546875 0 
L 6.546875 71.578125 
L 15.328125 71.578125 
L 15.328125 46.046875 
Q 20.90625 53.03125 29.546875 53.03125 
Q 34.328125 53.03125 38.59375 51.09375 
Q 42.875 49.171875 45.625 45.671875 
Q 48.390625 42.1875 49.953125 37.25 
Q 51.515625 32.328125 51.515625 26.703125 
Q 51.515625 13.375 44.921875 6.09375 
Q 38.328125 -1.171875 29.109375 -1.171875 
Q 19.921875 -1.171875 14.703125 6.5 
z
M 14.59375 26.3125 
Q 14.59375 17 17.140625 12.84375 
Q 21.296875 6.0625 28.375 6.0625 
Q 34.125 6.0625 38.328125 11.0625 
Q 42.53125 16.0625 42.53125 25.984375 
Q 42.53125 36.140625 38.5 40.96875 
Q 34.46875 45.796875 28.765625 45.796875 
Q 23 45.796875 18.796875 40.796875 
Q 14.59375 35.796875 14.59375 26.3125 
z
" id="ArialMT-98"/>
       <path d="M 6.640625 61.46875 
L 6.640625 71.578125 
L 15.4375 71.578125 
L 15.4375 61.46875 
z
M 6.640625 0 
L 6.640625 51.859375 
L 15.4375 51.859375 
L 15.4375 0 
z
" id="ArialMT-105"/>
      </defs>
      <use xlink:href="#ArialMT-116"/>
      <use x="27.783203" xlink:href="#ArialMT-111"/>
      <use x="83.398438" xlink:href="#ArialMT-116"/>
      <use x="111.181641" xlink:href="#ArialMT-97"/>
      <use x="166.796875" xlink:href="#ArialMT-108"/>
      <use x="189.013672" xlink:href="#ArialMT-95"/>
      <use x="244.628906" xlink:href="#ArialMT-98"/>
      <use x="300.244141" xlink:href="#ArialMT-105"/>
      <use x="322.460938" xlink:href="#ArialMT-108"/>
      <use x="344.677734" xlink:href="#ArialMT-108"/>
     </g>
    </g>
   </g>
   <g id="matplotlib.axis_2">
    <g id="ytick_1">
     <g id="line2d_7">
      <defs>
       <path d="M 0 0 
L -6 0 
" id="m7ce0ec469c" style="stroke:#262626;stroke-width:1.25;"/>
      </defs>
      <g>
       <use style="fill:#262626;stroke:#262626;stroke-width:1.25;" x="13.2" xlink:href="#m7ce0ec469c" y="115.92"/>
      </g>
     </g>
    </g>
   </g>
   <g id="PolyCollection_1">
    <defs>
     <path d="M 28.418182 -150.304033 
L 28.418182 -150.604404 
L 31.492562 -150.68753 
L 34.566942 -150.807106 
L 37.641322 -150.975562 
L 40.715702 -151.209141 
L 43.790083 -151.529393 
L 46.864463 -151.96506 
L 49.938843 -152.554102 
L 53.013223 -153.345336 
L 56.087603 -154.398971 
L 59.161983 -155.785312 
L 62.236364 -157.581025 
L 65.310744 -159.862777 
L 68.385124 -162.698614 
L 71.459504 -166.138005 
L 74.533884 -170.20197 
L 77.608264 -174.874954 
L 80.682645 -180.100051 
L 83.757025 -185.7788 
L 86.831405 -191.776128 
L 89.905785 -197.930114 
L 92.980165 -204.065355 
L 96.054545 -210.007872 
L 99.128926 -215.599034 
L 102.203306 -220.706037 
L 105.277686 -225.227157 
L 108.352066 -229.091225 
L 111.426446 -232.252318 
L 114.500826 -234.681956 
L 117.575207 -236.361821 
L 120.649587 -237.279714 
L 123.723967 -237.430219 
L 126.798347 -236.819757 
L 129.872727 -235.473981 
L 132.947107 -233.444491 
L 136.021488 -230.811979 
L 139.095868 -227.684062 
L 142.170248 -224.187766 
L 145.244628 -220.458208 
L 148.319008 -216.625963 
L 151.393388 -212.805749 
L 154.467769 -209.08841 
L 157.542149 -205.537231 
L 160.616529 -202.188565 
L 163.690909 -199.055916 
L 166.765289 -196.136128 
L 169.839669 -193.416135 
L 172.91405 -190.878895 
L 175.98843 -188.507564 
L 179.06281 -186.287557 
L 182.13719 -184.206784 
L 185.21157 -182.254749 
L 188.28595 -180.421362 
L 191.360331 -178.696097 
L 194.434711 -177.067782 
L 197.509091 -175.524939 
L 200.583471 -174.056383 
L 203.657851 -172.651845 
L 206.732231 -171.302559 
L 209.806612 -170.001893 
L 212.880992 -168.74612 
L 215.955372 -167.53522 
L 219.029752 -166.373364 
L 222.104132 -165.268584 
L 225.178512 -164.231301 
L 228.252893 -163.271766 
L 231.327273 -162.397021 
L 234.401653 -161.608335 
L 237.476033 -160.900081 
L 240.550413 -160.2606 
L 243.624793 -159.674886 
L 246.699174 -159.128307 
L 249.773554 -158.610158 
L 252.847934 -158.115983 
L 255.922314 -157.648012 
L 258.996694 -157.213715 
L 262.071074 -156.823004 
L 265.145455 -156.484904 
L 268.219835 -156.204488 
L 271.294215 -155.980695 
L 274.368595 -155.805356 
L 277.442975 -155.663545 
L 280.517355 -155.535187 
L 283.591736 -155.397687 
L 286.666116 -155.229227 
L 289.740496 -155.01215 
L 292.814876 -154.735822 
L 295.889256 -154.398357 
L 298.963636 -154.006827 
L 302.038017 -153.575928 
L 305.112397 -153.12541 
L 308.186777 -152.676882 
L 311.261157 -152.250668 
L 314.335537 -151.863292 
L 317.409917 -151.525964 
L 320.484298 -151.24414 
L 323.558678 -151.018016 
L 326.633058 -150.843645 
L 329.707438 -150.714361 
L 332.781818 -150.622177 
L 332.781818 -150.286261 
L 332.781818 -150.286261 
L 329.707438 -150.194076 
L 326.633058 -150.064792 
L 323.558678 -149.890422 
L 320.484298 -149.664297 
L 317.409917 -149.382473 
L 314.335537 -149.045145 
L 311.261157 -148.657769 
L 308.186777 -148.231555 
L 305.112397 -147.783028 
L 302.038017 -147.332509 
L 298.963636 -146.90161 
L 295.889256 -146.510081 
L 292.814876 -146.172616 
L 289.740496 -145.896288 
L 286.666116 -145.679211 
L 283.591736 -145.51075 
L 280.517355 -145.373251 
L 277.442975 -145.244892 
L 274.368595 -145.103082 
L 271.294215 -144.927743 
L 268.219835 -144.703949 
L 265.145455 -144.423533 
L 262.071074 -144.085433 
L 258.996694 -143.694722 
L 255.922314 -143.260425 
L 252.847934 -142.792454 
L 249.773554 -142.29828 
L 246.699174 -141.780131 
L 243.624793 -141.233551 
L 240.550413 -140.647838 
L 237.476033 -140.008356 
L 234.401653 -139.300103 
L 231.327273 -138.511416 
L 228.252893 -137.636671 
L 225.178512 -136.677137 
L 222.104132 -135.639854 
L 219.029752 -134.535074 
L 215.955372 -133.373217 
L 212.880992 -132.162318 
L 209.806612 -130.906545 
L 206.732231 -129.605879 
L 203.657851 -128.256593 
L 200.583471 -126.852055 
L 197.509091 -125.383499 
L 194.434711 -123.840656 
L 191.360331 -122.212341 
L 188.28595 -120.487075 
L 185.21157 -118.653688 
L 182.13719 -116.701654 
L 179.06281 -114.62088 
L 175.98843 -112.400873 
L 172.91405 -110.029542 
L 169.839669 -107.492303 
L 166.765289 -104.77231 
L 163.690909 -101.852521 
L 160.616529 -98.719872 
L 157.542149 -95.371206 
L 154.467769 -91.820027 
L 151.393388 -88.102688 
L 148.319008 -84.282474 
L 145.244628 -80.45023 
L 142.170248 -76.720672 
L 139.095868 -73.224376 
L 136.021488 -70.096459 
L 132.947107 -67.463946 
L 129.872727 -65.434457 
L 126.798347 -64.088681 
L 123.723967 -63.478219 
L 120.649587 -63.628724 
L 117.575207 -64.546617 
L 114.500826 -66.226482 
L 111.426446 -68.656119 
L 108.352066 -71.817212 
L 105.277686 -75.681281 
L 102.203306 -80.202401 
L 99.128926 -85.309404 
L 96.054545 -90.900565 
L 92.980165 -96.843082 
L 89.905785 -102.978324 
L 86.831405 -109.13231 
L 83.757025 -115.129638 
L 80.682645 -120.808387 
L 77.608264 -126.033483 
L 74.533884 -130.706467 
L 71.459504 -134.770432 
L 68.385124 -138.209823 
L 65.310744 -141.04566 
L 62.236364 -143.327412 
L 59.161983 -145.123125 
L 56.087603 -146.509467 
L 53.013223 -147.563102 
L 49.938843 -148.354335 
L 46.864463 -148.943378 
L 43.790083 -149.379045 
L 40.715702 -149.699296 
L 37.641322 -149.932876 
L 34.566942 -150.101331 
L 31.492562 -150.220907 
L 28.418182 -150.304033 
z
" id="mbeef6be812" style="stroke:#4c4c4c;stroke-width:1.5;"/>
    </defs>
    <g clip-path="url(#pb88043ddfe)">
     <use style="fill:#5875a4;stroke:#4c4c4c;stroke-width:1.5;" x="0" xlink:href="#mbeef6be812" y="266.374219"/>
    </g>
   </g>
   <g id="line2d_8">
    <path clip-path="url(#pb88043ddfe)" d="M 58.701623 115.92 
L 248.162444 115.92 
" style="fill:none;stroke:#4c4c4c;stroke-linecap:round;stroke-width:1.5;"/>
   </g>
   <g id="line2d_9">
    <path clip-path="url(#pb88043ddfe)" d="M 111.186356 115.92 
L 166.237236 115.92 
" style="fill:none;stroke:#4c4c4c;stroke-linecap:round;stroke-width:4.5;"/>
   </g>
   <g id="patch_3">
    <path d="M 13.2 224.64 
L 13.2 7.2 
" style="fill:none;stroke:#262626;stroke-linecap:square;stroke-linejoin:miter;stroke-width:1.25;"/>
   </g>
   <g id="patch_4">
    <path d="M 348 224.64 
L 348 7.2 
" style="fill:none;stroke:#262626;stroke-linecap:square;stroke-linejoin:miter;stroke-width:1.25;"/>
   </g>
   <g id="patch_5">
    <path d="M 13.2 224.64 
L 348 224.64 
" style="fill:none;stroke:#262626;stroke-linecap:square;stroke-linejoin:miter;stroke-width:1.25;"/>
   </g>
   <g id="patch_6">
    <path d="M 13.2 7.2 
L 348 7.2 
" style="fill:none;stroke:#262626;stroke-linecap:square;stroke-linejoin:miter;stroke-width:1.25;"/>
   </g>
   <g id="PathCollection_1">
    <defs>
     <path d="M 0 1.5 
C 0.397805 1.5 0.77937 1.341951 1.06066 1.06066 
C 1.341951 0.77937 1.5 0.397805 1.5 0 
C 1.5 -0.397805 1.341951 -0.77937 1.06066 -1.06066 
C 0.77937 -1.341951 0.397805 -1.5 0 -1.5 
C -0.397805 -1.5 -0.77937 -1.341951 -1.06066 -1.06066 
C -1.341951 -0.77937 -1.5 -0.397805 -1.5 0 
C -1.5 0.397805 -1.341951 0.77937 -1.06066 1.06066 
C -0.77937 1.341951 -0.397805 1.5 0 1.5 
z
" id="m96735cafce" style="stroke:#4c4c4c;"/>
    </defs>
    <g clip-path="url(#pb88043ddfe)">
     <use style="fill:#ffffff;stroke:#4c4c4c;" x="133.898674" xlink:href="#m96735cafce" y="115.92"/>
    </g>
   </g>
  </g>
 </g>
 <defs>
  <clipPath id="pb88043ddfe">
   <rect height="217.44" width="334.8" x="13.2" y="7.2"/>
  </clipPath>
 </defs>
</svg>
