<?xml version="1.0" encoding="utf-8" standalone="no"?>
<!DOCTYPE svg PUBLIC "-//W3C//DTD SVG 1.1//EN"
  "http://www.w3.org/Graphics/SVG/1.1/DTD/svg11.dtd">
<!-- Created with matplotlib (https://matplotlib.org/) -->
<svg height="335.465312pt" version="1.1" viewBox="0 0 479.201562 335.465312" width="479.201562pt" xmlns="http://www.w3.org/2000/svg" xmlns:xlink="http://www.w3.org/1999/xlink">
 <metadata>
  <rdf:RDF xmlns:cc="http://creativecommons.org/ns#" xmlns:dc="http://purl.org/dc/elements/1.1/" xmlns:rdf="http://www.w3.org/1999/02/22-rdf-syntax-ns#">
   <cc:Work>
    <dc:type rdf:resource="http://purl.org/dc/dcmitype/StillImage"/>
    <dc:date>2022-01-30T21:55:37.189067</dc:date>
    <dc:format>image/svg+xml</dc:format>
    <dc:creator>
     <cc:Agent>
      <dc:title>Matplotlib v3.3.4, https://matplotlib.org/</dc:title>
     </cc:Agent>
    </dc:creator>
   </cc:Work>
  </rdf:RDF>
 </metadata>
 <defs>
  <style type="text/css">*{stroke-linecap:butt;stroke-linejoin:round;}</style>
 </defs>
 <g id="figure_1">
  <g id="patch_1">
   <path d="M 0 335.465312 
L 479.201562 335.465312 
L 479.201562 0 
L 0 0 
z
" style="fill:#ffffff;"/>
  </g>
  <g id="axes_1">
   <g id="patch_2">
    <path d="M 25.601562 312.12 
L 472.001562 312.12 
L 472.001562 7.2 
L 25.601562 7.2 
z
" style="fill:#eaeaf2;"/>
   </g>
   <g id="matplotlib.axis_1">
    <g id="xtick_1">
     <g id="line2d_1">
      <path clip-path="url(#pf8d33f696e)" d="M 45.892472 312.12 
L 45.892472 7.2 
" style="fill:none;stroke:#ffffff;stroke-linecap:round;"/>
     </g>
     <g id="line2d_2"/>
     <g id="text_1">
      <!-- 0.0 -->
      <g style="fill:#262626;" transform="translate(38.942472 326.277812)scale(0.1 -0.1)">
       <defs>
        <path d="M 4.15625 35.296875 
Q 4.15625 48 6.765625 55.734375 
Q 9.375 63.484375 14.515625 67.671875 
Q 19.671875 71.875 27.484375 71.875 
Q 33.25 71.875 37.59375 69.546875 
Q 41.9375 67.234375 44.765625 62.859375 
Q 47.609375 58.5 49.21875 52.21875 
Q 50.828125 45.953125 50.828125 35.296875 
Q 50.828125 22.703125 48.234375 14.96875 
Q 45.65625 7.234375 40.5 3 
Q 35.359375 -1.21875 27.484375 -1.21875 
Q 17.140625 -1.21875 11.234375 6.203125 
Q 4.15625 15.140625 4.15625 35.296875 
z
M 13.1875 35.296875 
Q 13.1875 17.671875 17.3125 11.828125 
Q 21.4375 6 27.484375 6 
Q 33.546875 6 37.671875 11.859375 
Q 41.796875 17.71875 41.796875 35.296875 
Q 41.796875 52.984375 37.671875 58.78125 
Q 33.546875 64.59375 27.390625 64.59375 
Q 21.34375 64.59375 17.71875 59.46875 
Q 13.1875 52.9375 13.1875 35.296875 
z
" id="ArialMT-48"/>
        <path d="M 9.078125 0 
L 9.078125 10.015625 
L 19.09375 10.015625 
L 19.09375 0 
z
" id="ArialMT-46"/>
       </defs>
       <use xlink:href="#ArialMT-48"/>
       <use x="55.615234" xlink:href="#ArialMT-46"/>
       <use x="83.398438" xlink:href="#ArialMT-48"/>
      </g>
     </g>
    </g>
    <g id="xtick_2">
     <g id="line2d_3">
      <path clip-path="url(#pf8d33f696e)" d="M 96.619744 312.12 
L 96.619744 7.2 
" style="fill:none;stroke:#ffffff;stroke-linecap:round;"/>
     </g>
     <g id="line2d_4"/>
     <g id="text_2">
      <!-- 2.5 -->
      <g style="fill:#262626;" transform="translate(89.669744 326.277812)scale(0.1 -0.1)">
       <defs>
        <path d="M 50.34375 8.453125 
L 50.34375 0 
L 3.03125 0 
Q 2.9375 3.171875 4.046875 6.109375 
Q 5.859375 10.9375 9.828125 15.625 
Q 13.8125 20.3125 21.34375 26.46875 
Q 33.015625 36.03125 37.109375 41.625 
Q 41.21875 47.21875 41.21875 52.203125 
Q 41.21875 57.421875 37.46875 61 
Q 33.734375 64.59375 27.734375 64.59375 
Q 21.390625 64.59375 17.578125 60.78125 
Q 13.765625 56.984375 13.71875 50.25 
L 4.6875 51.171875 
Q 5.609375 61.28125 11.65625 66.578125 
Q 17.71875 71.875 27.9375 71.875 
Q 38.234375 71.875 44.234375 66.15625 
Q 50.25 60.453125 50.25 52 
Q 50.25 47.703125 48.484375 43.546875 
Q 46.734375 39.40625 42.65625 34.8125 
Q 38.578125 30.21875 29.109375 22.21875 
Q 21.1875 15.578125 18.9375 13.203125 
Q 16.703125 10.84375 15.234375 8.453125 
z
" id="ArialMT-50"/>
        <path d="M 4.15625 18.75 
L 13.375 19.53125 
Q 14.40625 12.796875 18.140625 9.390625 
Q 21.875 6 27.15625 6 
Q 33.5 6 37.890625 10.78125 
Q 42.28125 15.578125 42.28125 23.484375 
Q 42.28125 31 38.0625 35.34375 
Q 33.84375 39.703125 27 39.703125 
Q 22.75 39.703125 19.328125 37.765625 
Q 15.921875 35.84375 13.96875 32.765625 
L 5.71875 33.84375 
L 12.640625 70.609375 
L 48.25 70.609375 
L 48.25 62.203125 
L 19.671875 62.203125 
L 15.828125 42.96875 
Q 22.265625 47.46875 29.34375 47.46875 
Q 38.71875 47.46875 45.15625 40.96875 
Q 51.609375 34.46875 51.609375 24.265625 
Q 51.609375 14.546875 45.953125 7.46875 
Q 39.0625 -1.21875 27.15625 -1.21875 
Q 17.390625 -1.21875 11.203125 4.25 
Q 5.03125 9.71875 4.15625 18.75 
z
" id="ArialMT-53"/>
       </defs>
       <use xlink:href="#ArialMT-50"/>
       <use x="55.615234" xlink:href="#ArialMT-46"/>
       <use x="83.398438" xlink:href="#ArialMT-53"/>
      </g>
     </g>
    </g>
    <g id="xtick_3">
     <g id="line2d_5">
      <path clip-path="url(#pf8d33f696e)" d="M 147.347017 312.12 
L 147.347017 7.2 
" style="fill:none;stroke:#ffffff;stroke-linecap:round;"/>
     </g>
     <g id="line2d_6"/>
     <g id="text_3">
      <!-- 5.0 -->
      <g style="fill:#262626;" transform="translate(140.397017 326.277812)scale(0.1 -0.1)">
       <use xlink:href="#ArialMT-53"/>
       <use x="55.615234" xlink:href="#ArialMT-46"/>
       <use x="83.398438" xlink:href="#ArialMT-48"/>
      </g>
     </g>
    </g>
    <g id="xtick_4">
     <g id="line2d_7">
      <path clip-path="url(#pf8d33f696e)" d="M 198.07429 312.12 
L 198.07429 7.2 
" style="fill:none;stroke:#ffffff;stroke-linecap:round;"/>
     </g>
     <g id="line2d_8"/>
     <g id="text_4">
      <!-- 7.5 -->
      <g style="fill:#262626;" transform="translate(191.12429 326.277812)scale(0.1 -0.1)">
       <defs>
        <path d="M 4.734375 62.203125 
L 4.734375 70.65625 
L 51.078125 70.65625 
L 51.078125 63.8125 
Q 44.234375 56.546875 37.515625 44.484375 
Q 30.8125 32.421875 27.15625 19.671875 
Q 24.515625 10.6875 23.78125 0 
L 14.75 0 
Q 14.890625 8.453125 18.0625 20.40625 
Q 21.234375 32.375 27.171875 43.484375 
Q 33.109375 54.59375 39.796875 62.203125 
z
" id="ArialMT-55"/>
       </defs>
       <use xlink:href="#ArialMT-55"/>
       <use x="55.615234" xlink:href="#ArialMT-46"/>
       <use x="83.398438" xlink:href="#ArialMT-53"/>
      </g>
     </g>
    </g>
    <g id="xtick_5">
     <g id="line2d_9">
      <path clip-path="url(#pf8d33f696e)" d="M 248.801562 312.12 
L 248.801562 7.2 
" style="fill:none;stroke:#ffffff;stroke-linecap:round;"/>
     </g>
     <g id="line2d_10"/>
     <g id="text_5">
      <!-- 10.0 -->
      <g style="fill:#262626;" transform="translate(239.071094 326.277812)scale(0.1 -0.1)">
       <defs>
        <path d="M 37.25 0 
L 28.46875 0 
L 28.46875 56 
Q 25.296875 52.984375 20.140625 49.953125 
Q 14.984375 46.921875 10.890625 45.40625 
L 10.890625 53.90625 
Q 18.265625 57.375 23.78125 62.296875 
Q 29.296875 67.234375 31.59375 71.875 
L 37.25 71.875 
z
" id="ArialMT-49"/>
       </defs>
       <use xlink:href="#ArialMT-49"/>
       <use x="55.615234" xlink:href="#ArialMT-48"/>
       <use x="111.230469" xlink:href="#ArialMT-46"/>
       <use x="139.013672" xlink:href="#ArialMT-48"/>
      </g>
     </g>
    </g>
    <g id="xtick_6">
     <g id="line2d_11">
      <path clip-path="url(#pf8d33f696e)" d="M 299.528835 312.12 
L 299.528835 7.2 
" style="fill:none;stroke:#ffffff;stroke-linecap:round;"/>
     </g>
     <g id="line2d_12"/>
     <g id="text_6">
      <!-- 12.5 -->
      <g style="fill:#262626;" transform="translate(289.798366 326.277812)scale(0.1 -0.1)">
       <use xlink:href="#ArialMT-49"/>
       <use x="55.615234" xlink:href="#ArialMT-50"/>
       <use x="111.230469" xlink:href="#ArialMT-46"/>
       <use x="139.013672" xlink:href="#ArialMT-53"/>
      </g>
     </g>
    </g>
    <g id="xtick_7">
     <g id="line2d_13">
      <path clip-path="url(#pf8d33f696e)" d="M 350.256108 312.12 
L 350.256108 7.2 
" style="fill:none;stroke:#ffffff;stroke-linecap:round;"/>
     </g>
     <g id="line2d_14"/>
     <g id="text_7">
      <!-- 15.0 -->
      <g style="fill:#262626;" transform="translate(340.525639 326.277812)scale(0.1 -0.1)">
       <use xlink:href="#ArialMT-49"/>
       <use x="55.615234" xlink:href="#ArialMT-53"/>
       <use x="111.230469" xlink:href="#ArialMT-46"/>
       <use x="139.013672" xlink:href="#ArialMT-48"/>
      </g>
     </g>
    </g>
    <g id="xtick_8">
     <g id="line2d_15">
      <path clip-path="url(#pf8d33f696e)" d="M 400.983381 312.12 
L 400.983381 7.2 
" style="fill:none;stroke:#ffffff;stroke-linecap:round;"/>
     </g>
     <g id="line2d_16"/>
     <g id="text_8">
      <!-- 17.5 -->
      <g style="fill:#262626;" transform="translate(391.252912 326.277812)scale(0.1 -0.1)">
       <use xlink:href="#ArialMT-49"/>
       <use x="55.615234" xlink:href="#ArialMT-55"/>
       <use x="111.230469" xlink:href="#ArialMT-46"/>
       <use x="139.013672" xlink:href="#ArialMT-53"/>
      </g>
     </g>
    </g>
    <g id="xtick_9">
     <g id="line2d_17">
      <path clip-path="url(#pf8d33f696e)" d="M 451.710653 312.12 
L 451.710653 7.2 
" style="fill:none;stroke:#ffffff;stroke-linecap:round;"/>
     </g>
     <g id="line2d_18"/>
     <g id="text_9">
      <!-- 20.0 -->
      <g style="fill:#262626;" transform="translate(441.980185 326.277812)scale(0.1 -0.1)">
       <use xlink:href="#ArialMT-50"/>
       <use x="55.615234" xlink:href="#ArialMT-48"/>
       <use x="111.230469" xlink:href="#ArialMT-46"/>
       <use x="139.013672" xlink:href="#ArialMT-48"/>
      </g>
     </g>
    </g>
   </g>
   <g id="matplotlib.axis_2">
    <g id="ytick_1">
     <g id="line2d_19">
      <path clip-path="url(#pf8d33f696e)" d="M 25.601562 281.417938 
L 472.001562 281.417938 
" style="fill:none;stroke:#ffffff;stroke-linecap:round;"/>
     </g>
     <g id="line2d_20"/>
     <g id="text_10">
      <!-- −6 -->
      <g style="fill:#262626;" transform="translate(7.2 284.996844)scale(0.1 -0.1)">
       <defs>
        <path d="M 52.828125 31.203125 
L 5.5625 31.203125 
L 5.5625 39.40625 
L 52.828125 39.40625 
z
" id="ArialMT-8722"/>
        <path d="M 49.75 54.046875 
L 41.015625 53.375 
Q 39.84375 58.546875 37.703125 60.890625 
Q 34.125 64.65625 28.90625 64.65625 
Q 24.703125 64.65625 21.53125 62.3125 
Q 17.390625 59.28125 14.984375 53.46875 
Q 12.59375 47.65625 12.5 36.921875 
Q 15.671875 41.75 20.265625 44.09375 
Q 24.859375 46.4375 29.890625 46.4375 
Q 38.671875 46.4375 44.84375 39.96875 
Q 51.03125 33.5 51.03125 23.25 
Q 51.03125 16.5 48.125 10.71875 
Q 45.21875 4.9375 40.140625 1.859375 
Q 35.0625 -1.21875 28.609375 -1.21875 
Q 17.625 -1.21875 10.6875 6.859375 
Q 3.765625 14.9375 3.765625 33.5 
Q 3.765625 54.25 11.421875 63.671875 
Q 18.109375 71.875 29.4375 71.875 
Q 37.890625 71.875 43.28125 67.140625 
Q 48.6875 62.40625 49.75 54.046875 
z
M 13.875 23.1875 
Q 13.875 18.65625 15.796875 14.5 
Q 17.71875 10.359375 21.1875 8.171875 
Q 24.65625 6 28.46875 6 
Q 34.03125 6 38.03125 10.484375 
Q 42.046875 14.984375 42.046875 22.703125 
Q 42.046875 30.125 38.078125 34.390625 
Q 34.125 38.671875 28.125 38.671875 
Q 22.171875 38.671875 18.015625 34.390625 
Q 13.875 30.125 13.875 23.1875 
z
" id="ArialMT-54"/>
       </defs>
       <use xlink:href="#ArialMT-8722"/>
       <use x="58.398438" xlink:href="#ArialMT-54"/>
      </g>
     </g>
    </g>
    <g id="ytick_2">
     <g id="line2d_21">
      <path clip-path="url(#pf8d33f696e)" d="M 25.601562 240.83612 
L 472.001562 240.83612 
" style="fill:none;stroke:#ffffff;stroke-linecap:round;"/>
     </g>
     <g id="line2d_22"/>
     <g id="text_11">
      <!-- −4 -->
      <g style="fill:#262626;" transform="translate(7.2 244.415026)scale(0.1 -0.1)">
       <defs>
        <path d="M 32.328125 0 
L 32.328125 17.140625 
L 1.265625 17.140625 
L 1.265625 25.203125 
L 33.9375 71.578125 
L 41.109375 71.578125 
L 41.109375 25.203125 
L 50.78125 25.203125 
L 50.78125 17.140625 
L 41.109375 17.140625 
L 41.109375 0 
z
M 32.328125 25.203125 
L 32.328125 57.46875 
L 9.90625 25.203125 
z
" id="ArialMT-52"/>
       </defs>
       <use xlink:href="#ArialMT-8722"/>
       <use x="58.398438" xlink:href="#ArialMT-52"/>
      </g>
     </g>
    </g>
    <g id="ytick_3">
     <g id="line2d_23">
      <path clip-path="url(#pf8d33f696e)" d="M 25.601562 200.254302 
L 472.001562 200.254302 
" style="fill:none;stroke:#ffffff;stroke-linecap:round;"/>
     </g>
     <g id="line2d_24"/>
     <g id="text_12">
      <!-- −2 -->
      <g style="fill:#262626;" transform="translate(7.2 203.833208)scale(0.1 -0.1)">
       <use xlink:href="#ArialMT-8722"/>
       <use x="58.398438" xlink:href="#ArialMT-50"/>
      </g>
     </g>
    </g>
    <g id="ytick_4">
     <g id="line2d_25">
      <path clip-path="url(#pf8d33f696e)" d="M 25.601562 159.672483 
L 472.001562 159.672483 
" style="fill:none;stroke:#ffffff;stroke-linecap:round;"/>
     </g>
     <g id="line2d_26"/>
     <g id="text_13">
      <!-- 0 -->
      <g style="fill:#262626;" transform="translate(13.040625 163.25139)scale(0.1 -0.1)">
       <use xlink:href="#ArialMT-48"/>
      </g>
     </g>
    </g>
    <g id="ytick_5">
     <g id="line2d_27">
      <path clip-path="url(#pf8d33f696e)" d="M 25.601562 119.090665 
L 472.001562 119.090665 
" style="fill:none;stroke:#ffffff;stroke-linecap:round;"/>
     </g>
     <g id="line2d_28"/>
     <g id="text_14">
      <!-- 2 -->
      <g style="fill:#262626;" transform="translate(13.040625 122.669572)scale(0.1 -0.1)">
       <use xlink:href="#ArialMT-50"/>
      </g>
     </g>
    </g>
    <g id="ytick_6">
     <g id="line2d_29">
      <path clip-path="url(#pf8d33f696e)" d="M 25.601562 78.508847 
L 472.001562 78.508847 
" style="fill:none;stroke:#ffffff;stroke-linecap:round;"/>
     </g>
     <g id="line2d_30"/>
     <g id="text_15">
      <!-- 4 -->
      <g style="fill:#262626;" transform="translate(13.040625 82.087753)scale(0.1 -0.1)">
       <use xlink:href="#ArialMT-52"/>
      </g>
     </g>
    </g>
    <g id="ytick_7">
     <g id="line2d_31">
      <path clip-path="url(#pf8d33f696e)" d="M 25.601562 37.927029 
L 472.001562 37.927029 
" style="fill:none;stroke:#ffffff;stroke-linecap:round;"/>
     </g>
     <g id="line2d_32"/>
     <g id="text_16">
      <!-- 6 -->
      <g style="fill:#262626;" transform="translate(13.040625 41.505935)scale(0.1 -0.1)">
       <use xlink:href="#ArialMT-54"/>
      </g>
     </g>
    </g>
   </g>
   <g id="line2d_33">
    <path clip-path="url(#pf8d33f696e)" d="M 45.892472 139.381574 
L 49.991645 139.794226 
L 54.090819 141.015397 
L 58.189992 142.995418 
L 62.289166 145.653754 
L 66.388339 148.882282 
L 70.487513 152.549685 
L 74.586686 156.506798 
L 78.68586 160.592671 
L 82.785034 164.641116 
L 86.884207 168.487469 
L 90.983381 171.975286 
L 95.082554 174.962704 
L 99.181728 177.328215 
L 103.280901 178.975604 
L 107.380075 179.837867 
L 111.479248 179.879932 
L 115.578422 179.100089 
L 119.677596 177.530056 
L 123.776769 175.233692 
L 127.875943 172.304398 
L 131.975116 168.86132 
L 136.07429 165.044499 
L 140.173463 161.009179 
L 144.272637 156.919491 
L 148.37181 152.941778 
L 152.470984 149.237825 
L 156.570158 145.958288 
L 160.669331 143.236555 
L 164.768505 141.18333 
L 168.867678 139.882124 
L 172.966852 139.385862 
L 177.066025 139.71473 
L 181.165199 140.85535 
L 185.264372 142.761329 
L 189.363546 145.355145 
L 193.46272 148.531299 
L 197.561893 152.160603 
L 201.661067 156.095443 
L 205.76024 160.175773 
L 209.859414 164.235633 
L 213.958587 168.109893 
L 218.057761 171.640974 
L 222.156934 174.685254 
L 226.256108 177.118912 
L 230.355282 178.842961 
L 234.454455 179.787279 
L 238.553629 179.913456 
L 242.652802 179.216362 
L 246.751976 177.724349 
L 250.851149 175.498102 
L 254.950323 172.628171 
L 259.049496 169.231287 
L 263.14867 165.445612 
L 267.247843 161.425123 
L 271.347017 157.333348 
L 275.446191 153.336715 
L 279.545364 149.597779 
L 283.644538 146.268618 
L 287.743711 143.484639 
L 291.842885 141.359077 
L 295.942058 139.978387 
L 300.041232 139.398725 
L 304.140405 139.643669 
L 308.239579 140.703256 
L 312.338753 142.534388 
L 316.437926 145.062588 
L 320.5371 148.185024 
L 324.636273 151.774696 
L 328.735447 155.685599 
L 332.83462 159.758663 
L 336.933794 163.828221 
L 341.032967 167.728751 
L 345.132141 171.301604 
L 349.231315 174.401459 
L 353.330488 176.902234 
L 357.429662 178.702215 
L 361.528835 179.728189 
L 365.628009 179.938426 
L 369.727182 179.324375 
L 373.826356 177.911012 
L 377.925529 175.755823 
L 382.024703 172.946468 
L 386.123877 169.597213 
L 390.22305 165.844284 
L 394.322224 161.840326 
L 398.421397 157.748194 
L 402.520571 153.73433 
L 406.619744 149.961991 
L 410.718918 146.584613 
L 414.818091 143.739565 
L 418.917265 141.542565 
L 423.016439 140.082973 
L 427.115612 139.420156 
L 431.214786 139.581073 
L 435.313959 140.559179 
L 439.413133 142.314691 
L 443.512306 144.776206 
L 447.61148 147.843606 
L 451.710653 151.392127 
" style="fill:none;stroke:#4c72b0;stroke-linecap:round;stroke-width:1.75;"/>
   </g>
   <g id="patch_3">
    <path d="M 25.601562 312.12 
L 25.601562 7.2 
" style="fill:none;"/>
   </g>
   <g id="patch_4">
    <path d="M 472.001562 312.12 
L 472.001562 7.2 
" style="fill:none;"/>
   </g>
   <g id="patch_5">
    <path d="M 25.601562 312.12 
L 472.001562 312.12 
" style="fill:none;"/>
   </g>
   <g id="patch_6">
    <path d="M 25.601562 7.2 
L 472.001562 7.2 
" style="fill:none;"/>
   </g>
   <g id="patch_7">
    <path d="M 82.385291 229.921902 
Q 95.533543 205.8193 108.521169 182.011145 
" style="fill:none;stroke:#000000;stroke-linecap:round;stroke-width:0.3;"/>
    <path d="M 104.849857 184.564862 
L 108.521169 182.011145 
L 108.361355 186.480425 
" style="fill:none;stroke:#000000;stroke-linecap:round;stroke-width:0.3;"/>
   </g>
   <g id="text_17">
    <!-- local minimum -->
    <g style="fill:#262626;" transform="translate(45.892472 240.83612)scale(0.1 -0.1)">
     <defs>
      <path d="M 6.390625 0 
L 6.390625 71.578125 
L 15.1875 71.578125 
L 15.1875 0 
z
" id="ArialMT-108"/>
      <path d="M 3.328125 25.921875 
Q 3.328125 40.328125 11.328125 47.265625 
Q 18.015625 53.03125 27.640625 53.03125 
Q 38.328125 53.03125 45.109375 46.015625 
Q 51.90625 39.015625 51.90625 26.65625 
Q 51.90625 16.65625 48.90625 10.90625 
Q 45.90625 5.171875 40.15625 2 
Q 34.421875 -1.171875 27.640625 -1.171875 
Q 16.75 -1.171875 10.03125 5.8125 
Q 3.328125 12.796875 3.328125 25.921875 
z
M 12.359375 25.921875 
Q 12.359375 15.96875 16.703125 11.015625 
Q 21.046875 6.0625 27.640625 6.0625 
Q 34.1875 6.0625 38.53125 11.03125 
Q 42.875 16.015625 42.875 26.21875 
Q 42.875 35.84375 38.5 40.796875 
Q 34.125 45.75 27.640625 45.75 
Q 21.046875 45.75 16.703125 40.8125 
Q 12.359375 35.890625 12.359375 25.921875 
z
" id="ArialMT-111"/>
      <path d="M 40.4375 19 
L 49.078125 17.875 
Q 47.65625 8.9375 41.8125 3.875 
Q 35.984375 -1.171875 27.484375 -1.171875 
Q 16.84375 -1.171875 10.375 5.78125 
Q 3.90625 12.75 3.90625 25.734375 
Q 3.90625 34.125 6.6875 40.421875 
Q 9.46875 46.734375 15.15625 49.875 
Q 20.84375 53.03125 27.546875 53.03125 
Q 35.984375 53.03125 41.359375 48.75 
Q 46.734375 44.484375 48.25 36.625 
L 39.703125 35.296875 
Q 38.484375 40.53125 35.375 43.15625 
Q 32.28125 45.796875 27.875 45.796875 
Q 21.234375 45.796875 17.078125 41.03125 
Q 12.9375 36.28125 12.9375 25.984375 
Q 12.9375 15.53125 16.9375 10.796875 
Q 20.953125 6.0625 27.390625 6.0625 
Q 32.5625 6.0625 36.03125 9.234375 
Q 39.5 12.40625 40.4375 19 
z
" id="ArialMT-99"/>
      <path d="M 40.4375 6.390625 
Q 35.546875 2.25 31.03125 0.53125 
Q 26.515625 -1.171875 21.34375 -1.171875 
Q 12.796875 -1.171875 8.203125 3 
Q 3.609375 7.171875 3.609375 13.671875 
Q 3.609375 17.484375 5.34375 20.625 
Q 7.078125 23.78125 9.890625 25.6875 
Q 12.703125 27.59375 16.21875 28.5625 
Q 18.796875 29.25 24.03125 29.890625 
Q 34.671875 31.15625 39.703125 32.90625 
Q 39.75 34.71875 39.75 35.203125 
Q 39.75 40.578125 37.25 42.78125 
Q 33.890625 45.75 27.25 45.75 
Q 21.046875 45.75 18.09375 43.578125 
Q 15.140625 41.40625 13.71875 35.890625 
L 5.125 37.0625 
Q 6.296875 42.578125 8.984375 45.96875 
Q 11.671875 49.359375 16.75 51.1875 
Q 21.828125 53.03125 28.515625 53.03125 
Q 35.15625 53.03125 39.296875 51.46875 
Q 43.453125 49.90625 45.40625 47.53125 
Q 47.359375 45.171875 48.140625 41.546875 
Q 48.578125 39.3125 48.578125 33.453125 
L 48.578125 21.734375 
Q 48.578125 9.46875 49.140625 6.21875 
Q 49.703125 2.984375 51.375 0 
L 42.1875 0 
Q 40.828125 2.734375 40.4375 6.390625 
z
M 39.703125 26.03125 
Q 34.90625 24.078125 25.34375 22.703125 
Q 19.921875 21.921875 17.671875 20.9375 
Q 15.4375 19.96875 14.203125 18.09375 
Q 12.984375 16.21875 12.984375 13.921875 
Q 12.984375 10.40625 15.640625 8.0625 
Q 18.3125 5.71875 23.4375 5.71875 
Q 28.515625 5.71875 32.46875 7.9375 
Q 36.421875 10.15625 38.28125 14.015625 
Q 39.703125 17 39.703125 22.796875 
z
" id="ArialMT-97"/>
      <path id="ArialMT-32"/>
      <path d="M 6.59375 0 
L 6.59375 51.859375 
L 14.453125 51.859375 
L 14.453125 44.578125 
Q 16.890625 48.390625 20.9375 50.703125 
Q 25 53.03125 30.171875 53.03125 
Q 35.9375 53.03125 39.625 50.640625 
Q 43.3125 48.25 44.828125 43.953125 
Q 50.984375 53.03125 60.84375 53.03125 
Q 68.5625 53.03125 72.703125 48.75 
Q 76.859375 44.484375 76.859375 35.59375 
L 76.859375 0 
L 68.109375 0 
L 68.109375 32.671875 
Q 68.109375 37.9375 67.25 40.25 
Q 66.40625 42.578125 64.15625 43.984375 
Q 61.921875 45.40625 58.890625 45.40625 
Q 53.421875 45.40625 49.796875 41.765625 
Q 46.1875 38.140625 46.1875 30.125 
L 46.1875 0 
L 37.40625 0 
L 37.40625 33.6875 
Q 37.40625 39.546875 35.25 42.46875 
Q 33.109375 45.40625 28.21875 45.40625 
Q 24.515625 45.40625 21.359375 43.453125 
Q 18.21875 41.5 16.796875 37.734375 
Q 15.375 33.984375 15.375 26.90625 
L 15.375 0 
z
" id="ArialMT-109"/>
      <path d="M 6.640625 61.46875 
L 6.640625 71.578125 
L 15.4375 71.578125 
L 15.4375 61.46875 
z
M 6.640625 0 
L 6.640625 51.859375 
L 15.4375 51.859375 
L 15.4375 0 
z
" id="ArialMT-105"/>
      <path d="M 6.59375 0 
L 6.59375 51.859375 
L 14.5 51.859375 
L 14.5 44.484375 
Q 20.21875 53.03125 31 53.03125 
Q 35.6875 53.03125 39.625 51.34375 
Q 43.5625 49.65625 45.515625 46.921875 
Q 47.46875 44.1875 48.25 40.4375 
Q 48.734375 37.984375 48.734375 31.890625 
L 48.734375 0 
L 39.9375 0 
L 39.9375 31.546875 
Q 39.9375 36.921875 38.90625 39.578125 
Q 37.890625 42.234375 35.28125 43.8125 
Q 32.671875 45.40625 29.15625 45.40625 
Q 23.53125 45.40625 19.453125 41.84375 
Q 15.375 38.28125 15.375 28.328125 
L 15.375 0 
z
" id="ArialMT-110"/>
      <path d="M 40.578125 0 
L 40.578125 7.625 
Q 34.515625 -1.171875 24.125 -1.171875 
Q 19.53125 -1.171875 15.546875 0.578125 
Q 11.578125 2.34375 9.640625 5 
Q 7.71875 7.671875 6.9375 11.53125 
Q 6.390625 14.109375 6.390625 19.734375 
L 6.390625 51.859375 
L 15.1875 51.859375 
L 15.1875 23.09375 
Q 15.1875 16.21875 15.71875 13.8125 
Q 16.546875 10.359375 19.234375 8.375 
Q 21.921875 6.390625 25.875 6.390625 
Q 29.828125 6.390625 33.296875 8.421875 
Q 36.765625 10.453125 38.203125 13.9375 
Q 39.65625 17.4375 39.65625 24.078125 
L 39.65625 51.859375 
L 48.4375 51.859375 
L 48.4375 0 
z
" id="ArialMT-117"/>
     </defs>
     <use xlink:href="#ArialMT-108"/>
     <use x="22.216797" xlink:href="#ArialMT-111"/>
     <use x="77.832031" xlink:href="#ArialMT-99"/>
     <use x="127.832031" xlink:href="#ArialMT-97"/>
     <use x="183.447266" xlink:href="#ArialMT-108"/>
     <use x="205.664062" xlink:href="#ArialMT-32"/>
     <use x="233.447266" xlink:href="#ArialMT-109"/>
     <use x="316.748047" xlink:href="#ArialMT-105"/>
     <use x="338.964844" xlink:href="#ArialMT-110"/>
     <use x="394.580078" xlink:href="#ArialMT-105"/>
     <use x="416.796875" xlink:href="#ArialMT-109"/>
     <use x="500.097656" xlink:href="#ArialMT-117"/>
     <use x="555.712891" xlink:href="#ArialMT-109"/>
    </g>
   </g>
   <g id="patch_8">
    <path d="M 155.520954 278.832782 
L 237.129784 278.832782 
L 237.129784 184.1999 
" style="fill:none;stroke:#000000;stroke-dasharray:12.8,3.2,2,3.2;stroke-dashoffset:0;stroke-linecap:round;stroke-width:2;"/>
    <path d="M 235.129784 188.1999 
L 237.129784 184.1999 
L 239.129784 188.1999 
L 235.129784 188.1999 
z
" style="fill:#4c72b0;stroke:#000000;stroke-dasharray:12.8,3.2,2,3.2;stroke-dashoffset:0;stroke-linecap:round;stroke-width:2;"/>
   </g>
   <g id="text_18">
    <g id="patch_9">
     <path d="M 86.47429 286.405438 
L 150.372727 286.405438 
Q 153.372727 286.405438 153.372727 283.405438 
L 153.372727 274.260125 
Q 153.372727 271.260125 150.372727 271.260125 
L 86.47429 271.260125 
Q 83.47429 271.260125 83.47429 274.260125 
L 83.47429 283.405438 
Q 83.47429 286.405438 86.47429 286.405438 
z
" style="fill:#ffff00;stroke:#000000;stroke-linejoin:miter;stroke-width:0.3;"/>
    </g>
    <!-- local minimum -->
    <g style="fill:#262626;" transform="translate(86.47429 281.417938)scale(0.1 -0.1)">
     <use xlink:href="#ArialMT-108"/>
     <use x="22.216797" xlink:href="#ArialMT-111"/>
     <use x="77.832031" xlink:href="#ArialMT-99"/>
     <use x="127.832031" xlink:href="#ArialMT-97"/>
     <use x="183.447266" xlink:href="#ArialMT-108"/>
     <use x="205.664062" xlink:href="#ArialMT-32"/>
     <use x="233.447266" xlink:href="#ArialMT-109"/>
     <use x="316.748047" xlink:href="#ArialMT-105"/>
     <use x="338.964844" xlink:href="#ArialMT-110"/>
     <use x="394.580078" xlink:href="#ArialMT-105"/>
     <use x="416.796875" xlink:href="#ArialMT-109"/>
     <use x="500.097656" xlink:href="#ArialMT-117"/>
     <use x="555.712891" xlink:href="#ArialMT-109"/>
    </g>
   </g>
   <g id="patch_10">
    <path d="M 162.518602 76.842342 
Q 362.46572 85.605522 364.546715 175.72683 
" style="fill:none;stroke:#000000;stroke-dasharray:12.8,3.2,2,3.2;stroke-dashoffset:0;stroke-linecap:round;stroke-width:2;"/>
    <path d="M 366.453843 171.681726 
L 364.546715 175.72683 
L 362.454909 171.774065 
L 366.453843 171.681726 
z
" style="fill:#4c72b0;stroke:#000000;stroke-dasharray:12.8,3.2,2,3.2;stroke-dashoffset:0;stroke-linecap:round;stroke-width:2;"/>
   </g>
   <g id="text_19">
    <g id="patch_11">
     <path d="M 86.47429 90.496347 
L 150.372727 90.496347 
Q 160.372727 90.496347 160.372727 80.496347 
L 160.372727 71.351035 
Q 160.372727 61.351035 150.372727 61.351035 
L 86.47429 61.351035 
Q 76.47429 61.351035 76.47429 71.351035 
L 76.47429 80.496347 
Q 76.47429 90.496347 86.47429 90.496347 
z
" style="fill:#ffff00;opacity:0.4;stroke:#000000;stroke-linejoin:miter;stroke-width:0.3;"/>
    </g>
    <!-- local minimum -->
    <g style="fill:#262626;" transform="translate(86.47429 78.508847)scale(0.1 -0.1)">
     <use xlink:href="#ArialMT-108"/>
     <use x="22.216797" xlink:href="#ArialMT-111"/>
     <use x="77.832031" xlink:href="#ArialMT-99"/>
     <use x="127.832031" xlink:href="#ArialMT-97"/>
     <use x="183.447266" xlink:href="#ArialMT-108"/>
     <use x="205.664062" xlink:href="#ArialMT-32"/>
     <use x="233.447266" xlink:href="#ArialMT-109"/>
     <use x="316.748047" xlink:href="#ArialMT-105"/>
     <use x="338.964844" xlink:href="#ArialMT-110"/>
     <use x="394.580078" xlink:href="#ArialMT-105"/>
     <use x="416.796875" xlink:href="#ArialMT-109"/>
     <use x="500.097656" xlink:href="#ArialMT-117"/>
     <use x="555.712891" xlink:href="#ArialMT-109"/>
    </g>
   </g>
  </g>
 </g>
 <defs>
  <clipPath id="pf8d33f696e">
   <rect height="304.92" width="446.4" x="25.601562" y="7.2"/>
  </clipPath>
 </defs>
</svg>
