<?xml version="1.0" encoding="utf-8" standalone="no"?>
<!DOCTYPE svg PUBLIC "-//W3C//DTD SVG 1.1//EN"
  "http://www.w3.org/Graphics/SVG/1.1/DTD/svg11.dtd">
<!-- Created with matplotlib (https://matplotlib.org/) -->
<svg height="329.525312pt" version="1.1" viewBox="0 0 479.201562 329.525312" width="479.201562pt" xmlns="http://www.w3.org/2000/svg" xmlns:xlink="http://www.w3.org/1999/xlink">
 <metadata>
  <rdf:RDF xmlns:cc="http://creativecommons.org/ns#" xmlns:dc="http://purl.org/dc/elements/1.1/" xmlns:rdf="http://www.w3.org/1999/02/22-rdf-syntax-ns#">
   <cc:Work>
    <dc:type rdf:resource="http://purl.org/dc/dcmitype/StillImage"/>
    <dc:date>2021-12-07T18:33:47.669353</dc:date>
    <dc:format>image/svg+xml</dc:format>
    <dc:creator>
     <cc:Agent>
      <dc:title>Matplotlib v3.3.4, https://matplotlib.org/</dc:title>
     </cc:Agent>
    </dc:creator>
   </cc:Work>
  </rdf:RDF>
 </metadata>
 <defs>
  <style type="text/css">*{stroke-linecap:butt;stroke-linejoin:round;}</style>
 </defs>
 <g id="figure_1">
  <g id="patch_1">
   <path d="M 0 329.525312 
L 479.201562 329.525312 
L 479.201562 0 
L 0 0 
z
" style="fill:#ffffff;"/>
  </g>
  <g id="axes_1">
   <g id="patch_2">
    <path d="M 25.601562 143.1 
L 228.510653 143.1 
L 228.510653 7.2 
L 25.601562 7.2 
z
" style="fill:#eaeaf2;"/>
   </g>
   <g id="matplotlib.axis_1">
    <g id="xtick_1">
     <g id="line2d_1">
      <path clip-path="url(#p637ee09c59)" d="M 61.176533 143.1 
L 61.176533 7.2 
" style="fill:none;stroke:#ffffff;stroke-linecap:round;"/>
     </g>
     <g id="line2d_2"/>
     <g id="text_1">
      <!-- −1 -->
      <g style="fill:#262626;" transform="translate(55.475752 157.257812)scale(0.1 -0.1)">
       <defs>
        <path d="M 52.828125 31.203125 
L 5.5625 31.203125 
L 5.5625 39.40625 
L 52.828125 39.40625 
z
" id="ArialMT-8722"/>
        <path d="M 37.25 0 
L 28.46875 0 
L 28.46875 56 
Q 25.296875 52.984375 20.140625 49.953125 
Q 14.984375 46.921875 10.890625 45.40625 
L 10.890625 53.90625 
Q 18.265625 57.375 23.78125 62.296875 
Q 29.296875 67.234375 31.59375 71.875 
L 37.25 71.875 
z
" id="ArialMT-49"/>
       </defs>
       <use xlink:href="#ArialMT-8722"/>
       <use x="58.398438" xlink:href="#ArialMT-49"/>
      </g>
     </g>
    </g>
    <g id="xtick_2">
     <g id="line2d_3">
      <path clip-path="url(#p637ee09c59)" d="M 127.056108 143.1 
L 127.056108 7.2 
" style="fill:none;stroke:#ffffff;stroke-linecap:round;"/>
     </g>
     <g id="line2d_4"/>
     <g id="text_2">
      <!-- 0 -->
      <g style="fill:#262626;" transform="translate(124.275639 157.257812)scale(0.1 -0.1)">
       <defs>
        <path d="M 4.15625 35.296875 
Q 4.15625 48 6.765625 55.734375 
Q 9.375 63.484375 14.515625 67.671875 
Q 19.671875 71.875 27.484375 71.875 
Q 33.25 71.875 37.59375 69.546875 
Q 41.9375 67.234375 44.765625 62.859375 
Q 47.609375 58.5 49.21875 52.21875 
Q 50.828125 45.953125 50.828125 35.296875 
Q 50.828125 22.703125 48.234375 14.96875 
Q 45.65625 7.234375 40.5 3 
Q 35.359375 -1.21875 27.484375 -1.21875 
Q 17.140625 -1.21875 11.234375 6.203125 
Q 4.15625 15.140625 4.15625 35.296875 
z
M 13.1875 35.296875 
Q 13.1875 17.671875 17.3125 11.828125 
Q 21.4375 6 27.484375 6 
Q 33.546875 6 37.671875 11.859375 
Q 41.796875 17.71875 41.796875 35.296875 
Q 41.796875 52.984375 37.671875 58.78125 
Q 33.546875 64.59375 27.390625 64.59375 
Q 21.34375 64.59375 17.71875 59.46875 
Q 13.1875 52.9375 13.1875 35.296875 
z
" id="ArialMT-48"/>
       </defs>
       <use xlink:href="#ArialMT-48"/>
      </g>
     </g>
    </g>
    <g id="xtick_3">
     <g id="line2d_5">
      <path clip-path="url(#p637ee09c59)" d="M 192.935683 143.1 
L 192.935683 7.2 
" style="fill:none;stroke:#ffffff;stroke-linecap:round;"/>
     </g>
     <g id="line2d_6"/>
     <g id="text_3">
      <!-- 1 -->
      <g style="fill:#262626;" transform="translate(190.155214 157.257812)scale(0.1 -0.1)">
       <use xlink:href="#ArialMT-49"/>
      </g>
     </g>
    </g>
   </g>
   <g id="matplotlib.axis_2">
    <g id="ytick_1">
     <g id="line2d_7">
      <path clip-path="url(#p637ee09c59)" d="M 25.601562 119.273377 
L 228.510653 119.273377 
" style="fill:none;stroke:#ffffff;stroke-linecap:round;"/>
     </g>
     <g id="line2d_8"/>
     <g id="text_4">
      <!-- −1 -->
      <g style="fill:#262626;" transform="translate(7.2 122.852283)scale(0.1 -0.1)">
       <use xlink:href="#ArialMT-8722"/>
       <use x="58.398438" xlink:href="#ArialMT-49"/>
      </g>
     </g>
    </g>
    <g id="ytick_2">
     <g id="line2d_9">
      <path clip-path="url(#p637ee09c59)" d="M 25.601562 75.15 
L 228.510653 75.15 
" style="fill:none;stroke:#ffffff;stroke-linecap:round;"/>
     </g>
     <g id="line2d_10"/>
     <g id="text_5">
      <!-- 0 -->
      <g style="fill:#262626;" transform="translate(13.040625 78.728906)scale(0.1 -0.1)">
       <use xlink:href="#ArialMT-48"/>
      </g>
     </g>
    </g>
    <g id="ytick_3">
     <g id="line2d_11">
      <path clip-path="url(#p637ee09c59)" d="M 25.601562 31.026623 
L 228.510653 31.026623 
" style="fill:none;stroke:#ffffff;stroke-linecap:round;"/>
     </g>
     <g id="line2d_12"/>
     <g id="text_6">
      <!-- 1 -->
      <g style="fill:#262626;" transform="translate(13.040625 34.60553)scale(0.1 -0.1)">
       <use xlink:href="#ArialMT-49"/>
      </g>
     </g>
    </g>
   </g>
   <g id="line2d_13">
    <path clip-path="url(#p637ee09c59)" d="M 34.824703 136.922727 
L 41.18549 132.662539 
L 47.546276 128.402351 
L 53.907063 124.142163 
L 60.267849 119.881975 
L 66.628636 115.621787 
L 72.989422 111.361599 
L 79.350209 107.101411 
L 85.710995 102.841223 
L 92.071782 98.581034 
L 98.432568 94.320846 
L 104.793355 90.060658 
L 111.154142 85.80047 
L 117.514928 81.540282 
L 123.875715 77.280094 
L 130.236501 73.019906 
L 136.597288 68.759718 
L 142.958074 64.49953 
L 149.318861 60.239342 
L 155.679647 55.979154 
L 162.040434 51.718966 
L 168.401221 47.458777 
L 174.762007 43.198589 
L 181.122794 38.938401 
L 187.48358 34.678213 
L 193.844367 30.418025 
L 200.205153 26.157837 
L 206.56594 21.897649 
L 212.926726 17.637461 
L 219.287513 13.377273 
" style="fill:none;stroke:#4c72b0;stroke-linecap:round;stroke-width:1.75;"/>
   </g>
   <g id="patch_3">
    <path d="M 25.601562 143.1 
L 25.601562 7.2 
" style="fill:none;"/>
   </g>
   <g id="patch_4">
    <path d="M 228.510653 143.1 
L 228.510653 7.2 
" style="fill:none;"/>
   </g>
   <g id="patch_5">
    <path d="M 25.601562 143.1 
L 228.510653 143.1 
" style="fill:none;"/>
   </g>
   <g id="patch_6">
    <path d="M 25.601562 7.2 
L 228.510653 7.2 
" style="fill:none;"/>
   </g>
  </g>
  <g id="axes_2">
   <g id="patch_7">
    <path d="M 269.092472 143.1 
L 472.001562 143.1 
L 472.001562 7.2 
L 269.092472 7.2 
z
" style="fill:#eaeaf2;"/>
   </g>
   <g id="matplotlib.axis_3">
    <g id="xtick_4">
     <g id="line2d_14">
      <path clip-path="url(#p50142baf5d)" d="M 304.667442 143.1 
L 304.667442 7.2 
" style="fill:none;stroke:#ffffff;stroke-linecap:round;"/>
     </g>
     <g id="line2d_15"/>
     <g id="text_7">
      <!-- −1 -->
      <g style="fill:#262626;" transform="translate(298.966661 157.257812)scale(0.1 -0.1)">
       <use xlink:href="#ArialMT-8722"/>
       <use x="58.398438" xlink:href="#ArialMT-49"/>
      </g>
     </g>
    </g>
    <g id="xtick_5">
     <g id="line2d_16">
      <path clip-path="url(#p50142baf5d)" d="M 370.547017 143.1 
L 370.547017 7.2 
" style="fill:none;stroke:#ffffff;stroke-linecap:round;"/>
     </g>
     <g id="line2d_17"/>
     <g id="text_8">
      <!-- 0 -->
      <g style="fill:#262626;" transform="translate(367.766548 157.257812)scale(0.1 -0.1)">
       <use xlink:href="#ArialMT-48"/>
      </g>
     </g>
    </g>
    <g id="xtick_6">
     <g id="line2d_18">
      <path clip-path="url(#p50142baf5d)" d="M 436.426592 143.1 
L 436.426592 7.2 
" style="fill:none;stroke:#ffffff;stroke-linecap:round;"/>
     </g>
     <g id="line2d_19"/>
     <g id="text_9">
      <!-- 1 -->
      <g style="fill:#262626;" transform="translate(433.646123 157.257812)scale(0.1 -0.1)">
       <use xlink:href="#ArialMT-49"/>
      </g>
     </g>
    </g>
   </g>
   <g id="matplotlib.axis_4">
    <g id="ytick_4">
     <g id="line2d_20">
      <path clip-path="url(#p50142baf5d)" d="M 269.092472 137.069805 
L 472.001562 137.069805 
" style="fill:none;stroke:#ffffff;stroke-linecap:round;"/>
     </g>
     <g id="line2d_21"/>
     <g id="text_10">
      <!-- 0.0 -->
      <g style="fill:#262626;" transform="translate(248.192472 140.648711)scale(0.1 -0.1)">
       <defs>
        <path d="M 9.078125 0 
L 9.078125 10.015625 
L 19.09375 10.015625 
L 19.09375 0 
z
" id="ArialMT-46"/>
       </defs>
       <use xlink:href="#ArialMT-48"/>
       <use x="55.615234" xlink:href="#ArialMT-46"/>
       <use x="83.398438" xlink:href="#ArialMT-48"/>
      </g>
     </g>
    </g>
    <g id="ytick_5">
     <g id="line2d_22">
      <path clip-path="url(#p50142baf5d)" d="M 269.092472 105.515588 
L 472.001562 105.515588 
" style="fill:none;stroke:#ffffff;stroke-linecap:round;"/>
     </g>
     <g id="line2d_23"/>
     <g id="text_11">
      <!-- 0.5 -->
      <g style="fill:#262626;" transform="translate(248.192472 109.094494)scale(0.1 -0.1)">
       <defs>
        <path d="M 4.15625 18.75 
L 13.375 19.53125 
Q 14.40625 12.796875 18.140625 9.390625 
Q 21.875 6 27.15625 6 
Q 33.5 6 37.890625 10.78125 
Q 42.28125 15.578125 42.28125 23.484375 
Q 42.28125 31 38.0625 35.34375 
Q 33.84375 39.703125 27 39.703125 
Q 22.75 39.703125 19.328125 37.765625 
Q 15.921875 35.84375 13.96875 32.765625 
L 5.71875 33.84375 
L 12.640625 70.609375 
L 48.25 70.609375 
L 48.25 62.203125 
L 19.671875 62.203125 
L 15.828125 42.96875 
Q 22.265625 47.46875 29.34375 47.46875 
Q 38.71875 47.46875 45.15625 40.96875 
Q 51.609375 34.46875 51.609375 24.265625 
Q 51.609375 14.546875 45.953125 7.46875 
Q 39.0625 -1.21875 27.15625 -1.21875 
Q 17.390625 -1.21875 11.203125 4.25 
Q 5.03125 9.71875 4.15625 18.75 
z
" id="ArialMT-53"/>
       </defs>
       <use xlink:href="#ArialMT-48"/>
       <use x="55.615234" xlink:href="#ArialMT-46"/>
       <use x="83.398438" xlink:href="#ArialMT-53"/>
      </g>
     </g>
    </g>
    <g id="ytick_6">
     <g id="line2d_24">
      <path clip-path="url(#p50142baf5d)" d="M 269.092472 73.96137 
L 472.001562 73.96137 
" style="fill:none;stroke:#ffffff;stroke-linecap:round;"/>
     </g>
     <g id="line2d_25"/>
     <g id="text_12">
      <!-- 1.0 -->
      <g style="fill:#262626;" transform="translate(248.192472 77.540277)scale(0.1 -0.1)">
       <use xlink:href="#ArialMT-49"/>
       <use x="55.615234" xlink:href="#ArialMT-46"/>
       <use x="83.398438" xlink:href="#ArialMT-48"/>
      </g>
     </g>
    </g>
    <g id="ytick_7">
     <g id="line2d_26">
      <path clip-path="url(#p50142baf5d)" d="M 269.092472 42.407153 
L 472.001562 42.407153 
" style="fill:none;stroke:#ffffff;stroke-linecap:round;"/>
     </g>
     <g id="line2d_27"/>
     <g id="text_13">
      <!-- 1.5 -->
      <g style="fill:#262626;" transform="translate(248.192472 45.986059)scale(0.1 -0.1)">
       <use xlink:href="#ArialMT-49"/>
       <use x="55.615234" xlink:href="#ArialMT-46"/>
       <use x="83.398438" xlink:href="#ArialMT-53"/>
      </g>
     </g>
    </g>
    <g id="ytick_8">
     <g id="line2d_28">
      <path clip-path="url(#p50142baf5d)" d="M 269.092472 10.852935 
L 472.001562 10.852935 
" style="fill:none;stroke:#ffffff;stroke-linecap:round;"/>
     </g>
     <g id="line2d_29"/>
     <g id="text_14">
      <!-- 2.0 -->
      <g style="fill:#262626;" transform="translate(248.192472 14.431842)scale(0.1 -0.1)">
       <defs>
        <path d="M 50.34375 8.453125 
L 50.34375 0 
L 3.03125 0 
Q 2.9375 3.171875 4.046875 6.109375 
Q 5.859375 10.9375 9.828125 15.625 
Q 13.8125 20.3125 21.34375 26.46875 
Q 33.015625 36.03125 37.109375 41.625 
Q 41.21875 47.21875 41.21875 52.203125 
Q 41.21875 57.421875 37.46875 61 
Q 33.734375 64.59375 27.734375 64.59375 
Q 21.390625 64.59375 17.578125 60.78125 
Q 13.765625 56.984375 13.71875 50.25 
L 4.6875 51.171875 
Q 5.609375 61.28125 11.65625 66.578125 
Q 17.71875 71.875 27.9375 71.875 
Q 38.234375 71.875 44.234375 66.15625 
Q 50.25 60.453125 50.25 52 
Q 50.25 47.703125 48.484375 43.546875 
Q 46.734375 39.40625 42.65625 34.8125 
Q 38.578125 30.21875 29.109375 22.21875 
Q 21.1875 15.578125 18.9375 13.203125 
Q 16.703125 10.84375 15.234375 8.453125 
z
" id="ArialMT-50"/>
       </defs>
       <use xlink:href="#ArialMT-50"/>
       <use x="55.615234" xlink:href="#ArialMT-46"/>
       <use x="83.398438" xlink:href="#ArialMT-48"/>
      </g>
     </g>
    </g>
   </g>
   <g id="line2d_30">
    <path clip-path="url(#p50142baf5d)" d="M 278.315612 13.377273 
L 284.676399 29.85 
L 291.037185 45.146104 
L 297.397972 59.265584 
L 303.758758 72.208442 
L 310.119545 83.974675 
L 316.480331 94.564286 
L 322.841118 103.977273 
L 329.201904 112.213636 
L 335.562691 119.273377 
L 341.923478 125.156494 
L 348.284264 129.862987 
L 354.645051 133.392857 
L 361.005837 135.746104 
L 367.366624 136.922727 
L 373.72741 136.922727 
L 380.088197 135.746104 
L 386.448983 133.392857 
L 392.80977 129.862987 
L 399.170557 125.156494 
L 405.531343 119.273377 
L 411.89213 112.213636 
L 418.252916 103.977273 
L 424.613703 94.564286 
L 430.974489 83.974675 
L 437.335276 72.208442 
L 443.696062 59.265584 
L 450.056849 45.146104 
L 456.417635 29.85 
L 462.778422 13.377273 
" style="fill:none;stroke:#4c72b0;stroke-linecap:round;stroke-width:1.75;"/>
   </g>
   <g id="patch_8">
    <path d="M 269.092472 143.1 
L 269.092472 7.2 
" style="fill:none;"/>
   </g>
   <g id="patch_9">
    <path d="M 472.001562 143.1 
L 472.001562 7.2 
" style="fill:none;"/>
   </g>
   <g id="patch_10">
    <path d="M 269.092472 143.1 
L 472.001562 143.1 
" style="fill:none;"/>
   </g>
   <g id="patch_11">
    <path d="M 269.092472 7.2 
L 472.001562 7.2 
" style="fill:none;"/>
   </g>
  </g>
  <g id="axes_3">
   <g id="patch_12">
    <path d="M 25.601562 306.18 
L 228.510653 306.18 
L 228.510653 170.28 
L 25.601562 170.28 
z
" style="fill:#eaeaf2;"/>
   </g>
   <g id="matplotlib.axis_5">
    <g id="xtick_7">
     <g id="line2d_31">
      <path clip-path="url(#p1000115b0f)" d="M 61.176533 306.18 
L 61.176533 170.28 
" style="fill:none;stroke:#ffffff;stroke-linecap:round;"/>
     </g>
     <g id="line2d_32"/>
     <g id="text_15">
      <!-- −1 -->
      <g style="fill:#262626;" transform="translate(55.475752 320.337812)scale(0.1 -0.1)">
       <use xlink:href="#ArialMT-8722"/>
       <use x="58.398438" xlink:href="#ArialMT-49"/>
      </g>
     </g>
    </g>
    <g id="xtick_8">
     <g id="line2d_33">
      <path clip-path="url(#p1000115b0f)" d="M 127.056108 306.18 
L 127.056108 170.28 
" style="fill:none;stroke:#ffffff;stroke-linecap:round;"/>
     </g>
     <g id="line2d_34"/>
     <g id="text_16">
      <!-- 0 -->
      <g style="fill:#262626;" transform="translate(124.275639 320.337812)scale(0.1 -0.1)">
       <use xlink:href="#ArialMT-48"/>
      </g>
     </g>
    </g>
    <g id="xtick_9">
     <g id="line2d_35">
      <path clip-path="url(#p1000115b0f)" d="M 192.935683 306.18 
L 192.935683 170.28 
" style="fill:none;stroke:#ffffff;stroke-linecap:round;"/>
     </g>
     <g id="line2d_36"/>
     <g id="text_17">
      <!-- 1 -->
      <g style="fill:#262626;" transform="translate(190.155214 320.337812)scale(0.1 -0.1)">
       <use xlink:href="#ArialMT-49"/>
      </g>
     </g>
    </g>
   </g>
   <g id="matplotlib.axis_6">
    <g id="ytick_9">
     <g id="line2d_37">
      <path clip-path="url(#p1000115b0f)" d="M 25.601562 283.253854 
L 228.510653 283.253854 
" style="fill:none;stroke:#ffffff;stroke-linecap:round;"/>
     </g>
     <g id="line2d_38"/>
     <g id="text_18">
      <!-- −2 -->
      <g style="fill:#262626;" transform="translate(7.2 286.83276)scale(0.1 -0.1)">
       <use xlink:href="#ArialMT-8722"/>
       <use x="58.398438" xlink:href="#ArialMT-50"/>
      </g>
     </g>
    </g>
    <g id="ytick_10">
     <g id="line2d_39">
      <path clip-path="url(#p1000115b0f)" d="M 25.601562 238.23 
L 228.510653 238.23 
" style="fill:none;stroke:#ffffff;stroke-linecap:round;"/>
     </g>
     <g id="line2d_40"/>
     <g id="text_19">
      <!-- 0 -->
      <g style="fill:#262626;" transform="translate(13.040625 241.808906)scale(0.1 -0.1)">
       <use xlink:href="#ArialMT-48"/>
      </g>
     </g>
    </g>
    <g id="ytick_11">
     <g id="line2d_41">
      <path clip-path="url(#p1000115b0f)" d="M 25.601562 193.206146 
L 228.510653 193.206146 
" style="fill:none;stroke:#ffffff;stroke-linecap:round;"/>
     </g>
     <g id="line2d_42"/>
     <g id="text_20">
      <!-- 2 -->
      <g style="fill:#262626;" transform="translate(13.040625 196.785053)scale(0.1 -0.1)">
       <use xlink:href="#ArialMT-50"/>
      </g>
     </g>
    </g>
   </g>
   <g id="line2d_43">
    <path clip-path="url(#p1000115b0f)" d="M 34.824703 300.002727 
L 41.18549 288.083319 
L 47.546276 277.805172 
L 53.907063 269.046711 
L 60.267849 261.686363 
L 66.628636 255.602551 
L 72.989422 250.6737 
L 79.350209 246.778237 
L 85.710995 243.794586 
L 92.071782 241.601171 
L 98.432568 240.076419 
L 104.793355 239.098754 
L 111.154142 238.546601 
L 117.514928 238.298386 
L 123.875715 238.232533 
L 130.236501 238.227467 
L 136.597288 238.161614 
L 142.958074 237.913399 
L 149.318861 237.361246 
L 155.679647 236.383581 
L 162.040434 234.858829 
L 168.401221 232.665414 
L 174.762007 229.681763 
L 181.122794 225.7863 
L 187.48358 220.857449 
L 193.844367 214.773637 
L 200.205153 207.413289 
L 206.56594 198.654828 
L 212.926726 188.376681 
L 219.287513 176.457273 
" style="fill:none;stroke:#4c72b0;stroke-linecap:round;stroke-width:1.75;"/>
   </g>
   <g id="patch_13">
    <path d="M 25.601562 306.18 
L 25.601562 170.28 
" style="fill:none;"/>
   </g>
   <g id="patch_14">
    <path d="M 228.510653 306.18 
L 228.510653 170.28 
" style="fill:none;"/>
   </g>
   <g id="patch_15">
    <path d="M 25.601562 306.18 
L 228.510653 306.18 
" style="fill:none;"/>
   </g>
   <g id="patch_16">
    <path d="M 25.601562 170.28 
L 228.510653 170.28 
" style="fill:none;"/>
   </g>
  </g>
  <g id="axes_4">
   <g id="patch_17">
    <path d="M 269.092472 306.18 
L 472.001562 306.18 
L 472.001562 170.28 
L 269.092472 170.28 
z
" style="fill:#eaeaf2;"/>
   </g>
   <g id="matplotlib.axis_7">
    <g id="xtick_10">
     <g id="line2d_44">
      <path clip-path="url(#p6a877c6d4e)" d="M 304.667442 306.18 
L 304.667442 170.28 
" style="fill:none;stroke:#ffffff;stroke-linecap:round;"/>
     </g>
     <g id="line2d_45"/>
     <g id="text_21">
      <!-- −1 -->
      <g style="fill:#262626;" transform="translate(298.966661 320.337812)scale(0.1 -0.1)">
       <use xlink:href="#ArialMT-8722"/>
       <use x="58.398438" xlink:href="#ArialMT-49"/>
      </g>
     </g>
    </g>
    <g id="xtick_11">
     <g id="line2d_46">
      <path clip-path="url(#p6a877c6d4e)" d="M 370.547017 306.18 
L 370.547017 170.28 
" style="fill:none;stroke:#ffffff;stroke-linecap:round;"/>
     </g>
     <g id="line2d_47"/>
     <g id="text_22">
      <!-- 0 -->
      <g style="fill:#262626;" transform="translate(367.766548 320.337812)scale(0.1 -0.1)">
       <use xlink:href="#ArialMT-48"/>
      </g>
     </g>
    </g>
    <g id="xtick_12">
     <g id="line2d_48">
      <path clip-path="url(#p6a877c6d4e)" d="M 436.426592 306.18 
L 436.426592 170.28 
" style="fill:none;stroke:#ffffff;stroke-linecap:round;"/>
     </g>
     <g id="line2d_49"/>
     <g id="text_23">
      <!-- 1 -->
      <g style="fill:#262626;" transform="translate(433.646123 320.337812)scale(0.1 -0.1)">
       <use xlink:href="#ArialMT-49"/>
      </g>
     </g>
    </g>
   </g>
   <g id="matplotlib.axis_8">
    <g id="ytick_12">
     <g id="line2d_50">
      <path clip-path="url(#p6a877c6d4e)" d="M 269.092472 300.002902 
L 472.001562 300.002902 
" style="fill:none;stroke:#ffffff;stroke-linecap:round;"/>
     </g>
     <g id="line2d_51"/>
     <g id="text_24">
      <!-- 0 -->
      <g style="fill:#262626;" transform="translate(256.531534 303.581808)scale(0.1 -0.1)">
       <use xlink:href="#ArialMT-48"/>
      </g>
     </g>
    </g>
    <g id="ytick_13">
     <g id="line2d_52">
      <path clip-path="url(#p6a877c6d4e)" d="M 269.092472 267.842961 
L 472.001562 267.842961 
" style="fill:none;stroke:#ffffff;stroke-linecap:round;"/>
     </g>
     <g id="line2d_53"/>
     <g id="text_25">
      <!-- 1 -->
      <g style="fill:#262626;" transform="translate(256.531534 271.421867)scale(0.1 -0.1)">
       <use xlink:href="#ArialMT-49"/>
      </g>
     </g>
    </g>
    <g id="ytick_14">
     <g id="line2d_54">
      <path clip-path="url(#p6a877c6d4e)" d="M 269.092472 235.68302 
L 472.001562 235.68302 
" style="fill:none;stroke:#ffffff;stroke-linecap:round;"/>
     </g>
     <g id="line2d_55"/>
     <g id="text_26">
      <!-- 2 -->
      <g style="fill:#262626;" transform="translate(256.531534 239.261926)scale(0.1 -0.1)">
       <use xlink:href="#ArialMT-50"/>
      </g>
     </g>
    </g>
    <g id="ytick_15">
     <g id="line2d_56">
      <path clip-path="url(#p6a877c6d4e)" d="M 269.092472 203.523079 
L 472.001562 203.523079 
" style="fill:none;stroke:#ffffff;stroke-linecap:round;"/>
     </g>
     <g id="line2d_57"/>
     <g id="text_27">
      <!-- 3 -->
      <g style="fill:#262626;" transform="translate(256.531534 207.101985)scale(0.1 -0.1)">
       <defs>
        <path d="M 4.203125 18.890625 
L 12.984375 20.0625 
Q 14.5 12.59375 18.140625 9.296875 
Q 21.78125 6 27 6 
Q 33.203125 6 37.46875 10.296875 
Q 41.75 14.59375 41.75 20.953125 
Q 41.75 27 37.796875 30.921875 
Q 33.84375 34.859375 27.734375 34.859375 
Q 25.25 34.859375 21.53125 33.890625 
L 22.515625 41.609375 
Q 23.390625 41.5 23.921875 41.5 
Q 29.546875 41.5 34.03125 44.421875 
Q 38.53125 47.359375 38.53125 53.46875 
Q 38.53125 58.296875 35.25 61.46875 
Q 31.984375 64.65625 26.8125 64.65625 
Q 21.6875 64.65625 18.265625 61.421875 
Q 14.84375 58.203125 13.875 51.765625 
L 5.078125 53.328125 
Q 6.6875 62.15625 12.390625 67.015625 
Q 18.109375 71.875 26.609375 71.875 
Q 32.46875 71.875 37.390625 69.359375 
Q 42.328125 66.84375 44.9375 62.5 
Q 47.5625 58.15625 47.5625 53.265625 
Q 47.5625 48.640625 45.0625 44.828125 
Q 42.578125 41.015625 37.703125 38.765625 
Q 44.046875 37.3125 47.5625 32.6875 
Q 51.078125 28.078125 51.078125 21.140625 
Q 51.078125 11.765625 44.234375 5.25 
Q 37.40625 -1.265625 26.953125 -1.265625 
Q 17.53125 -1.265625 11.296875 4.34375 
Q 5.078125 9.96875 4.203125 18.890625 
z
" id="ArialMT-51"/>
       </defs>
       <use xlink:href="#ArialMT-51"/>
      </g>
     </g>
    </g>
    <g id="ytick_16">
     <g id="line2d_58">
      <path clip-path="url(#p6a877c6d4e)" d="M 269.092472 171.363138 
L 472.001562 171.363138 
" style="fill:none;stroke:#ffffff;stroke-linecap:round;"/>
     </g>
     <g id="line2d_59"/>
     <g id="text_28">
      <!-- 4 -->
      <g style="fill:#262626;" transform="translate(256.531534 174.942044)scale(0.1 -0.1)">
       <defs>
        <path d="M 32.328125 0 
L 32.328125 17.140625 
L 1.265625 17.140625 
L 1.265625 25.203125 
L 33.9375 71.578125 
L 41.109375 71.578125 
L 41.109375 25.203125 
L 50.78125 25.203125 
L 50.78125 17.140625 
L 41.109375 17.140625 
L 41.109375 0 
z
M 32.328125 25.203125 
L 32.328125 57.46875 
L 9.90625 25.203125 
z
" id="ArialMT-52"/>
       </defs>
       <use xlink:href="#ArialMT-52"/>
      </g>
     </g>
    </g>
   </g>
   <g id="line2d_60">
    <path clip-path="url(#p6a877c6d4e)" d="M 278.315612 176.457273 
L 284.676399 207.172453 
L 291.037185 231.769751 
L 297.397972 251.121153 
L 303.758758 266.03157 
L 310.119545 277.238838 
L 316.480331 285.413715 
L 322.841118 291.159886 
L 329.201904 295.013956 
L 335.562691 297.445458 
L 341.923478 298.856847 
L 348.284264 299.583503 
L 354.645051 299.893729 
L 361.005837 299.988753 
L 367.366624 300.002727 
L 373.72741 300.002727 
L 380.088197 299.988753 
L 386.448983 299.893729 
L 392.80977 299.583503 
L 399.170557 298.856847 
L 405.531343 297.445458 
L 411.89213 295.013956 
L 418.252916 291.159886 
L 424.613703 285.413715 
L 430.974489 277.238838 
L 437.335276 266.03157 
L 443.696062 251.121153 
L 450.056849 231.769751 
L 456.417635 207.172453 
L 462.778422 176.457273 
" style="fill:none;stroke:#4c72b0;stroke-linecap:round;stroke-width:1.75;"/>
   </g>
   <g id="patch_18">
    <path d="M 269.092472 306.18 
L 269.092472 170.28 
" style="fill:none;"/>
   </g>
   <g id="patch_19">
    <path d="M 472.001562 306.18 
L 472.001562 170.28 
" style="fill:none;"/>
   </g>
   <g id="patch_20">
    <path d="M 269.092472 306.18 
L 472.001562 306.18 
" style="fill:none;"/>
   </g>
   <g id="patch_21">
    <path d="M 269.092472 170.28 
L 472.001562 170.28 
" style="fill:none;"/>
   </g>
  </g>
 </g>
 <defs>
  <clipPath id="p637ee09c59">
   <rect height="135.9" width="202.909091" x="25.601562" y="7.2"/>
  </clipPath>
  <clipPath id="p50142baf5d">
   <rect height="135.9" width="202.909091" x="269.092472" y="7.2"/>
  </clipPath>
  <clipPath id="p1000115b0f">
   <rect height="135.9" width="202.909091" x="25.601562" y="170.28"/>
  </clipPath>
  <clipPath id="p6a877c6d4e">
   <rect height="135.9" width="202.909091" x="269.092472" y="170.28"/>
  </clipPath>
 </defs>
</svg>
