<?xml version="1.0" encoding="utf-8" standalone="no"?>
<!DOCTYPE svg PUBLIC "-//W3C//DTD SVG 1.1//EN"
  "http://www.w3.org/Graphics/SVG/1.1/DTD/svg11.dtd">
<!-- Created with matplotlib (https://matplotlib.org/) -->
<svg height="344.791205pt" version="1.1" viewBox="0 0 498.671563 344.791205" width="498.671563pt" xmlns="http://www.w3.org/2000/svg" xmlns:xlink="http://www.w3.org/1999/xlink">
 <metadata>
  <rdf:RDF xmlns:cc="http://creativecommons.org/ns#" xmlns:dc="http://purl.org/dc/elements/1.1/" xmlns:rdf="http://www.w3.org/1999/02/22-rdf-syntax-ns#">
   <cc:Work>
    <dc:type rdf:resource="http://purl.org/dc/dcmitype/StillImage"/>
    <dc:date>2021-12-07T18:33:25.130674</dc:date>
    <dc:format>image/svg+xml</dc:format>
    <dc:creator>
     <cc:Agent>
      <dc:title>Matplotlib v3.3.4, https://matplotlib.org/</dc:title>
     </cc:Agent>
    </dc:creator>
   </cc:Work>
  </rdf:RDF>
 </metadata>
 <defs>
  <style type="text/css">*{stroke-linecap:butt;stroke-linejoin:round;}</style>
 </defs>
 <g id="figure_1">
  <g id="patch_1">
   <path d="M 0 344.791205 
L 498.671563 344.791205 
L 498.671563 0 
L 0 0 
z
" style="fill:#ffffff;"/>
  </g>
  <g id="axes_1">
   <g id="patch_2">
    <path d="M 45.071562 307.386049 
L 491.471563 307.386049 
L 491.471563 8.406049 
L 45.071562 8.406049 
z
" style="fill:#eaeaf2;"/>
   </g>
   <g id="matplotlib.axis_1">
    <g id="xtick_1">
     <g id="line2d_1">
      <path clip-path="url(#p69a6ebc9be)" d="M 50.167801 307.386049 
L 50.167801 8.406049 
" style="fill:none;stroke:#ffffff;stroke-linecap:round;"/>
     </g>
     <g id="line2d_2"/>
     <g id="text_1">
      <!-- −4 -->
      <g style="fill:#262626;" transform="translate(44.46702 321.543862)scale(0.1 -0.1)">
       <defs>
        <path d="M 52.828125 31.203125 
L 5.5625 31.203125 
L 5.5625 39.40625 
L 52.828125 39.40625 
z
" id="ArialMT-8722"/>
        <path d="M 32.328125 0 
L 32.328125 17.140625 
L 1.265625 17.140625 
L 1.265625 25.203125 
L 33.9375 71.578125 
L 41.109375 71.578125 
L 41.109375 25.203125 
L 50.78125 25.203125 
L 50.78125 17.140625 
L 41.109375 17.140625 
L 41.109375 0 
z
M 32.328125 25.203125 
L 32.328125 57.46875 
L 9.90625 25.203125 
z
" id="ArialMT-52"/>
       </defs>
       <use xlink:href="#ArialMT-8722"/>
       <use x="58.398438" xlink:href="#ArialMT-52"/>
      </g>
     </g>
    </g>
    <g id="xtick_2">
     <g id="line2d_3">
      <path clip-path="url(#p69a6ebc9be)" d="M 101.093146 307.386049 
L 101.093146 8.406049 
" style="fill:none;stroke:#ffffff;stroke-linecap:round;"/>
     </g>
     <g id="line2d_4"/>
     <g id="text_2">
      <!-- −2 -->
      <g style="fill:#262626;" transform="translate(95.392365 321.543862)scale(0.1 -0.1)">
       <defs>
        <path d="M 50.34375 8.453125 
L 50.34375 0 
L 3.03125 0 
Q 2.9375 3.171875 4.046875 6.109375 
Q 5.859375 10.9375 9.828125 15.625 
Q 13.8125 20.3125 21.34375 26.46875 
Q 33.015625 36.03125 37.109375 41.625 
Q 41.21875 47.21875 41.21875 52.203125 
Q 41.21875 57.421875 37.46875 61 
Q 33.734375 64.59375 27.734375 64.59375 
Q 21.390625 64.59375 17.578125 60.78125 
Q 13.765625 56.984375 13.71875 50.25 
L 4.6875 51.171875 
Q 5.609375 61.28125 11.65625 66.578125 
Q 17.71875 71.875 27.9375 71.875 
Q 38.234375 71.875 44.234375 66.15625 
Q 50.25 60.453125 50.25 52 
Q 50.25 47.703125 48.484375 43.546875 
Q 46.734375 39.40625 42.65625 34.8125 
Q 38.578125 30.21875 29.109375 22.21875 
Q 21.1875 15.578125 18.9375 13.203125 
Q 16.703125 10.84375 15.234375 8.453125 
z
" id="ArialMT-50"/>
       </defs>
       <use xlink:href="#ArialMT-8722"/>
       <use x="58.398438" xlink:href="#ArialMT-50"/>
      </g>
     </g>
    </g>
    <g id="xtick_3">
     <g id="line2d_5">
      <path clip-path="url(#p69a6ebc9be)" d="M 152.018492 307.386049 
L 152.018492 8.406049 
" style="fill:none;stroke:#ffffff;stroke-linecap:round;"/>
     </g>
     <g id="line2d_6"/>
     <g id="text_3">
      <!-- 0 -->
      <g style="fill:#262626;" transform="translate(149.238023 321.543862)scale(0.1 -0.1)">
       <defs>
        <path d="M 4.15625 35.296875 
Q 4.15625 48 6.765625 55.734375 
Q 9.375 63.484375 14.515625 67.671875 
Q 19.671875 71.875 27.484375 71.875 
Q 33.25 71.875 37.59375 69.546875 
Q 41.9375 67.234375 44.765625 62.859375 
Q 47.609375 58.5 49.21875 52.21875 
Q 50.828125 45.953125 50.828125 35.296875 
Q 50.828125 22.703125 48.234375 14.96875 
Q 45.65625 7.234375 40.5 3 
Q 35.359375 -1.21875 27.484375 -1.21875 
Q 17.140625 -1.21875 11.234375 6.203125 
Q 4.15625 15.140625 4.15625 35.296875 
z
M 13.1875 35.296875 
Q 13.1875 17.671875 17.3125 11.828125 
Q 21.4375 6 27.484375 6 
Q 33.546875 6 37.671875 11.859375 
Q 41.796875 17.71875 41.796875 35.296875 
Q 41.796875 52.984375 37.671875 58.78125 
Q 33.546875 64.59375 27.390625 64.59375 
Q 21.34375 64.59375 17.71875 59.46875 
Q 13.1875 52.9375 13.1875 35.296875 
z
" id="ArialMT-48"/>
       </defs>
       <use xlink:href="#ArialMT-48"/>
      </g>
     </g>
    </g>
    <g id="xtick_4">
     <g id="line2d_7">
      <path clip-path="url(#p69a6ebc9be)" d="M 202.943837 307.386049 
L 202.943837 8.406049 
" style="fill:none;stroke:#ffffff;stroke-linecap:round;"/>
     </g>
     <g id="line2d_8"/>
     <g id="text_4">
      <!-- 2 -->
      <g style="fill:#262626;" transform="translate(200.163369 321.543862)scale(0.1 -0.1)">
       <use xlink:href="#ArialMT-50"/>
      </g>
     </g>
    </g>
    <g id="xtick_5">
     <g id="line2d_9">
      <path clip-path="url(#p69a6ebc9be)" d="M 253.869183 307.386049 
L 253.869183 8.406049 
" style="fill:none;stroke:#ffffff;stroke-linecap:round;"/>
     </g>
     <g id="line2d_10"/>
     <g id="text_5">
      <!-- 4 -->
      <g style="fill:#262626;" transform="translate(251.088714 321.543862)scale(0.1 -0.1)">
       <use xlink:href="#ArialMT-52"/>
      </g>
     </g>
    </g>
    <g id="xtick_6">
     <g id="line2d_11">
      <path clip-path="url(#p69a6ebc9be)" d="M 304.794529 307.386049 
L 304.794529 8.406049 
" style="fill:none;stroke:#ffffff;stroke-linecap:round;"/>
     </g>
     <g id="line2d_12"/>
     <g id="text_6">
      <!-- 6 -->
      <g style="fill:#262626;" transform="translate(302.01406 321.543862)scale(0.1 -0.1)">
       <defs>
        <path d="M 49.75 54.046875 
L 41.015625 53.375 
Q 39.84375 58.546875 37.703125 60.890625 
Q 34.125 64.65625 28.90625 64.65625 
Q 24.703125 64.65625 21.53125 62.3125 
Q 17.390625 59.28125 14.984375 53.46875 
Q 12.59375 47.65625 12.5 36.921875 
Q 15.671875 41.75 20.265625 44.09375 
Q 24.859375 46.4375 29.890625 46.4375 
Q 38.671875 46.4375 44.84375 39.96875 
Q 51.03125 33.5 51.03125 23.25 
Q 51.03125 16.5 48.125 10.71875 
Q 45.21875 4.9375 40.140625 1.859375 
Q 35.0625 -1.21875 28.609375 -1.21875 
Q 17.625 -1.21875 10.6875 6.859375 
Q 3.765625 14.9375 3.765625 33.5 
Q 3.765625 54.25 11.421875 63.671875 
Q 18.109375 71.875 29.4375 71.875 
Q 37.890625 71.875 43.28125 67.140625 
Q 48.6875 62.40625 49.75 54.046875 
z
M 13.875 23.1875 
Q 13.875 18.65625 15.796875 14.5 
Q 17.71875 10.359375 21.1875 8.171875 
Q 24.65625 6 28.46875 6 
Q 34.03125 6 38.03125 10.484375 
Q 42.046875 14.984375 42.046875 22.703125 
Q 42.046875 30.125 38.078125 34.390625 
Q 34.125 38.671875 28.125 38.671875 
Q 22.171875 38.671875 18.015625 34.390625 
Q 13.875 30.125 13.875 23.1875 
z
" id="ArialMT-54"/>
       </defs>
       <use xlink:href="#ArialMT-54"/>
      </g>
     </g>
    </g>
    <g id="xtick_7">
     <g id="line2d_13">
      <path clip-path="url(#p69a6ebc9be)" d="M 355.719874 307.386049 
L 355.719874 8.406049 
" style="fill:none;stroke:#ffffff;stroke-linecap:round;"/>
     </g>
     <g id="line2d_14"/>
     <g id="text_7">
      <!-- 8 -->
      <g style="fill:#262626;" transform="translate(352.939405 321.543862)scale(0.1 -0.1)">
       <defs>
        <path d="M 17.671875 38.8125 
Q 12.203125 40.828125 9.5625 44.53125 
Q 6.9375 48.25 6.9375 53.421875 
Q 6.9375 61.234375 12.546875 66.546875 
Q 18.171875 71.875 27.484375 71.875 
Q 36.859375 71.875 42.578125 66.421875 
Q 48.296875 60.984375 48.296875 53.171875 
Q 48.296875 48.1875 45.671875 44.5 
Q 43.0625 40.828125 37.75 38.8125 
Q 44.34375 36.671875 47.78125 31.875 
Q 51.21875 27.09375 51.21875 20.453125 
Q 51.21875 11.28125 44.71875 5.03125 
Q 38.234375 -1.21875 27.640625 -1.21875 
Q 17.046875 -1.21875 10.546875 5.046875 
Q 4.046875 11.328125 4.046875 20.703125 
Q 4.046875 27.6875 7.59375 32.390625 
Q 11.140625 37.109375 17.671875 38.8125 
z
M 15.921875 53.71875 
Q 15.921875 48.640625 19.1875 45.40625 
Q 22.46875 42.1875 27.6875 42.1875 
Q 32.765625 42.1875 36.015625 45.375 
Q 39.265625 48.578125 39.265625 53.21875 
Q 39.265625 58.0625 35.90625 61.359375 
Q 32.5625 64.65625 27.59375 64.65625 
Q 22.5625 64.65625 19.234375 61.421875 
Q 15.921875 58.203125 15.921875 53.71875 
z
M 13.09375 20.65625 
Q 13.09375 16.890625 14.875 13.375 
Q 16.65625 9.859375 20.171875 7.921875 
Q 23.6875 6 27.734375 6 
Q 34.03125 6 38.125 10.046875 
Q 42.234375 14.109375 42.234375 20.359375 
Q 42.234375 26.703125 38.015625 30.859375 
Q 33.796875 35.015625 27.4375 35.015625 
Q 21.234375 35.015625 17.15625 30.90625 
Q 13.09375 26.8125 13.09375 20.65625 
z
" id="ArialMT-56"/>
       </defs>
       <use xlink:href="#ArialMT-56"/>
      </g>
     </g>
    </g>
    <g id="xtick_8">
     <g id="line2d_15">
      <path clip-path="url(#p69a6ebc9be)" d="M 406.64522 307.386049 
L 406.64522 8.406049 
" style="fill:none;stroke:#ffffff;stroke-linecap:round;"/>
     </g>
     <g id="line2d_16"/>
     <g id="text_8">
      <!-- 10 -->
      <g style="fill:#262626;" transform="translate(401.084282 321.543862)scale(0.1 -0.1)">
       <defs>
        <path d="M 37.25 0 
L 28.46875 0 
L 28.46875 56 
Q 25.296875 52.984375 20.140625 49.953125 
Q 14.984375 46.921875 10.890625 45.40625 
L 10.890625 53.90625 
Q 18.265625 57.375 23.78125 62.296875 
Q 29.296875 67.234375 31.59375 71.875 
L 37.25 71.875 
z
" id="ArialMT-49"/>
       </defs>
       <use xlink:href="#ArialMT-49"/>
       <use x="55.615234" xlink:href="#ArialMT-48"/>
      </g>
     </g>
    </g>
    <g id="xtick_9">
     <g id="line2d_17">
      <path clip-path="url(#p69a6ebc9be)" d="M 457.570565 307.386049 
L 457.570565 8.406049 
" style="fill:none;stroke:#ffffff;stroke-linecap:round;"/>
     </g>
     <g id="line2d_18"/>
     <g id="text_9">
      <!-- 12 -->
      <g style="fill:#262626;" transform="translate(452.009628 321.543862)scale(0.1 -0.1)">
       <use xlink:href="#ArialMT-49"/>
       <use x="55.615234" xlink:href="#ArialMT-50"/>
      </g>
     </g>
    </g>
    <g id="text_10">
     <!-- Value -->
     <g style="fill:#262626;" transform="translate(254.610937 335.404955)scale(0.11 -0.11)">
      <defs>
       <path d="M 28.171875 0 
L 0.4375 71.578125 
L 10.6875 71.578125 
L 29.296875 19.578125 
Q 31.546875 13.328125 33.0625 7.859375 
Q 34.71875 13.71875 36.921875 19.578125 
L 56.25 71.578125 
L 65.921875 71.578125 
L 37.890625 0 
z
" id="ArialMT-86"/>
       <path d="M 40.4375 6.390625 
Q 35.546875 2.25 31.03125 0.53125 
Q 26.515625 -1.171875 21.34375 -1.171875 
Q 12.796875 -1.171875 8.203125 3 
Q 3.609375 7.171875 3.609375 13.671875 
Q 3.609375 17.484375 5.34375 20.625 
Q 7.078125 23.78125 9.890625 25.6875 
Q 12.703125 27.59375 16.21875 28.5625 
Q 18.796875 29.25 24.03125 29.890625 
Q 34.671875 31.15625 39.703125 32.90625 
Q 39.75 34.71875 39.75 35.203125 
Q 39.75 40.578125 37.25 42.78125 
Q 33.890625 45.75 27.25 45.75 
Q 21.046875 45.75 18.09375 43.578125 
Q 15.140625 41.40625 13.71875 35.890625 
L 5.125 37.0625 
Q 6.296875 42.578125 8.984375 45.96875 
Q 11.671875 49.359375 16.75 51.1875 
Q 21.828125 53.03125 28.515625 53.03125 
Q 35.15625 53.03125 39.296875 51.46875 
Q 43.453125 49.90625 45.40625 47.53125 
Q 47.359375 45.171875 48.140625 41.546875 
Q 48.578125 39.3125 48.578125 33.453125 
L 48.578125 21.734375 
Q 48.578125 9.46875 49.140625 6.21875 
Q 49.703125 2.984375 51.375 0 
L 42.1875 0 
Q 40.828125 2.734375 40.4375 6.390625 
z
M 39.703125 26.03125 
Q 34.90625 24.078125 25.34375 22.703125 
Q 19.921875 21.921875 17.671875 20.9375 
Q 15.4375 19.96875 14.203125 18.09375 
Q 12.984375 16.21875 12.984375 13.921875 
Q 12.984375 10.40625 15.640625 8.0625 
Q 18.3125 5.71875 23.4375 5.71875 
Q 28.515625 5.71875 32.46875 7.9375 
Q 36.421875 10.15625 38.28125 14.015625 
Q 39.703125 17 39.703125 22.796875 
z
" id="ArialMT-97"/>
       <path d="M 6.390625 0 
L 6.390625 71.578125 
L 15.1875 71.578125 
L 15.1875 0 
z
" id="ArialMT-108"/>
       <path d="M 40.578125 0 
L 40.578125 7.625 
Q 34.515625 -1.171875 24.125 -1.171875 
Q 19.53125 -1.171875 15.546875 0.578125 
Q 11.578125 2.34375 9.640625 5 
Q 7.71875 7.671875 6.9375 11.53125 
Q 6.390625 14.109375 6.390625 19.734375 
L 6.390625 51.859375 
L 15.1875 51.859375 
L 15.1875 23.09375 
Q 15.1875 16.21875 15.71875 13.8125 
Q 16.546875 10.359375 19.234375 8.375 
Q 21.921875 6.390625 25.875 6.390625 
Q 29.828125 6.390625 33.296875 8.421875 
Q 36.765625 10.453125 38.203125 13.9375 
Q 39.65625 17.4375 39.65625 24.078125 
L 39.65625 51.859375 
L 48.4375 51.859375 
L 48.4375 0 
z
" id="ArialMT-117"/>
       <path d="M 42.09375 16.703125 
L 51.171875 15.578125 
Q 49.03125 7.625 43.21875 3.21875 
Q 37.40625 -1.171875 28.375 -1.171875 
Q 17 -1.171875 10.328125 5.828125 
Q 3.65625 12.84375 3.65625 25.484375 
Q 3.65625 38.578125 10.390625 45.796875 
Q 17.140625 53.03125 27.875 53.03125 
Q 38.28125 53.03125 44.875 45.953125 
Q 51.46875 38.875 51.46875 26.03125 
Q 51.46875 25.25 51.421875 23.6875 
L 12.75 23.6875 
Q 13.234375 15.140625 17.578125 10.59375 
Q 21.921875 6.0625 28.421875 6.0625 
Q 33.25 6.0625 36.671875 8.59375 
Q 40.09375 11.140625 42.09375 16.703125 
z
M 13.234375 30.90625 
L 42.1875 30.90625 
Q 41.609375 37.453125 38.875 40.71875 
Q 34.671875 45.796875 27.984375 45.796875 
Q 21.921875 45.796875 17.796875 41.75 
Q 13.671875 37.703125 13.234375 30.90625 
z
" id="ArialMT-101"/>
      </defs>
      <use xlink:href="#ArialMT-86"/>
      <use x="59.324219" xlink:href="#ArialMT-97"/>
      <use x="114.939453" xlink:href="#ArialMT-108"/>
      <use x="137.15625" xlink:href="#ArialMT-117"/>
      <use x="192.771484" xlink:href="#ArialMT-101"/>
     </g>
    </g>
   </g>
   <g id="matplotlib.axis_2">
    <g id="ytick_1">
     <g id="line2d_19">
      <path clip-path="url(#p69a6ebc9be)" d="M 45.071562 307.386049 
L 491.471563 307.386049 
" style="fill:none;stroke:#ffffff;stroke-linecap:round;"/>
     </g>
     <g id="line2d_20"/>
     <g id="text_11">
      <!-- 0 -->
      <g style="fill:#262626;" transform="translate(32.510625 310.964955)scale(0.1 -0.1)">
       <use xlink:href="#ArialMT-48"/>
      </g>
     </g>
    </g>
    <g id="ytick_2">
     <g id="line2d_21">
      <path clip-path="url(#p69a6ebc9be)" d="M 45.071562 270.310156 
L 491.471563 270.310156 
" style="fill:none;stroke:#ffffff;stroke-linecap:round;"/>
     </g>
     <g id="line2d_22"/>
     <g id="text_12">
      <!-- 25 -->
      <g style="fill:#262626;" transform="translate(26.949687 273.889062)scale(0.1 -0.1)">
       <defs>
        <path d="M 4.15625 18.75 
L 13.375 19.53125 
Q 14.40625 12.796875 18.140625 9.390625 
Q 21.875 6 27.15625 6 
Q 33.5 6 37.890625 10.78125 
Q 42.28125 15.578125 42.28125 23.484375 
Q 42.28125 31 38.0625 35.34375 
Q 33.84375 39.703125 27 39.703125 
Q 22.75 39.703125 19.328125 37.765625 
Q 15.921875 35.84375 13.96875 32.765625 
L 5.71875 33.84375 
L 12.640625 70.609375 
L 48.25 70.609375 
L 48.25 62.203125 
L 19.671875 62.203125 
L 15.828125 42.96875 
Q 22.265625 47.46875 29.34375 47.46875 
Q 38.71875 47.46875 45.15625 40.96875 
Q 51.609375 34.46875 51.609375 24.265625 
Q 51.609375 14.546875 45.953125 7.46875 
Q 39.0625 -1.21875 27.15625 -1.21875 
Q 17.390625 -1.21875 11.203125 4.25 
Q 5.03125 9.71875 4.15625 18.75 
z
" id="ArialMT-53"/>
       </defs>
       <use xlink:href="#ArialMT-50"/>
       <use x="55.615234" xlink:href="#ArialMT-53"/>
      </g>
     </g>
    </g>
    <g id="ytick_3">
     <g id="line2d_23">
      <path clip-path="url(#p69a6ebc9be)" d="M 45.071562 233.234263 
L 491.471563 233.234263 
" style="fill:none;stroke:#ffffff;stroke-linecap:round;"/>
     </g>
     <g id="line2d_24"/>
     <g id="text_13">
      <!-- 50 -->
      <g style="fill:#262626;" transform="translate(26.949687 236.81317)scale(0.1 -0.1)">
       <use xlink:href="#ArialMT-53"/>
       <use x="55.615234" xlink:href="#ArialMT-48"/>
      </g>
     </g>
    </g>
    <g id="ytick_4">
     <g id="line2d_25">
      <path clip-path="url(#p69a6ebc9be)" d="M 45.071562 196.158371 
L 491.471563 196.158371 
" style="fill:none;stroke:#ffffff;stroke-linecap:round;"/>
     </g>
     <g id="line2d_26"/>
     <g id="text_14">
      <!-- 75 -->
      <g style="fill:#262626;" transform="translate(26.949687 199.737277)scale(0.1 -0.1)">
       <defs>
        <path d="M 4.734375 62.203125 
L 4.734375 70.65625 
L 51.078125 70.65625 
L 51.078125 63.8125 
Q 44.234375 56.546875 37.515625 44.484375 
Q 30.8125 32.421875 27.15625 19.671875 
Q 24.515625 10.6875 23.78125 0 
L 14.75 0 
Q 14.890625 8.453125 18.0625 20.40625 
Q 21.234375 32.375 27.171875 43.484375 
Q 33.109375 54.59375 39.796875 62.203125 
z
" id="ArialMT-55"/>
       </defs>
       <use xlink:href="#ArialMT-55"/>
       <use x="55.615234" xlink:href="#ArialMT-53"/>
      </g>
     </g>
    </g>
    <g id="ytick_5">
     <g id="line2d_27">
      <path clip-path="url(#p69a6ebc9be)" d="M 45.071562 159.082478 
L 491.471563 159.082478 
" style="fill:none;stroke:#ffffff;stroke-linecap:round;"/>
     </g>
     <g id="line2d_28"/>
     <g id="text_15">
      <!-- 100 -->
      <g style="fill:#262626;" transform="translate(21.38875 162.661384)scale(0.1 -0.1)">
       <use xlink:href="#ArialMT-49"/>
       <use x="55.615234" xlink:href="#ArialMT-48"/>
       <use x="111.230469" xlink:href="#ArialMT-48"/>
      </g>
     </g>
    </g>
    <g id="ytick_6">
     <g id="line2d_29">
      <path clip-path="url(#p69a6ebc9be)" d="M 45.071562 122.006585 
L 491.471563 122.006585 
" style="fill:none;stroke:#ffffff;stroke-linecap:round;"/>
     </g>
     <g id="line2d_30"/>
     <g id="text_16">
      <!-- 125 -->
      <g style="fill:#262626;" transform="translate(21.38875 125.585491)scale(0.1 -0.1)">
       <use xlink:href="#ArialMT-49"/>
       <use x="55.615234" xlink:href="#ArialMT-50"/>
       <use x="111.230469" xlink:href="#ArialMT-53"/>
      </g>
     </g>
    </g>
    <g id="ytick_7">
     <g id="line2d_31">
      <path clip-path="url(#p69a6ebc9be)" d="M 45.071562 84.930692 
L 491.471563 84.930692 
" style="fill:none;stroke:#ffffff;stroke-linecap:round;"/>
     </g>
     <g id="line2d_32"/>
     <g id="text_17">
      <!-- 150 -->
      <g style="fill:#262626;" transform="translate(21.38875 88.509598)scale(0.1 -0.1)">
       <use xlink:href="#ArialMT-49"/>
       <use x="55.615234" xlink:href="#ArialMT-53"/>
       <use x="111.230469" xlink:href="#ArialMT-48"/>
      </g>
     </g>
    </g>
    <g id="ytick_8">
     <g id="line2d_33">
      <path clip-path="url(#p69a6ebc9be)" d="M 45.071562 47.854799 
L 491.471563 47.854799 
" style="fill:none;stroke:#ffffff;stroke-linecap:round;"/>
     </g>
     <g id="line2d_34"/>
     <g id="text_18">
      <!-- 175 -->
      <g style="fill:#262626;" transform="translate(21.38875 51.433705)scale(0.1 -0.1)">
       <use xlink:href="#ArialMT-49"/>
       <use x="55.615234" xlink:href="#ArialMT-55"/>
       <use x="111.230469" xlink:href="#ArialMT-53"/>
      </g>
     </g>
    </g>
    <g id="ytick_9">
     <g id="line2d_35">
      <path clip-path="url(#p69a6ebc9be)" d="M 45.071562 10.778906 
L 491.471563 10.778906 
" style="fill:none;stroke:#ffffff;stroke-linecap:round;"/>
     </g>
     <g id="line2d_36"/>
     <g id="text_19">
      <!-- 200 -->
      <g style="fill:#262626;" transform="translate(21.38875 14.357812)scale(0.1 -0.1)">
       <use xlink:href="#ArialMT-50"/>
       <use x="55.615234" xlink:href="#ArialMT-48"/>
       <use x="111.230469" xlink:href="#ArialMT-48"/>
      </g>
     </g>
    </g>
    <g id="text_20">
     <!-- Frequency -->
     <g style="fill:#262626;" transform="translate(15.073594 183.879252)rotate(-90)scale(0.11 -0.11)">
      <defs>
       <path d="M 8.203125 0 
L 8.203125 71.578125 
L 56.5 71.578125 
L 56.5 63.140625 
L 17.671875 63.140625 
L 17.671875 40.96875 
L 51.265625 40.96875 
L 51.265625 32.515625 
L 17.671875 32.515625 
L 17.671875 0 
z
" id="ArialMT-70"/>
       <path d="M 6.5 0 
L 6.5 51.859375 
L 14.40625 51.859375 
L 14.40625 44 
Q 17.4375 49.515625 20 51.265625 
Q 22.5625 53.03125 25.640625 53.03125 
Q 30.078125 53.03125 34.671875 50.203125 
L 31.640625 42.046875 
Q 28.421875 43.953125 25.203125 43.953125 
Q 22.3125 43.953125 20.015625 42.21875 
Q 17.71875 40.484375 16.75 37.40625 
Q 15.28125 32.71875 15.28125 27.15625 
L 15.28125 0 
z
" id="ArialMT-114"/>
       <path d="M 39.65625 -19.875 
L 39.65625 5.515625 
Q 37.59375 2.640625 33.90625 0.734375 
Q 30.21875 -1.171875 26.078125 -1.171875 
Q 16.84375 -1.171875 10.171875 6.203125 
Q 3.515625 13.578125 3.515625 26.421875 
Q 3.515625 34.234375 6.21875 40.421875 
Q 8.9375 46.625 14.078125 49.828125 
Q 19.234375 53.03125 25.390625 53.03125 
Q 35.015625 53.03125 40.53125 44.921875 
L 40.53125 51.859375 
L 48.4375 51.859375 
L 48.4375 -19.875 
z
M 12.546875 26.078125 
Q 12.546875 16.0625 16.75 11.0625 
Q 20.953125 6.0625 26.8125 6.0625 
Q 32.421875 6.0625 36.46875 10.8125 
Q 40.53125 15.578125 40.53125 25.296875 
Q 40.53125 35.640625 36.25 40.859375 
Q 31.984375 46.09375 26.21875 46.09375 
Q 20.515625 46.09375 16.53125 41.234375 
Q 12.546875 36.375 12.546875 26.078125 
z
" id="ArialMT-113"/>
       <path d="M 6.59375 0 
L 6.59375 51.859375 
L 14.5 51.859375 
L 14.5 44.484375 
Q 20.21875 53.03125 31 53.03125 
Q 35.6875 53.03125 39.625 51.34375 
Q 43.5625 49.65625 45.515625 46.921875 
Q 47.46875 44.1875 48.25 40.4375 
Q 48.734375 37.984375 48.734375 31.890625 
L 48.734375 0 
L 39.9375 0 
L 39.9375 31.546875 
Q 39.9375 36.921875 38.90625 39.578125 
Q 37.890625 42.234375 35.28125 43.8125 
Q 32.671875 45.40625 29.15625 45.40625 
Q 23.53125 45.40625 19.453125 41.84375 
Q 15.375 38.28125 15.375 28.328125 
L 15.375 0 
z
" id="ArialMT-110"/>
       <path d="M 40.4375 19 
L 49.078125 17.875 
Q 47.65625 8.9375 41.8125 3.875 
Q 35.984375 -1.171875 27.484375 -1.171875 
Q 16.84375 -1.171875 10.375 5.78125 
Q 3.90625 12.75 3.90625 25.734375 
Q 3.90625 34.125 6.6875 40.421875 
Q 9.46875 46.734375 15.15625 49.875 
Q 20.84375 53.03125 27.546875 53.03125 
Q 35.984375 53.03125 41.359375 48.75 
Q 46.734375 44.484375 48.25 36.625 
L 39.703125 35.296875 
Q 38.484375 40.53125 35.375 43.15625 
Q 32.28125 45.796875 27.875 45.796875 
Q 21.234375 45.796875 17.078125 41.03125 
Q 12.9375 36.28125 12.9375 25.984375 
Q 12.9375 15.53125 16.9375 10.796875 
Q 20.953125 6.0625 27.390625 6.0625 
Q 32.5625 6.0625 36.03125 9.234375 
Q 39.5 12.40625 40.4375 19 
z
" id="ArialMT-99"/>
       <path d="M 6.203125 -19.96875 
L 5.21875 -11.71875 
Q 8.109375 -12.5 10.25 -12.5 
Q 13.1875 -12.5 14.9375 -11.515625 
Q 16.703125 -10.546875 17.828125 -8.796875 
Q 18.65625 -7.46875 20.515625 -2.25 
Q 20.75 -1.515625 21.296875 -0.09375 
L 1.609375 51.859375 
L 11.078125 51.859375 
L 21.875 21.828125 
Q 23.96875 16.109375 25.640625 9.8125 
Q 27.15625 15.875 29.25 21.625 
L 40.328125 51.859375 
L 49.125 51.859375 
L 29.390625 -0.875 
Q 26.21875 -9.421875 24.46875 -12.640625 
Q 22.125 -17 19.09375 -19.015625 
Q 16.0625 -21.046875 11.859375 -21.046875 
Q 9.328125 -21.046875 6.203125 -19.96875 
z
" id="ArialMT-121"/>
      </defs>
      <use xlink:href="#ArialMT-70"/>
      <use x="61.083984" xlink:href="#ArialMT-114"/>
      <use x="94.384766" xlink:href="#ArialMT-101"/>
      <use x="150" xlink:href="#ArialMT-113"/>
      <use x="205.615234" xlink:href="#ArialMT-117"/>
      <use x="261.230469" xlink:href="#ArialMT-101"/>
      <use x="316.845703" xlink:href="#ArialMT-110"/>
      <use x="372.460938" xlink:href="#ArialMT-99"/>
      <use x="422.460938" xlink:href="#ArialMT-121"/>
     </g>
    </g>
   </g>
   <g id="patch_3">
    <path clip-path="url(#p69a6ebc9be)" d="M 65.362472 307.386049 
L 100.02288 307.386049 
L 100.02288 295.521763 
L 65.362472 295.521763 
z
" style="fill:#008000;opacity:0.75;"/>
   </g>
   <g id="patch_4">
    <path clip-path="url(#p69a6ebc9be)" d="M 100.02288 307.386049 
L 134.683288 307.386049 
L 134.683288 196.158371 
L 100.02288 196.158371 
z
" style="fill:#008000;opacity:0.75;"/>
   </g>
   <g id="patch_5">
    <path clip-path="url(#p69a6ebc9be)" d="M 134.683288 307.386049 
L 169.343696 307.386049 
L 169.343696 22.643192 
L 134.683288 22.643192 
z
" style="fill:#008000;opacity:0.75;"/>
   </g>
   <g id="patch_6">
    <path clip-path="url(#p69a6ebc9be)" d="M 169.343696 307.386049 
L 204.004104 307.386049 
L 204.004104 144.252121 
L 169.343696 144.252121 
z
" style="fill:#008000;opacity:0.75;"/>
   </g>
   <g id="patch_7">
    <path clip-path="url(#p69a6ebc9be)" d="M 204.004104 307.386049 
L 238.664512 307.386049 
L 238.664512 285.140513 
L 204.004104 285.140513 
z
" style="fill:#008000;opacity:0.75;"/>
   </g>
   <g id="patch_8">
    <path clip-path="url(#p69a6ebc9be)" d="M 151.559963 307.386049 
L 151.559963 301.453906 
L 166.596881 301.453906 
L 166.596881 291.072656 
L 181.633799 291.072656 
L 181.633799 255.479799 
L 196.670717 255.479799 
L 196.670717 210.988728 
L 211.707635 210.988728 
L 211.707635 132.387835 
L 226.744553 132.387835 
L 226.744553 138.319978 
L 241.781471 138.319978 
L 241.781471 188.743192 
L 256.818389 188.743192 
L 256.818389 227.302121 
L 271.855307 227.302121 
L 271.855307 283.657478 
L 286.892225 283.657478 
L 286.892225 302.936942 
L 301.929143 302.936942 
L 301.929143 307.386049 
L 286.892225 307.386049 
L 286.892225 307.386049 
L 271.855307 307.386049 
L 271.855307 307.386049 
L 256.818389 307.386049 
L 256.818389 307.386049 
L 241.781471 307.386049 
L 241.781471 307.386049 
L 226.744553 307.386049 
L 226.744553 307.386049 
L 211.707635 307.386049 
L 211.707635 307.386049 
L 196.670717 307.386049 
L 196.670717 307.386049 
L 181.633799 307.386049 
L 181.633799 307.386049 
L 166.596881 307.386049 
L 166.596881 307.386049 
z
" style="fill:#0000ff;opacity:0.65;"/>
   </g>
   <g id="patch_9">
    <path clip-path="url(#p69a6ebc9be)" d="M 307.5844 307.386049 
L 323.944025 307.386049 
L 323.944025 304.419978 
L 307.5844 304.419978 
z
" style="fill:#ff0000;opacity:0.55;"/>
   </g>
   <g id="patch_10">
    <path clip-path="url(#p69a6ebc9be)" d="M 323.944025 307.386049 
L 340.303651 307.386049 
L 340.303651 291.072656 
L 323.944025 291.072656 
z
" style="fill:#ff0000;opacity:0.55;"/>
   </g>
   <g id="patch_11">
    <path clip-path="url(#p69a6ebc9be)" d="M 340.303651 307.386049 
L 356.663276 307.386049 
L 356.663276 279.208371 
L 340.303651 279.208371 
z
" style="fill:#ff0000;opacity:0.55;"/>
   </g>
   <g id="patch_12">
    <path clip-path="url(#p69a6ebc9be)" d="M 356.663276 307.386049 
L 373.022901 307.386049 
L 373.022901 258.445871 
L 356.663276 258.445871 
z
" style="fill:#ff0000;opacity:0.55;"/>
   </g>
   <g id="patch_13">
    <path clip-path="url(#p69a6ebc9be)" d="M 373.022901 307.386049 
L 389.382527 307.386049 
L 389.382527 249.547656 
L 373.022901 249.547656 
z
" style="fill:#ff0000;opacity:0.55;"/>
   </g>
   <g id="patch_14">
    <path clip-path="url(#p69a6ebc9be)" d="M 389.382527 307.386049 
L 405.742152 307.386049 
L 405.742152 222.853013 
L 389.382527 222.853013 
z
" style="fill:#ff0000;opacity:0.55;"/>
   </g>
   <g id="patch_15">
    <path clip-path="url(#p69a6ebc9be)" d="M 405.742152 307.386049 
L 422.101777 307.386049 
L 422.101777 270.310156 
L 405.742152 270.310156 
z
" style="fill:#ff0000;opacity:0.55;"/>
   </g>
   <g id="patch_16">
    <path clip-path="url(#p69a6ebc9be)" d="M 422.101777 307.386049 
L 438.461403 307.386049 
L 438.461403 291.072656 
L 422.101777 291.072656 
z
" style="fill:#ff0000;opacity:0.55;"/>
   </g>
   <g id="patch_17">
    <path clip-path="url(#p69a6ebc9be)" d="M 438.461403 307.386049 
L 454.821028 307.386049 
L 454.821028 305.903013 
L 438.461403 305.903013 
z
" style="fill:#ff0000;opacity:0.55;"/>
   </g>
   <g id="patch_18">
    <path clip-path="url(#p69a6ebc9be)" d="M 454.821028 307.386049 
L 471.180653 307.386049 
L 471.180653 304.419978 
L 454.821028 304.419978 
z
" style="fill:#ff0000;opacity:0.55;"/>
   </g>
   <g id="patch_19">
    <path clip-path="url(#p69a6ebc9be)" d="M 307.5844 304.419978 
L 323.944025 304.419978 
L 323.944025 304.419978 
L 307.5844 304.419978 
z
" style="fill:#bf00bf;opacity:0.55;"/>
   </g>
   <g id="patch_20">
    <path clip-path="url(#p69a6ebc9be)" d="M 323.944025 291.072656 
L 340.303651 291.072656 
L 340.303651 289.589621 
L 323.944025 289.589621 
z
" style="fill:#bf00bf;opacity:0.55;"/>
   </g>
   <g id="patch_21">
    <path clip-path="url(#p69a6ebc9be)" d="M 340.303651 279.208371 
L 356.663276 279.208371 
L 356.663276 279.208371 
L 340.303651 279.208371 
z
" style="fill:#bf00bf;opacity:0.55;"/>
   </g>
   <g id="patch_22">
    <path clip-path="url(#p69a6ebc9be)" d="M 356.663276 258.445871 
L 373.022901 258.445871 
L 373.022901 242.132478 
L 356.663276 242.132478 
z
" style="fill:#bf00bf;opacity:0.55;"/>
   </g>
   <g id="patch_23">
    <path clip-path="url(#p69a6ebc9be)" d="M 373.022901 249.547656 
L 389.382527 249.547656 
L 389.382527 227.302121 
L 373.022901 227.302121 
z
" style="fill:#bf00bf;opacity:0.55;"/>
   </g>
   <g id="patch_24">
    <path clip-path="url(#p69a6ebc9be)" d="M 389.382527 222.853013 
L 405.742152 222.853013 
L 405.742152 190.226228 
L 389.382527 190.226228 
z
" style="fill:#bf00bf;opacity:0.55;"/>
   </g>
   <g id="patch_25">
    <path clip-path="url(#p69a6ebc9be)" d="M 405.742152 270.310156 
L 422.101777 270.310156 
L 422.101777 231.751228 
L 405.742152 231.751228 
z
" style="fill:#bf00bf;opacity:0.55;"/>
   </g>
   <g id="patch_26">
    <path clip-path="url(#p69a6ebc9be)" d="M 422.101777 291.072656 
L 438.461403 291.072656 
L 438.461403 267.344085 
L 422.101777 267.344085 
z
" style="fill:#bf00bf;opacity:0.55;"/>
   </g>
   <g id="patch_27">
    <path clip-path="url(#p69a6ebc9be)" d="M 438.461403 305.903013 
L 454.821028 305.903013 
L 454.821028 295.521763 
L 438.461403 295.521763 
z
" style="fill:#bf00bf;opacity:0.55;"/>
   </g>
   <g id="patch_28">
    <path clip-path="url(#p69a6ebc9be)" d="M 454.821028 304.419978 
L 471.180653 304.419978 
L 471.180653 301.453906 
L 454.821028 301.453906 
z
" style="fill:#bf00bf;opacity:0.55;"/>
   </g>
   <g id="patch_29">
    <path clip-path="url(#p69a6ebc9be)" d="M 229.163613 307.386049 
L 229.163613 301.453906 
L 244.960667 301.453906 
L 244.960667 277.725335 
L 260.75772 277.725335 
L 260.75772 240.649442 
L 276.554774 240.649442 
L 276.554774 188.743192 
L 292.351827 188.743192 
L 292.351827 142.769085 
L 308.148881 142.769085 
L 308.148881 160.565513 
L 323.945934 160.565513 
L 323.945934 219.886942 
L 339.742988 219.886942 
L 339.742988 271.793192 
L 355.540042 271.793192 
L 355.540042 297.004799 
L 371.337095 297.004799 
L 371.337095 305.903013 
L 387.134149 305.903013 
L 387.134149 307.386049 
" style="fill:none;stroke:#ff0000;stroke-linejoin:miter;stroke-width:0.3;"/>
   </g>
   <g id="patch_30">
    <path d="M 45.071562 307.386049 
L 45.071562 8.406049 
" style="fill:none;"/>
   </g>
   <g id="patch_31">
    <path d="M 491.471563 307.386049 
L 491.471563 8.406049 
" style="fill:none;"/>
   </g>
   <g id="patch_32">
    <path d="M 45.071562 307.386049 
L 491.471563 307.386049 
" style="fill:none;"/>
   </g>
   <g id="patch_33">
    <path d="M 45.071562 8.406049 
L 491.471563 8.406049 
" style="fill:none;"/>
   </g>
   <g id="legend_1">
    <g id="patch_34">
     <path d="M 396.666875 24.563862 
L 416.666875 24.563862 
L 416.666875 17.563862 
L 396.666875 17.563862 
z
" style="fill:#008000;opacity:0.75;"/>
    </g>
    <g id="text_21">
     <!-- bar hist -->
     <g style="fill:#262626;" transform="translate(424.666875 24.563862)scale(0.1 -0.1)">
      <defs>
       <path d="M 14.703125 0 
L 6.546875 0 
L 6.546875 71.578125 
L 15.328125 71.578125 
L 15.328125 46.046875 
Q 20.90625 53.03125 29.546875 53.03125 
Q 34.328125 53.03125 38.59375 51.09375 
Q 42.875 49.171875 45.625 45.671875 
Q 48.390625 42.1875 49.953125 37.25 
Q 51.515625 32.328125 51.515625 26.703125 
Q 51.515625 13.375 44.921875 6.09375 
Q 38.328125 -1.171875 29.109375 -1.171875 
Q 19.921875 -1.171875 14.703125 6.5 
z
M 14.59375 26.3125 
Q 14.59375 17 17.140625 12.84375 
Q 21.296875 6.0625 28.375 6.0625 
Q 34.125 6.0625 38.328125 11.0625 
Q 42.53125 16.0625 42.53125 25.984375 
Q 42.53125 36.140625 38.5 40.96875 
Q 34.46875 45.796875 28.765625 45.796875 
Q 23 45.796875 18.796875 40.796875 
Q 14.59375 35.796875 14.59375 26.3125 
z
" id="ArialMT-98"/>
       <path id="ArialMT-32"/>
       <path d="M 6.59375 0 
L 6.59375 71.578125 
L 15.375 71.578125 
L 15.375 45.90625 
Q 21.53125 53.03125 30.90625 53.03125 
Q 36.671875 53.03125 40.921875 50.75 
Q 45.171875 48.484375 47 44.484375 
Q 48.828125 40.484375 48.828125 32.859375 
L 48.828125 0 
L 40.046875 0 
L 40.046875 32.859375 
Q 40.046875 39.453125 37.1875 42.453125 
Q 34.328125 45.453125 29.109375 45.453125 
Q 25.203125 45.453125 21.75 43.421875 
Q 18.3125 41.40625 16.84375 37.9375 
Q 15.375 34.46875 15.375 28.375 
L 15.375 0 
z
" id="ArialMT-104"/>
       <path d="M 6.640625 61.46875 
L 6.640625 71.578125 
L 15.4375 71.578125 
L 15.4375 61.46875 
z
M 6.640625 0 
L 6.640625 51.859375 
L 15.4375 51.859375 
L 15.4375 0 
z
" id="ArialMT-105"/>
       <path d="M 3.078125 15.484375 
L 11.765625 16.84375 
Q 12.5 11.625 15.84375 8.84375 
Q 19.1875 6.0625 25.203125 6.0625 
Q 31.25 6.0625 34.171875 8.515625 
Q 37.109375 10.984375 37.109375 14.3125 
Q 37.109375 17.28125 34.515625 19 
Q 32.71875 20.171875 25.53125 21.96875 
Q 15.875 24.421875 12.140625 26.203125 
Q 8.40625 27.984375 6.46875 31.125 
Q 4.546875 34.28125 4.546875 38.09375 
Q 4.546875 41.546875 6.125 44.5 
Q 7.71875 47.46875 10.453125 49.421875 
Q 12.5 50.921875 16.03125 51.96875 
Q 19.578125 53.03125 23.640625 53.03125 
Q 29.734375 53.03125 34.34375 51.265625 
Q 38.96875 49.515625 41.15625 46.5 
Q 43.359375 43.5 44.1875 38.484375 
L 35.59375 37.3125 
Q 35.015625 41.3125 32.203125 43.546875 
Q 29.390625 45.796875 24.265625 45.796875 
Q 18.21875 45.796875 15.625 43.796875 
Q 13.03125 41.796875 13.03125 39.109375 
Q 13.03125 37.40625 14.109375 36.03125 
Q 15.1875 34.625 17.484375 33.6875 
Q 18.796875 33.203125 25.25 31.453125 
Q 34.578125 28.953125 38.25 27.359375 
Q 41.9375 25.78125 44.03125 22.75 
Q 46.140625 19.734375 46.140625 15.234375 
Q 46.140625 10.84375 43.578125 6.953125 
Q 41.015625 3.078125 36.171875 0.953125 
Q 31.34375 -1.171875 25.25 -1.171875 
Q 15.140625 -1.171875 9.84375 3.03125 
Q 4.546875 7.234375 3.078125 15.484375 
z
" id="ArialMT-115"/>
       <path d="M 25.78125 7.859375 
L 27.046875 0.09375 
Q 23.34375 -0.6875 20.40625 -0.6875 
Q 15.625 -0.6875 12.984375 0.828125 
Q 10.359375 2.34375 9.28125 4.8125 
Q 8.203125 7.28125 8.203125 15.1875 
L 8.203125 45.015625 
L 1.765625 45.015625 
L 1.765625 51.859375 
L 8.203125 51.859375 
L 8.203125 64.703125 
L 16.9375 69.96875 
L 16.9375 51.859375 
L 25.78125 51.859375 
L 25.78125 45.015625 
L 16.9375 45.015625 
L 16.9375 14.703125 
Q 16.9375 10.9375 17.40625 9.859375 
Q 17.875 8.796875 18.921875 8.15625 
Q 19.96875 7.515625 21.921875 7.515625 
Q 23.390625 7.515625 25.78125 7.859375 
z
" id="ArialMT-116"/>
      </defs>
      <use xlink:href="#ArialMT-98"/>
      <use x="55.615234" xlink:href="#ArialMT-97"/>
      <use x="111.230469" xlink:href="#ArialMT-114"/>
      <use x="144.53125" xlink:href="#ArialMT-32"/>
      <use x="172.314453" xlink:href="#ArialMT-104"/>
      <use x="227.929688" xlink:href="#ArialMT-105"/>
      <use x="250.146484" xlink:href="#ArialMT-115"/>
      <use x="300.146484" xlink:href="#ArialMT-116"/>
     </g>
    </g>
    <g id="patch_35">
     <path d="M 396.666875 38.831049 
L 416.666875 38.831049 
L 416.666875 31.831049 
L 396.666875 31.831049 
z
" style="fill:#0000ff;opacity:0.65;"/>
    </g>
    <g id="text_22">
     <!-- stepfilled hist -->
     <g style="fill:#262626;" transform="translate(424.666875 38.831049)scale(0.1 -0.1)">
      <defs>
       <path d="M 6.59375 -19.875 
L 6.59375 51.859375 
L 14.59375 51.859375 
L 14.59375 45.125 
Q 17.4375 49.078125 21 51.046875 
Q 24.5625 53.03125 29.640625 53.03125 
Q 36.28125 53.03125 41.359375 49.609375 
Q 46.4375 46.1875 49.015625 39.953125 
Q 51.609375 33.734375 51.609375 26.3125 
Q 51.609375 18.359375 48.75 11.984375 
Q 45.90625 5.609375 40.453125 2.21875 
Q 35.015625 -1.171875 29 -1.171875 
Q 24.609375 -1.171875 21.109375 0.6875 
Q 17.625 2.546875 15.375 5.375 
L 15.375 -19.875 
z
M 14.546875 25.640625 
Q 14.546875 15.625 18.59375 10.84375 
Q 22.65625 6.0625 28.421875 6.0625 
Q 34.28125 6.0625 38.453125 11.015625 
Q 42.625 15.96875 42.625 26.375 
Q 42.625 36.28125 38.546875 41.203125 
Q 34.46875 46.140625 28.8125 46.140625 
Q 23.1875 46.140625 18.859375 40.890625 
Q 14.546875 35.640625 14.546875 25.640625 
z
" id="ArialMT-112"/>
       <path d="M 8.6875 0 
L 8.6875 45.015625 
L 0.921875 45.015625 
L 0.921875 51.859375 
L 8.6875 51.859375 
L 8.6875 57.375 
Q 8.6875 62.59375 9.625 65.140625 
Q 10.890625 68.5625 14.078125 70.671875 
Q 17.28125 72.796875 23.046875 72.796875 
Q 26.765625 72.796875 31.25 71.921875 
L 29.9375 64.265625 
Q 27.203125 64.75 24.75 64.75 
Q 20.75 64.75 19.09375 63.03125 
Q 17.4375 61.328125 17.4375 56.640625 
L 17.4375 51.859375 
L 27.546875 51.859375 
L 27.546875 45.015625 
L 17.4375 45.015625 
L 17.4375 0 
z
" id="ArialMT-102"/>
       <path d="M 40.234375 0 
L 40.234375 6.546875 
Q 35.296875 -1.171875 25.734375 -1.171875 
Q 19.53125 -1.171875 14.328125 2.25 
Q 9.125 5.671875 6.265625 11.796875 
Q 3.421875 17.921875 3.421875 25.875 
Q 3.421875 33.640625 6 39.96875 
Q 8.59375 46.296875 13.765625 49.65625 
Q 18.953125 53.03125 25.34375 53.03125 
Q 30.03125 53.03125 33.6875 51.046875 
Q 37.359375 49.078125 39.65625 45.90625 
L 39.65625 71.578125 
L 48.390625 71.578125 
L 48.390625 0 
z
M 12.453125 25.875 
Q 12.453125 15.921875 16.640625 10.984375 
Q 20.84375 6.0625 26.5625 6.0625 
Q 32.328125 6.0625 36.34375 10.765625 
Q 40.375 15.484375 40.375 25.140625 
Q 40.375 35.796875 36.265625 40.765625 
Q 32.171875 45.75 26.171875 45.75 
Q 20.3125 45.75 16.375 40.96875 
Q 12.453125 36.1875 12.453125 25.875 
z
" id="ArialMT-100"/>
      </defs>
      <use xlink:href="#ArialMT-115"/>
      <use x="50" xlink:href="#ArialMT-116"/>
      <use x="77.783203" xlink:href="#ArialMT-101"/>
      <use x="133.398438" xlink:href="#ArialMT-112"/>
      <use x="189.013672" xlink:href="#ArialMT-102"/>
      <use x="216.796875" xlink:href="#ArialMT-105"/>
      <use x="239.013672" xlink:href="#ArialMT-108"/>
      <use x="261.230469" xlink:href="#ArialMT-108"/>
      <use x="283.447266" xlink:href="#ArialMT-101"/>
      <use x="339.0625" xlink:href="#ArialMT-100"/>
      <use x="394.677734" xlink:href="#ArialMT-32"/>
      <use x="422.460938" xlink:href="#ArialMT-104"/>
      <use x="478.076172" xlink:href="#ArialMT-105"/>
      <use x="500.292969" xlink:href="#ArialMT-115"/>
      <use x="550.292969" xlink:href="#ArialMT-116"/>
     </g>
    </g>
    <g id="patch_36">
     <path d="M 396.666875 52.976362 
L 416.666875 52.976362 
L 416.666875 45.976362 
L 396.666875 45.976362 
z
" style="fill:none;stroke:#ff0000;stroke-linejoin:miter;stroke-width:0.3;"/>
    </g>
    <g id="text_23">
     <!-- step hist -->
     <g style="fill:#262626;" transform="translate(424.666875 52.976362)scale(0.1 -0.1)">
      <use xlink:href="#ArialMT-115"/>
      <use x="50" xlink:href="#ArialMT-116"/>
      <use x="77.783203" xlink:href="#ArialMT-101"/>
      <use x="133.398438" xlink:href="#ArialMT-112"/>
      <use x="189.013672" xlink:href="#ArialMT-32"/>
      <use x="216.796875" xlink:href="#ArialMT-104"/>
      <use x="272.412109" xlink:href="#ArialMT-105"/>
      <use x="294.628906" xlink:href="#ArialMT-115"/>
      <use x="344.628906" xlink:href="#ArialMT-116"/>
     </g>
    </g>
    <g id="patch_37">
     <path d="M 396.666875 67.121674 
L 416.666875 67.121674 
L 416.666875 60.121674 
L 396.666875 60.121674 
z
" style="fill:#ff0000;opacity:0.55;"/>
    </g>
    <g id="text_24">
     <!-- barstacked a -->
     <g style="fill:#262626;" transform="translate(424.666875 67.121674)scale(0.1 -0.1)">
      <defs>
       <path d="M 6.640625 0 
L 6.640625 71.578125 
L 15.4375 71.578125 
L 15.4375 30.765625 
L 36.234375 51.859375 
L 47.609375 51.859375 
L 27.78125 32.625 
L 49.609375 0 
L 38.765625 0 
L 21.625 26.515625 
L 15.4375 20.5625 
L 15.4375 0 
z
" id="ArialMT-107"/>
      </defs>
      <use xlink:href="#ArialMT-98"/>
      <use x="55.615234" xlink:href="#ArialMT-97"/>
      <use x="111.230469" xlink:href="#ArialMT-114"/>
      <use x="144.53125" xlink:href="#ArialMT-115"/>
      <use x="194.53125" xlink:href="#ArialMT-116"/>
      <use x="222.314453" xlink:href="#ArialMT-97"/>
      <use x="277.929688" xlink:href="#ArialMT-99"/>
      <use x="327.929688" xlink:href="#ArialMT-107"/>
      <use x="377.929688" xlink:href="#ArialMT-101"/>
      <use x="433.544922" xlink:href="#ArialMT-100"/>
      <use x="489.160156" xlink:href="#ArialMT-32"/>
      <use x="516.943359" xlink:href="#ArialMT-97"/>
     </g>
    </g>
    <g id="patch_38">
     <path d="M 396.666875 81.266987 
L 416.666875 81.266987 
L 416.666875 74.266987 
L 396.666875 74.266987 
z
" style="fill:#bf00bf;opacity:0.55;"/>
    </g>
    <g id="text_25">
     <!-- barstacked b -->
     <g style="fill:#262626;" transform="translate(424.666875 81.266987)scale(0.1 -0.1)">
      <use xlink:href="#ArialMT-98"/>
      <use x="55.615234" xlink:href="#ArialMT-97"/>
      <use x="111.230469" xlink:href="#ArialMT-114"/>
      <use x="144.53125" xlink:href="#ArialMT-115"/>
      <use x="194.53125" xlink:href="#ArialMT-116"/>
      <use x="222.314453" xlink:href="#ArialMT-97"/>
      <use x="277.929688" xlink:href="#ArialMT-99"/>
      <use x="327.929688" xlink:href="#ArialMT-107"/>
      <use x="377.929688" xlink:href="#ArialMT-101"/>
      <use x="433.544922" xlink:href="#ArialMT-100"/>
      <use x="489.160156" xlink:href="#ArialMT-32"/>
      <use x="516.943359" xlink:href="#ArialMT-98"/>
     </g>
    </g>
   </g>
  </g>
 </g>
 <defs>
  <clipPath id="p69a6ebc9be">
   <rect height="298.98" width="446.4" x="45.071562" y="8.406049"/>
  </clipPath>
 </defs>
</svg>
