<?xml version="1.0" encoding="utf-8" standalone="no"?>
<!DOCTYPE svg PUBLIC "-//W3C//DTD SVG 1.1//EN"
  "http://www.w3.org/Graphics/SVG/1.1/DTD/svg11.dtd">
<!-- Created with matplotlib (https://matplotlib.org/) -->
<svg height="339.044219pt" version="1.1" viewBox="0 0 487.540625 339.044219" width="487.540625pt" xmlns="http://www.w3.org/2000/svg" xmlns:xlink="http://www.w3.org/1999/xlink">
 <metadata>
  <rdf:RDF xmlns:cc="http://creativecommons.org/ns#" xmlns:dc="http://purl.org/dc/elements/1.1/" xmlns:rdf="http://www.w3.org/1999/02/22-rdf-syntax-ns#">
   <cc:Work>
    <dc:type rdf:resource="http://purl.org/dc/dcmitype/StillImage"/>
    <dc:date>2022-01-30T21:19:21.464218</dc:date>
    <dc:format>image/svg+xml</dc:format>
    <dc:creator>
     <cc:Agent>
      <dc:title>Matplotlib v3.3.4, https://matplotlib.org/</dc:title>
     </cc:Agent>
    </dc:creator>
   </cc:Work>
  </rdf:RDF>
 </metadata>
 <defs>
  <style type="text/css">*{stroke-linecap:butt;stroke-linejoin:round;}</style>
 </defs>
 <g id="figure_1">
  <g id="patch_1">
   <path d="M 0 339.044219 
L 487.540625 339.044219 
L 487.540625 0 
L 0 0 
z
" style="fill:#ffffff;"/>
  </g>
  <g id="axes_1">
   <g id="patch_2">
    <path d="M 33.940625 315.698906 
L 480.340625 315.698906 
L 480.340625 10.778906 
L 33.940625 10.778906 
z
" style="fill:#eaeaf2;"/>
   </g>
   <g id="matplotlib.axis_1">
    <g id="xtick_1">
     <g id="line2d_1">
      <path clip-path="url(#p66d2f5ae49)" d="M 54.231534 315.698906 
L 54.231534 10.778906 
" style="fill:none;stroke:#ffffff;stroke-linecap:round;"/>
     </g>
     <g id="line2d_2"/>
     <g id="text_1">
      <!-- 0 -->
      <g style="fill:#262626;" transform="translate(51.451065 329.856719)scale(0.1 -0.1)">
       <defs>
        <path d="M 4.15625 35.296875 
Q 4.15625 48 6.765625 55.734375 
Q 9.375 63.484375 14.515625 67.671875 
Q 19.671875 71.875 27.484375 71.875 
Q 33.25 71.875 37.59375 69.546875 
Q 41.9375 67.234375 44.765625 62.859375 
Q 47.609375 58.5 49.21875 52.21875 
Q 50.828125 45.953125 50.828125 35.296875 
Q 50.828125 22.703125 48.234375 14.96875 
Q 45.65625 7.234375 40.5 3 
Q 35.359375 -1.21875 27.484375 -1.21875 
Q 17.140625 -1.21875 11.234375 6.203125 
Q 4.15625 15.140625 4.15625 35.296875 
z
M 13.1875 35.296875 
Q 13.1875 17.671875 17.3125 11.828125 
Q 21.4375 6 27.484375 6 
Q 33.546875 6 37.671875 11.859375 
Q 41.796875 17.71875 41.796875 35.296875 
Q 41.796875 52.984375 37.671875 58.78125 
Q 33.546875 64.59375 27.390625 64.59375 
Q 21.34375 64.59375 17.71875 59.46875 
Q 13.1875 52.9375 13.1875 35.296875 
z
" id="ArialMT-48"/>
       </defs>
       <use xlink:href="#ArialMT-48"/>
      </g>
     </g>
    </g>
    <g id="xtick_2">
     <g id="line2d_3">
      <path clip-path="url(#p66d2f5ae49)" d="M 135.411406 315.698906 
L 135.411406 10.778906 
" style="fill:none;stroke:#ffffff;stroke-linecap:round;"/>
     </g>
     <g id="line2d_4"/>
     <g id="text_2">
      <!-- 1 -->
      <g style="fill:#262626;" transform="translate(132.630938 329.856719)scale(0.1 -0.1)">
       <defs>
        <path d="M 37.25 0 
L 28.46875 0 
L 28.46875 56 
Q 25.296875 52.984375 20.140625 49.953125 
Q 14.984375 46.921875 10.890625 45.40625 
L 10.890625 53.90625 
Q 18.265625 57.375 23.78125 62.296875 
Q 29.296875 67.234375 31.59375 71.875 
L 37.25 71.875 
z
" id="ArialMT-49"/>
       </defs>
       <use xlink:href="#ArialMT-49"/>
      </g>
     </g>
    </g>
    <g id="xtick_3">
     <g id="line2d_5">
      <path clip-path="url(#p66d2f5ae49)" d="M 216.591279 315.698906 
L 216.591279 10.778906 
" style="fill:none;stroke:#ffffff;stroke-linecap:round;"/>
     </g>
     <g id="line2d_6"/>
     <g id="text_3">
      <!-- 2 -->
      <g style="fill:#262626;" transform="translate(213.81081 329.856719)scale(0.1 -0.1)">
       <defs>
        <path d="M 50.34375 8.453125 
L 50.34375 0 
L 3.03125 0 
Q 2.9375 3.171875 4.046875 6.109375 
Q 5.859375 10.9375 9.828125 15.625 
Q 13.8125 20.3125 21.34375 26.46875 
Q 33.015625 36.03125 37.109375 41.625 
Q 41.21875 47.21875 41.21875 52.203125 
Q 41.21875 57.421875 37.46875 61 
Q 33.734375 64.59375 27.734375 64.59375 
Q 21.390625 64.59375 17.578125 60.78125 
Q 13.765625 56.984375 13.71875 50.25 
L 4.6875 51.171875 
Q 5.609375 61.28125 11.65625 66.578125 
Q 17.71875 71.875 27.9375 71.875 
Q 38.234375 71.875 44.234375 66.15625 
Q 50.25 60.453125 50.25 52 
Q 50.25 47.703125 48.484375 43.546875 
Q 46.734375 39.40625 42.65625 34.8125 
Q 38.578125 30.21875 29.109375 22.21875 
Q 21.1875 15.578125 18.9375 13.203125 
Q 16.703125 10.84375 15.234375 8.453125 
z
" id="ArialMT-50"/>
       </defs>
       <use xlink:href="#ArialMT-50"/>
      </g>
     </g>
    </g>
    <g id="xtick_4">
     <g id="line2d_7">
      <path clip-path="url(#p66d2f5ae49)" d="M 297.771151 315.698906 
L 297.771151 10.778906 
" style="fill:none;stroke:#ffffff;stroke-linecap:round;"/>
     </g>
     <g id="line2d_8"/>
     <g id="text_4">
      <!-- 3 -->
      <g style="fill:#262626;" transform="translate(294.990682 329.856719)scale(0.1 -0.1)">
       <defs>
        <path d="M 4.203125 18.890625 
L 12.984375 20.0625 
Q 14.5 12.59375 18.140625 9.296875 
Q 21.78125 6 27 6 
Q 33.203125 6 37.46875 10.296875 
Q 41.75 14.59375 41.75 20.953125 
Q 41.75 27 37.796875 30.921875 
Q 33.84375 34.859375 27.734375 34.859375 
Q 25.25 34.859375 21.53125 33.890625 
L 22.515625 41.609375 
Q 23.390625 41.5 23.921875 41.5 
Q 29.546875 41.5 34.03125 44.421875 
Q 38.53125 47.359375 38.53125 53.46875 
Q 38.53125 58.296875 35.25 61.46875 
Q 31.984375 64.65625 26.8125 64.65625 
Q 21.6875 64.65625 18.265625 61.421875 
Q 14.84375 58.203125 13.875 51.765625 
L 5.078125 53.328125 
Q 6.6875 62.15625 12.390625 67.015625 
Q 18.109375 71.875 26.609375 71.875 
Q 32.46875 71.875 37.390625 69.359375 
Q 42.328125 66.84375 44.9375 62.5 
Q 47.5625 58.15625 47.5625 53.265625 
Q 47.5625 48.640625 45.0625 44.828125 
Q 42.578125 41.015625 37.703125 38.765625 
Q 44.046875 37.3125 47.5625 32.6875 
Q 51.078125 28.078125 51.078125 21.140625 
Q 51.078125 11.765625 44.234375 5.25 
Q 37.40625 -1.265625 26.953125 -1.265625 
Q 17.53125 -1.265625 11.296875 4.34375 
Q 5.078125 9.96875 4.203125 18.890625 
z
" id="ArialMT-51"/>
       </defs>
       <use xlink:href="#ArialMT-51"/>
      </g>
     </g>
    </g>
    <g id="xtick_5">
     <g id="line2d_9">
      <path clip-path="url(#p66d2f5ae49)" d="M 378.951023 315.698906 
L 378.951023 10.778906 
" style="fill:none;stroke:#ffffff;stroke-linecap:round;"/>
     </g>
     <g id="line2d_10"/>
     <g id="text_5">
      <!-- 4 -->
      <g style="fill:#262626;" transform="translate(376.170555 329.856719)scale(0.1 -0.1)">
       <defs>
        <path d="M 32.328125 0 
L 32.328125 17.140625 
L 1.265625 17.140625 
L 1.265625 25.203125 
L 33.9375 71.578125 
L 41.109375 71.578125 
L 41.109375 25.203125 
L 50.78125 25.203125 
L 50.78125 17.140625 
L 41.109375 17.140625 
L 41.109375 0 
z
M 32.328125 25.203125 
L 32.328125 57.46875 
L 9.90625 25.203125 
z
" id="ArialMT-52"/>
       </defs>
       <use xlink:href="#ArialMT-52"/>
      </g>
     </g>
    </g>
    <g id="xtick_6">
     <g id="line2d_11">
      <path clip-path="url(#p66d2f5ae49)" d="M 460.130896 315.698906 
L 460.130896 10.778906 
" style="fill:none;stroke:#ffffff;stroke-linecap:round;"/>
     </g>
     <g id="line2d_12"/>
     <g id="text_6">
      <!-- 5 -->
      <g style="fill:#262626;" transform="translate(457.350427 329.856719)scale(0.1 -0.1)">
       <defs>
        <path d="M 4.15625 18.75 
L 13.375 19.53125 
Q 14.40625 12.796875 18.140625 9.390625 
Q 21.875 6 27.15625 6 
Q 33.5 6 37.890625 10.78125 
Q 42.28125 15.578125 42.28125 23.484375 
Q 42.28125 31 38.0625 35.34375 
Q 33.84375 39.703125 27 39.703125 
Q 22.75 39.703125 19.328125 37.765625 
Q 15.921875 35.84375 13.96875 32.765625 
L 5.71875 33.84375 
L 12.640625 70.609375 
L 48.25 70.609375 
L 48.25 62.203125 
L 19.671875 62.203125 
L 15.828125 42.96875 
Q 22.265625 47.46875 29.34375 47.46875 
Q 38.71875 47.46875 45.15625 40.96875 
Q 51.609375 34.46875 51.609375 24.265625 
Q 51.609375 14.546875 45.953125 7.46875 
Q 39.0625 -1.21875 27.15625 -1.21875 
Q 17.390625 -1.21875 11.203125 4.25 
Q 5.03125 9.71875 4.15625 18.75 
z
" id="ArialMT-53"/>
       </defs>
       <use xlink:href="#ArialMT-53"/>
      </g>
     </g>
    </g>
   </g>
   <g id="matplotlib.axis_2">
    <g id="ytick_1">
     <g id="line2d_13">
      <path clip-path="url(#p66d2f5ae49)" d="M 33.940625 315.698906 
L 480.340625 315.698906 
" style="fill:none;stroke:#ffffff;stroke-linecap:round;"/>
     </g>
     <g id="line2d_14"/>
     <g id="text_7">
      <!-- −2.0 -->
      <g style="fill:#262626;" transform="translate(7.2 319.277812)scale(0.1 -0.1)">
       <defs>
        <path d="M 52.828125 31.203125 
L 5.5625 31.203125 
L 5.5625 39.40625 
L 52.828125 39.40625 
z
" id="ArialMT-8722"/>
        <path d="M 9.078125 0 
L 9.078125 10.015625 
L 19.09375 10.015625 
L 19.09375 0 
z
" id="ArialMT-46"/>
       </defs>
       <use xlink:href="#ArialMT-8722"/>
       <use x="58.398438" xlink:href="#ArialMT-50"/>
       <use x="114.013672" xlink:href="#ArialMT-46"/>
       <use x="141.796875" xlink:href="#ArialMT-48"/>
      </g>
     </g>
    </g>
    <g id="ytick_2">
     <g id="line2d_15">
      <path clip-path="url(#p66d2f5ae49)" d="M 33.940625 277.583906 
L 480.340625 277.583906 
" style="fill:none;stroke:#ffffff;stroke-linecap:round;"/>
     </g>
     <g id="line2d_16"/>
     <g id="text_8">
      <!-- −1.5 -->
      <g style="fill:#262626;" transform="translate(7.2 281.162812)scale(0.1 -0.1)">
       <use xlink:href="#ArialMT-8722"/>
       <use x="58.398438" xlink:href="#ArialMT-49"/>
       <use x="114.013672" xlink:href="#ArialMT-46"/>
       <use x="141.796875" xlink:href="#ArialMT-53"/>
      </g>
     </g>
    </g>
    <g id="ytick_3">
     <g id="line2d_17">
      <path clip-path="url(#p66d2f5ae49)" d="M 33.940625 239.468906 
L 480.340625 239.468906 
" style="fill:none;stroke:#ffffff;stroke-linecap:round;"/>
     </g>
     <g id="line2d_18"/>
     <g id="text_9">
      <!-- −1.0 -->
      <g style="fill:#262626;" transform="translate(7.2 243.047812)scale(0.1 -0.1)">
       <use xlink:href="#ArialMT-8722"/>
       <use x="58.398438" xlink:href="#ArialMT-49"/>
       <use x="114.013672" xlink:href="#ArialMT-46"/>
       <use x="141.796875" xlink:href="#ArialMT-48"/>
      </g>
     </g>
    </g>
    <g id="ytick_4">
     <g id="line2d_19">
      <path clip-path="url(#p66d2f5ae49)" d="M 33.940625 201.353906 
L 480.340625 201.353906 
" style="fill:none;stroke:#ffffff;stroke-linecap:round;"/>
     </g>
     <g id="line2d_20"/>
     <g id="text_10">
      <!-- −0.5 -->
      <g style="fill:#262626;" transform="translate(7.2 204.932812)scale(0.1 -0.1)">
       <use xlink:href="#ArialMT-8722"/>
       <use x="58.398438" xlink:href="#ArialMT-48"/>
       <use x="114.013672" xlink:href="#ArialMT-46"/>
       <use x="141.796875" xlink:href="#ArialMT-53"/>
      </g>
     </g>
    </g>
    <g id="ytick_5">
     <g id="line2d_21">
      <path clip-path="url(#p66d2f5ae49)" d="M 33.940625 163.238906 
L 480.340625 163.238906 
" style="fill:none;stroke:#ffffff;stroke-linecap:round;"/>
     </g>
     <g id="line2d_22"/>
     <g id="text_11">
      <!-- 0.0 -->
      <g style="fill:#262626;" transform="translate(13.040625 166.817812)scale(0.1 -0.1)">
       <use xlink:href="#ArialMT-48"/>
       <use x="55.615234" xlink:href="#ArialMT-46"/>
       <use x="83.398438" xlink:href="#ArialMT-48"/>
      </g>
     </g>
    </g>
    <g id="ytick_6">
     <g id="line2d_23">
      <path clip-path="url(#p66d2f5ae49)" d="M 33.940625 125.123906 
L 480.340625 125.123906 
" style="fill:none;stroke:#ffffff;stroke-linecap:round;"/>
     </g>
     <g id="line2d_24"/>
     <g id="text_12">
      <!-- 0.5 -->
      <g style="fill:#262626;" transform="translate(13.040625 128.702812)scale(0.1 -0.1)">
       <use xlink:href="#ArialMT-48"/>
       <use x="55.615234" xlink:href="#ArialMT-46"/>
       <use x="83.398438" xlink:href="#ArialMT-53"/>
      </g>
     </g>
    </g>
    <g id="ytick_7">
     <g id="line2d_25">
      <path clip-path="url(#p66d2f5ae49)" d="M 33.940625 87.008906 
L 480.340625 87.008906 
" style="fill:none;stroke:#ffffff;stroke-linecap:round;"/>
     </g>
     <g id="line2d_26"/>
     <g id="text_13">
      <!-- 1.0 -->
      <g style="fill:#262626;" transform="translate(13.040625 90.587812)scale(0.1 -0.1)">
       <use xlink:href="#ArialMT-49"/>
       <use x="55.615234" xlink:href="#ArialMT-46"/>
       <use x="83.398438" xlink:href="#ArialMT-48"/>
      </g>
     </g>
    </g>
    <g id="ytick_8">
     <g id="line2d_27">
      <path clip-path="url(#p66d2f5ae49)" d="M 33.940625 48.893906 
L 480.340625 48.893906 
" style="fill:none;stroke:#ffffff;stroke-linecap:round;"/>
     </g>
     <g id="line2d_28"/>
     <g id="text_14">
      <!-- 1.5 -->
      <g style="fill:#262626;" transform="translate(13.040625 52.472812)scale(0.1 -0.1)">
       <use xlink:href="#ArialMT-49"/>
       <use x="55.615234" xlink:href="#ArialMT-46"/>
       <use x="83.398438" xlink:href="#ArialMT-53"/>
      </g>
     </g>
    </g>
    <g id="ytick_9">
     <g id="line2d_29">
      <path clip-path="url(#p66d2f5ae49)" d="M 33.940625 10.778906 
L 480.340625 10.778906 
" style="fill:none;stroke:#ffffff;stroke-linecap:round;"/>
     </g>
     <g id="line2d_30"/>
     <g id="text_15">
      <!-- 2.0 -->
      <g style="fill:#262626;" transform="translate(13.040625 14.357812)scale(0.1 -0.1)">
       <use xlink:href="#ArialMT-50"/>
       <use x="55.615234" xlink:href="#ArialMT-46"/>
       <use x="83.398438" xlink:href="#ArialMT-48"/>
      </g>
     </g>
    </g>
   </g>
   <g id="line2d_31">
    <path clip-path="url(#p66d2f5ae49)" d="M 54.231534 87.008906 
L 54.718613 87.130756 
L 55.205693 87.495916 
L 55.773952 88.227852 
L 56.423391 89.463733 
L 57.154009 91.354738 
L 58.046988 94.366247 
L 59.021147 98.493688 
L 60.157665 104.350319 
L 61.456543 112.290432 
L 62.99896 123.204844 
L 64.866097 138.094028 
L 67.788573 163.478389 
L 71.441667 194.826757 
L 73.308804 209.00894 
L 74.851222 219.134961 
L 76.1501 226.287258 
L 77.286618 231.376438 
L 78.260776 234.798588 
L 79.072575 236.95343 
L 79.803194 238.33379 
L 80.452633 239.107683 
L 81.020892 239.431291 
L 81.507971 239.444832 
L 81.99505 239.21475 
L 82.48213 238.741781 
L 83.050389 237.885061 
L 83.699828 236.508546 
L 84.511626 234.203578 
L 85.404605 230.941548 
L 86.459943 226.152338 
L 87.677641 219.459531 
L 89.057699 210.526415 
L 90.681297 198.4852 
L 92.791973 181.034446 
L 99.773442 121.788045 
L 101.39704 110.534478 
L 102.777098 102.423036 
L 103.994796 96.55375 
L 105.050134 92.539762 
L 105.943113 89.969266 
L 106.673732 88.450376 
L 107.323171 87.551465 
L 107.89143 87.117596 
L 108.378509 87.009282 
L 108.865588 87.144667 
L 109.352667 87.523317 
L 109.920927 88.270878 
L 110.570365 89.524383 
L 111.300984 91.434797 
L 112.193963 94.469235 
L 113.168121 98.620417 
L 114.30464 104.502682 
L 115.603518 112.468822 
L 117.145935 123.408841 
L 119.094252 139.00031 
L 122.097907 165.154573 
L 125.507462 194.390225 
L 127.455779 209.200225 
L 128.998197 219.297523 
L 130.297074 226.421557 
L 131.433593 231.483482 
L 132.407751 234.880771 
L 133.21955 237.014079 
L 133.950169 238.374594 
L 134.599608 239.130595 
L 135.086687 239.414743 
L 135.573766 239.455364 
L 136.060845 239.252329 
L 136.547925 238.806287 
L 137.116184 237.980715 
L 137.765623 236.639281 
L 138.577421 234.377095 
L 139.4704 231.160334 
L 140.525738 226.421557 
L 141.662257 220.261218 
L 143.042314 211.45973 
L 144.665912 199.542545 
L 146.695409 182.891563 
L 154.245137 119.210539 
L 155.787554 108.830536 
L 157.167612 101.009365 
L 158.30413 95.757723 
L 159.278289 92.187125 
L 160.171267 89.710694 
L 160.901886 88.270878 
L 161.551325 87.443357 
L 162.119584 87.072472 
L 162.606664 87.018311 
L 163.093743 87.207819 
L 163.580822 87.640391 
L 164.149081 88.450376 
L 164.79852 89.77425 
L 165.529139 91.762114 
L 166.422118 94.88796 
L 167.396276 99.133701 
L 168.532794 105.117914 
L 169.831672 113.187374 
L 171.37409 124.228737 
L 173.322407 139.910419 
L 176.488422 167.547314 
L 179.735617 195.262041 
L 181.602754 209.391057 
L 183.145171 219.459531 
L 184.444049 226.555232 
L 185.580568 231.589852 
L 186.554726 234.962247 
L 187.366525 237.074001 
L 188.097144 238.414656 
L 188.746583 239.152758 
L 189.233662 239.423393 
L 189.720741 239.450474 
L 190.20782 239.233915 
L 190.694899 238.774407 
L 191.263159 237.933257 
L 191.912598 236.574276 
L 192.724396 234.290687 
L 193.617375 231.051275 
L 194.672713 226.287258 
L 195.890411 219.620985 
L 197.270469 210.714019 
L 198.894067 198.697373 
L 201.004743 181.267225 
L 208.067392 121.386897 
L 209.69099 110.189474 
L 211.071047 102.135455 
L 212.288746 96.323006 
L 213.344084 92.362045 
L 214.237062 89.838531 
L 214.967681 88.359149 
L 215.61712 87.495916 
L 216.185379 87.093531 
L 216.672459 87.012292 
L 217.159538 87.174741 
L 217.646617 87.580361 
L 218.214876 88.359149 
L 218.864315 89.647864 
L 219.594934 91.597041 
L 220.487913 94.677244 
L 221.462071 98.875788 
L 222.598589 104.809144 
L 223.897467 112.827103 
L 225.439885 123.818011 
L 227.388202 139.454895 
L 230.473037 166.351328 
L 233.801412 194.826757 
L 235.668549 209.00894 
L 237.210966 219.134961 
L 238.509844 226.287258 
L 239.646363 231.376438 
L 240.620521 234.798588 
L 241.43232 236.95343 
L 242.162939 238.33379 
L 242.812378 239.107683 
L 243.380637 239.431291 
L 243.867716 239.444832 
L 244.354795 239.21475 
L 244.841874 238.741781 
L 245.410133 237.885061 
L 246.059572 236.508546 
L 246.871371 234.203578 
L 247.76435 230.941548 
L 248.819688 226.152338 
L 250.037386 219.459531 
L 251.417444 210.526415 
L 253.041041 198.4852 
L 255.151718 181.034446 
L 262.133187 121.788045 
L 263.756785 110.534478 
L 265.136842 102.423036 
L 266.354541 96.55375 
L 267.409879 92.539762 
L 268.302857 89.969266 
L 269.033476 88.450376 
L 269.682915 87.551465 
L 270.251174 87.117596 
L 270.738254 87.009282 
L 271.225333 87.144667 
L 271.712412 87.523317 
L 272.280671 88.270878 
L 272.93011 89.524383 
L 273.660729 91.434797 
L 274.553708 94.469235 
L 275.527866 98.620417 
L 276.664384 104.502682 
L 277.963262 112.468822 
L 279.50568 123.408841 
L 281.453997 139.00031 
L 284.457652 165.154573 
L 287.867207 194.390225 
L 289.815524 209.200225 
L 291.357941 219.297523 
L 292.656819 226.421557 
L 293.793337 231.483482 
L 294.767496 234.880771 
L 295.579295 237.014079 
L 296.309913 238.374594 
L 296.959352 239.130595 
L 297.446432 239.414743 
L 297.933511 239.455364 
L 298.42059 239.252329 
L 298.907669 238.806287 
L 299.475928 237.980715 
L 300.125367 236.639281 
L 300.937166 234.377095 
L 301.830145 231.160334 
L 302.885483 226.421557 
L 304.022001 220.261218 
L 305.402059 211.45973 
L 307.025657 199.542545 
L 309.055153 182.891563 
L 316.604881 119.210539 
L 318.147299 108.830536 
L 319.527357 101.009365 
L 320.663875 95.757723 
L 321.638034 92.187125 
L 322.531012 89.710694 
L 323.261631 88.270878 
L 323.91107 87.443357 
L 324.479329 87.072472 
L 324.966408 87.018311 
L 325.453488 87.207819 
L 325.940567 87.640391 
L 326.508826 88.450376 
L 327.158265 89.77425 
L 327.888884 91.762114 
L 328.781862 94.88796 
L 329.756021 99.133701 
L 330.892539 105.117914 
L 332.191417 113.187374 
L 333.733835 124.228737 
L 335.682151 139.910419 
L 338.848167 167.547314 
L 342.095361 195.262041 
L 343.962498 209.391057 
L 345.504916 219.459531 
L 346.803794 226.555232 
L 347.940312 231.589852 
L 348.914471 234.962247 
L 349.726269 237.074001 
L 350.456888 238.414656 
L 351.106327 239.152758 
L 351.593406 239.423393 
L 352.080486 239.450474 
L 352.567565 239.233915 
L 353.054644 238.774407 
L 353.622903 237.933257 
L 354.272342 236.574276 
L 355.084141 234.290687 
L 355.97712 231.051275 
L 357.032458 226.287258 
L 358.250156 219.620985 
L 359.630214 210.714019 
L 361.253811 198.697373 
L 363.364488 181.267225 
L 370.427137 121.386897 
L 372.050734 110.189474 
L 373.430792 102.135455 
L 374.64849 96.323006 
L 375.703829 92.362045 
L 376.596807 89.838531 
L 377.327426 88.359149 
L 377.976865 87.495916 
L 378.545124 87.093531 
L 379.032203 87.012292 
L 379.519283 87.174741 
L 380.006362 87.580361 
L 380.574621 88.359149 
L 381.22406 89.647864 
L 381.954679 91.597041 
L 382.847657 94.677244 
L 383.821816 98.875788 
L 384.958334 104.809144 
L 386.257212 112.827103 
L 387.79963 123.818011 
L 389.747946 139.454895 
L 392.832782 166.351328 
L 396.161156 194.826757 
L 398.028293 209.00894 
L 399.570711 219.134961 
L 400.869589 226.287258 
L 402.006107 231.376438 
L 402.980266 234.798588 
L 403.792064 236.95343 
L 404.522683 238.33379 
L 405.172122 239.107683 
L 405.740381 239.431291 
L 406.227461 239.444832 
L 406.71454 239.21475 
L 407.201619 238.741781 
L 407.769878 237.885061 
L 408.419317 236.508546 
L 409.231116 234.203578 
L 410.124094 230.941548 
L 411.179433 226.152338 
L 412.397131 219.459531 
L 413.777189 210.526415 
L 415.400786 198.4852 
L 417.511463 181.034446 
L 424.492932 121.788045 
L 426.116529 110.534478 
L 427.496587 102.423036 
L 428.714285 96.55375 
L 429.769624 92.539762 
L 430.662602 89.969266 
L 431.393221 88.450376 
L 432.04266 87.551465 
L 432.610919 87.117596 
L 433.097998 87.009282 
L 433.585078 87.144667 
L 434.072157 87.523317 
L 434.640416 88.270878 
L 435.289855 89.524383 
L 436.020474 91.434797 
L 436.913452 94.469235 
L 437.887611 98.620417 
L 439.024129 104.502682 
L 440.323007 112.468822 
L 441.865425 123.408841 
L 443.813741 139.00031 
L 446.817397 165.154573 
L 450.226951 194.390225 
L 452.175268 209.200225 
L 453.717686 219.297523 
L 455.016564 226.421557 
L 456.153082 231.483482 
L 457.127241 234.880771 
L 457.939039 237.014079 
L 458.669658 238.374594 
L 459.319097 239.130595 
L 459.806176 239.414743 
L 460.049716 239.465521 
L 460.049716 239.465521 
" style="fill:none;stroke:#4c72b0;stroke-linecap:round;stroke-width:2;"/>
   </g>
   <g id="patch_3">
    <path d="M 33.940625 315.698906 
L 33.940625 10.778906 
" style="fill:none;"/>
   </g>
   <g id="patch_4">
    <path d="M 480.340625 315.698906 
L 480.340625 10.778906 
" style="fill:none;"/>
   </g>
   <g id="patch_5">
    <path d="M 33.940625 315.698906 
L 480.340625 315.698906 
" style="fill:none;"/>
   </g>
   <g id="patch_6">
    <path d="M 33.940625 10.778906 
L 480.340625 10.778906 
" style="fill:none;"/>
   </g>
   <g id="patch_7">
    <path d="M 316.125113 99.108598 
Q 319.125113 93.108598 322.125113 87.108598 
Q 325.125113 93.108598 328.125113 99.108598 
z
" style="fill:#008000;stroke:#000000;stroke-linecap:round;stroke-width:0.3;"/>
   </g>
   <g id="text_16">
    <!-- Local Max -->
    <g style="fill:#262626;" transform="translate(322.125113 87.008906)scale(0.1 -0.1)">
     <defs>
      <path d="M 7.328125 0 
L 7.328125 71.578125 
L 16.796875 71.578125 
L 16.796875 8.453125 
L 52.046875 8.453125 
L 52.046875 0 
z
" id="ArialMT-76"/>
      <path d="M 3.328125 25.921875 
Q 3.328125 40.328125 11.328125 47.265625 
Q 18.015625 53.03125 27.640625 53.03125 
Q 38.328125 53.03125 45.109375 46.015625 
Q 51.90625 39.015625 51.90625 26.65625 
Q 51.90625 16.65625 48.90625 10.90625 
Q 45.90625 5.171875 40.15625 2 
Q 34.421875 -1.171875 27.640625 -1.171875 
Q 16.75 -1.171875 10.03125 5.8125 
Q 3.328125 12.796875 3.328125 25.921875 
z
M 12.359375 25.921875 
Q 12.359375 15.96875 16.703125 11.015625 
Q 21.046875 6.0625 27.640625 6.0625 
Q 34.1875 6.0625 38.53125 11.03125 
Q 42.875 16.015625 42.875 26.21875 
Q 42.875 35.84375 38.5 40.796875 
Q 34.125 45.75 27.640625 45.75 
Q 21.046875 45.75 16.703125 40.8125 
Q 12.359375 35.890625 12.359375 25.921875 
z
" id="ArialMT-111"/>
      <path d="M 40.4375 19 
L 49.078125 17.875 
Q 47.65625 8.9375 41.8125 3.875 
Q 35.984375 -1.171875 27.484375 -1.171875 
Q 16.84375 -1.171875 10.375 5.78125 
Q 3.90625 12.75 3.90625 25.734375 
Q 3.90625 34.125 6.6875 40.421875 
Q 9.46875 46.734375 15.15625 49.875 
Q 20.84375 53.03125 27.546875 53.03125 
Q 35.984375 53.03125 41.359375 48.75 
Q 46.734375 44.484375 48.25 36.625 
L 39.703125 35.296875 
Q 38.484375 40.53125 35.375 43.15625 
Q 32.28125 45.796875 27.875 45.796875 
Q 21.234375 45.796875 17.078125 41.03125 
Q 12.9375 36.28125 12.9375 25.984375 
Q 12.9375 15.53125 16.9375 10.796875 
Q 20.953125 6.0625 27.390625 6.0625 
Q 32.5625 6.0625 36.03125 9.234375 
Q 39.5 12.40625 40.4375 19 
z
" id="ArialMT-99"/>
      <path d="M 40.4375 6.390625 
Q 35.546875 2.25 31.03125 0.53125 
Q 26.515625 -1.171875 21.34375 -1.171875 
Q 12.796875 -1.171875 8.203125 3 
Q 3.609375 7.171875 3.609375 13.671875 
Q 3.609375 17.484375 5.34375 20.625 
Q 7.078125 23.78125 9.890625 25.6875 
Q 12.703125 27.59375 16.21875 28.5625 
Q 18.796875 29.25 24.03125 29.890625 
Q 34.671875 31.15625 39.703125 32.90625 
Q 39.75 34.71875 39.75 35.203125 
Q 39.75 40.578125 37.25 42.78125 
Q 33.890625 45.75 27.25 45.75 
Q 21.046875 45.75 18.09375 43.578125 
Q 15.140625 41.40625 13.71875 35.890625 
L 5.125 37.0625 
Q 6.296875 42.578125 8.984375 45.96875 
Q 11.671875 49.359375 16.75 51.1875 
Q 21.828125 53.03125 28.515625 53.03125 
Q 35.15625 53.03125 39.296875 51.46875 
Q 43.453125 49.90625 45.40625 47.53125 
Q 47.359375 45.171875 48.140625 41.546875 
Q 48.578125 39.3125 48.578125 33.453125 
L 48.578125 21.734375 
Q 48.578125 9.46875 49.140625 6.21875 
Q 49.703125 2.984375 51.375 0 
L 42.1875 0 
Q 40.828125 2.734375 40.4375 6.390625 
z
M 39.703125 26.03125 
Q 34.90625 24.078125 25.34375 22.703125 
Q 19.921875 21.921875 17.671875 20.9375 
Q 15.4375 19.96875 14.203125 18.09375 
Q 12.984375 16.21875 12.984375 13.921875 
Q 12.984375 10.40625 15.640625 8.0625 
Q 18.3125 5.71875 23.4375 5.71875 
Q 28.515625 5.71875 32.46875 7.9375 
Q 36.421875 10.15625 38.28125 14.015625 
Q 39.703125 17 39.703125 22.796875 
z
" id="ArialMT-97"/>
      <path d="M 6.390625 0 
L 6.390625 71.578125 
L 15.1875 71.578125 
L 15.1875 0 
z
" id="ArialMT-108"/>
      <path id="ArialMT-32"/>
      <path d="M 7.421875 0 
L 7.421875 71.578125 
L 21.6875 71.578125 
L 38.625 20.90625 
Q 40.96875 13.8125 42.046875 10.296875 
Q 43.265625 14.203125 45.84375 21.78125 
L 62.984375 71.578125 
L 75.734375 71.578125 
L 75.734375 0 
L 66.609375 0 
L 66.609375 59.90625 
L 45.796875 0 
L 37.25 0 
L 16.546875 60.9375 
L 16.546875 0 
z
" id="ArialMT-77"/>
      <path d="M 0.734375 0 
L 19.671875 26.953125 
L 2.15625 51.859375 
L 13.140625 51.859375 
L 21.09375 39.703125 
Q 23.34375 36.234375 24.703125 33.890625 
Q 26.859375 37.109375 28.65625 39.59375 
L 37.40625 51.859375 
L 47.90625 51.859375 
L 29.984375 27.4375 
L 49.265625 0 
L 38.484375 0 
L 27.828125 16.109375 
L 25 20.453125 
L 11.375 0 
z
" id="ArialMT-120"/>
     </defs>
     <use xlink:href="#ArialMT-76"/>
     <use x="55.615234" xlink:href="#ArialMT-111"/>
     <use x="111.230469" xlink:href="#ArialMT-99"/>
     <use x="161.230469" xlink:href="#ArialMT-97"/>
     <use x="216.845703" xlink:href="#ArialMT-108"/>
     <use x="239.0625" xlink:href="#ArialMT-32"/>
     <use x="266.845703" xlink:href="#ArialMT-77"/>
     <use x="350.146484" xlink:href="#ArialMT-97"/>
     <use x="405.761719" xlink:href="#ArialMT-120"/>
    </g>
   </g>
  </g>
 </g>
 <defs>
  <clipPath id="p66d2f5ae49">
   <rect height="304.92" width="446.4" x="33.940625" y="10.778906"/>
  </clipPath>
 </defs>
</svg>
