<?xml version="1.0" encoding="utf-8" standalone="no"?>
<!DOCTYPE svg PUBLIC "-//W3C//DTD SVG 1.1//EN"
  "http://www.w3.org/Graphics/SVG/1.1/DTD/svg11.dtd">
<!-- Created with matplotlib (https://matplotlib.org/) -->
<svg height="325.986375pt" version="1.1" viewBox="0 0 411.285625 325.986375" width="411.285625pt" xmlns="http://www.w3.org/2000/svg" xmlns:xlink="http://www.w3.org/1999/xlink">
 <metadata>
  <rdf:RDF xmlns:cc="http://creativecommons.org/ns#" xmlns:dc="http://purl.org/dc/elements/1.1/" xmlns:rdf="http://www.w3.org/1999/02/22-rdf-syntax-ns#">
   <cc:Work>
    <dc:type rdf:resource="http://purl.org/dc/dcmitype/StillImage"/>
    <dc:date>2022-02-02T00:27:17.514513</dc:date>
    <dc:format>image/svg+xml</dc:format>
    <dc:creator>
     <cc:Agent>
      <dc:title>Matplotlib v3.3.4, https://matplotlib.org/</dc:title>
     </cc:Agent>
    </dc:creator>
   </cc:Work>
  </rdf:RDF>
 </metadata>
 <defs>
  <style type="text/css">*{stroke-linecap:butt;stroke-linejoin:round;}</style>
 </defs>
 <g id="figure_1">
  <g id="patch_1">
   <path d="M 0 325.986375 
L 411.285625 325.986375 
L 411.285625 0 
L 0 0 
z
" style="fill:#ffffff;"/>
  </g>
  <g id="axes_1">
   <g id="patch_2">
    <path d="M 46.965625 288.430125 
L 404.085625 288.430125 
L 404.085625 22.318125 
L 46.965625 22.318125 
z
" style="fill:#ffffff;"/>
   </g>
   <g id="PathCollection_1">
    <defs>
     <path d="M 0 3 
C 0.795609 3 1.55874 2.683901 2.12132 2.12132 
C 2.683901 1.55874 3 0.795609 3 0 
C 3 -0.795609 2.683901 -1.55874 2.12132 -2.12132 
C 1.55874 -2.683901 0.795609 -3 0 -3 
C -0.795609 -3 -1.55874 -2.683901 -2.12132 -2.12132 
C -2.683901 -1.55874 -3 -0.795609 -3 0 
C -3 0.795609 -2.683901 1.55874 -2.12132 2.12132 
C -1.55874 2.683901 -0.795609 3 0 3 
z
" id="mc14dc222f9" style="stroke:#1f77b4;"/>
    </defs>
    <g clip-path="url(#p2a2441baeb)">
     <use style="fill:#1f77b4;stroke:#1f77b4;" x="350.303027" xlink:href="#mc14dc222f9" y="34.414125"/>
     <use style="fill:#1f77b4;stroke:#1f77b4;" x="210.346876" xlink:href="#mc14dc222f9" y="242.058019"/>
     <use style="fill:#1f77b4;stroke:#1f77b4;" x="357.572527" xlink:href="#mc14dc222f9" y="110.477792"/>
     <use style="fill:#1f77b4;stroke:#1f77b4;" x="291.833923" xlink:href="#mc14dc222f9" y="91.426814"/>
     <use style="fill:#1f77b4;stroke:#1f77b4;" x="240.738424" xlink:href="#mc14dc222f9" y="127.152987"/>
     <use style="fill:#1f77b4;stroke:#1f77b4;" x="168.101554" xlink:href="#mc14dc222f9" y="268.406001"/>
     <use style="fill:#1f77b4;stroke:#1f77b4;" x="210.434667" xlink:href="#mc14dc222f9" y="185.655027"/>
     <use style="fill:#1f77b4;stroke:#1f77b4;" x="198.371745" xlink:href="#mc14dc222f9" y="227.288589"/>
     <use style="fill:#1f77b4;stroke:#1f77b4;" x="161.633982" xlink:href="#mc14dc222f9" y="206.524145"/>
     <use style="fill:#1f77b4;stroke:#1f77b4;" x="63.198352" xlink:href="#mc14dc222f9" y="257.480149"/>
     <use style="fill:#1f77b4;stroke:#1f77b4;" x="277.034653" xlink:href="#mc14dc222f9" y="178.670247"/>
     <use style="fill:#1f77b4;stroke:#1f77b4;" x="289.342309" xlink:href="#mc14dc222f9" y="107.867827"/>
     <use style="fill:#1f77b4;stroke:#1f77b4;" x="99.390928" xlink:href="#mc14dc222f9" y="229.489793"/>
     <use style="fill:#1f77b4;stroke:#1f77b4;" x="224.194795" xlink:href="#mc14dc222f9" y="171.256996"/>
     <use style="fill:#1f77b4;stroke:#1f77b4;" x="223.107834" xlink:href="#mc14dc222f9" y="179.115778"/>
     <use style="fill:#1f77b4;stroke:#1f77b4;" x="178.949751" xlink:href="#mc14dc222f9" y="216.288901"/>
     <use style="fill:#1f77b4;stroke:#1f77b4;" x="310.826039" xlink:href="#mc14dc222f9" y="154.08275"/>
     <use style="fill:#1f77b4;stroke:#1f77b4;" x="77.506767" xlink:href="#mc14dc222f9" y="214.471526"/>
     <use style="fill:#1f77b4;stroke:#1f77b4;" x="234.058922" xlink:href="#mc14dc222f9" y="180.290443"/>
     <use style="fill:#1f77b4;stroke:#1f77b4;" x="186.973499" xlink:href="#mc14dc222f9" y="189.571983"/>
     <use style="fill:#1f77b4;stroke:#1f77b4;" x="186.394493" xlink:href="#mc14dc222f9" y="211.255861"/>
     <use style="fill:#1f77b4;stroke:#1f77b4;" x="228.51551" xlink:href="#mc14dc222f9" y="149.639595"/>
     <use style="fill:#1f77b4;stroke:#1f77b4;" x="137.599703" xlink:href="#mc14dc222f9" y="276.334125"/>
     <use style="fill:#1f77b4;stroke:#1f77b4;" x="387.852898" xlink:href="#mc14dc222f9" y="68.676862"/>
     <use style="fill:#1f77b4;stroke:#1f77b4;" x="185.79064" xlink:href="#mc14dc222f9" y="242.850732"/>
     <use style="fill:#1f77b4;stroke:#1f77b4;" x="192.721602" xlink:href="#mc14dc222f9" y="163.696225"/>
     <use style="fill:#1f77b4;stroke:#1f77b4;" x="218.849814" xlink:href="#mc14dc222f9" y="184.331444"/>
     <use style="fill:#1f77b4;stroke:#1f77b4;" x="321.395791" xlink:href="#mc14dc222f9" y="125.904801"/>
     <use style="fill:#1f77b4;stroke:#1f77b4;" x="172.74989" xlink:href="#mc14dc222f9" y="208.391036"/>
     <use style="fill:#1f77b4;stroke:#1f77b4;" x="202.458425" xlink:href="#mc14dc222f9" y="262.84726"/>
     <use style="fill:#1f77b4;stroke:#1f77b4;" x="205.821033" xlink:href="#mc14dc222f9" y="176.317012"/>
     <use style="fill:#1f77b4;stroke:#1f77b4;" x="355.464313" xlink:href="#mc14dc222f9" y="110.035882"/>
     <use style="fill:#1f77b4;stroke:#1f77b4;" x="286.231315" xlink:href="#mc14dc222f9" y="156.682146"/>
     <use style="fill:#1f77b4;stroke:#1f77b4;" x="221.351275" xlink:href="#mc14dc222f9" y="130.195719"/>
     <use style="fill:#1f77b4;stroke:#1f77b4;" x="232.32208" xlink:href="#mc14dc222f9" y="132.855732"/>
     <use style="fill:#1f77b4;stroke:#1f77b4;" x="255.082796" xlink:href="#mc14dc222f9" y="162.236308"/>
     <use style="fill:#1f77b4;stroke:#1f77b4;" x="218.477888" xlink:href="#mc14dc222f9" y="150.274085"/>
     <use style="fill:#1f77b4;stroke:#1f77b4;" x="166.457695" xlink:href="#mc14dc222f9" y="185.960076"/>
     <use style="fill:#1f77b4;stroke:#1f77b4;" x="128.154841" xlink:href="#mc14dc222f9" y="238.036406"/>
     <use style="fill:#1f77b4;stroke:#1f77b4;" x="86.62132" xlink:href="#mc14dc222f9" y="239.977109"/>
     <use style="fill:#1f77b4;stroke:#1f77b4;" x="188.032649" xlink:href="#mc14dc222f9" y="216.422835"/>
     <use style="fill:#1f77b4;stroke:#1f77b4;" x="304.50147" xlink:href="#mc14dc222f9" y="159.256951"/>
     <use style="fill:#1f77b4;stroke:#1f77b4;" x="113.317606" xlink:href="#mc14dc222f9" y="225.601422"/>
     <use style="fill:#1f77b4;stroke:#1f77b4;" x="135.970706" xlink:href="#mc14dc222f9" y="244.972539"/>
     <use style="fill:#1f77b4;stroke:#1f77b4;" x="175.211273" xlink:href="#mc14dc222f9" y="235.927036"/>
     <use style="fill:#1f77b4;stroke:#1f77b4;" x="246.899961" xlink:href="#mc14dc222f9" y="172.623871"/>
     <use style="fill:#1f77b4;stroke:#1f77b4;" x="195.700367" xlink:href="#mc14dc222f9" y="177.481451"/>
     <use style="fill:#1f77b4;stroke:#1f77b4;" x="304.03956" xlink:href="#mc14dc222f9" y="120.053337"/>
     <use style="fill:#1f77b4;stroke:#1f77b4;" x="221.34289" xlink:href="#mc14dc222f9" y="164.556307"/>
     <use style="fill:#1f77b4;stroke:#1f77b4;" x="323.316633" xlink:href="#mc14dc222f9" y="114.126314"/>
     <use style="fill:#1f77b4;stroke:#1f77b4;" x="99.840045" xlink:href="#mc14dc222f9" y="233.444828"/>
     <use style="fill:#1f77b4;stroke:#1f77b4;" x="249.07631" xlink:href="#mc14dc222f9" y="140.923753"/>
     <use style="fill:#1f77b4;stroke:#1f77b4;" x="202.321232" xlink:href="#mc14dc222f9" y="213.061308"/>
     <use style="fill:#1f77b4;stroke:#1f77b4;" x="170.251696" xlink:href="#mc14dc222f9" y="192.230621"/>
     <use style="fill:#1f77b4;stroke:#1f77b4;" x="160.860149" xlink:href="#mc14dc222f9" y="222.67928"/>
     <use style="fill:#1f77b4;stroke:#1f77b4;" x="147.282241" xlink:href="#mc14dc222f9" y="239.451337"/>
     <use style="fill:#1f77b4;stroke:#1f77b4;" x="198.497223" xlink:href="#mc14dc222f9" y="170.568107"/>
     <use style="fill:#1f77b4;stroke:#1f77b4;" x="265.403957" xlink:href="#mc14dc222f9" y="164.267966"/>
     <use style="fill:#1f77b4;stroke:#1f77b4;" x="277.602241" xlink:href="#mc14dc222f9" y="148.421013"/>
     <use style="fill:#1f77b4;stroke:#1f77b4;" x="244.373873" xlink:href="#mc14dc222f9" y="118.864515"/>
     <use style="fill:#1f77b4;stroke:#1f77b4;" x="282.776456" xlink:href="#mc14dc222f9" y="146.956425"/>
     <use style="fill:#1f77b4;stroke:#1f77b4;" x="231.625845" xlink:href="#mc14dc222f9" y="148.731346"/>
     <use style="fill:#1f77b4;stroke:#1f77b4;" x="349.516017" xlink:href="#mc14dc222f9" y="156.008023"/>
     <use style="fill:#1f77b4;stroke:#1f77b4;" x="161.024243" xlink:href="#mc14dc222f9" y="235.18858"/>
     <use style="fill:#1f77b4;stroke:#1f77b4;" x="283.198765" xlink:href="#mc14dc222f9" y="196.25856"/>
     <use style="fill:#1f77b4;stroke:#1f77b4;" x="113.565036" xlink:href="#mc14dc222f9" y="260.478725"/>
     <use style="fill:#1f77b4;stroke:#1f77b4;" x="196.318068" xlink:href="#mc14dc222f9" y="184.11171"/>
     <use style="fill:#1f77b4;stroke:#1f77b4;" x="320.415607" xlink:href="#mc14dc222f9" y="89.768516"/>
     <use style="fill:#1f77b4;stroke:#1f77b4;" x="191.487777" xlink:href="#mc14dc222f9" y="187.26026"/>
     <use style="fill:#1f77b4;stroke:#1f77b4;" x="213.519017" xlink:href="#mc14dc222f9" y="152.979587"/>
     <use style="fill:#1f77b4;stroke:#1f77b4;" x="224.372737" xlink:href="#mc14dc222f9" y="183.912849"/>
     <use style="fill:#1f77b4;stroke:#1f77b4;" x="258.461995" xlink:href="#mc14dc222f9" y="124.066269"/>
     <use style="fill:#1f77b4;stroke:#1f77b4;" x="234.712828" xlink:href="#mc14dc222f9" y="203.206647"/>
     <use style="fill:#1f77b4;stroke:#1f77b4;" x="177.558486" xlink:href="#mc14dc222f9" y="239.977148"/>
     <use style="fill:#1f77b4;stroke:#1f77b4;" x="313.307442" xlink:href="#mc14dc222f9" y="101.404815"/>
     <use style="fill:#1f77b4;stroke:#1f77b4;" x="278.626314" xlink:href="#mc14dc222f9" y="131.573681"/>
     <use style="fill:#1f77b4;stroke:#1f77b4;" x="293.994933" xlink:href="#mc14dc222f9" y="141.318639"/>
     <use style="fill:#1f77b4;stroke:#1f77b4;" x="306.04163" xlink:href="#mc14dc222f9" y="89.184776"/>
     <use style="fill:#1f77b4;stroke:#1f77b4;" x="147.643598" xlink:href="#mc14dc222f9" y="152.983376"/>
     <use style="fill:#1f77b4;stroke:#1f77b4;" x="134.281229" xlink:href="#mc14dc222f9" y="225.541245"/>
     <use style="fill:#1f77b4;stroke:#1f77b4;" x="177.057947" xlink:href="#mc14dc222f9" y="192.165304"/>
     <use style="fill:#1f77b4;stroke:#1f77b4;" x="195.55481" xlink:href="#mc14dc222f9" y="147.22026"/>
     <use style="fill:#1f77b4;stroke:#1f77b4;" x="349.725807" xlink:href="#mc14dc222f9" y="44.790248"/>
     <use style="fill:#1f77b4;stroke:#1f77b4;" x="238.546384" xlink:href="#mc14dc222f9" y="214.05984"/>
     <use style="fill:#1f77b4;stroke:#1f77b4;" x="132.362057" xlink:href="#mc14dc222f9" y="246.301941"/>
     <use style="fill:#1f77b4;stroke:#1f77b4;" x="273.819334" xlink:href="#mc14dc222f9" y="173.45719"/>
     <use style="fill:#1f77b4;stroke:#1f77b4;" x="149.952723" xlink:href="#mc14dc222f9" y="121.94541"/>
     <use style="fill:#1f77b4;stroke:#1f77b4;" x="215.034019" xlink:href="#mc14dc222f9" y="160.849277"/>
     <use style="fill:#1f77b4;stroke:#1f77b4;" x="195.496595" xlink:href="#mc14dc222f9" y="211.27213"/>
     <use style="fill:#1f77b4;stroke:#1f77b4;" x="308.021687" xlink:href="#mc14dc222f9" y="150.586278"/>
     <use style="fill:#1f77b4;stroke:#1f77b4;" x="294.167175" xlink:href="#mc14dc222f9" y="139.491987"/>
     <use style="fill:#1f77b4;stroke:#1f77b4;" x="112.397591" xlink:href="#mc14dc222f9" y="193.263075"/>
     <use style="fill:#1f77b4;stroke:#1f77b4;" x="261.703312" xlink:href="#mc14dc222f9" y="190.365586"/>
     <use style="fill:#1f77b4;stroke:#1f77b4;" x="98.440311" xlink:href="#mc14dc222f9" y="202.297791"/>
     <use style="fill:#1f77b4;stroke:#1f77b4;" x="163.971641" xlink:href="#mc14dc222f9" y="235.106972"/>
     <use style="fill:#1f77b4;stroke:#1f77b4;" x="109.093853" xlink:href="#mc14dc222f9" y="233.169599"/>
     <use style="fill:#1f77b4;stroke:#1f77b4;" x="291.012044" xlink:href="#mc14dc222f9" y="161.738878"/>
     <use style="fill:#1f77b4;stroke:#1f77b4;" x="156.492568" xlink:href="#mc14dc222f9" y="194.1191"/>
     <use style="fill:#1f77b4;stroke:#1f77b4;" x="146.500973" xlink:href="#mc14dc222f9" y="214.757872"/>
     <use style="fill:#1f77b4;stroke:#1f77b4;" x="227.744217" xlink:href="#mc14dc222f9" y="202.502993"/>
    </g>
   </g>
   <g id="matplotlib.axis_1">
    <g id="xtick_1">
     <g id="line2d_1">
      <defs>
       <path d="M 0 0 
L 0 3.5 
" id="m7c5688ff28" style="stroke:#000000;stroke-width:0.8;"/>
      </defs>
      <g>
       <use style="stroke:#000000;stroke-width:0.8;" x="78.216183" xlink:href="#m7c5688ff28" y="288.430125"/>
      </g>
     </g>
     <g id="text_1">
      <!-- 64 -->
      <g transform="translate(71.853683 303.028562)scale(0.1 -0.1)">
       <defs>
        <path d="M 33.015625 40.375 
Q 26.375 40.375 22.484375 35.828125 
Q 18.609375 31.296875 18.609375 23.390625 
Q 18.609375 15.53125 22.484375 10.953125 
Q 26.375 6.390625 33.015625 6.390625 
Q 39.65625 6.390625 43.53125 10.953125 
Q 47.40625 15.53125 47.40625 23.390625 
Q 47.40625 31.296875 43.53125 35.828125 
Q 39.65625 40.375 33.015625 40.375 
z
M 52.59375 71.296875 
L 52.59375 62.3125 
Q 48.875 64.0625 45.09375 64.984375 
Q 41.3125 65.921875 37.59375 65.921875 
Q 27.828125 65.921875 22.671875 59.328125 
Q 17.53125 52.734375 16.796875 39.40625 
Q 19.671875 43.65625 24.015625 45.921875 
Q 28.375 48.1875 33.59375 48.1875 
Q 44.578125 48.1875 50.953125 41.515625 
Q 57.328125 34.859375 57.328125 23.390625 
Q 57.328125 12.15625 50.6875 5.359375 
Q 44.046875 -1.421875 33.015625 -1.421875 
Q 20.359375 -1.421875 13.671875 8.265625 
Q 6.984375 17.96875 6.984375 36.375 
Q 6.984375 53.65625 15.1875 63.9375 
Q 23.390625 74.21875 37.203125 74.21875 
Q 40.921875 74.21875 44.703125 73.484375 
Q 48.484375 72.75 52.59375 71.296875 
z
" id="DejaVuSans-54"/>
        <path d="M 37.796875 64.3125 
L 12.890625 25.390625 
L 37.796875 25.390625 
z
M 35.203125 72.90625 
L 47.609375 72.90625 
L 47.609375 25.390625 
L 58.015625 25.390625 
L 58.015625 17.1875 
L 47.609375 17.1875 
L 47.609375 0 
L 37.796875 0 
L 37.796875 17.1875 
L 4.890625 17.1875 
L 4.890625 26.703125 
z
" id="DejaVuSans-52"/>
       </defs>
       <use xlink:href="#DejaVuSans-54"/>
       <use x="63.623047" xlink:href="#DejaVuSans-52"/>
      </g>
     </g>
    </g>
    <g id="xtick_2">
     <g id="line2d_2">
      <g>
       <use style="stroke:#000000;stroke-width:0.8;" x="133.478979" xlink:href="#m7c5688ff28" y="288.430125"/>
      </g>
     </g>
     <g id="text_2">
      <!-- 66 -->
      <g transform="translate(127.116479 303.028562)scale(0.1 -0.1)">
       <use xlink:href="#DejaVuSans-54"/>
       <use x="63.623047" xlink:href="#DejaVuSans-54"/>
      </g>
     </g>
    </g>
    <g id="xtick_3">
     <g id="line2d_3">
      <g>
       <use style="stroke:#000000;stroke-width:0.8;" x="188.741774" xlink:href="#m7c5688ff28" y="288.430125"/>
      </g>
     </g>
     <g id="text_3">
      <!-- 68 -->
      <g transform="translate(182.379274 303.028562)scale(0.1 -0.1)">
       <defs>
        <path d="M 31.78125 34.625 
Q 24.75 34.625 20.71875 30.859375 
Q 16.703125 27.09375 16.703125 20.515625 
Q 16.703125 13.921875 20.71875 10.15625 
Q 24.75 6.390625 31.78125 6.390625 
Q 38.8125 6.390625 42.859375 10.171875 
Q 46.921875 13.96875 46.921875 20.515625 
Q 46.921875 27.09375 42.890625 30.859375 
Q 38.875 34.625 31.78125 34.625 
z
M 21.921875 38.8125 
Q 15.578125 40.375 12.03125 44.71875 
Q 8.5 49.078125 8.5 55.328125 
Q 8.5 64.0625 14.71875 69.140625 
Q 20.953125 74.21875 31.78125 74.21875 
Q 42.671875 74.21875 48.875 69.140625 
Q 55.078125 64.0625 55.078125 55.328125 
Q 55.078125 49.078125 51.53125 44.71875 
Q 48 40.375 41.703125 38.8125 
Q 48.828125 37.15625 52.796875 32.3125 
Q 56.78125 27.484375 56.78125 20.515625 
Q 56.78125 9.90625 50.3125 4.234375 
Q 43.84375 -1.421875 31.78125 -1.421875 
Q 19.734375 -1.421875 13.25 4.234375 
Q 6.78125 9.90625 6.78125 20.515625 
Q 6.78125 27.484375 10.78125 32.3125 
Q 14.796875 37.15625 21.921875 38.8125 
z
M 18.3125 54.390625 
Q 18.3125 48.734375 21.84375 45.5625 
Q 25.390625 42.390625 31.78125 42.390625 
Q 38.140625 42.390625 41.71875 45.5625 
Q 45.3125 48.734375 45.3125 54.390625 
Q 45.3125 60.0625 41.71875 63.234375 
Q 38.140625 66.40625 31.78125 66.40625 
Q 25.390625 66.40625 21.84375 63.234375 
Q 18.3125 60.0625 18.3125 54.390625 
z
" id="DejaVuSans-56"/>
       </defs>
       <use xlink:href="#DejaVuSans-54"/>
       <use x="63.623047" xlink:href="#DejaVuSans-56"/>
      </g>
     </g>
    </g>
    <g id="xtick_4">
     <g id="line2d_4">
      <g>
       <use style="stroke:#000000;stroke-width:0.8;" x="244.00457" xlink:href="#m7c5688ff28" y="288.430125"/>
      </g>
     </g>
     <g id="text_4">
      <!-- 70 -->
      <g transform="translate(237.64207 303.028562)scale(0.1 -0.1)">
       <defs>
        <path d="M 8.203125 72.90625 
L 55.078125 72.90625 
L 55.078125 68.703125 
L 28.609375 0 
L 18.3125 0 
L 43.21875 64.59375 
L 8.203125 64.59375 
z
" id="DejaVuSans-55"/>
        <path d="M 31.78125 66.40625 
Q 24.171875 66.40625 20.328125 58.90625 
Q 16.5 51.421875 16.5 36.375 
Q 16.5 21.390625 20.328125 13.890625 
Q 24.171875 6.390625 31.78125 6.390625 
Q 39.453125 6.390625 43.28125 13.890625 
Q 47.125 21.390625 47.125 36.375 
Q 47.125 51.421875 43.28125 58.90625 
Q 39.453125 66.40625 31.78125 66.40625 
z
M 31.78125 74.21875 
Q 44.046875 74.21875 50.515625 64.515625 
Q 56.984375 54.828125 56.984375 36.375 
Q 56.984375 17.96875 50.515625 8.265625 
Q 44.046875 -1.421875 31.78125 -1.421875 
Q 19.53125 -1.421875 13.0625 8.265625 
Q 6.59375 17.96875 6.59375 36.375 
Q 6.59375 54.828125 13.0625 64.515625 
Q 19.53125 74.21875 31.78125 74.21875 
z
" id="DejaVuSans-48"/>
       </defs>
       <use xlink:href="#DejaVuSans-55"/>
       <use x="63.623047" xlink:href="#DejaVuSans-48"/>
      </g>
     </g>
    </g>
    <g id="xtick_5">
     <g id="line2d_5">
      <g>
       <use style="stroke:#000000;stroke-width:0.8;" x="299.267366" xlink:href="#m7c5688ff28" y="288.430125"/>
      </g>
     </g>
     <g id="text_5">
      <!-- 72 -->
      <g transform="translate(292.904866 303.028562)scale(0.1 -0.1)">
       <defs>
        <path d="M 19.1875 8.296875 
L 53.609375 8.296875 
L 53.609375 0 
L 7.328125 0 
L 7.328125 8.296875 
Q 12.9375 14.109375 22.625 23.890625 
Q 32.328125 33.6875 34.8125 36.53125 
Q 39.546875 41.84375 41.421875 45.53125 
Q 43.3125 49.21875 43.3125 52.78125 
Q 43.3125 58.59375 39.234375 62.25 
Q 35.15625 65.921875 28.609375 65.921875 
Q 23.96875 65.921875 18.8125 64.3125 
Q 13.671875 62.703125 7.8125 59.421875 
L 7.8125 69.390625 
Q 13.765625 71.78125 18.9375 73 
Q 24.125 74.21875 28.421875 74.21875 
Q 39.75 74.21875 46.484375 68.546875 
Q 53.21875 62.890625 53.21875 53.421875 
Q 53.21875 48.921875 51.53125 44.890625 
Q 49.859375 40.875 45.40625 35.40625 
Q 44.1875 33.984375 37.640625 27.21875 
Q 31.109375 20.453125 19.1875 8.296875 
z
" id="DejaVuSans-50"/>
       </defs>
       <use xlink:href="#DejaVuSans-55"/>
       <use x="63.623047" xlink:href="#DejaVuSans-50"/>
      </g>
     </g>
    </g>
    <g id="xtick_6">
     <g id="line2d_6">
      <g>
       <use style="stroke:#000000;stroke-width:0.8;" x="354.530161" xlink:href="#m7c5688ff28" y="288.430125"/>
      </g>
     </g>
     <g id="text_6">
      <!-- 74 -->
      <g transform="translate(348.167661 303.028562)scale(0.1 -0.1)">
       <use xlink:href="#DejaVuSans-55"/>
       <use x="63.623047" xlink:href="#DejaVuSans-52"/>
      </g>
     </g>
    </g>
    <g id="text_7">
     <!-- Height -->
     <g transform="translate(208.996719 316.706687)scale(0.1 -0.1)">
      <defs>
       <path d="M 9.8125 72.90625 
L 19.671875 72.90625 
L 19.671875 43.015625 
L 55.515625 43.015625 
L 55.515625 72.90625 
L 65.375 72.90625 
L 65.375 0 
L 55.515625 0 
L 55.515625 34.71875 
L 19.671875 34.71875 
L 19.671875 0 
L 9.8125 0 
z
" id="DejaVuSans-72"/>
       <path d="M 56.203125 29.59375 
L 56.203125 25.203125 
L 14.890625 25.203125 
Q 15.484375 15.921875 20.484375 11.0625 
Q 25.484375 6.203125 34.421875 6.203125 
Q 39.59375 6.203125 44.453125 7.46875 
Q 49.3125 8.734375 54.109375 11.28125 
L 54.109375 2.78125 
Q 49.265625 0.734375 44.1875 -0.34375 
Q 39.109375 -1.421875 33.890625 -1.421875 
Q 20.796875 -1.421875 13.15625 6.1875 
Q 5.515625 13.8125 5.515625 26.8125 
Q 5.515625 40.234375 12.765625 48.109375 
Q 20.015625 56 32.328125 56 
Q 43.359375 56 49.78125 48.890625 
Q 56.203125 41.796875 56.203125 29.59375 
z
M 47.21875 32.234375 
Q 47.125 39.59375 43.09375 43.984375 
Q 39.0625 48.390625 32.421875 48.390625 
Q 24.90625 48.390625 20.390625 44.140625 
Q 15.875 39.890625 15.1875 32.171875 
z
" id="DejaVuSans-101"/>
       <path d="M 9.421875 54.6875 
L 18.40625 54.6875 
L 18.40625 0 
L 9.421875 0 
z
M 9.421875 75.984375 
L 18.40625 75.984375 
L 18.40625 64.59375 
L 9.421875 64.59375 
z
" id="DejaVuSans-105"/>
       <path d="M 45.40625 27.984375 
Q 45.40625 37.75 41.375 43.109375 
Q 37.359375 48.484375 30.078125 48.484375 
Q 22.859375 48.484375 18.828125 43.109375 
Q 14.796875 37.75 14.796875 27.984375 
Q 14.796875 18.265625 18.828125 12.890625 
Q 22.859375 7.515625 30.078125 7.515625 
Q 37.359375 7.515625 41.375 12.890625 
Q 45.40625 18.265625 45.40625 27.984375 
z
M 54.390625 6.78125 
Q 54.390625 -7.171875 48.1875 -13.984375 
Q 42 -20.796875 29.203125 -20.796875 
Q 24.46875 -20.796875 20.265625 -20.09375 
Q 16.0625 -19.390625 12.109375 -17.921875 
L 12.109375 -9.1875 
Q 16.0625 -11.328125 19.921875 -12.34375 
Q 23.78125 -13.375 27.78125 -13.375 
Q 36.625 -13.375 41.015625 -8.765625 
Q 45.40625 -4.15625 45.40625 5.171875 
L 45.40625 9.625 
Q 42.625 4.78125 38.28125 2.390625 
Q 33.9375 0 27.875 0 
Q 17.828125 0 11.671875 7.65625 
Q 5.515625 15.328125 5.515625 27.984375 
Q 5.515625 40.671875 11.671875 48.328125 
Q 17.828125 56 27.875 56 
Q 33.9375 56 38.28125 53.609375 
Q 42.625 51.21875 45.40625 46.390625 
L 45.40625 54.6875 
L 54.390625 54.6875 
z
" id="DejaVuSans-103"/>
       <path d="M 54.890625 33.015625 
L 54.890625 0 
L 45.90625 0 
L 45.90625 32.71875 
Q 45.90625 40.484375 42.875 44.328125 
Q 39.84375 48.1875 33.796875 48.1875 
Q 26.515625 48.1875 22.3125 43.546875 
Q 18.109375 38.921875 18.109375 30.90625 
L 18.109375 0 
L 9.078125 0 
L 9.078125 75.984375 
L 18.109375 75.984375 
L 18.109375 46.1875 
Q 21.34375 51.125 25.703125 53.5625 
Q 30.078125 56 35.796875 56 
Q 45.21875 56 50.046875 50.171875 
Q 54.890625 44.34375 54.890625 33.015625 
z
" id="DejaVuSans-104"/>
       <path d="M 18.3125 70.21875 
L 18.3125 54.6875 
L 36.8125 54.6875 
L 36.8125 47.703125 
L 18.3125 47.703125 
L 18.3125 18.015625 
Q 18.3125 11.328125 20.140625 9.421875 
Q 21.96875 7.515625 27.59375 7.515625 
L 36.8125 7.515625 
L 36.8125 0 
L 27.59375 0 
Q 17.1875 0 13.234375 3.875 
Q 9.28125 7.765625 9.28125 18.015625 
L 9.28125 47.703125 
L 2.6875 47.703125 
L 2.6875 54.6875 
L 9.28125 54.6875 
L 9.28125 70.21875 
z
" id="DejaVuSans-116"/>
      </defs>
      <use xlink:href="#DejaVuSans-72"/>
      <use x="75.195312" xlink:href="#DejaVuSans-101"/>
      <use x="136.71875" xlink:href="#DejaVuSans-105"/>
      <use x="164.501953" xlink:href="#DejaVuSans-103"/>
      <use x="227.978516" xlink:href="#DejaVuSans-104"/>
      <use x="291.357422" xlink:href="#DejaVuSans-116"/>
     </g>
    </g>
   </g>
   <g id="matplotlib.axis_2">
    <g id="ytick_1">
     <g id="line2d_7">
      <defs>
       <path d="M 0 0 
L -3.5 0 
" id="m4b02140e40" style="stroke:#000000;stroke-width:0.8;"/>
      </defs>
      <g>
       <use style="stroke:#000000;stroke-width:0.8;" x="46.965625" xlink:href="#m4b02140e40" y="248.086379"/>
      </g>
     </g>
     <g id="text_8">
      <!-- 160 -->
      <g transform="translate(20.878125 251.885598)scale(0.1 -0.1)">
       <defs>
        <path d="M 12.40625 8.296875 
L 28.515625 8.296875 
L 28.515625 63.921875 
L 10.984375 60.40625 
L 10.984375 69.390625 
L 28.421875 72.90625 
L 38.28125 72.90625 
L 38.28125 8.296875 
L 54.390625 8.296875 
L 54.390625 0 
L 12.40625 0 
z
" id="DejaVuSans-49"/>
       </defs>
       <use xlink:href="#DejaVuSans-49"/>
       <use x="63.623047" xlink:href="#DejaVuSans-54"/>
       <use x="127.246094" xlink:href="#DejaVuSans-48"/>
      </g>
     </g>
    </g>
    <g id="ytick_2">
     <g id="line2d_8">
      <g>
       <use style="stroke:#000000;stroke-width:0.8;" x="46.965625" xlink:href="#m4b02140e40" y="195.903461"/>
      </g>
     </g>
     <g id="text_9">
      <!-- 180 -->
      <g transform="translate(20.878125 199.70268)scale(0.1 -0.1)">
       <use xlink:href="#DejaVuSans-49"/>
       <use x="63.623047" xlink:href="#DejaVuSans-56"/>
       <use x="127.246094" xlink:href="#DejaVuSans-48"/>
      </g>
     </g>
    </g>
    <g id="ytick_3">
     <g id="line2d_9">
      <g>
       <use style="stroke:#000000;stroke-width:0.8;" x="46.965625" xlink:href="#m4b02140e40" y="143.720543"/>
      </g>
     </g>
     <g id="text_10">
      <!-- 200 -->
      <g transform="translate(20.878125 147.519762)scale(0.1 -0.1)">
       <use xlink:href="#DejaVuSans-50"/>
       <use x="63.623047" xlink:href="#DejaVuSans-48"/>
       <use x="127.246094" xlink:href="#DejaVuSans-48"/>
      </g>
     </g>
    </g>
    <g id="ytick_4">
     <g id="line2d_10">
      <g>
       <use style="stroke:#000000;stroke-width:0.8;" x="46.965625" xlink:href="#m4b02140e40" y="91.537625"/>
      </g>
     </g>
     <g id="text_11">
      <!-- 220 -->
      <g transform="translate(20.878125 95.336844)scale(0.1 -0.1)">
       <use xlink:href="#DejaVuSans-50"/>
       <use x="63.623047" xlink:href="#DejaVuSans-50"/>
       <use x="127.246094" xlink:href="#DejaVuSans-48"/>
      </g>
     </g>
    </g>
    <g id="ytick_5">
     <g id="line2d_11">
      <g>
       <use style="stroke:#000000;stroke-width:0.8;" x="46.965625" xlink:href="#m4b02140e40" y="39.354708"/>
      </g>
     </g>
     <g id="text_12">
      <!-- 240 -->
      <g transform="translate(20.878125 43.153926)scale(0.1 -0.1)">
       <use xlink:href="#DejaVuSans-50"/>
       <use x="63.623047" xlink:href="#DejaVuSans-52"/>
       <use x="127.246094" xlink:href="#DejaVuSans-48"/>
      </g>
     </g>
    </g>
    <g id="text_13">
     <!-- Weight -->
     <g transform="translate(14.798438 172.792875)rotate(-90)scale(0.1 -0.1)">
      <defs>
       <path d="M 3.328125 72.90625 
L 13.28125 72.90625 
L 28.609375 11.28125 
L 43.890625 72.90625 
L 54.984375 72.90625 
L 70.3125 11.28125 
L 85.59375 72.90625 
L 95.609375 72.90625 
L 77.296875 0 
L 64.890625 0 
L 49.515625 63.28125 
L 33.984375 0 
L 21.578125 0 
z
" id="DejaVuSans-87"/>
      </defs>
      <use xlink:href="#DejaVuSans-87"/>
      <use x="93.001953" xlink:href="#DejaVuSans-101"/>
      <use x="154.525391" xlink:href="#DejaVuSans-105"/>
      <use x="182.308594" xlink:href="#DejaVuSans-103"/>
      <use x="245.785156" xlink:href="#DejaVuSans-104"/>
      <use x="309.164062" xlink:href="#DejaVuSans-116"/>
     </g>
    </g>
   </g>
   <g id="patch_3">
    <path d="M 46.965625 288.430125 
L 46.965625 22.318125 
" style="fill:none;stroke:#000000;stroke-linecap:square;stroke-linejoin:miter;stroke-width:0.8;"/>
   </g>
   <g id="patch_4">
    <path d="M 404.085625 288.430125 
L 404.085625 22.318125 
" style="fill:none;stroke:#000000;stroke-linecap:square;stroke-linejoin:miter;stroke-width:0.8;"/>
   </g>
   <g id="patch_5">
    <path d="M 46.965625 288.430125 
L 404.085625 288.430125 
" style="fill:none;stroke:#000000;stroke-linecap:square;stroke-linejoin:miter;stroke-width:0.8;"/>
   </g>
   <g id="patch_6">
    <path d="M 46.965625 22.318125 
L 404.085625 22.318125 
" style="fill:none;stroke:#000000;stroke-linecap:square;stroke-linejoin:miter;stroke-width:0.8;"/>
   </g>
   <g id="text_14">
    <!-- Height vs Weight -->
    <g transform="translate(174.297813 16.318125)scale(0.12 -0.12)">
     <defs>
      <path id="DejaVuSans-32"/>
      <path d="M 2.984375 54.6875 
L 12.5 54.6875 
L 29.59375 8.796875 
L 46.6875 54.6875 
L 56.203125 54.6875 
L 35.6875 0 
L 23.484375 0 
z
" id="DejaVuSans-118"/>
      <path d="M 44.28125 53.078125 
L 44.28125 44.578125 
Q 40.484375 46.53125 36.375 47.5 
Q 32.28125 48.484375 27.875 48.484375 
Q 21.1875 48.484375 17.84375 46.4375 
Q 14.5 44.390625 14.5 40.28125 
Q 14.5 37.15625 16.890625 35.375 
Q 19.28125 33.59375 26.515625 31.984375 
L 29.59375 31.296875 
Q 39.15625 29.25 43.1875 25.515625 
Q 47.21875 21.78125 47.21875 15.09375 
Q 47.21875 7.46875 41.1875 3.015625 
Q 35.15625 -1.421875 24.609375 -1.421875 
Q 20.21875 -1.421875 15.453125 -0.5625 
Q 10.6875 0.296875 5.421875 2 
L 5.421875 11.28125 
Q 10.40625 8.6875 15.234375 7.390625 
Q 20.0625 6.109375 24.8125 6.109375 
Q 31.15625 6.109375 34.5625 8.28125 
Q 37.984375 10.453125 37.984375 14.40625 
Q 37.984375 18.0625 35.515625 20.015625 
Q 33.0625 21.96875 24.703125 23.78125 
L 21.578125 24.515625 
Q 13.234375 26.265625 9.515625 29.90625 
Q 5.8125 33.546875 5.8125 39.890625 
Q 5.8125 47.609375 11.28125 51.796875 
Q 16.75 56 26.8125 56 
Q 31.78125 56 36.171875 55.265625 
Q 40.578125 54.546875 44.28125 53.078125 
z
" id="DejaVuSans-115"/>
     </defs>
     <use xlink:href="#DejaVuSans-72"/>
     <use x="75.195312" xlink:href="#DejaVuSans-101"/>
     <use x="136.71875" xlink:href="#DejaVuSans-105"/>
     <use x="164.501953" xlink:href="#DejaVuSans-103"/>
     <use x="227.978516" xlink:href="#DejaVuSans-104"/>
     <use x="291.357422" xlink:href="#DejaVuSans-116"/>
     <use x="330.566406" xlink:href="#DejaVuSans-32"/>
     <use x="362.353516" xlink:href="#DejaVuSans-118"/>
     <use x="421.533203" xlink:href="#DejaVuSans-115"/>
     <use x="473.632812" xlink:href="#DejaVuSans-32"/>
     <use x="505.419922" xlink:href="#DejaVuSans-87"/>
     <use x="598.421875" xlink:href="#DejaVuSans-101"/>
     <use x="659.945312" xlink:href="#DejaVuSans-105"/>
     <use x="687.728516" xlink:href="#DejaVuSans-103"/>
     <use x="751.205078" xlink:href="#DejaVuSans-104"/>
     <use x="814.583984" xlink:href="#DejaVuSans-116"/>
    </g>
   </g>
  </g>
 </g>
 <defs>
  <clipPath id="p2a2441baeb">
   <rect height="266.112" width="357.12" x="46.965625" y="22.318125"/>
  </clipPath>
 </defs>
</svg>
