<?xml version="1.0" encoding="utf-8" standalone="no"?>
<!DOCTYPE svg PUBLIC "-//W3C//DTD SVG 1.1//EN"
  "http://www.w3.org/Graphics/SVG/1.1/DTD/svg11.dtd">
<!-- Created with matplotlib (https://matplotlib.org/) -->
<svg height="335.465313pt" version="1.1" viewBox="0 0 481.7 335.465313" width="481.7pt" xmlns="http://www.w3.org/2000/svg" xmlns:xlink="http://www.w3.org/1999/xlink">
 <metadata>
  <rdf:RDF xmlns:cc="http://creativecommons.org/ns#" xmlns:dc="http://purl.org/dc/elements/1.1/" xmlns:rdf="http://www.w3.org/1999/02/22-rdf-syntax-ns#">
   <cc:Work>
    <dc:type rdf:resource="http://purl.org/dc/dcmitype/StillImage"/>
    <dc:date>2022-01-30T21:07:05.081384</dc:date>
    <dc:format>image/svg+xml</dc:format>
    <dc:creator>
     <cc:Agent>
      <dc:title>Matplotlib v3.3.4, https://matplotlib.org/</dc:title>
     </cc:Agent>
    </dc:creator>
   </cc:Work>
  </rdf:RDF>
 </metadata>
 <defs>
  <style type="text/css">*{stroke-linecap:butt;stroke-linejoin:round;}</style>
 </defs>
 <g id="figure_1">
  <g id="patch_1">
   <path d="M 0 335.465313 
L 481.7 335.465313 
L 481.7 0 
L 0 0 
z
" style="fill:#ffffff;"/>
  </g>
  <g id="axes_1">
   <g id="patch_2">
    <path d="M 28.1 312.12 
L 474.5 312.12 
L 474.5 7.2 
L 28.1 7.2 
z
" style="fill:#eaeaf2;"/>
   </g>
   <g id="matplotlib.axis_1">
    <g id="xtick_1">
     <g id="line2d_1">
      <path clip-path="url(#pfb990f6734)" d="M 82.209091 312.12 
L 82.209091 7.2 
" style="fill:none;stroke:#ffffff;stroke-linecap:round;"/>
     </g>
     <g id="line2d_2"/>
     <g id="text_1">
      <!-- 0.2 -->
      <g style="fill:#262626;" transform="translate(75.259091 326.277813)scale(0.1 -0.1)">
       <defs>
        <path d="M 4.15625 35.296875 
Q 4.15625 48 6.765625 55.734375 
Q 9.375 63.484375 14.515625 67.671875 
Q 19.671875 71.875 27.484375 71.875 
Q 33.25 71.875 37.59375 69.546875 
Q 41.9375 67.234375 44.765625 62.859375 
Q 47.609375 58.5 49.21875 52.21875 
Q 50.828125 45.953125 50.828125 35.296875 
Q 50.828125 22.703125 48.234375 14.96875 
Q 45.65625 7.234375 40.5 3 
Q 35.359375 -1.21875 27.484375 -1.21875 
Q 17.140625 -1.21875 11.234375 6.203125 
Q 4.15625 15.140625 4.15625 35.296875 
z
M 13.1875 35.296875 
Q 13.1875 17.671875 17.3125 11.828125 
Q 21.4375 6 27.484375 6 
Q 33.546875 6 37.671875 11.859375 
Q 41.796875 17.71875 41.796875 35.296875 
Q 41.796875 52.984375 37.671875 58.78125 
Q 33.546875 64.59375 27.390625 64.59375 
Q 21.34375 64.59375 17.71875 59.46875 
Q 13.1875 52.9375 13.1875 35.296875 
z
" id="ArialMT-48"/>
        <path d="M 9.078125 0 
L 9.078125 10.015625 
L 19.09375 10.015625 
L 19.09375 0 
z
" id="ArialMT-46"/>
        <path d="M 50.34375 8.453125 
L 50.34375 0 
L 3.03125 0 
Q 2.9375 3.171875 4.046875 6.109375 
Q 5.859375 10.9375 9.828125 15.625 
Q 13.8125 20.3125 21.34375 26.46875 
Q 33.015625 36.03125 37.109375 41.625 
Q 41.21875 47.21875 41.21875 52.203125 
Q 41.21875 57.421875 37.46875 61 
Q 33.734375 64.59375 27.734375 64.59375 
Q 21.390625 64.59375 17.578125 60.78125 
Q 13.765625 56.984375 13.71875 50.25 
L 4.6875 51.171875 
Q 5.609375 61.28125 11.65625 66.578125 
Q 17.71875 71.875 27.9375 71.875 
Q 38.234375 71.875 44.234375 66.15625 
Q 50.25 60.453125 50.25 52 
Q 50.25 47.703125 48.484375 43.546875 
Q 46.734375 39.40625 42.65625 34.8125 
Q 38.578125 30.21875 29.109375 22.21875 
Q 21.1875 15.578125 18.9375 13.203125 
Q 16.703125 10.84375 15.234375 8.453125 
z
" id="ArialMT-50"/>
       </defs>
       <use xlink:href="#ArialMT-48"/>
       <use x="55.615234" xlink:href="#ArialMT-46"/>
       <use x="83.398438" xlink:href="#ArialMT-50"/>
      </g>
     </g>
    </g>
    <g id="xtick_2">
     <g id="line2d_3">
      <path clip-path="url(#pfb990f6734)" d="M 149.845455 312.12 
L 149.845455 7.2 
" style="fill:none;stroke:#ffffff;stroke-linecap:round;"/>
     </g>
     <g id="line2d_4"/>
     <g id="text_2">
      <!-- 0.3 -->
      <g style="fill:#262626;" transform="translate(142.895455 326.277813)scale(0.1 -0.1)">
       <defs>
        <path d="M 4.203125 18.890625 
L 12.984375 20.0625 
Q 14.5 12.59375 18.140625 9.296875 
Q 21.78125 6 27 6 
Q 33.203125 6 37.46875 10.296875 
Q 41.75 14.59375 41.75 20.953125 
Q 41.75 27 37.796875 30.921875 
Q 33.84375 34.859375 27.734375 34.859375 
Q 25.25 34.859375 21.53125 33.890625 
L 22.515625 41.609375 
Q 23.390625 41.5 23.921875 41.5 
Q 29.546875 41.5 34.03125 44.421875 
Q 38.53125 47.359375 38.53125 53.46875 
Q 38.53125 58.296875 35.25 61.46875 
Q 31.984375 64.65625 26.8125 64.65625 
Q 21.6875 64.65625 18.265625 61.421875 
Q 14.84375 58.203125 13.875 51.765625 
L 5.078125 53.328125 
Q 6.6875 62.15625 12.390625 67.015625 
Q 18.109375 71.875 26.609375 71.875 
Q 32.46875 71.875 37.390625 69.359375 
Q 42.328125 66.84375 44.9375 62.5 
Q 47.5625 58.15625 47.5625 53.265625 
Q 47.5625 48.640625 45.0625 44.828125 
Q 42.578125 41.015625 37.703125 38.765625 
Q 44.046875 37.3125 47.5625 32.6875 
Q 51.078125 28.078125 51.078125 21.140625 
Q 51.078125 11.765625 44.234375 5.25 
Q 37.40625 -1.265625 26.953125 -1.265625 
Q 17.53125 -1.265625 11.296875 4.34375 
Q 5.078125 9.96875 4.203125 18.890625 
z
" id="ArialMT-51"/>
       </defs>
       <use xlink:href="#ArialMT-48"/>
       <use x="55.615234" xlink:href="#ArialMT-46"/>
       <use x="83.398438" xlink:href="#ArialMT-51"/>
      </g>
     </g>
    </g>
    <g id="xtick_3">
     <g id="line2d_5">
      <path clip-path="url(#pfb990f6734)" d="M 217.481818 312.12 
L 217.481818 7.2 
" style="fill:none;stroke:#ffffff;stroke-linecap:round;"/>
     </g>
     <g id="line2d_6"/>
     <g id="text_3">
      <!-- 0.4 -->
      <g style="fill:#262626;" transform="translate(210.531818 326.277813)scale(0.1 -0.1)">
       <defs>
        <path d="M 32.328125 0 
L 32.328125 17.140625 
L 1.265625 17.140625 
L 1.265625 25.203125 
L 33.9375 71.578125 
L 41.109375 71.578125 
L 41.109375 25.203125 
L 50.78125 25.203125 
L 50.78125 17.140625 
L 41.109375 17.140625 
L 41.109375 0 
z
M 32.328125 25.203125 
L 32.328125 57.46875 
L 9.90625 25.203125 
z
" id="ArialMT-52"/>
       </defs>
       <use xlink:href="#ArialMT-48"/>
       <use x="55.615234" xlink:href="#ArialMT-46"/>
       <use x="83.398438" xlink:href="#ArialMT-52"/>
      </g>
     </g>
    </g>
    <g id="xtick_4">
     <g id="line2d_7">
      <path clip-path="url(#pfb990f6734)" d="M 285.118182 312.12 
L 285.118182 7.2 
" style="fill:none;stroke:#ffffff;stroke-linecap:round;"/>
     </g>
     <g id="line2d_8"/>
     <g id="text_4">
      <!-- 0.5 -->
      <g style="fill:#262626;" transform="translate(278.168182 326.277813)scale(0.1 -0.1)">
       <defs>
        <path d="M 4.15625 18.75 
L 13.375 19.53125 
Q 14.40625 12.796875 18.140625 9.390625 
Q 21.875 6 27.15625 6 
Q 33.5 6 37.890625 10.78125 
Q 42.28125 15.578125 42.28125 23.484375 
Q 42.28125 31 38.0625 35.34375 
Q 33.84375 39.703125 27 39.703125 
Q 22.75 39.703125 19.328125 37.765625 
Q 15.921875 35.84375 13.96875 32.765625 
L 5.71875 33.84375 
L 12.640625 70.609375 
L 48.25 70.609375 
L 48.25 62.203125 
L 19.671875 62.203125 
L 15.828125 42.96875 
Q 22.265625 47.46875 29.34375 47.46875 
Q 38.71875 47.46875 45.15625 40.96875 
Q 51.609375 34.46875 51.609375 24.265625 
Q 51.609375 14.546875 45.953125 7.46875 
Q 39.0625 -1.21875 27.15625 -1.21875 
Q 17.390625 -1.21875 11.203125 4.25 
Q 5.03125 9.71875 4.15625 18.75 
z
" id="ArialMT-53"/>
       </defs>
       <use xlink:href="#ArialMT-48"/>
       <use x="55.615234" xlink:href="#ArialMT-46"/>
       <use x="83.398438" xlink:href="#ArialMT-53"/>
      </g>
     </g>
    </g>
    <g id="xtick_5">
     <g id="line2d_9">
      <path clip-path="url(#pfb990f6734)" d="M 352.754545 312.12 
L 352.754545 7.2 
" style="fill:none;stroke:#ffffff;stroke-linecap:round;"/>
     </g>
     <g id="line2d_10"/>
     <g id="text_5">
      <!-- 0.6 -->
      <g style="fill:#262626;" transform="translate(345.804545 326.277813)scale(0.1 -0.1)">
       <defs>
        <path d="M 49.75 54.046875 
L 41.015625 53.375 
Q 39.84375 58.546875 37.703125 60.890625 
Q 34.125 64.65625 28.90625 64.65625 
Q 24.703125 64.65625 21.53125 62.3125 
Q 17.390625 59.28125 14.984375 53.46875 
Q 12.59375 47.65625 12.5 36.921875 
Q 15.671875 41.75 20.265625 44.09375 
Q 24.859375 46.4375 29.890625 46.4375 
Q 38.671875 46.4375 44.84375 39.96875 
Q 51.03125 33.5 51.03125 23.25 
Q 51.03125 16.5 48.125 10.71875 
Q 45.21875 4.9375 40.140625 1.859375 
Q 35.0625 -1.21875 28.609375 -1.21875 
Q 17.625 -1.21875 10.6875 6.859375 
Q 3.765625 14.9375 3.765625 33.5 
Q 3.765625 54.25 11.421875 63.671875 
Q 18.109375 71.875 29.4375 71.875 
Q 37.890625 71.875 43.28125 67.140625 
Q 48.6875 62.40625 49.75 54.046875 
z
M 13.875 23.1875 
Q 13.875 18.65625 15.796875 14.5 
Q 17.71875 10.359375 21.1875 8.171875 
Q 24.65625 6 28.46875 6 
Q 34.03125 6 38.03125 10.484375 
Q 42.046875 14.984375 42.046875 22.703125 
Q 42.046875 30.125 38.078125 34.390625 
Q 34.125 38.671875 28.125 38.671875 
Q 22.171875 38.671875 18.015625 34.390625 
Q 13.875 30.125 13.875 23.1875 
z
" id="ArialMT-54"/>
       </defs>
       <use xlink:href="#ArialMT-48"/>
       <use x="55.615234" xlink:href="#ArialMT-46"/>
       <use x="83.398438" xlink:href="#ArialMT-54"/>
      </g>
     </g>
    </g>
    <g id="xtick_6">
     <g id="line2d_11">
      <path clip-path="url(#pfb990f6734)" d="M 420.390909 312.12 
L 420.390909 7.2 
" style="fill:none;stroke:#ffffff;stroke-linecap:round;"/>
     </g>
     <g id="line2d_12"/>
     <g id="text_6">
      <!-- 0.7 -->
      <g style="fill:#262626;" transform="translate(413.440909 326.277813)scale(0.1 -0.1)">
       <defs>
        <path d="M 4.734375 62.203125 
L 4.734375 70.65625 
L 51.078125 70.65625 
L 51.078125 63.8125 
Q 44.234375 56.546875 37.515625 44.484375 
Q 30.8125 32.421875 27.15625 19.671875 
Q 24.515625 10.6875 23.78125 0 
L 14.75 0 
Q 14.890625 8.453125 18.0625 20.40625 
Q 21.234375 32.375 27.171875 43.484375 
Q 33.109375 54.59375 39.796875 62.203125 
z
" id="ArialMT-55"/>
       </defs>
       <use xlink:href="#ArialMT-48"/>
       <use x="55.615234" xlink:href="#ArialMT-46"/>
       <use x="83.398438" xlink:href="#ArialMT-55"/>
      </g>
     </g>
    </g>
   </g>
   <g id="matplotlib.axis_2">
    <g id="ytick_1">
     <g id="line2d_13">
      <path clip-path="url(#pfb990f6734)" d="M 28.1 305.20255 
L 474.5 305.20255 
" style="fill:none;stroke:#ffffff;stroke-linecap:round;"/>
     </g>
     <g id="line2d_14"/>
     <g id="text_7">
      <!-- 3.0 -->
      <g style="fill:#262626;" transform="translate(7.2 308.781456)scale(0.1 -0.1)">
       <use xlink:href="#ArialMT-51"/>
       <use x="55.615234" xlink:href="#ArialMT-46"/>
       <use x="83.398438" xlink:href="#ArialMT-48"/>
      </g>
     </g>
    </g>
    <g id="ytick_2">
     <g id="line2d_15">
      <path clip-path="url(#pfb990f6734)" d="M 28.1 242.059761 
L 474.5 242.059761 
" style="fill:none;stroke:#ffffff;stroke-linecap:round;"/>
     </g>
     <g id="line2d_16"/>
     <g id="text_8">
      <!-- 3.2 -->
      <g style="fill:#262626;" transform="translate(7.2 245.638667)scale(0.1 -0.1)">
       <use xlink:href="#ArialMT-51"/>
       <use x="55.615234" xlink:href="#ArialMT-46"/>
       <use x="83.398438" xlink:href="#ArialMT-50"/>
      </g>
     </g>
    </g>
    <g id="ytick_3">
     <g id="line2d_17">
      <path clip-path="url(#pfb990f6734)" d="M 28.1 178.916972 
L 474.5 178.916972 
" style="fill:none;stroke:#ffffff;stroke-linecap:round;"/>
     </g>
     <g id="line2d_18"/>
     <g id="text_9">
      <!-- 3.4 -->
      <g style="fill:#262626;" transform="translate(7.2 182.495878)scale(0.1 -0.1)">
       <use xlink:href="#ArialMT-51"/>
       <use x="55.615234" xlink:href="#ArialMT-46"/>
       <use x="83.398438" xlink:href="#ArialMT-52"/>
      </g>
     </g>
    </g>
    <g id="ytick_4">
     <g id="line2d_19">
      <path clip-path="url(#pfb990f6734)" d="M 28.1 115.774183 
L 474.5 115.774183 
" style="fill:none;stroke:#ffffff;stroke-linecap:round;"/>
     </g>
     <g id="line2d_20"/>
     <g id="text_10">
      <!-- 3.6 -->
      <g style="fill:#262626;" transform="translate(7.2 119.353089)scale(0.1 -0.1)">
       <use xlink:href="#ArialMT-51"/>
       <use x="55.615234" xlink:href="#ArialMT-46"/>
       <use x="83.398438" xlink:href="#ArialMT-54"/>
      </g>
     </g>
    </g>
    <g id="ytick_5">
     <g id="line2d_21">
      <path clip-path="url(#pfb990f6734)" d="M 28.1 52.631394 
L 474.5 52.631394 
" style="fill:none;stroke:#ffffff;stroke-linecap:round;"/>
     </g>
     <g id="line2d_22"/>
     <g id="text_11">
      <!-- 3.8 -->
      <g style="fill:#262626;" transform="translate(7.2 56.210301)scale(0.1 -0.1)">
       <defs>
        <path d="M 17.671875 38.8125 
Q 12.203125 40.828125 9.5625 44.53125 
Q 6.9375 48.25 6.9375 53.421875 
Q 6.9375 61.234375 12.546875 66.546875 
Q 18.171875 71.875 27.484375 71.875 
Q 36.859375 71.875 42.578125 66.421875 
Q 48.296875 60.984375 48.296875 53.171875 
Q 48.296875 48.1875 45.671875 44.5 
Q 43.0625 40.828125 37.75 38.8125 
Q 44.34375 36.671875 47.78125 31.875 
Q 51.21875 27.09375 51.21875 20.453125 
Q 51.21875 11.28125 44.71875 5.03125 
Q 38.234375 -1.21875 27.640625 -1.21875 
Q 17.046875 -1.21875 10.546875 5.046875 
Q 4.046875 11.328125 4.046875 20.703125 
Q 4.046875 27.6875 7.59375 32.390625 
Q 11.140625 37.109375 17.671875 38.8125 
z
M 15.921875 53.71875 
Q 15.921875 48.640625 19.1875 45.40625 
Q 22.46875 42.1875 27.6875 42.1875 
Q 32.765625 42.1875 36.015625 45.375 
Q 39.265625 48.578125 39.265625 53.21875 
Q 39.265625 58.0625 35.90625 61.359375 
Q 32.5625 64.65625 27.59375 64.65625 
Q 22.5625 64.65625 19.234375 61.421875 
Q 15.921875 58.203125 15.921875 53.71875 
z
M 13.09375 20.65625 
Q 13.09375 16.890625 14.875 13.375 
Q 16.65625 9.859375 20.171875 7.921875 
Q 23.6875 6 27.734375 6 
Q 34.03125 6 38.125 10.046875 
Q 42.234375 14.109375 42.234375 20.359375 
Q 42.234375 26.703125 38.015625 30.859375 
Q 33.796875 35.015625 27.4375 35.015625 
Q 21.234375 35.015625 17.15625 30.90625 
Q 13.09375 26.8125 13.09375 20.65625 
z
" id="ArialMT-56"/>
       </defs>
       <use xlink:href="#ArialMT-51"/>
       <use x="55.615234" xlink:href="#ArialMT-46"/>
       <use x="83.398438" xlink:href="#ArialMT-56"/>
      </g>
     </g>
    </g>
   </g>
   <g id="PathCollection_1">
    <defs>
     <path d="M 0 3.5 
C 0.928211 3.5 1.81853 3.131218 2.474874 2.474874 
C 3.131218 1.81853 3.5 0.928211 3.5 0 
C 3.5 -0.928211 3.131218 -1.81853 2.474874 -2.474874 
C 1.81853 -3.131218 0.928211 -3.5 0 -3.5 
C -0.928211 -3.5 -1.81853 -3.131218 -2.474874 -2.474874 
C -3.131218 -1.81853 -3.5 -0.928211 -3.5 0 
C -3.5 0.928211 -3.131218 1.81853 -2.474874 2.474874 
C -1.81853 3.131218 -0.928211 3.5 0 3.5 
z
" id="m000449b00a" style="stroke:#4c72b0;stroke-width:0.3;"/>
    </defs>
    <g clip-path="url(#pfb990f6734)">
     <use style="fill:#4c72b0;stroke:#4c72b0;stroke-width:0.3;" x="48.390909" xlink:href="#m000449b00a" y="242.059761"/>
     <use style="fill:#4c72b0;stroke:#4c72b0;stroke-width:0.3;" x="149.845455" xlink:href="#m000449b00a" y="21.06"/>
     <use style="fill:#4c72b0;stroke:#4c72b0;stroke-width:0.3;" x="251.3" xlink:href="#m000449b00a" y="84.202789"/>
     <use style="fill:#4c72b0;stroke:#4c72b0;stroke-width:0.3;" x="352.754545" xlink:href="#m000449b00a" y="147.345578"/>
     <use style="fill:#4c72b0;stroke:#4c72b0;stroke-width:0.3;" x="454.209091" xlink:href="#m000449b00a" y="298.26"/>
    </g>
   </g>
   <g id="patch_3">
    <path d="M 28.1 312.12 
L 28.1 7.2 
" style="fill:none;"/>
   </g>
   <g id="patch_4">
    <path d="M 474.5 312.12 
L 474.5 7.2 
" style="fill:none;"/>
   </g>
   <g id="patch_5">
    <path d="M 28.1 312.12 
L 474.5 312.12 
" style="fill:none;"/>
   </g>
   <g id="patch_6">
    <path d="M 28.1 7.2 
L 474.5 7.2 
" style="fill:none;"/>
   </g>
   <g id="text_12">
    <!-- AAA -->
    <g style="fill:#262626;" transform="translate(48.390909 242.059761)scale(0.1 -0.1)">
     <defs>
      <path d="M -0.140625 0 
L 27.34375 71.578125 
L 37.546875 71.578125 
L 66.84375 0 
L 56.0625 0 
L 47.703125 21.6875 
L 17.78125 21.6875 
L 9.90625 0 
z
M 20.515625 29.390625 
L 44.78125 29.390625 
L 37.3125 49.21875 
Q 33.890625 58.25 32.234375 64.0625 
Q 30.859375 57.171875 28.375 50.390625 
z
" id="ArialMT-65"/>
     </defs>
     <use xlink:href="#ArialMT-65"/>
     <use x="66.699219" xlink:href="#ArialMT-65"/>
     <use x="133.398438" xlink:href="#ArialMT-65"/>
    </g>
   </g>
   <g id="text_13">
    <!-- BBB -->
    <g style="fill:#262626;" transform="translate(149.845455 21.06)scale(0.1 -0.1)">
     <defs>
      <path d="M 7.328125 0 
L 7.328125 71.578125 
L 34.1875 71.578125 
Q 42.390625 71.578125 47.34375 69.40625 
Q 52.296875 67.234375 55.09375 62.71875 
Q 57.90625 58.203125 57.90625 53.265625 
Q 57.90625 48.6875 55.421875 44.625 
Q 52.9375 40.578125 47.90625 38.09375 
Q 54.390625 36.1875 57.875 31.59375 
Q 61.375 27 61.375 20.75 
Q 61.375 15.71875 59.25 11.390625 
Q 57.125 7.078125 54 4.734375 
Q 50.875 2.390625 46.15625 1.1875 
Q 41.453125 0 34.625 0 
z
M 16.796875 41.5 
L 32.28125 41.5 
Q 38.578125 41.5 41.3125 42.328125 
Q 44.921875 43.40625 46.75 45.890625 
Q 48.578125 48.390625 48.578125 52.15625 
Q 48.578125 55.71875 46.875 58.421875 
Q 45.171875 61.140625 41.984375 62.140625 
Q 38.8125 63.140625 31.109375 63.140625 
L 16.796875 63.140625 
z
M 16.796875 8.453125 
L 34.625 8.453125 
Q 39.203125 8.453125 41.0625 8.796875 
Q 44.34375 9.375 46.53125 10.734375 
Q 48.734375 12.109375 50.140625 14.71875 
Q 51.5625 17.328125 51.5625 20.75 
Q 51.5625 24.75 49.515625 27.703125 
Q 47.46875 30.671875 43.828125 31.859375 
Q 40.1875 33.0625 33.34375 33.0625 
L 16.796875 33.0625 
z
" id="ArialMT-66"/>
     </defs>
     <use xlink:href="#ArialMT-66"/>
     <use x="66.699219" xlink:href="#ArialMT-66"/>
     <use x="133.398438" xlink:href="#ArialMT-66"/>
    </g>
   </g>
   <g id="text_14">
    <!-- C -->
    <g style="fill:#262626;" transform="translate(251.3 84.202789)scale(0.1 -0.1)">
     <defs>
      <path d="M 58.796875 25.09375 
L 68.265625 22.703125 
Q 65.28125 11.03125 57.546875 4.90625 
Q 49.8125 -1.21875 38.625 -1.21875 
Q 27.046875 -1.21875 19.796875 3.484375 
Q 12.546875 8.203125 8.765625 17.140625 
Q 4.984375 26.078125 4.984375 36.328125 
Q 4.984375 47.515625 9.25 55.828125 
Q 13.53125 64.15625 21.40625 68.46875 
Q 29.296875 72.796875 38.765625 72.796875 
Q 49.515625 72.796875 56.828125 67.328125 
Q 64.15625 61.859375 67.046875 51.953125 
L 57.71875 49.75 
Q 55.21875 57.5625 50.484375 61.125 
Q 45.75 64.703125 38.578125 64.703125 
Q 30.328125 64.703125 24.78125 60.734375 
Q 19.234375 56.78125 16.984375 50.109375 
Q 14.75 43.453125 14.75 36.375 
Q 14.75 27.25 17.40625 20.4375 
Q 20.0625 13.625 25.671875 10.25 
Q 31.296875 6.890625 37.84375 6.890625 
Q 45.796875 6.890625 51.3125 11.46875 
Q 56.84375 16.0625 58.796875 25.09375 
z
" id="ArialMT-67"/>
     </defs>
     <use xlink:href="#ArialMT-67"/>
    </g>
   </g>
   <g id="text_15">
    <!-- D -->
    <g style="fill:#262626;" transform="translate(352.754545 147.345578)scale(0.1 -0.1)">
     <defs>
      <path d="M 7.71875 0 
L 7.71875 71.578125 
L 32.375 71.578125 
Q 40.71875 71.578125 45.125 70.5625 
Q 51.265625 69.140625 55.609375 65.4375 
Q 61.28125 60.640625 64.078125 53.1875 
Q 66.890625 45.75 66.890625 36.1875 
Q 66.890625 28.03125 64.984375 21.734375 
Q 63.09375 15.4375 60.109375 11.296875 
Q 57.125 7.171875 53.578125 4.796875 
Q 50.046875 2.4375 45.046875 1.21875 
Q 40.046875 0 33.546875 0 
z
M 17.1875 8.453125 
L 32.46875 8.453125 
Q 39.546875 8.453125 43.578125 9.765625 
Q 47.609375 11.078125 50 13.484375 
Q 53.375 16.84375 55.25 22.53125 
Q 57.125 28.21875 57.125 36.328125 
Q 57.125 47.5625 53.4375 53.59375 
Q 49.75 59.625 44.484375 61.671875 
Q 40.671875 63.140625 32.234375 63.140625 
L 17.1875 63.140625 
z
" id="ArialMT-68"/>
     </defs>
     <use xlink:href="#ArialMT-68"/>
    </g>
   </g>
   <g id="text_16">
    <!-- E -->
    <g style="fill:#262626;" transform="translate(454.209091 298.26)scale(0.1 -0.1)">
     <defs>
      <path d="M 7.90625 0 
L 7.90625 71.578125 
L 59.671875 71.578125 
L 59.671875 63.140625 
L 17.390625 63.140625 
L 17.390625 41.21875 
L 56.984375 41.21875 
L 56.984375 32.8125 
L 17.390625 32.8125 
L 17.390625 8.453125 
L 61.328125 8.453125 
L 61.328125 0 
z
" id="ArialMT-69"/>
     </defs>
     <use xlink:href="#ArialMT-69"/>
    </g>
   </g>
  </g>
 </g>
 <defs>
  <clipPath id="pfb990f6734">
   <rect height="304.92" width="446.4" x="28.1" y="7.2"/>
  </clipPath>
 </defs>
</svg>
