<?xml version="1.0" encoding="utf-8" standalone="no"?>
<!DOCTYPE svg PUBLIC "-//W3C//DTD SVG 1.1//EN"
  "http://www.w3.org/Graphics/SVG/1.1/DTD/svg11.dtd">
<!-- Created with matplotlib (https://matplotlib.org/) -->
<svg height="329.525312pt" version="1.1" viewBox="0 0 481.7 329.525312" width="481.7pt" xmlns="http://www.w3.org/2000/svg" xmlns:xlink="http://www.w3.org/1999/xlink">
 <metadata>
  <rdf:RDF xmlns:cc="http://creativecommons.org/ns#" xmlns:dc="http://purl.org/dc/elements/1.1/" xmlns:rdf="http://www.w3.org/1999/02/22-rdf-syntax-ns#">
   <cc:Work>
    <dc:type rdf:resource="http://purl.org/dc/dcmitype/StillImage"/>
    <dc:date>2021-12-07T18:17:02.410887</dc:date>
    <dc:format>image/svg+xml</dc:format>
    <dc:creator>
     <cc:Agent>
      <dc:title>Matplotlib v3.3.4, https://matplotlib.org/</dc:title>
     </cc:Agent>
    </dc:creator>
   </cc:Work>
  </rdf:RDF>
 </metadata>
 <defs>
  <style type="text/css">*{stroke-linecap:butt;stroke-linejoin:round;}</style>
 </defs>
 <g id="figure_1">
  <g id="patch_1">
   <path d="M 0 329.525312 
L 481.7 329.525312 
L 481.7 0 
L 0 0 
z
" style="fill:#ffffff;"/>
  </g>
  <g id="axes_1">
   <g id="patch_2">
    <path d="M 28.1 306.18 
L 474.5 306.18 
L 474.5 7.2 
L 28.1 7.2 
z
" style="fill:#eaeaf2;"/>
   </g>
   <g id="matplotlib.axis_1">
    <g id="xtick_1">
     <g id="line2d_1">
      <path clip-path="url(#pdbe2fdb928)" d="M 42.800723 306.18 
L 42.800723 7.2 
" style="fill:none;stroke:#ffffff;stroke-linecap:round;"/>
     </g>
     <g id="line2d_2"/>
     <g id="text_1">
      <!-- 0.0 -->
      <g style="fill:#262626;" transform="translate(35.850723 320.337812)scale(0.1 -0.1)">
       <defs>
        <path d="M 4.15625 35.296875 
Q 4.15625 48 6.765625 55.734375 
Q 9.375 63.484375 14.515625 67.671875 
Q 19.671875 71.875 27.484375 71.875 
Q 33.25 71.875 37.59375 69.546875 
Q 41.9375 67.234375 44.765625 62.859375 
Q 47.609375 58.5 49.21875 52.21875 
Q 50.828125 45.953125 50.828125 35.296875 
Q 50.828125 22.703125 48.234375 14.96875 
Q 45.65625 7.234375 40.5 3 
Q 35.359375 -1.21875 27.484375 -1.21875 
Q 17.140625 -1.21875 11.234375 6.203125 
Q 4.15625 15.140625 4.15625 35.296875 
z
M 13.1875 35.296875 
Q 13.1875 17.671875 17.3125 11.828125 
Q 21.4375 6 27.484375 6 
Q 33.546875 6 37.671875 11.859375 
Q 41.796875 17.71875 41.796875 35.296875 
Q 41.796875 52.984375 37.671875 58.78125 
Q 33.546875 64.59375 27.390625 64.59375 
Q 21.34375 64.59375 17.71875 59.46875 
Q 13.1875 52.9375 13.1875 35.296875 
z
" id="ArialMT-48"/>
        <path d="M 9.078125 0 
L 9.078125 10.015625 
L 19.09375 10.015625 
L 19.09375 0 
z
" id="ArialMT-46"/>
       </defs>
       <use xlink:href="#ArialMT-48"/>
       <use x="55.615234" xlink:href="#ArialMT-46"/>
       <use x="83.398438" xlink:href="#ArialMT-48"/>
      </g>
     </g>
    </g>
    <g id="xtick_2">
     <g id="line2d_3">
      <path clip-path="url(#pdbe2fdb928)" d="M 125.10017 306.18 
L 125.10017 7.2 
" style="fill:none;stroke:#ffffff;stroke-linecap:round;"/>
     </g>
     <g id="line2d_4"/>
     <g id="text_2">
      <!-- 0.2 -->
      <g style="fill:#262626;" transform="translate(118.15017 320.337812)scale(0.1 -0.1)">
       <defs>
        <path d="M 50.34375 8.453125 
L 50.34375 0 
L 3.03125 0 
Q 2.9375 3.171875 4.046875 6.109375 
Q 5.859375 10.9375 9.828125 15.625 
Q 13.8125 20.3125 21.34375 26.46875 
Q 33.015625 36.03125 37.109375 41.625 
Q 41.21875 47.21875 41.21875 52.203125 
Q 41.21875 57.421875 37.46875 61 
Q 33.734375 64.59375 27.734375 64.59375 
Q 21.390625 64.59375 17.578125 60.78125 
Q 13.765625 56.984375 13.71875 50.25 
L 4.6875 51.171875 
Q 5.609375 61.28125 11.65625 66.578125 
Q 17.71875 71.875 27.9375 71.875 
Q 38.234375 71.875 44.234375 66.15625 
Q 50.25 60.453125 50.25 52 
Q 50.25 47.703125 48.484375 43.546875 
Q 46.734375 39.40625 42.65625 34.8125 
Q 38.578125 30.21875 29.109375 22.21875 
Q 21.1875 15.578125 18.9375 13.203125 
Q 16.703125 10.84375 15.234375 8.453125 
z
" id="ArialMT-50"/>
       </defs>
       <use xlink:href="#ArialMT-48"/>
       <use x="55.615234" xlink:href="#ArialMT-46"/>
       <use x="83.398438" xlink:href="#ArialMT-50"/>
      </g>
     </g>
    </g>
    <g id="xtick_3">
     <g id="line2d_5">
      <path clip-path="url(#pdbe2fdb928)" d="M 207.399617 306.18 
L 207.399617 7.2 
" style="fill:none;stroke:#ffffff;stroke-linecap:round;"/>
     </g>
     <g id="line2d_6"/>
     <g id="text_3">
      <!-- 0.4 -->
      <g style="fill:#262626;" transform="translate(200.449617 320.337812)scale(0.1 -0.1)">
       <defs>
        <path d="M 32.328125 0 
L 32.328125 17.140625 
L 1.265625 17.140625 
L 1.265625 25.203125 
L 33.9375 71.578125 
L 41.109375 71.578125 
L 41.109375 25.203125 
L 50.78125 25.203125 
L 50.78125 17.140625 
L 41.109375 17.140625 
L 41.109375 0 
z
M 32.328125 25.203125 
L 32.328125 57.46875 
L 9.90625 25.203125 
z
" id="ArialMT-52"/>
       </defs>
       <use xlink:href="#ArialMT-48"/>
       <use x="55.615234" xlink:href="#ArialMT-46"/>
       <use x="83.398438" xlink:href="#ArialMT-52"/>
      </g>
     </g>
    </g>
    <g id="xtick_4">
     <g id="line2d_7">
      <path clip-path="url(#pdbe2fdb928)" d="M 289.699063 306.18 
L 289.699063 7.2 
" style="fill:none;stroke:#ffffff;stroke-linecap:round;"/>
     </g>
     <g id="line2d_8"/>
     <g id="text_4">
      <!-- 0.6 -->
      <g style="fill:#262626;" transform="translate(282.749063 320.337812)scale(0.1 -0.1)">
       <defs>
        <path d="M 49.75 54.046875 
L 41.015625 53.375 
Q 39.84375 58.546875 37.703125 60.890625 
Q 34.125 64.65625 28.90625 64.65625 
Q 24.703125 64.65625 21.53125 62.3125 
Q 17.390625 59.28125 14.984375 53.46875 
Q 12.59375 47.65625 12.5 36.921875 
Q 15.671875 41.75 20.265625 44.09375 
Q 24.859375 46.4375 29.890625 46.4375 
Q 38.671875 46.4375 44.84375 39.96875 
Q 51.03125 33.5 51.03125 23.25 
Q 51.03125 16.5 48.125 10.71875 
Q 45.21875 4.9375 40.140625 1.859375 
Q 35.0625 -1.21875 28.609375 -1.21875 
Q 17.625 -1.21875 10.6875 6.859375 
Q 3.765625 14.9375 3.765625 33.5 
Q 3.765625 54.25 11.421875 63.671875 
Q 18.109375 71.875 29.4375 71.875 
Q 37.890625 71.875 43.28125 67.140625 
Q 48.6875 62.40625 49.75 54.046875 
z
M 13.875 23.1875 
Q 13.875 18.65625 15.796875 14.5 
Q 17.71875 10.359375 21.1875 8.171875 
Q 24.65625 6 28.46875 6 
Q 34.03125 6 38.03125 10.484375 
Q 42.046875 14.984375 42.046875 22.703125 
Q 42.046875 30.125 38.078125 34.390625 
Q 34.125 38.671875 28.125 38.671875 
Q 22.171875 38.671875 18.015625 34.390625 
Q 13.875 30.125 13.875 23.1875 
z
" id="ArialMT-54"/>
       </defs>
       <use xlink:href="#ArialMT-48"/>
       <use x="55.615234" xlink:href="#ArialMT-46"/>
       <use x="83.398438" xlink:href="#ArialMT-54"/>
      </g>
     </g>
    </g>
    <g id="xtick_5">
     <g id="line2d_9">
      <path clip-path="url(#pdbe2fdb928)" d="M 371.99851 306.18 
L 371.99851 7.2 
" style="fill:none;stroke:#ffffff;stroke-linecap:round;"/>
     </g>
     <g id="line2d_10"/>
     <g id="text_5">
      <!-- 0.8 -->
      <g style="fill:#262626;" transform="translate(365.04851 320.337812)scale(0.1 -0.1)">
       <defs>
        <path d="M 17.671875 38.8125 
Q 12.203125 40.828125 9.5625 44.53125 
Q 6.9375 48.25 6.9375 53.421875 
Q 6.9375 61.234375 12.546875 66.546875 
Q 18.171875 71.875 27.484375 71.875 
Q 36.859375 71.875 42.578125 66.421875 
Q 48.296875 60.984375 48.296875 53.171875 
Q 48.296875 48.1875 45.671875 44.5 
Q 43.0625 40.828125 37.75 38.8125 
Q 44.34375 36.671875 47.78125 31.875 
Q 51.21875 27.09375 51.21875 20.453125 
Q 51.21875 11.28125 44.71875 5.03125 
Q 38.234375 -1.21875 27.640625 -1.21875 
Q 17.046875 -1.21875 10.546875 5.046875 
Q 4.046875 11.328125 4.046875 20.703125 
Q 4.046875 27.6875 7.59375 32.390625 
Q 11.140625 37.109375 17.671875 38.8125 
z
M 15.921875 53.71875 
Q 15.921875 48.640625 19.1875 45.40625 
Q 22.46875 42.1875 27.6875 42.1875 
Q 32.765625 42.1875 36.015625 45.375 
Q 39.265625 48.578125 39.265625 53.21875 
Q 39.265625 58.0625 35.90625 61.359375 
Q 32.5625 64.65625 27.59375 64.65625 
Q 22.5625 64.65625 19.234375 61.421875 
Q 15.921875 58.203125 15.921875 53.71875 
z
M 13.09375 20.65625 
Q 13.09375 16.890625 14.875 13.375 
Q 16.65625 9.859375 20.171875 7.921875 
Q 23.6875 6 27.734375 6 
Q 34.03125 6 38.125 10.046875 
Q 42.234375 14.109375 42.234375 20.359375 
Q 42.234375 26.703125 38.015625 30.859375 
Q 33.796875 35.015625 27.4375 35.015625 
Q 21.234375 35.015625 17.15625 30.90625 
Q 13.09375 26.8125 13.09375 20.65625 
z
" id="ArialMT-56"/>
       </defs>
       <use xlink:href="#ArialMT-48"/>
       <use x="55.615234" xlink:href="#ArialMT-46"/>
       <use x="83.398438" xlink:href="#ArialMT-56"/>
      </g>
     </g>
    </g>
    <g id="xtick_6">
     <g id="line2d_11">
      <path clip-path="url(#pdbe2fdb928)" d="M 454.297956 306.18 
L 454.297956 7.2 
" style="fill:none;stroke:#ffffff;stroke-linecap:round;"/>
     </g>
     <g id="line2d_12"/>
     <g id="text_6">
      <!-- 1.0 -->
      <g style="fill:#262626;" transform="translate(447.347956 320.337812)scale(0.1 -0.1)">
       <defs>
        <path d="M 37.25 0 
L 28.46875 0 
L 28.46875 56 
Q 25.296875 52.984375 20.140625 49.953125 
Q 14.984375 46.921875 10.890625 45.40625 
L 10.890625 53.90625 
Q 18.265625 57.375 23.78125 62.296875 
Q 29.296875 67.234375 31.59375 71.875 
L 37.25 71.875 
z
" id="ArialMT-49"/>
       </defs>
       <use xlink:href="#ArialMT-49"/>
       <use x="55.615234" xlink:href="#ArialMT-46"/>
       <use x="83.398438" xlink:href="#ArialMT-48"/>
      </g>
     </g>
    </g>
   </g>
   <g id="matplotlib.axis_2">
    <g id="ytick_1">
     <g id="line2d_13">
      <path clip-path="url(#pdbe2fdb928)" d="M 28.1 292.869513 
L 474.5 292.869513 
" style="fill:none;stroke:#ffffff;stroke-linecap:round;"/>
     </g>
     <g id="line2d_14"/>
     <g id="text_7">
      <!-- 0.0 -->
      <g style="fill:#262626;" transform="translate(7.2 296.448419)scale(0.1 -0.1)">
       <use xlink:href="#ArialMT-48"/>
       <use x="55.615234" xlink:href="#ArialMT-46"/>
       <use x="83.398438" xlink:href="#ArialMT-48"/>
      </g>
     </g>
    </g>
    <g id="ytick_2">
     <g id="line2d_15">
      <path clip-path="url(#pdbe2fdb928)" d="M 28.1 238.34962 
L 474.5 238.34962 
" style="fill:none;stroke:#ffffff;stroke-linecap:round;"/>
     </g>
     <g id="line2d_16"/>
     <g id="text_8">
      <!-- 0.2 -->
      <g style="fill:#262626;" transform="translate(7.2 241.928526)scale(0.1 -0.1)">
       <use xlink:href="#ArialMT-48"/>
       <use x="55.615234" xlink:href="#ArialMT-46"/>
       <use x="83.398438" xlink:href="#ArialMT-50"/>
      </g>
     </g>
    </g>
    <g id="ytick_3">
     <g id="line2d_17">
      <path clip-path="url(#pdbe2fdb928)" d="M 28.1 183.829728 
L 474.5 183.829728 
" style="fill:none;stroke:#ffffff;stroke-linecap:round;"/>
     </g>
     <g id="line2d_18"/>
     <g id="text_9">
      <!-- 0.4 -->
      <g style="fill:#262626;" transform="translate(7.2 187.408634)scale(0.1 -0.1)">
       <use xlink:href="#ArialMT-48"/>
       <use x="55.615234" xlink:href="#ArialMT-46"/>
       <use x="83.398438" xlink:href="#ArialMT-52"/>
      </g>
     </g>
    </g>
    <g id="ytick_4">
     <g id="line2d_19">
      <path clip-path="url(#pdbe2fdb928)" d="M 28.1 129.309835 
L 474.5 129.309835 
" style="fill:none;stroke:#ffffff;stroke-linecap:round;"/>
     </g>
     <g id="line2d_20"/>
     <g id="text_10">
      <!-- 0.6 -->
      <g style="fill:#262626;" transform="translate(7.2 132.888741)scale(0.1 -0.1)">
       <use xlink:href="#ArialMT-48"/>
       <use x="55.615234" xlink:href="#ArialMT-46"/>
       <use x="83.398438" xlink:href="#ArialMT-54"/>
      </g>
     </g>
    </g>
    <g id="ytick_5">
     <g id="line2d_21">
      <path clip-path="url(#pdbe2fdb928)" d="M 28.1 74.789942 
L 474.5 74.789942 
" style="fill:none;stroke:#ffffff;stroke-linecap:round;"/>
     </g>
     <g id="line2d_22"/>
     <g id="text_11">
      <!-- 0.8 -->
      <g style="fill:#262626;" transform="translate(7.2 78.368849)scale(0.1 -0.1)">
       <use xlink:href="#ArialMT-48"/>
       <use x="55.615234" xlink:href="#ArialMT-46"/>
       <use x="83.398438" xlink:href="#ArialMT-56"/>
      </g>
     </g>
    </g>
    <g id="ytick_6">
     <g id="line2d_23">
      <path clip-path="url(#pdbe2fdb928)" d="M 28.1 20.27005 
L 474.5 20.27005 
" style="fill:none;stroke:#ffffff;stroke-linecap:round;"/>
     </g>
     <g id="line2d_24"/>
     <g id="text_12">
      <!-- 1.0 -->
      <g style="fill:#262626;" transform="translate(7.2 23.848956)scale(0.1 -0.1)">
       <use xlink:href="#ArialMT-49"/>
       <use x="55.615234" xlink:href="#ArialMT-46"/>
       <use x="83.398438" xlink:href="#ArialMT-48"/>
      </g>
     </g>
    </g>
   </g>
   <g id="PathCollection_1">
    <path clip-path="url(#pdbe2fdb928)" d="M 404.729454 201.635837 
C 404.741793 201.635837 404.753628 201.630934 404.762354 201.622209 
C 404.771079 201.613484 404.775981 201.601648 404.775981 201.589309 
C 404.775981 201.57697 404.771079 201.565134 404.762354 201.556409 
C 404.753628 201.547684 404.741793 201.542782 404.729454 201.542782 
C 404.717114 201.542782 404.705279 201.547684 404.696554 201.556409 
C 404.687829 201.565134 404.682926 201.57697 404.682926 201.589309 
C 404.682926 201.601648 404.687829 201.613484 404.696554 201.622209 
C 404.705279 201.630934 404.717114 201.635837 404.729454 201.635837 
z
" style="fill:#4c72b0;stroke:#4c72b0;stroke-width:0.3;"/>
    <path clip-path="url(#pdbe2fdb928)" d="M 354.677128 160.709768 
C 354.910942 160.709768 355.13521 160.616873 355.300542 160.451542 
C 355.465873 160.286211 355.558768 160.061942 355.558768 159.828128 
C 355.558768 159.594315 355.465873 159.370046 355.300542 159.204715 
C 355.13521 159.039383 354.910942 158.946488 354.677128 158.946488 
C 354.443314 158.946488 354.219046 159.039383 354.053714 159.204715 
C 353.888383 159.370046 353.795488 159.594315 353.795488 159.828128 
C 353.795488 160.061942 353.888383 160.286211 354.053714 160.451542 
C 354.219046 160.616873 354.443314 160.709768 354.677128 160.709768 
z
" style="fill:#4c72b0;stroke:#4c72b0;stroke-width:0.3;"/>
    <path clip-path="url(#pdbe2fdb928)" d="M 208.339257 255.459844 
C 209.366131 255.459844 210.351085 255.051863 211.077195 254.325753 
C 211.803305 253.599643 212.211286 252.614689 212.211286 251.587815 
C 212.211286 250.560941 211.803305 249.575987 211.077195 248.849877 
C 210.351085 248.123768 209.366131 247.715786 208.339257 247.715786 
C 207.312383 247.715786 206.327429 248.123768 205.601319 248.849877 
C 204.875209 249.575987 204.467228 250.560941 204.467228 251.587815 
C 204.467228 252.614689 204.875209 253.599643 205.601319 254.325753 
C 206.327429 255.051863 207.312383 255.459844 208.339257 255.459844 
z
" style="fill:#4c72b0;stroke:#4c72b0;stroke-width:0.3;"/>
    <path clip-path="url(#pdbe2fdb928)" d="M 73.559442 62.793353 
C 75.02572 62.793353 76.43214 62.210794 77.468955 61.173979 
C 78.50577 60.137164 79.088329 58.730744 79.088329 57.264466 
C 79.088329 55.798188 78.50577 54.391768 77.468955 53.354952 
C 76.43214 52.318137 75.02572 51.735579 73.559442 51.735579 
C 72.093164 51.735579 70.686743 52.318137 69.649928 53.354952 
C 68.613113 54.391768 68.030555 55.798188 68.030555 57.264466 
C 68.030555 58.730744 68.613113 60.137164 69.649928 61.173979 
C 70.686743 62.210794 72.093164 62.793353 73.559442 62.793353 
z
" style="fill:#4c72b0;stroke:#4c72b0;stroke-width:0.3;"/>
    <path clip-path="url(#pdbe2fdb928)" d="M 71.664418 231.637268 
C 73.615102 231.637268 75.486155 230.862253 76.865497 229.48291 
C 78.24484 228.103568 79.019855 226.232515 79.019855 224.28183 
C 79.019855 222.331145 78.24484 220.460093 76.865497 219.08075 
C 75.486155 217.701408 73.615102 216.926393 71.664418 216.926393 
C 69.713733 216.926393 67.84268 217.701408 66.463338 219.08075 
C 65.083995 220.460093 64.30898 222.331145 64.30898 224.28183 
C 64.30898 226.232515 65.083995 228.103568 66.463338 229.48291 
C 67.84268 230.862253 69.713733 231.637268 71.664418 231.637268 
z
" style="fill:#4c72b0;stroke:#4c72b0;stroke-width:0.3;"/>
    <path clip-path="url(#pdbe2fdb928)" d="M 216.431479 240.726563 
C 216.782123 240.726563 217.118453 240.587251 217.366396 240.339308 
C 217.614339 240.091365 217.753652 239.755035 217.753652 239.404391 
C 217.753652 239.053746 217.614339 238.717416 217.366396 238.469473 
C 217.118453 238.22153 216.782123 238.082218 216.431479 238.082218 
C 216.080834 238.082218 215.744504 238.22153 215.496561 238.469473 
C 215.248618 238.717416 215.109306 239.053746 215.109306 239.404391 
C 215.109306 239.755035 215.248618 240.091365 215.496561 240.339308 
C 215.744504 240.587251 216.080834 240.726563 216.431479 240.726563 
z
" style="fill:#4c72b0;stroke:#4c72b0;stroke-width:0.3;"/>
    <path clip-path="url(#pdbe2fdb928)" d="M 216.878897 78.789919 
C 216.89501 78.789919 216.910466 78.783517 216.921859 78.772123 
C 216.933253 78.76073 216.939655 78.745274 216.939655 78.729161 
C 216.939655 78.713048 216.933253 78.697593 216.921859 78.686199 
C 216.910466 78.674805 216.89501 78.668403 216.878897 78.668403 
C 216.862784 78.668403 216.847329 78.674805 216.835935 78.686199 
C 216.824541 78.697593 216.818139 78.713048 216.818139 78.729161 
C 216.818139 78.745274 216.824541 78.76073 216.835935 78.772123 
C 216.847329 78.783517 216.862784 78.789919 216.878897 78.789919 
z
" style="fill:#4c72b0;stroke:#4c72b0;stroke-width:0.3;"/>
    <path clip-path="url(#pdbe2fdb928)" d="M 209.966126 169.522467 
C 209.996654 169.522467 210.025936 169.510338 210.047523 169.488752 
C 210.06911 169.467165 210.081239 169.437883 210.081239 169.407354 
C 210.081239 169.376826 210.06911 169.347544 210.047523 169.325957 
C 210.025936 169.30437 209.996654 169.292241 209.966126 169.292241 
C 209.935598 169.292241 209.906315 169.30437 209.884729 169.325957 
C 209.863142 169.347544 209.851013 169.376826 209.851013 169.407354 
C 209.851013 169.437883 209.863142 169.467165 209.884729 169.488752 
C 209.906315 169.510338 209.935598 169.522467 209.966126 169.522467 
z
" style="fill:#4c72b0;stroke:#4c72b0;stroke-width:0.3;"/>
    <path clip-path="url(#pdbe2fdb928)" d="M 140.445639 128.576771 
C 140.916975 128.576771 141.369069 128.389507 141.702354 128.056223 
C 142.035639 127.722938 142.222902 127.270844 142.222902 126.799508 
C 142.222902 126.328172 142.035639 125.876078 141.702354 125.542793 
C 141.369069 125.209509 140.916975 125.022245 140.445639 125.022245 
C 139.974304 125.022245 139.522209 125.209509 139.188925 125.542793 
C 138.85564 125.876078 138.668377 126.328172 138.668377 126.799508 
C 138.668377 127.270844 138.85564 127.722938 139.188925 128.056223 
C 139.522209 128.389507 139.974304 128.576771 140.445639 128.576771 
z
" style="fill:#4c72b0;stroke:#4c72b0;stroke-width:0.3;"/>
    <path clip-path="url(#pdbe2fdb928)" d="M 202.846757 277.121186 
C 203.773734 277.121186 204.662868 276.752895 205.31834 276.097423 
C 205.973811 275.441952 206.342103 274.552817 206.342103 273.625841 
C 206.342103 272.698864 205.973811 271.809729 205.31834 271.154258 
C 204.662868 270.498786 203.773734 270.130495 202.846757 270.130495 
C 201.91978 270.130495 201.030646 270.498786 200.375174 271.154258 
C 199.719703 271.809729 199.351411 272.698864 199.351411 273.625841 
C 199.351411 274.552817 199.719703 275.441952 200.375174 276.097423 
C 201.030646 276.752895 201.91978 277.121186 202.846757 277.121186 
z
" style="fill:#4c72b0;stroke:#4c72b0;stroke-width:0.3;"/>
    <path clip-path="url(#pdbe2fdb928)" d="M 122.885887 121.494725 
C 123.207151 121.494725 123.515301 121.367085 123.742469 121.139917 
C 123.969637 120.912749 124.097276 120.604599 124.097276 120.283335 
C 124.097276 119.962071 123.969637 119.653921 123.742469 119.426753 
C 123.515301 119.199585 123.207151 119.071945 122.885887 119.071945 
C 122.564623 119.071945 122.256473 119.199585 122.029305 119.426753 
C 121.802137 119.653921 121.674497 119.962071 121.674497 120.283335 
C 121.674497 120.604599 121.802137 120.912749 122.029305 121.139917 
C 122.256473 121.367085 122.564623 121.494725 122.885887 121.494725 
z
" style="fill:#4c72b0;stroke:#4c72b0;stroke-width:0.3;"/>
    <path clip-path="url(#pdbe2fdb928)" d="M 351.701971 236.264319 
C 351.751594 236.264319 351.799191 236.244604 351.83428 236.209515 
C 351.869369 236.174426 351.889085 236.126829 351.889085 236.077205 
C 351.889085 236.027582 351.869369 235.979985 351.83428 235.944896 
C 351.799191 235.909807 351.751594 235.890092 351.701971 235.890092 
C 351.652348 235.890092 351.604751 235.909807 351.569662 235.944896 
C 351.534573 235.979985 351.514857 236.027582 351.514857 236.077205 
C 351.514857 236.126829 351.534573 236.174426 351.569662 236.209515 
C 351.604751 236.244604 351.652348 236.264319 351.701971 236.264319 
z
" style="fill:#4c72b0;stroke:#4c72b0;stroke-width:0.3;"/>
    <path clip-path="url(#pdbe2fdb928)" d="M 80.686471 166.589041 
C 80.686556 166.589041 80.686638 166.589007 80.686699 166.588946 
C 80.686759 166.588886 80.686793 166.588804 80.686793 166.588718 
C 80.686793 166.588633 80.686759 166.588551 80.686699 166.58849 
C 80.686638 166.58843 80.686556 166.588396 80.686471 166.588396 
C 80.686385 166.588396 80.686303 166.58843 80.686242 166.58849 
C 80.686182 166.588551 80.686148 166.588633 80.686148 166.588718 
C 80.686148 166.588804 80.686182 166.588886 80.686242 166.588946 
C 80.686303 166.589007 80.686385 166.589041 80.686471 166.589041 
z
" style="fill:#4c72b0;stroke:#4c72b0;stroke-width:0.3;"/>
    <path clip-path="url(#pdbe2fdb928)" d="M 356.676898 100.908794 
C 358.323841 100.908794 359.90355 100.254457 361.068114 99.089892 
C 362.232679 97.925328 362.887016 96.345619 362.887016 94.698676 
C 362.887016 93.051734 362.232679 91.472024 361.068114 90.30746 
C 359.90355 89.142896 358.323841 88.488559 356.676898 88.488559 
C 355.029956 88.488559 353.450246 89.142896 352.285682 90.30746 
C 351.121118 91.472024 350.466781 93.051734 350.466781 94.698676 
C 350.466781 96.345619 351.121118 97.925328 352.285682 99.089892 
C 353.450246 100.254457 355.029956 100.908794 356.676898 100.908794 
z
" style="fill:#4c72b0;stroke:#4c72b0;stroke-width:0.3;"/>
    <path clip-path="url(#pdbe2fdb928)" d="M 433.689932 70.605532 
C 434.692072 70.605532 435.653302 70.207378 436.361923 69.498758 
C 437.070543 68.790138 437.468697 67.828908 437.468697 66.826768 
C 437.468697 65.824628 437.070543 64.863398 436.361923 64.154777 
C 435.653302 63.446157 434.692072 63.048003 433.689932 63.048003 
C 432.687792 63.048003 431.726562 63.446157 431.017942 64.154777 
C 430.309322 64.863398 429.911168 65.824628 429.911168 66.826768 
C 429.911168 67.828908 430.309322 68.790138 431.017942 69.498758 
C 431.726562 70.207378 432.687792 70.605532 433.689932 70.605532 
z
" style="fill:#4c72b0;stroke:#4c72b0;stroke-width:0.3;"/>
    <path clip-path="url(#pdbe2fdb928)" d="M 159.832567 279.313293 
C 160.118569 279.313293 160.392894 279.199664 160.595128 278.99743 
C 160.797361 278.795197 160.910991 278.520871 160.910991 278.234869 
C 160.910991 277.948868 160.797361 277.674542 160.595128 277.472309 
C 160.392894 277.270075 160.118569 277.156446 159.832567 277.156446 
C 159.546566 277.156446 159.27224 277.270075 159.070007 277.472309 
C 158.867773 277.674542 158.754144 277.948868 158.754144 278.234869 
C 158.754144 278.520871 158.867773 278.795197 159.070007 278.99743 
C 159.27224 279.199664 159.546566 279.313293 159.832567 279.313293 
z
" style="fill:#4c72b0;stroke:#4c72b0;stroke-width:0.3;"/>
    <path clip-path="url(#pdbe2fdb928)" d="M 389.420217 82.999106 
C 389.745342 82.999106 390.057195 82.869933 390.287093 82.640034 
C 390.516991 82.410136 390.646165 82.098283 390.646165 81.773158 
C 390.646165 81.448033 390.516991 81.13618 390.287093 80.906282 
C 390.057195 80.676384 389.745342 80.54721 389.420217 80.54721 
C 389.095092 80.54721 388.783239 80.676384 388.553341 80.906282 
C 388.323442 81.13618 388.194269 81.448033 388.194269 81.773158 
C 388.194269 82.098283 388.323442 82.410136 388.553341 82.640034 
C 388.783239 82.869933 389.095092 82.999106 389.420217 82.999106 
z
" style="fill:#4c72b0;stroke:#4c72b0;stroke-width:0.3;"/>
    <path clip-path="url(#pdbe2fdb928)" d="M 179.558591 223.449321 
C 179.590685 223.449321 179.621469 223.43657 179.644163 223.413876 
C 179.666857 223.391182 179.679608 223.360398 179.679608 223.328304 
C 179.679608 223.29621 179.666857 223.265426 179.644163 223.242732 
C 179.621469 223.220038 179.590685 223.207287 179.558591 223.207287 
C 179.526497 223.207287 179.495713 223.220038 179.473019 223.242732 
C 179.450325 223.265426 179.437574 223.29621 179.437574 223.328304 
C 179.437574 223.360398 179.450325 223.391182 179.473019 223.413876 
C 179.495713 223.43657 179.526497 223.449321 179.558591 223.449321 
z
" style="fill:#4c72b0;stroke:#4c72b0;stroke-width:0.3;"/>
    <path clip-path="url(#pdbe2fdb928)" d="M 246.528229 184.796189 
C 246.544578 184.796189 246.56026 184.789693 246.571821 184.778133 
C 246.583381 184.766572 246.589877 184.75089 246.589877 184.734541 
C 246.589877 184.718192 246.583381 184.70251 246.571821 184.69095 
C 246.56026 184.679389 246.544578 184.672893 246.528229 184.672893 
C 246.51188 184.672893 246.496198 184.679389 246.484638 184.69095 
C 246.473077 184.70251 246.466581 184.718192 246.466581 184.734541 
C 246.466581 184.75089 246.473077 184.766572 246.484638 184.778133 
C 246.496198 184.789693 246.51188 184.796189 246.528229 184.796189 
z
" style="fill:#4c72b0;stroke:#4c72b0;stroke-width:0.3;"/>
    <path clip-path="url(#pdbe2fdb928)" d="M 408.192756 192.504421 
C 408.522427 192.504421 408.83864 192.373441 409.071752 192.140329 
C 409.304865 191.907216 409.435844 191.591004 409.435844 191.261333 
C 409.435844 190.931662 409.304865 190.615449 409.071752 190.382337 
C 408.83864 190.149224 408.522427 190.018245 408.192756 190.018245 
C 407.863085 190.018245 407.546873 190.149224 407.31376 190.382337 
C 407.080648 190.615449 406.949668 190.931662 406.949668 191.261333 
C 406.949668 191.591004 407.080648 191.907216 407.31376 192.140329 
C 407.546873 192.373441 407.863085 192.504421 408.192756 192.504421 
z
" style="fill:#4c72b0;stroke:#4c72b0;stroke-width:0.3;"/>
    <path clip-path="url(#pdbe2fdb928)" d="M 96.260578 61.081065 
C 96.402946 61.081065 96.539502 61.024502 96.640171 60.923833 
C 96.740841 60.823163 96.797404 60.686607 96.797404 60.544239 
C 96.797404 60.401871 96.740841 60.265314 96.640171 60.164645 
C 96.539502 60.063975 96.402946 60.007412 96.260578 60.007412 
C 96.118209 60.007412 95.981653 60.063975 95.880984 60.164645 
C 95.780314 60.265314 95.723751 60.401871 95.723751 60.544239 
C 95.723751 60.686607 95.780314 60.823163 95.880984 60.923833 
C 95.981653 61.024502 96.118209 61.081065 96.260578 61.081065 
z
" style="fill:#4c72b0;stroke:#4c72b0;stroke-width:0.3;"/>
    <path clip-path="url(#pdbe2fdb928)" d="M 341.009692 80.794031 
C 341.260196 80.794031 341.500474 80.694504 341.677607 80.517371 
C 341.85474 80.340238 341.954266 80.09996 341.954266 79.849456 
C 341.954266 79.598952 341.85474 79.358674 341.677607 79.181541 
C 341.500474 79.004408 341.260196 78.904882 341.009692 78.904882 
C 340.759188 78.904882 340.51891 79.004408 340.341777 79.181541 
C 340.164644 79.358674 340.065117 79.598952 340.065117 79.849456 
C 340.065117 80.09996 340.164644 80.340238 340.341777 80.517371 
C 340.51891 80.694504 340.759188 80.794031 341.009692 80.794031 
z
" style="fill:#4c72b0;stroke:#4c72b0;stroke-width:0.3;"/>
    <path clip-path="url(#pdbe2fdb928)" d="M 334.52481 130.617273 
C 335.147976 130.617273 335.745702 130.369687 336.186347 129.929042 
C 336.626992 129.488397 336.874578 128.890671 336.874578 128.267505 
C 336.874578 127.64434 336.626992 127.046614 336.186347 126.605969 
C 335.745702 126.165324 335.147976 125.917738 334.52481 125.917738 
C 333.901645 125.917738 333.303918 126.165324 332.863274 126.605969 
C 332.422629 127.046614 332.175043 127.64434 332.175043 128.267505 
C 332.175043 128.890671 332.422629 129.488397 332.863274 129.929042 
C 333.303918 130.369687 333.901645 130.617273 334.52481 130.617273 
z
" style="fill:#4c72b0;stroke:#4c72b0;stroke-width:0.3;"/>
    <path clip-path="url(#pdbe2fdb928)" d="M 368.486337 29.984688 
C 368.585203 29.984688 368.680034 29.945408 368.749943 29.875499 
C 368.819852 29.80559 368.859132 29.710759 368.859132 29.611893 
C 368.859132 29.513026 368.819852 29.418196 368.749943 29.348287 
C 368.680034 29.278378 368.585203 29.239098 368.486337 29.239098 
C 368.387471 29.239098 368.29264 29.278378 368.222731 29.348287 
C 368.152822 29.418196 368.113542 29.513026 368.113542 29.611893 
C 368.113542 29.710759 368.152822 29.80559 368.222731 29.875499 
C 368.29264 29.945408 368.387471 29.984688 368.486337 29.984688 
z
" style="fill:#4c72b0;stroke:#4c72b0;stroke-width:0.3;"/>
    <path clip-path="url(#pdbe2fdb928)" d="M 67.72378 28.377066 
C 69.553644 28.377066 71.308808 27.650053 72.602717 26.356144 
C 73.896626 25.062235 74.623639 23.307071 74.623639 21.477207 
C 74.623639 19.647343 73.896626 17.892179 72.602717 16.59827 
C 71.308808 15.304361 69.553644 14.577348 67.72378 14.577348 
C 65.893916 14.577348 64.138752 15.304361 62.844843 16.59827 
C 61.550934 17.892179 60.823921 19.647343 60.823921 21.477207 
C 60.823921 23.307071 61.550934 25.062235 62.844843 26.356144 
C 64.138752 27.650053 65.893916 28.377066 67.72378 28.377066 
z
" style="fill:#4c72b0;stroke:#4c72b0;stroke-width:0.3;"/>
    <path clip-path="url(#pdbe2fdb928)" d="M 332.324981 28.398871 
C 332.586882 28.398871 332.838092 28.294816 333.023284 28.109624 
C 333.208476 27.924432 333.31253 27.673223 333.31253 27.411321 
C 333.31253 27.14942 333.208476 26.898211 333.023284 26.713018 
C 332.838092 26.527826 332.586882 26.423772 332.324981 26.423772 
C 332.063079 26.423772 331.81187 26.527826 331.626678 26.713018 
C 331.441486 26.898211 331.337431 27.14942 331.337431 27.411321 
C 331.337431 27.673223 331.441486 27.924432 331.626678 28.109624 
C 331.81187 28.294816 332.063079 28.398871 332.324981 28.398871 
z
" style="fill:#4c72b0;stroke:#4c72b0;stroke-width:0.3;"/>
    <path clip-path="url(#pdbe2fdb928)" d="M 129.569405 37.390455 
C 130.572634 37.390455 131.534909 36.991868 132.244299 36.282478 
C 132.953689 35.573087 133.352276 34.610813 133.352276 33.607583 
C 133.352276 32.604354 132.953689 31.642079 132.244299 30.932689 
C 131.534909 30.223299 130.572634 29.824711 129.569405 29.824711 
C 128.566175 29.824711 127.6039 30.223299 126.89451 30.932689 
C 126.18512 31.642079 125.786533 32.604354 125.786533 33.607583 
C 125.786533 34.610813 126.18512 35.573087 126.89451 36.282478 
C 127.6039 36.991868 128.566175 37.390455 129.569405 37.390455 
z
" style="fill:#4c72b0;stroke:#4c72b0;stroke-width:0.3;"/>
    <path clip-path="url(#pdbe2fdb928)" d="M 219.672945 125.716954 
C 219.736263 125.716954 219.796997 125.691797 219.841769 125.647024 
C 219.886542 125.602252 219.911699 125.541518 219.911699 125.4782 
C 219.911699 125.414882 219.886542 125.354149 219.841769 125.309376 
C 219.796997 125.264604 219.736263 125.239447 219.672945 125.239447 
C 219.609627 125.239447 219.548894 125.264604 219.504121 125.309376 
C 219.459349 125.354149 219.434192 125.414882 219.434192 125.4782 
C 219.434192 125.541518 219.459349 125.602252 219.504121 125.647024 
C 219.548894 125.691797 219.609627 125.716954 219.672945 125.716954 
z
" style="fill:#4c72b0;stroke:#4c72b0;stroke-width:0.3;"/>
    <path clip-path="url(#pdbe2fdb928)" d="M 343.098333 166.289154 
C 346.017736 166.289154 348.81796 165.129263 350.88229 163.064934 
C 352.94662 161.000604 354.106511 158.200379 354.106511 155.280977 
C 354.106511 152.361574 352.94662 149.561349 350.88229 147.497019 
C 348.81796 145.43269 346.017736 144.272799 343.098333 144.272799 
C 340.17893 144.272799 337.378705 145.43269 335.314376 147.497019 
C 333.250046 149.561349 332.090155 152.361574 332.090155 155.280977 
C 332.090155 158.200379 333.250046 161.000604 335.314376 163.064934 
C 337.378705 165.129263 340.17893 166.289154 343.098333 166.289154 
z
" style="fill:#4c72b0;stroke:#4c72b0;stroke-width:0.3;"/>
    <path clip-path="url(#pdbe2fdb928)" d="M 60.569049 61.382648 
C 60.605129 61.382648 60.639736 61.368314 60.665248 61.342801 
C 60.69076 61.317289 60.705095 61.282683 60.705095 61.246603 
C 60.705095 61.210523 60.69076 61.175917 60.665248 61.150404 
C 60.639736 61.124892 60.605129 61.110558 60.569049 61.110558 
C 60.53297 61.110558 60.498363 61.124892 60.472851 61.150404 
C 60.447339 61.175917 60.433004 61.210523 60.433004 61.246603 
C 60.433004 61.282683 60.447339 61.317289 60.472851 61.342801 
C 60.498363 61.368314 60.53297 61.382648 60.569049 61.382648 
z
" style="fill:#4c72b0;stroke:#4c72b0;stroke-width:0.3;"/>
    <path clip-path="url(#pdbe2fdb928)" d="M 454.209091 271.428938 
C 454.716789 271.428938 455.203762 271.227227 455.562759 270.86823 
C 455.921757 270.509233 456.123467 270.02226 456.123467 269.514562 
C 456.123467 269.006863 455.921757 268.51989 455.562759 268.160893 
C 455.203762 267.801896 454.716789 267.600185 454.209091 267.600185 
C 453.701392 267.600185 453.214419 267.801896 452.855422 268.160893 
C 452.496425 268.51989 452.294715 269.006863 452.294715 269.514562 
C 452.294715 270.02226 452.496425 270.509233 452.855422 270.86823 
C 453.214419 271.227227 453.701392 271.428938 454.209091 271.428938 
z
" style="fill:#4c72b0;stroke:#4c72b0;stroke-width:0.3;"/>
    <path clip-path="url(#pdbe2fdb928)" d="M 439.831418 56.857273 
C 441.113334 56.857273 442.342919 56.347962 443.249371 55.44151 
C 444.155823 54.535059 444.665133 53.305474 444.665133 52.023557 
C 444.665133 50.741641 444.155823 49.512056 443.249371 48.605604 
C 442.342919 47.699152 441.113334 47.189842 439.831418 47.189842 
C 438.549501 47.189842 437.319916 47.699152 436.413465 48.605604 
C 435.507013 49.512056 434.997702 50.741641 434.997702 52.023557 
C 434.997702 53.305474 435.507013 54.535059 436.413465 55.44151 
C 437.319916 56.347962 438.549501 56.857273 439.831418 56.857273 
z
" style="fill:#4c72b0;stroke:#4c72b0;stroke-width:0.3;"/>
    <path clip-path="url(#pdbe2fdb928)" d="M 256.606372 82.907285 
C 258.23058 82.907285 259.788484 82.26198 260.936972 81.113492 
C 262.085461 79.965003 262.730766 78.4071 262.730766 76.782892 
C 262.730766 75.158684 262.085461 73.60078 260.936972 72.452292 
C 259.788484 71.303803 258.23058 70.658499 256.606372 70.658499 
C 254.982164 70.658499 253.424261 71.303803 252.275772 72.452292 
C 251.127284 73.60078 250.481979 75.158684 250.481979 76.782892 
C 250.481979 78.4071 251.127284 79.965003 252.275772 81.113492 
C 253.424261 82.26198 254.982164 82.907285 256.606372 82.907285 
z
" style="fill:#4c72b0;stroke:#4c72b0;stroke-width:0.3;"/>
    <path clip-path="url(#pdbe2fdb928)" d="M 202.941971 118.544075 
C 203.117013 118.544075 203.284909 118.47453 203.408682 118.350757 
C 203.532455 118.226984 203.602 118.059088 203.602 117.884046 
C 203.602 117.709005 203.532455 117.541109 203.408682 117.417335 
C 203.284909 117.293562 203.117013 117.224017 202.941971 117.224017 
C 202.76693 117.224017 202.599034 117.293562 202.47526 117.417335 
C 202.351487 117.541109 202.281942 117.709005 202.281942 117.884046 
C 202.281942 118.059088 202.351487 118.226984 202.47526 118.350757 
C 202.599034 118.47453 202.76693 118.544075 202.941971 118.544075 
z
" style="fill:#4c72b0;stroke:#4c72b0;stroke-width:0.3;"/>
    <path clip-path="url(#pdbe2fdb928)" d="M 343.846612 295.224809 
C 346.685596 295.224809 349.408685 294.096869 351.41615 292.089404 
C 353.423615 290.081939 354.551555 287.35885 354.551555 284.519866 
C 354.551555 281.680882 353.423615 278.957794 351.41615 276.950329 
C 349.408685 274.942864 346.685596 273.814924 343.846612 273.814924 
C 341.007628 273.814924 338.28454 274.942864 336.277075 276.950329 
C 334.26961 278.957794 333.14167 281.680882 333.14167 284.519866 
C 333.14167 287.35885 334.26961 290.081939 336.277075 292.089404 
C 338.28454 294.096869 341.007628 295.224809 343.846612 295.224809 
z
" style="fill:#4c72b0;stroke:#4c72b0;stroke-width:0.3;"/>
    <path clip-path="url(#pdbe2fdb928)" d="M 379.782745 84.473145 
C 380.460543 84.473145 381.110672 84.203853 381.589948 83.724577 
C 382.069224 83.245301 382.338516 82.595172 382.338516 81.917373 
C 382.338516 81.239575 382.069224 80.589446 381.589948 80.11017 
C 381.110672 79.630894 380.460543 79.361602 379.782745 79.361602 
C 379.104946 79.361602 378.454817 79.630894 377.975542 80.11017 
C 377.496266 80.589446 377.226973 81.239575 377.226973 81.917373 
C 377.226973 82.595172 377.496266 83.245301 377.975542 83.724577 
C 378.454817 84.203853 379.104946 84.473145 379.782745 84.473145 
z
" style="fill:#4c72b0;stroke:#4c72b0;stroke-width:0.3;"/>
    <path clip-path="url(#pdbe2fdb928)" d="M 49.076078 286.442816 
C 51.594013 286.442816 54.009159 285.44243 55.789608 283.661981 
C 57.570057 281.881532 58.570443 279.466386 58.570443 276.948451 
C 58.570443 274.430515 57.570057 272.015369 55.789608 270.23492 
C 54.009159 268.454471 51.594013 267.454085 49.076078 267.454085 
C 46.558142 267.454085 44.142996 268.454471 42.362547 270.23492 
C 40.582098 272.015369 39.581712 274.430515 39.581712 276.948451 
C 39.581712 279.466386 40.582098 281.881532 42.362547 283.661981 
C 44.142996 285.44243 46.558142 286.442816 49.076078 286.442816 
z
" style="fill:#4c72b0;stroke:#4c72b0;stroke-width:0.3;"/>
    <path clip-path="url(#pdbe2fdb928)" d="M 121.30634 183.579738 
C 121.307229 183.579738 121.308081 183.579385 121.308709 183.578757 
C 121.309337 183.578129 121.30969 183.577277 121.30969 183.576388 
C 121.30969 183.5755 121.309337 183.574648 121.308709 183.57402 
C 121.308081 183.573391 121.307229 183.573038 121.30634 183.573038 
C 121.305452 183.573038 121.3046 183.573391 121.303971 183.57402 
C 121.303343 183.574648 121.30299 183.5755 121.30299 183.576388 
C 121.30299 183.577277 121.303343 183.578129 121.303971 183.578757 
C 121.3046 183.579385 121.305452 183.579738 121.30634 183.579738 
z
" style="fill:#4c72b0;stroke:#4c72b0;stroke-width:0.3;"/>
    <path clip-path="url(#pdbe2fdb928)" d="M 370.521309 168.007325 
C 371.917699 168.007325 373.257085 167.452533 374.244482 166.465136 
C 375.231879 165.477739 375.786671 164.138354 375.786671 162.741964 
C 375.786671 161.345573 375.231879 160.006188 374.244482 159.018791 
C 373.257085 158.031394 371.917699 157.476602 370.521309 157.476602 
C 369.124919 157.476602 367.785533 158.031394 366.798136 159.018791 
C 365.810739 160.006188 365.255948 161.345573 365.255948 162.741964 
C 365.255948 164.138354 365.810739 165.477739 366.798136 166.465136 
C 367.785533 167.452533 369.124919 168.007325 370.521309 168.007325 
z
" style="fill:#4c72b0;stroke:#4c72b0;stroke-width:0.3;"/>
    <path clip-path="url(#pdbe2fdb928)" d="M 224.746274 221.017403 
C 224.746276 221.017403 224.746279 221.017402 224.74628 221.0174 
C 224.746282 221.017398 224.746283 221.017396 224.746283 221.017393 
C 224.746283 221.017391 224.746282 221.017388 224.74628 221.017387 
C 224.746279 221.017385 224.746276 221.017384 224.746274 221.017384 
C 224.746271 221.017384 224.746269 221.017385 224.746267 221.017387 
C 224.746265 221.017388 224.746264 221.017391 224.746264 221.017393 
C 224.746264 221.017396 224.746265 221.017398 224.746267 221.0174 
C 224.746269 221.017402 224.746271 221.017403 224.746274 221.017403 
z
" style="fill:#4c72b0;stroke:#4c72b0;stroke-width:0.3;"/>
    <path clip-path="url(#pdbe2fdb928)" d="M 370.545268 68.880059 
C 370.545731 68.880059 370.546175 68.879875 370.546502 68.879548 
C 370.546829 68.879221 370.547013 68.878777 370.547013 68.878314 
C 370.547013 68.877851 370.546829 68.877407 370.546502 68.87708 
C 370.546175 68.876752 370.545731 68.876568 370.545268 68.876568 
C 370.544805 68.876568 370.544361 68.876752 370.544034 68.87708 
C 370.543706 68.877407 370.543522 68.877851 370.543522 68.878314 
C 370.543522 68.878777 370.543706 68.879221 370.544034 68.879548 
C 370.544361 68.879875 370.544805 68.880059 370.545268 68.880059 
z
" style="fill:#4c72b0;stroke:#4c72b0;stroke-width:0.3;"/>
    <path clip-path="url(#pdbe2fdb928)" d="M 267.364477 108.668444 
C 267.728721 108.668444 268.078095 108.523728 268.335655 108.266169 
C 268.593214 108.00861 268.737929 107.659236 268.737929 107.294992 
C 268.737929 106.930748 268.593214 106.581374 268.335655 106.323814 
C 268.078095 106.066255 267.728721 105.92154 267.364477 105.92154 
C 267.000233 105.92154 266.650859 106.066255 266.3933 106.323814 
C 266.135741 106.581374 265.991025 106.930748 265.991025 107.294992 
C 265.991025 107.659236 266.135741 108.00861 266.3933 108.266169 
C 266.650859 108.523728 267.000233 108.668444 267.364477 108.668444 
z
" style="fill:#4c72b0;stroke:#4c72b0;stroke-width:0.3;"/>
    <path clip-path="url(#pdbe2fdb928)" d="M 352.339154 177.373784 
C 352.485595 177.373784 352.626057 177.315603 352.729606 177.212054 
C 352.833155 177.108505 352.891337 176.968043 352.891337 176.821602 
C 352.891337 176.675162 352.833155 176.5347 352.729606 176.431151 
C 352.626057 176.327602 352.485595 176.26942 352.339154 176.26942 
C 352.192714 176.26942 352.052252 176.327602 351.948703 176.431151 
C 351.845154 176.5347 351.786972 176.675162 351.786972 176.821602 
C 351.786972 176.968043 351.845154 177.108505 351.948703 177.212054 
C 352.052252 177.315603 352.192714 177.373784 352.339154 177.373784 
z
" style="fill:#4c72b0;stroke:#4c72b0;stroke-width:0.3;"/>
    <path clip-path="url(#pdbe2fdb928)" d="M 448.682134 253.380227 
C 448.709457 253.380227 448.735664 253.369371 448.754985 253.350051 
C 448.774305 253.330731 448.78516 253.304524 448.78516 253.277201 
C 448.78516 253.249878 448.774305 253.223671 448.754985 253.204351 
C 448.735664 253.185031 448.709457 253.174175 448.682134 253.174175 
C 448.654812 253.174175 448.628604 253.185031 448.609284 253.204351 
C 448.589964 253.223671 448.579109 253.249878 448.579109 253.277201 
C 448.579109 253.304524 448.589964 253.330731 448.609284 253.350051 
C 448.628604 253.369371 448.654812 253.380227 448.682134 253.380227 
z
" style="fill:#4c72b0;stroke:#4c72b0;stroke-width:0.3;"/>
    <path clip-path="url(#pdbe2fdb928)" d="M 336.702782 284.787081 
C 336.887797 284.787081 337.065259 284.713574 337.196084 284.582749 
C 337.326909 284.451924 337.400416 284.274462 337.400416 284.089447 
C 337.400416 283.904433 337.326909 283.726971 337.196084 283.596146 
C 337.065259 283.465321 336.887797 283.391814 336.702782 283.391814 
C 336.517768 283.391814 336.340306 283.465321 336.209481 283.596146 
C 336.078656 283.726971 336.005149 283.904433 336.005149 284.089447 
C 336.005149 284.274462 336.078656 284.451924 336.209481 284.582749 
C 336.340306 284.713574 336.517768 284.787081 336.702782 284.787081 
z
" style="fill:#4c72b0;stroke:#4c72b0;stroke-width:0.3;"/>
    <path clip-path="url(#pdbe2fdb928)" d="M 90.789455 235.417697 
C 90.907662 235.417697 91.021043 235.370732 91.104628 235.287148 
C 91.188213 235.203563 91.235177 235.090181 91.235177 234.971974 
C 91.235177 234.853767 91.188213 234.740386 91.104628 234.656801 
C 91.021043 234.573216 90.907662 234.526252 90.789455 234.526252 
C 90.671248 234.526252 90.557866 234.573216 90.474281 234.656801 
C 90.390696 234.740386 90.343732 234.853767 90.343732 234.971974 
C 90.343732 235.090181 90.390696 235.203563 90.474281 235.287148 
C 90.557866 235.370732 90.671248 235.417697 90.789455 235.417697 
z
" style="fill:#4c72b0;stroke:#4c72b0;stroke-width:0.3;"/>
    <path clip-path="url(#pdbe2fdb928)" d="M 148.854596 204.51039 
C 149.811496 204.51039 150.729332 204.13021 151.405962 203.45358 
C 152.082592 202.776949 152.462772 201.859113 152.462772 200.902214 
C 152.462772 199.945314 152.082592 199.027478 151.405962 198.350848 
C 150.729332 197.674217 149.811496 197.294037 148.854596 197.294037 
C 147.897697 197.294037 146.97986 197.674217 146.30323 198.350848 
C 145.6266 199.027478 145.24642 199.945314 145.24642 200.902214 
C 145.24642 201.859113 145.6266 202.776949 146.30323 203.45358 
C 146.97986 204.13021 147.897697 204.51039 148.854596 204.51039 
z
" style="fill:#4c72b0;stroke:#4c72b0;stroke-width:0.3;"/>
    <path clip-path="url(#pdbe2fdb928)" d="M 272.814968 221.625497 
C 273.083289 221.625497 273.340658 221.518891 273.53039 221.329159 
C 273.720122 221.139427 273.826728 220.882059 273.826728 220.613737 
C 273.826728 220.345415 273.720122 220.088046 273.53039 219.898314 
C 273.340658 219.708582 273.083289 219.601976 272.814968 219.601976 
C 272.546646 219.601976 272.289277 219.708582 272.099545 219.898314 
C 271.909813 220.088046 271.803207 220.345415 271.803207 220.613737 
C 271.803207 220.882059 271.909813 221.139427 272.099545 221.329159 
C 272.289277 221.518891 272.546646 221.625497 272.814968 221.625497 
z
" style="fill:#4c72b0;stroke:#4c72b0;stroke-width:0.3;"/>
    <path clip-path="url(#pdbe2fdb928)" d="M 413.01629 205.010623 
C 413.016339 205.010623 413.016387 205.010603 413.016422 205.010568 
C 413.016456 205.010533 413.016476 205.010486 413.016476 205.010437 
C 413.016476 205.010387 413.016456 205.01034 413.016422 205.010305 
C 413.016387 205.01027 413.016339 205.010251 413.01629 205.010251 
C 413.016241 205.010251 413.016193 205.01027 413.016159 205.010305 
C 413.016124 205.01034 413.016104 205.010387 413.016104 205.010437 
C 413.016104 205.010486 413.016124 205.010533 413.016159 205.010568 
C 413.016193 205.010603 413.016241 205.010623 413.01629 205.010623 
z
" style="fill:#4c72b0;stroke:#4c72b0;stroke-width:0.3;"/>
    <path clip-path="url(#pdbe2fdb928)" d="M 445.980796 254.068318 
C 446.107967 254.068318 446.229946 254.017792 446.319869 253.927869 
C 446.409792 253.837946 446.460318 253.715966 446.460318 253.588796 
C 446.460318 253.461625 446.409792 253.339646 446.319869 253.249722 
C 446.229946 253.159799 446.107967 253.109274 445.980796 253.109274 
C 445.853625 253.109274 445.731646 253.159799 445.641723 253.249722 
C 445.551799 253.339646 445.501274 253.461625 445.501274 253.588796 
C 445.501274 253.715966 445.551799 253.837946 445.641723 253.927869 
C 445.731646 254.017792 445.853625 254.068318 445.980796 254.068318 
z
" style="fill:#4c72b0;stroke:#4c72b0;stroke-width:0.3;"/>
    <path clip-path="url(#pdbe2fdb928)" d="M 107.247345 133.561371 
C 108.065509 133.561371 108.850274 133.236311 109.428803 132.657781 
C 110.007333 132.079252 110.332393 131.294487 110.332393 130.476323 
C 110.332393 129.658159 110.007333 128.873395 109.428803 128.294865 
C 108.850274 127.716336 108.065509 127.391276 107.247345 127.391276 
C 106.429181 127.391276 105.644416 127.716336 105.065887 128.294865 
C 104.487358 128.873395 104.162298 129.658159 104.162298 130.476323 
C 104.162298 131.294487 104.487358 132.079252 105.065887 132.657781 
C 105.644416 133.236311 106.429181 133.561371 107.247345 133.561371 
z
" style="fill:#4c72b0;stroke:#4c72b0;stroke-width:0.3;"/>
    <path clip-path="url(#pdbe2fdb928)" d="M 272.211219 296.518884 
C 273.253171 296.518884 274.252588 296.104912 274.989359 295.36814 
C 275.726131 294.631369 276.140103 293.631952 276.140103 292.59 
C 276.140103 291.548048 275.726131 290.548631 274.989359 289.81186 
C 274.252588 289.075088 273.253171 288.661116 272.211219 288.661116 
C 271.169267 288.661116 270.16985 289.075088 269.433079 289.81186 
C 268.696307 290.548631 268.282335 291.548048 268.282335 292.59 
C 268.282335 293.631952 268.696307 294.631369 269.433079 295.36814 
C 270.16985 296.104912 271.169267 296.518884 272.211219 296.518884 
z
" style="fill:#4c72b0;stroke:#4c72b0;stroke-width:0.3;"/>
    <path clip-path="url(#pdbe2fdb928)" d="M 330.017846 58.785518 
C 330.018361 58.785518 330.018855 58.785313 330.019219 58.784949 
C 330.019584 58.784585 330.019789 58.78409 330.019789 58.783575 
C 330.019789 58.78306 330.019584 58.782566 330.019219 58.782201 
C 330.018855 58.781837 330.018361 58.781632 330.017846 58.781632 
C 330.01733 58.781632 330.016836 58.781837 330.016472 58.782201 
C 330.016107 58.782566 330.015903 58.78306 330.015903 58.783575 
C 330.015903 58.78409 330.016107 58.784585 330.016472 58.784949 
C 330.016836 58.785313 330.01733 58.785518 330.017846 58.785518 
z
" style="fill:#4c72b0;stroke:#4c72b0;stroke-width:0.3;"/>
    <path clip-path="url(#pdbe2fdb928)" d="M 284.072947 28.075904 
C 284.094233 28.075904 284.114649 28.067447 284.1297 28.052396 
C 284.144751 28.037345 284.153208 28.016929 284.153208 27.995643 
C 284.153208 27.974358 284.144751 27.953941 284.1297 27.93889 
C 284.114649 27.923839 284.094233 27.915382 284.072947 27.915382 
C 284.051662 27.915382 284.031245 27.923839 284.016194 27.93889 
C 284.001143 27.953941 283.992686 27.974358 283.992686 27.995643 
C 283.992686 28.016929 284.001143 28.037345 284.016194 28.052396 
C 284.031245 28.067447 284.051662 28.075904 284.072947 28.075904 
z
" style="fill:#4c72b0;stroke:#4c72b0;stroke-width:0.3;"/>
    <path clip-path="url(#pdbe2fdb928)" d="M 417.16152 49.121829 
C 419.751423 49.121829 422.235599 48.09285 424.066938 46.261512 
C 425.898276 44.430173 426.927255 41.945997 426.927255 39.356094 
C 426.927255 36.766191 425.898276 34.282014 424.066938 32.450676 
C 422.235599 30.619338 419.751423 29.590358 417.16152 29.590358 
C 414.571617 29.590358 412.08744 30.619338 410.256102 32.450676 
C 408.424764 34.282014 407.395784 36.766191 407.395784 39.356094 
C 407.395784 41.945997 408.424764 44.430173 410.256102 46.261512 
C 412.08744 48.09285 414.571617 49.121829 417.16152 49.121829 
z
" style="fill:#4c72b0;stroke:#4c72b0;stroke-width:0.3;"/>
    <path clip-path="url(#pdbe2fdb928)" d="M 191.951206 214.591522 
C 192.698292 214.591522 193.41488 214.294701 193.94315 213.766431 
C 194.47142 213.238161 194.768241 212.521573 194.768241 211.774487 
C 194.768241 211.0274 194.47142 210.310812 193.94315 209.782542 
C 193.41488 209.254272 192.698292 208.957452 191.951206 208.957452 
C 191.204119 208.957452 190.487531 209.254272 189.959261 209.782542 
C 189.430991 210.310812 189.134171 211.0274 189.134171 211.774487 
C 189.134171 212.521573 189.430991 213.238161 189.959261 213.766431 
C 190.487531 214.294701 191.204119 214.591522 191.951206 214.591522 
z
" style="fill:#4c72b0;stroke:#4c72b0;stroke-width:0.3;"/>
    <path clip-path="url(#pdbe2fdb928)" d="M 202.687638 137.031655 
C 202.71471 137.031655 202.740677 137.020899 202.759819 137.001757 
C 202.778962 136.982614 202.789717 136.956648 202.789717 136.929576 
C 202.789717 136.902504 202.778962 136.876538 202.759819 136.857395 
C 202.740677 136.838252 202.71471 136.827497 202.687638 136.827497 
C 202.660566 136.827497 202.6346 136.838252 202.615457 136.857395 
C 202.596315 136.876538 202.585559 136.902504 202.585559 136.929576 
C 202.585559 136.956648 202.596315 136.982614 202.615457 137.001757 
C 202.6346 137.020899 202.660566 137.031655 202.687638 137.031655 
z
" style="fill:#4c72b0;stroke:#4c72b0;stroke-width:0.3;"/>
    <path clip-path="url(#pdbe2fdb928)" d="M 308.192444 23.970478 
C 309.035916 23.970478 309.844956 23.635363 310.441381 23.038937 
C 311.037806 22.442512 311.372922 21.633473 311.372922 20.79 
C 311.372922 19.946527 311.037806 19.137488 310.441381 18.541063 
C 309.844956 17.944637 309.035916 17.609522 308.192444 17.609522 
C 307.348971 17.609522 306.539931 17.944637 305.943506 18.541063 
C 305.347081 19.137488 305.011966 19.946527 305.011966 20.79 
C 305.011966 21.633473 305.347081 22.442512 305.943506 23.038937 
C 306.539931 23.635363 307.348971 23.970478 308.192444 23.970478 
z
" style="fill:#4c72b0;stroke:#4c72b0;stroke-width:0.3;"/>
    <path clip-path="url(#pdbe2fdb928)" d="M 308.24123 177.246714 
C 310.551288 177.246714 312.767042 176.328918 314.4005 174.695461 
C 316.033957 173.062003 316.951753 170.846249 316.951753 168.536191 
C 316.951753 166.226133 316.033957 164.010379 314.4005 162.376921 
C 312.767042 160.743464 310.551288 159.825668 308.24123 159.825668 
C 305.931172 159.825668 303.715418 160.743464 302.08196 162.376921 
C 300.448503 164.010379 299.530707 166.226133 299.530707 168.536191 
C 299.530707 170.846249 300.448503 173.062003 302.08196 174.695461 
C 303.715418 176.328918 305.931172 177.246714 308.24123 177.246714 
z
" style="fill:#4c72b0;stroke:#4c72b0;stroke-width:0.3;"/>
    <path clip-path="url(#pdbe2fdb928)" d="M 376.841885 288.641978 
C 376.972867 288.641978 377.098503 288.589938 377.191121 288.497319 
C 377.28374 288.404701 377.33578 288.279065 377.33578 288.148083 
C 377.33578 288.0171 377.28374 287.891465 377.191121 287.798846 
C 377.098503 287.706227 376.972867 287.654187 376.841885 287.654187 
C 376.710902 287.654187 376.585267 287.706227 376.492648 287.798846 
C 376.400029 287.891465 376.34799 288.0171 376.34799 288.148083 
C 376.34799 288.279065 376.400029 288.404701 376.492648 288.497319 
C 376.585267 288.589938 376.710902 288.641978 376.841885 288.641978 
z
" style="fill:#4c72b0;stroke:#4c72b0;stroke-width:0.3;"/>
    <path clip-path="url(#pdbe2fdb928)" d="M 126.92965 135.75203 
C 127.221265 135.75203 127.500975 135.63617 127.707177 135.429968 
C 127.91338 135.223765 128.02924 134.944055 128.02924 134.65244 
C 128.02924 134.360826 127.91338 134.081116 127.707177 133.874913 
C 127.500975 133.66871 127.221265 133.552851 126.92965 133.552851 
C 126.638035 133.552851 126.358325 133.66871 126.152123 133.874913 
C 125.94592 134.081116 125.83006 134.360826 125.83006 134.65244 
C 125.83006 134.944055 125.94592 135.223765 126.152123 135.429968 
C 126.358325 135.63617 126.638035 135.75203 126.92965 135.75203 
z
" style="fill:#4c72b0;stroke:#4c72b0;stroke-width:0.3;"/>
    <path clip-path="url(#pdbe2fdb928)" d="M 130.038509 62.36245 
C 131.538096 62.36245 132.976466 61.766658 134.036835 60.706289 
C 135.097203 59.645921 135.692996 58.207551 135.692996 56.707963 
C 135.692996 55.208376 135.097203 53.770006 134.036835 52.709638 
C 132.976466 51.649269 131.538096 51.053477 130.038509 51.053477 
C 128.538922 51.053477 127.100552 51.649269 126.040183 52.709638 
C 124.979815 53.770006 124.384023 55.208376 124.384023 56.707963 
C 124.384023 58.207551 124.979815 59.645921 126.040183 60.706289 
C 127.100552 61.766658 128.538922 62.36245 130.038509 62.36245 
z
" style="fill:#4c72b0;stroke:#4c72b0;stroke-width:0.3;"/>
    <path clip-path="url(#pdbe2fdb928)" d="M 115.761211 103.828748 
C 117.292227 103.828748 118.760743 103.220468 119.843334 102.137877 
C 120.925926 101.055285 121.534205 99.58677 121.534205 98.055754 
C 121.534205 96.524738 120.925926 95.056222 119.843334 93.973631 
C 118.760743 92.891039 117.292227 92.28276 115.761211 92.28276 
C 114.230196 92.28276 112.76168 92.891039 111.679088 93.973631 
C 110.596497 95.056222 109.988218 96.524738 109.988218 98.055754 
C 109.988218 99.58677 110.596497 101.055285 111.679088 102.137877 
C 112.76168 103.220468 114.230196 103.828748 115.761211 103.828748 
z
" style="fill:#4c72b0;stroke:#4c72b0;stroke-width:0.3;"/>
    <path clip-path="url(#pdbe2fdb928)" d="M 98.960343 265.543492 
C 99.305737 265.543492 99.63703 265.406266 99.88126 265.162036 
C 100.125489 264.917806 100.262716 264.586513 100.262716 264.24112 
C 100.262716 263.895726 100.125489 263.564433 99.88126 263.320203 
C 99.63703 263.075974 99.305737 262.938747 98.960343 262.938747 
C 98.61495 262.938747 98.283657 263.075974 98.039427 263.320203 
C 97.795197 263.564433 97.657971 263.895726 97.657971 264.24112 
C 97.657971 264.586513 97.795197 264.917806 98.039427 265.162036 
C 98.283657 265.406266 98.61495 265.543492 98.960343 265.543492 
z
" style="fill:#4c72b0;stroke:#4c72b0;stroke-width:0.3;"/>
    <path clip-path="url(#pdbe2fdb928)" d="M 115.741536 35.494989 
C 117.18328 35.494989 118.566168 34.922178 119.585635 33.902711 
C 120.605102 32.883244 121.177913 31.500356 121.177913 30.058612 
C 121.177913 28.616868 120.605102 27.23398 119.585635 26.214513 
C 118.566168 25.195046 117.18328 24.622235 115.741536 24.622235 
C 114.299792 24.622235 112.916904 25.195046 111.897437 26.214513 
C 110.87797 27.23398 110.305159 28.616868 110.305159 30.058612 
C 110.305159 31.500356 110.87797 32.883244 111.897437 33.902711 
C 112.916904 34.922178 114.299792 35.494989 115.741536 35.494989 
z
" style="fill:#4c72b0;stroke:#4c72b0;stroke-width:0.3;"/>
    <path clip-path="url(#pdbe2fdb928)" d="M 202.469002 209.4796 
C 202.515876 209.4796 202.560837 209.460977 202.593982 209.427832 
C 202.627127 209.394687 202.64575 209.349726 202.64575 209.302852 
C 202.64575 209.255978 202.627127 209.211017 202.593982 209.177872 
C 202.560837 209.144727 202.515876 209.126103 202.469002 209.126103 
C 202.422128 209.126103 202.377167 209.144727 202.344022 209.177872 
C 202.310877 209.211017 202.292253 209.255978 202.292253 209.302852 
C 202.292253 209.349726 202.310877 209.394687 202.344022 209.427832 
C 202.377167 209.460977 202.422128 209.4796 202.469002 209.4796 
z
" style="fill:#4c72b0;stroke:#4c72b0;stroke-width:0.3;"/>
    <path clip-path="url(#pdbe2fdb928)" d="M 202.789256 49.139205 
C 203.505369 49.139205 204.192248 48.85469 204.698616 48.348322 
C 205.204984 47.841954 205.489499 47.155075 205.489499 46.438962 
C 205.489499 45.722849 205.204984 45.03597 204.698616 44.529602 
C 204.192248 44.023234 203.505369 43.738719 202.789256 43.738719 
C 202.073143 43.738719 201.386264 44.023234 200.879896 44.529602 
C 200.373528 45.03597 200.089013 45.722849 200.089013 46.438962 
C 200.089013 47.155075 200.373528 47.841954 200.879896 48.348322 
C 201.386264 48.85469 202.073143 49.139205 202.789256 49.139205 
z
" style="fill:#4c72b0;stroke:#4c72b0;stroke-width:0.3;"/>
    <path clip-path="url(#pdbe2fdb928)" d="M 453.791147 241.658326 
C 453.947584 241.658326 454.097636 241.596173 454.208253 241.485555 
C 454.318871 241.374937 454.381024 241.224886 454.381024 241.068449 
C 454.381024 240.912012 454.318871 240.76196 454.208253 240.651343 
C 454.097636 240.540725 453.947584 240.478572 453.791147 240.478572 
C 453.63471 240.478572 453.484659 240.540725 453.374041 240.651343 
C 453.263423 240.76196 453.20127 240.912012 453.20127 241.068449 
C 453.20127 241.224886 453.263423 241.374937 453.374041 241.485555 
C 453.484659 241.596173 453.63471 241.658326 453.791147 241.658326 
z
" style="fill:#4c72b0;stroke:#4c72b0;stroke-width:0.3;"/>
    <path clip-path="url(#pdbe2fdb928)" d="M 325.989736 249.031447 
C 328.842172 249.031447 331.578165 247.898162 333.595142 245.881184 
C 335.61212 243.864207 336.745405 241.128214 336.745405 238.275777 
C 336.745405 235.42334 335.61212 232.687348 333.595142 230.670371 
C 331.578165 228.653393 328.842172 227.520108 325.989736 227.520108 
C 323.137299 227.520108 320.401306 228.653393 318.384329 230.670371 
C 316.367351 232.687348 315.234066 235.42334 315.234066 238.275777 
C 315.234066 241.128214 316.367351 243.864207 318.384329 245.881184 
C 320.401306 247.898162 323.137299 249.031447 325.989736 249.031447 
z
" style="fill:#4c72b0;stroke:#4c72b0;stroke-width:0.3;"/>
    <path clip-path="url(#pdbe2fdb928)" d="M 355.314446 228.482905 
C 357.804834 228.482905 360.193557 227.493464 361.954528 225.732493 
C 363.715498 223.971523 364.70494 221.5828 364.70494 219.092412 
C 364.70494 216.602024 363.715498 214.2133 361.954528 212.45233 
C 360.193557 210.69136 357.804834 209.701918 355.314446 209.701918 
C 352.824058 209.701918 350.435335 210.69136 348.674364 212.45233 
C 346.913394 214.2133 345.923952 216.602024 345.923952 219.092412 
C 345.923952 221.5828 346.913394 223.971523 348.674364 225.732493 
C 350.435335 227.493464 352.824058 228.482905 355.314446 228.482905 
z
" style="fill:#4c72b0;stroke:#4c72b0;stroke-width:0.3;"/>
    <path clip-path="url(#pdbe2fdb928)" d="M 175.442707 111.692941 
C 176.410937 111.692941 177.33964 111.308259 178.024282 110.623618 
C 178.708924 109.938976 179.093605 109.010272 179.093605 108.042043 
C 179.093605 107.073814 178.708924 106.14511 178.024282 105.460468 
C 177.33964 104.775827 176.410937 104.391145 175.442707 104.391145 
C 174.474478 104.391145 173.545774 104.775827 172.861132 105.460468 
C 172.176491 106.14511 171.791809 107.073814 171.791809 108.042043 
C 171.791809 109.010272 172.176491 109.938976 172.861132 110.623618 
C 173.545774 111.308259 174.474478 111.692941 175.442707 111.692941 
z
" style="fill:#4c72b0;stroke:#4c72b0;stroke-width:0.3;"/>
    <path clip-path="url(#pdbe2fdb928)" d="M 139.568934 235.124141 
C 140.953988 235.124141 142.282501 234.573853 143.261882 233.594472 
C 144.241263 232.615091 144.791551 231.286578 144.791551 229.901524 
C 144.791551 228.51647 144.241263 227.187957 143.261882 226.208576 
C 142.282501 225.229195 140.953988 224.678907 139.568934 224.678907 
C 138.18388 224.678907 136.855367 225.229195 135.875986 226.208576 
C 134.896605 227.187957 134.346317 228.51647 134.346317 229.901524 
C 134.346317 231.286578 134.896605 232.615091 135.875986 233.594472 
C 136.855367 234.573853 138.18388 235.124141 139.568934 235.124141 
z
" style="fill:#4c72b0;stroke:#4c72b0;stroke-width:0.3;"/>
    <path clip-path="url(#pdbe2fdb928)" d="M 269.255858 152.423763 
C 269.287301 152.423763 269.317461 152.41127 269.339694 152.389037 
C 269.361928 152.366803 269.37442 152.336644 269.37442 152.305201 
C 269.37442 152.273758 269.361928 152.243598 269.339694 152.221365 
C 269.317461 152.199131 269.287301 152.186639 269.255858 152.186639 
C 269.224415 152.186639 269.194256 152.199131 269.172022 152.221365 
C 269.149789 152.243598 269.137296 152.273758 269.137296 152.305201 
C 269.137296 152.336644 269.149789 152.366803 269.172022 152.389037 
C 269.194256 152.41127 269.224415 152.423763 269.255858 152.423763 
z
" style="fill:#4c72b0;stroke:#4c72b0;stroke-width:0.3;"/>
    <path clip-path="url(#pdbe2fdb928)" d="M 396.331049 198.638485 
C 398.473795 198.638485 400.529068 197.787163 402.044218 196.272012 
C 403.559369 194.756862 404.410691 192.701589 404.410691 190.558843 
C 404.410691 188.416097 403.559369 186.360823 402.044218 184.845673 
C 400.529068 183.330523 398.473795 182.479201 396.331049 182.479201 
C 394.188302 182.479201 392.133029 183.330523 390.617879 184.845673 
C 389.102729 186.360823 388.251407 188.416097 388.251407 190.558843 
C 388.251407 192.701589 389.102729 194.756862 390.617879 196.272012 
C 392.133029 197.787163 394.188302 198.638485 396.331049 198.638485 
z
" style="fill:#4c72b0;stroke:#4c72b0;stroke-width:0.3;"/>
    <path clip-path="url(#pdbe2fdb928)" d="M 347.117493 76.863929 
C 348.916363 76.863929 350.641799 76.149231 351.913792 74.877237 
C 353.185786 73.605244 353.900484 71.879808 353.900484 70.080938 
C 353.900484 68.282067 353.185786 66.556632 351.913792 65.284638 
C 350.641799 64.012645 348.916363 63.297946 347.117493 63.297946 
C 345.318622 63.297946 343.593187 64.012645 342.321193 65.284638 
C 341.0492 66.556632 340.334501 68.282067 340.334501 70.080938 
C 340.334501 71.879808 341.0492 73.605244 342.321193 74.877237 
C 343.593187 76.149231 345.318622 76.863929 347.117493 76.863929 
z
" style="fill:#4c72b0;stroke:#4c72b0;stroke-width:0.3;"/>
    <path clip-path="url(#pdbe2fdb928)" d="M 360.623626 250.12135 
C 360.656791 250.12135 360.688601 250.108173 360.712052 250.084723 
C 360.735503 250.061272 360.74868 250.029461 360.74868 249.996296 
C 360.74868 249.963132 360.735503 249.931321 360.712052 249.90787 
C 360.688601 249.884419 360.656791 249.871243 360.623626 249.871243 
C 360.590461 249.871243 360.558651 249.884419 360.5352 249.90787 
C 360.511749 249.931321 360.498572 249.963132 360.498572 249.996296 
C 360.498572 250.029461 360.511749 250.061272 360.5352 250.084723 
C 360.558651 250.108173 360.590461 250.12135 360.623626 250.12135 
z
" style="fill:#4c72b0;stroke:#4c72b0;stroke-width:0.3;"/>
    <path clip-path="url(#pdbe2fdb928)" d="M 223.542474 251.189657 
C 223.559372 251.189657 223.57558 251.182943 223.587529 251.170994 
C 223.599478 251.159046 223.606191 251.142837 223.606191 251.125939 
C 223.606191 251.109041 223.599478 251.092833 223.587529 251.080884 
C 223.57558 251.068935 223.559372 251.062222 223.542474 251.062222 
C 223.525576 251.062222 223.509368 251.068935 223.497419 251.080884 
C 223.48547 251.092833 223.478756 251.109041 223.478756 251.125939 
C 223.478756 251.142837 223.48547 251.159046 223.497419 251.170994 
C 223.509368 251.182943 223.525576 251.189657 223.542474 251.189657 
z
" style="fill:#4c72b0;stroke:#4c72b0;stroke-width:0.3;"/>
    <path clip-path="url(#pdbe2fdb928)" d="M 230.582438 90.835325 
C 232.198658 90.835325 233.7489 90.193194 234.89174 89.050354 
C 236.034581 87.907513 236.676712 86.357271 236.676712 84.741051 
C 236.676712 83.124831 236.034581 81.574589 234.89174 80.431749 
C 233.7489 79.288908 232.198658 78.646777 230.582438 78.646777 
C 228.966217 78.646777 227.415976 79.288908 226.273135 80.431749 
C 225.130295 81.574589 224.488164 83.124831 224.488164 84.741051 
C 224.488164 86.357271 225.130295 87.907513 226.273135 89.050354 
C 227.415976 90.193194 228.966217 90.835325 230.582438 90.835325 
z
" style="fill:#4c72b0;stroke:#4c72b0;stroke-width:0.3;"/>
    <path clip-path="url(#pdbe2fdb928)" d="M 112.776518 187.966921 
C 115.522861 187.966921 118.15709 186.875788 120.099048 184.93383 
C 122.041005 182.991873 123.132139 180.357644 123.132139 177.611301 
C 123.132139 174.864958 122.041005 172.230729 120.099048 170.288771 
C 118.15709 168.346814 115.522861 167.25568 112.776518 167.25568 
C 110.030176 167.25568 107.395946 168.346814 105.453989 170.288771 
C 103.512031 172.230729 102.420898 174.864958 102.420898 177.611301 
C 102.420898 180.357644 103.512031 182.991873 105.453989 184.93383 
C 107.395946 186.875788 110.030176 187.966921 112.776518 187.966921 
z
" style="fill:#4c72b0;stroke:#4c72b0;stroke-width:0.3;"/>
    <path clip-path="url(#pdbe2fdb928)" d="M 314.636225 217.144053 
C 317.118323 217.144053 319.499095 216.157905 321.254204 214.402796 
C 323.009312 212.647688 323.99546 210.266916 323.99546 207.784818 
C 323.99546 205.302719 323.009312 202.921948 321.254204 201.166839 
C 319.499095 199.411731 317.118323 198.425583 314.636225 198.425583 
C 312.154127 198.425583 309.773355 199.411731 308.018246 201.166839 
C 306.263138 202.921948 305.27699 205.302719 305.27699 207.784818 
C 305.27699 210.266916 306.263138 212.647688 308.018246 214.402796 
C 309.773355 216.157905 312.154127 217.144053 314.636225 217.144053 
z
" style="fill:#4c72b0;stroke:#4c72b0;stroke-width:0.3;"/>
    <path clip-path="url(#pdbe2fdb928)" d="M 145.749419 105.972808 
C 147.345207 105.972808 148.87585 105.338795 150.004243 104.210402 
C 151.132635 103.08201 151.766648 101.551367 151.766648 99.955579 
C 151.766648 98.359791 151.132635 96.829148 150.004243 95.700756 
C 148.87585 94.572363 147.345207 93.93835 145.749419 93.93835 
C 144.153631 93.93835 142.622988 94.572363 141.494596 95.700756 
C 140.366203 96.829148 139.73219 98.359791 139.73219 99.955579 
C 139.73219 101.551367 140.366203 103.08201 141.494596 104.210402 
C 142.622988 105.338795 144.153631 105.972808 145.749419 105.972808 
z
" style="fill:#4c72b0;stroke:#4c72b0;stroke-width:0.3;"/>
    <path clip-path="url(#pdbe2fdb928)" d="M 308.081828 250.170055 
C 308.084283 250.170055 308.086639 250.169079 308.088376 250.167343 
C 308.090112 250.165606 308.091088 250.16325 308.091088 250.160795 
C 308.091088 250.158339 308.090112 250.155983 308.088376 250.154246 
C 308.086639 250.15251 308.084283 250.151534 308.081828 250.151534 
C 308.079372 250.151534 308.077016 250.15251 308.075279 250.154246 
C 308.073543 250.155983 308.072567 250.158339 308.072567 250.160795 
C 308.072567 250.16325 308.073543 250.165606 308.075279 250.167343 
C 308.077016 250.169079 308.079372 250.170055 308.081828 250.170055 
z
" style="fill:#4c72b0;stroke:#4c72b0;stroke-width:0.3;"/>
    <path clip-path="url(#pdbe2fdb928)" d="M 360.916687 276.293693 
C 362.217015 276.293693 363.464259 275.777067 364.38373 274.857597 
C 365.3032 273.938126 365.819826 272.690882 365.819826 271.390554 
C 365.819826 270.090227 365.3032 268.842982 364.38373 267.923512 
C 363.464259 267.004042 362.217015 266.487416 360.916687 266.487416 
C 359.61636 266.487416 358.369116 267.004042 357.449645 267.923512 
C 356.530175 268.842982 356.013549 270.090227 356.013549 271.390554 
C 356.013549 272.690882 356.530175 273.938126 357.449645 274.857597 
C 358.369116 275.777067 359.61636 276.293693 360.916687 276.293693 
z
" style="fill:#4c72b0;stroke:#4c72b0;stroke-width:0.3;"/>
    <path clip-path="url(#pdbe2fdb928)" d="M 146.842256 197.018046 
C 147.181806 197.018046 147.507494 196.883142 147.747592 196.643044 
C 147.98769 196.402946 148.122595 196.077258 148.122595 195.737708 
C 148.122595 195.398158 147.98769 195.07247 147.747592 194.832372 
C 147.507494 194.592274 147.181806 194.45737 146.842256 194.45737 
C 146.502707 194.45737 146.177018 194.592274 145.93692 194.832372 
C 145.696822 195.07247 145.561918 195.398158 145.561918 195.737708 
C 145.561918 196.077258 145.696822 196.402946 145.93692 196.643044 
C 146.177018 196.883142 146.502707 197.018046 146.842256 197.018046 
z
" style="fill:#4c72b0;stroke:#4c72b0;stroke-width:0.3;"/>
    <path clip-path="url(#pdbe2fdb928)" d="M 83.363867 60.769598 
C 84.385216 60.769598 85.364871 60.363811 86.087074 59.641608 
C 86.809277 58.919405 87.215064 57.93975 87.215064 56.918401 
C 87.215064 55.897052 86.809277 54.917397 86.087074 54.195194 
C 85.364871 53.472991 84.385216 53.067204 83.363867 53.067204 
C 82.342518 53.067204 81.362863 53.472991 80.64066 54.195194 
C 79.918457 54.917397 79.51267 55.897052 79.51267 56.918401 
C 79.51267 57.93975 79.918457 58.919405 80.64066 59.641608 
C 81.362863 60.363811 82.342518 60.769598 83.363867 60.769598 
z
" style="fill:#4c72b0;stroke:#4c72b0;stroke-width:0.3;"/>
    <path clip-path="url(#pdbe2fdb928)" d="M 48.390909 248.488375 
C 48.960872 248.488375 49.507567 248.261926 49.910592 247.858901 
C 50.313617 247.455877 50.540065 246.909181 50.540065 246.339218 
C 50.540065 245.769255 50.313617 245.22256 49.910592 244.819535 
C 49.507567 244.41651 48.960872 244.190062 48.390909 244.190062 
C 47.820946 244.190062 47.274251 244.41651 46.871226 244.819535 
C 46.468201 245.22256 46.241753 245.769255 46.241753 246.339218 
C 46.241753 246.909181 46.468201 247.455877 46.871226 247.858901 
C 47.274251 248.261926 47.820946 248.488375 48.390909 248.488375 
z
" style="fill:#4c72b0;stroke:#4c72b0;stroke-width:0.3;"/>
    <path clip-path="url(#pdbe2fdb928)" d="M 112.231979 181.316646 
C 113.151537 181.316646 114.033556 180.951302 114.683781 180.301076 
C 115.334007 179.65085 115.699351 178.768831 115.699351 177.849273 
C 115.699351 176.929715 115.334007 176.047696 114.683781 175.397471 
C 114.033556 174.747245 113.151537 174.381901 112.231979 174.381901 
C 111.312421 174.381901 110.430402 174.747245 109.780176 175.397471 
C 109.12995 176.047696 108.764606 176.929715 108.764606 177.849273 
C 108.764606 178.768831 109.12995 179.65085 109.780176 180.301076 
C 110.430402 180.951302 111.312421 181.316646 112.231979 181.316646 
z
" style="fill:#4c72b0;stroke:#4c72b0;stroke-width:0.3;"/>
    <path clip-path="url(#pdbe2fdb928)" d="M 331.570699 287.535989 
C 331.674671 287.535989 331.7744 287.49468 331.84792 287.42116 
C 331.92144 287.34764 331.962748 287.247912 331.962748 287.143939 
C 331.962748 287.039966 331.92144 286.940238 331.84792 286.866718 
C 331.7744 286.793198 331.674671 286.751889 331.570699 286.751889 
C 331.466726 286.751889 331.366997 286.793198 331.293478 286.866718 
C 331.219958 286.940238 331.178649 287.039966 331.178649 287.143939 
C 331.178649 287.247912 331.219958 287.34764 331.293478 287.42116 
C 331.366997 287.49468 331.466726 287.535989 331.570699 287.535989 
z
" style="fill:#4c72b0;stroke:#4c72b0;stroke-width:0.3;"/>
    <path clip-path="url(#pdbe2fdb928)" d="M 120.889424 104.992664 
C 123.032923 104.992664 125.088918 104.141043 126.604601 102.62536 
C 128.120284 101.109678 128.971905 99.053682 128.971905 96.910183 
C 128.971905 94.766684 128.120284 92.710688 126.604601 91.195005 
C 125.088918 89.679323 123.032923 88.827701 120.889424 88.827701 
C 118.745924 88.827701 116.689929 89.679323 115.174246 91.195005 
C 113.658563 92.710688 112.806942 94.766684 112.806942 96.910183 
C 112.806942 99.053682 113.658563 101.109678 115.174246 102.62536 
C 116.689929 104.141043 118.745924 104.992664 120.889424 104.992664 
z
" style="fill:#4c72b0;stroke:#4c72b0;stroke-width:0.3;"/>
    <path clip-path="url(#pdbe2fdb928)" d="M 445.381078 133.788016 
C 446.685312 133.788016 447.936303 133.269839 448.858536 132.347606 
C 449.780768 131.425374 450.298946 130.174382 450.298946 128.870148 
C 450.298946 127.565915 449.780768 126.314923 448.858536 125.392691 
C 447.936303 124.470458 446.685312 123.95228 445.381078 123.95228 
C 444.076844 123.95228 442.825853 124.470458 441.90362 125.392691 
C 440.981388 126.314923 440.46321 127.565915 440.46321 128.870148 
C 440.46321 130.174382 440.981388 131.425374 441.90362 132.347606 
C 442.825853 133.269839 444.076844 133.788016 445.381078 133.788016 
z
" style="fill:#4c72b0;stroke:#4c72b0;stroke-width:0.3;"/>
    <path clip-path="url(#pdbe2fdb928)" d="M 388.968535 279.823341 
C 390.474432 279.823341 391.918855 279.225042 392.983685 278.160212 
C 394.048515 277.095381 394.646815 275.650959 394.646815 274.145061 
C 394.646815 272.639164 394.048515 271.194741 392.983685 270.129911 
C 391.918855 269.065081 390.474432 268.466781 388.968535 268.466781 
C 387.462637 268.466781 386.018215 269.065081 384.953384 270.129911 
C 383.888554 271.194741 383.290255 272.639164 383.290255 274.145061 
C 383.290255 275.650959 383.888554 277.095381 384.953384 278.160212 
C 386.018215 279.225042 387.462637 279.823341 388.968535 279.823341 
z
" style="fill:#4c72b0;stroke:#4c72b0;stroke-width:0.3;"/>
    <path clip-path="url(#pdbe2fdb928)" d="M 354.265537 260.191921 
C 354.280854 260.191921 354.295546 260.185836 354.306377 260.175005 
C 354.317207 260.164175 354.323293 260.149483 354.323293 260.134166 
C 354.323293 260.118849 354.317207 260.104157 354.306377 260.093327 
C 354.295546 260.082496 354.280854 260.07641 354.265537 260.07641 
C 354.25022 260.07641 354.235529 260.082496 354.224698 260.093327 
C 354.213867 260.104157 354.207782 260.118849 354.207782 260.134166 
C 354.207782 260.149483 354.213867 260.164175 354.224698 260.175005 
C 354.235529 260.185836 354.25022 260.191921 354.265537 260.191921 
z
" style="fill:#4c72b0;stroke:#4c72b0;stroke-width:0.3;"/>
    <path clip-path="url(#pdbe2fdb928)" d="M 97.723252 65.826556 
C 100.199747 65.826556 102.575144 64.842634 104.32629 63.091488 
C 106.077436 61.340341 107.061358 58.964944 107.061358 56.488449 
C 107.061358 54.011955 106.077436 51.636557 104.32629 49.885411 
C 102.575144 48.134265 100.199747 47.150343 97.723252 47.150343 
C 95.246757 47.150343 92.87136 48.134265 91.120214 49.885411 
C 89.369067 51.636557 88.385146 54.011955 88.385146 56.488449 
C 88.385146 58.964944 89.369067 61.340341 91.120214 63.091488 
C 92.87136 64.842634 95.246757 65.826556 97.723252 65.826556 
z
" style="fill:#4c72b0;stroke:#4c72b0;stroke-width:0.3;"/>
    <path clip-path="url(#pdbe2fdb928)" d="M 332.158877 56.732253 
C 333.520332 56.732253 334.826208 56.191342 335.788901 55.228648 
C 336.751595 54.265954 337.292506 52.960078 337.292506 51.598624 
C 337.292506 50.23717 336.751595 48.931294 335.788901 47.9686 
C 334.826208 47.005906 333.520332 46.464995 332.158877 46.464995 
C 330.797423 46.464995 329.491547 47.005906 328.528853 47.9686 
C 327.56616 48.931294 327.025248 50.23717 327.025248 51.598624 
C 327.025248 52.960078 327.56616 54.265954 328.528853 55.228648 
C 329.491547 56.191342 330.797423 56.732253 332.158877 56.732253 
z
" style="fill:#4c72b0;stroke:#4c72b0;stroke-width:0.3;"/>
    <path clip-path="url(#pdbe2fdb928)" d="M 380.243163 100.09709 
C 382.838851 100.09709 385.328576 99.065813 387.164005 97.230384 
C 388.999433 95.394955 390.030711 92.90523 390.030711 90.309542 
C 390.030711 87.713854 388.999433 85.224129 387.164005 83.388701 
C 385.328576 81.553272 382.838851 80.521994 380.243163 80.521994 
C 377.647475 80.521994 375.15775 81.553272 373.322321 83.388701 
C 371.486892 85.224129 370.455615 87.713854 370.455615 90.309542 
C 370.455615 92.90523 371.486892 95.394955 373.322321 97.230384 
C 375.15775 99.065813 377.647475 100.09709 380.243163 100.09709 
z
" style="fill:#4c72b0;stroke:#4c72b0;stroke-width:0.3;"/>
    <path clip-path="url(#pdbe2fdb928)" d="M 179.342619 73.077963 
C 179.484619 73.077963 179.620822 73.021546 179.721231 72.921137 
C 179.82164 72.820728 179.878057 72.684525 179.878057 72.542525 
C 179.878057 72.400525 179.82164 72.264322 179.721231 72.163913 
C 179.620822 72.063504 179.484619 72.007087 179.342619 72.007087 
C 179.20062 72.007087 179.064417 72.063504 178.964008 72.163913 
C 178.863599 72.264322 178.807182 72.400525 178.807182 72.542525 
C 178.807182 72.684525 178.863599 72.820728 178.964008 72.921137 
C 179.064417 73.021546 179.20062 73.077963 179.342619 73.077963 
z
" style="fill:#4c72b0;stroke:#4c72b0;stroke-width:0.3;"/>
    <path clip-path="url(#pdbe2fdb928)" d="M 159.369721 44.524268 
C 159.370084 44.524268 159.370431 44.524125 159.370687 44.523868 
C 159.370943 44.523612 159.371087 44.523265 159.371087 44.522903 
C 159.371087 44.522541 159.370943 44.522193 159.370687 44.521937 
C 159.370431 44.521681 159.370084 44.521537 159.369721 44.521537 
C 159.369359 44.521537 159.369012 44.521681 159.368756 44.521937 
C 159.3685 44.522193 159.368356 44.522541 159.368356 44.522903 
C 159.368356 44.523265 159.3685 44.523612 159.368756 44.523868 
C 159.369012 44.524125 159.369359 44.524268 159.369721 44.524268 
z
" style="fill:#4c72b0;stroke:#4c72b0;stroke-width:0.3;"/>
    <path clip-path="url(#pdbe2fdb928)" d="M 61.318783 55.318782 
C 63.3855 55.318782 65.367847 54.497666 66.829237 53.036277 
C 68.290626 51.574887 69.111742 49.59254 69.111742 47.525823 
C 69.111742 45.459106 68.290626 43.476758 66.829237 42.015369 
C 65.367847 40.553979 63.3855 39.732864 61.318783 39.732864 
C 59.252066 39.732864 57.269718 40.553979 55.808329 42.015369 
C 54.346939 43.476758 53.525824 45.459106 53.525824 47.525823 
C 53.525824 49.59254 54.346939 51.574887 55.808329 53.036277 
C 57.269718 54.497666 59.252066 55.318782 61.318783 55.318782 
z
" style="fill:#4c72b0;stroke:#4c72b0;stroke-width:0.3;"/>
    <path clip-path="url(#pdbe2fdb928)" d="M 261.625976 58.070809 
C 261.626309 58.070809 261.626628 58.070677 261.626863 58.070442 
C 261.627099 58.070207 261.627231 58.069888 261.627231 58.069555 
C 261.627231 58.069223 261.627099 58.068903 261.626863 58.068668 
C 261.626628 58.068433 261.626309 58.068301 261.625976 58.068301 
C 261.625644 58.068301 261.625325 58.068433 261.62509 58.068668 
C 261.624854 58.068903 261.624722 58.069223 261.624722 58.069555 
C 261.624722 58.069888 261.624854 58.070207 261.62509 58.070442 
C 261.625325 58.070677 261.625644 58.070809 261.625976 58.070809 
z
" style="fill:#4c72b0;stroke:#4c72b0;stroke-width:0.3;"/>
    <path clip-path="url(#pdbe2fdb928)" d="M 262.612766 141.791566 
C 262.967458 141.791566 263.307671 141.650646 263.558476 141.39984 
C 263.809282 141.149035 263.950203 140.808822 263.950203 140.45413 
C 263.950203 140.099438 263.809282 139.759225 263.558476 139.508419 
C 263.307671 139.257614 262.967458 139.116693 262.612766 139.116693 
C 262.258074 139.116693 261.917861 139.257614 261.667056 139.508419 
C 261.41625 139.759225 261.275329 140.099438 261.275329 140.45413 
C 261.275329 140.808822 261.41625 141.149035 261.667056 141.39984 
C 261.917861 141.650646 262.258074 141.791566 262.612766 141.791566 
z
" style="fill:#4c72b0;stroke:#4c72b0;stroke-width:0.3;"/>
   </g>
   <g id="patch_3">
    <path d="M 28.1 306.18 
L 28.1 7.2 
" style="fill:none;"/>
   </g>
   <g id="patch_4">
    <path d="M 474.5 306.18 
L 474.5 7.2 
" style="fill:none;"/>
   </g>
   <g id="patch_5">
    <path d="M 28.1 306.18 
L 474.5 306.18 
" style="fill:none;"/>
   </g>
   <g id="patch_6">
    <path d="M 28.1 7.2 
L 474.5 7.2 
" style="fill:none;"/>
   </g>
  </g>
 </g>
 <defs>
  <clipPath id="pdbe2fdb928">
   <rect height="298.98" width="446.4" x="28.1" y="7.2"/>
  </clipPath>
 </defs>
</svg>
