<?xml version="1.0" encoding="utf-8" standalone="no"?>
<!DOCTYPE svg PUBLIC "-//W3C//DTD SVG 1.1//EN"
  "http://www.w3.org/Graphics/SVG/1.1/DTD/svg11.dtd">
<!-- Created with matplotlib (https://matplotlib.org/) -->
<svg height="329.525312pt" version="1.1" viewBox="0 0 479.201562 329.525312" width="479.201562pt" xmlns="http://www.w3.org/2000/svg" xmlns:xlink="http://www.w3.org/1999/xlink">
 <metadata>
  <rdf:RDF xmlns:cc="http://creativecommons.org/ns#" xmlns:dc="http://purl.org/dc/elements/1.1/" xmlns:rdf="http://www.w3.org/1999/02/22-rdf-syntax-ns#">
   <cc:Work>
    <dc:type rdf:resource="http://purl.org/dc/dcmitype/StillImage"/>
    <dc:date>2021-12-07T18:16:43.770751</dc:date>
    <dc:format>image/svg+xml</dc:format>
    <dc:creator>
     <cc:Agent>
      <dc:title>Matplotlib v3.3.4, https://matplotlib.org/</dc:title>
     </cc:Agent>
    </dc:creator>
   </cc:Work>
  </rdf:RDF>
 </metadata>
 <defs>
  <style type="text/css">*{stroke-linecap:butt;stroke-linejoin:round;}</style>
 </defs>
 <g id="figure_1">
  <g id="patch_1">
   <path d="M 0 329.525312 
L 479.201562 329.525312 
L 479.201562 0 
L 0 0 
z
" style="fill:#ffffff;"/>
  </g>
  <g id="axes_1">
   <g id="patch_2">
    <path d="M 25.601562 306.18 
L 472.001562 306.18 
L 472.001562 7.2 
L 25.601562 7.2 
z
" style="fill:#eaeaf2;"/>
   </g>
   <g id="matplotlib.axis_1">
    <g id="xtick_1">
     <g id="line2d_1">
      <path clip-path="url(#p987b9fcbf6)" d="M 98.675944 306.18 
L 98.675944 7.2 
" style="fill:none;stroke:#ffffff;stroke-linecap:round;"/>
     </g>
     <g id="line2d_2"/>
     <g id="text_1">
      <!-- −2 -->
      <g style="fill:#262626;" transform="translate(92.975163 320.337812)scale(0.1 -0.1)">
       <defs>
        <path d="M 52.828125 31.203125 
L 5.5625 31.203125 
L 5.5625 39.40625 
L 52.828125 39.40625 
z
" id="ArialMT-8722"/>
        <path d="M 50.34375 8.453125 
L 50.34375 0 
L 3.03125 0 
Q 2.9375 3.171875 4.046875 6.109375 
Q 5.859375 10.9375 9.828125 15.625 
Q 13.8125 20.3125 21.34375 26.46875 
Q 33.015625 36.03125 37.109375 41.625 
Q 41.21875 47.21875 41.21875 52.203125 
Q 41.21875 57.421875 37.46875 61 
Q 33.734375 64.59375 27.734375 64.59375 
Q 21.390625 64.59375 17.578125 60.78125 
Q 13.765625 56.984375 13.71875 50.25 
L 4.6875 51.171875 
Q 5.609375 61.28125 11.65625 66.578125 
Q 17.71875 71.875 27.9375 71.875 
Q 38.234375 71.875 44.234375 66.15625 
Q 50.25 60.453125 50.25 52 
Q 50.25 47.703125 48.484375 43.546875 
Q 46.734375 39.40625 42.65625 34.8125 
Q 38.578125 30.21875 29.109375 22.21875 
Q 21.1875 15.578125 18.9375 13.203125 
Q 16.703125 10.84375 15.234375 8.453125 
z
" id="ArialMT-50"/>
       </defs>
       <use xlink:href="#ArialMT-8722"/>
       <use x="58.398438" xlink:href="#ArialMT-50"/>
      </g>
     </g>
    </g>
    <g id="xtick_2">
     <g id="line2d_3">
      <path clip-path="url(#p987b9fcbf6)" d="M 175.559648 306.18 
L 175.559648 7.2 
" style="fill:none;stroke:#ffffff;stroke-linecap:round;"/>
     </g>
     <g id="line2d_4"/>
     <g id="text_2">
      <!-- −1 -->
      <g style="fill:#262626;" transform="translate(169.858867 320.337812)scale(0.1 -0.1)">
       <defs>
        <path d="M 37.25 0 
L 28.46875 0 
L 28.46875 56 
Q 25.296875 52.984375 20.140625 49.953125 
Q 14.984375 46.921875 10.890625 45.40625 
L 10.890625 53.90625 
Q 18.265625 57.375 23.78125 62.296875 
Q 29.296875 67.234375 31.59375 71.875 
L 37.25 71.875 
z
" id="ArialMT-49"/>
       </defs>
       <use xlink:href="#ArialMT-8722"/>
       <use x="58.398438" xlink:href="#ArialMT-49"/>
      </g>
     </g>
    </g>
    <g id="xtick_3">
     <g id="line2d_5">
      <path clip-path="url(#p987b9fcbf6)" d="M 252.443352 306.18 
L 252.443352 7.2 
" style="fill:none;stroke:#ffffff;stroke-linecap:round;"/>
     </g>
     <g id="line2d_6"/>
     <g id="text_3">
      <!-- 0 -->
      <g style="fill:#262626;" transform="translate(249.662883 320.337812)scale(0.1 -0.1)">
       <defs>
        <path d="M 4.15625 35.296875 
Q 4.15625 48 6.765625 55.734375 
Q 9.375 63.484375 14.515625 67.671875 
Q 19.671875 71.875 27.484375 71.875 
Q 33.25 71.875 37.59375 69.546875 
Q 41.9375 67.234375 44.765625 62.859375 
Q 47.609375 58.5 49.21875 52.21875 
Q 50.828125 45.953125 50.828125 35.296875 
Q 50.828125 22.703125 48.234375 14.96875 
Q 45.65625 7.234375 40.5 3 
Q 35.359375 -1.21875 27.484375 -1.21875 
Q 17.140625 -1.21875 11.234375 6.203125 
Q 4.15625 15.140625 4.15625 35.296875 
z
M 13.1875 35.296875 
Q 13.1875 17.671875 17.3125 11.828125 
Q 21.4375 6 27.484375 6 
Q 33.546875 6 37.671875 11.859375 
Q 41.796875 17.71875 41.796875 35.296875 
Q 41.796875 52.984375 37.671875 58.78125 
Q 33.546875 64.59375 27.390625 64.59375 
Q 21.34375 64.59375 17.71875 59.46875 
Q 13.1875 52.9375 13.1875 35.296875 
z
" id="ArialMT-48"/>
       </defs>
       <use xlink:href="#ArialMT-48"/>
      </g>
     </g>
    </g>
    <g id="xtick_4">
     <g id="line2d_7">
      <path clip-path="url(#p987b9fcbf6)" d="M 329.327055 306.18 
L 329.327055 7.2 
" style="fill:none;stroke:#ffffff;stroke-linecap:round;"/>
     </g>
     <g id="line2d_8"/>
     <g id="text_4">
      <!-- 1 -->
      <g style="fill:#262626;" transform="translate(326.546587 320.337812)scale(0.1 -0.1)">
       <use xlink:href="#ArialMT-49"/>
      </g>
     </g>
    </g>
    <g id="xtick_5">
     <g id="line2d_9">
      <path clip-path="url(#p987b9fcbf6)" d="M 406.210759 306.18 
L 406.210759 7.2 
" style="fill:none;stroke:#ffffff;stroke-linecap:round;"/>
     </g>
     <g id="line2d_10"/>
     <g id="text_5">
      <!-- 2 -->
      <g style="fill:#262626;" transform="translate(403.43029 320.337812)scale(0.1 -0.1)">
       <use xlink:href="#ArialMT-50"/>
      </g>
     </g>
    </g>
   </g>
   <g id="matplotlib.axis_2">
    <g id="ytick_1">
     <g id="line2d_11">
      <path clip-path="url(#p987b9fcbf6)" d="M 25.601562 261.230619 
L 472.001562 261.230619 
" style="fill:none;stroke:#ffffff;stroke-linecap:round;"/>
     </g>
     <g id="line2d_12"/>
     <g id="text_6">
      <!-- −2 -->
      <g style="fill:#262626;" transform="translate(7.2 264.809525)scale(0.1 -0.1)">
       <use xlink:href="#ArialMT-8722"/>
       <use x="58.398438" xlink:href="#ArialMT-50"/>
      </g>
     </g>
    </g>
    <g id="ytick_2">
     <g id="line2d_13">
      <path clip-path="url(#p987b9fcbf6)" d="M 25.601562 208.704215 
L 472.001562 208.704215 
" style="fill:none;stroke:#ffffff;stroke-linecap:round;"/>
     </g>
     <g id="line2d_14"/>
     <g id="text_7">
      <!-- −1 -->
      <g style="fill:#262626;" transform="translate(7.2 212.283121)scale(0.1 -0.1)">
       <use xlink:href="#ArialMT-8722"/>
       <use x="58.398438" xlink:href="#ArialMT-49"/>
      </g>
     </g>
    </g>
    <g id="ytick_3">
     <g id="line2d_15">
      <path clip-path="url(#p987b9fcbf6)" d="M 25.601562 156.17781 
L 472.001562 156.17781 
" style="fill:none;stroke:#ffffff;stroke-linecap:round;"/>
     </g>
     <g id="line2d_16"/>
     <g id="text_8">
      <!-- 0 -->
      <g style="fill:#262626;" transform="translate(13.040625 159.756717)scale(0.1 -0.1)">
       <use xlink:href="#ArialMT-48"/>
      </g>
     </g>
    </g>
    <g id="ytick_4">
     <g id="line2d_17">
      <path clip-path="url(#p987b9fcbf6)" d="M 25.601562 103.651406 
L 472.001562 103.651406 
" style="fill:none;stroke:#ffffff;stroke-linecap:round;"/>
     </g>
     <g id="line2d_18"/>
     <g id="text_9">
      <!-- 1 -->
      <g style="fill:#262626;" transform="translate(13.040625 107.230312)scale(0.1 -0.1)">
       <use xlink:href="#ArialMT-49"/>
      </g>
     </g>
    </g>
    <g id="ytick_5">
     <g id="line2d_19">
      <path clip-path="url(#p987b9fcbf6)" d="M 25.601562 51.125002 
L 472.001562 51.125002 
" style="fill:none;stroke:#ffffff;stroke-linecap:round;"/>
     </g>
     <g id="line2d_20"/>
     <g id="text_10">
      <!-- 2 -->
      <g style="fill:#262626;" transform="translate(13.040625 54.703908)scale(0.1 -0.1)">
       <use xlink:href="#ArialMT-50"/>
      </g>
     </g>
    </g>
   </g>
   <g id="PathCollection_1">
    <defs>
     <path d="M 0 3.5 
C 0.928211 3.5 1.81853 3.131218 2.474874 2.474874 
C 3.131218 1.81853 3.5 0.928211 3.5 0 
C 3.5 -0.928211 3.131218 -1.81853 2.474874 -2.474874 
C 1.81853 -3.131218 0.928211 -3.5 0 -3.5 
C -0.928211 -3.5 -1.81853 -3.131218 -2.474874 -2.474874 
C -3.131218 -1.81853 -3.5 -0.928211 -3.5 0 
C -3.5 0.928211 -3.131218 1.81853 -2.474874 2.474874 
C -1.81853 3.131218 -0.928211 3.5 0 3.5 
z
" id="m61540c1a25" style="stroke:#4c72b0;stroke-width:0.3;"/>
    </defs>
    <g clip-path="url(#p987b9fcbf6)">
     <use style="fill:#4c72b0;stroke:#4c72b0;stroke-width:0.3;" x="45.892472" xlink:href="#m61540c1a25" y="159.677819"/>
     <use style="fill:#4c72b0;stroke:#4c72b0;stroke-width:0.3;" x="426.088742" xlink:href="#m61540c1a25" y="167.255327"/>
     <use style="fill:#4c72b0;stroke:#4c72b0;stroke-width:0.3;" x="318.721638" xlink:href="#m61540c1a25" y="132.81718"/>
     <use style="fill:#4c72b0;stroke:#4c72b0;stroke-width:0.3;" x="116.453839" xlink:href="#m61540c1a25" y="141.815675"/>
     <use style="fill:#4c72b0;stroke:#4c72b0;stroke-width:0.3;" x="266.648375" xlink:href="#m61540c1a25" y="158.271056"/>
     <use style="fill:#4c72b0;stroke:#4c72b0;stroke-width:0.3;" x="234.331387" xlink:href="#m61540c1a25" y="131.359312"/>
     <use style="fill:#4c72b0;stroke:#4c72b0;stroke-width:0.3;" x="152.049635" xlink:href="#m61540c1a25" y="167.500462"/>
     <use style="fill:#4c72b0;stroke:#4c72b0;stroke-width:0.3;" x="277.227948" xlink:href="#m61540c1a25" y="199.008551"/>
     <use style="fill:#4c72b0;stroke:#4c72b0;stroke-width:0.3;" x="175.970364" xlink:href="#m61540c1a25" y="92.062175"/>
     <use style="fill:#4c72b0;stroke:#4c72b0;stroke-width:0.3;" x="237.422149" xlink:href="#m61540c1a25" y="77.569681"/>
     <use style="fill:#4c72b0;stroke:#4c72b0;stroke-width:0.3;" x="263.940899" xlink:href="#m61540c1a25" y="133.348301"/>
     <use style="fill:#4c72b0;stroke:#4c72b0;stroke-width:0.3;" x="231.51499" xlink:href="#m61540c1a25" y="105.662311"/>
     <use style="fill:#4c72b0;stroke:#4c72b0;stroke-width:0.3;" x="311.179165" xlink:href="#m61540c1a25" y="184.894923"/>
     <use style="fill:#4c72b0;stroke:#4c72b0;stroke-width:0.3;" x="194.859553" xlink:href="#m61540c1a25" y="138.670877"/>
     <use style="fill:#4c72b0;stroke:#4c72b0;stroke-width:0.3;" x="276.036224" xlink:href="#m61540c1a25" y="99.243635"/>
     <use style="fill:#4c72b0;stroke:#4c72b0;stroke-width:0.3;" x="287.555297" xlink:href="#m61540c1a25" y="133.885017"/>
     <use style="fill:#4c72b0;stroke:#4c72b0;stroke-width:0.3;" x="93.585825" xlink:href="#m61540c1a25" y="52.581806"/>
     <use style="fill:#4c72b0;stroke:#4c72b0;stroke-width:0.3;" x="374.730663" xlink:href="#m61540c1a25" y="170.794264"/>
     <use style="fill:#4c72b0;stroke:#4c72b0;stroke-width:0.3;" x="124.921626" xlink:href="#m61540c1a25" y="187.34182"/>
     <use style="fill:#4c72b0;stroke:#4c72b0;stroke-width:0.3;" x="318.913378" xlink:href="#m61540c1a25" y="168.279023"/>
     <use style="fill:#4c72b0;stroke:#4c72b0;stroke-width:0.3;" x="209.488243" xlink:href="#m61540c1a25" y="83.595429"/>
     <use style="fill:#4c72b0;stroke:#4c72b0;stroke-width:0.3;" x="399.577427" xlink:href="#m61540c1a25" y="224.821285"/>
     <use style="fill:#4c72b0;stroke:#4c72b0;stroke-width:0.3;" x="315.067037" xlink:href="#m61540c1a25" y="188.524255"/>
     <use style="fill:#4c72b0;stroke:#4c72b0;stroke-width:0.3;" x="232.673002" xlink:href="#m61540c1a25" y="194.333076"/>
     <use style="fill:#4c72b0;stroke:#4c72b0;stroke-width:0.3;" x="451.710653" xlink:href="#m61540c1a25" y="106.1829"/>
     <use style="fill:#4c72b0;stroke:#4c72b0;stroke-width:0.3;" x="304.47419" xlink:href="#m61540c1a25" y="152.396682"/>
     <use style="fill:#4c72b0;stroke:#4c72b0;stroke-width:0.3;" x="387.971629" xlink:href="#m61540c1a25" y="191.327479"/>
     <use style="fill:#4c72b0;stroke:#4c72b0;stroke-width:0.3;" x="123.22977" xlink:href="#m61540c1a25" y="252.83395"/>
     <use style="fill:#4c72b0;stroke:#4c72b0;stroke-width:0.3;" x="313.194972" xlink:href="#m61540c1a25" y="206.767172"/>
     <use style="fill:#4c72b0;stroke:#4c72b0;stroke-width:0.3;" x="142.379211" xlink:href="#m61540c1a25" y="157.089173"/>
     <use style="fill:#4c72b0;stroke:#4c72b0;stroke-width:0.3;" x="207.929818" xlink:href="#m61540c1a25" y="147.656155"/>
     <use style="fill:#4c72b0;stroke:#4c72b0;stroke-width:0.3;" x="167.13164" xlink:href="#m61540c1a25" y="213.681286"/>
     <use style="fill:#4c72b0;stroke:#4c72b0;stroke-width:0.3;" x="165.745613" xlink:href="#m61540c1a25" y="194.54035"/>
     <use style="fill:#4c72b0;stroke:#4c72b0;stroke-width:0.3;" x="204.104974" xlink:href="#m61540c1a25" y="172.68756"/>
     <use style="fill:#4c72b0;stroke:#4c72b0;stroke-width:0.3;" x="389.980717" xlink:href="#m61540c1a25" y="159.170692"/>
     <use style="fill:#4c72b0;stroke:#4c72b0;stroke-width:0.3;" x="261.235959" xlink:href="#m61540c1a25" y="33.497427"/>
     <use style="fill:#4c72b0;stroke:#4c72b0;stroke-width:0.3;" x="298.547939" xlink:href="#m61540c1a25" y="129.52427"/>
     <use style="fill:#4c72b0;stroke:#4c72b0;stroke-width:0.3;" x="342.504492" xlink:href="#m61540c1a25" y="93.591428"/>
     <use style="fill:#4c72b0;stroke:#4c72b0;stroke-width:0.3;" x="214.158482" xlink:href="#m61540c1a25" y="214.652506"/>
     <use style="fill:#4c72b0;stroke:#4c72b0;stroke-width:0.3;" x="223.684483" xlink:href="#m61540c1a25" y="131.468164"/>
     <use style="fill:#4c72b0;stroke:#4c72b0;stroke-width:0.3;" x="340.191003" xlink:href="#m61540c1a25" y="68.280481"/>
     <use style="fill:#4c72b0;stroke:#4c72b0;stroke-width:0.3;" x="174.98692" xlink:href="#m61540c1a25" y="187.990005"/>
     <use style="fill:#4c72b0;stroke:#4c72b0;stroke-width:0.3;" x="214.856871" xlink:href="#m61540c1a25" y="190.37536"/>
     <use style="fill:#4c72b0;stroke:#4c72b0;stroke-width:0.3;" x="171.858155" xlink:href="#m61540c1a25" y="215.36626"/>
     <use style="fill:#4c72b0;stroke:#4c72b0;stroke-width:0.3;" x="156.741278" xlink:href="#m61540c1a25" y="189.437901"/>
     <use style="fill:#4c72b0;stroke:#4c72b0;stroke-width:0.3;" x="394.262069" xlink:href="#m61540c1a25" y="170.610948"/>
     <use style="fill:#4c72b0;stroke:#4c72b0;stroke-width:0.3;" x="361.026137" xlink:href="#m61540c1a25" y="95.435657"/>
     <use style="fill:#4c72b0;stroke:#4c72b0;stroke-width:0.3;" x="204.894945" xlink:href="#m61540c1a25" y="292.59"/>
     <use style="fill:#4c72b0;stroke:#4c72b0;stroke-width:0.3;" x="303.157287" xlink:href="#m61540c1a25" y="218.415645"/>
     <use style="fill:#4c72b0;stroke:#4c72b0;stroke-width:0.3;" x="186.62367" xlink:href="#m61540c1a25" y="83.849729"/>
     <use style="fill:#4c72b0;stroke:#4c72b0;stroke-width:0.3;" x="189.62616" xlink:href="#m61540c1a25" y="191.188836"/>
     <use style="fill:#4c72b0;stroke:#4c72b0;stroke-width:0.3;" x="210.194462" xlink:href="#m61540c1a25" y="203.266448"/>
     <use style="fill:#4c72b0;stroke:#4c72b0;stroke-width:0.3;" x="360.617282" xlink:href="#m61540c1a25" y="228.535618"/>
     <use style="fill:#4c72b0;stroke:#4c72b0;stroke-width:0.3;" x="106.650665" xlink:href="#m61540c1a25" y="234.589419"/>
     <use style="fill:#4c72b0;stroke:#4c72b0;stroke-width:0.3;" x="309.628432" xlink:href="#m61540c1a25" y="157.39327"/>
     <use style="fill:#4c72b0;stroke:#4c72b0;stroke-width:0.3;" x="194.28749" xlink:href="#m61540c1a25" y="150.621658"/>
     <use style="fill:#4c72b0;stroke:#4c72b0;stroke-width:0.3;" x="165.543684" xlink:href="#m61540c1a25" y="65.417809"/>
     <use style="fill:#4c72b0;stroke:#4c72b0;stroke-width:0.3;" x="373.106747" xlink:href="#m61540c1a25" y="183.127748"/>
     <use style="fill:#4c72b0;stroke:#4c72b0;stroke-width:0.3;" x="395.917604" xlink:href="#m61540c1a25" y="177.933183"/>
     <use style="fill:#4c72b0;stroke:#4c72b0;stroke-width:0.3;" x="406.046888" xlink:href="#m61540c1a25" y="64.377209"/>
     <use style="fill:#4c72b0;stroke:#4c72b0;stroke-width:0.3;" x="111.290924" xlink:href="#m61540c1a25" y="133.83648"/>
     <use style="fill:#4c72b0;stroke:#4c72b0;stroke-width:0.3;" x="325.246087" xlink:href="#m61540c1a25" y="115.67367"/>
     <use style="fill:#4c72b0;stroke:#4c72b0;stroke-width:0.3;" x="247.247887" xlink:href="#m61540c1a25" y="153.149503"/>
     <use style="fill:#4c72b0;stroke:#4c72b0;stroke-width:0.3;" x="141.216068" xlink:href="#m61540c1a25" y="240.695006"/>
     <use style="fill:#4c72b0;stroke:#4c72b0;stroke-width:0.3;" x="195.695832" xlink:href="#m61540c1a25" y="251.564802"/>
     <use style="fill:#4c72b0;stroke:#4c72b0;stroke-width:0.3;" x="194.962613" xlink:href="#m61540c1a25" y="137.722096"/>
     <use style="fill:#4c72b0;stroke:#4c72b0;stroke-width:0.3;" x="249.245002" xlink:href="#m61540c1a25" y="175.672493"/>
     <use style="fill:#4c72b0;stroke:#4c72b0;stroke-width:0.3;" x="292.48514" xlink:href="#m61540c1a25" y="152.597495"/>
     <use style="fill:#4c72b0;stroke:#4c72b0;stroke-width:0.3;" x="230.370892" xlink:href="#m61540c1a25" y="20.79"/>
     <use style="fill:#4c72b0;stroke:#4c72b0;stroke-width:0.3;" x="326.480486" xlink:href="#m61540c1a25" y="181.196805"/>
     <use style="fill:#4c72b0;stroke:#4c72b0;stroke-width:0.3;" x="233.448381" xlink:href="#m61540c1a25" y="212.754798"/>
     <use style="fill:#4c72b0;stroke:#4c72b0;stroke-width:0.3;" x="360.122492" xlink:href="#m61540c1a25" y="133.338748"/>
     <use style="fill:#4c72b0;stroke:#4c72b0;stroke-width:0.3;" x="306.654631" xlink:href="#m61540c1a25" y="142.084858"/>
     <use style="fill:#4c72b0;stroke:#4c72b0;stroke-width:0.3;" x="274.351394" xlink:href="#m61540c1a25" y="141.214559"/>
     <use style="fill:#4c72b0;stroke:#4c72b0;stroke-width:0.3;" x="61.618374" xlink:href="#m61540c1a25" y="207.216571"/>
     <use style="fill:#4c72b0;stroke:#4c72b0;stroke-width:0.3;" x="156.945443" xlink:href="#m61540c1a25" y="140.296514"/>
     <use style="fill:#4c72b0;stroke:#4c72b0;stroke-width:0.3;" x="133.298774" xlink:href="#m61540c1a25" y="92.153407"/>
     <use style="fill:#4c72b0;stroke:#4c72b0;stroke-width:0.3;" x="327.051752" xlink:href="#m61540c1a25" y="198.179737"/>
     <use style="fill:#4c72b0;stroke:#4c72b0;stroke-width:0.3;" x="301.68153" xlink:href="#m61540c1a25" y="105.866085"/>
     <use style="fill:#4c72b0;stroke:#4c72b0;stroke-width:0.3;" x="150.631633" xlink:href="#m61540c1a25" y="91.547801"/>
     <use style="fill:#4c72b0;stroke:#4c72b0;stroke-width:0.3;" x="240.292912" xlink:href="#m61540c1a25" y="56.629772"/>
     <use style="fill:#4c72b0;stroke:#4c72b0;stroke-width:0.3;" x="300.923527" xlink:href="#m61540c1a25" y="133.788525"/>
     <use style="fill:#4c72b0;stroke:#4c72b0;stroke-width:0.3;" x="268.951631" xlink:href="#m61540c1a25" y="214.41507"/>
     <use style="fill:#4c72b0;stroke:#4c72b0;stroke-width:0.3;" x="232.464768" xlink:href="#m61540c1a25" y="131.702159"/>
     <use style="fill:#4c72b0;stroke:#4c72b0;stroke-width:0.3;" x="127.606662" xlink:href="#m61540c1a25" y="178.296662"/>
     <use style="fill:#4c72b0;stroke:#4c72b0;stroke-width:0.3;" x="218.331805" xlink:href="#m61540c1a25" y="123.899368"/>
     <use style="fill:#4c72b0;stroke:#4c72b0;stroke-width:0.3;" x="367.51653" xlink:href="#m61540c1a25" y="176.443685"/>
     <use style="fill:#4c72b0;stroke:#4c72b0;stroke-width:0.3;" x="314.141635" xlink:href="#m61540c1a25" y="200.695653"/>
     <use style="fill:#4c72b0;stroke:#4c72b0;stroke-width:0.3;" x="161.561373" xlink:href="#m61540c1a25" y="149.455123"/>
     <use style="fill:#4c72b0;stroke:#4c72b0;stroke-width:0.3;" x="221.622907" xlink:href="#m61540c1a25" y="167.556313"/>
     <use style="fill:#4c72b0;stroke:#4c72b0;stroke-width:0.3;" x="269.339889" xlink:href="#m61540c1a25" y="190.71117"/>
     <use style="fill:#4c72b0;stroke:#4c72b0;stroke-width:0.3;" x="363.217677" xlink:href="#m61540c1a25" y="90.572806"/>
     <use style="fill:#4c72b0;stroke:#4c72b0;stroke-width:0.3;" x="68.047592" xlink:href="#m61540c1a25" y="243.717772"/>
     <use style="fill:#4c72b0;stroke:#4c72b0;stroke-width:0.3;" x="245.513398" xlink:href="#m61540c1a25" y="86.02816"/>
     <use style="fill:#4c72b0;stroke:#4c72b0;stroke-width:0.3;" x="250.028998" xlink:href="#m61540c1a25" y="248.420616"/>
     <use style="fill:#4c72b0;stroke:#4c72b0;stroke-width:0.3;" x="176.523662" xlink:href="#m61540c1a25" y="85.21208"/>
     <use style="fill:#4c72b0;stroke:#4c72b0;stroke-width:0.3;" x="135.756" xlink:href="#m61540c1a25" y="204.691373"/>
     <use style="fill:#4c72b0;stroke:#4c72b0;stroke-width:0.3;" x="296.935484" xlink:href="#m61540c1a25" y="135.638227"/>
     <use style="fill:#4c72b0;stroke:#4c72b0;stroke-width:0.3;" x="255.605283" xlink:href="#m61540c1a25" y="167.849417"/>
     <use style="fill:#4c72b0;stroke:#4c72b0;stroke-width:0.3;" x="268.855413" xlink:href="#m61540c1a25" y="89.970942"/>
    </g>
   </g>
   <g id="patch_3">
    <path d="M 25.601562 306.18 
L 25.601562 7.2 
" style="fill:none;"/>
   </g>
   <g id="patch_4">
    <path d="M 472.001562 306.18 
L 472.001562 7.2 
" style="fill:none;"/>
   </g>
   <g id="patch_5">
    <path d="M 25.601563 306.18 
L 472.001562 306.18 
" style="fill:none;"/>
   </g>
   <g id="patch_6">
    <path d="M 25.601563 7.2 
L 472.001562 7.2 
" style="fill:none;"/>
   </g>
  </g>
 </g>
 <defs>
  <clipPath id="p987b9fcbf6">
   <rect height="298.98" width="446.4" x="25.601562" y="7.2"/>
  </clipPath>
 </defs>
</svg>
