<?xml version="1.0" encoding="utf-8" standalone="no"?>
<!DOCTYPE svg PUBLIC "-//W3C//DTD SVG 1.1//EN"
  "http://www.w3.org/Graphics/SVG/1.1/DTD/svg11.dtd">
<!-- Created with matplotlib (https://matplotlib.org/) -->
<svg height="329.525312pt" version="1.1" viewBox="0 0 481.7 329.525312" width="481.7pt" xmlns="http://www.w3.org/2000/svg" xmlns:xlink="http://www.w3.org/1999/xlink">
 <metadata>
  <rdf:RDF xmlns:cc="http://creativecommons.org/ns#" xmlns:dc="http://purl.org/dc/elements/1.1/" xmlns:rdf="http://www.w3.org/1999/02/22-rdf-syntax-ns#">
   <cc:Work>
    <dc:type rdf:resource="http://purl.org/dc/dcmitype/StillImage"/>
    <dc:date>2021-12-07T18:16:46.510335</dc:date>
    <dc:format>image/svg+xml</dc:format>
    <dc:creator>
     <cc:Agent>
      <dc:title>Matplotlib v3.3.4, https://matplotlib.org/</dc:title>
     </cc:Agent>
    </dc:creator>
   </cc:Work>
  </rdf:RDF>
 </metadata>
 <defs>
  <style type="text/css">*{stroke-linecap:butt;stroke-linejoin:round;}</style>
 </defs>
 <g id="figure_1">
  <g id="patch_1">
   <path d="M 0 329.525312 
L 481.7 329.525312 
L 481.7 0 
L 0 0 
z
" style="fill:#ffffff;"/>
  </g>
  <g id="axes_1">
   <g id="patch_2">
    <path d="M 28.1 306.18 
L 474.5 306.18 
L 474.5 7.2 
L 28.1 7.2 
z
" style="fill:#eaeaf2;"/>
   </g>
   <g id="matplotlib.axis_1">
    <g id="xtick_1">
     <g id="line2d_1">
      <path clip-path="url(#pb31ee84e6b)" d="M 28.477035 306.18 
L 28.477035 7.2 
" style="fill:none;stroke:#ffffff;stroke-linecap:round;"/>
     </g>
     <g id="line2d_2"/>
     <g id="text_1">
      <!-- 0.0 -->
      <g style="fill:#262626;" transform="translate(21.527035 320.337812)scale(0.1 -0.1)">
       <defs>
        <path d="M 4.15625 35.296875 
Q 4.15625 48 6.765625 55.734375 
Q 9.375 63.484375 14.515625 67.671875 
Q 19.671875 71.875 27.484375 71.875 
Q 33.25 71.875 37.59375 69.546875 
Q 41.9375 67.234375 44.765625 62.859375 
Q 47.609375 58.5 49.21875 52.21875 
Q 50.828125 45.953125 50.828125 35.296875 
Q 50.828125 22.703125 48.234375 14.96875 
Q 45.65625 7.234375 40.5 3 
Q 35.359375 -1.21875 27.484375 -1.21875 
Q 17.140625 -1.21875 11.234375 6.203125 
Q 4.15625 15.140625 4.15625 35.296875 
z
M 13.1875 35.296875 
Q 13.1875 17.671875 17.3125 11.828125 
Q 21.4375 6 27.484375 6 
Q 33.546875 6 37.671875 11.859375 
Q 41.796875 17.71875 41.796875 35.296875 
Q 41.796875 52.984375 37.671875 58.78125 
Q 33.546875 64.59375 27.390625 64.59375 
Q 21.34375 64.59375 17.71875 59.46875 
Q 13.1875 52.9375 13.1875 35.296875 
z
" id="ArialMT-48"/>
        <path d="M 9.078125 0 
L 9.078125 10.015625 
L 19.09375 10.015625 
L 19.09375 0 
z
" id="ArialMT-46"/>
       </defs>
       <use xlink:href="#ArialMT-48"/>
       <use x="55.615234" xlink:href="#ArialMT-46"/>
       <use x="83.398438" xlink:href="#ArialMT-48"/>
      </g>
     </g>
    </g>
    <g id="xtick_2">
     <g id="line2d_3">
      <path clip-path="url(#pb31ee84e6b)" d="M 114.399452 306.18 
L 114.399452 7.2 
" style="fill:none;stroke:#ffffff;stroke-linecap:round;"/>
     </g>
     <g id="line2d_4"/>
     <g id="text_2">
      <!-- 0.2 -->
      <g style="fill:#262626;" transform="translate(107.449452 320.337812)scale(0.1 -0.1)">
       <defs>
        <path d="M 50.34375 8.453125 
L 50.34375 0 
L 3.03125 0 
Q 2.9375 3.171875 4.046875 6.109375 
Q 5.859375 10.9375 9.828125 15.625 
Q 13.8125 20.3125 21.34375 26.46875 
Q 33.015625 36.03125 37.109375 41.625 
Q 41.21875 47.21875 41.21875 52.203125 
Q 41.21875 57.421875 37.46875 61 
Q 33.734375 64.59375 27.734375 64.59375 
Q 21.390625 64.59375 17.578125 60.78125 
Q 13.765625 56.984375 13.71875 50.25 
L 4.6875 51.171875 
Q 5.609375 61.28125 11.65625 66.578125 
Q 17.71875 71.875 27.9375 71.875 
Q 38.234375 71.875 44.234375 66.15625 
Q 50.25 60.453125 50.25 52 
Q 50.25 47.703125 48.484375 43.546875 
Q 46.734375 39.40625 42.65625 34.8125 
Q 38.578125 30.21875 29.109375 22.21875 
Q 21.1875 15.578125 18.9375 13.203125 
Q 16.703125 10.84375 15.234375 8.453125 
z
" id="ArialMT-50"/>
       </defs>
       <use xlink:href="#ArialMT-48"/>
       <use x="55.615234" xlink:href="#ArialMT-46"/>
       <use x="83.398438" xlink:href="#ArialMT-50"/>
      </g>
     </g>
    </g>
    <g id="xtick_3">
     <g id="line2d_5">
      <path clip-path="url(#pb31ee84e6b)" d="M 200.321869 306.18 
L 200.321869 7.2 
" style="fill:none;stroke:#ffffff;stroke-linecap:round;"/>
     </g>
     <g id="line2d_6"/>
     <g id="text_3">
      <!-- 0.4 -->
      <g style="fill:#262626;" transform="translate(193.371869 320.337812)scale(0.1 -0.1)">
       <defs>
        <path d="M 32.328125 0 
L 32.328125 17.140625 
L 1.265625 17.140625 
L 1.265625 25.203125 
L 33.9375 71.578125 
L 41.109375 71.578125 
L 41.109375 25.203125 
L 50.78125 25.203125 
L 50.78125 17.140625 
L 41.109375 17.140625 
L 41.109375 0 
z
M 32.328125 25.203125 
L 32.328125 57.46875 
L 9.90625 25.203125 
z
" id="ArialMT-52"/>
       </defs>
       <use xlink:href="#ArialMT-48"/>
       <use x="55.615234" xlink:href="#ArialMT-46"/>
       <use x="83.398438" xlink:href="#ArialMT-52"/>
      </g>
     </g>
    </g>
    <g id="xtick_4">
     <g id="line2d_7">
      <path clip-path="url(#pb31ee84e6b)" d="M 286.244286 306.18 
L 286.244286 7.2 
" style="fill:none;stroke:#ffffff;stroke-linecap:round;"/>
     </g>
     <g id="line2d_8"/>
     <g id="text_4">
      <!-- 0.6 -->
      <g style="fill:#262626;" transform="translate(279.294286 320.337812)scale(0.1 -0.1)">
       <defs>
        <path d="M 49.75 54.046875 
L 41.015625 53.375 
Q 39.84375 58.546875 37.703125 60.890625 
Q 34.125 64.65625 28.90625 64.65625 
Q 24.703125 64.65625 21.53125 62.3125 
Q 17.390625 59.28125 14.984375 53.46875 
Q 12.59375 47.65625 12.5 36.921875 
Q 15.671875 41.75 20.265625 44.09375 
Q 24.859375 46.4375 29.890625 46.4375 
Q 38.671875 46.4375 44.84375 39.96875 
Q 51.03125 33.5 51.03125 23.25 
Q 51.03125 16.5 48.125 10.71875 
Q 45.21875 4.9375 40.140625 1.859375 
Q 35.0625 -1.21875 28.609375 -1.21875 
Q 17.625 -1.21875 10.6875 6.859375 
Q 3.765625 14.9375 3.765625 33.5 
Q 3.765625 54.25 11.421875 63.671875 
Q 18.109375 71.875 29.4375 71.875 
Q 37.890625 71.875 43.28125 67.140625 
Q 48.6875 62.40625 49.75 54.046875 
z
M 13.875 23.1875 
Q 13.875 18.65625 15.796875 14.5 
Q 17.71875 10.359375 21.1875 8.171875 
Q 24.65625 6 28.46875 6 
Q 34.03125 6 38.03125 10.484375 
Q 42.046875 14.984375 42.046875 22.703125 
Q 42.046875 30.125 38.078125 34.390625 
Q 34.125 38.671875 28.125 38.671875 
Q 22.171875 38.671875 18.015625 34.390625 
Q 13.875 30.125 13.875 23.1875 
z
" id="ArialMT-54"/>
       </defs>
       <use xlink:href="#ArialMT-48"/>
       <use x="55.615234" xlink:href="#ArialMT-46"/>
       <use x="83.398438" xlink:href="#ArialMT-54"/>
      </g>
     </g>
    </g>
    <g id="xtick_5">
     <g id="line2d_9">
      <path clip-path="url(#pb31ee84e6b)" d="M 372.166703 306.18 
L 372.166703 7.2 
" style="fill:none;stroke:#ffffff;stroke-linecap:round;"/>
     </g>
     <g id="line2d_10"/>
     <g id="text_5">
      <!-- 0.8 -->
      <g style="fill:#262626;" transform="translate(365.216703 320.337812)scale(0.1 -0.1)">
       <defs>
        <path d="M 17.671875 38.8125 
Q 12.203125 40.828125 9.5625 44.53125 
Q 6.9375 48.25 6.9375 53.421875 
Q 6.9375 61.234375 12.546875 66.546875 
Q 18.171875 71.875 27.484375 71.875 
Q 36.859375 71.875 42.578125 66.421875 
Q 48.296875 60.984375 48.296875 53.171875 
Q 48.296875 48.1875 45.671875 44.5 
Q 43.0625 40.828125 37.75 38.8125 
Q 44.34375 36.671875 47.78125 31.875 
Q 51.21875 27.09375 51.21875 20.453125 
Q 51.21875 11.28125 44.71875 5.03125 
Q 38.234375 -1.21875 27.640625 -1.21875 
Q 17.046875 -1.21875 10.546875 5.046875 
Q 4.046875 11.328125 4.046875 20.703125 
Q 4.046875 27.6875 7.59375 32.390625 
Q 11.140625 37.109375 17.671875 38.8125 
z
M 15.921875 53.71875 
Q 15.921875 48.640625 19.1875 45.40625 
Q 22.46875 42.1875 27.6875 42.1875 
Q 32.765625 42.1875 36.015625 45.375 
Q 39.265625 48.578125 39.265625 53.21875 
Q 39.265625 58.0625 35.90625 61.359375 
Q 32.5625 64.65625 27.59375 64.65625 
Q 22.5625 64.65625 19.234375 61.421875 
Q 15.921875 58.203125 15.921875 53.71875 
z
M 13.09375 20.65625 
Q 13.09375 16.890625 14.875 13.375 
Q 16.65625 9.859375 20.171875 7.921875 
Q 23.6875 6 27.734375 6 
Q 34.03125 6 38.125 10.046875 
Q 42.234375 14.109375 42.234375 20.359375 
Q 42.234375 26.703125 38.015625 30.859375 
Q 33.796875 35.015625 27.4375 35.015625 
Q 21.234375 35.015625 17.15625 30.90625 
Q 13.09375 26.8125 13.09375 20.65625 
z
" id="ArialMT-56"/>
       </defs>
       <use xlink:href="#ArialMT-48"/>
       <use x="55.615234" xlink:href="#ArialMT-46"/>
       <use x="83.398438" xlink:href="#ArialMT-56"/>
      </g>
     </g>
    </g>
    <g id="xtick_6">
     <g id="line2d_11">
      <path clip-path="url(#pb31ee84e6b)" d="M 458.08912 306.18 
L 458.08912 7.2 
" style="fill:none;stroke:#ffffff;stroke-linecap:round;"/>
     </g>
     <g id="line2d_12"/>
     <g id="text_6">
      <!-- 1.0 -->
      <g style="fill:#262626;" transform="translate(451.13912 320.337812)scale(0.1 -0.1)">
       <defs>
        <path d="M 37.25 0 
L 28.46875 0 
L 28.46875 56 
Q 25.296875 52.984375 20.140625 49.953125 
Q 14.984375 46.921875 10.890625 45.40625 
L 10.890625 53.90625 
Q 18.265625 57.375 23.78125 62.296875 
Q 29.296875 67.234375 31.59375 71.875 
L 37.25 71.875 
z
" id="ArialMT-49"/>
       </defs>
       <use xlink:href="#ArialMT-49"/>
       <use x="55.615234" xlink:href="#ArialMT-46"/>
       <use x="83.398438" xlink:href="#ArialMT-48"/>
      </g>
     </g>
    </g>
   </g>
   <g id="matplotlib.axis_2">
    <g id="ytick_1">
     <g id="line2d_13">
      <path clip-path="url(#pb31ee84e6b)" d="M 28.1 293.447618 
L 474.5 293.447618 
" style="fill:none;stroke:#ffffff;stroke-linecap:round;"/>
     </g>
     <g id="line2d_14"/>
     <g id="text_7">
      <!-- 0.0 -->
      <g style="fill:#262626;" transform="translate(7.2 297.026524)scale(0.1 -0.1)">
       <use xlink:href="#ArialMT-48"/>
       <use x="55.615234" xlink:href="#ArialMT-46"/>
       <use x="83.398438" xlink:href="#ArialMT-48"/>
      </g>
     </g>
    </g>
    <g id="ytick_2">
     <g id="line2d_15">
      <path clip-path="url(#pb31ee84e6b)" d="M 28.1 237.685219 
L 474.5 237.685219 
" style="fill:none;stroke:#ffffff;stroke-linecap:round;"/>
     </g>
     <g id="line2d_16"/>
     <g id="text_8">
      <!-- 0.2 -->
      <g style="fill:#262626;" transform="translate(7.2 241.264126)scale(0.1 -0.1)">
       <use xlink:href="#ArialMT-48"/>
       <use x="55.615234" xlink:href="#ArialMT-46"/>
       <use x="83.398438" xlink:href="#ArialMT-50"/>
      </g>
     </g>
    </g>
    <g id="ytick_3">
     <g id="line2d_17">
      <path clip-path="url(#pb31ee84e6b)" d="M 28.1 181.922821 
L 474.5 181.922821 
" style="fill:none;stroke:#ffffff;stroke-linecap:round;"/>
     </g>
     <g id="line2d_18"/>
     <g id="text_9">
      <!-- 0.4 -->
      <g style="fill:#262626;" transform="translate(7.2 185.501727)scale(0.1 -0.1)">
       <use xlink:href="#ArialMT-48"/>
       <use x="55.615234" xlink:href="#ArialMT-46"/>
       <use x="83.398438" xlink:href="#ArialMT-52"/>
      </g>
     </g>
    </g>
    <g id="ytick_4">
     <g id="line2d_19">
      <path clip-path="url(#pb31ee84e6b)" d="M 28.1 126.160422 
L 474.5 126.160422 
" style="fill:none;stroke:#ffffff;stroke-linecap:round;"/>
     </g>
     <g id="line2d_20"/>
     <g id="text_10">
      <!-- 0.6 -->
      <g style="fill:#262626;" transform="translate(7.2 129.739328)scale(0.1 -0.1)">
       <use xlink:href="#ArialMT-48"/>
       <use x="55.615234" xlink:href="#ArialMT-46"/>
       <use x="83.398438" xlink:href="#ArialMT-54"/>
      </g>
     </g>
    </g>
    <g id="ytick_5">
     <g id="line2d_21">
      <path clip-path="url(#pb31ee84e6b)" d="M 28.1 70.398023 
L 474.5 70.398023 
" style="fill:none;stroke:#ffffff;stroke-linecap:round;"/>
     </g>
     <g id="line2d_22"/>
     <g id="text_11">
      <!-- 0.8 -->
      <g style="fill:#262626;" transform="translate(7.2 73.97693)scale(0.1 -0.1)">
       <use xlink:href="#ArialMT-48"/>
       <use x="55.615234" xlink:href="#ArialMT-46"/>
       <use x="83.398438" xlink:href="#ArialMT-56"/>
      </g>
     </g>
    </g>
    <g id="ytick_6">
     <g id="line2d_23">
      <path clip-path="url(#pb31ee84e6b)" d="M 28.1 14.635625 
L 474.5 14.635625 
" style="fill:none;stroke:#ffffff;stroke-linecap:round;"/>
     </g>
     <g id="line2d_24"/>
     <g id="text_12">
      <!-- 1.0 -->
      <g style="fill:#262626;" transform="translate(7.2 18.214531)scale(0.1 -0.1)">
       <use xlink:href="#ArialMT-49"/>
       <use x="55.615234" xlink:href="#ArialMT-46"/>
       <use x="83.398438" xlink:href="#ArialMT-48"/>
      </g>
     </g>
    </g>
   </g>
   <g id="PathCollection_1">
    <defs>
     <path d="M 0 3.5 
C 0.928211 3.5 1.81853 3.131218 2.474874 2.474874 
C 3.131218 1.81853 3.5 0.928211 3.5 0 
C 3.5 -0.928211 3.131218 -1.81853 2.474874 -2.474874 
C 1.81853 -3.131218 0.928211 -3.5 0 -3.5 
C -0.928211 -3.5 -1.81853 -3.131218 -2.474874 -2.474874 
C -3.131218 -1.81853 -3.5 -0.928211 -3.5 0 
C -3.5 0.928211 -3.131218 1.81853 -2.474874 2.474874 
C -1.81853 3.131218 -0.928211 3.5 0 3.5 
z
" id="m7bec457c68" style="stroke:#4c72b0;stroke-width:0.3;"/>
    </defs>
    <g clip-path="url(#pb31ee84e6b)">
     <use style="fill:#4c72b0;stroke:#4c72b0;stroke-width:0.3;" x="454.209091" xlink:href="#m7bec457c68" y="165.263872"/>
     <use style="fill:#4c72b0;stroke:#4c72b0;stroke-width:0.3;" x="296.297606" xlink:href="#m7bec457c68" y="29.237019"/>
     <use style="fill:#4c72b0;stroke:#4c72b0;stroke-width:0.3;" x="354.999858" xlink:href="#m7bec457c68" y="243.389034"/>
     <use style="fill:#4c72b0;stroke:#4c72b0;stroke-width:0.3;" x="63.973694" xlink:href="#m7bec457c68" y="45.605184"/>
     <use style="fill:#4c72b0;stroke:#4c72b0;stroke-width:0.3;" x="402.67328" xlink:href="#m7bec457c68" y="241.75122"/>
     <use style="fill:#4c72b0;stroke:#4c72b0;stroke-width:0.3;" x="146.434494" xlink:href="#m7bec457c68" y="254.623494"/>
     <use style="fill:#4c72b0;stroke:#4c72b0;stroke-width:0.3;" x="355.53489" xlink:href="#m7bec457c68" y="205.644277"/>
     <use style="fill:#4c72b0;stroke:#4c72b0;stroke-width:0.3;" x="396.61951" xlink:href="#m7bec457c68" y="56.967658"/>
     <use style="fill:#4c72b0;stroke:#4c72b0;stroke-width:0.3;" x="375.543422" xlink:href="#m7bec457c68" y="268.267378"/>
     <use style="fill:#4c72b0;stroke:#4c72b0;stroke-width:0.3;" x="87.523967" xlink:href="#m7bec457c68" y="214.656344"/>
     <use style="fill:#4c72b0;stroke:#4c72b0;stroke-width:0.3;" x="121.276348" xlink:href="#m7bec457c68" y="171.732592"/>
     <use style="fill:#4c72b0;stroke:#4c72b0;stroke-width:0.3;" x="435.665747" xlink:href="#m7bec457c68" y="229.004858"/>
     <use style="fill:#4c72b0;stroke:#4c72b0;stroke-width:0.3;" x="421.046216" xlink:href="#m7bec457c68" y="93.237284"/>
     <use style="fill:#4c72b0;stroke:#4c72b0;stroke-width:0.3;" x="124.557632" xlink:href="#m7bec457c68" y="180.925782"/>
     <use style="fill:#4c72b0;stroke:#4c72b0;stroke-width:0.3;" x="242.769481" xlink:href="#m7bec457c68" y="119.803962"/>
     <use style="fill:#4c72b0;stroke:#4c72b0;stroke-width:0.3;" x="189.563361" xlink:href="#m7bec457c68" y="41.502535"/>
     <use style="fill:#4c72b0;stroke:#4c72b0;stroke-width:0.3;" x="287.568654" xlink:href="#m7bec457c68" y="66.345927"/>
     <use style="fill:#4c72b0;stroke:#4c72b0;stroke-width:0.3;" x="284.382898" xlink:href="#m7bec457c68" y="52.017904"/>
     <use style="fill:#4c72b0;stroke:#4c72b0;stroke-width:0.3;" x="302.244362" xlink:href="#m7bec457c68" y="159.198695"/>
     <use style="fill:#4c72b0;stroke:#4c72b0;stroke-width:0.3;" x="297.66198" xlink:href="#m7bec457c68" y="206.421557"/>
     <use style="fill:#4c72b0;stroke:#4c72b0;stroke-width:0.3;" x="410.26778" xlink:href="#m7bec457c68" y="212.655848"/>
     <use style="fill:#4c72b0;stroke:#4c72b0;stroke-width:0.3;" x="53.643262" xlink:href="#m7bec457c68" y="97.28997"/>
     <use style="fill:#4c72b0;stroke:#4c72b0;stroke-width:0.3;" x="49.066369" xlink:href="#m7bec457c68" y="284.329812"/>
     <use style="fill:#4c72b0;stroke:#4c72b0;stroke-width:0.3;" x="321.145396" xlink:href="#m7bec457c68" y="42.64052"/>
     <use style="fill:#4c72b0;stroke:#4c72b0;stroke-width:0.3;" x="139.888746" xlink:href="#m7bec457c68" y="147.035528"/>
     <use style="fill:#4c72b0;stroke:#4c72b0;stroke-width:0.3;" x="116.430315" xlink:href="#m7bec457c68" y="221.556249"/>
     <use style="fill:#4c72b0;stroke:#4c72b0;stroke-width:0.3;" x="69.091742" xlink:href="#m7bec457c68" y="49.08295"/>
     <use style="fill:#4c72b0;stroke:#4c72b0;stroke-width:0.3;" x="383.969379" xlink:href="#m7bec457c68" y="68.80143"/>
     <use style="fill:#4c72b0;stroke:#4c72b0;stroke-width:0.3;" x="341.551957" xlink:href="#m7bec457c68" y="162.497423"/>
     <use style="fill:#4c72b0;stroke:#4c72b0;stroke-width:0.3;" x="153.51569" xlink:href="#m7bec457c68" y="237.16793"/>
     <use style="fill:#4c72b0;stroke:#4c72b0;stroke-width:0.3;" x="438.03863" xlink:href="#m7bec457c68" y="240.922497"/>
     <use style="fill:#4c72b0;stroke:#4c72b0;stroke-width:0.3;" x="312.206856" xlink:href="#m7bec457c68" y="265.003324"/>
     <use style="fill:#4c72b0;stroke:#4c72b0;stroke-width:0.3;" x="48.390909" xlink:href="#m7bec457c68" y="162.374489"/>
     <use style="fill:#4c72b0;stroke:#4c72b0;stroke-width:0.3;" x="393.358485" xlink:href="#m7bec457c68" y="285.306582"/>
     <use style="fill:#4c72b0;stroke:#4c72b0;stroke-width:0.3;" x="348.458938" xlink:href="#m7bec457c68" y="67.362773"/>
     <use style="fill:#4c72b0;stroke:#4c72b0;stroke-width:0.3;" x="51.530103" xlink:href="#m7bec457c68" y="209.587573"/>
     <use style="fill:#4c72b0;stroke:#4c72b0;stroke-width:0.3;" x="303.831852" xlink:href="#m7bec457c68" y="196.537094"/>
     <use style="fill:#4c72b0;stroke:#4c72b0;stroke-width:0.3;" x="88.191614" xlink:href="#m7bec457c68" y="93.913577"/>
     <use style="fill:#4c72b0;stroke:#4c72b0;stroke-width:0.3;" x="331.096089" xlink:href="#m7bec457c68" y="275.685967"/>
     <use style="fill:#4c72b0;stroke:#4c72b0;stroke-width:0.3;" x="296.454273" xlink:href="#m7bec457c68" y="196.32848"/>
     <use style="fill:#4c72b0;stroke:#4c72b0;stroke-width:0.3;" x="49.587974" xlink:href="#m7bec457c68" y="251.168004"/>
     <use style="fill:#4c72b0;stroke:#4c72b0;stroke-width:0.3;" x="355.256608" xlink:href="#m7bec457c68" y="231.259655"/>
     <use style="fill:#4c72b0;stroke:#4c72b0;stroke-width:0.3;" x="77.49565" xlink:href="#m7bec457c68" y="123.212863"/>
     <use style="fill:#4c72b0;stroke:#4c72b0;stroke-width:0.3;" x="361.782422" xlink:href="#m7bec457c68" y="145.558163"/>
     <use style="fill:#4c72b0;stroke:#4c72b0;stroke-width:0.3;" x="392.145043" xlink:href="#m7bec457c68" y="100.445076"/>
     <use style="fill:#4c72b0;stroke:#4c72b0;stroke-width:0.3;" x="60.691167" xlink:href="#m7bec457c68" y="201.636305"/>
     <use style="fill:#4c72b0;stroke:#4c72b0;stroke-width:0.3;" x="347.825801" xlink:href="#m7bec457c68" y="237.051944"/>
     <use style="fill:#4c72b0;stroke:#4c72b0;stroke-width:0.3;" x="234.202461" xlink:href="#m7bec457c68" y="28.173844"/>
     <use style="fill:#4c72b0;stroke:#4c72b0;stroke-width:0.3;" x="432.557723" xlink:href="#m7bec457c68" y="155.590963"/>
     <use style="fill:#4c72b0;stroke:#4c72b0;stroke-width:0.3;" x="75.83344" xlink:href="#m7bec457c68" y="273.542462"/>
     <use style="fill:#4c72b0;stroke:#4c72b0;stroke-width:0.3;" x="445.184087" xlink:href="#m7bec457c68" y="53.064473"/>
     <use style="fill:#4c72b0;stroke:#4c72b0;stroke-width:0.3;" x="245.879113" xlink:href="#m7bec457c68" y="22.817624"/>
     <use style="fill:#4c72b0;stroke:#4c72b0;stroke-width:0.3;" x="311.677473" xlink:href="#m7bec457c68" y="233.534573"/>
     <use style="fill:#4c72b0;stroke:#4c72b0;stroke-width:0.3;" x="99.808654" xlink:href="#m7bec457c68" y="186.336404"/>
     <use style="fill:#4c72b0;stroke:#4c72b0;stroke-width:0.3;" x="104.485273" xlink:href="#m7bec457c68" y="100.088241"/>
     <use style="fill:#4c72b0;stroke:#4c72b0;stroke-width:0.3;" x="202.086089" xlink:href="#m7bec457c68" y="209.389474"/>
     <use style="fill:#4c72b0;stroke:#4c72b0;stroke-width:0.3;" x="309.36859" xlink:href="#m7bec457c68" y="98.692764"/>
     <use style="fill:#4c72b0;stroke:#4c72b0;stroke-width:0.3;" x="354.714703" xlink:href="#m7bec457c68" y="91.295625"/>
     <use style="fill:#4c72b0;stroke:#4c72b0;stroke-width:0.3;" x="62.814012" xlink:href="#m7bec457c68" y="194.077558"/>
     <use style="fill:#4c72b0;stroke:#4c72b0;stroke-width:0.3;" x="200.040841" xlink:href="#m7bec457c68" y="175.474802"/>
     <use style="fill:#4c72b0;stroke:#4c72b0;stroke-width:0.3;" x="211.664565" xlink:href="#m7bec457c68" y="60.711748"/>
     <use style="fill:#4c72b0;stroke:#4c72b0;stroke-width:0.3;" x="415.091102" xlink:href="#m7bec457c68" y="29.832263"/>
     <use style="fill:#4c72b0;stroke:#4c72b0;stroke-width:0.3;" x="392.187545" xlink:href="#m7bec457c68" y="24.610794"/>
     <use style="fill:#4c72b0;stroke:#4c72b0;stroke-width:0.3;" x="175.96842" xlink:href="#m7bec457c68" y="132.774569"/>
     <use style="fill:#4c72b0;stroke:#4c72b0;stroke-width:0.3;" x="334.542931" xlink:href="#m7bec457c68" y="20.79"/>
     <use style="fill:#4c72b0;stroke:#4c72b0;stroke-width:0.3;" x="166.654651" xlink:href="#m7bec457c68" y="120.565615"/>
     <use style="fill:#4c72b0;stroke:#4c72b0;stroke-width:0.3;" x="94.008467" xlink:href="#m7bec457c68" y="264.350203"/>
     <use style="fill:#4c72b0;stroke:#4c72b0;stroke-width:0.3;" x="289.229302" xlink:href="#m7bec457c68" y="111.460496"/>
     <use style="fill:#4c72b0;stroke:#4c72b0;stroke-width:0.3;" x="301.918966" xlink:href="#m7bec457c68" y="150.907208"/>
     <use style="fill:#4c72b0;stroke:#4c72b0;stroke-width:0.3;" x="63.346228" xlink:href="#m7bec457c68" y="141.842013"/>
     <use style="fill:#4c72b0;stroke:#4c72b0;stroke-width:0.3;" x="68.213258" xlink:href="#m7bec457c68" y="292.59"/>
     <use style="fill:#4c72b0;stroke:#4c72b0;stroke-width:0.3;" x="313.385002" xlink:href="#m7bec457c68" y="126.802073"/>
     <use style="fill:#4c72b0;stroke:#4c72b0;stroke-width:0.3;" x="172.304434" xlink:href="#m7bec457c68" y="249.56165"/>
     <use style="fill:#4c72b0;stroke:#4c72b0;stroke-width:0.3;" x="181.363172" xlink:href="#m7bec457c68" y="55.262078"/>
     <use style="fill:#4c72b0;stroke:#4c72b0;stroke-width:0.3;" x="113.86403" xlink:href="#m7bec457c68" y="154.673138"/>
     <use style="fill:#4c72b0;stroke:#4c72b0;stroke-width:0.3;" x="298.44175" xlink:href="#m7bec457c68" y="70.523319"/>
     <use style="fill:#4c72b0;stroke:#4c72b0;stroke-width:0.3;" x="370.945483" xlink:href="#m7bec457c68" y="189.842434"/>
     <use style="fill:#4c72b0;stroke:#4c72b0;stroke-width:0.3;" x="190.756259" xlink:href="#m7bec457c68" y="202.837404"/>
     <use style="fill:#4c72b0;stroke:#4c72b0;stroke-width:0.3;" x="308.002864" xlink:href="#m7bec457c68" y="216.291731"/>
     <use style="fill:#4c72b0;stroke:#4c72b0;stroke-width:0.3;" x="340.959918" xlink:href="#m7bec457c68" y="263.871213"/>
     <use style="fill:#4c72b0;stroke:#4c72b0;stroke-width:0.3;" x="53.41194" xlink:href="#m7bec457c68" y="231.155331"/>
     <use style="fill:#4c72b0;stroke:#4c72b0;stroke-width:0.3;" x="59.987542" xlink:href="#m7bec457c68" y="290.31255"/>
     <use style="fill:#4c72b0;stroke:#4c72b0;stroke-width:0.3;" x="74.34623" xlink:href="#m7bec457c68" y="217.434008"/>
     <use style="fill:#4c72b0;stroke:#4c72b0;stroke-width:0.3;" x="430.554256" xlink:href="#m7bec457c68" y="258.055931"/>
     <use style="fill:#4c72b0;stroke:#4c72b0;stroke-width:0.3;" x="109.504402" xlink:href="#m7bec457c68" y="178.315545"/>
     <use style="fill:#4c72b0;stroke:#4c72b0;stroke-width:0.3;" x="376.455121" xlink:href="#m7bec457c68" y="275.574972"/>
     <use style="fill:#4c72b0;stroke:#4c72b0;stroke-width:0.3;" x="210.264621" xlink:href="#m7bec457c68" y="54.153928"/>
     <use style="fill:#4c72b0;stroke:#4c72b0;stroke-width:0.3;" x="430.037297" xlink:href="#m7bec457c68" y="196.981905"/>
     <use style="fill:#4c72b0;stroke:#4c72b0;stroke-width:0.3;" x="167.660092" xlink:href="#m7bec457c68" y="187.961921"/>
     <use style="fill:#4c72b0;stroke:#4c72b0;stroke-width:0.3;" x="329.647868" xlink:href="#m7bec457c68" y="211.499156"/>
     <use style="fill:#4c72b0;stroke:#4c72b0;stroke-width:0.3;" x="314.553633" xlink:href="#m7bec457c68" y="256.621097"/>
     <use style="fill:#4c72b0;stroke:#4c72b0;stroke-width:0.3;" x="242.176909" xlink:href="#m7bec457c68" y="33.329928"/>
     <use style="fill:#4c72b0;stroke:#4c72b0;stroke-width:0.3;" x="141.080041" xlink:href="#m7bec457c68" y="285.093812"/>
     <use style="fill:#4c72b0;stroke:#4c72b0;stroke-width:0.3;" x="104.125816" xlink:href="#m7bec457c68" y="276.284395"/>
     <use style="fill:#4c72b0;stroke:#4c72b0;stroke-width:0.3;" x="256.027285" xlink:href="#m7bec457c68" y="283.174198"/>
     <use style="fill:#4c72b0;stroke:#4c72b0;stroke-width:0.3;" x="357.721643" xlink:href="#m7bec457c68" y="226.502104"/>
     <use style="fill:#4c72b0;stroke:#4c72b0;stroke-width:0.3;" x="81.210382" xlink:href="#m7bec457c68" y="270.877938"/>
     <use style="fill:#4c72b0;stroke:#4c72b0;stroke-width:0.3;" x="339.193897" xlink:href="#m7bec457c68" y="90.129829"/>
     <use style="fill:#4c72b0;stroke:#4c72b0;stroke-width:0.3;" x="271.65137" xlink:href="#m7bec457c68" y="278.872122"/>
     <use style="fill:#4c72b0;stroke:#4c72b0;stroke-width:0.3;" x="335.256926" xlink:href="#m7bec457c68" y="64.962154"/>
    </g>
   </g>
   <g id="patch_3">
    <path d="M 28.1 306.18 
L 28.1 7.2 
" style="fill:none;"/>
   </g>
   <g id="patch_4">
    <path d="M 474.5 306.18 
L 474.5 7.2 
" style="fill:none;"/>
   </g>
   <g id="patch_5">
    <path d="M 28.1 306.18 
L 474.5 306.18 
" style="fill:none;"/>
   </g>
   <g id="patch_6">
    <path d="M 28.1 7.2 
L 474.5 7.2 
" style="fill:none;"/>
   </g>
  </g>
 </g>
 <defs>
  <clipPath id="pb31ee84e6b">
   <rect height="298.98" width="446.4" x="28.1" y="7.2"/>
  </clipPath>
 </defs>
</svg>
